<?xml version="1.0" encoding="UTF-8"?>
<svg xmlns="http://www.w3.org/2000/svg" xmlns:xlink="http://www.w3.org/1999/xlink" width="16pt" height="16pt" viewBox="0 0 16 16" version="1.1">
<g id="surface1">
<path style=" stroke:none;fill-rule:nonzero;fill:rgb(12.54902%,44.705882%,27.058824%);fill-opacity:1;" d="M 9.398438 1.101562 L 9.398438 2.398438 C 11.101562 2.398438 12.800781 2.398438 14.398438 2.398438 C 14.601562 2.398438 14.898438 2.398438 15 2.398438 C 15.300781 2.5 15.300781 2.601562 15.300781 2.800781 C 15.300781 3 15.300781 3.101562 15.300781 3.300781 C 15.300781 6.199219 15.300781 8.800781 15.300781 11.699219 C 15.300781 12.199219 15.300781 13.101562 15.300781 13.101562 C 15.300781 13.300781 15.199219 13.300781 15.199219 13.398438 C 15 13.5 14.699219 13.5 14.5 13.5 C 12.800781 13.5 11 13.5 9.300781 13.5 L 9.300781 15 L 0.5 13.699219 L 0.5 2.398438 Z M 9.398438 1.101562 "/>
<path style=" stroke:none;fill-rule:nonzero;fill:rgb(100%,100%,100%);fill-opacity:1;" d="M 9.398438 2.898438 C 11.300781 2.898438 13.101562 2.898438 14.898438 2.898438 C 14.898438 6.300781 14.898438 9.601562 14.898438 13.101562 C 13 13.101562 11.199219 13.101562 9.398438 13.101562 C 9.398438 12.800781 9.398438 12.398438 9.398438 12.101562 C 9.800781 12.101562 10.300781 12.101562 10.800781 12.101562 C 10.800781 11.800781 10.800781 11.398438 10.800781 11 C 10.398438 11 9.898438 11 9.398438 11 C 9.398438 10.800781 9.398438 10.601562 9.398438 10.398438 C 9.800781 10.398438 10.300781 10.398438 10.800781 10.398438 C 10.800781 10.101562 10.800781 9.699219 10.800781 9.300781 C 10.398438 9.300781 9.898438 9.300781 9.398438 9.300781 C 9.398438 9.101562 9.398438 8.898438 9.398438 8.601562 C 9.800781 8.601562 10.300781 8.601562 10.800781 8.601562 C 10.800781 8.300781 10.800781 7.898438 10.800781 7.5 C 10.398438 7.5 9.898438 7.5 9.398438 7.5 C 9.398438 7.300781 9.398438 7.101562 9.398438 6.898438 C 9.800781 6.898438 10.300781 6.898438 10.800781 6.898438 C 10.800781 6.601562 10.800781 6.199219 10.800781 5.800781 C 10.398438 5.800781 9.898438 5.800781 9.398438 5.800781 C 9.398438 5.601562 9.398438 5.398438 9.398438 5.101562 C 9.800781 5.101562 10.300781 5.101562 10.800781 5.101562 C 10.800781 4.800781 10.800781 4.398438 10.800781 4 C 10.398438 4 9.898438 4 9.398438 4 C 9.398438 3.398438 9.398438 3.199219 9.398438 2.898438 Z M 9.398438 2.898438 "/>
<path style=" stroke:none;fill-rule:nonzero;fill:rgb(12.54902%,44.705882%,27.058824%);fill-opacity:1;" d="M 11.398438 3.800781 C 12.199219 3.800781 13 3.800781 13.699219 3.800781 C 13.699219 4.101562 13.699219 4.5 13.699219 4.898438 C 12.898438 4.898438 12.101562 4.898438 11.398438 4.898438 C 11.398438 4.601562 11.398438 4.199219 11.398438 3.800781 Z M 11.398438 3.800781 "/>
<path style=" stroke:none;fill-rule:nonzero;fill:rgb(100%,100%,100%);fill-opacity:1;" d="M 5.601562 5.300781 C 5.898438 5.300781 6.398438 5.199219 6.699219 5.199219 C 6.300781 6.101562 5.699219 7 5.300781 7.898438 C 5.699219 8.800781 6.199219 9.699219 6.699219 10.601562 C 6.398438 10.601562 5.800781 10.5 5.5 10.5 C 5.199219 9.800781 4.800781 9.199219 4.601562 8.5 C 4.300781 9.199219 4.101562 9.699219 3.699219 10.5 C 3.398438 10.5 2.898438 10.5 2.601562 10.398438 C 3.199219 9.5 3.601562 8.699219 4 7.898438 C 3.699219 7.101562 3.199219 6.300781 2.898438 5.5 C 3.199219 5.5 3.699219 5.398438 4 5.398438 C 4.199219 6 4.5 6.601562 4.601562 7.300781 C 5 6.601562 5.300781 6 5.601562 5.300781 Z M 5.601562 5.300781 "/>
<path style=" stroke:none;fill-rule:nonzero;fill:rgb(12.54902%,44.705882%,27.058824%);fill-opacity:1;" d="M 11.398438 5.601562 C 12.199219 5.601562 13 5.601562 13.699219 5.601562 C 13.699219 5.898438 13.699219 6.300781 13.699219 6.699219 C 12.898438 6.699219 12.101562 6.699219 11.398438 6.699219 C 11.398438 6.398438 11.398438 6 11.398438 5.601562 Z M 11.398438 5.601562 "/>
<path style=" stroke:none;fill-rule:nonzero;fill:rgb(12.54902%,44.705882%,27.058824%);fill-opacity:1;" d="M 11.398438 7.300781 C 12.199219 7.300781 13 7.300781 13.699219 7.300781 C 13.699219 7.601562 13.699219 8 13.699219 8.398438 C 12.898438 8.398438 12.101562 8.398438 11.398438 8.398438 C 11.398438 8.101562 11.398438 7.800781 11.398438 7.300781 Z M 11.398438 7.300781 "/>
<path style=" stroke:none;fill-rule:nonzero;fill:rgb(12.54902%,44.705882%,27.058824%);fill-opacity:1;" d="M 11.398438 9.101562 C 12.199219 9.101562 13 9.101562 13.699219 9.101562 C 13.699219 9.398438 13.699219 9.800781 13.699219 10.199219 C 12.898438 10.199219 12.101562 10.199219 11.398438 10.199219 C 11.398438 9.898438 11.398438 9.5 11.398438 9.101562 Z M 11.398438 9.101562 "/>
<path style=" stroke:none;fill-rule:nonzero;fill:rgb(12.54902%,44.705882%,27.058824%);fill-opacity:1;" d="M 11.398438 10.898438 C 12.199219 10.898438 13 10.898438 13.699219 10.898438 C 13.699219 11.199219 13.699219 11.601562 13.699219 12 C 12.898438 12 12.101562 12 11.398438 12 C 11.398438 11.699219 11.398438 11.300781 11.398438 10.898438 Z M 11.398438 10.898438 "/>
</g>
</svg>
