<?xml version="1.0" encoding="UTF-8"?>
<svg xmlns="http://www.w3.org/2000/svg" xmlns:xlink="http://www.w3.org/1999/xlink" width="16pt" height="16pt" viewBox="0 0 16 16" version="1.1">
<defs>
<radialGradient id="radial0" gradientUnits="userSpaceOnUse" cx="139.8684" cy="25.9992" fx="139.8684" fy="25.9992" r="0.0276491" gradientTransform="matrix(298.826,0,0,306.4759,-41789.5703,-7962.23)">
<stop offset="0" style="stop-color:rgb(23.921569%,19.607843%,18.431373%);stop-opacity:1;"/>
<stop offset="0.7669" style="stop-color:rgb(11.764706%,6.666667%,5.490196%);stop-opacity:1;"/>
<stop offset="1" style="stop-color:rgb(11.764706%,6.666667%,5.490196%);stop-opacity:1;"/>
</radialGradient>
</defs>
<g id="surface1">
<path style=" stroke:none;fill-rule:nonzero;fill:rgb(11.764706%,6.666667%,5.490196%);fill-opacity:1;" d="M 15 15 L 1.101562 15 L 1.101562 1.101562 L 15 1.101562 L 15 15 "/>
<path style=" stroke:none;fill-rule:nonzero;fill:url(#radial0);" d="M 14.398438 1.699219 L 1.699219 1.699219 L 1.699219 14.300781 L 14.398438 14.300781 L 1.699219 14.300781 L 1.699219 1.699219 L 14.398438 1.699219 "/>
<path style=" stroke:none;fill-rule:nonzero;fill:rgb(93.333333%,23.921569%,13.72549%);fill-opacity:1;" d="M 1.101562 1.101562 L 1.101562 15 L 15 15 L 15 1.101562 Z M 1.699219 1.699219 L 14.398438 1.699219 L 14.398438 14.300781 L 1.699219 14.300781 Z M 1.699219 1.699219 "/>
<path style=" stroke:none;fill-rule:nonzero;fill:rgb(96.862745%,97.254902%,96.862745%);fill-opacity:1;" d="M 12.800781 9.601562 C 12.800781 9.5 12.699219 8.699219 11.300781 8.699219 C 9.898438 8.800781 9.601562 8.898438 9.601562 8.898438 C 9.601562 8.898438 8.398438 7.800781 8.101562 7 C 8.101562 7 8.5 5.601562 8.5 4.800781 C 8.5 4 8.300781 3.398438 7.699219 3.398438 C 7.101562 3.398438 6.898438 4 7 4.800781 C 7 5.601562 7.398438 6.5 7.398438 6.5 C 7.398438 6.5 7.101562 7.5 6.699219 8.398438 C 6.300781 9.398438 6 9.800781 6 9.800781 C 6 9.800781 4.601562 10.199219 4 10.800781 C 3.398438 11.398438 3.101562 11.800781 3.5 12.199219 C 3.800781 12.601562 4.699219 12.601562 5.5 11.5 C 6.300781 10.398438 6.699219 9.699219 6.699219 9.699219 C 6.699219 9.699219 8 9.300781 8.398438 9.300781 C 8.800781 9.199219 9.300781 9.101562 9.300781 9.101562 C 9.300781 9.101562 10.5 10.300781 11.601562 10.300781 C 12.898438 10.398438 12.800781 9.699219 12.800781 9.601562 Z M 3.898438 12.101562 C 3.199219 11.699219 5.398438 10.398438 5.800781 10.300781 C 5.800781 10.398438 4.601562 12.601562 3.898438 12.101562 Z M 7.300781 4.601562 C 7.300781 3.898438 7.5 3.699219 7.699219 3.699219 C 7.898438 3.699219 8.101562 3.800781 8.101562 4.398438 C 8.101562 5 7.699219 6.199219 7.699219 6.199219 C 7.5 6 7.300781 5.199219 7.300781 4.601562 Z M 8.101562 9.199219 C 7.5 9.398438 7 9.601562 7 9.601562 C 7 9.601562 7 9.601562 7.300781 9 C 7.601562 8.398438 7.898438 7.5 7.898438 7.5 C 8.300781 8.199219 9.101562 9.101562 9.101562 9.101562 C 9.101562 9.101562 8.898438 9.101562 8.101562 9.199219 Z M 9.898438 9.199219 C 9.898438 9.199219 12.199219 8.800781 12.199219 9.601562 C 12.101562 10.398438 10.699219 10 9.898438 9.199219 Z M 9.898438 9.199219 "/>
</g>
</svg>
