<?xml version="1.0" encoding="UTF-8"?>
<svg xmlns="http://www.w3.org/2000/svg" xmlns:xlink="http://www.w3.org/1999/xlink" width="16pt" height="16pt" viewBox="0 0 16 16" version="1.1">
<g id="surface1">
<path style=" stroke:none;fill-rule:nonzero;fill:rgb(14.117647%,23.529412%,50.196078%);fill-opacity:1;" d="M 9.28125 1 L 9.28125 2.28125 C 10.960938 2.28125 12.878906 2.28125 14.640625 2.28125 C 14.960938 2.28125 15.121094 2.359375 15.121094 2.679688 C 15.199219 5.878906 15.121094 9.238281 15.121094 12.441406 C 15.121094 12.679688 15.121094 13 15.039062 13.238281 C 14.960938 13.480469 14.878906 13.558594 14.640625 13.558594 C 14.480469 13.558594 14.238281 13.558594 14.160156 13.558594 C 12.800781 13.558594 11.28125 13.558594 9.921875 13.558594 L 9.359375 13.558594 L 9.359375 14.839844 L 0.878906 13.640625 C 0.878906 9.878906 0.878906 6.121094 0.878906 2.359375 Z M 9.28125 1 "/>
<path style=" stroke:none;fill-rule:nonzero;fill:rgb(100%,100%,100%);fill-opacity:1;" d="M 9.28125 2.839844 C 11.121094 2.839844 12.878906 2.839844 14.640625 2.839844 C 14.640625 6.28125 14.640625 9.71875 14.640625 13.238281 C 12.800781 13.238281 11.039062 13.238281 9.28125 13.238281 C 9.28125 12.839844 9.28125 12.359375 9.28125 11.960938 C 10.640625 11.960938 12.078125 11.960938 13.441406 11.960938 C 13.441406 11.71875 13.441406 11.558594 13.441406 11.320312 C 12.078125 11.320312 10.640625 11.320312 9.28125 11.320312 C 9.28125 11.078125 9.28125 10.839844 9.28125 10.519531 C 10.640625 10.519531 12.078125 10.519531 13.441406 10.519531 C 13.441406 10.28125 13.441406 10.121094 13.441406 9.878906 C 12.078125 9.878906 10.640625 9.878906 9.28125 9.878906 C 9.28125 9.640625 9.28125 9.398438 9.28125 9.078125 C 10.640625 9.078125 12.078125 9.078125 13.441406 9.078125 C 13.441406 8.839844 13.441406 8.679688 13.441406 8.441406 C 12.078125 8.441406 10.640625 8.441406 9.28125 8.441406 C 9.28125 8.199219 9.28125 7.960938 9.28125 7.640625 C 10.640625 7.640625 12.078125 7.640625 13.441406 7.640625 C 13.441406 7.398438 13.441406 7.238281 13.441406 7 C 12.078125 7 10.640625 7 9.28125 7 C 9.28125 6.761719 9.28125 6.519531 9.28125 6.199219 C 10.640625 6.199219 12.078125 6.199219 13.441406 6.199219 C 13.441406 5.960938 13.441406 5.800781 13.441406 5.558594 C 12.078125 5.558594 10.640625 5.558594 9.28125 5.558594 C 9.28125 5.320312 9.28125 5.078125 9.28125 4.761719 C 10.640625 4.761719 12.078125 4.761719 13.441406 4.761719 C 13.441406 4.519531 13.441406 4.359375 13.441406 4.121094 C 12.078125 4.121094 10.640625 4.121094 9.28125 4.121094 C 9.28125 3.558594 9.28125 3.160156 9.28125 2.839844 Z M 9.28125 2.839844 "/>
<path style=" stroke:none;fill-rule:nonzero;fill:rgb(100%,100%,100%);fill-opacity:1;" d="M 4.238281 5.640625 C 4.558594 5.640625 4.878906 5.558594 5.121094 5.558594 C 5.359375 6.601562 5.519531 7.71875 5.761719 8.839844 C 6 7.640625 6.078125 6.601562 6.320312 5.480469 C 6.640625 5.480469 6.960938 5.398438 7.28125 5.398438 C 6.960938 6.921875 6.640625 8.601562 6.238281 10.121094 C 6 10.28125 5.601562 10.121094 5.28125 10.121094 C 5.039062 9.078125 4.800781 7.960938 4.640625 6.921875 C 4.398438 7.960938 4.238281 9 4 10.039062 C 3.679688 10.039062 3.359375 9.960938 3.121094 9.960938 C 2.878906 8.601562 2.558594 7.078125 2.320312 5.71875 C 2.558594 5.71875 2.878906 5.71875 3.121094 5.640625 C 3.199219 6.679688 3.359375 7.640625 3.519531 8.761719 C 3.761719 7.71875 4 6.761719 4.238281 5.640625 Z M 4.238281 5.640625 "/>
</g>
</svg>
