<svg width="40" height="30" viewBox="0 0 40 30" fill="none" xmlns="http://www.w3.org/2000/svg">
<g clip-path="url(#clip0)">
<path d="M1.03502 16.9966L3.07952 17.5036L4.61852 15.0871L1.69352 14.3641C1.34443 14.2768 0.974947 14.3317 0.666356 14.5168C0.357765 14.7019 0.135343 15.002 0.0480205 15.3511C-0.039302 15.7002 0.0156279 16.0697 0.200726 16.3783C0.385825 16.6869 0.685929 16.9093 1.03502 16.9966ZM27.7215 17.3881L21.027 23.4121L13.1565 17.3206C13.0063 17.2051 12.8336 17.1223 12.6495 17.0776L11.6025 16.8166L10.062 19.2331L11.712 19.6426L20.2575 26.2546C20.5112 26.4499 20.8252 26.5503 21.1452 26.5385C21.4651 26.5268 21.7709 26.4035 22.0095 26.1901L29.5515 19.3996C29.6843 19.2806 29.7922 19.1364 29.869 18.9755C29.9458 18.8145 29.9899 18.64 29.9988 18.4619C30.0077 18.2838 29.9813 18.1057 29.921 17.9378C29.8607 17.77 29.7677 17.6158 29.6475 17.4841C29.4042 17.217 29.0651 17.057 28.7043 17.039C28.3435 17.021 27.9902 17.1465 27.7215 17.3881ZM13.026 10.7701L20.3565 15.4636C20.6543 15.654 21.0141 15.7219 21.3607 15.6531C21.7074 15.5843 22.014 15.3842 22.2165 15.0946L29.757 4.2316C29.8591 4.08501 29.9312 3.91964 29.969 3.74506C30.0069 3.57047 30.0098 3.39012 29.9775 3.21441C29.9453 3.0387 29.8786 2.8711 29.7813 2.7213C29.684 2.5715 29.558 2.44245 29.4105 2.3416C29.113 2.13606 28.7462 2.05695 28.3904 2.12163C28.0347 2.18631 27.7191 2.3895 27.513 2.6866L20.721 12.4681L13.347 7.7476C13.041 7.55197 12.6699 7.48562 12.315 7.5631C11.9615 7.64209 11.6535 7.8578 11.4585 8.1631L0.213021 25.8136C0.0811524 26.0189 0.00718808 26.256 -0.00105729 26.4999C-0.00930266 26.7437 0.0484772 26.9853 0.166177 27.199C0.283877 27.4127 0.457126 27.5907 0.667617 27.7141C0.878109 27.8375 1.11803 27.9018 1.36202 27.9001C1.59157 27.9007 1.81755 27.8432 2.01895 27.7331C2.22035 27.6229 2.39065 27.4637 2.51402 27.2701L13.026 10.7701Z" fill="#002B49"/>
<path d="M33.8672 16.3047V13.0312C32.8464 12.7396 32.0964 12.2995 31.6172 11.7109C31.1432 11.1172 30.9062 10.3984 30.9062 9.55469C30.9062 8.70052 31.1745 7.98438 31.7109 7.40625C32.2526 6.82292 32.9714 6.48698 33.8672 6.39844V5.625H35V6.39844C35.8281 6.4974 36.487 6.78125 36.9766 7.25C37.4661 7.71354 37.7786 8.33594 37.9141 9.11719L35.9375 9.375C35.8177 8.76042 35.5052 8.34375 35 8.125V11.1797C36.25 11.5182 37.1016 11.9583 37.5547 12.5C38.0078 13.0365 38.2344 13.7266 38.2344 14.5703C38.2344 15.513 37.9479 16.3073 37.375 16.9531C36.8073 17.599 36.0156 17.9948 35 18.1406V19.6016H33.8672V18.1797C32.9661 18.0703 32.2344 17.7344 31.6719 17.1719C31.1094 16.6094 30.75 15.8151 30.5938 14.7891L32.6328 14.5703C32.7161 14.987 32.8724 15.3464 33.1016 15.6484C33.3307 15.9505 33.5859 16.1693 33.8672 16.3047ZM33.8672 8.10156C33.5599 8.20573 33.3151 8.38281 33.1328 8.63281C32.9505 8.88281 32.8594 9.15885 32.8594 9.46094C32.8594 9.73698 32.9427 9.99479 33.1094 10.2344C33.276 10.4688 33.5286 10.6589 33.8672 10.8047V8.10156ZM35 16.4141C35.3906 16.3411 35.7083 16.1615 35.9531 15.875C36.1979 15.5833 36.3203 15.2422 36.3203 14.8516C36.3203 14.5026 36.2161 14.2031 36.0078 13.9531C35.8047 13.6979 35.4688 13.5026 35 13.3672V16.4141Z" fill="#002B49"/>
</g>
<defs>
<clipPath id="clip0">
<rect width="40" height="30" fill="white"/>
</clipPath>
</defs>
</svg>
