<svg width="30" height="30" viewBox="0 0 30 30" fill="none" xmlns="http://www.w3.org/2000/svg">
<path d="M3.57378 3.59579L19.2863 1.35204C19.375 1.33932 19.4653 1.34581 19.5513 1.37107C19.6372 1.39633 19.7167 1.43977 19.7844 1.49845C19.8521 1.55713 19.9064 1.62968 19.9436 1.71117C19.9808 1.79267 20 1.8812 20 1.97079V28.0283C20 28.1177 19.9808 28.2062 19.9437 28.2876C19.9065 28.369 19.8524 28.4414 19.7848 28.5001C19.7173 28.5587 19.6379 28.6022 19.5521 28.6276C19.4663 28.6529 19.3761 28.6596 19.2875 28.647L3.57253 26.4033C3.27455 26.3608 3.00189 26.2123 2.80464 25.985C2.60739 25.7576 2.49878 25.4668 2.49878 25.1658V4.83329C2.49878 4.5323 2.60739 4.24143 2.80464 4.01409C3.00189 3.78675 3.27455 3.63823 3.57253 3.59579H3.57378ZM21.25 3.74954H26.25C26.5815 3.74954 26.8995 3.88123 27.1339 4.11565C27.3683 4.35007 27.5 4.66802 27.5 4.99954V24.9995C27.5 25.3311 27.3683 25.649 27.1339 25.8834C26.8995 26.1178 26.5815 26.2495 26.25 26.2495H21.25V3.74954ZM12.75 14.9995L16.25 9.99954H13.25L11.25 12.857L9.25003 9.99954H6.25003L9.75003 14.9995L6.25003 19.9995H9.25003L11.25 17.142L13.25 19.9995H16.25L12.75 14.9995Z" fill="#002B49"/>
</svg>
