<svg width="30" height="30" viewBox="0 0 30 30" fill="none" xmlns="http://www.w3.org/2000/svg">
<path d="M27.25 18.125C26.625 17.125 25.125 16.75 22.625 16.75C21.75 16.75 20.875 16.75 20 16.875C19.375 16.5 18.75 16.125 18.25 15.75C17 14.75 15.875 12.875 15 10.625C15 10.625 15 10.5 15.125 10.375C15.75 7.75 16.375 4.5 15.125 3.125C14.75 2.75 14.375 2.625 13.875 2.625H13.375C12.625 2.625 12 3.375 11.75 4.125C11 6.75 11.5 8.25 12.25 10.625C11.75 12.5 11.125 14.5 10 16.625C9.375 18 8.625 19.25 8.125 20.25C7.375 20.625 6.75 21 6.375 21.25C4 22.75 2.75 24.5 2.625 25.5C2.5 25.875 2.5 26.25 2.625 26.5V26.625L3.625 27.25C3.875 27.375 4.25 27.5 4.5 27.5C6.125 27.5 8 25.625 10.5 21.25C10.625 21.25 10.75 21.125 10.875 21.125C13 20.5 15.5 20 19 19.625C21 20.625 23.5 21.125 25 21.125C25.875 21.125 26.5 20.875 26.875 20.5C27.25 20.125 27.375 19.625 27.5 19.125C27.5 18.75 27.5 18.375 27.25 18.125ZM4.25 26.125C4.375 25.375 5.25 24 6.75 22.75C7 22.625 7.25 22.375 7.75 22.125C6.25 24.5 5.125 25.75 4.25 26.125ZM13.5 4C13.625 3.875 13.625 3.75 13.75 3.75L14 3.875C14.375 4.375 14.375 5 14.125 6.125V6.5C14 7 14 7.5 13.75 8.125C13.25 6.25 13.25 4.875 13.5 4ZM11 19.75L10.75 19.875C10.875 19.25 11.375 18.5 11.75 17.75C12.625 16 13.375 14.375 13.75 12.875C14.625 14.75 15.625 16.125 16.875 17.25C17.125 17.5 17.375 17.75 17.75 17.875C16 18.125 13.625 18.75 11 19.75ZM26.125 19.625H25.625C24.75 19.625 23.25 19.25 21.75 18.625C21.875 18.375 22.125 18.375 22.25 18.375C25.125 18.375 25.875 18.875 26.125 19.125C26.25 19.25 26.25 19.25 26.25 19.375C26.25 19.5 26.25 19.5 26.125 19.625Z" fill="#002B49"/>
</svg>
