<svg width="17" height="22" viewBox="0 0 17 22" fill="none" xmlns="http://www.w3.org/2000/svg">
<path d="M11 2L11.0714 5.5H14.5714L11 2ZM9.64286 1.35714H1.35714V20.6429H15.0714V6.85714H11C10.2143 6.85714 9.64286 6.21429 9.64286 5.5V1.35714ZM11 0L16.5 5.5V20.6429C16.5 21.4286 15.8571 22 15.1429 22H1.35714C0.571429 22 0 21.3571 0 20.6429V1.35714C0 0.642857 0.642857 0 1.35714 0H9.64286H11Z" fill="white"/>
<path d="M12.4288 12.3572H4.14307V13.7143H12.4288V12.3572Z" fill="white"/>
<path d="M12.4288 16.5H4.14307V17.8571H12.4288V16.5Z" fill="white"/>
</svg>
