<svg width="24" height="21" viewBox="0 0 24 21" fill="none" xmlns="http://www.w3.org/2000/svg">
<path fill-rule="evenodd" clip-rule="evenodd" d="M0 0.670391C0 1.07263 0.268156 1.34078 0.670391 1.34078H23.3296C23.7318 1.34078 24 1.07263 24 0.670391C24 0.268156 23.7318 0 23.3296 0H0.670391C0.268156 0 0 0.268156 0 0.670391Z" fill="#002B49"/>
<path fill-rule="evenodd" clip-rule="evenodd" d="M0 10.1899C0 10.5922 0.268156 10.8603 0.670391 10.8603H18.5028C18.905 10.8603 19.1732 10.5922 19.1732 10.1899C19.1732 9.78769 18.905 9.51953 18.5028 9.51953H0.670391C0.268156 9.51953 0 9.92177 0 10.1899Z" fill="#002B49"/>
<path fill-rule="evenodd" clip-rule="evenodd" d="M0 19.8435C0 20.2458 0.268156 20.5139 0.670391 20.5139H13.676C14.0782 20.5139 14.3464 20.2458 14.3464 19.8435C14.3464 19.4413 14.0782 19.1732 13.676 19.1732H0.670391C0.268156 19.1732 0 19.4413 0 19.8435Z" fill="#002B49"/>
</svg>
