<svg width="197" height="70" viewBox="0 0 197 70" fill="none" xmlns="http://www.w3.org/2000/svg">
<path d="M6.02911 62.452V67.3162H4.63349V66.2539C4.07523 67.1485 3.18203 67.484 2.28883 67.484C0.837376 67.484 0 66.6453 0 65.3034C0 64.0734 0.781552 63.4584 2.23301 63.2348L3.79611 63.0111C4.24271 62.9552 4.68931 62.7875 4.68931 62.1725C4.68931 61.5574 4.18689 61.1661 3.34951 61.1661C2.40048 61.1661 1.84223 61.6134 1.73058 62.3961H0.33495C0.502425 60.9424 1.5631 60.0479 3.40533 60.0479C5.08009 60.0479 6.02911 60.8865 6.02911 62.452ZM4.63349 64.2971V63.7939C4.41019 63.8498 4.18688 63.9057 3.57281 64.0175L2.79126 64.1293C1.89805 64.2411 1.45145 64.5766 1.45145 65.2475C1.45145 65.8625 1.89805 66.198 2.67961 66.198C3.74028 66.2539 4.63349 65.5271 4.63349 64.2971Z" fill="#002749"/>
<path d="M16.9708 67.3163L14.4587 63.2908H12.5048V67.3163H10.9975V57.532H14.9053C16.8033 57.532 18.0873 58.6502 18.0873 60.3275C18.0873 61.6135 17.2499 62.6758 16.0218 63.0112L18.7014 67.3163H16.9708ZM16.58 60.3834C16.58 59.5448 15.966 58.9857 15.0169 58.9857H12.5606V61.893H14.8495C15.8543 61.893 16.58 61.278 16.58 60.3834Z" fill="#2EB5B2"/>
<path d="M25.4562 62.452V67.3162H24.0606V66.2539C23.5023 67.1485 22.6091 67.484 21.7159 67.484C20.2645 67.484 19.4271 66.6453 19.4271 65.3034C19.4271 64.0734 20.2086 63.4584 21.6601 63.2348L23.2232 63.0111C23.6698 62.9552 24.1164 62.7875 24.1164 62.1725C24.1164 61.5574 23.614 61.1661 22.7766 61.1661C21.8276 61.1661 21.2693 61.6134 21.1577 62.3961H19.762C19.9295 60.9424 20.9902 60.0479 22.8324 60.0479C24.5072 60.0479 25.4562 60.8865 25.4562 62.452ZM24.0606 64.2971V63.7939C23.8373 63.8498 23.614 63.9057 22.9999 64.0175L22.2184 64.1293C21.3252 64.2411 20.8785 64.5766 20.8785 65.2475C20.8785 65.8625 21.3252 66.198 22.1067 66.198C23.1116 66.2539 24.0606 65.5271 24.0606 64.2971Z" fill="#2EB5B2"/>
<path d="M33.6627 57.42V67.3721H32.2671V66.198C31.9321 66.813 31.2064 67.5398 29.8107 67.5398C27.9685 67.5398 26.7404 66.0862 26.7404 63.7938C26.7404 61.5574 28.0802 60.1037 29.9224 60.1037C31.1505 60.1037 31.8205 60.6629 32.2112 61.2779V57.42H33.6627ZM32.2671 63.7379C32.2671 62.3402 31.4855 61.3338 30.2573 61.3338C29.0292 61.3338 28.2476 62.3402 28.2476 63.7379C28.2476 65.1916 29.0292 66.1421 30.2573 66.1421C31.4855 66.1421 32.2671 65.1916 32.2671 63.7379Z" fill="#2EB5B2"/>
<path d="M35.5049 57.2524H37.068V58.9298H35.5049V57.2524ZM35.5049 67.3163H36.9563V60.2157H35.5049V67.3163Z" fill="#2EB5B2"/>
<path d="M44.4368 62.452V67.3162H43.0412V66.2539C42.4829 67.1485 41.5897 67.484 40.6965 67.484C39.2451 67.484 38.4077 66.6453 38.4077 65.3034C38.4077 64.0734 39.1893 63.4584 40.6407 63.2348L42.2038 63.0111C42.6504 62.9552 43.097 62.7875 43.097 62.1725C43.097 61.5574 42.5946 61.1661 41.7572 61.1661C40.8082 61.1661 40.2499 61.6134 40.1383 62.3961H38.7427C38.9101 60.9424 39.9708 60.0479 41.813 60.0479C43.4878 60.0479 44.4368 60.8865 44.4368 62.452ZM43.0412 64.2971V63.7939C42.8179 63.8498 42.5946 63.9057 41.9805 64.0175L41.199 64.1293C40.3058 64.2411 39.8592 64.5766 39.8592 65.2475C39.8592 65.8625 40.3058 66.198 41.0873 66.198C42.0922 66.2539 43.0412 65.5271 43.0412 64.2971Z" fill="#2EB5B2"/>
<path d="M52.3084 62.7316V67.3162H50.8569V62.8434C50.8569 61.8929 50.2987 61.3338 49.4613 61.3338C48.3448 61.3338 47.6749 62.1725 47.6749 63.4584V67.2603H46.2234V60.1597H47.6749V61.222C48.1773 60.3833 48.7914 60.0479 49.8521 60.0479C51.4152 60.0479 52.3084 60.9983 52.3084 62.7316Z" fill="#2EB5B2"/>
<path d="M60.1237 67.4841C58.0582 67.4841 56.7184 66.0304 56.7184 63.794C56.7184 61.5576 58.0582 60.1039 60.1237 60.1039C61.966 60.1039 63.1941 61.2221 63.2499 62.7876H61.7985C61.7427 61.9489 61.1286 61.3898 60.1796 61.3898C58.9514 61.3898 58.1699 62.2844 58.1699 63.7381C58.1699 65.1917 58.8956 66.0863 60.1237 66.0863C61.0728 66.0863 61.7427 65.5272 61.7985 64.6885H63.2499C63.1383 66.4777 61.966 67.4841 60.1237 67.4841Z" fill="#002749"/>
<path d="M71.1772 63.794C71.1772 66.0304 69.8374 67.4841 67.7161 67.4841C65.5947 67.4841 64.2549 66.0304 64.2549 63.794C64.2549 61.5576 65.5947 60.1039 67.7161 60.1039C69.8374 60.1039 71.1772 61.5576 71.1772 63.794ZM65.7064 63.794C65.7064 65.2477 66.4321 66.1422 67.7161 66.1422C69.0001 66.1422 69.67 65.1917 69.67 63.794C69.67 62.3962 68.9442 61.4457 67.6603 61.4457C66.3763 61.3898 65.7064 62.3403 65.7064 63.794Z" fill="#002749"/>
<path d="M82.677 62.452V67.3162H81.2255V62.7875C81.2255 61.837 80.7789 61.3338 79.9415 61.3338C78.9367 61.3338 78.4342 62.0047 78.4342 63.2907V67.3162H76.927V62.7875C76.927 61.837 76.4804 61.3338 75.643 61.3338C74.6381 61.3338 74.1357 62.0047 74.1357 63.2348V67.3162H72.6843V60.2156H74.1357V61.3897C74.4707 60.3833 75.308 60.0479 76.0896 60.0479C77.1503 60.0479 77.8202 60.4951 78.0993 61.5015C78.4901 60.4951 79.2158 60.0479 80.2765 60.0479C81.7838 60.0479 82.677 60.9424 82.677 62.452Z" fill="#002749"/>
<path d="M91.4416 63.6821C91.4416 65.9185 90.1577 67.3722 88.2596 67.3722C87.2547 67.3722 86.4174 66.9809 85.9708 66.254V70H84.5193V60.2157H85.9708V61.5016C86.4174 60.607 87.2548 60.1039 88.4271 60.1039C90.2693 60.0479 91.4416 61.5016 91.4416 63.6821ZM89.9902 63.738C89.9902 62.3403 89.2086 61.3898 87.9805 61.3898C86.7523 61.3898 85.9708 62.3403 85.9708 63.738C85.9708 65.1358 86.7523 66.0863 87.9805 66.0863C89.1528 66.0863 89.9902 65.1917 89.9902 63.738Z" fill="#002749"/>
<path d="M98.4197 62.452V67.3162H97.0241V66.2539C96.4658 67.1485 95.5726 67.484 94.6794 67.484C93.2279 67.484 92.3906 66.6453 92.3906 65.3034C92.3906 64.0734 93.1721 63.4584 94.6236 63.2348L96.1867 63.0111C96.6333 62.9552 97.0799 62.7875 97.0799 62.1725C97.0799 61.5574 96.5775 61.1661 95.7401 61.1661C94.791 61.1661 94.2328 61.6134 94.1211 62.3961H92.7255C92.893 60.9424 93.9537 60.0479 95.7959 60.0479C97.4707 60.0479 98.4197 60.8865 98.4197 62.452ZM97.0241 64.2971V63.7939C96.8008 63.8498 96.5775 63.9057 95.9634 64.0175L95.1818 64.1293C94.2886 64.2411 93.842 64.5766 93.842 65.2475C93.842 65.8625 94.2886 66.198 95.0702 66.198C96.1309 66.2539 97.0241 65.5271 97.0241 64.2971Z" fill="#002749"/>
<path d="M106.347 62.7316V67.3162H104.895V62.8434C104.895 61.8929 104.337 61.3338 103.5 61.3338C102.383 61.3338 101.713 62.1725 101.713 63.4584V67.2603H100.262V60.1597H101.713V61.222C102.216 60.3833 102.83 60.0479 103.891 60.0479C105.454 60.0479 106.347 60.9983 106.347 62.7316Z" fill="#002749"/>
<path d="M114.163 60.2155L111.204 68.043C110.813 69.0494 109.864 69.6085 108.58 69.6085H108.022V68.3784H108.524C109.25 68.3784 109.808 68.0989 110.031 67.4839L110.087 67.3161L107.296 60.2155H108.859L110.813 65.5829L112.711 60.2155H114.163Z" fill="#002749"/>
<path d="M12.4491 19.8482L7.42483 11.7971H3.51707V19.8482H0.446686V0.279541H8.31803C12.17 0.279541 14.7379 2.51596 14.7379 5.87059C14.7379 8.38657 13.0632 10.623 10.6069 11.238L16.0219 19.8482H12.4491ZM11.6117 5.98242C11.6117 4.24919 10.3836 3.18689 8.42968 3.18689H3.46124V9.05749H8.09473C10.2161 9.00158 11.6117 7.77155 11.6117 5.98242Z" fill="#002749"/>
<path d="M29.0291 13.5863H18.6456C18.6456 16.1023 20.3762 17.7237 22.8325 17.7237C24.5073 17.7237 25.7912 16.9968 26.2937 15.7109H28.9174C28.2475 18.3946 25.7912 20.1837 22.665 20.1837C18.5898 20.1837 15.8544 17.2205 15.8544 12.7476C15.8544 8.27478 18.6456 5.31152 22.665 5.31152C26.517 5.31152 29.0291 8.05114 29.0291 12.3562V13.5863ZM22.665 7.77159C20.432 7.77159 18.8689 9.16935 18.7015 11.4058H26.2378C26.2378 9.22526 24.898 7.77159 22.665 7.77159Z" fill="#002749"/>
<path d="M44.2695 0V19.8482H41.3666V17.5C40.6408 18.73 39.2452 20.1837 36.4539 20.1837C32.7137 20.1837 30.2574 17.2763 30.2574 12.6917C30.2574 8.21885 32.9928 5.3115 36.6772 5.3115C39.1894 5.3115 40.5292 6.42971 41.2549 7.65974V0H44.2695ZM41.4224 12.6917C41.4224 9.84025 39.8035 7.82747 37.3471 7.82747C34.835 7.82747 33.3277 9.78434 33.3277 12.6358C33.3277 15.5431 34.8908 17.5 37.3471 17.5C39.8035 17.5559 41.4224 15.599 41.4224 12.6917Z" fill="#002749"/>
<path d="M69.949 14.369C69.949 17.5559 67.2135 19.9041 63.4174 19.9041H54.932V0.279541H63.7524C66.8786 0.279541 69.0558 2.23641 69.0558 4.92011C69.0558 6.65334 68.1626 8.44247 66.3203 9.33704C68.665 10.2316 69.949 12.1885 69.949 14.369ZM58.0024 8.38656H62.915C64.6456 8.38656 65.8737 7.26835 65.8737 5.70286C65.8737 4.19328 64.7572 3.18689 63.0267 3.18689H58.0024V8.38656ZM66.7669 13.8099C66.7669 12.1326 65.3713 10.9584 63.4174 10.9584H58.0024V16.9409H63.1383C65.3155 16.9409 66.7669 15.6549 66.7669 13.8099Z" fill="#002749"/>
<path d="M84.5192 13.5863H74.1357C74.1357 16.1023 75.8663 17.7237 78.3226 17.7237C79.9973 17.7237 81.2813 16.9968 81.7837 15.7109H84.4075C83.7376 18.3946 81.2813 20.1837 78.1551 20.1837C74.0799 20.1837 71.3444 17.2205 71.3444 12.7476C71.3444 8.27478 74.1357 5.31152 78.1551 5.31152C82.007 5.31152 84.5192 8.05114 84.5192 12.3562V13.5863ZM78.0993 7.77159C75.8663 7.77159 74.3032 9.16935 74.1357 11.4058H81.6721C81.6721 9.22526 80.3323 7.77159 78.0993 7.77159Z" fill="#002749"/>
<path d="M89.711 19.8482H86.7523V0H89.711V19.8482Z" fill="#002749"/>
<path d="M95.3493 19.8482H92.3906V0H95.3493V19.8482Z" fill="#002749"/>
<path d="M12.4491 47.8035L7.42483 39.7524H3.51707V47.8035H0.446686V28.2349H8.31803C12.17 28.2349 14.7379 30.4713 14.7379 33.8259C14.7379 36.3978 13.0632 38.5783 10.6069 39.1933L16.0219 47.8595H12.4491V47.8035ZM11.6117 33.9377C11.6117 32.2604 10.3836 31.1422 8.42968 31.1422H3.46124V37.0128H8.09473C10.2161 36.9569 11.6117 35.7269 11.6117 33.9377Z" fill="#002749"/>
<path d="M29.0291 41.5416H18.6456C18.6456 44.0576 20.3762 45.679 22.8325 45.679C24.5073 45.679 25.7912 44.9521 26.2937 43.6662H28.9174C28.2475 46.3499 25.7912 48.139 22.665 48.139C18.5898 48.139 15.8544 45.1758 15.8544 40.7029C15.8544 36.2301 18.6456 33.2668 22.665 33.2668C26.517 33.2668 29.0291 36.0065 29.0291 40.3116V41.5416ZM22.665 35.7269C20.432 35.7269 18.8689 37.1247 18.7015 39.3611H26.2378C26.2378 37.1806 24.898 35.7269 22.665 35.7269Z" fill="#002749"/>
<path d="M42.9853 38.075V47.8035H40.1382V45.623C38.9659 47.468 37.1795 48.083 35.4489 48.083C32.4902 48.083 30.8154 46.3498 30.8154 43.722C30.8154 41.206 32.4344 39.976 35.2814 39.5287L38.4635 39.0814C39.3008 38.9696 40.2499 38.6341 40.2499 37.4041C40.2499 36.1182 39.1892 35.3913 37.5144 35.3913C35.5606 35.3913 34.4441 36.2859 34.2208 37.8514H31.4295C31.7645 34.944 33.9416 33.1549 37.5703 33.1549C41.0873 33.2667 42.9853 34.8881 42.9853 38.075ZM40.194 41.7651V40.7587C39.7474 40.8706 39.3008 40.9824 38.0727 41.206L36.4538 41.4856C34.6674 41.7651 33.7742 42.4361 33.7742 43.722C33.7742 44.952 34.6115 45.6789 36.2305 45.6789C38.3518 45.623 40.194 44.1693 40.194 41.7651Z" fill="#002749"/>
<path d="M48.3448 47.8036H45.386V27.9553H48.3448V47.8036Z" fill="#002749"/>
<path d="M59.0072 47.8035V28.2349H71.9028V31.1422H62.0775V36.5096H71.1212V39.417H62.0775V44.9521H72.461V47.8595H59.0072V47.8035Z" fill="#002749"/>
<path d="M86.4732 43.4985C86.4732 46.294 84.1285 48.139 80.4441 48.139C76.7038 48.139 74.3033 46.3499 74.1359 43.3307H77.0946C77.2621 44.9521 78.546 45.8467 80.6116 45.8467C82.5096 45.8467 83.5703 45.1199 83.5703 43.8898C83.5703 42.7716 82.6213 42.4921 80.5557 42.1007C77.8203 41.6534 74.5825 41.262 74.5825 37.7956C74.5825 35.0001 76.7596 33.2668 80.2208 33.2668C83.7378 33.2668 85.8591 35.056 86.0824 37.9633H83.2353C83.0679 36.5097 82.063 35.6151 80.2208 35.6151C78.4902 35.6151 77.3737 36.4537 77.3737 37.6838C77.3737 39.0256 78.7135 39.2493 80.779 39.5847C83.5703 40.032 86.4732 40.3116 86.4732 43.4985Z" fill="#002749"/>
<path d="M96.2426 47.8035H94.2329C91.1067 47.8035 89.9902 46.6294 89.9902 43.2747V36.1182H87.2548V33.5463H89.9902V30.0799L92.9489 29.2971V33.4904H95.8518V36.0623H92.9489V43.3866C92.9489 44.6166 93.5072 45.2316 94.7912 45.2316H96.1868V47.8035H96.2426Z" fill="#002749"/>
<path d="M109.92 38.075V47.8035H107.129V45.623C105.956 47.468 104.17 48.083 102.439 48.083C99.4806 48.083 97.8058 46.3498 97.8058 43.722C97.8058 41.206 99.4247 39.976 102.272 39.5287L105.454 39.0814C106.291 38.9696 107.24 38.6341 107.24 37.4041C107.24 36.1182 106.235 35.3913 104.505 35.3913C102.551 35.3913 101.434 36.2859 101.211 37.8514H98.4199C98.7548 34.944 100.932 33.1549 104.561 33.1549C108.022 33.2667 109.92 34.8881 109.92 38.075ZM107.129 41.7651V40.7587C106.682 40.8706 106.235 40.9824 105.007 41.206L103.388 41.4856C101.602 41.7651 100.709 42.4361 100.709 43.722C100.709 44.952 101.546 45.6789 103.165 45.6789C105.286 45.623 107.129 44.1693 107.129 41.7651Z" fill="#002749"/>
<path d="M120.582 47.8035H118.629C115.502 47.8035 114.386 46.6294 114.386 43.2747V36.1182H111.65V33.5463H114.386V30.0799L117.345 29.2971V33.4904H120.247V36.0623H117.345V43.3866C117.345 44.6166 117.903 45.2316 119.187 45.2316H120.582V47.8035Z" fill="#002749"/>
<path d="M135.264 41.5416H124.881C124.881 44.0576 126.556 45.679 129.068 45.679C130.743 45.679 132.027 44.9521 132.529 43.6662H135.153C134.483 46.3499 132.027 48.139 128.9 48.139C124.825 48.139 122.09 45.1758 122.09 40.7029C122.09 36.2301 124.881 33.2668 128.9 33.2668C132.752 33.2668 135.264 36.0065 135.264 40.3116V41.5416ZM128.9 35.7269C126.667 35.7269 125.104 37.1247 124.937 39.3611H132.473C132.473 37.1806 131.133 35.7269 128.9 35.7269Z" fill="#002749"/>
<path d="M139.619 47.6357H137.944V44.5048H141.461V47.4121C141.461 50.3194 139.898 51.7731 136.995 52.2763L136.66 50.7108C138.67 50.3194 139.563 49.5367 139.619 47.6357Z" fill="#002749"/>
<path d="M162.898 47.8035H150.225V28.2349H153.296V44.8962H162.898V47.8035Z" fill="#002749"/>
<path d="M178.25 47.8035H165.577V28.2349H168.648V44.8962H178.25V47.8035Z" fill="#002749"/>
<path d="M193.769 40.7588H196.895C196.672 45.3435 193.099 48.3068 188.298 48.3068C182.492 48.3068 178.752 44.0576 178.752 37.9074C178.752 31.8132 182.548 27.7317 188.41 27.7317C193.155 27.7317 196.337 30.4154 196.784 34.5528H193.602C193.322 32.2045 191.089 30.5831 188.242 30.5831C184.335 30.5831 181.822 33.4905 181.822 37.7956C181.822 42.1566 184.279 45.2317 188.242 45.2317C191.201 45.3435 193.546 43.6662 193.769 40.7588Z" fill="#002749"/>
</svg>
