<svg width="169" height="60" viewBox="0 0 169 60" fill="none" xmlns="http://www.w3.org/2000/svg">
<path d="M5.16781 53.5303V57.6996H3.97156V56.7891C3.49306 57.5559 2.72746 57.8434 1.96185 57.8434C0.717751 57.8434 0 57.1246 0 55.9744C0 54.9201 0.669902 54.3929 1.914 54.2012L3.25381 54.0095C3.63661 53.9616 4.01941 53.8178 4.01941 53.2907C4.01941 52.7635 3.58876 52.4281 2.87101 52.4281C2.05756 52.4281 1.57905 52.8115 1.48335 53.4824H0.2871C0.43065 52.2364 1.3398 51.4696 2.91886 51.4696C4.35436 51.4696 5.16781 52.1885 5.16781 53.5303ZM3.97156 55.1118V54.6805C3.78016 54.7284 3.58876 54.7763 3.06241 54.8722L2.39251 54.968C1.6269 55.0639 1.2441 55.3514 1.2441 55.9265C1.2441 56.4536 1.6269 56.7412 2.29681 56.7412C3.20596 56.7891 3.97156 56.1661 3.97156 55.1118Z" fill="#002749"/>
<path d="M14.5465 57.6996L12.3932 54.2492H10.7185V57.6996H9.42651V49.313H12.776C14.4029 49.313 15.5035 50.2715 15.5035 51.7092C15.5035 52.8115 14.7857 53.722 13.733 54.0095L16.0298 57.6996H14.5465ZM14.2115 51.7571C14.2115 51.0383 13.6852 50.5591 12.8717 50.5591H10.7663V53.0511H12.7282C13.5895 53.0511 14.2115 52.5239 14.2115 51.7571Z" fill="#2EB5B2"/>
<path d="M21.8197 53.5303V57.6996H20.6234V56.7891C20.1449 57.5559 19.3793 57.8434 18.6137 57.8434C17.3696 57.8434 16.6519 57.1246 16.6519 55.9744C16.6519 54.9201 17.3218 54.3929 18.5659 54.2012L19.9057 54.0095C20.2885 53.9616 20.6713 53.8178 20.6713 53.2907C20.6713 52.7635 20.2406 52.4281 19.5229 52.4281C18.7094 52.4281 18.2309 52.8115 18.1352 53.4824H16.939C17.0825 52.2364 17.9917 51.4696 19.5707 51.4696C21.0062 51.4696 21.8197 52.1885 21.8197 53.5303ZM20.6234 55.1118V54.6805C20.432 54.7284 20.2406 54.7763 19.7143 54.8722L19.0444 54.968C18.2788 55.0639 17.896 55.3514 17.896 55.9265C17.896 56.4536 18.2788 56.7412 18.9487 56.7412C19.81 56.7891 20.6234 56.1661 20.6234 55.1118Z" fill="#2EB5B2"/>
<path d="M28.8536 49.2172V57.7476H27.6574V56.7412C27.3703 57.2683 26.7482 57.8913 25.552 57.8913C23.9729 57.8913 22.9202 56.6453 22.9202 54.6805C22.9202 52.7635 24.0686 51.5175 25.6477 51.5175C26.7004 51.5175 27.2746 51.9968 27.6095 52.5239V49.2172H28.8536ZM27.6574 54.6326C27.6574 53.4345 26.9875 52.5719 25.9348 52.5719C24.8821 52.5719 24.2122 53.4345 24.2122 54.6326C24.2122 55.8786 24.8821 56.6933 25.9348 56.6933C26.9875 56.6933 27.6574 55.8786 27.6574 54.6326Z" fill="#2EB5B2"/>
<path d="M30.4327 49.0734H31.7725V50.5111H30.4327V49.0734ZM30.4327 57.6996H31.6768V51.6134H30.4327V57.6996Z" fill="#2EB5B2"/>
<path d="M38.0887 53.5303V57.6996H36.8925V56.7891C36.414 57.5559 35.6484 57.8434 34.8828 57.8434C33.6386 57.8434 32.9209 57.1246 32.9209 55.9744C32.9209 54.9201 33.5908 54.3929 34.8349 54.2012L36.1747 54.0095C36.5575 53.9616 36.9403 53.8178 36.9403 53.2907C36.9403 52.7635 36.5097 52.4281 35.7919 52.4281C34.9785 52.4281 34.5 52.8115 34.4042 53.4824H33.208C33.3515 52.2364 34.2607 51.4696 35.8398 51.4696C37.2753 51.4696 38.0887 52.1885 38.0887 53.5303ZM36.8925 55.1118V54.6805C36.7011 54.7284 36.5097 54.7763 35.9833 54.8722L35.3134 54.968C34.5478 55.0639 34.165 55.3514 34.165 55.9265C34.165 56.4536 34.5478 56.7412 35.2177 56.7412C36.079 56.7891 36.8925 56.1661 36.8925 55.1118Z" fill="#2EB5B2"/>
<path d="M44.8356 53.7699V57.6996H43.5915V53.8658C43.5915 53.0511 43.113 52.5718 42.3952 52.5718C41.4382 52.5718 40.864 53.2907 40.864 54.3929V57.6517H39.6199V51.5655H40.864V52.476C41.2947 51.7571 41.821 51.4696 42.7302 51.4696C44.07 51.4696 44.8356 52.2843 44.8356 53.7699Z" fill="#2EB5B2"/>
<path d="M51.5346 57.8435C49.7642 57.8435 48.6158 56.5975 48.6158 54.6805C48.6158 52.7636 49.7642 51.5176 51.5346 51.5176C53.1137 51.5176 54.1664 52.476 54.2142 53.8179H52.9701C52.9223 53.099 52.3959 52.6198 51.5825 52.6198C50.5298 52.6198 49.8599 53.3866 49.8599 54.6326C49.8599 55.8786 50.4819 56.6454 51.5346 56.6454C52.3481 56.6454 52.9223 56.1661 52.9701 55.4473H54.2142C54.1185 56.9808 53.1137 57.8435 51.5346 57.8435Z" fill="#002749"/>
<path d="M61.009 54.6805C61.009 56.5975 59.8606 57.8435 58.0423 57.8435C56.224 57.8435 55.0756 56.5975 55.0756 54.6805C55.0756 52.7636 56.224 51.5176 58.0423 51.5176C59.8606 51.5176 61.009 52.7636 61.009 54.6805ZM56.3197 54.6805C56.3197 55.9265 56.9417 56.6933 58.0423 56.6933C59.1428 56.6933 59.717 55.8786 59.717 54.6805C59.717 53.4824 59.095 52.6677 57.9944 52.6677C56.8939 52.6198 56.3197 53.4345 56.3197 54.6805Z" fill="#002749"/>
<path d="M70.8661 53.5303V57.6996H69.622V53.8179C69.622 53.0032 69.2392 52.5718 68.5214 52.5718C67.6601 52.5718 67.2295 53.1469 67.2295 54.2492V57.6996H65.9375V53.8179C65.9375 53.0032 65.5547 52.5718 64.837 52.5718C63.9757 52.5718 63.545 53.1469 63.545 54.2012V57.6996H62.3009V51.6134H63.545V52.6198C63.8321 51.7571 64.5499 51.4696 65.2198 51.4696C66.1289 51.4696 66.7031 51.853 66.9424 52.7156C67.2773 51.853 67.8994 51.4696 68.8085 51.4696C70.1005 51.4696 70.8661 52.2364 70.8661 53.5303Z" fill="#002749"/>
<path d="M78.3785 54.5847C78.3785 56.5016 77.2779 57.7476 75.651 57.7476C74.7897 57.7476 74.072 57.4121 73.6892 56.7891V60H72.4451V51.6134H73.6892V52.7157C74.072 51.9489 74.7897 51.5176 75.7946 51.5176C77.3736 51.4696 78.3785 52.7157 78.3785 54.5847ZM77.1344 54.6326C77.1344 53.4345 76.4645 52.6198 75.4118 52.6198C74.3591 52.6198 73.6892 53.4345 73.6892 54.6326C73.6892 55.8307 74.3591 56.6454 75.4118 56.6454C76.4166 56.6454 77.1344 55.8786 77.1344 54.6326Z" fill="#002749"/>
<path d="M84.3598 53.5303V57.6996H83.1636V56.7891C82.6851 57.5559 81.9195 57.8434 81.1539 57.8434C79.9098 57.8434 79.192 57.1246 79.192 55.9744C79.192 54.9201 79.8619 54.3929 81.106 54.2012L82.4458 54.0095C82.8286 53.9616 83.2114 53.8178 83.2114 53.2907C83.2114 52.7635 82.7808 52.4281 82.063 52.4281C81.2496 52.4281 80.7711 52.8115 80.6754 53.4824H79.4791C79.6227 52.2364 80.5318 51.4696 82.1109 51.4696C83.5464 51.4696 84.3598 52.1885 84.3598 53.5303ZM83.1636 55.1118V54.6805C82.9722 54.7284 82.7808 54.7763 82.2544 54.8722L81.5845 54.968C80.8189 55.0639 80.4361 55.3514 80.4361 55.9265C80.4361 56.4536 80.8189 56.7412 81.4888 56.7412C82.398 56.7891 83.1636 56.1661 83.1636 55.1118Z" fill="#002749"/>
<path d="M91.1545 53.7699V57.6996H89.9104V53.8658C89.9104 53.0511 89.4319 52.5718 88.7142 52.5718C87.7571 52.5718 87.1829 53.2907 87.1829 54.3929V57.6517H85.9388V51.5655H87.1829V52.476C87.6136 51.7571 88.1399 51.4696 89.0491 51.4696C90.3889 51.4696 91.1545 52.2843 91.1545 53.7699Z" fill="#002749"/>
<path d="M97.8535 51.6134L95.3175 58.3227C94.9825 59.1853 94.1691 59.6645 93.0685 59.6645H92.59V58.6102H93.0207C93.6427 58.6102 94.1212 58.3706 94.3126 57.8434L94.3605 57.6997L91.968 51.6134H93.3078L94.9825 56.214L96.6094 51.6134H97.8535Z" fill="#002749"/>
<path d="M10.6706 17.0128L6.36414 10.1118H3.01463V17.0128H0.382874V0.239624H7.12974C10.4314 0.239624 12.6325 2.15656 12.6325 5.03196C12.6325 7.1885 11.197 9.10544 9.09159 9.63259L13.7331 17.0128H10.6706ZM9.9529 5.1278C9.9529 3.64218 8.90019 2.73164 7.22544 2.73164H2.96678V7.76358H6.93834C8.75664 7.71566 9.9529 6.66135 9.9529 5.1278Z" fill="#002749"/>
<path d="M24.8821 11.6454H15.982C15.982 13.8019 17.4653 15.1917 19.5707 15.1917C21.0062 15.1917 22.1068 14.5687 22.5374 13.4665H24.7864C24.2122 15.7668 22.1068 17.3003 19.4272 17.3003C15.9341 17.3003 13.5895 14.7604 13.5895 10.9265C13.5895 7.09267 15.982 4.55273 19.4272 4.55273C22.7288 4.55273 24.8821 6.90097 24.8821 10.5911V11.6454ZM19.4272 6.66136C17.5132 6.66136 16.1734 7.85944 16.0298 9.77637H22.4896C22.4896 7.90737 21.3412 6.66136 19.4272 6.66136Z" fill="#002749"/>
<path d="M37.9452 0V17.0128H35.457V15C34.8349 16.0543 33.6387 17.3003 31.2462 17.3003C28.0402 17.3003 25.9348 14.8083 25.9348 10.8786C25.9348 7.04472 28.2795 4.55271 31.4376 4.55271C33.5908 4.55271 34.7392 5.51118 35.3613 6.56549V0H37.9452ZM35.5048 10.8786C35.5048 8.4345 34.1172 6.70926 32.0118 6.70926C29.8585 6.70926 28.5666 8.38658 28.5666 10.8307C28.5666 13.3227 29.9064 15 32.0118 15C34.1172 15.0479 35.5048 13.3706 35.5048 10.8786Z" fill="#002749"/>
<path d="M59.9562 12.3163C59.9562 15.0479 57.6116 17.0607 54.3578 17.0607H47.0845V0.239624H54.6449C57.3245 0.239624 59.1906 1.91694 59.1906 4.21726C59.1906 5.70288 58.425 7.23642 56.846 8.0032C58.8557 8.76997 59.9562 10.4473 59.9562 12.3163ZM49.7163 7.1885H53.9271C55.4105 7.1885 56.4632 6.23003 56.4632 4.88818C56.4632 3.59425 55.5062 2.73164 54.0228 2.73164H49.7163V7.1885ZM57.2288 11.8371C57.2288 10.3994 56.0325 9.39297 54.3578 9.39297H49.7163V14.5208H54.1185C55.9847 14.5208 57.2288 13.4185 57.2288 11.8371Z" fill="#002749"/>
<path d="M72.4451 11.6454H63.545C63.545 13.8019 65.0283 15.1917 67.1337 15.1917C68.5692 15.1917 69.6698 14.5687 70.1004 13.4665H72.3494C71.7752 15.7668 69.6698 17.3003 66.9902 17.3003C63.4971 17.3003 61.1525 14.7604 61.1525 10.9265C61.1525 7.09267 63.545 4.55273 66.9902 4.55273C70.2918 4.55273 72.4451 6.90097 72.4451 10.5911V11.6454ZM66.9423 6.66136C65.0283 6.66136 63.6885 7.85944 63.545 9.77637H70.0047C70.0047 7.90737 68.8563 6.66136 66.9423 6.66136Z" fill="#002749"/>
<path d="M76.8952 17.0128H74.3591V0H76.8952V17.0128Z" fill="#002749"/>
<path d="M81.7281 17.0128H79.192V0H81.7281V17.0128Z" fill="#002749"/>
<path d="M10.6706 40.9744L6.36414 34.0735H3.01463V40.9744H0.382874V24.2013H7.12974C10.4314 24.2013 12.6325 26.1182 12.6325 28.9936C12.6325 31.1981 11.197 33.0671 9.09159 33.5943L13.7331 41.0224H10.6706V40.9744ZM9.9529 29.0895C9.9529 27.6518 8.90019 26.6933 7.22544 26.6933H2.96678V31.7252H6.93834C8.75664 31.6773 9.9529 30.623 9.9529 29.0895Z" fill="#002749"/>
<path d="M24.8821 35.607H15.982C15.982 37.7635 17.4653 39.1533 19.5707 39.1533C21.0062 39.1533 22.1068 38.5303 22.5374 37.4281H24.7864C24.2122 39.7284 22.1068 41.2619 19.4272 41.2619C15.9341 41.2619 13.5895 38.722 13.5895 34.8881C13.5895 31.0543 15.982 28.5143 19.4272 28.5143C22.7288 28.5143 24.8821 30.8626 24.8821 34.5527V35.607ZM19.4272 30.623C17.5132 30.623 16.1734 31.8211 16.0298 33.738H22.4896C22.4896 31.869 21.3412 30.623 19.4272 30.623Z" fill="#002749"/>
<path d="M36.8446 32.6358V40.9744H34.4042V39.1054C33.3994 40.6869 31.8682 41.214 30.3848 41.214C27.8488 41.214 26.4133 39.7284 26.4133 37.476C26.4133 35.3195 27.8009 34.2652 30.2413 33.8818L32.9687 33.4984C33.6865 33.4025 34.4999 33.115 34.4999 32.0607C34.4999 30.9585 33.5908 30.3355 32.1553 30.3355C30.4805 30.3355 29.5235 31.1022 29.3321 32.4441H26.9396C27.2267 29.9521 29.0929 28.4185 32.2031 28.4185C35.2177 28.5144 36.8446 29.9041 36.8446 32.6358ZM34.4521 35.7987V34.9361C34.0693 35.0319 33.6865 35.1278 32.6338 35.3195L31.2461 35.5591C29.7149 35.7987 28.9493 36.3738 28.9493 37.476C28.9493 38.5303 29.6671 39.1533 31.0547 39.1533C32.873 39.1054 34.4521 37.8594 34.4521 35.7987Z" fill="#002749"/>
<path d="M41.4383 40.9744H38.9022V23.9617H41.4383V40.9744Z" fill="#002749"/>
<path d="M50.5776 40.9744V24.2013H61.631V26.6933H53.2094V31.2939H60.9611V33.786H53.2094V38.5304H62.1095V41.0224H50.5776V40.9744Z" fill="#002749"/>
<path d="M74.1199 37.2843C74.1199 39.6805 72.1102 41.2619 68.9521 41.2619C65.7461 41.2619 63.6886 39.7284 63.545 37.1405H66.0811C66.2246 38.5303 67.3252 39.2971 69.0957 39.2971C70.7226 39.2971 71.6317 38.6741 71.6317 37.6198C71.6317 36.6613 70.8182 36.4217 69.0478 36.0862C66.7031 35.7028 63.9278 35.3674 63.9278 32.3961C63.9278 30 65.794 28.5143 68.7607 28.5143C71.7752 28.5143 73.5935 30.0479 73.7849 32.5399H71.3446C71.2011 31.2939 70.3397 30.5271 68.7607 30.5271C67.2773 30.5271 66.3203 31.246 66.3203 32.3003C66.3203 33.4504 67.4687 33.6421 69.2392 33.9297C71.6317 34.3131 74.1199 34.5527 74.1199 37.2843Z" fill="#002749"/>
<path d="M82.4937 40.9745H80.7711C78.0915 40.9745 77.1344 39.9681 77.1344 37.0927V30.9585H74.7898V28.754H77.1344V25.7828L79.6705 25.1119V28.7061H82.1587V30.9106H79.6705V37.1885C79.6705 38.2429 80.149 38.77 81.2496 38.77H82.4458V40.9745H82.4937Z" fill="#002749"/>
<path d="M94.2169 32.6358V40.9744H91.8244V39.1054C90.8196 40.6869 89.2883 41.214 87.805 41.214C85.2689 41.214 83.8334 39.7284 83.8334 37.476C83.8334 35.3195 85.2211 34.2652 87.6614 33.8818L90.3889 33.4984C91.1067 33.4025 91.9201 33.115 91.9201 32.0607C91.9201 30.9585 91.0588 30.3355 89.5754 30.3355C87.9007 30.3355 86.9437 31.1022 86.7523 32.4441H84.3598C84.6469 29.9521 86.513 28.4185 89.6233 28.4185C92.59 28.5144 94.2169 29.9041 94.2169 32.6358ZM91.8244 35.7987V34.9361C91.4416 35.0319 91.0588 35.1278 90.0061 35.3195L88.6184 35.5591C87.0872 35.7987 86.3216 36.3738 86.3216 37.476C86.3216 38.5303 87.0394 39.1533 88.427 39.1533C90.2453 39.1054 91.8244 37.8594 91.8244 35.7987Z" fill="#002749"/>
<path d="M103.356 40.9745H101.682C99.002 40.9745 98.045 39.9681 98.045 37.0927V30.9585H95.7003V28.754H98.045V25.7828L100.581 25.1119V28.7061H103.069V30.9106H100.581V37.1885C100.581 38.2429 101.06 38.77 102.16 38.77H103.356V40.9745Z" fill="#002749"/>
<path d="M115.941 35.607H107.041C107.041 37.7635 108.476 39.1533 110.63 39.1533C112.065 39.1533 113.166 38.5303 113.596 37.4281H115.845C115.271 39.7284 113.166 41.2619 110.486 41.2619C106.993 41.2619 104.648 38.722 104.648 34.8881C104.648 31.0543 107.041 28.5143 110.486 28.5143C113.788 28.5143 115.941 30.8626 115.941 34.5527V35.607ZM110.486 30.623C108.572 30.623 107.232 31.8211 107.089 33.738H113.548C113.548 31.869 112.4 30.623 110.486 30.623Z" fill="#002749"/>
<path d="M119.673 40.8307H118.238V38.147H121.252V40.639C121.252 43.1311 119.912 44.3771 117.424 44.8084L117.137 43.4665C118.86 43.1311 119.625 42.4601 119.673 40.8307Z" fill="#002749"/>
<path d="M139.627 40.9744H128.765V24.2013H131.396V38.4824H139.627V40.9744Z" fill="#002749"/>
<path d="M152.785 40.9744H141.923V24.2013H144.555V38.4824H152.785V40.9744Z" fill="#002749"/>
<path d="M166.088 34.9361H168.767C168.576 38.8658 165.514 41.4057 161.398 41.4057C156.422 41.4057 153.216 37.7636 153.216 32.492C153.216 27.2684 156.47 23.77 161.494 23.77C165.561 23.77 168.289 26.0703 168.672 29.6166H165.944C165.705 27.6038 163.791 26.214 161.351 26.214C158.001 26.214 155.848 28.7061 155.848 32.3962C155.848 36.1342 157.953 38.7699 161.351 38.7699C163.887 38.8658 165.896 37.4281 166.088 34.9361Z" fill="#002749"/>
</svg>
