<svg width="9" height="12" viewBox="0 0 9 12" fill="none" xmlns="http://www.w3.org/2000/svg">
<path d="M4.51948 0.74026C5.76623 0.74026 6.77922 1.75325 6.77922 3V5.25974H2.2987V3C2.25974 1.75325 3.27273 0.74026 4.51948 0.74026ZM1.12987 6H7.87013C8.06494 6 8.25974 6.15584 8.25974 6.38961V10.8701C8.25974 11.0649 8.1039 11.2597 7.87013 11.2597H1.12987C0.935065 11.2597 0.74026 11.1039 0.74026 10.8701V6.38961C0.74026 6.15584 0.935065 6 1.12987 6ZM4.51948 0C2.84416 0 1.51948 1.32468 1.51948 3V5.25974H1.12987C0.506494 5.25974 0 5.76623 0 6.38961V10.8701C0 11.4935 0.506494 12 1.12987 12H7.87013C8.49351 12 9 11.4935 9 10.8701V6.38961C9 5.76623 8.49351 5.25974 7.87013 5.25974H7.48052V3C7.51948 1.32468 6.15584 0 4.51948 0Z" fill="#002B49"/>
</svg>
