<svg width="26" height="36" viewBox="0 0 26 36" fill="none" xmlns="http://www.w3.org/2000/svg">
<mask id="path-1-outside-1" maskUnits="userSpaceOnUse" x="0" y="0" width="26" height="36" fill="black">
<rect fill="white" width="26" height="36"/>
<path fill-rule="evenodd" clip-rule="evenodd" d="M5 2C3.34315 2 2 3.34315 2 5V21C2 22.6569 3.34315 24 5 24H9.5L13 31L16.5 24H21C22.6569 24 24 22.6569 24 21V5C24 3.34315 22.6569 2 21 2H5Z"/>
</mask>
<path fill-rule="evenodd" clip-rule="evenodd" d="M5 2C3.34315 2 2 3.34315 2 5V21C2 22.6569 3.34315 24 5 24H9.5L13 31L16.5 24H21C22.6569 24 24 22.6569 24 21V5C24 3.34315 22.6569 2 21 2H5Z" fill="#00BAB3"/>
<path d="M9.5 24L11.2889 23.1056L10.7361 22H9.5V24ZM13 31L11.2111 31.8944L13 35.4721L14.7889 31.8944L13 31ZM16.5 24V22H15.2639L14.7111 23.1056L16.5 24ZM4 5C4 4.44772 4.44772 4 5 4V0C2.23858 0 0 2.23858 0 5H4ZM4 21V5H0V21H4ZM5 22C4.44772 22 4 21.5523 4 21H0C0 23.7614 2.23858 26 5 26V22ZM9.5 22H5V26H9.5V22ZM14.7889 30.1056L11.2889 23.1056L7.71115 24.8944L11.2111 31.8944L14.7889 30.1056ZM14.7111 23.1056L11.2111 30.1056L14.7889 31.8944L18.2889 24.8944L14.7111 23.1056ZM21 22H16.5V26H21V22ZM22 21C22 21.5523 21.5523 22 21 22V26C23.7614 26 26 23.7614 26 21H22ZM22 5V21H26V5H22ZM21 4C21.5523 4 22 4.44772 22 5H26C26 2.23858 23.7614 0 21 0V4ZM5 4H21V0H5V4Z" fill="white" mask="url(#path-1-outside-1)"/>
<path d="M19.6663 10.9998L12.9997 5.6665L6.33301 10.9998V12.3332H7.66634V18.9998H10.9997V16.3332C10.9997 15.8027 11.2104 15.294 11.5855 14.919C11.9605 14.5439 12.4692 14.3332 12.9997 14.3332C13.5301 14.3332 14.0388 14.5439 14.4139 14.919C14.789 15.294 14.9997 15.8027 14.9997 16.3332V18.9998H18.333V12.3332H19.6663V10.9998Z" fill="white"/>
</svg>
