<svg width="30" height="36" viewBox="0 0 30 36" fill="none" xmlns="http://www.w3.org/2000/svg">
<mask id="path-1-outside-1" maskUnits="userSpaceOnUse" x="0" y="0" width="30" height="36" fill="black">
<rect fill="white" width="30" height="36"/>
<path fill-rule="evenodd" clip-rule="evenodd" d="M17.9827 3.6C16.751 1.46667 13.6718 1.46667 12.4402 3.6L3.43349 19.2C2.20181 21.3333 3.74141 24 6.20478 24H11.5L15 31L18.5 24H24.2181C26.6815 24 28.2211 21.3333 26.9894 19.2L17.9827 3.6Z"/>
</mask>
<path fill-rule="evenodd" clip-rule="evenodd" d="M17.9827 3.6C16.751 1.46667 13.6718 1.46667 12.4402 3.6L3.43349 19.2C2.20181 21.3333 3.74141 24 6.20478 24H11.5L15 31L18.5 24H24.2181C26.6815 24 28.2211 21.3333 26.9894 19.2L17.9827 3.6Z" fill="#6A978E"/>
<path d="M12.4402 3.6L10.7081 2.6V2.6L12.4402 3.6ZM17.9827 3.6L19.7148 2.6V2.6L17.9827 3.6ZM3.43349 19.2L5.16554 20.2H5.16554L3.43349 19.2ZM11.5 24L13.2889 23.1056L12.7361 22H11.5V24ZM15 31L13.2111 31.8944L15 35.4721L16.7889 31.8944L15 31ZM18.5 24V22H17.2639L16.7111 23.1056L18.5 24ZM26.9894 19.2L28.7214 18.2H28.7214L26.9894 19.2ZM14.1722 4.6C14.6341 3.8 15.7888 3.8 16.2507 4.6L19.7148 2.6C17.7133 -0.866671 12.7096 -0.866663 10.7081 2.6L14.1722 4.6ZM5.16554 20.2L14.1722 4.6L10.7081 2.6L1.70144 18.2L5.16554 20.2ZM6.20478 22C5.28101 22 4.70366 21 5.16554 20.2L1.70144 18.2C-0.30004 21.6667 2.20182 26 6.20478 26V22ZM11.5 22H6.20478V26H11.5V22ZM16.7889 30.1056L13.2889 23.1056L9.71115 24.8944L13.2111 31.8944L16.7889 30.1056ZM16.7111 23.1056L13.2111 30.1056L16.7889 31.8944L20.2889 24.8944L16.7111 23.1056ZM24.2181 22H18.5V26H24.2181V22ZM25.2573 20.2C25.7192 21 25.1419 22 24.2181 22V26C28.2211 26 30.7229 21.6667 28.7214 18.2L25.2573 20.2ZM16.2507 4.6L25.2573 20.2L28.7214 18.2L19.7148 2.6L16.2507 4.6Z" fill="white" mask="url(#path-1-outside-1)"/>
<circle cx="15.2113" cy="14.8002" r="5.6" fill="white"/>
</svg>
