<svg width="23" height="32" viewBox="0 0 23 32" fill="none" xmlns="http://www.w3.org/2000/svg">
<mask id="path-1-outside-1" maskUnits="userSpaceOnUse" x="0" y="0" width="23" height="32" fill="black">
<rect fill="white" width="23" height="32"/>
<path fill-rule="evenodd" clip-rule="evenodd" d="M14.7931 20.4137C18.4167 19.0745 21 15.5889 21 11.5C21 6.25329 16.7467 2 11.5 2C6.25329 2 2 6.25329 2 11.5C2 15.5889 4.5833 19.0745 8.20685 20.4137L11.5 27L14.7931 20.4137Z"/>
</mask>
<path fill-rule="evenodd" clip-rule="evenodd" d="M14.7931 20.4137C18.4167 19.0745 21 15.5889 21 11.5C21 6.25329 16.7467 2 11.5 2C6.25329 2 2 6.25329 2 11.5C2 15.5889 4.5833 19.0745 8.20685 20.4137L11.5 27L14.7931 20.4137Z" fill="#FFC882"/>
<path d="M14.7931 20.4137L14.0998 18.5377L13.358 18.8119L13.0043 19.5193L14.7931 20.4137ZM8.20685 20.4137L9.99571 19.5193L9.64202 18.8119L8.90018 18.5377L8.20685 20.4137ZM11.5 27L9.71114 27.8944L11.5 31.4721L13.2889 27.8944L11.5 27ZM19 11.5C19 14.725 16.9636 17.4794 14.0998 18.5377L15.4865 22.2897C19.8698 20.6697 23 16.4529 23 11.5H19ZM11.5 4C15.6421 4 19 7.35786 19 11.5H23C23 5.14873 17.8513 0 11.5 0V4ZM4 11.5C4 7.35786 7.35786 4 11.5 4V0C5.14873 0 0 5.14873 0 11.5H4ZM8.90018 18.5377C6.03644 17.4794 4 14.725 4 11.5H0C0 16.4529 3.13015 20.6697 7.51353 22.2897L8.90018 18.5377ZM13.2889 26.1056L9.99571 19.5193L6.418 21.3081L9.71114 27.8944L13.2889 26.1056ZM13.0043 19.5193L9.71114 26.1056L13.2889 27.8944L16.582 21.3081L13.0043 19.5193Z" fill="white" mask="url(#path-1-outside-1)"/>
<circle cx="11.5" cy="11.5" r="5.5" fill="white"/>
</svg>
