<svg width="24" height="24" viewBox="0 0 24 24" fill="none" xmlns="http://www.w3.org/2000/svg">
<path fill-rule="evenodd" clip-rule="evenodd" d="M8.25974 7.01299C8.25974 7.09091 8.18182 7.16883 8.18182 7.16883V16.8312C8.18182 17.0649 8.33766 17.2208 8.57143 17.2208C8.64935 17.2208 8.72727 17.2208 8.72727 17.1429L16.987 12.3117C17.1429 12.2338 17.2208 12 17.1429 11.7662C17.1429 11.6883 17.0649 11.6883 16.987 11.6104L8.8052 6.85714C8.64935 6.7013 8.41559 6.77922 8.25974 7.01299ZM12 0C18.6234 0 24 5.37662 24 12C24 18.6234 18.6234 24 12 24C5.37662 24 0 18.6234 0 12C0 5.37662 5.37662 0 12 0Z" fill="#002B49"/>
</svg>
