<svg width="27" height="27" viewBox="0 0 27 27" fill="none" xmlns="http://www.w3.org/2000/svg">
<path d="M13.5235 14.4492C16.0797 14.4492 18.1518 12.377 18.1518 9.8209C18.1518 7.26478 16.0797 5.19263 13.5235 5.19263C10.9674 5.19263 8.89526 7.26478 8.89526 9.8209C8.89526 12.377 10.9674 14.4492 13.5235 14.4492Z" stroke="#002B49" stroke-miterlimit="10"/>
<path d="M22.889 21.8C21.6911 17.6345 17.934 14.6125 13.4963 14.6125C9.05861 14.6125 5.32877 17.6345 4.10364 21.8" stroke="#002B49" stroke-miterlimit="10"/>
<path d="M13.5236 26.0471C20.4401 26.0471 26.0471 20.4401 26.0471 13.5236C26.0471 6.60699 20.4401 1 13.5236 1C6.60699 1 1 6.60699 1 13.5236C1 20.4401 6.60699 26.0471 13.5236 26.0471Z" stroke="#002B49" stroke-miterlimit="10"/>
</svg>
