<svg width="39" height="32" viewBox="0 0 39 32" fill="none" xmlns="http://www.w3.org/2000/svg">
<path fill-rule="evenodd" clip-rule="evenodd" d="M23.3363 4.14847C23.4233 4.06117 23.5268 3.9919 23.6407 3.94464C23.7546 3.89737 23.8767 3.87305 24 3.87305C24.1233 3.87305 24.2454 3.89737 24.3593 3.94464C24.4732 3.9919 24.5767 4.06117 24.6638 4.14847L35.9138 15.3985C36.0008 15.4857 36.0697 15.5892 36.1167 15.7031C36.1637 15.817 36.1877 15.939 36.1875 16.0622V29.1872C36.1875 29.4359 36.0887 29.6743 35.9129 29.8501C35.7371 30.026 35.4986 30.1247 35.25 30.1247H26.8125C26.5639 30.1247 26.3254 30.026 26.1496 29.8501C25.9738 29.6743 25.875 29.4359 25.875 29.1872V21.6872H22.125V29.1872C22.125 29.4359 22.0262 29.6743 21.8504 29.8501C21.6746 30.026 21.4361 30.1247 21.1875 30.1247H12.75C12.5014 30.1247 12.2629 30.026 12.0871 29.8501C11.9113 29.6743 11.8125 29.4359 11.8125 29.1872V16.0622C11.8123 15.939 11.8363 15.817 11.8833 15.7031C11.9303 15.5892 11.9992 15.4857 12.0863 15.3985L23.3363 4.14847ZM13.6875 16.4503V28.2497H20.25V20.7497C20.25 20.5011 20.3488 20.2626 20.5246 20.0868C20.7004 19.911 20.9389 19.8122 21.1875 19.8122H26.8125C27.0611 19.8122 27.2996 19.911 27.4754 20.0868C27.6512 20.2626 27.75 20.5011 27.75 20.7497V28.2497H34.3125V16.4503L24 6.13785L13.6875 16.4503Z" fill="#002B49"/>
<path fill-rule="evenodd" clip-rule="evenodd" d="M33.375 6.6875V13.25L29.625 9.5V6.6875C29.625 6.43886 29.7238 6.2004 29.8996 6.02459C30.0754 5.84877 30.3139 5.75 30.5625 5.75H32.4375C32.6861 5.75 32.9246 5.84877 33.1004 6.02459C33.2762 6.2004 33.375 6.43886 33.375 6.6875Z" fill="#002B49"/>
<path d="M11 22C17.0751 22 22 17.0751 22 11C22 4.92487 17.0751 0 11 0C4.92487 0 0 4.92487 0 11C0 17.0751 4.92487 22 11 22Z" fill="#002B49"/>
<path d="M11 9.77734V18.3329" stroke="white" stroke-width="3"/>
<path d="M11 7.33366C12.0125 7.33366 12.8334 6.51285 12.8334 5.50033C12.8334 4.4878 12.0125 3.66699 11 3.66699C9.9875 3.66699 9.16669 4.4878 9.16669 5.50033C9.16669 6.51285 9.9875 7.33366 11 7.33366Z" fill="white"/>
</svg>
