<svg width="26" height="26" viewBox="0 0 26 26" fill="none" xmlns="http://www.w3.org/2000/svg">
<path d="M1.625 10.5625C1.625 5.6875 5.6875 1.625 10.5625 1.625C15.4375 1.625 19.5 5.6875 19.5 10.5625C19.5 15.4375 15.4375 19.5 10.5625 19.5C5.6875 19.5 1.625 15.4375 1.625 10.5625ZM21.125 10.5625C21.125 4.7125 16.4125 0 10.5625 0C4.7125 0 0 4.7125 0 10.5625C0 16.4125 4.7125 21.125 10.5625 21.125C13.1625 21.125 15.6 20.15 17.3875 18.525L24.8625 26L26 24.8625L18.525 17.3875C20.15 15.6 21.125 13.1625 21.125 10.5625Z" fill="white"/>
</svg>
