<svg id="Layer_1" data-name="Layer 1" xmlns="http://www.w3.org/2000/svg" viewBox="0 0 1280 987"><defs><style>.cls-1{fill:#012c48;}.cls-2{fill:none;stroke:#fff;stroke-miterlimit:10;stroke-width:2px;}</style></defs><title>Artboard 1</title><rect class="cls-1" width="1280" height="987"/><polyline class="cls-2" points="-1.07 277.21 139.32 277.21 139.32 246.33 243.2 246.33"/><line class="cls-2" x1="386.39" y1="310.9" x2="-1.07" y2="310.9"/><line class="cls-2" x1="288.12" y1="348.81" x2="-1.07" y2="348.81"/><polyline class="cls-2" points="-1.07 381.1 50.87 381.1 50.87 524.29"/><polyline class="cls-2" points="17.18 580.44 17.18 726.44 -1.07 726.44"/><polyline class="cls-2" points="316.2 847.17 137.91 847.17 137.91 803.65 78.95 803.65 78.77 803.65 50.87 803.65 -0.37 803.65"/><polyline class="cls-2" points="222.14 883.67 78.95 883.67 78.95 803.65 78.95 659.06"/><polyline class="cls-2" points="67.88 579.2 67.89 579.2 140.55 651.86"/><polyline class="cls-2" points="123.87 487.79 123.87 542.54 123.87 580.44"/><line class="cls-2" x1="123.87" y1="542.54" x2="181.43" y2="542.54"/><line class="cls-2" x1="50.87" y1="803.65" x2="50.87" y2="635.19"/><line class="cls-2" x1="87.37" y1="492" x2="87.37" y2="414.79"/><polyline class="cls-2" points="1009.06 834.84 1114.35 834.84 1142.42 834.84 1280 834.84"/><polyline class="cls-2" points="1117.32 750.78 1178.92 812.38 1280 812.38"/><line class="cls-2" x1="1280" y1="778.69" x2="1085.57" y2="584.26"/><line class="cls-2" x1="1280" y1="736.58" x2="1151.63" y2="608.21"/><line class="cls-2" x1="1280" y1="694.46" x2="1202.17" y2="616.63"/><polyline class="cls-2" points="1228.06 541.44 1228.06 614.44 1280 614.44"/><line class="cls-2" x1="1280" y1="572.33" x2="1258.94" y2="572.33"/><line class="cls-2" x1="1280" y1="547.06" x2="1263.15" y2="547.06"/><line class="cls-2" x1="1280" y1="520.38" x2="1270.17" y2="520.38"/><line class="cls-2" x1="1280" y1="500.73" x2="1257.54" y2="478.27"/><line class="cls-2" x1="1280" y1="405.27" x2="1157.25" y2="528.02"/><polyline class="cls-2" points="1156.62 483.72 1156.63 483.72 1280 360.35"/><line class="cls-2" x1="1280" y1="318.23" x2="1157.25" y2="440.98"/><polyline class="cls-2" points="1117.15 357.54 1148.74 357.54 1149.44 357.54 1174.71 357.54 1174.71 294.37 1280 294.37"/><polyline class="cls-2" points="1016.08 232.6 1149.44 232.6 1149.44 255.06 1149.44 261.12 1149.44 357.54"/><line class="cls-2" x1="1149.44" y1="255.06" x2="1058.19" y2="255.06"/><line class="cls-2" x1="1114.35" y1="888.19" x2="1114.35" y2="834.84"/><polyline class="cls-2" points="1142.42 888.19 1142.42 834.84 1142.42 834.14"/><line class="cls-2" x1="1280" y1="862.92" x2="1258.94" y2="862.92"/><line class="cls-2" x1="11.57" y1="494.81" x2="-1.07" y2="494.81"/><line class="cls-2" x1="11.57" y1="458.31" x2="-0.37" y2="458.31"/><line class="cls-2" x1="11.57" y1="420.4" x2="-0.37" y2="420.4"/><circle class="cls-2" cx="247.41" cy="246.33" r="4.21"/><circle class="cls-2" cx="390.6" cy="310.9" r="4.21"/><circle class="cls-2" cx="292.33" cy="348.81" r="4.21"/><circle class="cls-2" cx="87.37" cy="410.58" r="4.21"/><circle class="cls-2" cx="87.37" cy="496.21" r="4.21"/><circle class="cls-2" cx="50.87" cy="528.5" r="4.21"/><circle class="cls-2" cx="15.78" cy="494.81" r="4.21"/><circle class="cls-2" cx="15.78" cy="458.31" r="4.21"/><circle class="cls-2" cx="15.78" cy="420.4" r="4.21"/><circle class="cls-2" cx="123.87" cy="483.58" r="4.21"/><circle class="cls-2" cx="123.87" cy="584.65" r="4.21"/><circle class="cls-2" cx="17.18" cy="576.23" r="4.21"/><circle class="cls-2" cx="64.91" cy="576.23" r="4.21"/><circle class="cls-2" cx="184.91" cy="542.23" r="4.21"/><circle class="cls-2" cx="143.53" cy="654.84" r="4.21"/><circle class="cls-2" cx="50.87" cy="630.98" r="4.21"/><circle class="cls-2" cx="78.95" cy="654.84" r="4.21"/><circle class="cls-2" cx="320.41" cy="847.17" r="4.21"/><circle class="cls-2" cx="1004.85" cy="834.84" r="4.21"/><circle class="cls-2" cx="1114.35" cy="892.4" r="4.21"/><circle class="cls-2" cx="1142.42" cy="892.4" r="4.21"/><circle class="cls-2" cx="1254.73" cy="862.92" r="4.21"/><circle class="cls-2" cx="1114.35" cy="747.81" r="4.21"/><circle class="cls-2" cx="1149.44" cy="604.62" r="4.21"/><circle class="cls-2" cx="1083.44" cy="581.62" r="4.21"/><circle class="cls-2" cx="1199.98" cy="613.04" r="4.21"/><circle class="cls-2" cx="1228.06" cy="537.23" r="4.21"/><circle class="cls-2" cx="1254.73" cy="572.33" r="4.21"/><circle class="cls-2" cx="1258.94" cy="547.06" r="4.21"/><circle class="cls-2" cx="1265.96" cy="520.38" r="4.21"/><circle class="cls-2" cx="1256.13" cy="476.87" r="4.21"/><circle class="cls-2" cx="1153.65" cy="530.21" r="4.21"/><circle class="cls-2" cx="1153.65" cy="486.69" r="4.21"/><circle class="cls-2" cx="1153.65" cy="443.17" r="4.21"/><circle class="cls-2" cx="1112.94" cy="357.54" r="4.21"/><circle class="cls-2" cx="1053.98" cy="255.06" r="4.21"/><circle class="cls-2" cx="1011.87" cy="232.6" r="4.21"/><circle class="cls-2" cx="226.35" cy="883.67" r="4.21"/></svg>