<svg id="Layer_1" data-name="Layer 1" width="28px" height="28px" viewBox="0 0 24 22" version="1.1"
     xmlns="http://www.w3.org/2000/svg" xmlns:xlink="http://www.w3.org/1999/xlink">
    <defs>
        <symbol id="asset" viewBox="0 0 24 22">
            <g id="3.-Brand-Style" stroke="none" stroke-width="1" fill="none" fill-rule="evenodd">
                <g id="UI-Icons">
                    <g id="UI-Icon/dots/$ui-05">
                        <path fill="#00BAB3"
                              d="M20,22 L24,22 L24,18 L20,18 L20,22 Z M10,22 L14,22 L14,18 L10,18 L10,22 Z M0,22 L4,22 L4,18 L0,18 L0,22 Z"
                              id="Fill-1-Copy"></path>
                        <path fill="#00BAB3" d="M10,13 L14,13 L14,9 L10,9 L10,13 Z M0,13 L4,13 L4,9 L0,9 L0,13 Z"
                              id="Fill-1-Copy-2"></path>
                        <polygon fill="#00BAB3" id="Fill-1-Copy-3" points="0 4 4 4 4 0 0 0"></polygon>
                    </g>
                </g>
            </g>
        </symbol>
    </defs>
    <g>
        <use xlink:href="#asset"/>
    </g>
</svg>
