<svg style="margin:0; overflow:hidden" xmlns="http://www.w3.org/2000/svg"
     xmlns:xlink="http://www.w3.org/1999/xlink" viewBox="0 0 559.4 559.4" overflow="hidden" width="559.4"
     height="559.4">
    <defs>
        <clipPath id="maskPath">
            <path id="maskPath3" stroke="#09B9B3" stroke-width="1.189"
                  d="M499.6,315.5 c-0.1,0.4-0.1,0.8-0.2,1.2c-0.4,2.6-0.9,5.2-1.4,7.8c-0.5,2.6-1.1,5.2-1.7,7.7c-0.6,2.6-1.3,5.1-2,7.7c-0.7,2.5-1.4,5.1-2.2,7.6 c-0.8,2.5-1.6,5-2.5,7.5c-0.9,2.5-1.8,5-2.8,7.4c-1,2.5-2,4.9-3,7.3c-1.1,2.4-2.1,4.8-3.3,7.2c-1.1,2.4-2.3,4.7-3.5,7.1 c-1.2,2.3-2.5,4.7-3.8,7c-1.3,2.3-2.6,4.6-4,6.8c-1.4,2.3-2.8,4.5-4.2,6.7c-1.5,2.2-2.9,4.4-4.5,6.5c-1.5,2.1-3.1,4.3-4.7,6.4 c-1.6,2.1-3.2,4.2-4.9,6.2c-0.3,0.3-0.6,0.7-0.9,1c-1.4,1.7-3.9,1.9-5.5,0.5l-8.1-6.5c-1.7-1.4-2-3.9-0.6-5.6 c0.3-0.4,0.6-0.7,0.9-1.1c1.5-1.9,3-3.8,4.5-5.7c1.5-1.9,2.9-3.9,4.3-5.8c1.4-2,2.8-4,4.1-6c1.3-2,2.6-4.1,3.9-6.1h0 c1.3-2.1,2.5-4.2,3.7-6.3c1.2-2.1,2.3-4.2,3.5-6.4c1.1-2.1,2.2-4.3,3.2-6.5c1-2.2,2-4.4,3-6.6c1-2.2,1.9-4.5,2.8-6.7 c0.9-2.3,1.7-4.5,2.5-6.8c0.8-2.3,1.6-4.6,2.3-6.9c0.7-2.3,1.4-4.6,2.1-7c0.6-2.3,1.2-4.7,1.8-7c0.6-2.4,1.1-4.7,1.6-7.1 c0.5-2.4,0.9-4.8,1.3-7.2c0.1-0.3,0.1-0.6,0.1-0.9c0.3-2.1,2.3-3.6,4.5-3.3l10.3,1.4C498.4,311.2,500,313.3,499.6,315.5z"/>
            <path id="maskPath2" stroke="#09B9B3" stroke-width="1.189"
                  d="M413.9,459.2 c-1,0.8-2.1,1.6-3.1,2.3c-2.1,1.6-4.3,3.1-6.4,4.6c-2.2,1.5-4.4,3-6.6,4.4c-2.2,1.4-4.5,2.8-6.7,4.1c-2.3,1.3-4.6,2.6-6.9,3.9 c-2.3,1.3-4.7,2.5-7,3.7c-2.4,1.2-4.7,2.3-7.1,3.4c-2.4,1.1-4.8,2.2-7.3,3.2c-2.4,1-4.9,2-7.4,2.9c-2.5,0.9-5,1.8-7.5,2.6 c-2.5,0.8-5,1.6-7.6,2.4c-2.5,0.8-5.1,1.5-7.6,2.1c-2.5,0.7-5.1,1.3-7.7,1.8c-2.6,0.6-5.2,1.1-7.8,1.6c-2.6,0.5-5.2,0.9-7.8,1.3 c-1.2,0.2-2.3,0.3-3.5,0.5c-2.1,0.3-4.1-1.2-4.4-3.3l-1.4-8.5l0,0l-0.3-1.8c-0.1-0.3-0.1-0.7,0-1c0,0,0,0,0,0 c0.2-1.8,1.5-3.3,3.4-3.5c1.2-0.2,2.3-0.3,3.5-0.5c2.4-0.4,4.8-0.8,7.2-1.2c2.4-0.4,4.8-0.9,7.1-1.4c2.4-0.5,4.7-1.1,7.1-1.7 c2.4-0.6,4.7-1.3,7-1.9c2.3-0.7,4.6-1.4,6.9-2.2c2.3-0.8,4.6-1.6,6.9-2.4c2.3-0.9,4.5-1.7,6.8-2.7c2.2-0.9,4.5-1.9,6.7-2.9 c2.2-1,4.4-2.1,6.6-3.1c2.2-1.1,4.3-2.2,6.4-3.4c2.1-1.2,4.2-2.4,6.3-3.6c2.1-1.2,4.2-2.5,6.2-3.8c2-1.3,4.1-2.6,6.1-4 c2-1.4,4-2.8,5.9-4.2c0.8-0.6,1.7-1.2,2.5-1.9c1.7-1.3,4-1,5.4,0.6l6.7,8C416,455.3,415.7,457.8,413.9,459.2z"/>
            <path id="maskPath1" stroke="#09B9B3" stroke-width="1.189"
                  d="M107.4,157.2 c-0.4,0.5-0.7,1-1.1,1.5c-1.4,2-2.8,4-4.1,6c-1.3,2-2.6,4.1-3.9,6.1c-1.3,2.1-2.5,4.1-3.7,6.3c-1.2,2.1-2.4,4.2-3.5,6.4 c-1.1,2.1-2.2,4.3-3.2,6.5c-1,2.2-2,4.4-3,6.6c-1,2.2-1.9,4.5-2.8,6.7c-0.9,2.2-1.7,4.5-2.5,6.8c-0.8,2.3-1.6,4.6-2.3,6.9 c-0.7,2.3-1.4,4.6-2.1,7c-0.6,2.3-1.3,4.7-1.8,7c-0.6,2.4-1.1,4.7-1.6,7.1c-0.5,2.4-0.9,4.8-1.3,7.1c-0.2,1.1-0.3,2.1-0.5,3.2 c-0.3,2.1-2.3,3.6-4.5,3.3l-10.3-1.4c-2.2-0.3-3.7-2.3-3.4-4.5c0.2-1.2,0.4-2.4,0.6-3.6c0.4-2.6,0.9-5.2,1.4-7.8 c0.5-2.6,1.1-5.2,1.7-7.7c0.6-2.6,1.3-5.1,2-7.7c0.7-2.5,1.4-5.1,2.2-7.6c0.8-2.5,1.6-5,2.5-7.5c0.9-2.5,1.8-5,2.8-7.4 c1-2.5,2-4.9,3-7.3c1.1-2.4,2.1-4.8,3.3-7.2c1.1-2.4,2.3-4.7,3.5-7.1c1.2-2.3,2.5-4.7,3.8-6.9c1.3-2.3,2.6-4.6,4-6.8 c1.4-2.2,2.8-4.5,4.3-6.7c1.5-2.2,2.9-4.4,4.5-6.5c0.5-0.7,1-1.4,1.5-2.1c1.3-1.8,3.9-2.2,5.7-0.7l8.1,6.5 C108.3,153.1,108.7,155.5,107.4,157.2z"/>
        </clipPath>
    </defs>
    <g id="rotation">
        <circle class="rotationPoint" cx="279.21" cy="279.21" r="279.21" fill="none"/>
        <g>
            <circle class="rotationPoint" cx="279.21" cy="279.21" r="279.21" fill="none"/>
            <g class="techLineBurst">
                <circle id="rotationPoint" cx="279.21" cy="279.21" r="279.21" fill="none"/>
                <polyline class="mainLine" fill="none" stroke-dasharray="106" stroke-dashoffset="0" stroke="#09B9B3"
                          stroke-width="1.189"
                          points="233.03,324.51 193.79,363.74 157.81,399.72"/>
                <polyline class="topLine" fill="none" stroke="#09B9B3" stroke-dasharray="100" stroke-dashoffset="0"
                          stroke-width="1.189" points="176.79,380.78 165.31,380.62 155.7,390.23"/>
                <polyline class="bottomLine" fill="none" stroke-dasharray="100" stroke-dashoffset="0" stroke="#09B9B3"
                          stroke-width="1.189" points="181.5,376.04 181.34,387.5 172.46,396.38"/>
                <path class="largeBurst" fill="none" stroke="#01244A" stroke-width="1.189"
                      d="M149.79,375.48l-1.95-1.95 M154.79,380.48l-1.95-1.95 M154.79,373.53l-1.95,1.95 M147.84,380.48l1.95-1.95"/>
                <path class="smallBurst" fill="none" stroke="#01244A" stroke-width="1.189"
                      d="M166.56,410.96l-1.4-1.4 M168.75,413.15l1.4,1.4 M168.75,410.96l1.4-1.4 M165.16,414.55l1.4-1.4"/>
                <path class="bottomLineEnd" fill="#EF442E"
                      d="M170.95,400.86c-1.57,0-2.85-1.28-2.85-2.84s1.28-2.85,2.85-2.85s2.85,1.28,2.85,2.85 S172.52,400.86,170.95,400.86z M170.95,396.36c-0.91,0-1.66,0.74-1.66,1.66c0,0.91,0.74,1.66,1.66,1.66s1.66-0.74,1.66-1.66 C172.61,397.1,171.87,396.36,170.95,396.36z"/>
                <path class="topLineEnd" fill="#EF442E"
                      d="M154.25,394.76c-1.57,0-2.85-1.28-2.85-2.85s1.28-2.84,2.85-2.84 c1.57,0,2.85,1.28,2.85,2.84S155.82,394.76,154.25,394.76z M154.25,390.26c-0.91,0-1.66,0.74-1.66,1.66c0,0.91,0.74,1.66,1.66,1.66 c0.91,0,1.66-0.74,1.66-1.66C155.91,391,155.17,390.26,154.25,390.26z"/>
                <path class="mainLineEnd" fill="#EF442E"
                      d="M156.5,404.08c-1.57,0-2.85-1.28-2.85-2.85s1.28-2.84,2.85-2.84s2.85,1.28,2.85,2.84 S158.07,404.08,156.5,404.08z M156.5,399.58c-0.91,0-1.66,0.74-1.66,1.66c0,0.91,0.74,1.66,1.66,1.66c0.91,0,1.66-0.74,1.66-1.66 C158.16,400.32,157.42,399.58,156.5,399.58z"/>
            </g>
            <g class="techLineBurst">
                <circle id="rotationPoint" cx="279.21" cy="279.21" r="279.21" fill="none"/>
                <polyline class="mainLine" fill="none" stroke-dasharray="106" stroke-dashoffset="0" stroke="#09B9B3"
                          stroke-width="1.189" points="319.48,236.01 358.72,196.77 394.7,160.79"/>
                <polyline class="topLine" fill="none" stroke-dasharray="100" stroke="#09B9B3" stroke-width="1.189"
                          points="371.01,184.48 371.17,173.01 380.15,164.04"/>
                <polyline class="bottomLine" fill="none" stroke-dasharray="100" stroke-dashoffset="0" stroke="#09B9B3"
                          stroke-width="1.189" points="375.72,179.74 387.2,179.89 396.9,170.19"/>
                <path class="largeBurst" fill="none" stroke="#01244A" stroke-width="1.189"
                      d="M381.97,147.87l-1.95-1.95 M386.97,152.86l-1.95-1.95 M385.02,147.87l1.95-1.95 M380.02,152.86l1.95-1.95"/>
                <path class="smallBurst" fill="none" stroke="#01244A" stroke-width="1.189"
                      d="M402.7,181.36l-1.4-1.4 M406.29,184.95l-1.4-1.4 M404.89,181.36l1.4-1.4 M401.3,184.95l1.4-1.4"/>
                <path class="topLineEnd" fill="#EF442E"
                      d="M381.56,160.84c0.91,0,1.66,0.74,1.66,1.66s-0.74,1.66-1.66,1.66c-0.91,0-1.66-0.74-1.66-1.66 S380.65,160.84,381.56,160.84 M381.56,159.66c-1.57,0-2.85,1.28-2.85,2.85s1.28,2.85,2.85,2.85s2.84-1.28,2.84-2.85 S383.13,159.66,381.56,159.66L381.56,159.66z"/>
                <path class="bottomLineEnd" fill="#EF442E"
                      d="M398.26,166.94c0.91,0,1.66,0.74,1.66,1.66s-0.74,1.66-1.66,1.66c-0.91,0-1.66-0.74-1.66-1.66 S397.35,166.94,398.26,166.94 M398.26,165.75c-1.57,0-2.84,1.28-2.84,2.85s1.28,2.85,2.84,2.85s2.85-1.28,2.85-2.85 S399.83,165.75,398.26,165.75L398.26,165.75z"/>
                <path class="mainLineEnd" fill="#EF442E"
                      d="M396.01,157.62c0.91,0,1.66,0.74,1.66,1.66s-0.74,1.66-1.66,1.66c-0.91,0-1.66-0.74-1.66-1.66 S395.09,157.62,396.01,157.62 M396.01,156.43c-1.57,0-2.85,1.28-2.85,2.85s1.28,2.85,2.85,2.85s2.84-1.28,2.84-2.85 S397.58,156.43,396.01,156.43L396.01,156.43z"/>
            </g>
        </g>
        <g class="innerRing" fill="none" stroke="#09B9B3" stroke-dasharray="4.981" stroke-width="1.189">
            <path d="M367.46,187.6 c23.44,23.44,37.95,55.83,37.95,91.61s-14.5,68.16-37.95,91.61"/>
            <path d="M185.49,372.04 c-24.17-23.53-39.19-56.43-39.19-92.83c0-35.69,14.43-68.01,37.78-91.45"/>
        </g>
        <g id="breathOutsideLines">
            <g>
                <g fill="none" stroke="#09B9B3" stroke-linejoin="round" stroke-width="1.189">
                    <path d="M106.8,110.5c-0.6,0.6-1.2,1.2-1.7,1.8"/>
                    <path class="dashedOutsideLines" stroke-dasharray="4.9447,4.9447"
                          d="M101.6,115.8c-40.3,42.8-64.9,100.5-64.9,163.9c0,66,26.8,125.8,70,169.1c43.3,43.3,103.1,70.1,169.2,70.1 c64.3,0,122.7-25.4,165.6-66.6"/>
                    <path d="M443.3,450.5c0.6-0.6,1.2-1.2,1.8-1.7"/>
                </g>
            </g>
            <path class="dashedOutsideLines" fill="none" stroke="#09B9B3" stroke-dasharray="4.9712,4.9712"
                  stroke-width="1.189"
                  d="M123.1,124.7C162.4,85.9,216.4,62,275.9,62c0.1,0,0.1,0,0.2,0c60,0.1,114.3,24.4,153.7,63.7c39.4,39.4,63.7,93.8,63.7,153.9 c0,0,0,0.1,0,0.2"/>
            <path class="dashedOutsideLines" fill="none" stroke="#09B9B3" stroke-dasharray="4.971,4.9712"
                  stroke-width="1.189"
                  d="M516.5,380.5C516.5,380.5,516.5,380.5,516.5,380.5c27.7-64.4,26.6-133.8,2.6-194.1c0,0,0,0,0-0.1"/>
        </g>

        <g id="houseRing">
            <circle class="rotationPoint" cx="279.21" cy="279.21" r="279.21" fill="none"/>
            <g id="innerHouseRotationPoint">
                <g class="dashedBreathLine" id="dashedBreathLineOver">
                    <g fill="none" stroke="#09B9B3" stroke-width="1.279">
                        <path class="dashedBreathLine" d="M304.21,313.06 c-0.63,0.54-1.28,1.05-1.94,1.55"/>
                        <path class="dashedBreathLine" stroke-dasharray="5.337,5.337"
                              d="M255.2,318.4 c6.3,3.6,13.6,5.6,21.4,5.6c10.8,0,20.6-3.9,28.2-10.3"/>
                        <path class="dashedBreathLine" d="M256.82,318.97 c-0.74-0.37-1.48-0.75-2.2-1.16"/>
                        <path class="dashedBreathLine" d="M318.93,271.89 c-0.15-0.82-0.32-1.63-0.52-2.43"/>
                        <path class="dashedBreathLine" stroke-dasharray="5.4347,5.4347"
                              d="M316.8,264.27c-4.88-12.84-15.65-22.78-29.01-26.52"/>
                        <path class="dashedBreathLine" d="M285.15,237.09 c-0.81-0.17-1.62-0.32-2.44-0.45"/>
                        <path class="dashedBreathLine" d="M243.57,250.57 c-0.55,0.62-1.09,1.25-1.61,1.89"/>
                        <path class="dashedBreathLine" stroke-dasharray="5.7782,5.7782"
                              d="M238.65,257.19c-3.42,5.65-5.6,12.13-6.15,19.08"/>
                        <path class="dashedBreathLine"
                              d="M232.37,279.16c0,0.2,0,0.4,0,0.6 c0,0.63,0.01,1.26,0.04,1.88"/>
                    </g>
                    <path class="houseInnerCircle" fill="none" stroke="#01244A" stroke-width="1.189"
                          d="M275.91,341.21 c-17.02,0-32.42-6.9-43.57-18.05c-11.15-11.15-18.05-26.56-18.05-43.58c0-17.02,6.9-32.42,18.05-43.58 c11.15-11.15,26.56-18.05,43.57-18.05c17.02,0,32.42,6.9,43.58,18.05c11.15,11.15,18.05,26.56,18.05,43.58 c0,17.02-6.9,32.42-18.05,43.58C308.33,334.31,292.93,341.21,275.91,341.21z M259.43,280.57v19.99h11.33v-13.17h9.67v13.17h11.55 v-19.99 M298.37,281.27l-22.69-22.69l-22.67,22.67h-38.72 M282.4,218.46v42.02h7.62v7.66 M291.98,300.57l24.96,24.96 M261.55,314.89c4.36,1.77,9.13,2.75,14.13,2.78c9.26,0.05,17.76-3.2,24.4-8.64 M312.73,269.42c-2.75-10.08-9.53-18.51-18.5-23.44 c-3.49-1.92-7.31-3.3-11.36-4.05 M244.77,257.33c-4.41,6.19-7.03,13.76-7.07,21.94c0,0.67-0.01,0.95,0.02,1.61"/>
                    <path class="houseInnerCircleEnd" fill="#09B9B3"
                          d="M244.77,258.77c-0.82,0-1.49-0.67-1.49-1.49c0-0.82,0.67-1.49,1.49-1.49 c0.82,0,1.49,0.67,1.49,1.49C246.26,258.1,245.59,258.77,244.77,258.77z M262.48,314.48c0-0.82-0.67-1.49-1.49-1.49 c-0.82,0-1.49,0.67-1.49,1.49c0,0.82,0.67,1.49,1.49,1.49C261.81,315.97,262.48,315.3,262.48,314.48z M314.23,269.38 c0-0.82-0.67-1.49-1.49-1.49c-0.82,0-1.49,0.67-1.49,1.49c0,0.82,0.67,1.49,1.49,1.49C313.56,270.87,314.23,270.21,314.23,269.38z"/>
                </g>
                <g class="dashedLineEndPoints">
                    <path fill="#EF442E"
                          d="M245.05,247.02c0.91,0,1.66,0.74,1.66,1.66c0,0.91-0.74,1.66-1.66,1.66s-1.66-0.74-1.66-1.66 C243.4,247.76,244.14,247.02,245.05,247.02 M318.81,272.53c0.91,0,1.66,0.74,1.66,1.66s-0.74,1.66-1.66,1.66 c-0.91,0-1.66-0.74-1.66-1.66S317.9,272.53,318.81,272.53 M252.87,314.59c0.91,0,1.66,0.74,1.66,1.66c0,0.91-0.74,1.66-1.66,1.66 s-1.66-0.74-1.66-1.66C251.22,315.33,251.96,314.59,252.87,314.59 M245.05,245.83c-1.57,0-2.85,1.28-2.85,2.85 s1.28,2.84,2.85,2.84s2.85-1.28,2.85-2.84S246.62,245.83,245.05,245.83L245.05,245.83z M318.81,271.34 c-1.57,0-2.85,1.28-2.85,2.85s1.28,2.85,2.85,2.85s2.85-1.28,2.85-2.85S320.38,271.34,318.81,271.34L318.81,271.34z M252.87,313.4 c-1.57,0-2.85,1.28-2.85,2.85s1.28,2.84,2.85,2.84s2.85-1.28,2.85-2.84S254.44,313.4,252.87,313.4L252.87,313.4z"/>
                </g>
            </g>
            <g class="dashedBreathLine">
                <g fill="none" stroke="#01244A" stroke-width="1.189">
                    <line x1="238.33" x2="237.63" y1="328.23" y2="328.93"/>
                    <polyline stroke-dasharray="2.0166,2.0166" points="236.21,330.35 224.96,341.6 214.1,352.45"/>
                    <line x1="213.39" x2="212.69" y1="353.17" y2="353.87"/>
                </g>
            </g>
            <g class="dashedBreathLine">
                <g fill="none" stroke="#01244A" stroke-width="1.189">
                    <line x1="339.88" x2="339.18" y1="205.76" y2="206.46"/>
                    <polyline stroke-dasharray="1.9915,1.9915" points="337.77,207.87 326.69,219.01 315.99,229.75"/>
                    <line x1="315.29" x2="314.59" y1="230.45" y2="231.15"/>
                </g>
            </g>
            <g class="floatingCenter">
                <path fill="#EF442E"
                      d="M275.89,414.1c1.65,0,2.99,1.34,2.99,2.99c0,1.65-1.34,2.99-2.99,2.99c-1.65,0-2.99-1.34-2.99-2.99 C272.9,415.44,274.24,414.1,275.89,414.1 M275.89,412.91c-2.3,0-4.18,1.87-4.18,4.18s1.87,4.18,4.18,4.18 c2.3,0,4.18-1.87,4.18-4.18S278.19,412.91,275.89,412.91L275.89,412.91z"/>
            </g>
            <g class="floatingCenter">
                <path fill="#EF442E"
                      d="M275.89,138.02c1.65,0,2.99,1.34,2.99,2.99c0,1.65-1.34,2.99-2.99,2.99c-1.65,0-2.99-1.34-2.99-2.99 C272.9,139.36,274.24,138.02,275.89,138.02 M275.89,136.83c-2.3,0-4.18,1.87-4.18,4.18c0,2.3,1.87,4.18,4.18,4.18 c2.3,0,4.18-1.87,4.18-4.18C280.07,138.7,278.19,136.83,275.89,136.83L275.89,136.83z"/>
            </g>
            <g class="floatingCenterDash">
                <ellipse cx="275.89" cy="141.01" fill="none" stroke="#09B9B3" stroke-dasharray="2.0207,2.0207"
                         stroke-width="1.189" rx="8.37" ry="8.37" transform="rotate(-84.347 275.89 141.013)"/>
            </g>
            <g class="floatingCenterDash">
                <circle cx="275.89" cy="417.09" r="8.37" fill="none" stroke="#09B9B3" stroke-dasharray="2.0207,2.0207"
                        stroke-width="1.189"/>
            </g>
            <path fill="none" stroke="#01244A" stroke-linecap="round" stroke-linejoin="round" stroke-width="1.189"
                  d="M243.79,196.73l-2.3-5.91c-0.49-1.25-1.9-1.85-3.14-1.33c-11.85,4.94-22.52,12.14-31.46,21.08c-17.7,17.67-28.65,42.11-28.65,69.1 c0,26.95,10.92,51.35,28.57,69.02c8.89,8.9,19.48,16.09,31.26,21.04c1.24,0.52,2.66-0.08,3.15-1.33l2.29-5.89 c0.47-1.2,1.8-1.82,3.01-1.38c9.17,3.31,19.06,5.11,29.37,5.11c10.32,0,20.22-1.81,29.4-5.12c1.21-0.44,2.54,0.18,3.01,1.38 l2.29,5.89c0.49,1.25,1.91,1.85,3.15,1.33c11.77-4.95,22.36-12.15,31.25-21.05c17.64-17.67,28.55-42.06,28.55-69 c0-26.98-10.94-51.41-28.63-69.08c-8.94-8.93-19.61-16.14-31.46-21.09c-1.24-0.52-2.66,0.08-3.14,1.33l-2.3,5.91 c-0.47,1.19-1.8,1.81-3,1.38c-9.1-3.25-18.9-5.02-29.12-5.02c-10.21,0-20,1.77-29.09,5.01 C245.59,198.54,244.26,197.92,243.79,196.73z"/>
            <g class="antennaLine">
                <path fill="#01244A"
                      d="M257.81,404.15c1.32,0,2.4,1.07,2.4,2.4c0,1.32-1.07,2.4-2.4,2.4s-2.4-1.07-2.4-2.4 C255.41,405.22,256.48,404.15,257.81,404.15 M257.81,402.96c-1.98,0-3.58,1.6-3.58,3.58s1.6,3.58,3.58,3.58 c1.98,0,3.58-1.6,3.58-3.58S259.79,402.96,257.81,402.96L257.81,402.96z"/>
            </g>
            <g class="antennaLineEnd">
                <path fill="#01244A"
                      d="M293.97,404.15c1.32,0,2.4,1.07,2.4,2.4c0,1.32-1.07,2.4-2.4,2.4c-1.32,0-2.4-1.07-2.4-2.4 C291.57,405.22,292.65,404.15,293.97,404.15 M293.97,402.96c-1.98,0-3.58,1.6-3.58,3.58s1.6,3.58,3.58,3.58 c1.98,0,3.58-1.6,3.58-3.58S295.95,402.96,293.97,402.96L293.97,402.96z"/>
            </g>
            <line class="antennaLine" x1="288.17" x2="293.49" y1="365.56" y2="403.02" fill="none" stroke="#09B9B3"
                  stroke-width="1.189"/>
            <line class="antennaLine" x1="263.66" x2="258.34" y1="365.56" y2="403.02" fill="none" stroke="#09B9B3"
                  stroke-width="1.189"/>
            <g class="antennaLineEnd">
                <path fill="#01244A"
                      d="M293.97,149.06c1.32,0,2.4,1.07,2.4,2.4s-1.07,2.4-2.4,2.4c-1.32,0-2.4-1.07-2.4-2.4 S292.65,149.06,293.97,149.06 M293.97,147.87c-1.98,0-3.58,1.6-3.58,3.58c0,1.98,1.6,3.58,3.58,3.58c1.98,0,3.58-1.6,3.58-3.58 C297.55,149.47,295.95,147.87,293.97,147.87L293.97,147.87z"/>
            </g>
            <g class="antennaLineEnd">
                <path fill="#01244A"
                      d="M257.81,149.06c1.32,0,2.4,1.07,2.4,2.4s-1.07,2.4-2.4,2.4s-2.4-1.07-2.4-2.4S256.48,149.06,257.81,149.06 M257.81,147.87c-1.98,0-3.58,1.6-3.58,3.58c0,1.98,1.6,3.58,3.58,3.58c1.98,0,3.58-1.6,3.58-3.58 C261.39,149.47,259.79,147.87,257.81,147.87L257.81,147.87z"/>
            </g>
            <line class="antennaLine" x1="293.55" x2="288.06" y1="154.73" y2="193.59" fill="none" stroke="#09B9B3"
                  stroke-width="1.189"/>
            <line class="antennaLine" x1="258.18" x2="263.76" y1="154.58" y2="193.59" fill="none" stroke="#09B9B3"
                  stroke-width="1.189"/>
            <g id="innerHouseRing">\
                <circle class="rotationPoint" cx="279.21" cy="279.21" r="279.21" fill="none"/>
                <g id="breathLineRotation" fill="none" stroke-width="1.189">
                    <path stroke="#01244A"
                          d="M275.92,353.39L275.92,353.39 c20.38,0,38.84-8.26,52.2-21.62c1.58-1.58,3.09-3.23,4.52-4.94"/>
                    <path stroke="#01244A"
                          d="M219.54,231.93 c1.33-1.58,2.73-3.09,4.19-4.55c13.36-13.36,31.81-21.62,52.19-21.62"/>
                    <polygon stroke="#09B9B3" stroke-linecap="round" stroke-linejoin="round"
                             points="281.42,205.76 278.49,204.07 275.56,202.38 275.56,205.76 275.56,209.14 278.49,207.45"/>
                    <polygon stroke="#09B9B3" stroke-linecap="round" stroke-linejoin="round"
                             points="269.99,353.21 272.92,351.52 275.85,349.82 275.85,353.21 275.85,356.59 272.92,354.9"/>
                    <g class="breathLines1" stroke="#09B9B3">
                        <path d="M211.33,333.41l8.55-7.17"/>
                        <path d="M206.85,327.58l9.14-6.4"/>
                        <path d="M212.56,315.8l-9.66,5.58"/>
                        <path d="M199.5,314.85l10.11-4.71"/>
                        <path d="M196.69,308.06l10.48-3.82"/>
                        <path d="M194.47,301.04l10.78-2.89"/>
                        <path d="M192.88,293.86l10.99-1.94"/>
                        <path d="M191.92,286.57l11.11-0.97"/>
                        <path d="M191.6,279.22h11.16"/>
                        <path d="M203.04,272.85l-11.11-0.97"/>
                        <path d="M192.88,264.58l10.99,1.94"/>
                        <path d="M194.47,257.4l10.78,2.89"/>
                        <path d="M196.69,250.39l10.48,3.82"/>
                        <path d="M199.5,243.59l10.11,4.71"/>
                        <path d="M202.9,237.07l9.66,5.58"/>
                        <path d="M215.99,237.27l-9.14-6.4"/>
                        <path d="M211.33,225.03l8.55,7.17"/>
                    </g>
                    <g class="breathLines2" stroke="#09B9B3">
                        <path d="M340.49,225.03l-8.55,7.17"/>
                        <path d="M344.97,230.87l-9.14,6.4"/>
                        <path d="M339.26,242.65l9.66-5.58"/>
                        <path d="M352.32,243.59l-10.11,4.71"/>
                        <path d="M355.13,250.39l-10.48,3.82"/>
                        <path d="M357.34,257.4l-10.78,2.89"/>
                        <path d="M358.94,264.58l-10.99,1.94"/>
                        <path d="M359.9,271.87l-11.11,0.97"/>
                        <path d="M360.22,279.22h-11.16"/>
                        <path d="M348.78,285.6l11.11,0.97"/>
                        <path d="M358.94,293.86l-10.99-1.94"/>
                        <path d="M357.34,301.04l-10.78-2.89"/>
                        <path d="M355.13,308.06l-10.48-3.82"/>
                        <path d="M352.32,314.85l-10.11-4.71"/>
                        <path d="M348.92,321.37l-9.66-5.58"/>
                        <path d="M335.83,321.18l9.14,6.4"/>
                        <path d="M340.49,333.41l-8.55-7.17"/>
                    </g>
                </g>
            </g>
            <g class="rayLines">
                <g fill="none" stroke="#01244A" stroke-width="1.189">
                    <line x1="393.44" x2="390.45" y1="271.32" y2="271.59"/>
                    <line x1="388.88" x2="385.21" y1="271.73" y2="272.07" stroke-dashoffset="0"
                          stroke-dasharray="3.6832,0"/>
                    <line x1="385.21" x2="376.82" y1="272.07" y2="272.83" stroke-dashoffset="0"
                          stroke-dasharray="3.157,1.5785,3.6832,0"/>
                    <line x1="376.82" x2="373.84" y1="272.83" y2="273.1"/>
                </g>
                <g fill="none" stroke="#01244A" stroke-width="1.189">
                    <line x1="388.48" x2="385.99" y1="291.71" y2="291.47"/>
                    <line x1="384.4" x2="375.93" y1="291.32" y2="290.51" stroke-dashoffset="0"
                          stroke-dasharray="8.5141,0"/>
                    <line x1="375.93" x2="373.44" y1="290.51" y2="290.27"/>
                </g>
                <g fill="none" stroke="#01244A" stroke-width="1.189">
                    <line x1="397.15" x2="390.65" y1="281.68" y2="281.68"/>
                    <line x1="389.05" x2="380.51" y1="281.68" y2="281.68" stroke-dashoffset="0"
                          stroke-dasharray="8.5353,0"/>
                    <line x1="380.51" x2="374.01" y1="281.68" y2="281.68"/>
                </g>
            </g>
            <g class="rayLines" fill="none" stroke="#01244A" stroke-width="1.189">
                <line x1="158.91" x2="161.9" y1="291.71" y2="291.44"/>
                <line x1="163.47" x2="167.14" y1="291.29" y2="290.96" stroke-dashoffset="0"
                      stroke-dasharray="3.6832,0"/>
                <line x1="167.14" x2="175.52" y1="290.96" y2="290.2" stroke-dashoffset="0"
                      stroke-dasharray="3.157,1.5785,3.6832,0"/>
                <line x1="175.52" x2="178.51" y1="290.2" y2="289.93"/>
                <line x1="163.86" x2="166.35" y1="271.32" y2="271.56"/>
                <line x1="167.94" x2="176.42" y1="271.71" y2="272.52" stroke-dashoffset="0"
                      stroke-dasharray="8.5141,0"/>
                <line x1="176.42" x2="178.91" y1="272.52" y2="272.76"/>
            </g>
            <g fill="none" stroke="#01244A" stroke-width="1.189">
                <line x1="155.2" x2="161.7" y1="281.35" y2="281.35"/>
                <line x1="163.3" x2="171.83" y1="281.35" y2="281.35" stroke-dashoffset="0" stroke-dasharray="8.5353,0"/>
                <line x1="171.83" x2="178.33" y1="281.35" y2="281.35"/>
            </g>
        </g>
        <g fill="none" stroke-width="1.189" stroke-dashoffset="0">
            <path class="rayLine" stroke="#09B9B3" stroke-dasharray="100 10 100 30 20 70 160 50"
                  d="M459.1,259.7 c-1.4-13.5-4.3-26.6-8.5-39l-1.6-4.6c-0.8-2.1-1.6-4.2-2.4-6.2L444,204c-4-8.9-8.7-17.4-14-25.4l-3.6-5.3 c-6.1-8.6-12.8-16.6-20.2-24c-5.6-5.6-11.5-10.8-17.8-15.6c0,0-17.9-12.4-23.5-15.4c-5.6-3.1-11.3-5.9-17.2-8.4l-5.9-2.4 c-13.8-5.3-28.3-8.9-43.4-10.8"/>
            <path class="rayLine" stroke="#09B9B3" stroke-dasharray="200 10 50 30 60 70 100 50"
                  d="M92.5,297.4 c0.2,2.4,0.5,4.7,0.8,7l0.7,5c3,18.4,8.7,35.9,16.7,52l1.5,2.9c0.8,1.6,1.7,3.2,2.6,4.8l1.6,2.8c6.2,10.7,13.5,20.8,21.7,30 l3.4,3.7c1.3,1.4,2.6,2.8,4,4.1c22.1,22.1,49.9,38.7,80.9,47.3l4.9,1.3c6.6,1.6,13.3,2.9,20.2,3.8"/>
            <path class="rayLine" stroke="#01244A" stroke-dasharray="300 10 40 30 40 70 350 50"
                  d="M244.9,529.8 c-20.7-2.5-40.6-7.5-59.4-14.8l-8.1-3.3c-8.1-3.4-15.9-7.2-23.5-11.5c0,0-20-11.1-32.2-21.2c-8.4-6.9-16.7-13.8-24.3-21.4 c-10.1-10.1-19.4-21.1-27.7-32.8l-4.9-7.3c-7.3-11-13.7-22.7-19.1-34.8l-3.5-8c-1.2-2.8-2.3-5.7-3.3-8.5"/>
            <path class="rayLine" stroke="#01244A" stroke-dasharray="50 10 20 30 100 70 200 50"
                  d="M308.9,29.2 c9.4,1.2,18.6,3,27.6,5.2l6.7,1.8c42.5,11.8,80.5,34.4,110.8,64.7c1.9,1.9,3.7,3.7,5.5,5.6"/>
        </g>
        <g id="maskingStripes" fill="none">
            <path stroke="#09B9B3" stroke-width="1.189"
                  d="M499.6,315.5 c-0.1,0.4-0.1,0.8-0.2,1.2c-0.4,2.6-0.9,5.2-1.4,7.8c-0.5,2.6-1.1,5.2-1.7,7.7c-0.6,2.6-1.3,5.1-2,7.7c-0.7,2.5-1.4,5.1-2.2,7.6 c-0.8,2.5-1.6,5-2.5,7.5c-0.9,2.5-1.8,5-2.8,7.4c-1,2.5-2,4.9-3,7.3c-1.1,2.4-2.1,4.8-3.3,7.2c-1.1,2.4-2.3,4.7-3.5,7.1 c-1.2,2.3-2.5,4.7-3.8,7c-1.3,2.3-2.6,4.6-4,6.8c-1.4,2.3-2.8,4.5-4.2,6.7c-1.5,2.2-2.9,4.4-4.5,6.5c-1.5,2.1-3.1,4.3-4.7,6.4 c-1.6,2.1-3.2,4.2-4.9,6.2c-0.3,0.3-0.6,0.7-0.9,1c-1.4,1.7-3.9,1.9-5.5,0.5l-8.1-6.5c-1.7-1.4-2-3.9-0.6-5.6 c0.3-0.4,0.6-0.7,0.9-1.1c1.5-1.9,3-3.8,4.5-5.7c1.5-1.9,2.9-3.9,4.3-5.8c1.4-2,2.8-4,4.1-6c1.3-2,2.6-4.1,3.9-6.1h0 c1.3-2.1,2.5-4.2,3.7-6.3c1.2-2.1,2.3-4.2,3.5-6.4c1.1-2.1,2.2-4.3,3.2-6.5c1-2.2,2-4.4,3-6.6c1-2.2,1.9-4.5,2.8-6.7 c0.9-2.3,1.7-4.5,2.5-6.8c0.8-2.3,1.6-4.6,2.3-6.9c0.7-2.3,1.4-4.6,2.1-7c0.6-2.3,1.2-4.7,1.8-7c0.6-2.4,1.1-4.7,1.6-7.1 c0.5-2.4,0.9-4.8,1.3-7.2c0.1-0.3,0.1-0.6,0.1-0.9c0.3-2.1,2.3-3.6,4.5-3.3l10.3,1.4C498.4,311.2,500,313.3,499.6,315.5z"/>
            <path stroke="#09B9B3" stroke-width="1.189"
                  d="M413.9,459.2 c-1,0.8-2.1,1.6-3.1,2.3c-2.1,1.6-4.3,3.1-6.4,4.6c-2.2,1.5-4.4,3-6.6,4.4c-2.2,1.4-4.5,2.8-6.7,4.1c-2.3,1.3-4.6,2.6-6.9,3.9 c-2.3,1.3-4.7,2.5-7,3.7c-2.4,1.2-4.7,2.3-7.1,3.4c-2.4,1.1-4.8,2.2-7.3,3.2c-2.4,1-4.9,2-7.4,2.9c-2.5,0.9-5,1.8-7.5,2.6 c-2.5,0.8-5,1.6-7.6,2.4c-2.5,0.8-5.1,1.5-7.6,2.1c-2.5,0.7-5.1,1.3-7.7,1.8c-2.6,0.6-5.2,1.1-7.8,1.6c-2.6,0.5-5.2,0.9-7.8,1.3 c-1.2,0.2-2.3,0.3-3.5,0.5c-2.1,0.3-4.1-1.2-4.4-3.3l-1.4-8.5l0,0l-0.3-1.8c-0.1-0.3-0.1-0.7,0-1c0,0,0,0,0,0 c0.2-1.8,1.5-3.3,3.4-3.5c1.2-0.2,2.3-0.3,3.5-0.5c2.4-0.4,4.8-0.8,7.2-1.2c2.4-0.4,4.8-0.9,7.1-1.4c2.4-0.5,4.7-1.1,7.1-1.7 c2.4-0.6,4.7-1.3,7-1.9c2.3-0.7,4.6-1.4,6.9-2.2c2.3-0.8,4.6-1.6,6.9-2.4c2.3-0.9,4.5-1.7,6.8-2.7c2.2-0.9,4.5-1.9,6.7-2.9 c2.2-1,4.4-2.1,6.6-3.1c2.2-1.1,4.3-2.2,6.4-3.4c2.1-1.2,4.2-2.4,6.3-3.6c2.1-1.2,4.2-2.5,6.2-3.8c2-1.3,4.1-2.6,6.1-4 c2-1.4,4-2.8,5.9-4.2c0.8-0.6,1.7-1.2,2.5-1.9c1.7-1.3,4-1,5.4,0.6l6.7,8C416,455.3,415.7,457.8,413.9,459.2z"/>
            <path stroke="#09B9B3" stroke-width="1.189"
                  d="M107.4,157.2 c-0.4,0.5-0.7,1-1.1,1.5c-1.4,2-2.8,4-4.1,6c-1.3,2-2.6,4.1-3.9,6.1c-1.3,2.1-2.5,4.1-3.7,6.3c-1.2,2.1-2.4,4.2-3.5,6.4 c-1.1,2.1-2.2,4.3-3.2,6.5c-1,2.2-2,4.4-3,6.6c-1,2.2-1.9,4.5-2.8,6.7c-0.9,2.2-1.7,4.5-2.5,6.8c-0.8,2.3-1.6,4.6-2.3,6.9 c-0.7,2.3-1.4,4.6-2.1,7c-0.6,2.3-1.3,4.7-1.8,7c-0.6,2.4-1.1,4.7-1.6,7.1c-0.5,2.4-0.9,4.8-1.3,7.1c-0.2,1.1-0.3,2.1-0.5,3.2 c-0.3,2.1-2.3,3.6-4.5,3.3l-10.3-1.4c-2.2-0.3-3.7-2.3-3.4-4.5c0.2-1.2,0.4-2.4,0.6-3.6c0.4-2.6,0.9-5.2,1.4-7.8 c0.5-2.6,1.1-5.2,1.7-7.7c0.6-2.6,1.3-5.1,2-7.7c0.7-2.5,1.4-5.1,2.2-7.6c0.8-2.5,1.6-5,2.5-7.5c0.9-2.5,1.8-5,2.8-7.4 c1-2.5,2-4.9,3-7.3c1.1-2.4,2.1-4.8,3.3-7.2c1.1-2.4,2.3-4.7,3.5-7.1c1.2-2.3,2.5-4.7,3.8-6.9c1.3-2.3,2.6-4.6,4-6.8 c1.4-2.2,2.8-4.5,4.3-6.7c1.5-2.2,2.9-4.4,4.5-6.5c0.5-0.7,1-1.4,1.5-2.1c1.3-1.8,3.9-2.2,5.7-0.7l8.1,6.5 C108.3,153.1,108.7,155.5,107.4,157.2z"/>

            <g clip-path="url(#maskPath)" id="vent" stroke-dasharray="1.5,8" stroke-width="25">
                <circle class="ventCircle" cx="275.8" cy="280.8" r="217.4" stroke="#06B2B2" stroke-dashoffset="20"/>
                <circle class="ventCircle" cx="275.8" cy="280.8" r="217.4" stroke="#022166" stroke-dashoffset="5"/>
            </g>
        </g>
        <g id="circle">
            <path fill="none" stroke="#01244A" stroke-width="1.189"
                  d="M413.8,141.7c-35.3-35.3-84.1-57.1-137.9-57.1 c-53.9,0-102.6,21.8-137.9,57.1c-35.3,35.3-57.2,84.1-57.2,138c0,53.9,21.8,102.6,57.1,137.9c35.3,35.3,84.1,57.2,138,57.2 c53.9,0,102.7-21.9,138-57.2c35.3-35.3,57.1-84.1,57.1-137.9C471,225.8,449.2,177,413.8,141.7z"/>
            <polyline fill="none" stroke="#01244A" stroke-width="1.189"
                      points="159.2,162.9 183.9,187.5 184.6,188.2 206.9,210.6"/>
            <polyline fill="none" stroke="#01244A" stroke-width="1.189"
                      points="345,348.7 367.3,371 368,371.7 392.6,396.3"/>
            <line x1="89.3" x2="139.5" y1="90.8" y2="141" fill="none" stroke="#09B9B3" stroke-width="1.189"/>
            <line x1="415.2" x2="465.9" y1="416.8" y2="467.5" fill="none" stroke="#09B9B3" stroke-width="1.189"/>
            <path fill="none" stroke="#01244A" stroke-width="1.189"
                  d="M58.3,279.7c0,60,24.4,114.4,63.7,153.7 c39.4,39.4,93.8,63.7,153.9,63.7c0.1,0,0.3,0,0.4,0"/>
            <path fill="none" stroke="#09B9B3" stroke-width="1.189"
                  d="M276.6,43.1c65.2,0.1,124.2,26.5,167,69.3 c41.9,41.9,68.2,99.6,69.2,163.3c0,2.2-1.7,4-4,4l-63.5,0c-2.2,0-3.9,1.7-4,3.9c-1,44-19.3,83.7-48.2,112.7 c-29,29-68.9,47.3-112.9,48.3c-2.2,0-3.9,1.8-3.9,4l0,50.7l0,45.6c0,2.2,1.8,4,4,4c72.1-1.1,137.1-30.5,184.8-77.6"/>
            <path fill="none" stroke="#09B9B3" stroke-width="1.189"
                  d="M89.4,85.5c47.5-45.7,111.6-74.1,182.4-75.2 c2.2,0,4,1.7,4,4l0.1,46.2l0.1,50.3c0,2.2-1.7,3.9-3.9,4c-44,1-84,19.3-113,48.2c-29,29-47.3,68.9-48.3,112.9c0,2.2-1.8,3.9-4,3.9 H10.7"/>
            <path fill="none" stroke="#09B9B3" stroke-width="1.189"
                  d="M6.8,283.5c1,71.3,29.7,135.9,75.9,183.5 c1.5,1.6,4.1,1.6,5.7,0l7.5-7.5l10.8-10.8"/>
            <path fill="#EF442E"
                  d="M86.9,92.3c-2.3,0-4.2-1.9-4.2-4.2c0-2.3,1.9-4.2,4.2-4.2s4.2,1.9,4.2,4.2C91.1,90.4,89.2,92.3,86.9,92.3z M86.9,85.1c-1.6,0-3,1.3-3,3c0,1.6,1.3,3,3,3s3-1.3,3-3C89.9,86.5,88.5,85.1,86.9,85.1z"/>
            <path fill="#EF442E"
                  d="M7,284c-1.1,0-2.1-0.4-3-1.2c-1.6-1.6-1.6-4.3,0-5.9c1.6-1.6,4.3-1.6,5.9,0c1.6,1.6,1.6,4.3,0,5.9 C9.2,283.6,8.1,284,7,284z M7,276.9c-0.8,0-1.5,0.3-2.1,0.9c-1.2,1.2-1.2,3.1,0,4.2c1.2,1.2,3.1,1.2,4.2,0c1.2-1.2,1.2-3.1,0-4.2 C8.6,277.2,7.8,276.9,7,276.9z"/>
            <path fill="#EF442E"
                  d="M468.6,474.2c-2.3,0-4.2-1.9-4.2-4.2s1.9-4.2,4.2-4.2c2.3,0,4.2,1.9,4.2,4.2S470.9,474.2,468.6,474.2z M468.6,467c-1.6,0-3,1.3-3,3c0,1.6,1.3,3,3,3c1.6,0,3-1.3,3-3C471.6,468.3,470.3,467,468.6,467z"/>
            <path fill="none" stroke="#01244A" stroke-width="1.189"
                  d="M44,178.2C44,178.2,44,178.2,44,178.2 c28.1-64.1,79.6-110.7,139.9-134.3"/>
            <path class="key" stroke="#01244A" stroke-width=".595"
                  d="M511.6,1135.6c-0.8-2-0.4-4.1,0.9-5.7l-4-10.2 c0-0.1,0-0.1,0-0.2l1.2-3.3c0-0.1,0.2-0.2,0.3-0.2c0,0,0,0,0,0l4,2.4c0.1,0.1,0.2,0.2,0.1,0.3l-0.8,1.8l1.8,0.8 c0.1,0.1,0.2,0.2,0.1,0.3c0,0,0,0,0,0l-0.8,1.8l1.8,0.8c0.1,0,0.1,0.1,0.1,0.1l1.3,3.4c2,0.3,3.7,1.6,4.5,3.6 c1.2,3-0.3,6.3-3.3,7.4C516.1,1140,512.8,1138.5,511.6,1135.6L511.6,1135.6z M512.1,1135.4c1,2.7,4.1,4,6.8,3c2.7-1,4-4.1,3-6.8 c-0.7-1.9-2.4-3.1-4.2-3.3c-0.1,0-0.2-0.1-0.2-0.2l-1.3-3.4l-1.9-0.8c-0.1-0.1-0.2-0.2-0.1-0.3c0,0,0,0,0,0l0.8-1.8l-1.8-0.8 c-0.1-0.1-0.2-0.2-0.1-0.3c0,0,0,0,0,0l0.8-1.8l-3.5-2.1l-1.1,2.9l4,10.3c0,0.1,0,0.2,0,0.3 C511.8,1131.5,511.4,1133.5,512.1,1135.4L512.1,1135.4z M516,1135.8c-0.4-0.9,0.1-2,1-2.4c0.9-0.4,2,0.1,2.4,1s-0.1,2-1,2.4 C517.4,1137.3,516.3,1136.8,516,1135.8z M516.4,1135.7c0.3,0.7,1,1,1.7,0.7s1-1,0.7-1.7c-0.3-0.7-1-1-1.7-0.7 C516.5,1134.2,516.2,1135,516.4,1135.7z"
                  transform="translate(0 -952.362)"/>
            <g class="key" fill="#FFFFFF" stroke="#01244A" stroke-width=".595">
                <path
                    d="M518.3,1329.1c-0.9-0.4-2,0.1-2.4,1 c-0.4,0.9,0.1,2,1,2.4c0.9,0.4,2-0.1,2.4-1C519.7,1330.5,519.3,1329.4,518.3,1329.1z M518.9,1331.3c-0.3,0.7-1,1-1.7,0.7 c-0.7-0.3-1-1-0.7-1.7s1-1,1.7-0.7C518.8,1329.8,519.1,1330.6,518.9,1331.3z M518.3,1329.1c-0.9-0.4-2,0.1-2.4,1 c-0.4,0.9,0.1,2,1,2.4c0.9,0.4,2-0.1,2.4-1C519.7,1330.5,519.3,1329.4,518.3,1329.1z M518.9,1331.3c-0.3,0.7-1,1-1.7,0.7 c-0.7-0.3-1-1-0.7-1.7s1-1,1.7-0.7C518.8,1329.8,519.1,1330.6,518.9,1331.3z M519.1,1327.1c-3-1.2-6.3,0.3-7.4,3.3 c-0.8,2-0.4,4.1,0.9,5.7l-4,10.2c0,0.1,0,0.1,0,0.2l1.2,3.3c0,0.1,0.2,0.2,0.3,0.2c0,0,0,0,0,0l4-2.4c0.1-0.1,0.2-0.2,0.1-0.3 l-0.8-1.8l1.8-0.8c0.1-0.1,0.2-0.2,0.1-0.3c0,0,0,0,0,0l-0.8-1.8l1.8-0.8c0.1,0,0.1-0.1,0.1-0.1l1.3-3.4c2-0.3,3.7-1.6,4.5-3.6 C523.5,1331.6,522,1328.3,519.1,1327.1z M521.9,1334.4c-0.7,1.9-2.4,3.1-4.2,3.3c-0.1,0-0.2,0.1-0.2,0.2l-1.3,3.4l-1.9,0.9 c-0.1,0.1-0.2,0.2-0.1,0.3c0,0,0,0,0,0l0.8,1.8l-1.8,0.8c-0.1,0.1-0.2,0.2-0.1,0.3c0,0,0,0,0,0l0.8,1.8l-3.5,2.1l-1.1-2.9l4-10.3 c0-0.1,0-0.2,0-0.3c-1.2-1.4-1.6-3.4-0.9-5.3c1.1-2.7,4.1-4,6.8-3C521.6,1328.7,522.9,1331.7,521.9,1334.4z M518.3,1329.1 c-0.9-0.4-2,0.1-2.4,1c-0.4,0.9,0.1,2,1,2.4c0.9,0.4,2-0.1,2.4-1C519.7,1330.5,519.3,1329.4,518.3,1329.1z M518.9,1331.3 c-0.3,0.7-1,1-1.7,0.7c-0.7-0.3-1-1-0.7-1.7s1-1,1.7-0.7C518.8,1329.8,519.1,1330.6,518.9,1331.3z"
                    transform="translate(0 -952.362)"/>
                <path
                    d="M518.9,1327.6c-2.7-1-5.7,0.3-6.8,3 c-0.7,1.9-0.3,3.9,0.9,5.3c0.1,0.1,0.1,0.2,0,0.3l-4,10.3l1.1,2.9l3.5-2.1l-0.8-1.8c0,0,0,0,0,0c-0.1-0.1,0-0.3,0.1-0.3l1.8-0.8 l-0.8-1.8c0,0,0,0,0,0c-0.1-0.1,0-0.3,0.1-0.3l1.9-0.9l1.3-3.4c0-0.1,0.1-0.2,0.2-0.2c1.8-0.2,3.5-1.4,4.2-3.3 C522.9,1331.7,521.6,1328.7,518.9,1327.6z M519.4,1331.4c-0.4,0.9-1.4,1.4-2.4,1c-0.9-0.4-1.4-1.4-1-2.4c0.4-0.9,1.4-1.4,2.4-1 C519.3,1329.4,519.7,1330.5,519.4,1331.4z"
                    transform="translate(0 -952.362)"/>
            </g>
            <g fill="#01244A">
                <rect width="1.2" height="13.3" x="304.9" y="451.7" transform="rotate(-8.996 305.6 458.391)"/>
                <rect width="1.2" height="13.3" x="332.6" y="445" transform="rotate(-17.998 333.227 451.68)"/>
                <rect width="1.2" height="13.3" x="358.9" y="434" transform="rotate(-27 359.415 440.677)"/>
                <rect width="1.2" height="13.3" x="383.1" y="419.1" transform="rotate(-36.002 383.644 425.77)"/>
                <rect width="1.2" height="13.3" x="404.7" y="400.6" transform="rotate(-45.001 405.265 407.265)"/>
                <rect width="1.2" height="13.3" x="423.1" y="378.9" transform="rotate(-53.999 423.719 385.593)"/>
                <rect width="1.2" height="13.3" x="437.9" y="354.6" transform="rotate(-63 438.499 361.293)"/>
                <rect width="1.2" height="13.3" x="448.7" y="328.3" transform="rotate(-72.002 449.305 334.973)"/>
                <rect width="1.2" height="13.3" x="455.3" y="300.7" transform="rotate(-81.002 455.913 307.305)"/>
                <rect width="1.2" height="13.3" x="247.4" y="93.7" transform="rotate(-8.996 248.071 100.324)"/>
                <rect width="1.2" height="13.3" x="219.8" y="100.4" transform="rotate(-17.998 220.387 107.025)"/>
                <rect width="1.2" height="13.3" x="193.5" y="111.3" transform="rotate(-27 194.116 117.969)"/>
                <rect width="1.2" height="13.3" x="169.3" y="126.2" transform="rotate(-36.002 169.887 132.886)"/>
                <rect width="1.2" height="13.3" x="147.7" y="144.8" transform="rotate(-45.001 148.299 151.414)"/>
                <rect width="1.2" height="13.3" x="129.3" y="166.4" transform="rotate(-53.999 129.877 173.09)"/>
                <rect width="1.2" height="13.3" x="114.5" y="190.7" transform="rotate(-63 115.06 197.377)"/>
                <rect width="1.2" height="13.3" x="103.6" y="217" transform="rotate(-72.002 104.217 223.673)"/>
                <rect width="1.2" height="13.3" x="97.1" y="244.7" transform="rotate(-81.002 97.64 251.358)"/>
            </g>
            <g fill="none" stroke="#09B9B3" stroke-linecap="round" stroke-linejoin="round" stroke-width="1.189">
                <polygon points="189.6,41.6 187.3,44.4 184.9,47.2 183.7,43.8 182.5,40.4 186,41"/>
                <polygon points="41.3,184.1 41,180.5 40.6,177 43.9,178.4 47.2,179.9 44.3,182"/>
            </g>
            <g fill="#09B9B3">
                <circle cx="357.9" cy="369.7" r="1.3"/>
                <circle cx="348.8" cy="360.7" r="1.3"/>
                <circle cx="385.1" cy="397" r="1.3"/>
                <circle cx="376" cy="387.9" r="1.3"/>
                <circle cx="367" cy="378.8" r="1.3"/>
                <circle cx="186.3" cy="181" r="1.3"/>
                <circle cx="177.2" cy="171.9" r="1.3"/>
                <circle cx="168.1" cy="162.9" r="1.3"/>
                <circle cx="204.4" cy="199.2" r="1.3"/>
                <circle cx="195.4" cy="190.1" r="1.3"/>
            </g>
            <g fill="#01244A">
                <circle cx="362.4" cy="374.3" r="1.3"/>
                <circle cx="353.3" cy="365.2" r="1.3"/>
                <circle cx="344.3" cy="356.1" r="1.3"/>
                <circle cx="380.6" cy="392.4" r="1.3"/>
                <circle cx="371.5" cy="383.4" r="1.3"/>
                <circle cx="181.7" cy="176.5" r="1.3"/>
                <circle cx="172.7" cy="167.4" r="1.3"/>
                <circle cx="209" cy="203.7" r="1.3"/>
                <circle cx="199.9" cy="194.6" r="1.3"/>
                <circle cx="190.8" cy="185.6" r="1.3"/>
            </g>

            <g fill="#01244A">
                <path
                    d="M388.4,377.9l-4.5-3.8l3.8-4.5l4.5,3.8L388.4,377.9z M385.5,374l2.7,2.3l2.3-2.7l-2.7-2.3L385.5,374z"/>
                <path
                    d="M132.9,302.5l0.6,3.6l-3.6,0.6l-0.6-3.6L132.9,302.5 M133.8,301.3l-5.8,1l1,5.8l5.8-1L133.8,301.3 L133.8,301.3z"/>
                <path d="M132.2,282.2h-5.9v-5.9h5.9V282.2z M127.4,281h3.6v-3.6h-3.6V281z"/>
                <path
                    d="M133.9,257.2l-5.8-1l1-5.8l5.8,1L133.9,257.2z M129.4,255.2l3.5,0.6l0.6-3.5l-3.5-0.6L129.4,255.2z"/>
                <path
                    d="M139.9,232.9l-5.6-2l2-5.6l5.6,2L139.9,232.9z M135.8,230.1l3.3,1.2l1.2-3.3l-3.3-1.2L135.8,230.1z"/>
                <path d="M150,210l-5.1-3l3-5.1l5.1,3L150,210z M146.5,206.6l3.1,1.8l1.8-3.1l-3.1-1.8L146.5,206.6z"/>
                <path
                    d="M164,189.2l-4.5-3.8l3.8-4.5l4.5,3.8L164,189.2z M161.1,185.2l2.7,2.3l2.3-2.7l-2.7-2.3L161.1,185.2z"/>
                <path
                    d="M417.8,257.5l-1-5.8l5.8-1l1,5.8L417.8,257.5z M418.2,252.6l0.6,3.5l3.5-0.6l-0.6-3.5L418.2,252.6z"/>
                <path d="M425.4,282.5h-5.9v-5.9h5.9V282.5z M420.7,281.3h3.6v-3.6h-3.6V281.3z"/>
                <path
                    d="M422.6,308.4l-5.8-1l1-5.8l5.8,1L422.6,308.4z M418.1,306.4l3.5,0.6l0.6-3.5l-3.5-0.6L418.1,306.4z"/>
                <path
                    d="M415.3,333.5l-5.6-2l2-5.6l5.6,2L415.3,333.5z M411.3,330.7l3.3,1.2l1.2-3.3l-3.3-1.2L411.3,330.7z"/>
                <path
                    d="M403.8,356.9l-5.1-3l3-5.1l5.1,3L403.8,356.9z M400.3,353.5l3.1,1.8l1.8-3.1l-3.1-1.8L400.3,353.5z"/>
            </g>
            <g fill="#09B9B3">
                <path
                    d="M132.5,269.7l-5.9-0.5l0.5-5.9l5.9,0.5L132.5,269.7z M127.9,268.1l3.5,0.3l0.3-3.5l-3.5-0.3L127.9,268.1z"/>
                <path
                    d="M136.3,244.9l-5.7-1.5l1.5-5.7l5.7,1.5L136.3,244.9z M132.1,242.5l3.4,0.9l0.9-3.4l-3.4-0.9L132.1,242.5z"/>
                <path
                    d="M144.5,221.2l-5.4-2.5l2.5-5.4l5.4,2.5L144.5,221.2z M140.7,218.1l3.2,1.5l1.5-3.2l-3.2-1.5L140.7,218.1z"/>
                <path
                    d="M156.5,199.3l-4.9-3.4l3.4-4.9l4.9,3.4L156.5,199.3z M153.3,195.6l2.9,2l2-2.9l-2.9-2L153.3,195.6z"/>
                <path
                    d="M419.2,270l-0.5-5.9l5.9-0.5l0.5,5.9L419.2,270z M420,265.1l0.3,3.5l3.5-0.3l-0.3-3.5L420,265.1z"/>
                <path
                    d="M424.6,295.5l-5.9-0.5l0.5-5.9l5.9,0.5L424.6,295.5z M420,293.9l3.5,0.3l0.3-3.5l-3.5-0.3L420,293.9z"/>
                <path
                    d="M419.5,321.1l-5.7-1.5l1.5-5.7l5.7,1.5L419.5,321.1z M415.2,318.7l3.4,0.9l0.9-3.4l-3.4-0.9L415.2,318.7z"/>
                <path
                    d="M410.1,345.4l-5.4-2.5l2.5-5.4l5.4,2.5L410.1,345.4z M406.3,342.3l3.2,1.5l1.5-3.2l-3.2-1.5L406.3,342.3z"/>
                <path d="M396.6,367.7l-4.9-3.4l3.4-4.9l4.9,3.4L396.6,367.7z M393.4,364l2.9,2l2-2.9l-2.9-2L393.4,364z"/>
                <path
                    d="M127.1,295.2l-0.5-5.9l5.9-0.5l0.5,5.9L127.1,295.2z M127.8,290.4l0.3,3.5l3.5-0.3l-0.3-3.5L127.8,290.4z"/>
            </g>
        </g>
    </g>
    <script xlink:href="https://cdnjs.cloudflare.com/ajax/libs/gsap/1.19.0/TweenMax.min.js"></script>
    <script type="application/ecmascript">
        <![CDATA[
            var timeline = new TimelineMax({onComplete:onComplete});

            timeline.addLabel("time_track1", 0.25);
            timeline.addLabel("time_track2", 1.75);
            timeline.addLabel("time_track3", 2.75);
            timeline.addLabel("time_track4", 6.25);
            timeline.addLabel("time_track5", 10.25);
            timeline.addLabel("time_track6", 13.25);

            timeline.set("svg", {opacity:1});

            var tweens = TweenMax.staggerTo(".rayLine",1000,{ease:Linear.easeNone,repeat:-1,"stroke-dashoffset":20000}, .35);

            for(var i=0;i<tweens.length;i++){
                var tween = tweens[i];
                tween.progress(Math.random()+0.5);
                tween.timeScale(Math.random()+0.5);
            }


            timeline.from("#rotation", 80, {rotation:360, transformOrigin:"center", ease:Linear.easeNone, repeat:-1}, "time_track1");

            timeline.from(".mainLine", .45, {ease:Linear.easeNone,"stroke-dashoffset":106}, "time_track1");
            timeline.from(".topLine", .65, {ease:Linear.easeNone,"stroke-dashoffset":100}, "time_track1+=.25");
            timeline.from(".bottomLine", .65, {ease:Linear.easeNone,"stroke-dashoffset":100}, "time_track1+=.25");
            timeline.from(".mainLineEnd", .15, {ease:Power2.easeOut, scale:.0001, transformOrigin:"center", repeat:-1, yoyo:true, repeatDelay:.25}, "time_track1+=.4");
            timeline.from(".topLineEnd", .15, {ease:Power2.easeOut, scale:.0001, transformOrigin:"center", repeat:-1, yoyo:true, repeatDelay:.5}, "time_track1+=.35");
            timeline.from(".bottomLineEnd", .15, {ease:Power2.easeOut, scale:.0001, transformOrigin:"center", repeat:-1, yoyo:true, repeatDelay:.75}, "time_track1+=.3");
            timeline.from(".largeBurst", .15, {ease:Power2.easeOut, scale:.0001, transformOrigin:"center", repeat:-1, yoyo:true, repeatDelay:.5}, "time_track1+=.3");
            timeline.from(".smallBurst", .15, {ease:Power2.easeOut, scale:.0001, transformOrigin:"center", repeat:-1, yoyo:true, repeatDelay:.25}, "time_track1+=.3");

            timeline.staggerFromTo(".dashedOutsideLines", 200, {ease:Linear.easeNone,repeat:-1,"stroke-dashoffset":0}, {ease:Linear.easeNone,repeat:-1,"stroke-dashoffset":6000},.2, "time_track1");

            timeline.from("#innerHouseRotationPoint, .ventCircle", 80, {rotation:-360, transformOrigin:"center", ease:Linear.easeNone, repeat:-1}, "time_track1");

            timeline.fromTo(".innerRing", 20, {ease:Linear.easeNone,repeat:-1,"stroke-dashoffset":0}, {ease:Linear.easeNone,repeat:-1,"stroke-dashoffset":300}, "time_track1");
            timeline.fromTo(".dashedBreathLine", 200, {ease:Linear.easeNone,repeat:-1,"stroke-dashoffset":0}, {ease:Linear.easeNone,repeat:-1,"stroke-dashoffset":3000}, "time_track1");
            timeline.staggerFrom(".breathLines1 path", .5, {scale:.0001, ease:Power2.easeInOut, transformOrigin:"center", yoyo:true, repeat:-1, repeatDelay:.5},.1, "time_track1");
            timeline.staggerFrom(".breathLines2 path", .5, {scale:.0001, ease:Power2.easeInOut, transformOrigin:"center", yoyo:true, repeat:-1, repeatDelay:.5},.1, "time_track1");
            timeline.from("#innerHouseRing", 2, {rotation:20, transformOrigin:"center", ease:Power2.easeInOut, repeat:-1, yoyo:true}, "time_track1");

            timeline.staggerFrom(".floatingCenter", .25, {scale:.0001, transformOrigin:"center", ease:Linear.easeNone, yoyo:true, repeat:-1, repeatDelay:.35}, .5, "time_track1");
            timeline.fromTo(".floatingCenterDash", 50, {ease:Linear.easeNone,repeat:-1,"stroke-dashoffset":0}, {ease:Linear.easeNone,repeat:-1,"stroke-dashoffset":1000}, "time_track1");


            var isComplete=true;
            function onComplete(){
                isComplete=true;
            }
        ]]>
    </script>
</svg>
