<svg style="margin:0; overflow:hidden" xmlns="http://www.w3.org/2000/svg"
     xmlns:xlink="http://www.w3.org/1999/xlink" viewBox="0 0 600 600" overflow="hidden" width="559.4" height="559.4">
    <defs>
        <clipPath id="anchorMask">
            <path class="anchorPlaneMask" fill="none" stroke="#01244A" stroke-width="1.582"
                  d="M341,271.5c-10.8,8.9-24.7,14.2-39.7,14.1 c-8.1,0-15.9-1.6-23-4.5 M361.6,207c-4.5-16.4-15.5-30.1-30.1-38.2c-5.7-3.1-11.9-5.4-18.5-6.6 M250.9,187.3 c-7.2,10.1-11.4,22.4-11.5,35.7c0,1.1,0,1.6,0,2.6 M168,91.3v-3.2 M170.5,91.3v-3.2 M173.1,91.3v-3.2 M175.6,91.3v-3.2 M178.1,91.3 v-3.2 M180.6,91.3v-3.2 M183.1,91.3v-3.2 M185.7,91.3v-3.2 M188.2,91.3v-3.2 M190.7,91.3v-3.2 M193.2,91.3v-3.2 M168,122.6v-3.2 M170.5,122.6v-3.2 M173.1,122.6v-3.2 M175.6,122.6v-3.2 M178.1,122.6v-3.2 M180.6,122.6v-3.2 M183.1,122.6v-3.2 M185.7,122.6v-3.2 M188.2,122.6v-3.2 M190.7,122.6v-3.2 M193.2,122.6v-3.2 M194.7,92.8h3.2 M194.7,95.3h3.2 M194.7,97.8h3.2 M194.7,100.3h3.2 M194.7,102.9h3.2 M194.7,105.4h3.2 M194.7,107.9h3.2 M194.7,110.4h3.2 M194.7,112.9h3.2 M194.7,115.4h3.2 M151.2,92.8h15.3 M154.2,95.3h12.3 M154.2,97.8h12.3 M154.2,100.3h12.3 M154.2,102.9h12.3 M154.2,105.4h12.3 M151.2,107.9h15.3 M149.2,110.4h17.3 M147.6,112.9h18.9 M147.6,115.4h18.9 M147.6,118h18.9 M438.1,91.3v-3.2 M435.6,91.3v-3.2 M433.1,91.3v-3.2 M430.6,91.3v-3.2 M428.1,91.3v-3.2 M425.6,91.3v-3.2 M423,91.3v-3.2 M420.5,91.3v-3.2 M418,91.3v-3.2 M415.5,91.3v-3.2 M413,91.3v-3.2 M438.1,122.6 v-3.2 M435.6,122.6v-3.2 M433.1,122.6v-3.2 M430.6,122.6v-3.2 M428.1,122.6v-3.2 M425.6,122.6v-3.2 M423,122.6v-3.2 M420.5,122.6 v-3.2 M418,122.6v-3.2 M415.5,122.6v-3.2 M413,122.6v-3.2 M408.3,92.8h3.2 M411.4,95.3h-3.2 M408.3,97.8h3.2 M408.3,100.3h3.2 M408.3,102.9h3.2 M411.4,105.4h-3.2 M411.4,107.9h-3.2 M408.3,110.4h3.2 M408.3,112.9h3.2 M411.4,115.4h-3.2 M411.4,118h-3.2 M454.9,92.8h-15.3 M452,95.3h-12.3 M452,97.8h-12.3 M452,100.3h-12.3 M452,102.9h-12.3 M452,105.4h-12.3 M454.9,107.9h-15.3 M457,110.4h-17.3 M458.5,112.9h-18.9 M458.5,115.4h-18.9 M458.5,118h-18.9 M387.8,122.5h88.1 M215.2,122.5H127 M273.8,224.2v34.2 h19.4v-22.5h16.5v22.5h19.7v-34.2 M340.3,225.4l-38.8-38.8l-38.8,38.8H119.5 M313,137.7v52.2h13V203 M329.4,258.4l60.5,60.9 M147.2,122.4v-10.1l7-7v-10l-8-8 M460,87.4l-8,8v10l7,7v10.1 M222.9,316.5v9.9c0,1.5,0.6,3,1.7,4.1l73,73c2.3,2.3,5.9,2.3,8.2,0 l146.6-146.6c1.1-1.1,1.7-2.5,1.7-4.1V243c0-1.5,0.6-3,1.7-4.1l34.3-34.3c1.1-1.1,2.5-1.7,4.1-1.7h9.7c1.5,0,3-0.6,4.1-1.7 l57.2-57.2c3.6-3.6,1.1-9.8-4.1-9.8h-86.2c-3.9,0-5.9-4.7-3.1-7.5l25-25c5.3-5.3,1.5-14.3-5.9-14.3h-150c-1.5,0-3,0.6-4.1,1.7 l-6.9,6.9c-1.1,1.1-2.5,1.7-4.1,1.7h-48.6c-1.5,0-3-0.6-4.1-1.7l-6.9-6.9c-1.1-1.1-2.5-1.7-4.1-1.7H106.1c-5.1,0-7.7,6.2-4.1,9.8 l27.2,27.2c3.6,3.6,1.1,9.8-4.1,9.8H42.3c-5.1,0-7.7,6.2-4.1,9.8l131.4,131.4c1.1,1.1,2.5,1.7,4.1,1.7h9.9c1.5,0,3,0.6,4.1,1.7 l33.6,33.6C222.3,313.5,222.9,315,222.9,316.5z M197.9,105.4h64.3c1.4,0,2.7,0.6,3.7,1.5l31.7,31.7c2.3,2.3,5.9,2.3,8.2,0 l31.7-31.7c1-1,2.3-1.5,3.7-1.5h67.1 M194.7,118h3.2"/>
        </clipPath>
        <clipPath id="maskPathLeft">
            <path class="leftMask" fill="none" stroke="#09B9B3" stroke-width="1.582"
                  d="M102.1,254.9l26.8,26.8l-10.9,10.9l-26.8-26.8 L102.1,254.9z"/>
        </clipPath>
        <clipPath id="maskPathRight">
            <path class="rightMask" fill="#FFF" stroke="#09B9B3" stroke-width="1.582"
                  d="M511.3,265.8l-26.8,26.8l-10.9-10.9l26.8-26.8 L511.3,265.8z"/>
        </clipPath>
    </defs>
    <g class="plane">
        <g>
            <path class="rayLine" fill="none" stroke="#01244A" stroke-width="1.582"
                  d="M510.1,229.5H558c9.2,0,13.8,11.1,7.3,17.7 l-257,257c-4,4-10.6,4-14.6,0l-257-257c-6.5-6.5-1.9-17.7,7.3-17.7h48.2"/>
            <path fill="none" stroke="#09B9B3" stroke-width="1.582"
                  d="M135,270.3c0,0-19.9-19.9-25.6-25.6 c-1-1-2.3-1.5-3.7-1.5H68c-6,0-9.1,7.3-4.8,11.6l232.9,232.9c2.6,2.6,6.9,2.6,9.6,0l232.9-232.9c4.3-4.3,1.2-11.6-4.8-11.6l-36.1,0 c-1.4,0-2.7,0.6-3.7,1.5l-25.6,25.6"/>
            <g>
                <circle cx="199.3" cy="365.4" r="1.7" fill="#09B9B3"/>
                <circle cx="193.3" cy="359.4" r="1.7" fill="#01244A"/>
                <circle cx="187.2" cy="353.4" r="1.7" fill="#09B9B3"/>
                <circle cx="181.2" cy="347.4" r="1.7" fill="#01244A"/>
                <circle cx="175.2" cy="341.3" r="1.7" fill="#09B9B3"/>
                <circle cx="401.1" cy="365.4" r="1.7" fill="#09B9B3"/>
                <circle cx="407.1" cy="359.4" r="1.7" fill="#01244A"/>
                <circle cx="413.1" cy="353.4" r="1.7" fill="#09B9B3"/>
                <circle cx="419.2" cy="347.4" r="1.7" fill="#01244A"/>
                <circle cx="425.2" cy="341.3" r="1.7" fill="#09B9B3"/>
            </g>
            <g class="dashedBreathLine">
                <g fill="none" stroke="#09B9B3" stroke-width="1.582">
                    <line x1="508" x2="507" y1="258.4" y2="259.3"/>
                    <line x1="505.2" x2="439.4" y1="261.2" y2="327" stroke-dasharray="2.6229,2.6229"/>
                    <polyline points="438.4,327.9 437.5,328.9 436.2,328.9"/>
                    <line x1="433.6" x2="424.4" y1="328.8" y2="328.8" stroke-dasharray="2.6174,2.6174"/>
                    <polyline points="423.1,328.8 421.8,328.8 420.8,329.7"/>
                    <line x1="419" x2="342.7" y1="331.5" y2="407.8" stroke-dasharray="2.6009,2.6009"/>
                    <line x1="341.8" x2="340.8" y1="408.8" y2="409.7"/>
                </g>
            </g>
            <g class="dashedBreathLine">
                <g fill="none" stroke="#09B9B3" stroke-width="1.582">
                    <line x1="95.1" x2="96" y1="258.4" y2="259.3"/>
                    <line x1="97.9" x2="160.6" y1="261.3" y2="326.9" stroke-dasharray="2.7109,2.7109"/>
                    <polyline points="161.6,327.9 162.5,328.9 163.8,328.9"/>
                    <line x1="166.4" x2="175.6" y1="328.8" y2="328.8" stroke-dasharray="2.6174,2.6174"/>
                    <polyline points="176.9,328.8 178.2,328.8 179.1,329.7"/>
                    <line x1="181" x2="257.3" y1="331.5" y2="407.8" stroke-dasharray="2.6009,2.6009"/>
                    <line x1="258.2" x2="259.1" y1="408.8" y2="409.7"/>
                </g>
            </g>
            <g stroke-width="1.582">
                <line x1="340.2" x2="358.8" y1="410.3" y2="391.7" fill="none" stroke="#01244A"/>
                <g fill="#FFFFFF">
                    <rect width="6.3" height="6.3" x="337" y="407.1" stroke="#09B9B3"
                          transform="rotate(-134.999 340.194 410.289)"/>
                    <rect width="6.3" height="6.3" x="346.1" y="398.1" stroke="#01244A"
                          transform="rotate(-134.999 349.255 401.228)"/>
                    <rect width="6.3" height="6.3" x="355.2" y="389" stroke="#09B9B3"
                          transform="rotate(-134.999 358.315 392.167)"/>
                </g>
            </g>
            <g stroke-width="1.582">
                <line x1="259.8" x2="241.2" y1="410.3" y2="391.7" fill="none" stroke="#01244A"/>
                <g fill="#FFFFFF">
                    <rect width="6.3" height="6.3" x="256.6" y="407.1" stroke="#09B9B3"
                          transform="rotate(-45.001 259.766 410.29)"/>
                    <rect width="6.3" height="6.3" x="247.6" y="398.1" stroke="#01244A"
                          transform="rotate(-45.001 250.706 401.23)"/>
                    <rect width="6.3" height="6.3" x="238.5" y="389" stroke="#09B9B3"
                          transform="rotate(-45.001 241.645 392.17)"/>
                </g>
            </g>
            <path class="rayLine" stroke-dasharray="90 60 100 80 20 70 40 100 200 80" fill="none" stroke="#09B9B3"
                  stroke-width="1.582"
                  d="M65.9,207.3H35.5 c-9.4,0-18.1,4.3-23.7,11.4l-3,4.5c-0.5,0.9-1,1.9-1.4,2.9c-1.6,3.8-2.3,7.8-2.3,11.7l0.4,4.8c0.3,1.9,0.8,3.8,1.5,5.6 c1,2.8,2.7,5.3,4.7,7.4L278.5,527c2.8,2.8,6.1,5.1,9.9,6.6c1,0.4,2,0.8,3.1,1.1l5.2,1.1c9,1,18.2-2.1,24.8-8.7l268.9-271.4 c1.6-1.7,3-3.7,3.9-5.9c0.9-2.2,1.6-4.5,1.9-6.8l0.4-4.8c0-3.9-0.8-7.9-2.3-11.7c-0.4-1-0.9-2-1.4-2.9l-3-4.5 c-5.7-7.1-14.3-11.4-23.7-11.4H536"/>
        </g>
        <g id="techLineBurstClass" stroke-width="1.582">
            <g id="techLineBurst">
                <line class="mainLine" x1="168.4" x2="135" y1="303.7" y2="270.3" fill="none" stroke="#09B9B3"/>
                <polyline class="bottomLine" fill="none" stroke="#09B9B3"
                          points="156.7,302.5 151.8,297.6 146.6,292.4 146.5,287.4 146.4,281.7"/>
                <polyline class="topLine" fill="none" stroke="#09B9B3"
                          points="171.5,296.1 166.6,291.2 161.4,286 156.4,286.1 150.8,286.1"/>
                <circle class="bottomLineEnd" cx="156.2" cy="302.1" r="2.1" fill="#FFFFFF" stroke="#EF442E"/>
                <circle class="topLineEnd" cx="171.7" cy="296.5" r="2.1" fill="#FFFFFF" stroke="#EF442E"/>
                <circle class="mainLineEnd" cx="169.6" cy="305.1" r="2.1" fill="#FFFFFF" stroke="#EF442E"/>
            </g>
            <g id="techLineBurst">
                <polyline class="bottomLine" fill="none" stroke="#09B9B3"
                          points="457,281.7 456.9,287.4 456.9,292.4 451.6,297.6 446.7,302.5"/>
                <polyline class="topLine" fill="none" stroke="#09B9B3"
                          points="452.6,286.1 447,286.1 442,286 436.8,291.2 431.9,296.1"/>
                <line class="mainLine" x1="468.4" x2="435" y1="270.3" y2="303.7" fill="none" stroke="#09B9B3"/>
                <circle class="bottomLineEnd" cx="447.2" cy="302.1" r="2.1" fill="#FFFFFF" stroke="#EF442E"/>
                <circle class="topLineEnd" cx="431.7" cy="296.5" r="2.1" fill="#FFFFFF" stroke="#EF442E"/>
                <circle class="mainLineEnd" cx="433.8" cy="305.1" r="2.1" fill="#FFFFFF" stroke="#EF442E"/>
            </g>
        </g>
        <g id="sliderMask">
            <path fill="#FFF" class="leftMask" stroke="#09B9B3" stroke-width="1.582"
                  d="M102.1,254.9l26.8,26.8l-10.9,10.9l-26.8-26.8 L102.1,254.9z"/>
            <g>
                <g clip-path="url(#maskPathLeft)">
                    <g fill="none" stroke="#022166" stroke-dashoffset="100" stroke-width="23.37">
                        <line x1="94.6" x2="95.2" y1="257.9" y2="258.5"/>
                        <line x1="100.7" x2="157.6" y1="264.1" y2="322.7" stroke-dasharray="1.6442,7.8715"/>
                        <line x1="160.4" x2="160.9" y1="325.5" y2="326.1"/>
                    </g>
                    <g fill="none" stroke="#09B9B3" stroke-width="23.37">
                        <line x1="94.6" x2="95.2" y1="257.9" y2="258.5"/>
                        <line x1="100.7" x2="157.6" y1="264.1" y2="322.7" stroke-dasharray="1.6442,7.8715"/>
                        <line x1="160.4" x2="160.9" y1="325.5" y2="326.1"/>
                    </g>
                </g>
            </g>

        </g>
        <g>
            <path class="rightMask" fill="#FFF" stroke="#09B9B3" stroke-width="1.582"
                  d="M511.3,265.8l-26.8,26.8l-10.9-10.9l26.8-26.8 L511.3,265.8z"/>
            <g clip-path="url(#maskPathRight)">
                <g fill="none" stroke="#022166" stroke-dashoffset="100" stroke-width="23.37">
                    <line x1="507.9" x2="507.4" y1="257.9" y2="258.5"/>
                    <line x1="501.9" x2="444.9" y1="264.1" y2="322.7" stroke-dasharray="1.6442,7.8715"/>
                    <line x1="442.2" x2="441.6" y1="325.5" y2="326.1"/>
                </g>
                <g fill="none" stroke="#09B9B3" stroke-width="23.37">
                    <line x1="507.9" x2="507.4" y1="257.9" y2="258.5"/>
                    <line x1="501.9" x2="444.9" y1="264.1" y2="322.7" stroke-dasharray="1.6442,7.8715"/>
                    <line x1="442.2" x2="441.6" y1="325.5" y2="326.1"/>
                </g>
            </g>
        </g>
    </g>
    <g class="plane">
        <g id="anchors" clip-path="url(#anchorMask)" stroke-width="1.582">
            <g class="rightAnchor">
                <line x1="544.7" x2="513.8" y1="134.4" y2="165.2" fill="none" stroke="#09B9B3"/>
                <circle cx="512.1" cy="167.1" r="3.5" fill="#FFFFFF" stroke="#01244A"/>
            </g>
            <g class="rightAnchor">
                <line x1="525.3" x2="504.8" y1="134.4" y2="154.9" fill="none" stroke="#01244A"/>
                <circle cx="502.2" cy="157.2" r="3.5" fill="#FFFFFF" stroke="#09B9B3"/>
            </g>
            <g class="rightAnchor">
                <line x1="506" x2="495.3" y1="134.4" y2="145.1" fill="none" stroke="#09B9B3"/>
                <circle cx="492.4" cy="147.4" r="3.5" fill="#FFFFFF" stroke="#01244A"/>
            </g>
            <g class="leftAnchor">
                <line x1="58.5" x2="89.3" y1="134.4" y2="165.2" fill="none" stroke="#09B9B3"/>
                <circle cx="91" cy="167.1" r="3.5" fill="#FFFFFF" stroke="#01244A"/>
            </g>
            <g class="leftAnchor">
                <line x1="77.8" x2="98.4" y1="134.4" y2="154.9" fill="none" stroke="#01244A"/>
                <circle cx="101" cy="157.2" r="3.5" fill="#FFFFFF" stroke="#09B9B3"/>
            </g>
            <g class="leftAnchor">
                <line x1="97.1" x2="107.9" y1="134.4" y2="145.1" fill="none" stroke="#09B9B3"/>
                <circle cx="110.8" cy="147.4" r="3.5" fill="#FFFFFF" stroke="#01244A"/>
            </g>
        </g>
        <g fill="none" stroke="#09B9B3" stroke-width="1.582" stroke-dashoffset="0">
            <line class="rayLine" x1="360.4" x2="397.1" y1="290.2" y2="253.5"
                  stroke-dasharray="35.9851,1.894,5.6819,0.947,2.8409"/>
            <line class="rayLine" x1="366.5" x2="399.6" y1="296.3" y2="263.3" stroke-dasharray="28.4093,1.894,11.3637"/>
            <line class="rayLine" x1="372.2" x2="399" y1="302" y2="275.3" stroke-dasharray="30.3032,1.894,1.894"/>
            <line class="rayLine" x1="175.6" x2="212" y1="225.2" y2="261.7"
                  stroke-dasharray="35.9851,1.894,5.6819,0.947,2.8409"/>
            <line class="rayLine" x1="163.5" x2="196.5" y1="225.5" y2="258.5" stroke-dasharray="28.4093,1.894,11.3637"/>
            <line class="rayLine" x1="152.1" x2="178.9" y1="225.5" y2="252.2" stroke-dasharray="30.3032,1.894,1.894"/>
            <line class="rayLine" x1="307.1" x2="343.1" y1="137" y2="137" stroke-dasharray="30.3032,1.894,1.894"/>
            <line class="rayLine" x1="315.8" x2="355.7" y1="129" y2="129" stroke-dasharray="22.7274,2.8409,11.3637"/>
            <line class="rayLine" x1="324.4" x2="365.9" y1="120.1" y2="120.1"
                  stroke-dasharray="25.5684,1.894,5.6819,0.947,1.894"/>
            <line class="rayLine" x1="296.1" x2="260.2" y1="137" y2="137" stroke-dasharray="30.3032,1.894,1.894"/>
            <line class="rayLine" x1="287.5" x2="247.6" y1="129" y2="129" stroke-dasharray="22.7274,2.8409,11.3637"/>
            <line class="rayLine" x1="278.9" x2="237.3" y1="120.1" y2="120.1"
                  stroke-dasharray="25.5684,1.894,5.6819,0.947,1.894"/>
        </g>
        <g>
            <line x1="319" x2="326.3" y1="390.1" y2="348.6" fill="none" stroke="#09B9B3" stroke-width="1.582"/>
            <line x1="284.4" x2="277" y1="390.1" y2="348.6" fill="none" stroke="#09B9B3" stroke-width="1.582"/>
            <circle cx="275.7" cy="343.5" r="5.1" fill="#FFFFFF" stroke="#01244A" stroke-width="1.582"/>
            <circle cx="327.3" cy="343.5" r="5.1" fill="#FFFFFF" stroke="#01244A" stroke-width="1.582"/>
            <g id="techLineBurst" stroke-width="1.582">
                <polyline class="mainLine" fill="none" stroke="#09B9B3" points="301.7,457.1 301.7,428.5 301.7,404.9"/>
                <polyline class="bottomLine" fill="none" stroke="#09B9B3"
                          points="301.7,426 305.7,430 309.1,433.6 309.1,441 309.1,447.9"/>
                <polyline class="topLine" fill="none" stroke="#09B9B3"
                          points="301.7,432.2 297.7,436.1 294.1,439.6 294.1,447 294.1,453.9"/>
                <circle class="bottomLineEnd" cx="309.2" cy="447.3" r="2.1" fill="#FFFFFF" stroke="#EF442E"/>
                <circle class="topLineEnd" cx="294.3" cy="454.3" r="2.1" fill="#FFFFFF" stroke="#EF442E"/>
                <circle class="mainLineEnd" cx="301.9" cy="458.9" r="2.1" fill="#FFFFFF" stroke="#EF442E"/>
            </g>
            <path fill="none" stroke="#01244A" stroke-width="1.582"
                  d="M341,271.5c-10.8,8.9-24.7,14.2-39.7,14.1 c-8.1,0-15.9-1.6-23-4.5 M361.6,207c-4.5-16.4-15.5-30.1-30.1-38.2c-5.7-3.1-11.9-5.4-18.5-6.6 M250.9,187.3 c-7.2,10.1-11.4,22.4-11.5,35.7c0,1.1,0,1.6,0,2.6 M168,91.3v-3.2 M170.5,91.3v-3.2 M173.1,91.3v-3.2 M175.6,91.3v-3.2 M178.1,91.3 v-3.2 M180.6,91.3v-3.2 M183.1,91.3v-3.2 M185.7,91.3v-3.2 M188.2,91.3v-3.2 M190.7,91.3v-3.2 M193.2,91.3v-3.2 M168,122.6v-3.2 M170.5,122.6v-3.2 M173.1,122.6v-3.2 M175.6,122.6v-3.2 M178.1,122.6v-3.2 M180.6,122.6v-3.2 M183.1,122.6v-3.2 M185.7,122.6v-3.2 M188.2,122.6v-3.2 M190.7,122.6v-3.2 M193.2,122.6v-3.2 M194.7,92.8h3.2 M194.7,95.3h3.2 M194.7,97.8h3.2 M194.7,100.3h3.2 M194.7,102.9h3.2 M194.7,105.4h3.2 M194.7,107.9h3.2 M194.7,110.4h3.2 M194.7,112.9h3.2 M194.7,115.4h3.2 M151.2,92.8h15.3 M154.2,95.3h12.3 M154.2,97.8h12.3 M154.2,100.3h12.3 M154.2,102.9h12.3 M154.2,105.4h12.3 M151.2,107.9h15.3 M149.2,110.4h17.3 M147.6,112.9h18.9 M147.6,115.4h18.9 M147.6,118h18.9 M438.1,91.3v-3.2 M435.6,91.3v-3.2 M433.1,91.3v-3.2 M430.6,91.3v-3.2 M428.1,91.3v-3.2 M425.6,91.3v-3.2 M423,91.3v-3.2 M420.5,91.3v-3.2 M418,91.3v-3.2 M415.5,91.3v-3.2 M413,91.3v-3.2 M438.1,122.6 v-3.2 M435.6,122.6v-3.2 M433.1,122.6v-3.2 M430.6,122.6v-3.2 M428.1,122.6v-3.2 M425.6,122.6v-3.2 M423,122.6v-3.2 M420.5,122.6 v-3.2 M418,122.6v-3.2 M415.5,122.6v-3.2 M413,122.6v-3.2 M408.3,92.8h3.2 M411.4,95.3h-3.2 M408.3,97.8h3.2 M408.3,100.3h3.2 M408.3,102.9h3.2 M411.4,105.4h-3.2 M411.4,107.9h-3.2 M408.3,110.4h3.2 M408.3,112.9h3.2 M411.4,115.4h-3.2 M411.4,118h-3.2 M454.9,92.8h-15.3 M452,95.3h-12.3 M452,97.8h-12.3 M452,100.3h-12.3 M452,102.9h-12.3 M452,105.4h-12.3 M454.9,107.9h-15.3 M457,110.4h-17.3 M458.5,112.9h-18.9 M458.5,115.4h-18.9 M458.5,118h-18.9 M387.8,122.5h88.1 M215.2,122.5H127 M273.8,224.2v34.2 h19.4v-22.5h16.5v22.5h19.7v-34.2 M340.3,225.4l-38.8-38.8l-38.8,38.8H119.5 M313,131.3v58.6h13V203 M329.4,258.4l60.5,60.9 M147.2,122.4v-10.1l7-7v-10l-8-8 M460,87.4l-8,8v10l7,7v10.1 M222.9,316.5v9.9c0,1.5,0.6,3,1.7,4.1l73,73c2.3,2.3,5.9,2.3,8.2,0 l146.6-146.6c1.1-1.1,1.7-2.5,1.7-4.1V243c0-1.5,0.6-3,1.7-4.1l34.3-34.3c1.1-1.1,2.5-1.7,4.1-1.7h9.7c1.5,0,3-0.6,4.1-1.7 l57.2-57.2c3.6-3.6,1.1-9.8-4.1-9.8h-86.2c-3.9,0-5.9-4.7-3.1-7.5l25-25c5.3-5.3,1.5-14.3-5.9-14.3h-150c-1.5,0-3,0.6-4.1,1.7 l-6.9,6.9c-1.1,1.1-2.5,1.7-4.1,1.7h-48.6c-1.5,0-3-0.6-4.1-1.7l-6.9-6.9c-1.1-1.1-2.5-1.7-4.1-1.7H106.1c-5.1,0-7.7,6.2-4.1,9.8 l27.2,27.2c3.6,3.6,1.1,9.8-4.1,9.8H42.3c-5.1,0-7.7,6.2-4.1,9.8l131.4,131.4c1.1,1.1,2.5,1.7,4.1,1.7h9.9c1.5,0,3,0.6,4.1,1.7 l33.6,33.6C222.3,313.5,222.9,315,222.9,316.5z M197.9,105.4h64.3c1.4,0,2.7,0.6,3.7,1.5l31.7,31.7c2.3,2.3,5.9,2.3,8.2,0 l31.7-31.7c1-1,2.3-1.5,3.7-1.5h67.1 M194.7,118h3.2"/>
            <circle class="colorChangeCircle1" cx="180.6" cy="105.2" r="10.9" fill="#FFFFFF" stroke="#01244A"
                    stroke-width=".947"/>
            <circle class="colorChangeCircle2" cx="425.6" cy="105.2" r="10.9" fill="#FFFFFF" stroke="#01244A"
                    stroke-width="1.582"/>
            <polygon fill="none" stroke="#09B9B3" stroke-linecap="round" stroke-linejoin="round" stroke-width="1.582"
                     points="377.1,122.4 382.5,119.3 387.8,116.2 387.8,122.4 387.8,128.6 382.5,125.5"/>
            <polygon fill="none" stroke="#09B9B3" stroke-linecap="round" stroke-linejoin="round" stroke-width="1.582"
                     points="226.3,122.4 221,119.3 215.6,116.2 215.6,122.4 215.6,128.6 221,125.5"/>
            <rect width="27.2" height="27.2" x="167" y="91.7" fill="none" stroke="#09B9B3" stroke-width="1.582"/>
            <rect width="27.2" height="27.2" x="412" y="91.7" fill="none" stroke="#09B9B3" stroke-width="1.582"
                  transform="rotate(-180 425.571 105.247)"/>
            <path class="dashedBreathLine" fill="none" stroke="#09B9B3" stroke-dasharray="2.637" stroke-width="1.582"
                  d="M321.5,375.5 l-16.3,16.3c-2.1,2.1-5.4,2.1-7.4,0l-16.3-16.3"/>
            <polyline class="mainLine" fill="none" stroke="#09B9B3" stroke-width="1.582"
                      points="153.5,101.3 139,101.3 121.4,101.3"/>
            <polyline class="topLine" fill="none" stroke="#09B9B3" stroke-width="1.582"
                      points="128.6,95.5 134,95.5 139.7,95.5 142.5,98.2 145.7,101.3"/>
            <polyline class="bottomLine" fill="none" stroke="#09B9B3" stroke-width="1.582"
                      points="123.9,107.2 129.3,107.2 135.1,107.2 137.8,104.4 140.9,101.2"/>
            <polyline class="mainLine" fill="none" stroke="#09B9B3" stroke-width="1.582"
                      points="484.7,101.3 467.1,101.3 452.6,101.3"/>
            <polyline class="topLine" fill="none" stroke="#09B9B3" stroke-width="1.582"
                      points="460.5,101.3 463.6,98.2 466.4,95.5 472.2,95.5 477.6,95.5"/>
            <polyline class="bottomLine" fill="none" stroke="#09B9B3" stroke-dashoffset="0" stroke-dasharray="100,20"
                      stroke-width="1.582" points="465.3,101.2 468.4,104.4 471.1,107.2 476.9,107.2 482.3,107.2"/>
            <g fill="none" stroke-width="1.582">
                <rect width="6.3" height="6.3" x="201" y="277.7" stroke="#09B9B3"
                      transform="rotate(-45.001 204.151 280.895)"/>
                <rect width="6.3" height="6.3" x="210.1" y="286.8" stroke="#01244A"
                      transform="rotate(-45.001 213.212 289.956)"/>
                <rect width="6.3" height="6.3" x="219.1" y="295.9" stroke="#09B9B3"
                      transform="rotate(-45.001 222.272 299.017)"/>
            </g>
            <g fill="none" stroke-width="1.582">
                <rect width="6.3" height="6.3" x="451.7" y="221.8" stroke="#09B9B3"
                      transform="rotate(-134.999 454.839 224.994)"/>
                <rect width="6.3" height="6.3" x="460.7" y="212.8" stroke="#01244A"
                      transform="rotate(-134.999 463.9 215.933)"/>
                <rect width="6.3" height="6.3" x="469.8" y="203.7" stroke="#09B9B3"
                      transform="rotate(-134.999 472.96 206.873)"/>
            </g>
            <g class="dashedBreathLine">
                <g fill="none" stroke="#09B9B3" stroke-width="1.582">
                    <line x1="136.6" x2="137.6" y1="226.4" y2="227.3"/>
                    <line x1="139.4" x2="175.2" y1="229.2" y2="265" stroke-dasharray="2.5973,2.5973"/>
                    <polyline points="176.1,265.9 177.1,266.8 178.4,266.8"/>
                    <polyline stroke-dasharray="2.4911,2.4911" points="180.9,266.8 191.1,266.8 200.6,276.4"/>
                    <line x1="201.5" x2="202.4" y1="277.2" y2="278.2"/>
                </g>
            </g>
            <g class="dashedBreathLine">
                <g fill="none" stroke="#09B9B3" stroke-width="1.582">
                    <line x1="383.1" x2="384" y1="311.3" y2="310.3"/>
                    <polyline stroke-dasharray="2.6858,2.6858" points="385.9,308.4 444.4,249.8 444.4,237.3"/>
                    <polyline points="444.4,235.9 444.4,234.6 445.4,233.7"/>
                    <line x1="447.2" x2="449.9" y1="231.9" y2="229.3" stroke-dasharray="2.5236,2.5236"/>
                    <line x1="450.8" x2="451.7" y1="228.4" y2="227.5"/>
                </g>
            </g>
            <line x1="274.1" x2="329.1" y1="103.2" y2="103.2" fill="#FFFFFF" stroke="#01244A" stroke-width="1.582"/>
            <g fill="#FFFFFF" stroke="#01244A" stroke-width="1.582">
                <line x1="273.1" x2="299.4" y1="105.5" y2="132.2"/>
                <line x1="330.1" x2="303.7" y1="105.5" y2="132.2"/>
            </g>
            <circle cx="301.6" cy="133.8" r="2.3" fill="#FFFFFF" stroke="#EF442E" stroke-width="1.582"/>
            <g fill="#FFFFFF" stroke="#EF442E" stroke-width="1.582">
                <circle cx="331.4" cy="103.2" r="2.3"/>
                <circle cx="271.8" cy="103.2" r="2.3"/>
            </g>
            <circle cx="250.9" cy="187.2" r="2.4" fill="#09B9B3"/>
            <circle cx="277.3" cy="280.4" r="2.4" fill="#09B9B3"/>
            <circle cx="361.6" cy="206.9" r="2.4" fill="#09B9B3"/>
            <circle class="topLineEnd" cx="129" cy="95.4" r="1.6" fill="#FFFFFF" stroke="#EF442E" stroke-width="1.582"/>
            <circle class="bottomLineEnd" cx="123.6" cy="107.1" r="1.6" fill="#FFFFFF" stroke="#EF442E"
                    stroke-width="1.582"/>
            <circle class="mainLineEnd" cx="120" cy="101.2" r="1.6" fill="#FFFFFF" stroke="#EF442E"
                    stroke-width="1.582"/>
            <circle class="topLineEnd" cx="477.1" cy="95.4" r="1.6" fill="#FFFFFF" stroke="#EF442E"
                    stroke-width="1.582"/>
            <circle class="bottomLineEnd" cx="482.6" cy="107.1" r="1.6" fill="#FFFFFF" stroke="#EF442E"
                    stroke-width="1.582"/>
            <circle class="mainLineEnd" cx="486.2" cy="101.2" r="1.6" fill="#FFFFFF" stroke="#EF442E"
                    stroke-width="1.582"/>
            <g class="largeBurst" fill="none" stroke="#01244A" stroke-dasharray="9,12" stroke-dashoffset="0"
               stroke-width="1.582">
                <line x1="284" x2="284" y1="421.2" y2="412.2"/>
                <line x1="284" x2="293" y1="421.2" y2="421.2"/>
                <line x1="284" x2="284" y1="421.2" y2="430.2"/>
                <line x1="284" x2="275" y1="421.2" y2="421.2"/>
            </g>
            <g class="smallBurst" fill="none" stroke="#01244A" stroke-dasharray="6,9" stroke-dashoffset="0"
               stroke-width="1.582">
                <line x1="326" x2="326" y1="436.2" y2="429.2"/>
                <line x1="326" x2="333" y1="436.2" y2="436.2"/>
                <line x1="326" x2="326" y1="436.2" y2="443.2"/>
                <line x1="326" x2="319" y1="436.2" y2="436.2"/>
            </g>
        </g>
        <g class="dashedBreathLine">
            <circle class="dashedBreathLineEnd" cx="262.8" cy="283.6" r="3.7" fill="#FFFFFF" stroke="#EF442E"
                    stroke-width="1.582"/>
            <circle class="dashedBreathLineEnd" cx="252.3" cy="172.5" r="3.7" fill="#FFFFFF" stroke="#EF442E"
                    stroke-width="1.582"/>
            <circle class="dashedBreathLineEnd" cx="373.2" cy="216.9" r="3.7" fill="#FFFFFF" stroke="#EF442E"
                    stroke-width="1.582"/>
            <path class="dashedBreathLine" fill="none" stroke="#09B9B3" stroke-width="2" stroke-dashoffset="0"
                  stroke-dasharray="6,9" d="M313,153.5 c30.6,4.8,54.8,29.1,59.4,59.8"/>
            <path class="dashedBreathLine" fill="none" stroke="#09B9B3" stroke-width="2" stroke-dashoffset="0"
                  stroke-dasharray="6,9" d="M230.4,224.1 c0-18.9,7.4-36.1,19.4-48.9"/>
            <path class="dashedBreathLine" fill="none" stroke="#09B9B3" stroke-width="2" stroke-dashoffset="0"
                  stroke-dasharray="6,9" d="M349.1,277.6 c-12.6,11.1-29.1,17.9-47.3,17.9c-12.9,0-25-3.4-35.4-9.4"/>
        </g>
        <g id="floatingDots">
            <circle class="floatingCenter" cx="301.5" cy="328.6" r="5.1" fill="#FFFFFF" stroke="#EF442E"
                    stroke-width="1.582"/>
            <g class="floatingCenterDash">
                <ellipse cx="301.5" cy="328.3" fill="none" stroke="#09B9B3" stroke-dasharray="2.6778,2.6778"
                         stroke-width="1.582" rx="11.9" ry="11.9" transform="rotate(-67.5 301.51 328.293)"/>
            </g>
            <circle class="floatingCenter" cx="486.3" cy="172.7" r="3.7" fill="#FFFFFF" stroke="#EF442E"
                    stroke-width="1.582"/>
            <g>
                <circle class="floatingCenterDash" cx="486.3" cy="172.5" r="8.6" fill="none" stroke="#09B9B3"
                        stroke-dasharray="2.6985,2.6985" stroke-width="1.582"/>
            </g>
            <circle class="floatingCenter" cx="116.8" cy="172.7" r="3.7" fill="#FFFFFF" stroke="#EF442E"
                    stroke-width="1.582"/>
            <g class="floatingCenterDash">
                <circle cx="116.8" cy="172.5" r="8.6" fill="none" stroke="#09B9B3" stroke-dasharray="2.6985,2.6985"
                        stroke-width="1.582"/>
            </g>
        </g>
        <g id="growingDots">
            <g id="rightGroup">
                <circle cx="446" cy="138.6" r="1.7" fill="#09B9B3"/>
                <circle cx="446" cy="130.1" r="1.7" fill="#09B9B3"/>
                <circle cx="435.9" cy="164.2" r="1.7" fill="#09B9B3"/>
                <circle cx="435.9" cy="155.7" r="1.7" fill="#09B9B3"/>
                <circle cx="435.9" cy="147.1" r="1.7" fill="#09B9B3"/>
                <circle cx="435.9" cy="138.6" r="1.7" fill="#09B9B3"/>
                <circle cx="435.9" cy="130.1" r="1.7" fill="#09B9B3"/>
                <circle cx="414.6" cy="164.2" r="1.7" fill="#09B9B3"/>
                <circle cx="414.6" cy="155.7" r="1.7" fill="#09B9B3"/>
                <circle cx="414.6" cy="147.1" r="1.7" fill="#09B9B3"/>
                <circle cx="414.6" cy="138.6" r="1.7" fill="#09B9B3"/>
                <circle cx="414.6" cy="130.1" r="1.7" fill="#09B9B3"/>
                <circle cx="404.4" cy="138.6" r="1.7" fill="#09B9B3"/>
                <circle cx="404.4" cy="130.1" r="1.7" fill="#09B9B3"/>
                <line class="keyLine" x1="425.7" x2="425.7" y1="122.5" y2="178" fill="none" stroke="#01244A"
                      stroke-width="1.582"/>
                <path class="key" fill="#FFFFFF" stroke="#01244A" stroke-width=".791"
                      d="M425.3,1130.5c-0.9,0-1.6,0.8-1.6,1.7c0,0.9,0.8,1.6,1.7,1.6c0.9,0,1.6-0.8,1.6-1.7C427,1131.1,426.2,1130.4,425.3,1130.5z M426.6,1132.1c0,0.7-0.5,1.2-1.1,1.2c-0.7,0-1.2-0.5-1.2-1.1c0-0.7,0.5-1.2,1.1-1.2C426,1130.9,426.5,1131.4,426.6,1132.1z M425.3,1130.5c-0.9,0-1.6,0.8-1.6,1.7c0,0.9,0.8,1.6,1.7,1.6c0.9,0,1.6-0.8,1.6-1.7C427,1131.1,426.2,1130.4,425.3,1130.5z M426.6,1132.1c0,0.7-0.5,1.2-1.1,1.2c-0.7,0-1.2-0.5-1.2-1.1c0-0.7,0.5-1.2,1.1-1.2C426,1130.9,426.5,1131.4,426.6,1132.1z M425.3,1128.6c-2.9,0.1-5.1,2.5-5.1,5.3c0,1.9,1.1,3.5,2.7,4.4l0.3,9.9c0,0.1,0,0.1,0.1,0.2l2.2,2.3c0.1,0.1,0.2,0.1,0.3,0 c0,0,0,0,0,0l2.5-3.4c0.1-0.1,0.1-0.2,0-0.3l-1.3-1.2l1.2-1.3c0.1-0.1,0.1-0.2,0-0.3c0,0,0,0,0,0l-1.3-1.2l1.2-1.3 c0,0,0.1-0.1,0.1-0.2l-0.1-3.3c1.5-0.9,2.5-2.6,2.5-4.5C430.5,1130.8,428.2,1128.5,425.3,1128.6z M430.1,1133.6 c0,1.8-0.9,3.4-2.4,4.2c-0.1,0-0.1,0.1-0.1,0.2l0.1,3.3l-1.3,1.4c-0.1,0.1-0.1,0.2,0,0.3c0,0,0,0,0,0l1.3,1.2l-1.2,1.3 c-0.1,0.1-0.1,0.2,0,0.3c0,0,0,0,0,0l1.3,1.2l-2.2,3l-1.9-2l-0.3-9.9c0-0.1-0.1-0.2-0.1-0.2c-1.5-0.8-2.5-2.3-2.6-4.1 c-0.1-2.6,2-4.8,4.6-4.8C427.9,1129,430.1,1131,430.1,1133.6z M425.3,1130.5c-0.9,0-1.6,0.8-1.6,1.7c0,0.9,0.8,1.6,1.7,1.6 c0.9,0,1.6-0.8,1.6-1.7C427,1131.1,426.2,1130.4,425.3,1130.5z M426.6,1132.1c0,0.7-0.5,1.2-1.1,1.2c-0.7,0-1.2-0.5-1.2-1.1 c0-0.7,0.5-1.2,1.1-1.2C426,1130.9,426.5,1131.4,426.6,1132.1z M425.3,1129c-2.6,0.1-4.7,2.2-4.6,4.8c0,1.8,1.1,3.3,2.6,4.1 c0.1,0,0.1,0.1,0.1,0.2l0.3,9.9l1.9,2l2.2-3l-1.3-1.2c0,0,0,0,0,0c-0.1-0.1-0.1-0.2,0-0.3l1.2-1.3l-1.3-1.2c0,0,0,0,0,0 c-0.1-0.1-0.1-0.2,0-0.3l1.3-1.4l-0.1-3.3c0-0.1,0-0.2,0.1-0.2c1.5-0.8,2.4-2.4,2.4-4.2C430.1,1131,427.9,1129,425.3,1129z M427,1132.1c0,0.9-0.7,1.7-1.6,1.7c-0.9,0-1.7-0.7-1.7-1.6c0-0.9,0.7-1.7,1.6-1.7C426.2,1130.4,427,1131.1,427,1132.1z"
                      transform="translate(0 -952.362)"/>
            </g>
            <g id="leftGroup">
                <circle cx="201" cy="138.6" r="1.7" fill="#09B9B3"/>
                <circle cx="201" cy="130.1" r="1.7" fill="#09B9B3"/>
                <circle cx="190.8" cy="164.2" r="1.7" fill="#09B9B3"/>
                <circle cx="190.8" cy="155.7" r="1.7" fill="#09B9B3"/>
                <circle cx="190.8" cy="147.1" r="1.7" fill="#09B9B3"/>
                <circle cx="190.8" cy="138.6" r="1.7" fill="#09B9B3"/>
                <circle cx="190.8" cy="130.1" r="1.7" fill="#09B9B3"/>
                <circle cx="169.6" cy="164.2" r="1.7" fill="#09B9B3"/>
                <circle cx="169.6" cy="155.7" r="1.7" fill="#09B9B3"/>
                <circle cx="169.6" cy="147.1" r="1.7" fill="#09B9B3"/>
                <circle cx="169.6" cy="138.6" r="1.7" fill="#09B9B3"/>
                <circle cx="169.6" cy="130.1" r="1.7" fill="#09B9B3"/>
                <circle cx="159.4" cy="138.6" r="1.7" fill="#09B9B3"/>
                <circle cx="159.4" cy="130.1" r="1.7" fill="#09B9B3"/>
                <line class="keyLine" x1="180.7" x2="180.7" y1="122.5" y2="178" fill="none" stroke="#01244A"
                      stroke-width="1.582"/>
                <path class="key" fill="#FFFFFF" stroke="#01244A" stroke-width=".791"
                      d="M179.2,1132.1c0,0.9,0.7,1.7,1.6,1.7c0.9,0,1.7-0.7,1.7-1.6c0-0.9-0.7-1.7-1.6-1.7C180,1130.4,179.2,1131.1,179.2,1132.1z M180.8,1130.9c0.7,0,1.2,0.6,1.1,1.2c0,0.7-0.6,1.2-1.2,1.1s-1.2-0.6-1.1-1.2C179.7,1131.4,180.2,1130.9,180.8,1130.9z M179.2,1132.1c0,0.9,0.7,1.7,1.6,1.7c0.9,0,1.7-0.7,1.7-1.6c0-0.9-0.7-1.7-1.6-1.7C180,1130.4,179.2,1131.1,179.2,1132.1z M180.8,1130.9c0.7,0,1.2,0.6,1.1,1.2c0,0.7-0.6,1.2-1.2,1.1s-1.2-0.6-1.1-1.2C179.7,1131.4,180.2,1130.9,180.8,1130.9z M175.6,1133.6c0,1.9,1,3.6,2.5,4.5l-0.1,3.3c0,0.1,0,0.1,0.1,0.2l1.2,1.3l-1.3,1.2c0,0,0,0,0,0c-0.1,0.1-0.1,0.2,0,0.3l1.2,1.3 l-1.3,1.2c-0.1,0.1-0.1,0.2,0,0.3l2.5,3.4c0,0,0,0,0,0c0.1,0.1,0.2,0.1,0.3,0l2.2-2.3c0,0,0.1-0.1,0.1-0.2l0.3-9.9 c1.6-0.9,2.7-2.5,2.7-4.4c0.1-2.9-2.2-5.2-5.1-5.3C178,1128.5,175.7,1130.8,175.6,1133.6z M180.9,1129c2.6,0.1,4.7,2.2,4.6,4.8 c0,1.8-1.1,3.3-2.6,4.1c-0.1,0-0.1,0.1-0.1,0.2l-0.3,9.9l-1.9,2l-2.2-3l1.3-1.2c0,0,0,0,0,0c0.1-0.1,0.1-0.2,0-0.3l-1.2-1.3 l1.3-1.2c0,0,0,0,0,0c0.1-0.1,0.1-0.2,0-0.3l-1.3-1.4l0.1-3.3c0-0.1,0-0.2-0.1-0.2c-1.5-0.8-2.4-2.4-2.4-4.2 C176.1,1131,178.3,1129,180.9,1129z M179.2,1132.1c0,0.9,0.7,1.7,1.6,1.7c0.9,0,1.7-0.7,1.7-1.6c0-0.9-0.7-1.7-1.6-1.7 C180,1130.4,179.2,1131.1,179.2,1132.1z M180.8,1130.9c0.7,0,1.2,0.6,1.1,1.2c0,0.7-0.6,1.2-1.2,1.1s-1.2-0.6-1.1-1.2 C179.7,1131.4,180.2,1130.9,180.8,1130.9z M176.1,1133.6c0,1.8,0.9,3.4,2.4,4.2c0.1,0,0.1,0.1,0.1,0.2l-0.1,3.3l1.3,1.4 c0.1,0.1,0.1,0.2,0,0.3c0,0,0,0,0,0l-1.3,1.2l1.2,1.3c0.1,0.1,0.1,0.2,0,0.3c0,0,0,0,0,0l-1.3,1.2l2.2,3l1.9-2l0.3-9.9 c0-0.1,0.1-0.2,0.1-0.2c1.5-0.8,2.5-2.3,2.6-4.1c0.1-2.6-2-4.8-4.6-4.8C178.3,1129,176.1,1131,176.1,1133.6z M180.9,1130.5 c0.9,0,1.6,0.8,1.6,1.7c0,0.9-0.8,1.6-1.7,1.6c-0.9,0-1.6-0.8-1.6-1.7C179.2,1131.1,180,1130.4,180.9,1130.5z"
                      transform="translate(0 -952.362)"/>
            </g>
        </g>
        <g id="outLine">
            <path class="rayLine" fill="none" stroke="#09B9B3" stroke-dasharray="100 10 100 30 20 70 160 50 200 30"
                  stroke-width="1.582"
                  d="M88.7,111.2 c-1.9-3.3-3.2-6.8-3.8-10.5l-0.4-4.8c0-3.9,0.8-7.9,2.3-11.7c0.4-1,0.9-2,1.4-2.9l3-4.5c5.7-7.1,14.3-11.4,23.7-11.4h143.6 c2,0,3.9,0.3,5.7,1c1,0.4,2,1,2.8,1.6l11.9,9.4c1.6,0.8,3.3,1.2,5,1.2h35.4c1.7,0,3.5-0.4,5-1.2l11.9-9.4c0.9-0.7,1.8-1.3,2.8-1.6 c1.8-0.7,3.8-1,5.7-1h113.2h30.4c9.4,0,18.1,4.3,23.7,11.4l3,4.5c0.5,0.9,1,1.9,1.4,2.9c1.6,3.8,2.3,7.8,2.3,11.7l-0.4,4.8 c-0.6,3.7-1.9,7.3-3.8,10.5"/>
        </g>
    </g>
    <script xlink:href="https://cdnjs.cloudflare.com/ajax/libs/gsap/1.19.0/TweenMax.min.js"></script>
    <script type="application/ecmascript"><![CDATA[
    var timeline = new TimelineMax({onComplete:onComplete});

timeline.addLabel("time_track1", 0.25);

var tweens = TweenMax.staggerTo(".rayLine",1000,{ease:Linear.easeNone,repeat:-1,"stroke-dashoffset":-20000}, .35);

for(var i=0;i<tweens.length;i++){
	var tween = tweens[i];
	tween.progress(Math.random()+0.5);
	tween.timeScale(Math.random()+0.5);
}


timeline.set("svg", {opacity:1});

timeline.staggerFrom(".mainLineEnd", .15, {ease:Power2.easeOut, scale:.0001, transformOrigin:"center", repeat:-1, yoyo:true, repeatDelay:.25},.1, "time_track1-=2");
timeline.staggerFrom(".topLineEnd", .15, {ease:Power2.easeOut, scale:.0001, transformOrigin:"center", repeat:-1, yoyo:true, repeatDelay:.5}, .1, "time_track1-=2");
timeline.staggerFrom(".bottomLineEnd", .15, {ease:Power2.easeOut, scale:.0001, transformOrigin:"center", repeat:-1, yoyo:true, repeatDelay:.75},.1, "time_track1-=2");
timeline.fromTo(".largeBurst", 2.5, {ease:Linear.easeNone,repeat:-1,"stroke-dashoffset":0}, {ease:Linear.easeNone,repeat:-1,"stroke-dashoffset":-40}, "time_track1");
timeline.fromTo(".smallBurst", 2.5, {ease:Linear.easeNone,repeat:-1,"stroke-dashoffset":0}, {ease:Linear.easeNone,repeat:-1,"stroke-dashoffset":-40}, "time_track1-=1");

timeline.staggerTo(".key", 2, {y:-990, ease:Sine.easeInOut, yoyo:true, repeat:-1},2, "time_track1-=4");
timeline.staggerTo(".keyLine", 2, {scaleY:.28, transformOrigin:"50% 0%",  ease:Sine.easeInOut, yoyo:true, repeat:-1},2, "time_track1-=4");

timeline.staggerFrom(".rightAnchor", 2, {x:40, y:-40, repeat:-1, yoyo:true, ease:Power4.easeInOut},.2, "time_track1");
timeline.staggerFrom(".leftAnchor", 2, {x:-40, y:-40, repeat:-1, yoyo:true, ease:Power4.easeInOut},.2, "time_track1-=2");

timeline.fromTo(".rightMask", 2.5, {x:0, y:0}, {x:-20, y:20, repeat:-1, yoyo:true, ease:Power2.easeInOut}, "time_track1");
timeline.fromTo(".leftMask", 2.5, {x:0, y:0}, {x:20, y:20, repeat:-1, yoyo:true, ease:Power2.easeInOut}, "time_track1-=3.5");

timeline.from("#innerHouseRotationPoint, .ventCircle", 80, {rotation:-360, transformOrigin:"center", ease:Linear.easeNone, repeat:-1}, "time_track1");

timeline.fromTo(".innerRing", 20, {ease:Linear.easeNone,repeat:-1,"stroke-dashoffset":0}, {ease:Linear.easeNone,repeat:-1,"stroke-dashoffset":300}, "time_track1");
timeline.fromTo(".dashedBreathLine", 200, {ease:Linear.easeNone,repeat:-1,"stroke-dashoffset":0}, {ease:Linear.easeNone,repeat:-1,"stroke-dashoffset":3000}, "time_track1");
timeline.staggerFrom(".breathLines1 path", .5, {scale:.0001, ease:Power2.easeInOut, transformOrigin:"center", yoyo:true, repeat:-1, repeatDelay:.5},.1, "time_track1");
timeline.staggerFrom(".breathLines2 path", .5, {scale:.0001, ease:Power2.easeInOut, transformOrigin:"center", yoyo:true, repeat:-1, repeatDelay:.5},.1, "time_track1");
timeline.from("#innerHouseRing", 2, {rotation:20, transformOrigin:"center", ease:Power2.easeInOut, repeat:-1, yoyo:true}, "time_track1");

timeline.staggerFrom(".floatingCenter", .3, {scale:.0001, transformOrigin:"center", ease:Linear.easeNone, yoyo:true, repeat:-1, repeatDelay:.35}, .5, "time_track1");
timeline.fromTo(".floatingCenterDash", 50, {ease:Linear.easeNone,repeat:-1,"stroke-dashoffset":0}, {ease:Linear.easeNone,repeat:-1,"stroke-dashoffset":1000}, "time_track1");

timeline.staggerFromTo(".plane", 1.5, {y:-6}, {y:6, yoyo:true, repeat:-1, ease:Sine.easeInOut}, .5, "time_track1");


var isComplete=true;
function onComplete(){
	isComplete=true;
}
    ]]></script>
</svg>
