<svg style="margin:0; overflow:hidden" xmlns="http://www.w3.org/2000/svg"
     xmlns:xlink="http://www.w3.org/1999/xlink" viewBox="0 0 600 600" overflow="hidden" width="600" height="600">
    <defs>
        <clipPath id="topSliderMask">
            <rect width="37.9" height="15.4" x="377.5" y="44.6" fill="none" stroke="#09B9B3" stroke-width="1.581"/>
        </clipPath>
        <clipPath id="rightSliderMask">
            <rect width="37.9" height="15.4" x="525.7" y="191" fill="none" stroke="#09B9B3" stroke-width="1.581"
                  transform="rotate(90 544.618 198.657)"/>
        </clipPath>
    </defs>
    <g id="rayLine" fill="none" stroke-width="1.581" stroke-dashoffset="0">
        <line class="rayLine" x1="573.1" x2="573.1" y1="68.7" y2="138.4" stroke="#09B9B3" stroke-dasharray="47,3,12,3"/>
        <line class="rayLine" x1="560.9" x2="560.9" y1="68.7" y2="123.6" stroke="#09B9B3" stroke-dasharray="31,4,5,4"/>
        <line class="rayLine" x1="527.6" x2="457.9" y1="25.5" y2="25.5" stroke="#09B9B3" stroke-dasharray="47,3,12,3"/>
        <line class="rayLine" x1="527.6" x2="472.8" y1="37.7" y2="37.7" stroke="#09B9B3" stroke-dasharray="31,4,5,4"/>
        <line class="rayLine" x1="305.6" x2="267.4" y1="389.5" y2="389.5" stroke="#01244A" stroke-dasharray="30,2,2"/>
        <line class="rayLine" x1="294.5" x2="253.9" y1="381.2" y2="381.2" stroke="#01244A" stroke-dasharray="23,2,13"/>
        <line class="rayLine" x1="285.5" x2="247.1" y1="372.1" y2="372.1" stroke="#01244A"
              stroke-dasharray="27,2,5,3,3"/>
        <line class="rayLine" x1="209.4" x2="209.4" y1="293.2" y2="331.4" fill="none" stroke="#01244A"
              stroke-dasharray="30,2,2" stroke-width="1.581"/>
        <line class="rayLine" x1="217.7" x2="217.7" y1="304.3" y2="344.9" fill="none" stroke="#01244A"
              stroke-dasharray="23,2,13" stroke-width="1.581"/>
        <line class="rayLine" x1="226.7" x2="226.7" y1="313.4" y2="351.7" fill="none" stroke="#01244A"
              stroke-dasharray="27,2,5,3,3" stroke-width="1.581"/>
        <path class="rayLine" stroke="#09B9B3" stroke-dasharray="100,7,6"
              d="M478.8,361.4 h-34.3c-2.9,0-5.3-2.4-5.3-5.3l0,0c0-0.2-0.2-0.4-0.4-0.4H369"/>
        <path class="rayLine" stroke="#09B9B3" stroke-dasharray="137,5,14"
              d="M478.8,313.4 h-34.2c-3,0-5.4,2.4-5.4,5.4l0,0c0,0.3-0.2,0.5-0.5,0.5h-114"/>
        <path class="rayLine" stroke="#09B9B3" stroke-dasharray="100,7,6"
              d="M229.7,115.2v34.3 c0,2.9,2.4,5.3,5.3,5.3l0,0c0.2,0,0.4,0.2,0.4,0.4V225"/>
        <path class="rayLine" stroke="#09B9B3" stroke-dasharray="137,5,14"
              d="M277.7,115.2 v34.2c0,3-2.4,5.4-5.4,5.4l0,0c-0.3,0-0.5,0.2-0.5,0.5v114"/>
        <line class="rayLine" stroke="#09B9B3" x1="172.8" x2="172.8" y1="175.9" y2="291.6"
              stroke-dasharray="92,4,12,4"/>
        <line class="rayLine" stroke="#09B9B3" x1="421.9" x2="306.7" y1="425.3" y2="425.3"
              stroke-dasharray="92,4,12,4"/>
    </g>
    <!--        Dashed Breath Lines         -->
    <g>
        <polyline class="dashedBreathLine" stroke="#09B9B3" stroke-width="1.581" stroke-dasharray="2.5863,2.5863"
                  points="418.1,449.1 418.2,477.6 418.3,504.7"/>
        <polyline fill="none" stroke="#09B9B3" stroke-width="1.581" class="dashedBreathLine"
                  stroke-dasharray="2.5863,2.5863" points="153,175 124.5,175.1 97.4,175.1"/>
        <line class="dashedBreathLine" x1="475" x2="422.6" y1="444.7" y2="392.2" fill="none" stroke="#09B9B3"
              stroke-dasharray="5.269" stroke-width="1.581"/>
        <line class="dashedBreathLine" x1="589.7" x2="518.3" y1="516.6" y2="445.2" fill="none" stroke="#09B9B3"
              stroke-dasharray="5.269" stroke-width="1.581"/>
        <line class="dashedBreathLine" x1="157.1" x2="209.5" y1="127.5" y2="179.9" fill="none" stroke="#09B9B3"
              stroke-dasharray="5.269" stroke-width="1.581"/>
        <line class="dashedBreathLine" x1="81.8" x2="153.2" y1="8.8" y2="80.2" fill="none" stroke="#09B9B3"
              stroke-dasharray="5.269" stroke-width="1.581"/>
        <path class="dashedBreathLine" fill="none" stroke="#09B9B3" stroke-dasharray="5.269" stroke-width="1.581"
              d="M209.4,60.3h147.8 c1.4,0,2.7,0.6,3.7,1.5l6.4,6.4c1,1,2.3,1.5,3.7,1.5h53.2c1.4,0,2.7-0.6,3.7-1.5l6.4-6.4c1-1,2.3-1.5,3.7-1.5h94.6"/>
        <path class="dashedBreathLine" fill="none" stroke="#09B9B3" stroke-dasharray="5.269" stroke-width="1.581"
              d="M536.7,389V239.2 c0-1.4-0.6-2.7-1.5-3.7l-6.4-6.4c-1-1-1.5-2.3-1.5-3.7v-53.4c0-1.4,0.6-2.7,1.5-3.7l6.4-6.4c1-1,1.5-2.3,1.5-3.7V63.1"/>
        <g class="dashedBreathLine" fill="none" stroke="#09B9B3" stroke-width="1.581">
            <line x1="172.8" x2="174.1" y1="222.2" y2="222.2"/>
            <line x1="176.3" x2="183.9" y1="222.2" y2="222.2" stroke-dasharray="2.1625,2.1625"/>
            <polyline points="185,222.2 186.3,222.2 186.3,223.6"/>
            <line x1="186.3" x2="186.3" y1="226.2" y2="315.2" stroke-dasharray="2.6566,2.6566"/>
            <line x1="186.3" x2="186.3" y1="316.5" y2="317.9"/>
        </g>
        <polyline class="dashedBreathLine" fill="none" stroke="#09B9B3" stroke-dasharray="2.635" stroke-width="1.581"
                  points="186.7,255.8 198.6,255.8 198.6,201.8 208.1,201.8"/>
        <g class="dashedBreathLine">
            <g fill="none" stroke="#09B9B3" stroke-width="1.581">
                <line x1="374.5" x2="374.5" y1="425.3" y2="424"/>
                <line x1="374.5" x2="374.5" y1="421.6" y2="413.2" stroke-dasharray="2.4116,2.4116"/>
                <polyline points="374.5,411.9 374.5,410.6 373.1,410.6"/>
                <line x1="370.5" x2="281.5" y1="410.6" y2="410.6" stroke-dasharray="2.6566,2.6566"/>
                <line x1="280.2" x2="278.8" y1="410.6" y2="410.6"/>
            </g>
        </g>
        <polyline class="dashedBreathLine" fill="none" stroke="#09B9B3" stroke-dasharray="2.635" stroke-width="1.581"
                  points="340.9,410.2 340.9,398.3 394.9,398.3 394.9,390.3"/>
        <path class="dashedBreathLine" fill="none" stroke="#09B9B3" stroke-dasharray="5.283" stroke-width="1.585"
              d="M329.1,205.1 c0-17,7-31.4,18.4-42.4"/>
        <path class="dashedBreathLine" fill="none" stroke="#09B9B3" stroke-dasharray="5.283" stroke-width="1.585"
              d="M430.2,250.1 c-10.8,10.1-25.3,16.2-41.2,16.2c-12,0-23.2-3.5-32.5-9.5"/>
        <path class="dashedBreathLine" fill="none" stroke="#09B9B3" stroke-dasharray="5.283" stroke-width="1.585"
              d="M400.9,146.6 c26.1,4.9,46.3,26.7,48.9,53.6"/>
    </g>
    <g id="mainOutline">
        <path fill="none" stroke="#01244A" stroke-width="1.581"
              d="M423.4,243.7c-8.8,7.3-20.9,12.1-33.2,12 c-6.6,0-13-1.3-18.8-3.7 M439.4,191.5c-3.7-13.4-12.7-24.6-24.7-31.1c-4.6-2.5-8.8-4.2-14.1-5.2 M349,175.6 c-5.9,8.2-9.3,18.3-9.4,29.2c0,0.9,0,0,0,0.9 M527.3,8.9v40.3c0,1.4,0.6,2.7,1.5,3.7l4.6,4.6 M538.2,62.3l4.9,4.9 c1,1,2.3,1.5,3.7,1.5h42.7 M479.6,444.8V120.1c0-2.9-2.4-5.3-5.3-5.3H156.6 M364.7,204v31.5h17.9v-20.8h15.3v20.8H416V204 M426.1,205.1l-35.8-35.8l-35.7,35.7h-51.2 M400.9,118.4v53.9h12v12.1 M471.7,291.2L416,235.5 M259.4,291.4h220.2 M95.1,168.6h62.2 M302.9,115v220 M209.4,8.9v157.8v127.2c0,1.4,0.6,2.7,1.5,3.7l28.2,28.2c1,1,1.5,2.3,1.5,3.7v20.7c0,2.9,2.4,5.3,5.3,5.3l20.7,0 c1.4,0,2.7,0.6,3.7,1.5l30.9,30.9c1,1,2.3,1.5,3.7,1.5h284.7 M589.7,586V261.4c0-1.4-0.6-2.7-1.5-3.7l-6.2-6.2 c-1-1-1.5-2.3-1.5-3.7v-46.9c0-1.4,0.6-2.7,1.5-3.7l6.2-6.2c1-1,1.5-2.3,1.5-3.7V14.1c0-2.9-2.4-5.3-5.3-5.3H410 c-1.4,0-2.7,0.6-3.7,1.5l-6.2,6.2c-1,1-2.3,1.5-3.7,1.5h-47c-1.4,0-2.7-0.6-3.7-1.5l-6.2-6.2c-1-1-2.3-1.5-3.7-1.5H15 M186.7,350.9 v18.5v10.6h19.9l10.6-10.6l3.8-3.8l20-20 M478.7,116.4l24.8-24.8l30.1-30.1 M511,69l-7,7l-7.5,7.5l-0.1,7.1l-0.1,8.1 M502.6,92.4 l8.1,0.1l7.2,0.1l4.8-4.8l4.6-4.6 M510.7,152.8l0-27.2v-33 M516.9,136.9l0.1-4.7l0.1-4.2l-3.2-3.2l-3.2-3.2 M510.9,124.3l-4.1,4 l-4.2,4.1v7.8l0,6.6 M95,228.2l0-27.2v-33 M101.2,212.3l0.1-8.9l-6.4-6.4 M95.2,199.7l-8.4,8.1l0,14.4 M436.1,90.2l27.2,0h33 M443.9,96.4l5.6,0.1l5,0.1l3.2-3.2l3.2-3.2 M468.6,90.4l-2.7-2.7l-2.9-3l-7.7,0l-6.6,0 M270.2,89.2l-27.2,0h-33 M262.4,83 l-5.6-0.1l-5-0.1l-3.2,3.2l-3.2,3.2 M237.7,89.1l2.7,2.7l2.9,3l7.7,0l6.6,0 M507.9,328.9l0,27.2v33 M501.8,336.7l-0.1,5.6l-0.1,5 l3.2,3.2l3.2,3.2 M507.8,361.4l2.7-2.7l3-2.9l0-7.7l0-6.6 M424.9,507.2v-62.2 M425.5,507.3h-33l-27.2,0 M396.6,507.4l-3.2-3.2 l-3.2-3.2l-4.2,0.1l-4.7,0.1 M371.2,515.5l6.6,0h7.8l4.1-4.2l4-4.1 M156.6,74.7h22.6 M156.6,46h22.6 M551,444.3v-23.1 M522.3,444.3 v-23.1 M590.2,444.7H338c-1.4,0-2.7-0.6-3.7-1.5l-6.6-6.6c-1-1-2.3-1.5-3.7-1.5h-34.9c-1.4,0-2.7,0.6-3.7,1.5l-6.6,6.6 c-1,1-2.3,1.5-3.7,1.5h-56.6 M156.5,379.9v-64.4c0-1.4,0.6-2.7,1.5-3.7l3.8-3.8c1-1,1.5-2.3,1.5-3.7v-34.9c0-1.4-0.6-2.7-1.5-3.7 l-3.8-3.8c-1-1-1.5-2.3-1.5-3.7V8.1 M267.5,120.1h3.2 M267.5,122.6h3.2 M267.5,125.1h3.2 M267.5,127.7h3.2 M267.5,130.2h3.2 M267.5,132.7h3.2 M267.5,135.2h3.2 M267.5,137.7h3.2 M267.5,140.2h3.2 M267.5,142.7h3.2 M267.5,145.3h3.2 M236.2,120.1h3.2 M236.2,122.6h3.2 M236.2,125.1h3.2 M236.2,127.7h3.2 M236.2,130.2h3.2 M236.2,132.7h3.2 M236.2,135.2h3.2 M236.2,137.7h3.2 M236.2,140.2h3.2 M236.2,142.7h3.2 M236.2,145.3h3.2 M266,146.8v3.2 M263.5,146.8v3.2 M261,146.8v3.2 M258.4,146.8v3.2 M255.9,146.8v3.2 M253.4,146.8v3.2 M250.9,149.9v-3.2 M248.4,149.9v-3.2 M245.9,146.8v3.2 M243.3,146.8v3.2 M240.8,146.8v3.2 M266,115.4v3.2 M263.5,115.4v3.2 M261,115.4v3.2 M258.4,115.4v3.2 M255.9,115.4v3.2 M253.4,115.4v3.2 M250.9,115.4v3.2 M248.4,115.4v3.2 M245.9,115.4v3.2 M243.3,115.4v3.2 M240.8,115.4v3.2 M251.2,355.4l-20,20l-3.8,3.8l-10.6,10.6v19.9h10.6h18.5"/>
    </g>
    <g id="mainStuff">
        <g fill="#09B9B3">
            <circle cx="349" cy="175.5" r="2"/>
            <circle cx="370.7" cy="251.5" r="2"/>
            <circle cx="439.4" cy="191.5" r="2"/>
        </g>
        <line x1="273.2" x2="432.2" y1="90" y2="90" fill="none" stroke="#09B9B3" stroke-width="1.581"/>
        <circle cx="10.3" cy="9" r="4.8" fill="#FFFFFF" stroke="#09B9B3" stroke-width="1.581"/>
        <circle cx="589.7" cy="591" r="4.8" fill="#FFFFFF" stroke="#09B9B3" stroke-width="1.581"/>
        <polygon fill="none" stroke="#09B9B3" stroke-linecap="round" stroke-linejoin="round" stroke-width="1.581"
                 points="156.5,388.3 154.1,384.1 151.7,379.9 156.5,379.9 161.3,379.9 158.9,384.1"/>
        <polygon fill="none" stroke="#09B9B3" stroke-linecap="round" stroke-linejoin="round" stroke-width="1.581"
                 points="209.7,444.7 213.9,442.3 218.1,439.9 218.1,444.7 218.1,449.5 213.9,447.1"/>
        <polyline fill="none" stroke="#09B9B3" stroke-width="1.581" points="155,441.2 202.5,393.6 241.7,354.5"/>
        <polyline fill="none" stroke="#09B9B3" stroke-width="1.581" points="165.2,415.6 157.5,423.2 150.5,430.3"/>
        <polyline fill="none" stroke="#09B9B3" stroke-width="1.581" points="186.5,424.7 178.8,432.4 171.8,439.4"/>
        <polyline fill="none" stroke="#09B9B3" stroke-width="1.581" points="186.5,409.7 186.4,417.8 186.3,425.2"/>
        <polyline fill="none" stroke="#09B9B3" stroke-width="1.581" points="180.2,416 172.1,415.9 164.7,415.8"/>
        <circle cx="510.5" cy="154.1" r="2.1" fill="#FFFFFF" stroke="#09B9B3" stroke-width="1.581"/>
        <circle cx="516.9" cy="138.8" r="2.1" fill="#FFFFFF" stroke="#09B9B3" stroke-width="1.581"/>
        <circle cx="502.5" cy="146.8" r="2.1" fill="#FFFFFF" stroke="#09B9B3" stroke-width="1.581"/>
        <circle cx="434.9" cy="90" r="2.1" fill="#FFFFFF" stroke="#09B9B3" stroke-width="1.581"/>
        <circle cx="442.5" cy="96.4" r="2.1" fill="#FFFFFF" stroke="#09B9B3" stroke-width="1.581"/>
        <circle cx="446.6" cy="84.6" r="2.1" fill="#FFFFFF" stroke="#09B9B3" stroke-width="1.581"/>
        <circle cx="271.4" cy="89.4" r="2.1" fill="#FFFFFF" stroke="#09B9B3" stroke-width="1.581"/>
        <circle cx="263.8" cy="83" r="2.1" fill="#FFFFFF" stroke="#09B9B3" stroke-width="1.581"/>
        <circle cx="259.7" cy="94.8" r="2.1" fill="#FFFFFF" stroke="#09B9B3" stroke-width="1.581"/>
        <circle cx="508.1" cy="327.7" r="2.1" fill="#FFFFFF" stroke="#09B9B3" stroke-width="1.581"/>
        <circle cx="501.8" cy="335.3" r="2.1" fill="#FFFFFF" stroke="#09B9B3" stroke-width="1.581"/>
        <circle cx="513.5" cy="339.4" r="2.1" fill="#FFFFFF" stroke="#09B9B3" stroke-width="1.581"/>
        <circle cx="535.4" cy="60.2" r="3" fill="#FFFFFF" stroke="#EF442E" stroke-width="1.581"/>
        <circle cx="302.8" cy="340.1" r="5.1" fill="#FFFFFF" stroke="#09B9B3" stroke-width="1.581"/>
        <circle cx="254.3" cy="291.4" r="5.1" fill="#FFFFFF" stroke="#09B9B3" stroke-width="1.581"/>
        <g>
            <circle cx="95.2" cy="168.9" r="3.7" fill="#09B9B3"/>
        </g>
        <g>
            <circle cx="424.6" cy="507.1" r="3.7" fill="#09B9B3"/>
        </g>
        <circle cx="354.4" cy="254.3" r="3.1" fill="#FFFFFF" stroke="#EF442E" stroke-width="1.581"/>
        <circle cx="350.5" cy="160.6" r="3.1" fill="#FFFFFF" stroke="#EF442E" stroke-width="1.581"/>
        <circle cx="449.9" cy="203.3" r="3.1" fill="#FFFFFF" stroke="#EF442E" stroke-width="1.581"/>
        <g fill="none" stroke-width="1.581">
            <rect width="7.1" height="7.1" x="179.7" y="28.2" stroke="#09B9B3"/>
            <rect width="7.1" height="7.1" x="179.7" y="42.5" stroke="#01244A"/>
            <rect width="7.1" height="7.1" x="179.7" y="56.9" stroke="#09B9B3"/>
            <rect width="7.1" height="7.1" x="179.7" y="85.5" stroke="#09B9B3"/>
            <rect width="7.1" height="7.1" x="179.7" y="71.2" stroke="#01244A"/>
        </g>
        <line x1="186.7" x2="208.8" y1="31.7" y2="31.7" fill="none" stroke="#09B9B3" stroke-width="1.581"/>
        <line x1="186.7" x2="209.4" y1="60.4" y2="60.4" fill="none" stroke="#09B9B3" stroke-width="1.581"/>
        <line x1="186.7" x2="208.8" y1="89.1" y2="89.1" fill="none" stroke="#09B9B3" stroke-width="1.581"/>
        <g fill="none" stroke-width="1.581">
            <rect width="7.1" height="7.1" x="504.5" y="413.6" stroke="#09B9B3"
                  transform="rotate(-90 507.987 417.152)"/>
            <rect width="7.1" height="7.1" x="518.8" y="413.6" stroke="#01244A" transform="rotate(-90 522.33 417.152)"/>
            <rect width="7.1" height="7.1" x="533.1" y="413.6" stroke="#09B9B3"
                  transform="rotate(-90 536.673 417.152)"/>
            <rect width="7.1" height="7.1" x="561.8" y="413.6" stroke="#09B9B3" transform="rotate(-90 565.36 417.152)"/>
            <rect width="7.1" height="7.1" x="547.5" y="413.6" stroke="#01244A"
                  transform="rotate(-90 551.017 417.152)"/>
        </g>
        <line x1="508" x2="508" y1="413.6" y2="390.1" fill="none" stroke="#09B9B3" stroke-width="1.581"/>
        <line x1="536.7" x2="536.7" y1="413.6" y2="387.7" fill="none" stroke="#09B9B3" stroke-width="1.581"/>
        <line x1="565.4" x2="565.4" y1="413.6" y2="390.1" fill="none" stroke="#09B9B3" stroke-width="1.581"/>
        <circle cx="461.7" cy="337.8" r="10.9" fill="none" stroke="#01244A" stroke-width="1.581"/>
        <line x1="474.3" x2="474.3" y1="323.8" y2="320.6" fill="none" stroke="#01244A" stroke-width="1.317"/>
        <line x1="471.7" x2="471.7" y1="323.8" y2="320.6" fill="none" stroke="#01244A" stroke-width="1.317"/>
        <line x1="469.2" x2="469.2" y1="323.8" y2="320.6" fill="none" stroke="#01244A" stroke-width="1.317"/>
        <line x1="466.7" x2="466.7" y1="323.8" y2="320.6" fill="none" stroke="#01244A" stroke-width="1.317"/>
        <line x1="464.2" x2="464.2" y1="323.8" y2="320.6" fill="none" stroke="#01244A" stroke-width="1.317"/>
        <line x1="461.7" x2="461.7" y1="323.8" y2="320.6" fill="none" stroke="#01244A" stroke-width="1.317"/>
        <line x1="459.2" x2="459.2" y1="323.8" y2="320.6" fill="none" stroke="#01244A" stroke-width="1.317"/>
        <line x1="456.6" x2="456.6" y1="323.8" y2="320.6" fill="none" stroke="#01244A" stroke-width="1.317"/>
        <line x1="454.1" x2="454.1" y1="323.8" y2="320.6" fill="none" stroke="#01244A" stroke-width="1.317"/>
        <line x1="451.6" x2="451.6" y1="323.8" y2="320.6" fill="none" stroke="#01244A" stroke-width="1.317"/>
        <line x1="449.1" x2="449.1" y1="323.8" y2="320.6" fill="none" stroke="#01244A" stroke-width="1.317"/>
        <line x1="474.3" x2="474.3" y1="355.2" y2="352" fill="none" stroke="#01244A" stroke-width="1.317"/>
        <line x1="471.7" x2="471.7" y1="355.2" y2="352" fill="none" stroke="#01244A" stroke-width="1.317"/>
        <line x1="469.2" x2="469.2" y1="355.2" y2="352" fill="none" stroke="#01244A" stroke-width="1.317"/>
        <line x1="466.7" x2="466.7" y1="355.2" y2="352" fill="none" stroke="#01244A" stroke-width="1.317"/>
        <line x1="464.2" x2="464.2" y1="355.2" y2="352" fill="none" stroke="#01244A" stroke-width="1.317"/>
        <line x1="461.7" x2="461.7" y1="355.2" y2="352" fill="none" stroke="#01244A" stroke-width="1.317"/>
        <line x1="459.2" x2="459.2" y1="355.2" y2="352" fill="none" stroke="#01244A" stroke-width="1.317"/>
        <line x1="456.6" x2="456.6" y1="355.2" y2="352" fill="none" stroke="#01244A" stroke-width="1.317"/>
        <line x1="454.1" x2="454.1" y1="355.2" y2="352" fill="none" stroke="#01244A" stroke-width="1.317"/>
        <line x1="451.6" x2="451.6" y1="355.2" y2="352" fill="none" stroke="#01244A" stroke-width="1.317"/>
        <line x1="449.1" x2="449.1" y1="355.2" y2="352" fill="none" stroke="#01244A" stroke-width="1.317"/>
        <line x1="447.6" x2="444.4" y1="325.3" y2="325.3" fill="none" stroke="#01244A" stroke-width="1.317"/>
        <line x1="447.6" x2="444.4" y1="327.8" y2="327.8" fill="none" stroke="#01244A" stroke-width="1.317"/>
        <line x1="447.6" x2="444.4" y1="330.3" y2="330.3" fill="none" stroke="#01244A" stroke-width="1.317"/>
        <line x1="447.6" x2="444.4" y1="332.9" y2="332.9" fill="none" stroke="#01244A" stroke-width="1.317"/>
        <line x1="447.6" x2="444.4" y1="335.4" y2="335.4" fill="none" stroke="#01244A" stroke-width="1.317"/>
        <line x1="447.6" x2="444.4" y1="337.9" y2="337.9" fill="none" stroke="#01244A" stroke-width="1.317"/>
        <line x1="447.6" x2="444.4" y1="340.4" y2="340.4" fill="none" stroke="#01244A" stroke-width="1.317"/>
        <line x1="447.6" x2="444.4" y1="342.9" y2="342.9" fill="none" stroke="#01244A" stroke-width="1.317"/>
        <line x1="447.6" x2="444.4" y1="345.4" y2="345.4" fill="none" stroke="#01244A" stroke-width="1.317"/>
        <line x1="447.6" x2="444.4" y1="348" y2="348" fill="none" stroke="#01244A" stroke-width="1.317"/>
        <line x1="447.6" x2="444.4" y1="350.5" y2="350.5" fill="none" stroke="#01244A" stroke-width="1.317"/>
        <line x1="478.9" x2="475.8" y1="325.3" y2="325.3" fill="none" stroke="#01244A" stroke-width="1.317"/>
        <line x1="478.9" x2="475.8" y1="327.8" y2="327.8" fill="none" stroke="#01244A" stroke-width="1.317"/>
        <line x1="478.9" x2="475.8" y1="330.3" y2="330.3" fill="none" stroke="#01244A" stroke-width="1.317"/>
        <line x1="478.9" x2="475.8" y1="332.9" y2="332.9" fill="none" stroke="#01244A" stroke-width="1.317"/>
        <line x1="478.9" x2="475.8" y1="335.4" y2="335.4" fill="none" stroke="#01244A" stroke-width="1.317"/>
        <line x1="478.9" x2="475.8" y1="337.9" y2="337.9" fill="none" stroke="#01244A" stroke-width="1.317"/>
        <line x1="478.9" x2="475.8" y1="340.4" y2="340.4" fill="none" stroke="#01244A" stroke-width="1.317"/>
        <line x1="478.9" x2="475.8" y1="342.9" y2="342.9" fill="none" stroke="#01244A" stroke-width="1.317"/>
        <line x1="478.9" x2="475.8" y1="345.4" y2="345.4" fill="none" stroke="#01244A" stroke-width="1.317"/>
        <line x1="478.9" x2="475.8" y1="348" y2="348" fill="none" stroke="#01244A" stroke-width="1.317"/>
        <line x1="478.9" x2="475.8" y1="350.5" y2="350.5" fill="none" stroke="#01244A" stroke-width="1.317"/>
        <rect width="27.1" height="27.1" x="448.1" y="324.2" fill="none" stroke="#09B9B3" stroke-width="1.581"
              transform="rotate(-180 461.694 337.776)"/>
        <circle cx="253.5" cy="132.7" r="10.9" fill="none" stroke="#01244A" stroke-width="1.581"/>
        <rect width="27.1" height="27.1" x="240" y="119.1" fill="none" stroke="#09B9B3" stroke-width="1.581"
              transform="rotate(90 253.538 132.663)"/>
        <g stroke-width="1.581">
            <line x1="365.5" x2="339.2" y1="90" y2="90" fill="none" stroke="#01244A"/>
            <g fill="#FFFFFF">
                <rect width="6.3" height="6.3" x="362.3" y="86.8" stroke="#09B9B3"
                      transform="rotate(-90 365.481 89.963)"/>
                <rect width="6.3" height="6.3" x="349.5" y="86.8" stroke="#01244A"
                      transform="rotate(-90 352.681 89.963)"/>
                <rect width="6.3" height="6.3" x="336.7" y="86.8" stroke="#09B9B3"
                      transform="rotate(-90 339.88 89.963)"/>
            </g>
        </g>
        <line x1="372.5" x2="372.5" y1="31.6" y2="17.5" fill="none" stroke="#01244A" stroke-width="1.581"/>
        <line x1="401.5" x2="401.5" y1="43.9" y2="30.7" fill="none" stroke="#01244A" stroke-width="1.581"/>
        <line x1="376.3" x2="404.3" y1="30.4" y2="30.4" fill="none" stroke="#01244A" stroke-width="1.581"/>
        <rect width="6.3" height="6.3" x="383.4" y="27.9" fill="#FFFFFF" stroke="#09B9B3" stroke-width="1.581"/>
        <rect width="6.3" height="6.3" x="369.4" y="27.9" fill="#FFFFFF" stroke="#01244A" stroke-width="1.581"/>
        <rect width="6.3" height="6.3" x="398" y="27.9" fill="#FFFFFF" stroke="#01244A" stroke-width="1.581"/>
        <rect width="6.3" height="6.3" x="369.4" y="15" fill="#FFFFFF" stroke="#09B9B3" stroke-width="1.581"/>
        <line x1="566.9" x2="581" y1="222.9" y2="222.9" fill="none" stroke="#01244A" stroke-width="1.581"/>
        <line x1="553" x2="567.8" y1="193.8" y2="193.8" fill="none" stroke="#01244A" stroke-width="1.581"/>
        <line x1="568.1" x2="568.1" y1="219.1" y2="191.1" fill="none" stroke="#01244A" stroke-width="1.581"/>
        <rect width="6.3" height="6.3" x="564.3" y="205.7" fill="#FFFFFF" stroke="#09B9B3" stroke-width="1.581"
              transform="rotate(-90 567.42 208.864)"/>
        <rect width="6.3" height="6.3" x="564.3" y="219.7" fill="#FFFFFF" stroke="#01244A" stroke-width="1.581"
              transform="rotate(-90 567.42 222.856)"/>
        <rect width="6.3" height="6.3" x="564.3" y="191.1" fill="#FFFFFF" stroke="#01244A" stroke-width="1.581"
              transform="rotate(-90 567.42 194.226)"/>
        <rect width="6.3" height="6.3" x="577.2" y="219.7" fill="#FFFFFF" stroke="#09B9B3" stroke-width="1.581"
              transform="rotate(-90 580.344 222.856)"/>
        <line x1="509.5" x2="509.5" y1="156.3" y2="326.1" fill="none" stroke="#09B9B3" stroke-width="1.581"/>
        <g stroke-width="1.581">
            <line x1="509.5" x2="509.5" y1="248.6" y2="222.3" fill="none" stroke="#01244A"/>
            <g fill="#FFFFFF">
                <rect width="6.3" height="6.3" x="506.4" y="245.4" stroke="#09B9B3"/>
                <rect width="6.3" height="6.3" x="506.4" y="232.6" stroke="#01244A"/>
                <rect width="6.3" height="6.3" x="506.4" y="219.8" stroke="#09B9B3"/>
            </g>
        </g>
        <g fill="#FFFFFF" stroke-width="1.581">
            <line x1="199" x2="168.9" y1="155.4" y2="125.3" stroke="#01244A"/>
            <g stroke="#01244A">
                <line x1="200.8" x2="201" y1="154.7" y2="125.7"/>
                <line x1="169.6" x2="198.6" y1="123.5" y2="123.3"/>
            </g>
            <circle cx="200.7" cy="123.6" r="1.8" stroke="#EF442E"/>
            <g stroke="#EF442E">
                <circle cx="167.7" cy="124.1" r="1.8"/>
                <circle cx="200.2" cy="156.6" r="1.8"/>
            </g>
        </g>
        <g fill="#FFFFFF" stroke-width="1.581">
            <line x1="470" x2="439.9" y1="429" y2="398.9" stroke="#01244A"/>
            <g stroke="#01244A">
                <line x1="471.8" x2="472" y1="428.3" y2="399.3"/>
                <line x1="440.6" x2="469.6" y1="397.1" y2="396.9"/>
            </g>
            <circle cx="471.7" cy="397.3" r="1.8" stroke="#EF442E"/>
            <g stroke="#EF442E">
                <circle cx="438.6" cy="397.7" r="1.8"/>
                <circle cx="471.2" cy="430.3" r="1.8"/>
            </g>
        </g>
        <g stroke-width="1.581">
            <line x1="186.5" x2="186.5" y1="346.9" y2="320.6" fill="none" stroke="#01244A"/>
            <g fill="#FFFFFF">
                <rect width="6.3" height="6.3" x="183.3" y="343.7" stroke="#09B9B3"/>
                <rect width="6.3" height="6.3" x="183.3" y="330.9" stroke="#01244A"/>
                <rect width="6.3" height="6.3" x="183.3" y="318.1" stroke="#09B9B3"/>
            </g>
        </g>
        <g stroke-width="1.581">
            <line x1="249.8" x2="276.1" y1="410.4" y2="410.4" fill="none" stroke="#01244A"/>
            <g fill="#FFFFFF">
                <rect width="6.3" height="6.3" x="246.7" y="407.3" stroke="#09B9B3"
                      transform="rotate(-90 249.831 410.416)"/>
                <rect width="6.3" height="6.3" x="259.5" y="407.3" stroke="#01244A"
                      transform="rotate(-90 262.631 410.416)"/>
                <rect width="6.3" height="6.3" x="272.3" y="407.3" stroke="#09B9B3"
                      transform="rotate(-90 275.431 410.416)"/>
            </g>
        </g>
        <g class="largeBurst" fill="none" stroke="#01244A" stroke-dasharray="8.5228,11.3637" stroke-width="1.582">
            <line x1="330.1" x2="330.1" y1="141.8" y2="132.8"/>
            <line x1="330.1" x2="339.1" y1="141.8" y2="141.8"/>
            <line x1="330.1" x2="330.1" y1="141.8" y2="150.8"/>
            <line x1="330.1" x2="321.1" y1="141.8" y2="141.8"/>
        </g>
        <g class="smallBurst" fill="none" stroke="#01244A" stroke-dasharray="6,9" stroke-width="1.582">
            <line x1="456.8" x2="456.8" y1="243.5" y2="236.6"/>
            <line x1="456.8" x2="463.8" y1="243.5" y2="243.5"/>
            <line x1="456.8" x2="456.8" y1="243.5" y2="250.5"/>
            <line x1="456.8" x2="449.8" y1="243.5" y2="243.5"/>
        </g>
    </g>
    <g id="popCircles">
        <g id="topRight">
            <circle cx="470.1" cy="123.5" r="1.4" fill="#09B9B3"/>
            <circle cx="470.1" cy="130.6" r="1.4" fill="#01244A"/>
            <circle cx="470.2" cy="137.7" r="1.4" fill="#09B9B3"/>
            <circle cx="470.3" cy="144.8" r="1.4" fill="#01244A"/>
            <circle cx="470.3" cy="151.9" r="1.4" fill="#09B9B3"/>
            <circle cx="463" cy="123.6" r="1.4" fill="#01244A"/>
            <circle cx="455.9" cy="123.6" r="1.4" fill="#09B9B3"/>
            <circle cx="449.1" cy="123.6" r="1.4" fill="#01244A"/>
            <circle cx="442" cy="123.6" r="1.4" fill="#09B9B3"/>
        </g>
        <g id="bottomLeft">
            <circle cx="312.1" cy="282.8" r="1.4" fill="#09B9B3"/>
            <circle cx="312.1" cy="275.7" r="1.4" fill="#01244A"/>
            <circle cx="312.1" cy="268.6" r="1.4" fill="#09B9B3"/>
            <circle cx="312.1" cy="261.5" r="1.4" fill="#01244A"/>
            <circle cx="312.1" cy="254.4" r="1.4" fill="#09B9B3"/>
            <circle cx="319.2" cy="282.8" r="1.4" fill="#01244A"/>
            <circle cx="326.3" cy="282.8" r="1.4" fill="#09B9B3"/>
            <circle cx="333.2" cy="282.8" r="1.4" fill="#01244A"/>
            <circle cx="340.3" cy="282.8" r="1.4" fill="#09B9B3"/>
        </g>
        <g id="circleTrail" fill="#09B9B3">
            <circle cx="279.7" cy="315" r="1.4"/>
            <circle cx="284.7" cy="310" r="1.4"/>
            <circle cx="289.7" cy="305" r="1.4"/>
            <circle cx="294.7" cy="300" r="1.4"/>
        </g>
    </g>
    <g id="key">
        <line id="rightLine" x1="439.3" x2="408.5" y1="338.7" y2="338.7" fill="none" stroke="#09B9B3"
              stroke-width="1.581"/>
        <path class="key1" fill="#FFFFFF" stroke="#01244A" stroke-width=".79"
              d="M401.3,1289.5c-1,0-1.8,0.7-1.8,1.7c0,1,0.7,1.8,1.7,1.8c1,0,1.8-0.7,1.8-1.7C403,1290.3,402.2,1289.5,401.3,1289.5z M402.5,1291.3c0,0.7-0.6,1.2-1.3,1.2c-0.7,0-1.2-0.6-1.2-1.3c0-0.7,0.6-1.2,1.3-1.2C401.9,1290,402.5,1290.6,402.5,1291.3z M401.3,1289.5c-1,0-1.8,0.7-1.8,1.7c0,1,0.7,1.8,1.7,1.8c1,0,1.8-0.7,1.8-1.7C403,1290.3,402.2,1289.5,401.3,1289.5z M402.5,1291.3c0,0.7-0.6,1.2-1.3,1.2c-0.7,0-1.2-0.6-1.2-1.3c0-0.7,0.6-1.2,1.3-1.2C401.9,1290,402.5,1290.6,402.5,1291.3z M399.6,1285.7c-2-0.1-3.8,1-4.8,2.6l-3.5-0.1c-0.1,0-0.1,0-0.2,0.1l-1.4,1.3l-1.3-1.4c0,0,0,0,0,0c-0.1-0.1-0.3-0.1-0.4,0 l-1.4,1.3l-1.3-1.4c-0.1-0.1-0.2-0.1-0.3,0l-3.6,2.7c0,0,0,0,0,0c-0.1,0.1-0.1,0.3,0,0.4l2.5,2.3c0,0,0.1,0.1,0.2,0.1l10.6,0.3 c0.9,1.7,2.7,2.8,4.7,2.9c3.1,0.1,5.6-2.3,5.7-5.4C405.1,1288.3,402.6,1285.8,399.6,1285.7z M404.5,1291.3c-0.1,2.8-2.4,5-5.2,4.9 c-1.9,0-3.5-1.2-4.4-2.7c0-0.1-0.1-0.1-0.2-0.1l-10.6-0.3l-2.2-2l3.2-2.4l1.3,1.4c0,0,0,0,0,0c0.1,0.1,0.3,0.1,0.4,0l1.4-1.3 l1.3,1.4c0,0,0,0,0,0c0.1,0.1,0.3,0.1,0.4,0l1.5-1.4l3.5,0.1c0.1,0,0.2,0,0.2-0.1c0.9-1.5,2.6-2.6,4.5-2.5 C402.4,1286.3,404.6,1288.6,404.5,1291.3z M401.3,1289.5c-1,0-1.8,0.7-1.8,1.7c0,1,0.7,1.8,1.7,1.8c1,0,1.8-0.7,1.8-1.7 C403,1290.3,402.2,1289.5,401.3,1289.5z M402.5,1291.3c0,0.7-0.6,1.2-1.3,1.2c-0.7,0-1.2-0.6-1.2-1.3c0-0.7,0.6-1.2,1.3-1.2 C401.9,1290,402.5,1290.6,402.5,1291.3z M399.6,1286.2c-1.9,0-3.6,1-4.5,2.5c0,0.1-0.1,0.1-0.2,0.1l-3.5-0.1l-1.5,1.4 c-0.1,0.1-0.3,0.1-0.4,0c0,0,0,0,0,0l-1.3-1.4l-1.4,1.3c-0.1,0.1-0.3,0.1-0.4,0c0,0,0,0,0,0l-1.3-1.4l-3.2,2.4l2.2,2l10.6,0.3 c0.1,0,0.2,0.1,0.2,0.1c0.8,1.6,2.4,2.7,4.4,2.7c2.8,0.1,5.1-2.1,5.2-4.9C404.6,1288.6,402.4,1286.3,399.6,1286.2z M403,1291.3 c0,1-0.8,1.7-1.8,1.7c-1,0-1.7-0.8-1.7-1.8c0-1,0.8-1.7,1.8-1.7C402.2,1289.5,403,1290.3,403,1291.3z"
              transform="translate(0 -952.362)"/>
        <line id="leftLine" x1="378.2" x2="336.3" y1="338.9" y2="338.9" fill="none" stroke="#09B9B3"
              stroke-width="1.581"/>

        <line id="belowLine" x1="252.4" x2="252.4" y1="258.1" y2="216.2" fill="none" stroke="#09B9B3"
              stroke-width="1.581"/>
        <path class="key2" fill="#FFFFFF" stroke="#01244A" stroke-width=".79"
              d="M252.4,1143.7c-1,0-1.7,0.8-1.7,1.8c0,1,0.8,1.7,1.8,1.7c1,0,1.7-0.8,1.7-1.8C254.2,1144.5,253.3,1143.7,252.4,1143.7z M253.7,1145.5c0,0.7-0.5,1.3-1.2,1.3c-0.7,0-1.3-0.5-1.3-1.2c0-0.7,0.5-1.3,1.2-1.3C253.1,1144.2,253.7,1144.8,253.7,1145.5z M252.4,1143.7c-1,0-1.7,0.8-1.7,1.8c0,1,0.8,1.7,1.8,1.7c1,0,1.7-0.8,1.7-1.8C254.2,1144.5,253.3,1143.7,252.4,1143.7z M253.7,1145.5c0,0.7-0.5,1.3-1.2,1.3c-0.7,0-1.3-0.5-1.3-1.2c0-0.7,0.5-1.3,1.2-1.3C253.1,1144.2,253.7,1144.8,253.7,1145.5z M252.3,1141.7c-3.1,0.1-5.5,2.6-5.4,5.7c0.1,2,1.2,3.8,2.9,4.7l0.3,10.6c0,0.1,0,0.1,0.1,0.2l2.3,2.5c0.1,0.1,0.3,0.1,0.4,0 c0,0,0,0,0,0l2.7-3.6c0.1-0.1,0.1-0.2,0-0.3l-1.4-1.3l1.3-1.4c0.1-0.1,0.1-0.3,0-0.4c0,0,0,0,0,0l-1.4-1.3l1.3-1.4 c0,0,0.1-0.1,0.1-0.2l-0.1-3.5c1.6-1,2.7-2.8,2.6-4.8C257.9,1144.1,255.4,1141.7,252.3,1141.7z M257.5,1147.1c0,1.9-1,3.6-2.5,4.5 c-0.1,0-0.1,0.1-0.1,0.2l0.1,3.5l-1.4,1.5c-0.1,0.1-0.1,0.3,0,0.4c0,0,0,0,0,0l1.4,1.3l-1.3,1.4c-0.1,0.1-0.1,0.3,0,0.4 c0,0,0,0,0,0l1.4,1.3l-2.4,3.2l-2-2.2l-0.3-10.6c0-0.1-0.1-0.2-0.1-0.2c-1.6-0.8-2.7-2.4-2.7-4.4c-0.1-2.8,2.1-5.1,4.9-5.2 C255.1,1142.2,257.4,1144.4,257.5,1147.1z M252.4,1143.7c-1,0-1.7,0.8-1.7,1.8c0,1,0.8,1.7,1.8,1.7c1,0,1.7-0.8,1.7-1.8 C254.2,1144.5,253.3,1143.7,252.4,1143.7z M253.7,1145.5c0,0.7-0.5,1.3-1.2,1.3c-0.7,0-1.3-0.5-1.3-1.2c0-0.7,0.5-1.3,1.2-1.3 C253.1,1144.2,253.7,1144.8,253.7,1145.5z M252.3,1142.2c-2.8,0.1-5,2.4-4.9,5.2c0,1.9,1.2,3.5,2.7,4.4c0.1,0,0.1,0.1,0.1,0.2 l0.3,10.6l2,2.2l2.4-3.2l-1.4-1.3c0,0,0,0,0,0c-0.1-0.1-0.1-0.3,0-0.4l1.3-1.4l-1.4-1.3c0,0,0,0,0,0c-0.1-0.1-0.1-0.3,0-0.4 l1.4-1.5l-0.1-3.5c0-0.1,0-0.2,0.1-0.2c1.5-0.9,2.6-2.6,2.5-4.5C257.4,1144.4,255.1,1142.2,252.3,1142.2z M254.2,1145.5 c0,1-0.7,1.8-1.7,1.8c-1,0-1.8-0.7-1.8-1.7c0-1,0.7-1.8,1.7-1.8C253.3,1143.7,254.2,1144.5,254.2,1145.5z"
              transform="translate(0 -952.362)"/>
        <line id="aboveLine" x1="252.6" x2="252.6" y1="185.8" y2="155.1" fill="none" stroke="#09B9B3"
              stroke-width="1.581"/>
    </g>
    <g id="techLineBurst" fill="#FFFFFF" stroke="#EF442E" stroke-width="1.581">
        <circle class="bottomLineEnd" cx="172.5" cy="438.9" r="3"/>
        <circle class="topLineEnd" cx="150.3" cy="430.8" r="3"/>
        <circle class="mainLineEnd" cx="153.3" cy="443.2" r="3"/>
        <circle class="topLineEnd" cx="510.4" cy="69.5" r="3"/>
        <circle class="mainLineEnd" cx="94.8" cy="229.5" r="2.1"/>
        <circle class="bottomLineEnd" cx="101.2" cy="214.3" r="2.1"/>
        <circle class="topLineEnd" cx="86.8" cy="222.3" r="2.1"/>
        <circle class="bottomLineEnd" cx="528.6" cy="81.4" r="3"/>
        <circle class="mainLineEnd" cx="364" cy="507.5" r="2.1"/>
        <circle class="topLineEnd" cx="379.2" cy="501.1" r="2.1"/>
        <circle class="bottomLineEnd" cx="371.2" cy="515.5" r="2.1"/>
    </g>
    <g id="sliderMask">
        <rect width="37.9" height="15.4" x="377.5" y="44.6" fill="none" stroke="#09B9B3" stroke-width="1.581"/>
        <g class="movingDashArray" clip-path="url(#topSliderMask)">
            <line class="dashedSliderLineDark" fill="none" stroke="#022166" stroke-width="23.37" stroke-dashoffset="0"
                  x1="440.4" x2="358.7" y1="52.3" y2="52.3" stroke-dasharray="1.6442,7.8715"/>
            <line class="dashedSliderLineTeal" fill="none" stroke="#09B9B3" stroke-width="23.37" x1="440.4" x2="358.7"
                  y1="52.3" y2="52.3" stroke-dashoffset="0" stroke-dasharray="1.6442,7.8715"/>
        </g>
        <rect width="37.9" height="15.4" x="525.7" y="191" fill="none" stroke="#09B9B3" stroke-width="1.581"
              transform="rotate(90 544.618 198.657)"/>
        <g clip-path="url(#rightSliderMask)">
            <line class="dashedSliderLineDark2" fill="none" stroke="#022166" stroke-width="23.37" x1="544.6" x2="544.6"
                  y1="242.6" y2="160.9" stroke-dashoffset="0" stroke-dasharray="1.6442,7.8715"/>
            <line class="dashedSliderLineTeal2" fill="none" stroke="#09B9B3" stroke-width="23.37" x1="544.6" x2="544.6"
                  y1="242.6" y2="160.9" stroke-dashoffset="0" stroke-dasharray="1.6442,7.8715"/>
        </g>
    </g>
    <g id="insideGrowingCircle" fill="none" stroke="#09B9B3" stroke-width="1.581">
        <line x1="543" x2="547.8" y1="39.1" y2="39.1"/>
        <line x1="543.7" x2="548.3" y1="43.3" y2="42.1"/>
        <line x1="545.4" x2="549.5" y1="47.3" y2="44.9"/>
        <line x1="548.1" x2="551.4" y1="50.6" y2="47.3"/>
        <line x1="551.5" x2="553.9" y1="53.2" y2="49"/>
        <line x1="555.5" x2="556.8" y1="54.7" y2="50.1"/>
        <line x1="559.8" x2="559.8" y1="55.2" y2="50.5"/>
        <line x1="564" x2="562.8" y1="54.6" y2="50"/>
        <line x1="568" x2="565.6" y1="52.9" y2="48.7"/>
        <line x1="571.3" x2="568" y1="50.2" y2="46.8"/>
        <line x1="573.9" x2="569.8" y1="46.7" y2="44.3"/>
        <line x1="575.5" x2="570.9" y1="42.7" y2="41.5"/>
        <line x1="575.9" x2="571.2" y1="38.4" y2="38.4"/>
        <line x1="575.3" x2="570.7" y1="34.2" y2="35.4"/>
        <line x1="573.6" x2="569.4" y1="30.2" y2="32.6"/>
        <line x1="570.9" x2="567.5" y1="26.9" y2="30.2"/>
        <line x1="567.4" x2="565" y1="24.3" y2="28.5"/>
        <line x1="563.4" x2="562.2" y1="22.8" y2="27.4"/>
        <line x1="559.2" x2="559.2" y1="22.3" y2="27.1"/>
        <line x1="554.9" x2="556.1" y1="22.9" y2="27.5"/>
        <line x1="551" x2="553.3" y1="24.7" y2="28.8"/>
        <line x1="547.6" x2="551" y1="27.3" y2="30.7"/>
        <line x1="545.1" x2="549.2" y1="30.8" y2="33.2"/>
        <line x1="543.5" x2="548.1" y1="34.8" y2="36"/>
    </g>
    <g id="outsideGrowingCircle" fill="none" stroke="#09B9B3" stroke-width="1.581">
        <line x1="314.3" x2="305.1" y1="466.1" y2="459.4"/>
        <line x1="300.9" x2="292.8" y1="481.9" y2="473.8"/>
        <line x1="285.2" x2="278.4" y1="495.3" y2="486"/>
        <line x1="267.5" x2="262.3" y1="506.2" y2="495.9"/>
        <line x1="248.4" x2="244.9" y1="514.1" y2="503.2"/>
        <line x1="228.3" x2="226.5" y1="518.9" y2="507.6"/>
        <line x1="207.7" x2="207.7" y1="520.6" y2="509.1"/>
        <line x1="187" x2="188.8" y1="519" y2="507.7"/>
        <line x1="166.9" x2="170.4" y1="514.2" y2="503.3"/>
        <line x1="147.8" x2="153" y1="506.3" y2="496"/>
        <line x1="130.1" x2="136.8" y1="495.5" y2="486.2"/>
        <line x1="114.3" x2="122.5" y1="482" y2="473.9"/>
        <line x1="100.9" x2="110.2" y1="466.3" y2="459.6"/>
        <line x1="90.1" x2="100.3" y1="448.7" y2="443.5"/>
        <line x1="82.1" x2="93" y1="429.5" y2="426"/>
        <line x1="77.3" x2="88.6" y1="409.4" y2="407.6"/>
        <line x1="75.6" x2="87.1" y1="388.8" y2="388.8"/>
        <line x1="77.2" x2="88.6" y1="368.1" y2="369.9"/>
        <line x1="82" x2="93" y1="348" y2="351.6"/>
        <line x1="89.9" x2="100.2" y1="328.9" y2="334.1"/>
        <line x1="100.7" x2="110" y1="311.2" y2="318"/>
        <line x1="114.2" x2="122.3" y1="295.5" y2="303.6"/>
        <line x1="129.9" x2="136.7" y1="282" y2="291.3"/>
    </g>
    <g id="floatingDots">
        <circle class="floatingCenter2" cx="244.3" cy="34.9" r="3.4" fill="#FFFFFF" stroke="#01244A"
                stroke-width="1.581"/>
        <circle class="floatingCenter2" cx="564.1" cy="355.3" r="3.4" fill="#FFFFFF" stroke="#01244A"
                stroke-width="1.581"/>
        <circle class="floatingCenter3" cx="303.2" cy="34.9" r="3.4" fill="#FFFFFF" stroke="#01244A"
                stroke-width="1.581"/>
        <circle class="floatingCenter3" cx="564.1" cy="296.4" r="3.4" fill="#FFFFFF" stroke="#01244A"
                stroke-width="1.581"/>
        <circle class="floatingCenter" cx="273.7" cy="34.7" r="4.8" fill="#FFFFFF" stroke="#EF442E"
                stroke-width="1.581"/>
        <ellipse class="floatingCenterDash" cx="273.7" cy="34.9" fill="none" stroke="#09B9B3"
                 stroke-dasharray="2.6869,2.6869" stroke-width="1.581" rx="11.1" ry="11.1"
                 transform="rotate(-20.82 273.73 34.955)"/>
        <circle class="floatingCenter" cx="564.3" cy="325.9" r="4.8" fill="#FFFFFF" stroke="#EF442E"
                stroke-width="1.581"/>
        <circle class="floatingCenterDash" cx="564.1" cy="325.9" r="11.1" fill="none" stroke="#09B9B3"
                stroke-dasharray="2.6869,2.6869" stroke-width="1.581"/>
        <circle class="floatingCenter" cx="266" cy="328.4" r="5.1" fill="#FFFFFF" stroke="#EF442E"
                stroke-width="1.581"/>
        <circle class="floatingCenterDash" cx="265.8" cy="328.6" r="11.9" fill="none" stroke="#09B9B3"
                stroke-dasharray="2.6677,2.6677" stroke-width="1.581"/>
    </g>
    <script xlink:href="https://cdnjs.cloudflare.com/ajax/libs/gsap/1.19.0/TweenMax.min.js"></script>
    <script type="application/ecmascript"><![CDATA[
    var timeline = new TimelineMax({onComplete:onComplete});

timeline.addLabel("time_track1", 0.25);

var tweens = TweenMax.staggerTo(".rayLine",1000,{ease:Linear.easeNone,repeat:-1,"stroke-dashoffset":-20000}, .35);

for(var i=0;i<tweens.length;i++){
	var tween = tweens[i];
	tween.progress(Math.random()+0.5);
	tween.timeScale(Math.random()+0.5);
}

timeline.set("svg", {opacity:1});

timeline.staggerFrom(".mainLineEnd", .15, {ease:Power2.easeOut, scale:.0001, transformOrigin:"center", repeat:-1, yoyo:true, repeatDelay:.25},.1, "time_track1-=2");
timeline.staggerFrom(".topLineEnd", .15, {ease:Power2.easeOut, scale:.0001, transformOrigin:"center", repeat:-1, yoyo:true, repeatDelay:.5}, .1, "time_track1-=2");
timeline.staggerFrom(".bottomLineEnd", .15, {ease:Power2.easeOut, scale:.0001, transformOrigin:"center", repeat:-1, yoyo:true, repeatDelay:.75},.1, "time_track1-=2");
timeline.fromTo(".largeBurst", 2.5, {ease:Linear.easeNone,repeat:-1,"stroke-dashoffset":0}, {ease:Linear.easeNone,repeat:-1,"stroke-dashoffset":-40}, "time_track1");
timeline.fromTo(".smallBurst", 2.5, {ease:Linear.easeNone,repeat:-1,"stroke-dashoffset":0}, {ease:Linear.easeNone,repeat:-1,"stroke-dashoffset":-40}, "time_track1-=1");

timeline.staggerFrom("#circleTrail circle", .5, {scale:0.0001, ease:Power2.easeInOut, yoyo:true, repeat:-1, transformOrigin:"center", repeatDelay:.5}, .1, "time_track1");
timeline.staggerFrom("#bottomLeft circle", .5, {scale:0.0001, ease:Power2.easeInOut, yoyo:true, repeat:-1, transformOrigin:"center", repeatDelay:1}, .1, "time_track1");
timeline.staggerFrom("#topRight circle", .5, {scale:0.0001, ease:Power2.easeInOut, yoyo:true, repeat:-1, transformOrigin:"center", repeatDelay:1}, .1, "time_track1");

timeline.staggerFrom("#outsideGrowingCircle line", 1, {scale:.0001, ease:Power2.easeInOut, transformOrigin:"center", yoyo:true, repeat:-1, repeatDelay:.5},.1, "time_track1");
timeline.staggerFrom("#insideGrowingCircle line", 1, {scale:.0001, ease:Power2.easeInOut, transformOrigin:"center", yoyo:true, repeat:-1},.08, "time_track1-=1.5");

timeline.to(".key2", 2, {y:-930, ease:Sine.easeInOut, yoyo:true, repeat:-1}, "time_track1-=4");
timeline.to("#aboveLine", 2, {scaleY:1.69, transformOrigin:"50% 0%", ease:Sine.easeInOut, repeat:-1, yoyo:true}, "time_track1-=4");
timeline.to("#belowLine", 2, {scaleY:.46, transformOrigin:"50% 100%", ease:Sine.easeInOut, repeat:-1, yoyo:true}, "time_track1-=4");

timeline.to(".key1", 2, {x:-21, ease:Sine.easeInOut, yoyo:true, repeat:-1}, "time_track1-=4");
timeline.to("#rightLine", 2, {scaleX:1.69, transformOrigin:"100% 50%", ease:Sine.easeInOut, repeat:-1, yoyo:true}, "time_track1-=4");
timeline.to("#leftLine", 2, {scaleX:.46, transformOrigin:"0% 520%", ease:Sine.easeInOut, repeat:-1, yoyo:true}, "time_track1-=4");

timeline.fromTo(".dashedBreathLine", 200, {ease:Linear.easeNone,repeat:-1,"stroke-dashoffset":0}, {ease:Linear.easeNone,repeat:-1,"stroke-dashoffset":3000}, "time_track1-=.25");

timeline.fromTo(".dashedSliderLineDark", 200, {ease:Linear.easeNone,repeat:-1,"stroke-dashoffset":100}, {ease:Linear.easeNone,repeat:-1,"stroke-dashoffset":4100}, "time_track1-=.25");
timeline.fromTo(".dashedSliderLineTeal", 200, {ease:Linear.easeNone,repeat:-1,"stroke-dashoffset":0}, {ease:Linear.easeNone,repeat:-1,"stroke-dashoffset":4000}, "time_track1-=.25");
timeline.fromTo(".dashedSliderLineDark2", 200, {ease:Linear.easeNone,repeat:-1,"stroke-dashoffset":100}, {ease:Linear.easeNone,repeat:-1,"stroke-dashoffset":-3900}, "time_track1-=.25");
timeline.fromTo(".dashedSliderLineTeal2", 200, {ease:Linear.easeNone,repeat:-1,"stroke-dashoffset":0}, {ease:Linear.easeNone,repeat:-1,"stroke-dashoffset":-4000}, "time_track1-=.25");

timeline.staggerFrom(".floatingCenter", .3, {scale:.0001, transformOrigin:"center", ease:Linear.easeNone, yoyo:true, repeat:-1, repeatDelay:.35}, .5, "time_track1");
timeline.staggerFrom(".floatingCenter2", .3, {scale:.0001, transformOrigin:"center", ease:Linear.easeNone, yoyo:true, repeat:-1, repeatDelay:.35}, .35, "time_track1+=.25");
timeline.staggerFrom(".floatingCenter3", .3, {scale:.0001, transformOrigin:"center", ease:Linear.easeNone, yoyo:true, repeat:-1, repeatDelay:.35}, .35, "time_track1+=.5");
timeline.fromTo(".floatingCenterDash", 50, {ease:Linear.easeNone,repeat:-1,"stroke-dashoffset":0}, {ease:Linear.easeNone,repeat:-1,"stroke-dashoffset":1000}, "time_track1");

var isComplete=true;
function onComplete(){
	isComplete=true;
}
    ]]></script>

</svg>



