<svg width="2410px" height="417px" viewBox="0 0 2410 417" version="1.1"
     xmlns="http://www.w3.org/2000/svg" xmlns:xlink="http://www.w3.org/1999/xlink">
    <g id="Components" stroke="none" stroke-width="1" fill="none" fill-rule="evenodd">
        <g id="Feature-Zone" transform="translate(785, -4250.000000)">
            <g id="Radian-/-Organisms-/-Feature-Zone-/-Large-/-No-Illustration-/-Left-Blue-/-Desktop"
               transform="translate(68.000000, 4190.000000)">
                <g id="Keystone" transform="translate(-205.000000, -170.000000) scale(1.5, 1)" fill="#f2fbfb">
                    <path
                        d="M1140.66448,-1435.98976 C1101.00325,-1472.67079 1051.74985,-1478.20206 1008.48305,-1450.64277 L-65.4315271,-764.668642 C-133.325025,-721.388905 -177,-625.222495 -177,-519.158028 L-176.93197,912.081518 C-176.93197,979.427117 -153.325714,1041.43553 -113.664483,1078.01952 C-74.0032512,1114.79759 -24.8178818,1120.13478 18.5169458,1092.57549 L1092.49956,406.698403 C1160.32502,363.418667 1204,267.155216 1204,161.187789 L1203.93197,-1270.05176 C1203.93197,-1337.39736 1180.32571,-1399.30873 1140.66448,-1435.98976 Z"
                        transform="translate(513.500000, -179.000000) rotate(60.000000) translate(-513.500000, 179.000000) "></path>
                </g>
            </g>
        </g>
    </g>
</svg>
