<svg id="Layer_1" data-name="Layer 1" xmlns="http://www.w3.org/2000/svg" viewBox="0 0 60 60"><defs><style>.cls-1{fill:#fedeb6;}.cls-2{fill:#cdf1ef;}.cls-3{fill:#fff;}.cls-4{fill:#fec687;}.cls-5{fill:#1db9b2;}</style></defs><title>Alarm- On Dark</title><rect class="cls-1" x="7.81" y="34.34" width="1" height="4.3"/><rect class="cls-1" x="6.16" y="35.99" width="4.29" height="1"/><rect class="cls-2" x="49.36" y="15.33" width="1" height="4.3" transform="translate(2.25 40.37) rotate(-45)"/><rect class="cls-2" x="47.71" y="16.97" width="4.3" height="1" transform="translate(2.25 40.37) rotate(-45)"/><rect class="cls-2" x="23.05" y="3.87" width="1" height="4.3" transform="translate(2.64 18.41) rotate(-45)"/><rect class="cls-2" x="21.4" y="5.52" width="4.3" height="1" transform="translate(2.64 18.41) rotate(-45)"/><path class="cls-2" d="M53,41.7a1.51,1.51,0,0,1-1.26-.82c-.12-.2-.27-.33-.39-.33H51c-.12,0-.27.13-.39.33a1.51,1.51,0,0,1-1.26.82h-.39a1.5,1.5,0,0,1-1.25-.82c-.12-.2-.27-.33-.4-.33h-.38c-.12,0-.28.13-.4.33a1.49,1.49,0,0,1-1.25.82h-.39a1.49,1.49,0,0,1-1.25-.82c-.12-.2-.28-.33-.4-.33H43v-1h.19a1.51,1.51,0,0,1,1.26.82c.12.21.27.33.39.33h.39c.12,0,.27-.12.39-.33a1.51,1.51,0,0,1,1.26-.82h.38a1.51,1.51,0,0,1,1.26.82c.12.21.27.33.39.33h.39c.12,0,.28-.12.4-.33A1.48,1.48,0,0,1,51,39.55h.39a1.49,1.49,0,0,1,1.25.82c.12.21.27.33.4.33Z"/><path class="cls-1" d="M40.07,7.82a2.15,2.15,0,1,1,2.16-2.15A2.15,2.15,0,0,1,40.07,7.82Zm0-3.3a1.15,1.15,0,1,0,1.16,1.15A1.15,1.15,0,0,0,40.07,4.52Z"/><path class="cls-2" d="M5.06,27.4a2.16,2.16,0,1,1,2.15-2.15A2.16,2.16,0,0,1,5.06,27.4Zm0-3.31a1.16,1.16,0,1,0,1.15,1.16A1.16,1.16,0,0,0,5.06,24.09Z"/><path class="cls-1" d="M13.82,13.79H10V9.93h3.86Zm-2.86-1h1.86V10.93H11Z"/><path class="cls-1" d="M50.38,32.42H46.52V28.56h3.86Zm-2.86-1h1.86V29.56H47.52Z"/><path class="cls-2" d="M41.59,54.86c0,.79-6,1.42-13.31,1.42S15,55.65,15,54.86s5.95-1.42,13.3-1.42S41.59,54.08,41.59,54.86Z"/><path class="cls-3" d="M36.8,41.77H18.06v-14a9.37,9.37,0,0,1,18.74,0Zm-17.74-1H35.8v-13a8.37,8.37,0,0,0-16.74,0Z"/><path class="cls-3" d="M33.61,32.73h-1V28a5.19,5.19,0,0,0-5.18-5.18v-1A6.18,6.18,0,0,1,33.61,28Z"/><path class="cls-4" d="M38.11,44H16.75a.5.5,0,0,1-.5-.5V41.27a.5.5,0,0,1,.5-.5H38.11a.5.5,0,0,1,.5.5v2.27A.5.5,0,0,1,38.11,44ZM17.25,43H37.61V41.77H17.25Z"/><path class="cls-4" d="M40.94,47.34h-27a.5.5,0,0,1-.5-.5V45.09a2.05,2.05,0,0,1,2-2.05H39.4a2,2,0,0,1,2,2.05v1.75A.5.5,0,0,1,40.94,47.34Zm-26.52-1h26V45.09a1,1,0,0,0-1-1.05H15.46a1,1,0,0,0-1,1.05Z"/><rect class="cls-5" x="26.93" y="11.74" width="1" height="4.52"/><rect class="cls-5" x="21.67" y="12.79" width="1" height="4.52" transform="translate(-4.07 9.63) rotate(-22.5)"/><rect class="cls-5" x="17.2" y="15.77" width="1" height="4.52" transform="translate(-7.57 17.8) rotate(-45)"/><rect class="cls-5" x="14.22" y="20.24" width="1" height="4.52" transform="translate(-11.7 27.49) rotate(-67.5)"/><rect class="cls-5" x="11.41" y="27.26" width="4.52" height="1"/><rect class="cls-5" x="38.93" y="27.26" width="4.52" height="1"/><rect class="cls-5" x="37.89" y="22" width="4.52" height="1" transform="matrix(0.92, -0.38, 0.38, 0.92, -5.55, 17.08)"/><rect class="cls-5" x="34.9" y="17.53" width="4.52" height="1" transform="translate(-1.87 31.56) rotate(-45)"/><rect class="cls-5" x="30.44" y="14.55" width="4.52" height="1" transform="translate(6.28 39.5) rotate(-67.49)"/></svg>