<svg id="Layer_1" data-name="Layer 1" xmlns="http://www.w3.org/2000/svg" xmlns:xlink="http://www.w3.org/1999/xlink" viewBox="0 0 60 60"><defs><style>.cls-1,.cls-2,.cls-3{fill:none;}.cls-2{clip-rule:evenodd;}.cls-3{fill-rule:evenodd;}.cls-4{clip-path:url(#clip-path);}.cls-5{fill:#fff;}.cls-6{clip-path:url(#clip-path-2);}.cls-7{isolation:isolate;}.cls-8{clip-path:url(#clip-path-3);}.cls-9{clip-path:url(#clip-path-4);}.cls-10{fill:#08bbb4;}.cls-11{clip-path:url(#clip-path-5);}.cls-12{clip-path:url(#clip-path-6);}.cls-13{clip-path:url(#clip-path-7);}.cls-14{fill:#979797;}.cls-15{clip-path:url(#clip-path-9);}.cls-16{fill:#d8d8d8;}.cls-17{clip-path:url(#clip-path-14);}.cls-18{clip-path:url(#clip-path-16);}.cls-19{clip-path:url(#clip-path-17);}</style><clipPath id="clip-path"><rect class="cls-1" x="17.48" y="3.44" width="26.4" height="50.62" transform="translate(-4.53 5.76) rotate(-10)"/></clipPath><clipPath id="clip-path-2"><rect class="cls-1" x="27.65" y="38.66" width="9.03" height="9.08" rx="0.69" transform="translate(-7.01 6.24) rotate(-10)"/></clipPath><clipPath id="clip-path-3"><rect class="cls-1" x="18.47" y="32.06" width="27.08" height="22.47"/></clipPath><clipPath id="clip-path-4"><rect class="cls-1" x="26.54" y="37.82" width="10.95" height="10.95"/></clipPath><clipPath id="clip-path-5"><path class="cls-2" d="M35.41,37.25,32,47a.18.18,0,0,1-.15.13l0,0a.21.21,0,0,1-.3,0h0L30.34,45.8a.24.24,0,0,1,0-.32.22.22,0,0,1,.3,0h0l1.05,1.08L35,37.09a.21.21,0,0,1,.27-.13h0A.23.23,0,0,1,35.41,37.25Z"/></clipPath><clipPath id="clip-path-6"><rect class="cls-1" x="27.12" y="32.63" width="11.53" height="19.02"/></clipPath><clipPath id="clip-path-7"><rect class="cls-1" x="30" y="36.67" width="5.76" height="10.95"/></clipPath><clipPath id="clip-path-9"><rect class="cls-1" x="25.96" y="35.51" width="13.83" height="13.25"/></clipPath><clipPath id="clip-path-14"><rect class="cls-1" x="27.34" y="36.92" width="11.14" height="10.79" transform="translate(-6.85 6.36) rotate(-10)"/></clipPath><clipPath id="clip-path-16"><path class="cls-2" d="M35.75,34.41l-.5.09.25-1-1-1.42L35,32l.65,1,.25-1.12.51-.09ZM33.6,32.64a.46.46,0,0,0-.36.58.47.47,0,0,0,.54.42.41.41,0,0,0,.35-.37l.44.06a.82.82,0,0,1-.71.75.93.93,0,0,1-1.09-.78.91.91,0,0,1,.74-1.1.82.82,0,0,1,.93.45l-.4.22A.39.39,0,0,0,33.6,32.64Zm-2-.65a.3.3,0,1,1,.34.24A.29.29,0,0,1,31.6,32Zm.95,2.26-.48.09-.31-1.78.47-.08Zm-1,.18-.48.08-.46-2.61.47-.09Zm-2.1-1.52a1,1,0,0,1,.33,1.88A.91.91,0,0,1,28.72,34,.92.92,0,0,1,29.47,32.91Zm.26,1.45a.46.46,0,0,0,.35-.59.46.46,0,1,0-.89.16A.47.47,0,0,0,29.73,34.36ZM28,34.14a.47.47,0,0,0-.53-.42.45.45,0,0,0-.35.57.47.47,0,0,0,.53.43A.46.46,0,0,0,28,34.14Zm-.59,1.73-.48.08-.43-2.46.46-.08,0,.21a.61.61,0,0,1,.49-.35.84.84,0,0,1,1,.78.85.85,0,0,1-.66,1.08.63.63,0,0,1-.55-.12Zm10.71-8.3.18,1-.48.08-.31-1.77.46-.08L38,27a.57.57,0,0,1,.46-.36.63.63,0,0,1,.76.59l.19,1.12-.47.08-.18-1c0-.2-.16-.34-.39-.3A.34.34,0,0,0,38.13,27.57Zm-1.68,1a.36.36,0,0,0,.31-.48V28l-.39.13a.23.23,0,0,0-.18.26A.21.21,0,0,0,36.45,28.6Zm-.74-.05a.56.56,0,0,1,.43-.63l.42-.14c.1,0,.13-.09.11-.15s-.13-.22-.33-.18a.32.32,0,0,0-.29.34h-.44a.72.72,0,0,1,.66-.72.66.66,0,0,1,.88.54l.15.87a2.83,2.83,0,0,0,.07.28l-.43.08a1.05,1.05,0,0,1-.06-.21.63.63,0,0,1-1.17-.07Zm-1.42-1.14a1,1,0,1,1-.76,1.1A.91.91,0,0,1,34.29,27.41Zm.25,1.45a.47.47,0,0,0,.36-.59.46.46,0,0,0-.54-.42.46.46,0,0,0-.35.58A.46.46,0,0,0,34.54,28.86Zm-1.23.61-.47.08-.46-2.61.47-.08Zm-2-1.49.08.49a.32.32,0,0,0-.14,0c-.25,0-.44.2-.37.58l.14.81-.47.08-.31-1.77.46-.08,0,.26A.55.55,0,0,1,31.2,28Zm-2.38.37a.92.92,0,0,1,1.09.78.93.93,0,0,1-.76,1.11,1,1,0,0,1-.33-1.89Zm.26,1.45a.52.52,0,0,0-.18-1,.52.52,0,0,0,.18,1ZM27,28.15a.3.3,0,0,1,.24-.35.3.3,0,0,1,.1.59A.29.29,0,0,1,27,28.15ZM28,30.41l-.48.08-.31-1.77.47-.08Zm-2.27-.65.18,1-.47.08-.32-1.77.46-.08,0,.22a.58.58,0,0,1,.46-.36.63.63,0,0,1,.76.59l.2,1.12-.48.08-.18-1a.32.32,0,0,0-.39-.3A.34.34,0,0,0,25.7,29.76ZM24.46,31s0-.12,0-.19a.57.57,0,0,1-.45.32.66.66,0,0,1-.79-.58L23,29.46l.48-.08.18,1a.31.31,0,0,0,.38.3.32.32,0,0,0,.27-.41l-.18-1,.48-.08.25,1.45c0,.14.06.26.08.32Zm-2.6-2a.3.3,0,1,1,.58-.11.3.3,0,0,1-.24.35A.3.3,0,0,1,21.86,29.06Zm.49,2.45L22,29.63l.47-.08.34,1.93a.54.54,0,0,1-.44.68,1.49,1.49,0,0,1-.28,0L22,31.76h.15A.19.19,0,0,0,22.35,31.51Zm16.21-7.62-.48.09-.46-2.62.48-.08Zm-1.86,0a.35.35,0,0,0,.31-.47v-.08l-.39.13a.23.23,0,0,0-.18.26A.22.22,0,0,0,36.7,23.9Zm-.74,0a.56.56,0,0,1,.43-.63l.43-.14c.09,0,.12-.09.11-.15s-.14-.21-.34-.18a.32.32,0,0,0-.29.35l-.43,0a.71.71,0,0,1,.65-.71.66.66,0,0,1,.88.54l.15.87c0,.09.05.22.07.28l-.43.07a1.91,1.91,0,0,1-.06-.21.59.59,0,0,1-.47.36A.57.57,0,0,1,36,23.85ZM34.7,22.14a.3.3,0,0,1,.24-.35.3.3,0,0,1,.35.25.29.29,0,0,1-.24.34A.3.3,0,0,1,34.7,22.14Zm.95,2.27-.48.08-.31-1.78.48-.08ZM34,22.32l.1.53.35-.07.07.43-.35.06.13.75c0,.15.11.19.25.16a.39.39,0,0,0,.14,0l.07.4a.57.57,0,0,1-.26.09.53.53,0,0,1-.66-.45l-.14-.82-.32.05L33.33,23l.09,0a.26.26,0,0,0,.22-.33l0-.25Zm-2,1.67.18,1-.47.08-.32-1.77.46-.08,0,.22a.58.58,0,0,1,.46-.36.63.63,0,0,1,.76.59l.2,1.12-.47.08-.19-1a.31.31,0,0,0-.38-.3A.35.35,0,0,0,32.05,24Zm-1.2.62.42,0a.81.81,0,0,1-.7.71.92.92,0,0,1-1.08-.79.9.9,0,0,1,.7-1.09.84.84,0,0,1,1,.77l0,.15L30,24.62a.45.45,0,0,0,.52.33A.4.4,0,0,0,30.85,24.61Zm-.91-.32.78-.14a.36.36,0,0,0-.45-.28A.38.38,0,0,0,29.94,24.29Zm-2.16.58c.06.32.28.48.53.43a.51.51,0,0,0-.18-1A.45.45,0,0,0,27.78,24.87Zm1-1.95.4,2.29c0,.12.05.25.07.32l-.45.08s0-.12-.06-.2a.55.55,0,0,1-.44.33A.95.95,0,0,1,28,23.88a.53.53,0,0,1,.54.14l-.18-1Zm-2.67.73a.3.3,0,0,1,.24-.35.29.29,0,0,1,.34.25.28.28,0,0,1-.24.34A.29.29,0,0,1,26.14,23.65Zm.95,2.27-.48.08-.31-1.78.47-.08Zm-2.36-.1.39-.16a.29.29,0,0,0,.37.21c.15,0,.22-.12.2-.21s-.08-.14-.22-.14l-.24,0a.54.54,0,0,1-.59-.44.63.63,0,0,1,.56-.7.65.65,0,0,1,.78.39l-.39.16a.26.26,0,0,0-.33-.18c-.12,0-.21.11-.19.21s.09.13.19.13h.26a.59.59,0,0,1,.62.46.62.62,0,0,1-.58.7A.67.67,0,0,1,24.73,25.82Zm-.67,0,.41.05a.8.8,0,0,1-.7.71,1,1,0,0,1-.37-1.88.84.84,0,0,1,1,.77c0,.07,0,.14,0,.15l-1.26.22a.43.43,0,0,0,.52.32A.39.39,0,0,0,24.06,25.8Zm-.92-.31.79-.14a.36.36,0,0,0-.46-.28A.39.39,0,0,0,23.14,25.49Zm-.79-.58.09.49h-.15c-.24,0-.43.2-.37.58l.15.81-.48.08-.31-1.77.46-.08.05.26a.51.51,0,0,1,.45-.36Z"/></clipPath><clipPath id="clip-path-17"><path class="cls-2" d="M35.32,15.71,35,17.65l1.39-.25Zm2.11,3.52-.62-1-2,.36-.22,1.18-1,.18,1.08-5.15,1.14-.2L38.49,19ZM32.63,16,31,16.31l.7,3.92-1,.18-.69-3.93-1.59.28-.16-.89,4.17-.73Zm-3.76,4.71-3.22.56-.85-4.81,1-.17.69,3.92,2.24-.4Zm-7-2.65L21.46,20l1.39-.25Zm2.11,3.52-.62-1-2,.36-.22,1.17-1,.19,1.08-5.16,1.14-.2L25,21.42Z"/></clipPath></defs><title>ALTA 2- On Dark</title><g class="cls-4"><rect class="cls-5" x="14.6" y="0.56" width="32.16" height="56.38" transform="translate(-4.53 5.76) rotate(-10)"/></g><path class="cls-5" d="M21.51,56.77l-9-51.22L39.85.73l9,51.21ZM14.09,6.68l8.55,48.48,24.63-4.34L38.72,2.33Z"/><g class="cls-6"><g class="cls-7"><g class="cls-8"><g class="cls-9"><path class="cls-10" d="M29.07,49a1.39,1.39,0,0,1-1.36-1.14l-1.34-7.58a1.39,1.39,0,0,1,.23-1,1.33,1.33,0,0,1,.9-.57L35,37.38a1.38,1.38,0,0,1,1.6,1.12L38,46.08a1.39,1.39,0,0,1-.23,1,1.35,1.35,0,0,1-.9.57L29.31,49A1,1,0,0,1,29.07,49Zm6.2-10.29-7.53,1.33,1.33,7.57,7.53-1.32Z"/></g></g></g></g><g class="cls-11"><g class="cls-7"><g class="cls-12"><g class="cls-13"><path class="cls-14" d="M30.56,47.77l.66-.57L30.09,46a.59.59,0,0,1,0-.8.57.57,0,0,1,.8,0l.67.69L34.67,37a.51.51,0,0,1,.29-.32.54.54,0,0,1,.43,0,.58.58,0,0,1,.35.73h0l-3.39,9.72a.54.54,0,0,1-.32.34.63.63,0,0,1-.3.07Z"/></g></g></g></g><g class="cls-11"><g class="cls-7"><g class="cls-15"><g class="cls-11"><g class="cls-13"><g class="cls-7"><g class="cls-12"><g class="cls-13"><path class="cls-16" d="M35.41,37.25,32,47a.18.18,0,0,1-.15.13l0,0a.21.21,0,0,1-.3,0h0L30.34,45.8a.24.24,0,0,1,0-.32.22.22,0,0,1,.3,0h0l1.05,1.08L35,37.09a.21.21,0,0,1,.27-.13h0A.23.23,0,0,1,35.41,37.25Z"/><path class="cls-14" d="M30.56,47.77l.66-.57L30.09,46a.59.59,0,0,1,0-.8.57.57,0,0,1,.8,0l.67.69L34.67,37a.51.51,0,0,1,.29-.32.54.54,0,0,1,.43,0,.58.58,0,0,1,.35.73h0l-3.39,9.72a.54.54,0,0,1-.32.34.63.63,0,0,1-.3.07Z"/></g></g></g></g></g><g class="cls-17"><g class="cls-13"><rect class="cls-10" x="24.46" y="34.04" width="16.91" height="16.55" transform="translate(-6.85 6.36) rotate(-10)"/></g></g></g></g></g><g class="cls-18"><rect class="cls-5" x="18.8" y="19.78" width="23.48" height="18.33" transform="translate(-4.56 5.74) rotate(-10)"/></g><g class="cls-19"><rect class="cls-5" x="16.57" y="12.94" width="24.52" height="10.65" transform="translate(-2.73 5.28) rotate(-10)"/></g><path class="cls-5" d="M45.28,58.45h-.05L22.3,56.68a.7.7,0,0,1-.07-1.38l21.54-3.82a.7.7,0,0,1,.79.52L46,57.58a.66.66,0,0,1-.14.62A.67.67,0,0,1,45.28,58.45ZM27.85,55.72,44.38,57l-1-4Z"/><path class="cls-5" d="M23.39,54.42a.18.18,0,0,1-.17-.15l-.3-1.7a.16.16,0,0,1,.14-.2.17.17,0,0,1,.2.14l.3,1.7a.16.16,0,0,1-.14.2ZM22.78,51a.17.17,0,0,1-.17-.14l-.3-1.7a.17.17,0,0,1,.14-.21.18.18,0,0,1,.2.15l.3,1.7a.17.17,0,0,1-.14.2Zm-.61-3.41a.17.17,0,0,1-.17-.14l-.31-1.71a.18.18,0,0,1,.35-.06l.3,1.71a.17.17,0,0,1-.14.2Zm-.61-3.41a.17.17,0,0,1-.17-.14l-.31-1.71a.19.19,0,0,1,.14-.2.17.17,0,0,1,.2.14L21.73,44a.18.18,0,0,1-.14.2ZM21,40.77a.17.17,0,0,1-.17-.14l-.31-1.71a.19.19,0,0,1,.14-.2.17.17,0,0,1,.2.14l.31,1.71a.18.18,0,0,1-.14.2Zm-.61-3.41a.16.16,0,0,1-.17-.15l-.31-1.7a.17.17,0,0,1,.14-.2.16.16,0,0,1,.2.14l.31,1.7a.17.17,0,0,1-.14.2ZM19.73,34a.16.16,0,0,1-.17-.15l-.31-1.7a.17.17,0,0,1,.14-.2.17.17,0,0,1,.2.14l.31,1.7a.17.17,0,0,1-.14.2Zm-.61-3.42a.16.16,0,0,1-.17-.14l-.31-1.71a.18.18,0,0,1,.14-.2.19.19,0,0,1,.2.14l.31,1.71a.19.19,0,0,1-.14.2Zm-.62-3.41a.18.18,0,0,1-.17-.14L18,25.27a.17.17,0,0,1,.14-.2.19.19,0,0,1,.2.14l.31,1.71a.18.18,0,0,1-.15.2Zm-.61-3.41a.18.18,0,0,1-.17-.14l-.3-1.71a.17.17,0,0,1,.14-.2.19.19,0,0,1,.2.14l.3,1.71a.17.17,0,0,1-.14.2Zm-.61-3.41a.18.18,0,0,1-.17-.14l-.3-1.71a.17.17,0,0,1,.34-.06l.3,1.7a.17.17,0,0,1-.14.21Zm-.61-3.41a.18.18,0,0,1-.17-.15L16.2,15a.16.16,0,0,1,.14-.2.17.17,0,0,1,.2.14l.3,1.7a.16.16,0,0,1-.14.2Zm-.61-3.42a.17.17,0,0,1-.17-.14l-.31-1.7a.18.18,0,0,1,.35-.07l.3,1.71a.17.17,0,0,1-.14.2Zm-.61-3.41a.17.17,0,0,1-.17-.14L15,8.21a.19.19,0,0,1,.14-.2.17.17,0,0,1,.2.14l.31,1.71a.18.18,0,0,1-.14.2Z"/></svg>