<svg id="Layer_1" data-name="Layer 1" xmlns="http://www.w3.org/2000/svg" xmlns:xlink="http://www.w3.org/1999/xlink" viewBox="0 0 60 60"><defs><style>.cls-1,.cls-2,.cls-3{fill:none;}.cls-2{clip-rule:evenodd;}.cls-3{fill-rule:evenodd;}.cls-4{fill:#08bbb4;}.cls-5{clip-path:url(#clip-path);}.cls-6{isolation:isolate;}.cls-7{clip-path:url(#clip-path-2);}.cls-8{clip-path:url(#clip-path-3);}.cls-9{fill:#fff;}.cls-10{clip-path:url(#clip-path-4);}.cls-11{clip-path:url(#clip-path-5);}.cls-12{clip-path:url(#clip-path-6);}.cls-13{fill:#979797;}.cls-14{clip-path:url(#clip-path-8);}.cls-15{fill:#d8d8d8;}.cls-16{clip-path:url(#clip-path-13);}.cls-17{clip-path:url(#clip-path-15);}.cls-18{clip-path:url(#clip-path-16);}</style><clipPath id="clip-path"><rect class="cls-1" x="21.67" y="34.37" width="9.91" height="9.81" rx="0.52" transform="translate(-16.67 58.68) rotate(-80)"/></clipPath><clipPath id="clip-path-2"><rect class="cls-1" x="14.25" y="24.1" width="24.5" height="30.48"/></clipPath><clipPath id="clip-path-3"><rect class="cls-1" x="20.78" y="33.35" width="11.98" height="11.98"/></clipPath><clipPath id="clip-path-4"><path class="cls-2" d="M31.87,34.66h0L25.13,42.5a.25.25,0,0,1-.21.08h0a.23.23,0,0,1-.3-.11l-.79-1.62a.23.23,0,0,1,.11-.3h0a.24.24,0,0,1,.31.11L24.94,42l6.58-7.64a.22.22,0,0,1,.32,0A.21.21,0,0,1,31.87,34.66Z"/></clipPath><clipPath id="clip-path-5"><rect class="cls-1" x="20.23" y="31.72" width="15.24" height="13.61"/></clipPath><clipPath id="clip-path-6"><rect class="cls-1" x="23.5" y="33.9" width="8.71" height="9.25"/></clipPath><clipPath id="clip-path-8"><rect class="cls-1" x="20.78" y="31.72" width="13.61" height="13.61"/></clipPath><clipPath id="clip-path-13"><rect class="cls-1" x="21.95" y="32.98" width="11.32" height="11" transform="translate(-15.08 59) rotate(-80)"/></clipPath><clipPath id="clip-path-15"><path class="cls-1" d="M35.46,23.93l-.8,1.42,1.07.19ZM36,27.26l-.16-1L34.29,26l-.48.85-.8-.13L35.2,23l.86.15.76,4.27Zm-2.56-3.81-1.22-.22-.57,3.27-.76-.14.58-3.26-1.22-.22.13-.74,3.19.57Zm-4,2.66L27,25.68l.71-4,.75.13-.58,3.26,1.72.3Zm-4.32-4-.8,1.42,1.06.19Zm.54,3.33-.15-1L24,24.2l-.48.86-.79-.14,2.18-3.75.87.16.76,4.26Z"/></clipPath><clipPath id="clip-path-16"><path class="cls-1" d="M39.39,30.91l.34.18a.73.73,0,0,1-.82.39.89.89,0,0,1,.27-1.75.77.77,0,0,1,.64,1c0,.06,0,.13,0,.14l-1.15-.21a.42.42,0,0,0,.34.45A.37.37,0,0,0,39.39,30.91Zm-.68-.56.71.13a.33.33,0,0,0-.3-.39A.35.35,0,0,0,38.71,30.35Zm-1.34-.51a.41.41,0,0,0-.48.38.43.43,0,0,0,.32.54.37.37,0,0,0,.42-.21l.36.19a.76.76,0,0,1-.85.43.85.85,0,0,1-.68-1,.84.84,0,0,1,1-.73.75.75,0,0,1,.65.69l-.41.06A.35.35,0,0,0,37.37,29.84Zm-2.23-.05-.17.94-.43-.07L34.83,29l.42.07,0,.2a.53.53,0,0,1,.5-.16.58.58,0,0,1,.47.75l-.19,1-.43-.07.17-1a.29.29,0,0,0-.24-.38A.31.31,0,0,0,35.14,29.79Zm-1.76.37a.34.34,0,0,0,.42-.32v-.07h-.37a.21.21,0,0,0-.23.17A.19.19,0,0,0,33.38,30.16Zm-.61-.28a.51.51,0,0,1,.57-.41h.4c.09,0,.13,0,.14-.1s-.05-.22-.23-.26a.29.29,0,0,0-.35.22l-.37-.15a.64.64,0,0,1,.78-.42c.5.09.64.41.58.74l-.14.81a1.38,1.38,0,0,0,0,.26l-.39-.07a.79.79,0,0,1,0-.2.52.52,0,0,1-.52.16A.52.52,0,0,1,32.77,29.88Zm0-1.23-.08.45-.13,0c-.22,0-.43,0-.49.39L32,30.2l-.43-.08.29-1.64.42.08,0,.24a.48.48,0,0,1,.5-.18ZM30.67,30a1.36,1.36,0,0,1,0-.18.5.5,0,0,1-.48.15.62.62,0,0,1-.49-.76l.18-1,.44.07-.17,1a.29.29,0,0,0,.23.38.3.3,0,0,0,.36-.27l.17-1,.43.07-.24,1.35a2.13,2.13,0,0,0,0,.3ZM28.07,29h.39a.27.27,0,0,0,.24.3c.15,0,.23,0,.24-.13s0-.14-.14-.19l-.2-.09a.49.49,0,0,1-.36-.56.57.57,0,0,1,.69-.44.58.58,0,0,1,.54.59l-.37,0a.26.26,0,0,0-.23-.27.19.19,0,0,0-.23.13c0,.08,0,.14.12.17l.22.09a.53.53,0,0,1,.38.59.57.57,0,0,1-.71.43A.63.63,0,0,1,28.07,29Zm-1.24-.72-.17.95-.43-.08.29-1.64.42.08,0,.2a.56.56,0,0,1,.51-.17.58.58,0,0,1,.46.75l-.18,1-.43-.08.17-.95c0-.19,0-.35-.24-.38A.3.3,0,0,0,26.83,28.32Zm-1.16-1.47a.27.27,0,1,1,.54.09.27.27,0,1,1-.54-.09Zm.1,2.26L25.34,29l.29-1.64.43.08Zm-1.85-.92.34.17a.73.73,0,0,1-.82.39A.89.89,0,0,1,23.71,27a.78.78,0,0,1,.64,1c0,.07,0,.13,0,.14l-1.14-.2a.39.39,0,0,0,.33.44A.36.36,0,0,0,23.92,28.19Zm-.68-.56.71.12a.32.32,0,0,0-.3-.38A.35.35,0,0,0,23.24,27.63Zm-.95.87-.43-.08L22.28,26l.43.07Zm-.74-2.33-.08.49.32.06-.07.39-.32-.06-.12.69a.16.16,0,0,0,.15.22.35.35,0,0,0,.14,0l-.07.37a.65.65,0,0,1-.25,0,.49.49,0,0,1-.42-.6L21,27l-.29-.05.07-.4.08,0a.23.23,0,0,0,.29-.22l0-.23Zm-1.46-.31a.27.27,0,0,1,.31-.23.29.29,0,0,1,.22.33.28.28,0,0,1-.32.22A.27.27,0,0,1,20.09,25.86Zm.1,2.26-.44-.07L20,26.41l.43.08Zm-.74-2.32-.08.49.32.06-.07.39-.32-.06-.13.69a.17.17,0,0,0,.16.22.31.31,0,0,0,.13,0L19.4,28a.65.65,0,0,1-.25,0,.49.49,0,0,1-.42-.6l.14-.76-.29-.05.07-.4.08,0A.23.23,0,0,0,19,26l0-.23Z"/></clipPath></defs><title>ALTA- On Dark</title><path class="cls-4" d="M39.52,55.37,10.74,50.29,19.4,1.21,48.18,6.28ZM12,49.44l26.71,4.71L47,7.13,20.25,2.42Z"/><g class="cls-5"><g class="cls-6"><g class="cls-7"><g class="cls-8"><path class="cls-9" d="M30.17,45.71l-.22,0-8.63-1.52a1.36,1.36,0,0,1-.85-.54,1.32,1.32,0,0,1-.22-1l1.54-8.73a1.31,1.31,0,0,1,1.52-1.06h0l8.63,1.52A1.31,1.31,0,0,1,33,35.9l-1.53,8.72A1.33,1.33,0,0,1,30.17,45.71Zm-8.32-3.05L30,44.09l1.45-8.21L23.3,34.45ZM23,34.4Z"/></g></g></g></g><g class="cls-10"><g class="cls-6"><g class="cls-11"><g class="cls-12"><path class="cls-13" d="M24.86,42.86a.45.45,0,0,1-.2,0l-.95-.11.65-.22L23.62,41a.49.49,0,0,1,.23-.66.5.5,0,0,1,.67.23l.48,1,6.31-7.33a.49.49,0,0,1,.7-.06.49.49,0,0,1,.08.68l0,0-6.74,7.83a.49.49,0,0,1-.38.17Zm.06-.4v0Zm6.75-8h0Z"/></g></g></g></g><g class="cls-10"><g class="cls-6"><g class="cls-14"><g class="cls-10"><g class="cls-12"><g class="cls-6"><g class="cls-11"><g class="cls-12"><path class="cls-15" d="M31.87,34.66h0L25.13,42.5a.25.25,0,0,1-.21.08h0a.23.23,0,0,1-.3-.11l-.79-1.62a.23.23,0,0,1,.11-.3h0a.24.24,0,0,1,.31.11L24.94,42l6.58-7.64a.22.22,0,0,1,.32,0A.21.21,0,0,1,31.87,34.66Z"/><path class="cls-13" d="M24.86,42.86a.45.45,0,0,1-.2,0l-.95-.11.65-.22L23.62,41a.49.49,0,0,1,.23-.66.5.5,0,0,1,.67.23l.48,1,6.31-7.33a.49.49,0,0,1,.7-.06.49.49,0,0,1,.08.68l0,0-6.74,7.83a.49.49,0,0,1-.38.17Zm.06-.4v0Zm6.75-8h0Z"/></g></g></g></g></g><g class="cls-16"><g class="cls-12"><rect class="cls-9" x="19.23" y="30.26" width="16.77" height="16.44" transform="translate(-15.08 59) rotate(-80)"/></g></g></g></g></g><g class="cls-17"><rect class="cls-9" x="25.36" y="14.27" width="9.51" height="19.78" transform="translate(1.09 49.62) rotate(-80)"/></g><g class="cls-18"><rect class="cls-9" x="25.23" y="14.94" width="7.98" height="27.08" transform="translate(-3.9 52.32) rotate(-80)"/></g><path class="cls-4" d="M13.06,48.66h0a.16.16,0,0,1-.13-.19l0-.12a.16.16,0,0,1,.19-.13.18.18,0,0,1,.13.19l0,.12A.18.18,0,0,1,13.06,48.66Zm.16-.89h0a.16.16,0,0,1-.13-.19l.14-.78a.17.17,0,0,1,.19-.13.18.18,0,0,1,.13.19l-.14.78A.18.18,0,0,1,13.22,47.77Zm.28-1.55h0a.16.16,0,0,1-.13-.19l.14-.77a.16.16,0,0,1,.19-.13.17.17,0,0,1,.13.18l-.14.78A.17.17,0,0,1,13.5,46.22Zm.28-1.55h0a.16.16,0,0,1-.13-.19l.14-.77a.16.16,0,0,1,.19-.13.18.18,0,0,1,.13.19l-.14.77A.17.17,0,0,1,13.78,44.67Zm.28-1.54h0a.16.16,0,0,1-.13-.19l.14-.78a.17.17,0,0,1,.19-.13.18.18,0,0,1,.13.19l-.14.77A.18.18,0,0,1,14.06,43.13Zm.28-1.55h0a.16.16,0,0,1-.13-.19l.14-.77a.15.15,0,0,1,.18-.13.16.16,0,0,1,.14.18l-.14.78A.17.17,0,0,1,14.34,41.58ZM14.62,40h0a.16.16,0,0,1-.13-.19l.14-.77a.15.15,0,0,1,.18-.13.17.17,0,0,1,.14.19l-.14.77A.17.17,0,0,1,14.62,40Zm.28-1.54h0a.15.15,0,0,1-.13-.18l.14-.78a.16.16,0,0,1,.18-.13.16.16,0,0,1,.13.19l-.13.77A.18.18,0,0,1,14.9,38.49Zm.28-1.55h0a.16.16,0,0,1-.13-.19l.14-.78a.17.17,0,0,1,.18-.13.16.16,0,0,1,.13.19l-.14.78A.16.16,0,0,1,15.18,36.94Zm.28-1.55h0a.16.16,0,0,1-.13-.19l.14-.77a.15.15,0,0,1,.18-.13.16.16,0,0,1,.13.19l-.14.77A.15.15,0,0,1,15.46,35.39Zm.27-1.54h0a.17.17,0,0,1-.14-.19l.14-.77a.16.16,0,0,1,.19-.13.16.16,0,0,1,.13.19l-.14.77A.16.16,0,0,1,15.73,33.85ZM16,32.3h0a.16.16,0,0,1-.14-.18l.14-.78a.18.18,0,0,1,.19-.13.16.16,0,0,1,.13.19l-.14.77A.16.16,0,0,1,16,32.3Zm.28-1.55h0a.18.18,0,0,1-.13-.19l.14-.77a.16.16,0,0,1,.19-.13.15.15,0,0,1,.13.18l-.14.78A.15.15,0,0,1,16.29,30.75Zm.28-1.55h0a.17.17,0,0,1-.13-.19l.14-.77a.16.16,0,0,1,.19-.13.16.16,0,0,1,.13.19l-.14.77A.15.15,0,0,1,16.57,29.2Zm.28-1.54h0a.17.17,0,0,1-.13-.18l.14-.78a.17.17,0,0,1,.19-.13.16.16,0,0,1,.13.19l-.14.77A.16.16,0,0,1,16.85,27.66Zm.28-1.55h0a.18.18,0,0,1-.13-.19l.14-.77A.18.18,0,0,1,17.3,25a.16.16,0,0,1,.13.19l-.14.78A.16.16,0,0,1,17.13,26.11Zm.28-1.55h0a.18.18,0,0,1-.13-.19l.14-.77a.16.16,0,0,1,.19-.13.16.16,0,0,1,.13.19l-.14.77A.15.15,0,0,1,17.41,24.56ZM17.69,23h0a.17.17,0,0,1-.13-.19l.14-.77a.17.17,0,0,1,.19-.13.16.16,0,0,1,.13.19l-.14.77A.15.15,0,0,1,17.69,23ZM18,21.47h0a.17.17,0,0,1-.13-.19L18,20.5a.18.18,0,0,1,.19-.13.16.16,0,0,1,.13.19l-.14.77A.16.16,0,0,1,18,21.47Zm.28-1.55h0a.17.17,0,0,1-.13-.19l.14-.77a.16.16,0,0,1,.19-.13.15.15,0,0,1,.13.18l-.14.78A.15.15,0,0,1,18.25,19.92Zm.28-1.55h0a.16.16,0,0,1-.13-.19l.14-.77a.16.16,0,0,1,.19-.13.16.16,0,0,1,.13.19l-.14.77A.15.15,0,0,1,18.53,18.37Zm.28-1.54h0a.16.16,0,0,1-.13-.18l.14-.78a.17.17,0,0,1,.19-.13.16.16,0,0,1,.13.19l-.14.77A.16.16,0,0,1,18.81,16.83Zm.28-1.55h0a.16.16,0,0,1-.13-.19l.14-.78a.18.18,0,0,1,.19-.13.16.16,0,0,1,.13.19l-.14.78A.16.16,0,0,1,19.09,15.28Zm.28-1.55h0a.16.16,0,0,1-.13-.19l.14-.77a.16.16,0,0,1,.19-.13.16.16,0,0,1,.13.19l-.14.77A.16.16,0,0,1,19.37,13.73Zm.28-1.54h0a.16.16,0,0,1-.13-.19l.14-.77a.16.16,0,1,1,.32.06l-.14.77A.17.17,0,0,1,19.65,12.19Zm.28-1.55h0a.16.16,0,0,1-.13-.19l.14-.78a.18.18,0,0,1,.19-.13.17.17,0,0,1,.13.19l-.14.77A.17.17,0,0,1,19.93,10.64Zm.28-1.55h0a.16.16,0,0,1-.13-.19l.14-.77A.16.16,0,0,1,20.38,8a.16.16,0,0,1,.13.18L20.37,9A.16.16,0,0,1,20.21,9.09Zm.28-1.55h0a.16.16,0,0,1-.13-.19l.14-.77a.16.16,0,0,1,.19-.13.17.17,0,0,1,.13.19l-.14.77A.16.16,0,0,1,20.49,7.54ZM20.77,6h0a.15.15,0,0,1-.13-.18L20.75,5a.16.16,0,0,1,.19-.13.18.18,0,0,1,.13.19l-.14.77A.18.18,0,0,1,20.77,6Zm.28-1.55h0a.16.16,0,0,1-.13-.19L21,3.49a.17.17,0,0,1,.19-.14.18.18,0,0,1,.13.19l-.14.78A.18.18,0,0,1,21.05,4.45Z"/><path class="cls-4" d="M35.09,58l-24-7.79.25-1L36.42,53.7Zm-16.3-6.39,15.62,5.06.66-2.12Z"/></svg>