<svg id="Layer_1" data-name="Layer 1" xmlns="http://www.w3.org/2000/svg" viewBox="0 0 60 60"><defs><style>.cls-1{fill:#fedeb6;}.cls-2{fill:#cdf1ef;}.cls-3{fill:#fec687;}.cls-4{fill:#022c48;}</style></defs><title>Calculator Paper- On Light</title><rect class="cls-1" x="4.58" y="36.72" width="1" height="4.3"/><rect class="cls-1" x="2.93" y="38.37" width="4.3" height="1"/><rect class="cls-2" x="52.94" y="41.81" width="1" height="4.3" transform="translate(-15.43 50.66) rotate(-45)"/><rect class="cls-2" x="51.29" y="43.45" width="4.3" height="1" transform="translate(-15.43 50.67) rotate(-45)"/><rect class="cls-2" x="21.37" y="2.25" width="1" height="4.3" transform="translate(3.3 16.75) rotate(-45)"/><rect class="cls-2" x="19.72" y="3.89" width="4.3" height="1" transform="translate(3.3 16.75) rotate(-45)"/><path class="cls-1" d="M58.43,37.94a1.5,1.5,0,0,1-1.25-.82c-.12-.21-.27-.33-.39-.33H56.4c-.12,0-.28.12-.4.33a1.48,1.48,0,0,1-1.25.82h-.39a1.49,1.49,0,0,1-1.25-.82c-.12-.21-.27-.33-.4-.33h-.38c-.13,0-.28.12-.4.33a1.49,1.49,0,0,1-1.25.82h-.39A1.51,1.51,0,0,1,49,37.12c-.12-.21-.27-.33-.39-.33h-.19v-1h.19a1.48,1.48,0,0,1,1.25.82c.12.2.28.33.4.33h.39c.12,0,.27-.13.39-.33a1.51,1.51,0,0,1,1.26-.82h.38a1.51,1.51,0,0,1,1.26.82c.12.2.27.33.39.33h.39c.12,0,.27-.13.39-.33a1.51,1.51,0,0,1,1.26-.82h.39a1.5,1.5,0,0,1,1.25.82c.12.2.27.33.39.33Z"/><path class="cls-1" d="M44.51,9.47a2.16,2.16,0,1,1,2.16-2.15A2.15,2.15,0,0,1,44.51,9.47Zm0-3.31a1.16,1.16,0,1,0,1.16,1.16A1.16,1.16,0,0,0,44.51,6.16Z"/><path class="cls-2" d="M5.08,28.58a2.16,2.16,0,1,1,2.15-2.16A2.16,2.16,0,0,1,5.08,28.58Zm0-3.31a1.16,1.16,0,1,0,1.15,1.15A1.16,1.16,0,0,0,5.08,25.27Z"/><path class="cls-1" d="M12.3,15.76H8.44V11.89H12.3Zm-2.86-1H11.3V12.89H9.44Z"/><path class="cls-2" d="M55.67,28.28H51.81V24.42h3.86Zm-2.86-1h1.86V25.42H52.81Z"/><path class="cls-2" d="M44,56.06c0,.79-6,1.42-13.31,1.42s-13.3-.63-13.3-1.42,6-1.42,13.3-1.42S44,55.28,44,56.06Z"/><rect class="cls-2" x="30.15" y="28.76" width="11.25" height="4.23"/><rect class="cls-3" x="18.17" y="38.75" width="5.8" height="1"/><path class="cls-3" d="M18.17,39.75A3.73,3.73,0,0,1,14.45,36V10.47l2.41,1.26,1.91-1,1.91,1,1.91-1,1.91,1,1.91-1,1.91,1,2.41-1.26V16h-1v-3.9l-1.41.74-1.91-1-1.91,1-1.91-1-1.91,1-1.91-1-1.91,1-1.41-.74V36a2.73,2.73,0,0,0,5.45,0V20.4a3.73,3.73,0,0,1,3.72-3.73H40.56a3.73,3.73,0,0,1,3.73,3.73v5.66H27.35V20.4a2.73,2.73,0,1,0-5.45,0V36A3.73,3.73,0,0,1,18.17,39.75ZM28.35,25.06H43.29V20.4a2.73,2.73,0,0,0-2.73-2.73H27.16a3.72,3.72,0,0,1,1.19,2.73Z"/><polygon class="cls-4" points="46.92 48.98 24.63 48.98 24.63 22.67 26.69 22.67 26.69 23.67 25.63 23.67 25.63 47.98 45.92 47.98 45.92 23.67 45 23.67 45 22.67 46.92 22.67 46.92 48.98"/><path class="cls-4" d="M41.9,33.49H29.65V28.26H41.9Zm-11.25-1H40.9V29.26H30.65Z"/><rect class="cls-2" x="29.65" y="35.21" width="2.9" height="1"/><rect class="cls-4" x="34.32" y="35.21" width="2.9" height="1"/><rect class="cls-2" x="39" y="35.21" width="2.9" height="1"/><rect class="cls-4" x="29.65" y="37.93" width="2.9" height="1"/><rect class="cls-2" x="34.32" y="37.93" width="2.9" height="1"/><rect class="cls-4" x="39" y="37.93" width="2.9" height="1"/><rect class="cls-4" x="29.65" y="40.64" width="2.9" height="1"/><rect class="cls-4" x="34.32" y="40.64" width="2.9" height="1"/><rect class="cls-2" x="39" y="40.64" width="2.9" height="1"/><rect class="cls-2" x="29.65" y="43.36" width="2.9" height="1"/><rect class="cls-4" x="34.32" y="43.36" width="2.9" height="1"/><rect class="cls-4" x="39" y="43.36" width="2.9" height="1"/></svg>