<svg id="Layer_1" data-name="Layer 1" xmlns="http://www.w3.org/2000/svg" xmlns:xlink="http://www.w3.org/1999/xlink" viewBox="0 0 60 60"><defs><style>.cls-1,.cls-2{fill:none;}.cls-2{clip-rule:evenodd;}.cls-3{clip-path:url(#clip-path);}.cls-36,.cls-4{fill:#cdf1ef;}.cls-5{clip-path:url(#clip-path-2);}.cls-6{clip-path:url(#clip-path-3);}.cls-7{clip-path:url(#clip-path-4);}.cls-8{clip-path:url(#clip-path-5);}.cls-9{isolation:isolate;}.cls-10{clip-path:url(#clip-path-6);}.cls-11{clip-path:url(#clip-path-7);}.cls-12{fill:#fedeb6;}.cls-13{clip-path:url(#clip-path-9);}.cls-14{clip-path:url(#clip-path-10);}.cls-15{clip-path:url(#clip-path-11);}.cls-16{clip-path:url(#clip-path-12);}.cls-17{clip-path:url(#clip-path-13);}.cls-18{clip-path:url(#clip-path-15);}.cls-19{clip-path:url(#clip-path-16);}.cls-20{fill:#fff;}.cls-21{clip-path:url(#clip-path-17);}.cls-22{clip-path:url(#clip-path-19);}.cls-23{clip-path:url(#clip-path-21);}.cls-24{clip-path:url(#clip-path-23);}.cls-25{clip-path:url(#clip-path-25);}.cls-26{clip-path:url(#clip-path-27);}.cls-27{clip-path:url(#clip-path-29);}.cls-28{clip-path:url(#clip-path-31);}.cls-29{clip-path:url(#clip-path-33);}.cls-30{clip-path:url(#clip-path-35);}.cls-31{clip-path:url(#clip-path-37);}.cls-32{clip-path:url(#clip-path-39);}.cls-33{clip-path:url(#clip-path-41);}.cls-34{clip-path:url(#clip-path-43);}.cls-35{clip-path:url(#clip-path-45);}.cls-36{fill-rule:evenodd;}</style><clipPath id="clip-path"><rect class="cls-1" x="50.07" y="38.76" width="1.06" height="4.54" transform="translate(-14.19 47.79) rotate(-44.99)"/></clipPath><clipPath id="clip-path-2"><rect class="cls-1" x="48.33" y="40.5" width="4.54" height="1.06" transform="translate(-14.19 47.8) rotate(-45)"/></clipPath><clipPath id="clip-path-3"><rect class="cls-1" x="24.08" y="4.31" width="1.06" height="4.54" transform="translate(2.54 19.31) rotate(-44.96)"/></clipPath><clipPath id="clip-path-4"><rect class="cls-1" x="22.33" y="6.06" width="4.54" height="1.06" transform="translate(2.55 19.33) rotate(-45)"/></clipPath><clipPath id="clip-path-5"><rect class="cls-1" x="44.26" y="30.27" width="10.57" height="2.28"/></clipPath><clipPath id="clip-path-6"><rect class="cls-1" x="44.04" y="29.94" width="10.84" height="2.83"/></clipPath><clipPath id="clip-path-7"><path class="cls-2" d="M54.83,32.55a1.58,1.58,0,0,1-1.33-.87c-.13-.21-.29-.35-.42-.35h-.41c-.13,0-.29.14-.42.35a1.58,1.58,0,0,1-1.33.87h-.4a1.58,1.58,0,0,1-1.33-.87c-.13-.21-.29-.35-.42-.35h-.41c-.13,0-.29.14-.42.35a1.58,1.58,0,0,1-1.32.87h-.41a1.59,1.59,0,0,1-1.33-.87c-.13-.21-.29-.35-.42-.35h-.2V30.27h.2a1.59,1.59,0,0,1,1.33.87c.13.22.29.35.42.35h.41c.13,0,.29-.13.41-.35a1.59,1.59,0,0,1,1.33-.87h.41a1.59,1.59,0,0,1,1.33.87c.13.22.29.35.42.35h.4c.14,0,.3-.13.42-.35a1.6,1.6,0,0,1,1.33-.87h.41a1.59,1.59,0,0,1,1.33.87c.13.22.29.35.42.35Z"/></clipPath><clipPath id="clip-path-9"><path class="cls-2" d="M38,12a2.28,2.28,0,1,1,2.28-2.27A2.28,2.28,0,0,1,38,12m0-3.5A1.23,1.23,0,1,0,39.2,9.68,1.23,1.23,0,0,0,38,8.45"/></clipPath><clipPath id="clip-path-10"><path class="cls-2" d="M7.9,25.82a2.28,2.28,0,1,1,2.28-2.28A2.28,2.28,0,0,1,7.9,25.82m0-3.5a1.22,1.22,0,1,0,1.22,1.22A1.22,1.22,0,0,0,7.9,22.32"/></clipPath><clipPath id="clip-path-11"><path class="cls-2" d="M10.39,12.26h4.09V8.17H10.39Zm1.06-1.06h2v-2h-2Z"/></clipPath><clipPath id="clip-path-12"><rect class="cls-1" x="3.51" y="4.49" width="51.37" height="50.9"/></clipPath><clipPath id="clip-path-13"><path class="cls-2" d="M45.7,22.33h4.08V18.25H45.7Zm1.06-1h2v-2h-2Z"/></clipPath><clipPath id="clip-path-15"><path class="cls-2" d="M37.88,15.22h0l-21.54.08.1,31.08L40,46.3l-.11-31.08Zm1.06,29.91-21.46.07-.1-28.72,20.49-.07h1Z"/></clipPath><clipPath id="clip-path-16"><rect class="cls-1" x="3.51" y="4.48" width="51.37" height="50.9" transform="translate(-0.1 0.1) rotate(-0.2)"/></clipPath><clipPath id="clip-path-17"><rect class="cls-1" x="22.2" y="22.67" width="11.91" height="4.47"/></clipPath><clipPath id="clip-path-19"><path class="cls-2" d="M21.68,27.67h13V22.14h-13Zm1.05-1.06H33.58V23.2H22.73Z"/></clipPath><clipPath id="clip-path-21"><rect class="cls-1" x="21.68" y="30.19" width="3.07" height="1.06"/></clipPath><clipPath id="clip-path-23"><rect class="cls-1" x="26.62" y="30.19" width="3.07" height="1.06"/></clipPath><clipPath id="clip-path-25"><rect class="cls-1" x="31.57" y="30.19" width="3.07" height="1.06"/></clipPath><clipPath id="clip-path-27"><rect class="cls-1" x="27.88" y="19.59" width="6.76" height="1.06"/></clipPath><clipPath id="clip-path-29"><rect class="cls-1" x="21.68" y="33.77" width="3.07" height="1.06"/></clipPath><clipPath id="clip-path-31"><rect class="cls-1" x="26.62" y="33.77" width="3.07" height="1.06"/></clipPath><clipPath id="clip-path-33"><rect class="cls-1" x="31.57" y="33.77" width="3.07" height="1.06"/></clipPath><clipPath id="clip-path-35"><rect class="cls-1" x="21.68" y="37.36" width="3.07" height="1.06"/></clipPath><clipPath id="clip-path-37"><rect class="cls-1" x="26.62" y="37.36" width="3.07" height="1.06"/></clipPath><clipPath id="clip-path-39"><rect class="cls-1" x="31.57" y="37.36" width="3.07" height="1.06"/></clipPath><clipPath id="clip-path-41"><rect class="cls-1" x="21.68" y="40.94" width="3.07" height="1.06"/></clipPath><clipPath id="clip-path-43"><rect class="cls-1" x="26.62" y="40.94" width="3.07" height="1.06"/></clipPath><clipPath id="clip-path-45"><rect class="cls-1" x="31.57" y="40.94" width="3.07" height="1.06"/></clipPath></defs><title>Calculator- On Dark</title><g class="cls-3"><rect class="cls-4" x="46.26" y="36.69" width="8.67" height="8.67"/></g><g class="cls-5"><rect class="cls-4" x="46.26" y="36.69" width="8.67" height="8.67"/></g><g class="cls-6"><rect class="cls-4" x="20.27" y="2.25" width="8.67" height="8.67"/></g><g class="cls-7"><rect class="cls-4" x="20.27" y="2.25" width="8.67" height="8.67"/></g><g class="cls-8"><g class="cls-9"><g class="cls-10"><g class="cls-11"><g class="cls-10"><rect class="cls-12" x="41.9" y="27.92" width="15.28" height="6.99"/></g></g></g></g></g><g class="cls-13"><rect class="cls-12" x="33.34" y="5.04" width="9.27" height="9.27"/></g><g class="cls-14"><rect class="cls-4" x="3.26" y="18.91" width="9.27" height="9.27"/></g><g class="cls-15"><g class="cls-16"><rect class="cls-12" x="8.04" y="5.81" width="8.8" height="8.8"/></g></g><g class="cls-17"><g class="cls-16"><rect class="cls-4" x="43.34" y="15.89" width="8.8" height="8.8"/></g></g><g class="cls-18"><g class="cls-19"><rect class="cls-20" x="14.01" y="12.9" width="28.29" height="35.8" transform="translate(-0.11 0.1) rotate(-0.2)"/></g></g><g class="cls-21"><g class="cls-16"><rect class="cls-4" x="19.85" y="20.31" width="16.62" height="9.19"/></g></g><g class="cls-22"><g class="cls-16"><rect class="cls-20" x="19.32" y="19.78" width="17.68" height="10.24"/></g></g><g class="cls-23"><g class="cls-16"><rect class="cls-4" x="19.32" y="27.84" width="7.78" height="5.77"/></g></g><g class="cls-24"><g class="cls-16"><rect class="cls-20" x="24.27" y="27.84" width="7.78" height="5.77"/></g></g><g class="cls-25"><g class="cls-16"><rect class="cls-4" x="29.21" y="27.84" width="7.78" height="5.77"/></g></g><g class="cls-26"><g class="cls-16"><rect class="cls-4" x="25.52" y="17.23" width="11.47" height="5.77"/></g></g><g class="cls-27"><g class="cls-16"><rect class="cls-20" x="19.32" y="31.42" width="7.78" height="5.77"/></g></g><g class="cls-28"><g class="cls-16"><rect class="cls-4" x="24.27" y="31.42" width="7.78" height="5.77"/></g></g><g class="cls-29"><g class="cls-16"><rect class="cls-20" x="29.21" y="31.42" width="7.78" height="5.77"/></g></g><g class="cls-30"><g class="cls-16"><rect class="cls-20" x="19.32" y="35" width="7.78" height="5.77"/></g></g><g class="cls-31"><g class="cls-16"><rect class="cls-20" x="24.27" y="35" width="7.78" height="5.77"/></g></g><g class="cls-32"><g class="cls-16"><rect class="cls-4" x="29.21" y="35" width="7.78" height="5.77"/></g></g><g class="cls-33"><g class="cls-16"><rect class="cls-4" x="19.32" y="38.58" width="7.78" height="5.77"/></g></g><g class="cls-34"><g class="cls-16"><rect class="cls-20" x="24.27" y="38.58" width="7.78" height="5.77"/></g></g><g class="cls-35"><g class="cls-16"><rect class="cls-20" x="29.21" y="38.58" width="7.78" height="5.77"/></g></g><path class="cls-36" d="M42.23,53.84c0,.83-6.3,1.5-14.07,1.5s-14.08-.67-14.08-1.5,6.31-1.5,14.08-1.5,14.07.67,14.07,1.5"/></svg>