<svg id="Layer_1" data-name="Layer 1" xmlns="http://www.w3.org/2000/svg" xmlns:xlink="http://www.w3.org/1999/xlink" viewBox="0 0 60 60"><defs><style>.cls-1,.cls-2,.cls-43,.cls-58{fill:none;}.cls-1{clip-rule:evenodd;}.cls-3{clip-path:url(#clip-path);}.cls-4{clip-path:url(#clip-path-2);}.cls-5{fill:#cdf1ef;}.cls-6{clip-path:url(#clip-path-3);}.cls-7{clip-path:url(#clip-path-5);}.cls-8{clip-path:url(#clip-path-7);}.cls-9{clip-path:url(#clip-path-9);}.cls-10{clip-path:url(#clip-path-11);}.cls-11{fill:#fedeb6;}.cls-12{clip-path:url(#clip-path-13);}.cls-13{clip-path:url(#clip-path-15);}.cls-14{clip-path:url(#clip-path-17);}.cls-15{fill:#022c48;}.cls-16{clip-path:url(#clip-path-19);}.cls-17{clip-path:url(#clip-path-21);}.cls-18{clip-path:url(#clip-path-23);}.cls-19{clip-path:url(#clip-path-25);}.cls-20{clip-path:url(#clip-path-27);}.cls-21{clip-path:url(#clip-path-29);}.cls-22{clip-path:url(#clip-path-31);}.cls-23{clip-path:url(#clip-path-33);}.cls-24{clip-path:url(#clip-path-35);}.cls-25{clip-path:url(#clip-path-37);}.cls-26{clip-path:url(#clip-path-39);}.cls-27{fill:#fec687;}.cls-28{clip-path:url(#clip-path-41);}.cls-29{clip-path:url(#clip-path-43);}.cls-30{fill:#1db9b2;}.cls-31{clip-path:url(#clip-path-45);}.cls-32{clip-path:url(#clip-path-47);}.cls-33{clip-path:url(#clip-path-49);}.cls-34{clip-path:url(#clip-path-51);}.cls-35{clip-path:url(#clip-path-53);}.cls-36{clip-path:url(#clip-path-55);}.cls-37{clip-path:url(#clip-path-57);}.cls-38{clip-path:url(#clip-path-59);}.cls-39{clip-path:url(#clip-path-61);}.cls-40{isolation:isolate;}.cls-41{clip-path:url(#clip-path-63);}.cls-42{clip-path:url(#clip-path-65);}.cls-43,.cls-58{stroke:#002b49;stroke-miterlimit:10;}.cls-43{stroke-width:2.18px;}.cls-44{clip-path:url(#clip-path-67);}.cls-45{fill:#002b49;}.cls-46{clip-path:url(#clip-path-69);}.cls-47{clip-path:url(#clip-path-71);}.cls-48{clip-path:url(#clip-path-73);}.cls-49{clip-path:url(#clip-path-75);}.cls-50{clip-path:url(#clip-path-77);}.cls-51{clip-path:url(#clip-path-79);}.cls-52{clip-path:url(#clip-path-81);}.cls-53{clip-path:url(#clip-path-83);}.cls-54{clip-path:url(#clip-path-85);}.cls-55{clip-path:url(#clip-path-87);}.cls-56{clip-path:url(#clip-path-89);}.cls-57{clip-path:url(#clip-path-91);}.cls-58{stroke-linecap:square;stroke-width:0.54px;}.cls-59{clip-path:url(#clip-path-94);}.cls-60{clip-path:url(#clip-path-96);}.cls-61{clip-path:url(#clip-path-98);}.cls-62{clip-path:url(#clip-path-100);}.cls-63{clip-path:url(#clip-path-102);}.cls-64{clip-path:url(#clip-path-104);}.cls-65{clip-path:url(#clip-path-106);}</style><clipPath id="clip-path"><polygon class="cls-1" points="7.4 25.71 10.96 22.09 10.13 21.25 6.58 24.87 7.4 25.71"/></clipPath><clipPath id="clip-path-2"><rect class="cls-2" x="-0.32" y="1.47" width="62" height="61"/></clipPath><clipPath id="clip-path-3"><polygon class="cls-1" points="10.13 25.71 10.96 24.87 7.4 21.25 6.58 22.09 10.13 25.71"/></clipPath><clipPath id="clip-path-5"><polygon class="cls-1" points="34.84 8.83 31.29 12.45 30.46 11.61 34.02 7.99 34.84 8.83"/></clipPath><clipPath id="clip-path-7"><polygon class="cls-1" points="34.84 11.61 34.02 12.45 30.46 8.83 31.29 7.99 34.84 11.61"/></clipPath><clipPath id="clip-path-9"><path class="cls-1" d="M51.61,42.44a2.57,2.57,0,1,0-2.52-2.57,2.55,2.55,0,0,0,2.52,2.57m0-3.94a1.37,1.37,0,1,1-1.35,1.37,1.36,1.36,0,0,1,1.35-1.37"/></clipPath><clipPath id="clip-path-11"><polygon class="cls-1" points="27.66 10.84 28.84 10.84 28.85 9.65 27.66 9.65 27.66 10.84"/></clipPath><clipPath id="clip-path-13"><path class="cls-1" d="M14.51,17.11l.77-.87-.81-.81-.83.89Zm1.8-1.77.86-.78-.72-.9-.92.8Zm1.91-1.55.5-.25.49-.32-.56-1.05-.49.32.32.5-.32-.5-.47.3Zm2.21-1.2,1.08-.46L21.08,11l-1.1.47Zm2.37-.9,1.08-.36-.28-1.1-1.17.33Zm2.37-.64.56,0,0-.6-.09-.58.09.58-.1-.58-.55.08Z"/></clipPath><clipPath id="clip-path-15"><polygon class="cls-1" points="13.32 18.62 13.64 18.12 12.68 17.45 12.35 17.95 13.32 18.62"/></clipPath><clipPath id="clip-path-17"><path class="cls-1" d="M23.43,49.6H24.6V45.79H17.38v-10H12.77l.32-6.93A15.28,15.28,0,0,1,28.26,14.08h.59V12.89h-.59A16.46,16.46,0,0,0,11.92,28.77l-.37,8.17h4.66V47h7.22Z"/></clipPath><clipPath id="clip-path-19"><rect class="cls-2" x="44.05" y="9.95" width="1.17" height="1.19"/></clipPath><clipPath id="clip-path-21"><rect class="cls-2" x="41.71" y="9.95" width="1.17" height="1.19"/></clipPath><clipPath id="clip-path-23"><rect class="cls-2" x="41.71" y="12.33" width="1.17" height="1.19"/></clipPath><clipPath id="clip-path-25"><rect class="cls-2" x="36.69" y="9.95" width="1.17" height="1.19"/></clipPath><clipPath id="clip-path-27"><rect class="cls-2" x="39.04" y="9.95" width="1.17" height="1.19"/></clipPath><clipPath id="clip-path-29"><rect class="cls-2" x="39.04" y="7.57" width="1.17" height="1.19"/></clipPath><clipPath id="clip-path-31"><rect class="cls-2" x="46.44" y="42.59" width="1.17" height="1.19"/></clipPath><clipPath id="clip-path-33"><rect class="cls-2" x="46.44" y="40.21" width="1.17" height="1.19"/></clipPath><clipPath id="clip-path-35"><rect class="cls-2" x="46.44" y="37.83" width="1.17" height="1.19"/></clipPath><clipPath id="clip-path-37"><rect class="cls-2" x="46.44" y="35.45" width="1.17" height="1.19"/></clipPath><clipPath id="clip-path-39"><rect class="cls-2" x="32.24" y="20.88" width="13.45" height="1.09"/></clipPath><clipPath id="clip-path-41"><rect class="cls-2" x="29.92" y="27.03" width="15.76" height="1.09"/></clipPath><clipPath id="clip-path-43"><rect class="cls-2" x="29.25" y="17.81" width="9.74" height="1.09"/></clipPath><clipPath id="clip-path-45"><rect class="cls-2" x="29.85" y="30.1" width="5.7" height="1.09"/></clipPath><clipPath id="clip-path-47"><rect class="cls-2" x="36.43" y="30.1" width="1.02" height="1.09"/></clipPath><clipPath id="clip-path-49"><rect class="cls-2" x="38.33" y="30.1" width="1.02" height="1.09"/></clipPath><clipPath id="clip-path-51"><rect class="cls-2" x="30.98" y="23.96" width="8.11" height="1.09"/></clipPath><clipPath id="clip-path-53"><rect class="cls-2" x="39.97" y="23.96" width="1.02" height="1.09"/></clipPath><clipPath id="clip-path-55"><rect class="cls-2" x="41.88" y="23.96" width="1.02" height="1.09"/></clipPath><clipPath id="clip-path-57"><rect class="cls-2" x="39.89" y="17.81" width="1.02" height="1.09"/></clipPath><clipPath id="clip-path-59"><path class="cls-1" d="M53.59,24.5a.51.51,0,0,1-.15.36L46.1,32.94a.56.56,0,0,1-1-.36V27h1.11v4.12l6-6.65-6-6.65V22H45.13V16.43a.54.54,0,0,1,.36-.51.57.57,0,0,1,.61.14l7.34,8.08a.51.51,0,0,1,.15.36"/></clipPath><clipPath id="clip-path-61"><rect class="cls-2" x="29.83" y="35.52" width="15.79" height="13.29" rx="2.18"/></clipPath><clipPath id="clip-path-63"><rect class="cls-2" x="18.68" y="24.47" width="38" height="36"/></clipPath><clipPath id="clip-path-65"><rect class="cls-2" x="29.68" y="35.47" width="16" height="14"/></clipPath><clipPath id="clip-path-67"><rect class="cls-2" x="31.95" y="39.81" width="1.17" height="1.19"/></clipPath><clipPath id="clip-path-69"><rect class="cls-2" x="34.55" y="39.81" width="1.17" height="1.19"/></clipPath><clipPath id="clip-path-71"><rect class="cls-2" x="37.15" y="39.81" width="1.17" height="1.19"/></clipPath><clipPath id="clip-path-73"><rect class="cls-2" x="39.75" y="39.81" width="1.17" height="1.19"/></clipPath><clipPath id="clip-path-75"><rect class="cls-2" x="42.36" y="39.81" width="1.17" height="1.19"/></clipPath><clipPath id="clip-path-77"><rect class="cls-2" x="42.36" y="42.58" width="1.17" height="1.19"/></clipPath><clipPath id="clip-path-79"><rect class="cls-2" x="39.75" y="42.58" width="1.17" height="1.19"/></clipPath><clipPath id="clip-path-81"><rect class="cls-2" x="37.15" y="42.58" width="1.17" height="1.19"/></clipPath><clipPath id="clip-path-83"><rect class="cls-2" x="34.55" y="42.58" width="1.17" height="1.19"/></clipPath><clipPath id="clip-path-85"><rect class="cls-2" x="31.95" y="42.58" width="1.17" height="1.19"/></clipPath><clipPath id="clip-path-87"><rect class="cls-2" x="31.95" y="45.35" width="1.17" height="1.19"/></clipPath><clipPath id="clip-path-89"><rect class="cls-2" x="34.55" y="45.35" width="1.17" height="1.19"/></clipPath><clipPath id="clip-path-91"><rect class="cls-2" x="37.15" y="45.35" width="1.17" height="1.19"/></clipPath><clipPath id="clip-path-94"><rect class="cls-2" x="32.01" y="34.41" width="1.09" height="2.21"/></clipPath><clipPath id="clip-path-96"><rect class="cls-2" x="42.35" y="34.41" width="1.09" height="2.21"/></clipPath><clipPath id="clip-path-98"><polygon class="cls-1" points="23.11 28.44 23.11 27.19 26.78 27.19 26.78 25.76 23.11 24.32 23.1 20.79 28 20.79 28 22.03 24.33 22.03 24.33 23.46 28 24.9 28 28.43 23.11 28.44"/></clipPath><clipPath id="clip-path-100"><rect class="cls-2" x="24.96" y="27.81" width="1.23" height="2.4"/></clipPath><clipPath id="clip-path-102"><rect class="cls-2" x="24.96" y="19.01" width="1.23" height="2.4"/></clipPath><clipPath id="clip-path-104"><rect class="cls-2" x="24.94" y="16.46" width="1.23" height="1.25"/></clipPath><clipPath id="clip-path-106"><rect class="cls-2" x="24.94" y="31.51" width="1.23" height="1.25"/></clipPath></defs><title>Calendar Person- On Light</title><g class="cls-3"><g class="cls-4"><rect class="cls-5" x="1.58" y="16.25" width="14.38" height="14.46"/></g></g><g class="cls-6"><g class="cls-4"><rect class="cls-5" x="1.58" y="16.25" width="14.38" height="14.46"/></g></g><g class="cls-7"><g class="cls-4"><rect class="cls-5" x="25.46" y="2.99" width="14.38" height="14.46"/></g></g><g class="cls-8"><g class="cls-4"><rect class="cls-5" x="25.46" y="2.99" width="14.38" height="14.46"/></g></g><g class="cls-9"><g class="cls-4"><rect class="cls-5" x="44.09" y="32.31" width="15.04" height="15.13"/></g></g><g class="cls-10"><g class="cls-4"><rect class="cls-11" x="22.67" y="4.65" width="11.18" height="11.19"/></g></g><g class="cls-12"><g class="cls-4"><rect class="cls-11" x="8.64" y="4.83" width="22.09" height="17.29"/></g></g><g class="cls-13"><g class="cls-4"><rect class="cls-11" x="7.35" y="12.45" width="11.29" height="11.17"/></g></g><g class="cls-14"><g class="cls-4"><rect class="cls-15" x="6.55" y="7.89" width="27.3" height="46.7"/></g></g><g class="cls-16"><g class="cls-4"><rect class="cls-11" x="39.05" y="4.95" width="11.17" height="11.19"/></g></g><g class="cls-17"><g class="cls-4"><rect class="cls-11" x="36.71" y="4.95" width="11.17" height="11.19"/></g></g><g class="cls-18"><g class="cls-4"><rect class="cls-11" x="36.71" y="7.33" width="11.17" height="11.19"/></g></g><g class="cls-19"><g class="cls-4"><rect class="cls-11" x="31.69" y="4.95" width="11.17" height="11.19"/></g></g><g class="cls-20"><g class="cls-4"><rect class="cls-11" x="34.04" y="4.95" width="11.17" height="11.19"/></g></g><g class="cls-21"><g class="cls-4"><rect class="cls-11" x="34.04" y="2.57" width="11.17" height="11.19"/></g></g><g class="cls-22"><g class="cls-4"><rect class="cls-11" x="41.44" y="37.59" width="11.17" height="11.19"/></g></g><g class="cls-23"><g class="cls-4"><rect class="cls-11" x="41.44" y="35.21" width="11.17" height="11.19"/></g></g><g class="cls-24"><g class="cls-4"><rect class="cls-11" x="41.44" y="32.83" width="11.17" height="11.19"/></g></g><g class="cls-25"><g class="cls-4"><rect class="cls-11" x="41.44" y="30.45" width="11.17" height="11.19"/></g></g><g class="cls-26"><g class="cls-4"><rect class="cls-27" x="27.24" y="15.88" width="23.45" height="11.09"/></g></g><g class="cls-28"><g class="cls-4"><rect class="cls-27" x="24.92" y="22.03" width="25.76" height="11.09"/></g></g><g class="cls-29"><g class="cls-4"><rect class="cls-30" x="24.25" y="12.81" width="19.74" height="11.09"/></g></g><g class="cls-31"><g class="cls-4"><rect class="cls-30" x="24.85" y="25.1" width="15.7" height="11.09"/></g></g><g class="cls-32"><g class="cls-4"><rect class="cls-11" x="31.43" y="25.1" width="11.02" height="11.09"/></g></g><g class="cls-33"><g class="cls-4"><rect class="cls-11" x="33.33" y="25.1" width="11.02" height="11.09"/></g></g><g class="cls-34"><g class="cls-4"><rect class="cls-30" x="25.98" y="18.96" width="18.11" height="11.09"/></g></g><g class="cls-35"><g class="cls-4"><rect class="cls-11" x="34.97" y="18.96" width="11.02" height="11.09"/></g></g><g class="cls-36"><g class="cls-4"><rect class="cls-11" x="36.88" y="18.96" width="11.02" height="11.09"/></g></g><g class="cls-37"><g class="cls-4"><rect class="cls-11" x="34.89" y="12.81" width="11.02" height="11.09"/></g></g><g class="cls-38"><g class="cls-4"><rect class="cls-27" x="40.13" y="10.88" width="18.45" height="27.24"/></g></g><g class="cls-39"><g class="cls-4"><g class="cls-40"><g class="cls-41"><g class="cls-39"><g class="cls-42"><rect class="cls-5" x="29.83" y="35.52" width="15.79" height="13.29" rx="2.18"/></g></g><g class="cls-42"><rect class="cls-43" x="29.83" y="35.52" width="15.79" height="13.29" rx="2.18"/></g></g></g></g></g><g class="cls-44"><g class="cls-4"><rect class="cls-45" x="26.95" y="34.81" width="11.17" height="11.19"/></g></g><g class="cls-46"><g class="cls-4"><rect class="cls-45" x="29.55" y="34.81" width="11.17" height="11.19"/></g></g><g class="cls-47"><g class="cls-4"><rect class="cls-45" x="32.15" y="34.81" width="11.17" height="11.19"/></g></g><g class="cls-48"><g class="cls-4"><rect class="cls-45" x="34.75" y="34.81" width="11.17" height="11.19"/></g></g><g class="cls-49"><g class="cls-4"><rect class="cls-45" x="37.36" y="34.81" width="11.17" height="11.19"/></g></g><g class="cls-50"><g class="cls-4"><rect class="cls-45" x="37.36" y="37.58" width="11.17" height="11.19"/></g></g><g class="cls-51"><g class="cls-4"><rect class="cls-45" x="34.75" y="37.58" width="11.17" height="11.19"/></g></g><g class="cls-52"><g class="cls-4"><rect class="cls-45" x="32.15" y="37.58" width="11.17" height="11.19"/></g></g><g class="cls-53"><g class="cls-4"><rect class="cls-45" x="29.55" y="37.58" width="11.17" height="11.19"/></g></g><g class="cls-54"><g class="cls-4"><rect class="cls-45" x="26.95" y="37.58" width="11.17" height="11.19"/></g></g><g class="cls-55"><g class="cls-4"><rect class="cls-45" x="26.95" y="40.35" width="11.17" height="11.19"/></g></g><g class="cls-56"><g class="cls-4"><rect class="cls-45" x="29.55" y="40.35" width="11.17" height="11.19"/></g></g><g class="cls-57"><g class="cls-4"><rect class="cls-45" x="32.15" y="40.35" width="11.17" height="11.19"/></g></g><g class="cls-4"><line class="cls-58" x1="30.65" y1="38.01" x2="45.35" y2="38.01"/></g><g class="cls-59"><g class="cls-4"><rect class="cls-45" x="27.01" y="29.41" width="11.09" height="12.21"/></g></g><g class="cls-60"><g class="cls-4"><rect class="cls-45" x="37.35" y="29.41" width="11.09" height="12.21"/></g></g><g class="cls-61"><g class="cls-4"><rect class="cls-15" x="18.1" y="15.78" width="14.9" height="17.65"/></g></g><g class="cls-62"><g class="cls-4"><rect class="cls-15" x="19.96" y="22.81" width="11.23" height="12.4"/></g></g><g class="cls-63"><g class="cls-4"><rect class="cls-15" x="19.96" y="14.01" width="11.23" height="12.4"/></g></g><g class="cls-64"><g class="cls-4"><rect class="cls-15" x="19.94" y="11.46" width="11.23" height="11.25"/></g></g><g class="cls-65"><g class="cls-4"><rect class="cls-15" x="19.94" y="26.51" width="11.23" height="11.25"/></g></g></svg>