<svg id="Layer_1" data-name="Layer 1" xmlns="http://www.w3.org/2000/svg" viewBox="0 0 60 60"><defs><style>.cls-1{fill:#fedeb6;}.cls-2{fill:#cdf1ef;}.cls-3{fill:#fff;}.cls-4{fill:#1db9b2;}.cls-5{fill:#fec687;}</style></defs><title>Car- On Dark</title><rect class="cls-1" x="2.7" y="36.47" width="1" height="4.3"/><rect class="cls-1" x="1.06" y="38.11" width="4.3" height="1"/><rect class="cls-2" x="48.41" y="17.01" width="1" height="4.3" transform="translate(0.78 40.2) rotate(-45)"/><rect class="cls-2" x="46.76" y="18.66" width="4.3" height="1" transform="translate(0.78 40.2) rotate(-45)"/><rect class="cls-2" x="24.41" y="3.24" width="1" height="4.3" transform="translate(3.49 19.2) rotate(-45)"/><rect class="cls-2" x="22.76" y="4.89" width="4.3" height="1" transform="translate(3.49 19.19) rotate(-45)"/><path class="cls-2" d="M58.38,41.08a1.48,1.48,0,0,1-1.25-.82c-.12-.21-.28-.34-.4-.34h-.39c-.12,0-.27.13-.39.34a1.51,1.51,0,0,1-1.26.82h-.38a1.51,1.51,0,0,1-1.26-.82c-.12-.21-.27-.34-.39-.34h-.39c-.12,0-.27.13-.39.34a1.51,1.51,0,0,1-1.26.82h-.38A1.51,1.51,0,0,1,49,40.26c-.12-.21-.27-.34-.39-.34h-.2v-1h.2a1.49,1.49,0,0,1,1.25.83c.12.2.27.33.4.33h.38c.12,0,.28-.13.4-.33a1.48,1.48,0,0,1,1.25-.83h.39a1.48,1.48,0,0,1,1.25.83c.12.2.28.33.4.33h.38c.13,0,.28-.13.4-.33a1.49,1.49,0,0,1,1.25-.83h.39a1.5,1.5,0,0,1,1.26.83c.12.2.27.33.39.33Z"/><path class="cls-1" d="M41.55,14a2.15,2.15,0,1,1,2.16-2.15A2.15,2.15,0,0,1,41.55,14Zm0-3.3a1.15,1.15,0,1,0,1.16,1.15A1.15,1.15,0,0,0,41.55,10.66Z"/><path class="cls-2" d="M2.55,23.52A2.16,2.16,0,1,1,4.7,21.36,2.16,2.16,0,0,1,2.55,23.52Zm0-3.31A1.16,1.16,0,1,0,3.7,21.36,1.15,1.15,0,0,0,2.55,20.21Z"/><path class="cls-1" d="M13,15.4H9.13V11.53H13Zm-2.87-1H12V12.53H10.13Z"/><path class="cls-1" d="M59.64,30.16H55.77V26.29h3.87Zm-2.87-1h1.87V27.29H56.77Z"/><path class="cls-2" d="M42.1,54.24c0,.78-6,1.42-13.3,1.42S15.5,55,15.5,54.24s5.95-1.43,13.3-1.43S42.1,53.45,42.1,54.24Z"/><polygon class="cls-3" points="35.21 27.4 16.06 27.4 13.35 25.52 13.92 24.69 16.38 26.4 35.21 26.4 35.21 27.4"/><path class="cls-3" d="M49.63,36.18H48.45v-1h1.18c1.71,0,3-.39,3-.93v-.41h-.71v-3.2a2.31,2.31,0,0,0-1.18-2c-1.4-.76-3.75-2-10.51-2.08a5.29,5.29,0,0,1-3-.95c-1.67-1.17-4.42-2.82-5.9-3.7a4.41,4.41,0,0,0-2.24-.61H18.66a4.45,4.45,0,0,0-2.22.6l-5.26,3.07A5.36,5.36,0,0,1,9,25.64L5.48,26c-.1.71-.13,1.91.45,2.27l.52.31L6,29.07a3,3,0,0,0-1,2.64,9.15,9.15,0,0,0,.16,1.84,38.61,38.61,0,0,0,4.53.89l-.14,1a32.68,32.68,0,0,1-5-1l-.22-.07-.09-.23A7.34,7.34,0,0,1,4,31.71a3.81,3.81,0,0,1,1-2.94c-.86-1.06-.46-3-.41-3.29l.08-.35,4.2-.48a4.47,4.47,0,0,0,1.83-.58L15.94,21a5.45,5.45,0,0,1,2.72-.74H29.05a5.37,5.37,0,0,1,2.74.75c1.5.89,4.27,2.55,6,3.74a4.38,4.38,0,0,0,2.44.77c6.47,0,9.06,1.16,11,2.2a3.3,3.3,0,0,1,1.7,2.92v2.2h.71v1.41C53.59,35.48,52.15,36.18,49.63,36.18Z"/><polygon class="cls-3" points="40.19 36.18 18.13 36.18 18.15 35.18 18.61 35.18 40.19 35.18 40.19 36.18"/><path class="cls-4" d="M43.33,23.19l-.19-.46.92-.39.39.92-.92.39Zm-1-2-.26-.42.86-.52.51.86-.85.51ZM13,19.83l.29-.4h0l.29-.41.81.58-.58.82Zm28.09-.46L40.74,19l.79-.62.62.78-.79.62ZM14.41,18l.68-.73.73.68-.34.37h0l-.34.36Zm25.14-.26-.36-.34.7-.72.72.69-.7.72Zm-23.46-1.4.78-.64.63.78-.77.63Zm21.76,0-.4-.3.59-.8.41.3h0l.41.29-.6.81ZM18,14.88l.85-.53.53.86-.85.52Zm18,.18-.43-.24.48-.88.88.49-.49.87ZM20,13.72l.91-.41.41.91-.91.41ZM34,14.11l-.46-.18.36-.93.93.36-.36.93ZM22.23,12.83l1-.28.28,1-1,.28Zm9.59.61-.48-.12.24-1,1,.24-.24,1Zm-7.3-1.19.5-.08h0l.49-.07.16,1-1,.16Zm5.11.8-.5-.05.11-1,1,.1-.11,1ZM26.87,12l1,0,0,1h-1Z"/><path class="cls-4" d="M28.54,47.76h-.49v-1l1,0v1Zm1.75-1.06,1-.11.12,1-1,.12Zm-4.1.87h0l-.5-.07.15-1,1,.14-.15,1Zm6.31-1.21,1-.24.24,1-1,.24Zm-8.63.72-.48-.14.28-1,1,.27-.27,1Zm10.77-1.35.93-.37.37.93-.93.37Zm-13,.55h0l-.46-.2.4-.92.92.4-.4.92Zm15-1.46.43-.24h0l.44-.25.49.87-.87.5Zm-17.13.37-.43-.26.52-.86.86.52-.52.86Zm19-1.54.8-.6.6.8-.4.3h0l-.4.3Zm-21,.18h0l-.39-.31.63-.78.78.63-.63.78Zm22.7-1.59.71-.7.71.71L41,43Zm-24.44,0-.35-.36.73-.69.69.72-.73.69Zm26-1.62.62-.79.79.61-.62.79Z"/><path class="cls-5" d="M14,39.11a4.88,4.88,0,1,1,4.88-4.87A4.88,4.88,0,0,1,14,39.11Zm0-8.75a3.88,3.88,0,1,0,3.88,3.88A3.88,3.88,0,0,0,14,30.36Z"/><path class="cls-5" d="M44.32,39.11a4.88,4.88,0,1,1,4.87-4.87A4.88,4.88,0,0,1,44.32,39.11Zm0-8.75a3.88,3.88,0,1,0,3.87,3.88A3.88,3.88,0,0,0,44.32,30.36Z"/></svg>