<svg id="Layer_1" data-name="Layer 1" xmlns="http://www.w3.org/2000/svg" viewBox="0 0 60 60"><defs><style>.cls-1{fill:#fedeb6;}.cls-2{fill:#cdf1ef;}.cls-3{fill:#022c48;}.cls-4{fill:#1db9b2;}.cls-5{fill:#fec687;}</style></defs><title>Cart- On Light</title><rect class="cls-1" x="8.03" y="35.34" width="1" height="4.3"/><rect class="cls-1" x="6.38" y="36.99" width="4.3" height="1"/><rect class="cls-2" x="49.58" y="16.33" width="1" height="4.3" transform="translate(1.61 40.82) rotate(-45)"/><rect class="cls-2" x="47.93" y="17.97" width="4.3" height="1" transform="translate(1.6 40.82) rotate(-45)"/><rect class="cls-2" x="23.27" y="4.87" width="1" height="4.3" transform="translate(2 18.86) rotate(-45)"/><rect class="cls-2" x="21.62" y="6.52" width="4.3" height="1" transform="translate(2 18.86) rotate(-45)"/><path class="cls-2" d="M56.24,42.7A1.51,1.51,0,0,1,55,41.88c-.12-.2-.27-.33-.39-.33H54.2c-.12,0-.27.13-.39.33a1.51,1.51,0,0,1-1.26.82h-.39a1.5,1.5,0,0,1-1.25-.82c-.12-.2-.27-.33-.4-.33h-.38c-.12,0-.28.13-.4.33a1.49,1.49,0,0,1-1.25.82h-.39a1.48,1.48,0,0,1-1.25-.82c-.12-.2-.28-.33-.4-.33h-.19v-1h.19a1.51,1.51,0,0,1,1.26.82c.12.21.27.33.39.33h.39c.12,0,.27-.12.39-.33a1.51,1.51,0,0,1,1.26-.82h.38a1.51,1.51,0,0,1,1.26.82c.12.21.27.33.39.33h.39c.12,0,.28-.12.4-.33a1.48,1.48,0,0,1,1.25-.82h.39a1.49,1.49,0,0,1,1.25.82c.12.21.27.33.4.33Z"/><path class="cls-1" d="M40.29,8.82a2.15,2.15,0,1,1,2.16-2.15A2.15,2.15,0,0,1,40.29,8.82Zm0-3.3a1.15,1.15,0,1,0,1.16,1.15A1.15,1.15,0,0,0,40.29,5.52Z"/><path class="cls-2" d="M5.28,28.4a2.16,2.16,0,1,1,2.15-2.15A2.16,2.16,0,0,1,5.28,28.4Zm0-3.31a1.16,1.16,0,1,0,1.15,1.16A1.16,1.16,0,0,0,5.28,25.09Z"/><path class="cls-1" d="M14,14.79H10.18V10.93H14Zm-2.86-1H13V11.93H11.18Z"/><path class="cls-1" d="M53.6,33.42H49.74V29.56H53.6Zm-2.86-1H52.6V30.56H50.74Z"/><path class="cls-2" d="M42,54.86c0,.79-6,1.42-13.3,1.42s-13.31-.63-13.31-1.42,6-1.42,13.31-1.42S42,54.08,42,54.86Z"/><path class="cls-2" d="M29.58,46.14A2.14,2.14,0,1,1,27.44,44,2.14,2.14,0,0,1,29.58,46.14Z"/><path class="cls-2" d="M43.18,46.14A2.14,2.14,0,1,1,41,44,2.14,2.14,0,0,1,43.18,46.14Z"/><path class="cls-3" d="M27.44,48.78a2.64,2.64,0,1,1,2.64-2.64A2.65,2.65,0,0,1,27.44,48.78Zm0-4.28a1.64,1.64,0,1,0,1.64,1.64A1.65,1.65,0,0,0,27.44,44.5Z"/><path class="cls-3" d="M41,48.78a2.64,2.64,0,1,1,2.64-2.64A2.64,2.64,0,0,1,41,48.78Zm0-4.28a1.64,1.64,0,1,0,1.64,1.64A1.64,1.64,0,0,0,41,44.5Z"/><rect class="cls-2" x="24.02" y="26.86" width="19.88" height="1"/><rect class="cls-2" x="24.89" y="31.38" width="18.14" height="1"/><rect class="cls-2" x="28.57" y="24.51" width="1" height="10.22"/><rect class="cls-2" x="33.46" y="24.51" width="1" height="10.22"/><rect class="cls-2" x="38.36" y="24.51" width="1" height="10.22"/><path class="cls-3" d="M42.84,37.46H20v-1H42.84a1.4,1.4,0,0,0,1.35-1L47.68,24a.91.91,0,0,0-.15-.84.93.93,0,0,0-.76-.38H20.26v-1H46.77a1.92,1.92,0,0,1,1.57.78,1.94,1.94,0,0,1,.3,1.73L45.15,35.75A2.4,2.4,0,0,1,42.84,37.46Z"/><rect class="cls-2" x="16" y="31.38" width="3.4" height="1"/><rect class="cls-2" x="13.87" y="31.38" width="1" height="1"/><rect class="cls-2" x="9.21" y="21.78" width="4.28" height="1"/><rect class="cls-2" x="7.09" y="21.78" width="1" height="1"/><polygon class="cls-3" points="19.57 27.53 15.78 18.2 8.47 18.2 8.47 17.2 16.46 17.2 20.5 27.16 19.57 27.53"/><path class="cls-3" d="M42.73,42.49H27.59a2.87,2.87,0,0,1-2.68-1.81L20.59,30l.92-.38,4.32,10.65a1.88,1.88,0,0,0,1.76,1.18H42.73Z"/><polygon class="cls-4" points="31.07 20.56 30.07 20.56 30.07 13.98 23.99 13.98 23.99 20.56 22.99 20.56 22.99 12.98 31.07 12.98 31.07 20.56"/><polygon class="cls-5" points="45.51 20.56 44.51 20.56 44.51 17.52 33.2 17.52 33.2 20.56 32.2 20.56 32.2 16.52 45.51 16.52 45.51 20.56"/><polygon class="cls-5" points="38.04 15.86 37.04 15.86 37.04 10.74 28.37 10.74 28.37 11.97 27.37 11.97 27.37 9.74 38.04 9.74 38.04 15.86"/><polygon class="cls-1" points="43.91 15.86 42.91 15.86 42.91 12.96 39.35 12.96 39.35 11.96 43.91 11.96 43.91 15.86"/><rect class="cls-3" x="11.7" y="26.86" width="10.11" height="1"/></svg>