<svg id="Layer_1" data-name="Layer 1" xmlns="http://www.w3.org/2000/svg" viewBox="0 0 60 60"><defs><style>.cls-1{fill:#fedeb6;}.cls-2{fill:#cdf1ef;}.cls-3{fill:#ffc882;}.cls-4{fill:#022c48;}</style></defs><title>Chip- On Light</title><rect class="cls-1" x="5.62" y="33.01" width="1" height="5.21"/><rect class="cls-1" x="3.52" y="35.11" width="5.2" height="1"/><rect class="cls-2" x="55.22" y="39.18" width="1" height="5.21" transform="translate(-13.22 51.64) rotate(-45)"/><rect class="cls-2" x="53.12" y="41.28" width="5.21" height="1" transform="translate(-13.22 51.64) rotate(-45)"/><rect class="cls-2" x="20.96" y="3.36" width="1" height="5.2" transform="translate(2.07 16.92) rotate(-45)"/><rect class="cls-2" x="18.86" y="5.46" width="5.2" height="1" transform="translate(2.07 16.92) rotate(-45)"/><path class="cls-1" d="M56.77,15.38a1.69,1.69,0,0,1-1.42-.94.8.8,0,0,0-.57-.45h-.47a.77.77,0,0,0-.57.45,1.72,1.72,0,0,1-1.43.94h-.47a1.7,1.7,0,0,1-1.43-.94c-.17-.28-.38-.45-.57-.45h-.47c-.19,0-.4.17-.57.45a1.69,1.69,0,0,1-1.43.94H46.9a1.72,1.72,0,0,1-1.43-.94A.77.77,0,0,0,44.9,14h-.23V13h.23a1.69,1.69,0,0,1,1.43.94.77.77,0,0,0,.57.45h.47c.19,0,.4-.16.57-.45A1.72,1.72,0,0,1,49.37,13h.47a1.7,1.7,0,0,1,1.43.94c.17.29.38.45.57.45h.47c.19,0,.4-.16.57-.45A1.69,1.69,0,0,1,54.31,13h.47a1.72,1.72,0,0,1,1.43.94.75.75,0,0,0,.56.45Z"/><path class="cls-1" d="M40.63,7.73a2.5,2.5,0,1,1,2.51-2.5A2.5,2.5,0,0,1,40.63,7.73Zm0-4a1.5,1.5,0,1,0,1.51,1.5A1.5,1.5,0,0,0,40.63,3.73Z"/><path class="cls-2" d="M6.12,23a2.51,2.51,0,1,1,2.5-2.5A2.51,2.51,0,0,1,6.12,23Zm0-4a1.51,1.51,0,1,0,1.5,1.51A1.52,1.52,0,0,0,6.12,19Z"/><path class="cls-1" d="M11,9.93H6.5V5.46H11Zm-3.47-1H10V6.46H7.5Z"/><path class="cls-2" d="M56.11,30.68H51.64V26.21h4.47Zm-3.47-1h2.47V27.21H52.64Z"/><path class="cls-2" d="M43.18,56.42c0,.78-6,1.42-13.31,1.42s-13.3-.64-13.3-1.42,6-1.42,13.3-1.42S43.18,55.63,43.18,56.42Z"/><rect class="cls-3" x="22.76" y="13.3" width="1" height="4.95"/><rect class="cls-3" x="25.87" y="13.3" width="1" height="4.95"/><rect class="cls-3" x="28.97" y="13.3" width="1" height="4.95"/><rect class="cls-3" x="32.08" y="13.3" width="1" height="4.95"/><rect class="cls-3" x="35.19" y="13.3" width="1" height="4.95"/><rect class="cls-3" x="38.3" y="13.3" width="1" height="4.95"/><rect class="cls-3" x="22.76" y="43.77" width="1" height="4.95"/><rect class="cls-3" x="25.87" y="43.77" width="1" height="4.95"/><rect class="cls-3" x="28.97" y="43.77" width="1" height="4.95"/><rect class="cls-3" x="32.08" y="43.77" width="1" height="4.95"/><rect class="cls-3" x="35.19" y="43.77" width="1" height="4.95"/><rect class="cls-3" x="38.3" y="43.77" width="1" height="4.95"/><rect class="cls-2" x="13.82" y="38.28" width="3.95" height="1"/><rect class="cls-2" x="13.82" y="35.17" width="3.95" height="1"/><rect class="cls-2" x="13.82" y="32.06" width="3.95" height="1"/><rect class="cls-2" x="13.82" y="28.95" width="3.95" height="1"/><rect class="cls-2" x="13.82" y="25.85" width="3.95" height="1"/><rect class="cls-2" x="13.82" y="22.74" width="3.95" height="1"/><rect class="cls-2" x="44.29" y="38.28" width="3.95" height="1"/><rect class="cls-2" x="44.29" y="35.17" width="3.95" height="1"/><rect class="cls-2" x="44.29" y="32.06" width="3.95" height="1"/><rect class="cls-2" x="44.29" y="28.95" width="3.95" height="1"/><rect class="cls-2" x="44.29" y="25.85" width="3.95" height="1"/><rect class="cls-2" x="44.29" y="22.74" width="3.95" height="1"/><path class="cls-4" d="M34.3,35.83H27.76l-1.55-1.55V27.74l1.55-1.55H34.3l1.55,1.55v6.54Zm-6.13-1h5.72l1-1V28.15l-1-1H28.17l-1,1v5.72Z"/><path class="cls-1" d="M36.54,39h-11L23,36.52v-11L25.51,23h11L39,25.49v11ZM25.93,38h10.2L38,36.11V25.91L36.13,24H25.93L24,25.91v10.2Z"/><path class="cls-4" d="M40.88,44.77H21.18l-3.91-3.91V21.16l3.91-3.91h19.7l3.91,3.91v19.7Zm-19.29-1H40.46l3.33-3.32V21.57l-3.33-3.32H21.59l-3.32,3.32V40.45Z"/></svg>