<svg id="Layer_1" data-name="Layer 1" xmlns="http://www.w3.org/2000/svg" viewBox="0 0 60 60"><defs><style>.cls-1{fill:#fedeb6;}.cls-2{fill:#cdf1ef;}.cls-3{fill:#fff;}.cls-4{fill:#ffc882;}</style></defs><title>Circuit Board- On Dark</title><rect class="cls-1" x="4.14" y="35.8" width="1" height="4.3" transform="translate(-0.31 0.04) rotate(-0.47)"/><rect class="cls-1" x="2.49" y="37.45" width="4.29" height="1" transform="translate(-0.31 0.04) rotate(-0.47)"/><rect class="cls-2" x="53.55" y="41.48" width="1" height="4.3" transform="translate(-14.96 51.57) rotate(-45.47)"/><rect class="cls-2" x="51.9" y="43.13" width="4.3" height="1" transform="translate(-14.96 51.56) rotate(-45.47)"/><rect class="cls-2" x="21.69" y="6.18" width="1" height="4.3" transform="translate(0.69 18.31) rotate(-45.47)"/><rect class="cls-2" x="20.04" y="7.83" width="4.3" height="1" transform="translate(0.69 18.31) rotate(-45.47)"/><path class="cls-1" d="M59,32.57a1.52,1.52,0,0,1-1.27-.81c-.12-.2-.27-.33-.39-.33h-.39c-.12,0-.27.13-.39.33a1.5,1.5,0,0,1-1.25.83h-.39a1.47,1.47,0,0,1-1.26-.81c-.12-.2-.27-.32-.4-.32h-.38c-.13,0-.28.13-.39.33a1.48,1.48,0,0,1-1.25.83h-.39a1.49,1.49,0,0,1-1.26-.81c-.12-.21-.28-.33-.4-.33H49v-1h.19a1.49,1.49,0,0,1,1.26.81c.13.2.28.33.4.33h.39a.6.6,0,0,0,.39-.34,1.5,1.5,0,0,1,1.25-.83h.39a1.5,1.5,0,0,1,1.26.81c.12.2.27.33.4.32h.38c.12,0,.27-.13.39-.33a1.48,1.48,0,0,1,1.25-.83h.39a1.49,1.49,0,0,1,1.26.81c.12.21.28.33.4.33Z"/><path class="cls-1" d="M38.84,9.27A2.16,2.16,0,1,1,41,7.1,2.16,2.16,0,0,1,38.84,9.27Zm0-3.31A1.16,1.16,0,1,0,40,7.11,1.16,1.16,0,0,0,38.81,6Z"/><path class="cls-2" d="M6.57,29.64a2.16,2.16,0,1,1,2.14-2.17A2.16,2.16,0,0,1,6.57,29.64Zm0-3.31a1.16,1.16,0,1,0,1.16,1.15A1.17,1.17,0,0,0,6.55,26.33Z"/><path class="cls-1" d="M10.69,16.79l-3.86,0,0-3.86,3.87,0Zm-2.87-1H9.68V13.93L7.8,14Z"/><path class="cls-2" d="M55.14,27l-3.86,0,0-3.87,3.86,0Zm-2.87-1,1.87,0,0-1.86-1.86,0Z"/><rect class="cls-2" x="22.02" y="24.52" width="16.32" height="9.65" transform="translate(1.08 59.76) rotate(-90.47)"/><polygon class="cls-1" points="24.23 42.38 23.52 41.68 25.7 39.46 35.1 39.38 37.25 41.5 36.55 42.22 34.69 40.38 26.12 40.45 24.23 42.38"/><polygon class="cls-1" points="34.93 19.28 25.53 19.36 23.32 17.18 24.02 16.46 25.94 18.36 34.51 18.28 36.34 16.42 37.05 17.12 34.93 19.28"/><path class="cls-3" d="M35.57,38l-10.65.09-.14-17.32,10.65-.08ZM25.91,37,34.57,37l-.13-15.32-8.65.08Z"/><rect class="cls-3" x="16.21" y="28.68" width="9.13" height="1" transform="translate(-0.24 0.17) rotate(-0.47)"/><path class="cls-4" d="M14.69,31.28a2,2,0,1,1,2-2.06A2,2,0,0,1,14.69,31.28Zm0-3.09a1,1,0,1,0,1.05,1A1,1,0,0,0,14.66,28.19Z"/><polygon class="cls-3" points="17.58 40.97 16.87 40.27 21.71 35.35 25.4 35.32 25.41 36.32 22.13 36.34 17.58 40.97"/><polygon class="cls-3" points="16.27 37.18 14.07 37.2 14.07 36.2 15.85 36.19 19.94 32.03 25.37 31.98 25.38 32.98 20.36 33.02 16.27 37.18"/><path class="cls-4" d="M12.54,38.76a2,2,0,1,1,2-2.06A2.06,2.06,0,0,1,12.54,38.76Zm0-3.09a1,1,0,1,0,1.05,1A1,1,0,0,0,12.52,35.67Z"/><path class="cls-4" d="M16.11,43.71a2,2,0,1,1,2-2.06A2,2,0,0,1,16.11,43.71Zm0-3.08a1,1,0,1,0,1.05,1A1,1,0,0,0,16.09,40.63Z"/><polygon class="cls-3" points="25.3 22.98 21.6 23.01 16.68 18.17 17.39 17.45 22.01 22 25.29 21.98 25.3 22.98"/><polygon class="cls-3" points="25.32 26.31 19.89 26.36 15.73 22.27 13.95 22.28 13.94 21.28 16.14 21.26 20.29 25.35 25.32 25.31 25.32 26.31"/><path class="cls-4" d="M12.42,23.84a2,2,0,1,1,2-2.06A2,2,0,0,1,12.42,23.84Zm0-3.09a1,1,0,1,0,1.06,1A1.05,1.05,0,0,0,12.39,20.75Z"/><path class="cls-4" d="M15.91,18.82a2,2,0,1,1,2-2.06A2,2,0,0,1,15.91,18.82Zm0-3.09a1,1,0,0,0,0,2.09,1,1,0,0,0,0-2.09Z"/><rect class="cls-3" x="35" y="28.53" width="9.13" height="1" transform="translate(-0.24 0.33) rotate(-0.47)"/><path class="cls-4" d="M45.69,31a2,2,0,1,1,2-2.06A2,2,0,0,1,45.69,31Zm0-3.08a1,1,0,1,0,1,1A1,1,0,0,0,45.67,27.94Z"/><polygon class="cls-3" points="42.96 40.76 38.34 36.21 35.06 36.24 35.05 35.24 38.74 35.21 43.66 40.05 42.96 40.76"/><polygon class="cls-3" points="46.41 36.93 44.21 36.95 40.05 32.86 35.03 32.9 35.02 31.9 40.46 31.86 44.62 35.95 46.4 35.93 46.41 36.93"/><path class="cls-4" d="M48,38.46a2,2,0,1,1,2-2.06A2,2,0,0,1,48,38.46Zm0-3.08a1,1,0,1,0,1.05,1A1,1,0,0,0,47.94,35.38Z"/><path class="cls-4" d="M44.47,43.48a2,2,0,1,1,2-2.06A2.05,2.05,0,0,1,44.47,43.48Zm0-3.09a1,1,0,1,0,1,1A1.06,1.06,0,0,0,44.45,40.39Z"/><polygon class="cls-3" points="38.64 22.87 34.95 22.9 34.94 21.9 38.22 21.87 42.77 17.25 43.48 17.95 38.64 22.87"/><polygon class="cls-3" points="40.41 26.19 34.98 26.23 34.97 25.23 39.99 25.19 44.08 21.03 46.27 21.01 46.28 22.01 44.5 22.03 40.41 26.19"/><path class="cls-4" d="M47.84,23.54a2,2,0,1,1,2-2.06A2,2,0,0,1,47.84,23.54Zm0-3.08a1,1,0,1,0,1,1A1,1,0,0,0,47.81,20.46Z"/><path class="cls-4" d="M44.27,18.59a2,2,0,1,1,2-2.06A2,2,0,0,1,44.27,18.59Zm0-3.09a1,1,0,1,0,1,1A1,1,0,0,0,44.24,15.5Z"/><path class="cls-4" d="M22.86,45.1a2,2,0,1,1,2-2.06A2,2,0,0,1,22.86,45.1Zm0-3.08a1,1,0,1,0,1.05,1A1,1,0,0,0,22.84,42Z"/><path class="cls-4" d="M22.64,17.74a2,2,0,1,1,2-2.06A2,2,0,0,1,22.64,17.74Zm0-3.09a1,1,0,1,0,1.05,1A1,1,0,0,0,22.61,14.65Z"/><path class="cls-4" d="M37.9,45a2,2,0,1,1,2-2.06A2,2,0,0,1,37.9,45Zm0-3.09a1,1,0,1,0,1,1A1,1,0,0,0,37.88,41.89Z"/><path class="cls-4" d="M37.68,17.62a2,2,0,1,1,2-2.06A2.05,2.05,0,0,1,37.68,17.62Zm0-3.09a1,1,0,1,0,1.05,1A1,1,0,0,0,37.65,14.53Z"/><polygon class="cls-3" points="28.2 32.44 28.2 31.43 31.19 31.41 31.18 30.26 28.18 29.13 28.15 26.29 32.15 26.26 32.16 27.26 29.16 27.29 29.17 28.43 32.18 29.57 32.2 32.4 28.2 32.44"/><rect class="cls-3" x="29.72" y="31.92" width="1" height="1.93" transform="translate(-0.27 0.25) rotate(-0.47)"/><rect class="cls-3" x="29.66" y="24.85" width="1" height="1.93" transform="translate(-0.21 0.25) rotate(-0.47)"/><rect class="cls-3" x="29.63" y="22.81" width="1" height="1" transform="translate(-0.19 0.25) rotate(-0.47)"/><rect class="cls-3" x="29.73" y="34.89" width="1" height="1" transform="translate(-0.29 0.25) rotate(-0.47)"/><path class="cls-2" d="M43.18,53c0,.79-6,1.47-13.3,1.53S16.58,54,16.57,53.23s5.94-1.47,13.29-1.53S43.17,52.23,43.18,53Z"/></svg>