<svg id="Layer_1" data-name="Layer 1" xmlns="http://www.w3.org/2000/svg" viewBox="0 0 60 60"><defs><style>.cls-1{fill:#cdf1ef;}.cls-2{fill:#fedeb6;}.cls-3{fill:#09b9b3;}.cls-4{fill:#022c48;}.cls-5{fill:#ffc882;}</style></defs><title>Cloud- On Light</title><path class="cls-1" d="M41.82,55.72c0,.79-6,1.42-13.3,1.42s-13.31-.63-13.31-1.42,6-1.42,13.31-1.42S41.82,54.94,41.82,55.72Z"/><rect class="cls-2" x="4.77" y="31.24" width="1" height="5.07"/><rect class="cls-2" x="2.73" y="33.28" width="5.07" height="1"/><rect class="cls-1" x="52.9" y="37.25" width="1" height="5.07" transform="translate(-12.49 49.41) rotate(-45)"/><rect class="cls-1" x="50.86" y="39.29" width="5.07" height="1" transform="translate(-12.49 49.41) rotate(-45)"/><rect class="cls-1" x="19.6" y="2.33" width="1" height="5.07" transform="translate(2.45 15.64) rotate(-45)"/><rect class="cls-1" x="17.57" y="4.37" width="5.07" height="1" transform="translate(2.45 15.64) rotate(-45)"/><path class="cls-2" d="M58.3,32.59a1.67,1.67,0,0,1-1.4-.93.75.75,0,0,0-.55-.43H55.9a.75.75,0,0,0-.55.43,1.68,1.68,0,0,1-1.4.93h-.46a1.67,1.67,0,0,1-1.4-.93c-.17-.27-.37-.43-.55-.43h-.46c-.18,0-.38.16-.54.43a1.68,1.68,0,0,1-1.4.93h-.46a1.68,1.68,0,0,1-1.41-.93c-.16-.27-.36-.43-.54-.43H46.5v-1h.23a1.68,1.68,0,0,1,1.4.92c.17.28.37.44.55.44h.46c.17,0,.38-.16.54-.44a1.69,1.69,0,0,1,1.4-.92h.46a1.69,1.69,0,0,1,1.41.92c.16.28.36.44.54.44H54c.18,0,.38-.16.54-.44a1.69,1.69,0,0,1,1.41-.92h.45a1.69,1.69,0,0,1,1.41.92c.16.28.36.44.54.44Z"/><path class="cls-2" d="M39.76,8.68a2.45,2.45,0,1,1,2.46-2.45A2.45,2.45,0,0,1,39.76,8.68Zm0-3.9a1.45,1.45,0,1,0,1.46,1.45A1.45,1.45,0,0,0,39.76,4.78Z"/><path class="cls-1" d="M4.27,21.53a2.46,2.46,0,1,1,2.45-2.46A2.46,2.46,0,0,1,4.27,21.53Zm0-3.91a1.46,1.46,0,1,0,1.45,1.45A1.46,1.46,0,0,0,4.27,17.62Z"/><path class="cls-2" d="M9.89,8.75H5.51V4.37H9.89Zm-3.38-1H8.89V5.37H6.51Z"/><path class="cls-1" d="M54.76,21.18H50.38V16.8h4.38Zm-3.38-1h2.38V17.8H51.38Z"/><path class="cls-3" d="M40.88,39H17.8a4.81,4.81,0,1,1,0-9.61H40.88a4.81,4.81,0,0,1,0,9.61ZM17.8,30.41a3.81,3.81,0,1,0,0,7.61H40.88a3.81,3.81,0,0,0,0-7.61Zm23.09,5.84a2,2,0,1,1,2-2A2,2,0,0,1,40.89,36.25Zm0-3.07a1,1,0,1,0,1,1A1,1,0,0,0,40.89,33.18Z"/><path class="cls-4" d="M39.92,28.41H20a7,7,0,0,1,0-14.08,7.91,7.91,0,0,1,1,.07,10,10,0,0,1,19.32,2.5,5.76,5.76,0,0,1-.4,11.51ZM20,15.33a6,6,0,0,0,0,12.08H39.92a4.76,4.76,0,0,0,0-9.52h-.47l-.09-.47a9,9,0,0,0-17.55-2.3l-.13.42-.44-.09A6.21,6.21,0,0,0,20,15.33Z"/><path class="cls-4" d="M40.88,49.64H17.8a4.81,4.81,0,0,1,0-9.62H40.88a4.81,4.81,0,0,1,0,9.62ZM17.8,41a3.81,3.81,0,0,0,0,7.62H40.88a3.81,3.81,0,0,0,0-7.62Zm23.09,5.84a2,2,0,1,1,2-2A2,2,0,0,1,40.89,46.86Zm0-3.06a1,1,0,1,0,1,1A1,1,0,0,0,40.89,43.8Z"/><path class="cls-5" d="M17.42,34.72v-1h1v1Z"/><path class="cls-5" d="M19.63,34.72v-1h1v1Z"/><path class="cls-5" d="M21.84,34.72v-1h1v1Z"/><path class="cls-5" d="M17.42,45.33v-1h1v1Z"/><path class="cls-5" d="M19.63,45.33v-1h1v1Z"/><path class="cls-5" d="M21.84,45.33v-1h1v1Z"/></svg>