<svg id="Layer_1" data-name="Layer 1" xmlns="http://www.w3.org/2000/svg" viewBox="0 0 60 60"><defs><style>.cls-1{fill:#fedeb6;}.cls-2{fill:#cdf1ef;}.cls-3{fill:#fff;}.cls-4{fill:#ffc882;}</style></defs><title>Computer Money- On Dark</title><rect class="cls-1" x="2.79" y="38.84" width="1" height="4.29"/><rect class="cls-1" x="1.14" y="40.49" width="4.3" height="1"/><rect class="cls-2" x="54.99" y="40.99" width="1" height="4.3" transform="translate(-14.25 51.87) rotate(-45)"/><rect class="cls-2" x="53.34" y="42.64" width="4.3" height="1" transform="translate(-14.25 51.87) rotate(-45)"/><rect class="cls-2" x="24.66" y="5.83" width="1" height="4.3" transform="translate(1.73 20.13) rotate(-45)"/><rect class="cls-2" x="23.01" y="7.47" width="4.3" height="1" transform="translate(1.73 20.12) rotate(-45)"/><path class="cls-2" d="M59.78,18.58a1.51,1.51,0,0,1-1.26-.82c-.12-.2-.27-.33-.39-.33h-.39c-.12,0-.28.13-.4.33a1.48,1.48,0,0,1-1.25.82H55.7a1.49,1.49,0,0,1-1.25-.82c-.12-.2-.27-.33-.4-.33h-.38c-.13,0-.28.13-.4.33a1.5,1.5,0,0,1-1.25.82h-.39a1.51,1.51,0,0,1-1.26-.82c-.12-.2-.27-.33-.39-.33h-.19v-1H50a1.51,1.51,0,0,1,1.26.82c.12.21.27.33.39.33H52c.12,0,.27-.12.39-.33a1.51,1.51,0,0,1,1.26-.82h.38a1.51,1.51,0,0,1,1.26.82c.12.21.27.33.39.33h.39c.12,0,.27-.12.39-.33a1.51,1.51,0,0,1,1.26-.82h.39a1.5,1.5,0,0,1,1.25.82c.12.21.27.33.4.33Z"/><path class="cls-1" d="M41.41,8.39a2.16,2.16,0,1,1,2.15-2.16A2.16,2.16,0,0,1,41.41,8.39Zm0-3.31a1.16,1.16,0,1,0,1.15,1.15A1.16,1.16,0,0,0,41.41,5.08Z"/><path class="cls-2" d="M2.79,28.62a2.16,2.16,0,1,1,2.15-2.16A2.16,2.16,0,0,1,2.79,28.62Zm0-3.31a1.16,1.16,0,1,0,1.15,1.15A1.16,1.16,0,0,0,2.79,25.31Z"/><path class="cls-1" d="M6.15,13H2.29V9.1H6.15ZM3.29,12H5.15V10.1H3.29Z"/><path class="cls-1" d="M55.28,32.21H51.42V28.34h3.86Zm-2.86-1h1.86V29.34H52.42Z"/><path class="cls-3" d="M46.13,41.78H10.8a2.43,2.43,0,0,1-2.43-2.43V15.66a2.42,2.42,0,0,1,2.43-2.42H46.13a2.42,2.42,0,0,1,2.42,2.42V39.35A2.43,2.43,0,0,1,46.13,41.78ZM10.8,14.24a1.42,1.42,0,0,0-1.43,1.42V39.35a1.43,1.43,0,0,0,1.43,1.43H46.13a1.43,1.43,0,0,0,1.42-1.43V15.66a1.42,1.42,0,0,0-1.42-1.42Z"/><rect class="cls-3" x="8.87" y="37.2" width="39.18" height="1"/><path class="cls-3" d="M35.71,45.84H21.1l3.67-5.06H32Zm-12.65-1H33.75l-2.23-3.06H25.28Z"/><rect class="cls-3" x="19.36" y="44.84" width="18.2" height="1"/><path class="cls-2" d="M45.42,35.93H11.5a.87.87,0,0,1-.86-.86V16.37a.87.87,0,0,1,.86-.87H45.42a.86.86,0,0,1,.86.87v18.7A.86.86,0,0,1,45.42,35.93Zm-33.78-1H45.28V16.5H11.64Z"/><rect class="cls-1" x="13.31" y="17.78" width="1.1" height="1"/><rect class="cls-1" x="15.52" y="17.78" width="1.1" height="1"/><rect class="cls-1" x="17.73" y="17.78" width="1.1" height="1"/><rect class="cls-1" x="23.27" y="17.78" width="19.41" height="1"/><rect class="cls-2" x="20.4" y="16.09" width="1" height="4.37"/><rect class="cls-2" x="11.14" y="19.96" width="34.64" height="1"/><rect class="cls-4" x="25.01" y="27.7" width="7.19" height="1" transform="translate(-11.56 28.49) rotate(-45)"/><rect class="cls-4" x="30.81" y="29.9" width="1" height="1"/><rect class="cls-4" x="25.41" y="25.51" width="1" height="1"/><polygon class="cls-4" points="35.18 31.3 35.18 30.3 41.17 30.3 41.17 28.93 35.18 27.62 35.17 24.45 42.17 24.45 42.17 25.45 36.17 25.45 36.18 26.82 42.17 28.13 42.17 31.3 35.18 31.3"/><rect class="cls-4" x="37.19" y="22.95" width="1" height="9.85"/><rect class="cls-4" x="39.16" y="22.95" width="1" height="9.85"/><rect class="cls-4" x="16.01" y="25.7" width="4.97" height="1"/><polygon class="cls-4" points="17.19 28.23 15.16 26.2 17.19 24.17 17.9 24.88 16.58 26.2 17.9 27.52 17.19 28.23"/><rect class="cls-4" x="15.87" y="29.05" width="4.97" height="1"/><polygon class="cls-4" points="19.66 31.58 18.96 30.87 20.28 29.55 18.96 28.23 19.66 27.53 21.69 29.55 19.66 31.58"/><path class="cls-2" d="M41.91,54.56c0,.79-5.95,1.43-13.3,1.43s-13.3-.64-13.3-1.43,6-1.42,13.3-1.42S41.91,53.78,41.91,54.56Z"/></svg>