<svg id="Layer_1" data-name="Layer 1" xmlns="http://www.w3.org/2000/svg" viewBox="0 0 60 60"><defs><style>.cls-1{fill:#fedeb6;}.cls-2{fill:#cdf1ef;}.cls-3{fill:#022c48;}.cls-4{fill:#1db9b2;}.cls-5{fill:#fec687;}</style></defs><title>Computer Lock- On Light</title><rect class="cls-1" x="2.67" y="40.67" width="1" height="4.29"/><rect class="cls-1" x="1.02" y="42.32" width="4.29" height="1"/><rect class="cls-2" x="53.87" y="42.82" width="1" height="4.3" transform="translate(-15.87 51.61) rotate(-45)"/><rect class="cls-2" x="52.22" y="44.47" width="4.3" height="1" transform="translate(-15.88 51.61) rotate(-45)"/><rect class="cls-2" x="25.54" y="2.66" width="1" height="4.3" transform="translate(4.23 19.82) rotate(-45)"/><rect class="cls-2" x="23.89" y="4.3" width="4.3" height="1" transform="translate(4.23 19.82) rotate(-45)"/><path class="cls-2" d="M59.27,20.41A1.51,1.51,0,0,1,58,19.59c-.12-.2-.27-.33-.39-.33h-.39c-.12,0-.27.13-.39.33a1.51,1.51,0,0,1-1.26.82H55.2a1.51,1.51,0,0,1-1.26-.82c-.12-.2-.27-.33-.39-.33h-.39c-.12,0-.27.13-.39.33a1.52,1.52,0,0,1-1.26.82h-.39a1.49,1.49,0,0,1-1.25-.82c-.12-.2-.27-.33-.4-.33h-.19v-1h.19a1.51,1.51,0,0,1,1.26.82c.12.21.27.33.39.33h.39c.12,0,.27-.12.39-.33a1.51,1.51,0,0,1,1.26-.82h.39a1.5,1.5,0,0,1,1.25.82c.12.21.27.33.4.33h.38c.13,0,.28-.12.4-.33a1.49,1.49,0,0,1,1.25-.82h.39a1.49,1.49,0,0,1,1.25.82c.12.21.28.33.4.33Z"/><path class="cls-1" d="M42.28,10.22a2.16,2.16,0,1,1,2.16-2.16A2.16,2.16,0,0,1,42.28,10.22Zm0-3.31a1.16,1.16,0,1,0,1.16,1.15A1.16,1.16,0,0,0,42.28,6.91Z"/><path class="cls-2" d="M3.66,30.45a2.16,2.16,0,1,1,2.16-2.16A2.16,2.16,0,0,1,3.66,30.45Zm0-3.31a1.16,1.16,0,1,0,1.16,1.15A1.16,1.16,0,0,0,3.66,27.14Z"/><path class="cls-1" d="M9.5,15.94H5.64V12.07H9.5Zm-2.86-1H8.5V13.07H6.64Z"/><path class="cls-1" d="M59.16,34H55.3V30.17h3.86ZM56.3,33h1.86V31.17H56.3Z"/><path class="cls-2" d="M42.44,54.56c0,.78-6,1.42-13.3,1.42s-13.31-.64-13.31-1.42,6-1.42,13.31-1.42S42.44,53.77,42.44,54.56Z"/><polygon class="cls-2" points="21.43 41.51 23.17 43.53 35.42 43.53 37.16 41.51 21.43 41.51"/><path class="cls-3" d="M24.26,44h-17V41H21.66Zm-16-1h13.8l-.88-1H8.28Z"/><path class="cls-3" d="M51.3,44h-17l2.6-3H51.3ZM36.51,43H50.3V42H37.38Z"/><path class="cls-3" d="M47.79,47h-37a3.52,3.52,0,0,1-3.51-3.51V43h44v.5A3.51,3.51,0,0,1,47.79,47ZM8.33,44a2.52,2.52,0,0,0,2.46,2h37a2.52,2.52,0,0,0,2.46-2Z"/><path class="cls-3" d="M35.65,44H22.94l-2.6-3h17.9ZM23.39,43h11.8l.87-1H22.52Z"/><path class="cls-4" d="M31.66,32.56H26.8l.63-4.19a2.24,2.24,0,0,1-.5-1.43,2.3,2.3,0,0,1,4.6,0,2.35,2.35,0,0,1-.5,1.44Zm-3.7-1H30.5L30,28.42a.74.74,0,0,1,.17-.62,1.25,1.25,0,0,0,.33-.86,1.3,1.3,0,0,0-2.6,0,1.25,1.25,0,0,0,.33.86.78.78,0,0,1,.17.66Zm3-3.09Zm-3.51-.19h0Zm3.57,0v0Z"/><path class="cls-5" d="M37.84,36.21H20.62a2.1,2.1,0,0,1-2.1-2.09v-11a2.11,2.11,0,0,1,2.1-2.1H37.84a2.1,2.1,0,0,1,2.09,2.1v11A2.1,2.1,0,0,1,37.84,36.21ZM20.62,22a1.1,1.1,0,0,0-1.1,1.1v11a1.1,1.1,0,0,0,1.1,1.09H37.84a1.09,1.09,0,0,0,1.09-1.09v-11A1.09,1.09,0,0,0,37.84,22Z"/><path class="cls-5" d="M36,22H22.5a.5.5,0,0,1-.5-.5V15.32a7.23,7.23,0,1,1,14.46,0v6.16A.5.5,0,0,1,36,22ZM23,21H35.46V15.32a6.23,6.23,0,1,0-12.46,0Z"/><path class="cls-5" d="M32.67,22H25.79a.5.5,0,0,1-.5-.5V15.32a3.94,3.94,0,0,1,7.88,0v6.16A.5.5,0,0,1,32.67,22Zm-6.38-1h5.88V15.32a2.94,2.94,0,0,0-5.88,0Z"/><path class="cls-2" d="M45.62,39.17H13V20.43a1.8,1.8,0,0,1,1.8-1.8h6v1h-6a.8.8,0,0,0-.8.8V38.17H44.62V20.43a.8.8,0,0,0-.8-.8h-6.1v-1h6.1a1.81,1.81,0,0,1,1.8,1.8Z"/><path class="cls-3" d="M48.46,42H10.13V19a3.17,3.17,0,0,1,3.16-3.16h7.44v1H13.29A2.16,2.16,0,0,0,11.13,19V41H47.46V19a2.17,2.17,0,0,0-2.17-2.17H37.72v-1h7.57A3.18,3.18,0,0,1,48.46,19Z"/></svg>