<svg id="Layer_1" data-name="Layer 1" xmlns="http://www.w3.org/2000/svg" viewBox="0 0 60 60"><defs><style>.cls-1{fill:#fedeb6;}.cls-2{fill:#cdf1ef;}.cls-3{fill:#ffc882;}.cls-4{fill:#022c48;}</style></defs><title>Credit Cards- On Light</title><rect class="cls-1" x="3.3" y="36.88" width="1" height="4.29"/><rect class="cls-1" x="1.65" y="38.53" width="4.3" height="1"/><rect class="cls-2" x="54.49" y="39.03" width="1" height="4.3" transform="translate(-13.01 50.95) rotate(-45)"/><rect class="cls-2" x="52.85" y="40.67" width="4.3" height="1" transform="translate(-13.01 50.95) rotate(-45)"/><rect class="cls-2" x="24.16" y="3.86" width="1" height="4.3" transform="translate(2.97 19.2) rotate(-45)"/><rect class="cls-2" x="22.52" y="5.51" width="4.3" height="1" transform="translate(2.97 19.2) rotate(-45)"/><path class="cls-2" d="M58.9,16.62a1.51,1.51,0,0,1-1.26-.82c-.12-.21-.27-.33-.39-.33h-.39c-.12,0-.27.12-.39.33a1.51,1.51,0,0,1-1.26.82h-.39a1.49,1.49,0,0,1-1.25-.82c-.12-.21-.27-.33-.4-.33h-.38c-.13,0-.28.12-.4.33a1.49,1.49,0,0,1-1.25.82h-.39a1.51,1.51,0,0,1-1.26-.82c-.12-.21-.27-.33-.39-.33h-.19v-1h.19a1.51,1.51,0,0,1,1.26.82c.12.2.27.33.39.33h.39c.12,0,.27-.13.39-.33a1.51,1.51,0,0,1,1.26-.82h.38a1.51,1.51,0,0,1,1.26.82c.12.2.27.33.39.33h.39c.12,0,.27-.13.39-.33a1.51,1.51,0,0,1,1.26-.82h.39a1.5,1.5,0,0,1,1.25.82c.12.2.27.33.4.33Z"/><path class="cls-1" d="M39.91,8.42a2.16,2.16,0,1,1,2.15-2.15A2.15,2.15,0,0,1,39.91,8.42Zm0-3.31a1.16,1.16,0,1,0,1.15,1.16A1.15,1.15,0,0,0,39.91,5.11Z"/><path class="cls-2" d="M2.29,26.65A2.15,2.15,0,1,1,4.44,24.5,2.15,2.15,0,0,1,2.29,26.65Zm0-3.3A1.15,1.15,0,1,0,3.44,24.5,1.14,1.14,0,0,0,2.29,23.35Z"/><path class="cls-1" d="M9.13,10.14H5.27V6.28H9.13Zm-2.86-1H8.13V7.28H6.27Z"/><path class="cls-1" d="M56.79,30.24H52.92V26.38h3.87Zm-2.87-1h1.87V27.38H53.92Z"/><path class="cls-3" d="M13.4,34.85h-3a1.56,1.56,0,0,1-1.56-1.56V14.78a1.56,1.56,0,0,1,1.56-1.56H39.59a1.55,1.55,0,0,1,1.55,1.56v6h-1v-6a.56.56,0,0,0-.55-.56H10.37a.56.56,0,0,0-.56.56V33.29a.56.56,0,0,0,.56.56h3Z"/><rect class="cls-3" x="8.81" y="17.52" width="32.33" height="1"/><rect class="cls-3" x="8.81" y="22.25" width="4.52" height="1"/><path class="cls-4" d="M45.57,43.87H16.35a1.55,1.55,0,0,1-1.56-1.55V23.8a1.56,1.56,0,0,1,1.56-1.55H45.57a1.56,1.56,0,0,1,1.56,1.55V42.32A1.55,1.55,0,0,1,45.57,43.87ZM16.35,23.25a.56.56,0,0,0-.56.55V42.32a.56.56,0,0,0,.56.55H45.57a.56.56,0,0,0,.56-.55V23.8a.56.56,0,0,0-.56-.55Z"/><rect class="cls-4" x="18.46" y="35.91" width="12" height="1"/><rect class="cls-4" x="32.77" y="29.08" width="1" height="1"/><rect class="cls-1" x="18.46" y="39.26" width="1" height="1"/><rect class="cls-1" x="20.46" y="39.26" width="1" height="1"/><rect class="cls-1" x="22.46" y="39.26" width="1" height="1"/><rect class="cls-1" x="24.46" y="39.26" width="1" height="1"/><rect class="cls-1" x="27.46" y="39.26" width="1" height="1"/><rect class="cls-1" x="29.46" y="39.26" width="1" height="1"/><rect class="cls-1" x="31.46" y="39.26" width="1" height="1"/><rect class="cls-1" x="33.46" y="39.26" width="1" height="1"/><rect class="cls-1" x="36.46" y="39.26" width="1" height="1"/><rect class="cls-1" x="38.46" y="39.26" width="1" height="1"/><rect class="cls-1" x="40.46" y="39.26" width="1" height="1"/><rect class="cls-1" x="42.46" y="39.26" width="1" height="1"/><rect class="cls-4" x="40.14" y="29.08" width="1" height="1"/><path class="cls-4" d="M34.29,38.24a1.84,1.84,0,1,1,1.83-1.83A1.83,1.83,0,0,1,34.29,38.24Zm0-2.67a.84.84,0,0,0-.83.84.83.83,0,1,0,1.66,0A.84.84,0,0,0,34.29,35.57Z"/><path class="cls-4" d="M37,38.24a1.84,1.84,0,1,1,1.83-1.83A1.84,1.84,0,0,1,37,38.24Zm0-2.67a.85.85,0,0,0-.84.84.84.84,0,0,0,.84.83.83.83,0,0,0,.83-.83A.84.84,0,0,0,37,35.57Z"/><path class="cls-4" d="M39.62,38.24a1.84,1.84,0,1,1,1.84-1.83A1.83,1.83,0,0,1,39.62,38.24Zm0-2.67a.84.84,0,0,0-.83.84.84.84,0,0,0,1.67,0A.85.85,0,0,0,39.62,35.57Z"/><rect class="cls-1" x="29.26" y="19.79" width="8.42" height="1"/><rect class="cls-4" x="20.46" y="28.08" width="2.5" height="1"/><rect class="cls-4" x="20.46" y="30.08" width="2.5" height="1"/><rect class="cls-4" x="22.96" y="27.08" width="2" height="1"/><rect class="cls-4" x="22.96" y="29.08" width="2" height="1"/><rect class="cls-4" x="22.96" y="31.08" width="2" height="1"/><rect class="cls-4" x="22.46" y="27.08" width="1" height="5"/><rect class="cls-4" x="18.46" y="31.08" width="2" height="1"/><rect class="cls-4" x="18.46" y="29.08" width="2" height="1"/><rect class="cls-4" x="18.46" y="27.08" width="2" height="1"/><rect class="cls-4" x="19.96" y="27.08" width="1" height="5"/><polygon class="cls-4" points="38.46 32.08 35.46 32.08 35.46 31.07 37.46 31.07 37.46 30.35 35.46 29.45 35.46 27.08 38.46 27.07 38.46 28.07 36.46 28.08 36.46 28.8 38.46 29.7 38.46 32.08"/><rect class="cls-4" x="36.47" y="31.58" width="1" height="1.5"/><rect class="cls-4" x="36.47" y="26.08" width="1" height="1.5"/><path class="cls-2" d="M42.39,54c0,.78-6,1.42-13.31,1.42s-13.3-.64-13.3-1.42,6-1.42,13.3-1.42S42.39,53.24,42.39,54Z"/></svg>