<svg id="Layer_1" data-name="Layer 1" xmlns="http://www.w3.org/2000/svg" viewBox="0 0 60 60"><defs><style>.cls-1{fill:#fedeb6;}.cls-2{fill:#cdf1ef;}.cls-3{fill:#fec687;}.cls-4{fill:#1db9b2;}.cls-5{fill:#022c48;}</style></defs><title>Customer Service- On Light</title><rect class="cls-1" x="2.25" y="41.72" width="1" height="4.3"/><rect class="cls-1" x="0.6" y="43.37" width="4.29" height="1"/><rect class="cls-2" x="53.44" y="43.87" width="1" height="4.3" transform="translate(-16.74 51.62) rotate(-45)"/><rect class="cls-2" x="51.8" y="45.52" width="4.3" height="1" transform="translate(-16.74 51.62) rotate(-45)"/><rect class="cls-2" x="25.12" y="2.7" width="1" height="4.3" transform="translate(4.07 19.53) rotate(-45)"/><rect class="cls-2" x="23.47" y="4.35" width="4.3" height="1" transform="translate(4.07 19.53) rotate(-45)"/><path class="cls-2" d="M59.85,21.46a1.51,1.51,0,0,1-1.26-.82c-.12-.21-.27-.33-.39-.33h-.39c-.12,0-.27.12-.39.33a1.51,1.51,0,0,1-1.26.82h-.39a1.49,1.49,0,0,1-1.25-.82c-.12-.21-.27-.33-.4-.33h-.38c-.13,0-.28.12-.4.33a1.49,1.49,0,0,1-1.25.82H51.7a1.48,1.48,0,0,1-1.25-.82c-.13-.2-.28-.33-.4-.33h-.19v-1h.19a1.51,1.51,0,0,1,1.26.82c.12.2.27.33.39.33h.39c.12,0,.27-.13.39-.33a1.51,1.51,0,0,1,1.26-.82h.38a1.51,1.51,0,0,1,1.26.82c.12.2.27.33.39.33h.39c.12,0,.27-.13.4-.33a1.48,1.48,0,0,1,1.25-.82h.39a1.49,1.49,0,0,1,1.25.82c.12.2.27.33.4.33Z"/><path class="cls-1" d="M41.86,11.26A2.15,2.15,0,1,1,44,9.11,2.15,2.15,0,0,1,41.86,11.26Zm0-3.3A1.15,1.15,0,1,0,43,9.11,1.14,1.14,0,0,0,41.86,8Z"/><path class="cls-2" d="M3.24,31.49a2.15,2.15,0,1,1,2.15-2.15A2.15,2.15,0,0,1,3.24,31.49Zm0-3.3a1.15,1.15,0,1,0,1.15,1.15A1.14,1.14,0,0,0,3.24,28.19Z"/><path class="cls-1" d="M10.08,18H6.22V14.12h3.86ZM7.22,17H9.08V15.12H7.22Z"/><path class="cls-1" d="M57.74,35.08H53.87V31.22h3.87Zm-2.87-1h1.87V32.22H54.87Z"/><path class="cls-2" d="M42,55.6c0,.79-6,1.43-13.31,1.43s-13.3-.64-13.3-1.43,6-1.42,13.3-1.42S42,54.82,42,55.6Z"/><path class="cls-3" d="M37,43.31l-.49-.87a15.57,15.57,0,0,0-9.85-29,15.44,15.44,0,0,0-11.32,7.76l-.87-.5a16.56,16.56,0,0,1,30.81,5.77A16.66,16.66,0,0,1,37,43.31Z"/><path class="cls-4" d="M38.72,44.75l.84-.55.54.83-.83.55Zm1.83-1.29.76-.65.65.77-.77.64ZM42.21,42l.69-.73.73.68-.68.73Zm1.48-1.69.29-.4h0l.3-.4.81.59-.3.4h0l-.29.41Z"/><path class="cls-3" d="M47.69,34.7l-.95-.29A18.69,18.69,0,0,0,38,12.56l.49-.87a19.66,19.66,0,0,1,9.18,23Z"/><path class="cls-4" d="M15.17,14.79l.37-.34h0l.37-.34.68.73-.73.68ZM17,13.24l.8-.59.59.81-.81.59Zm1.95-1.32.44-.24h0l.43-.25.49.88-.87.48ZM21,10.84l.93-.38.37.93-.92.38ZM23.22,10l.48-.14h0l.48-.13.26,1-.48.13h0l-.48.13Zm2.3-.55,1-.14.14,1-1,.15Zm2.34-.26,1,0,0,1-1,0Z"/><path class="cls-3" d="M28.92,48.52A19.68,19.68,0,0,1,9.26,28.86h1A18.68,18.68,0,0,0,28.92,47.52Z"/><path class="cls-5" d="M31.34,29.83H26.86a.5.5,0,0,1-.5-.5c0-.47.49-1,1.59-2.1s2.39-2.43,2.39-3.12c0-1.25-.56-1.81-1.8-1.81a1.41,1.41,0,0,0-1.43,1.43v.5h-1v-.5a2.36,2.36,0,0,1,2.43-2.43,2.53,2.53,0,0,1,2.8,2.81c0,1-1.11,2.23-2.68,3.82-.28.28-.61.61-.87.9h3.55Z"/><path class="cls-5" d="M36.88,29.83h-1V28.05H32.43a.51.51,0,0,1-.5-.5v-1a.5.5,0,0,1,.08-.26l2.8-4.46a.51.51,0,0,1,.43-.23h1.14a.5.5,0,0,1,.5.5v5h1.35v1H36.88Zm-4-2.78h3V22.56h-.37l-2.58,4.1Z"/><path class="cls-5" d="M29,45.4A16.52,16.52,0,0,1,13.1,24.26a.48.48,0,0,1,.39-.35l5-.92a.5.5,0,0,1,.58.38l1.63,7.24a.51.51,0,0,1-.31.58l-1.78.7A10.78,10.78,0,0,0,26,39.24l1-2.1a.48.48,0,0,1,.56-.27l7.05,1.6a.49.49,0,0,1,.38.59l-1.06,5.29a.51.51,0,0,1-.35.39A16.86,16.86,0,0,1,29,45.4ZM14,24.84a15.38,15.38,0,0,0-.54,4A15.56,15.56,0,0,0,29,44.4a15.81,15.81,0,0,0,4-.54l.91-4.52-6.2-1.41-1,2.12a.51.51,0,0,1-.57.27,11.77,11.77,0,0,1-8.6-8.61.5.5,0,0,1,.3-.58l1.8-.72-1.43-6.35Z"/><path class="cls-4" d="M36.21,32.79v-1h1v1Zm-2.3,0v-1h1v1Zm-2.3,0v-1h1v1Zm-2.3,0v-1h1v1Zm-2.3,0v-1h1v1Z"/></svg>