<svg id="Layer_1" data-name="Layer 1" xmlns="http://www.w3.org/2000/svg" viewBox="0 0 60 60"><defs><style>.cls-1{fill:#fedeb6;}.cls-2{fill:#cdf1ef;}.cls-3{fill:#fff;}.cls-4{fill:#ffc882;}</style></defs><title>Digital Wallet- On Dark</title><rect class="cls-1" x="7.92" y="43.7" width="1" height="4.3"/><rect class="cls-1" x="6.28" y="45.35" width="4.29" height="1"/><rect class="cls-2" x="55.12" y="43.85" width="1" height="4.3" transform="translate(-16.23 52.8) rotate(-45)"/><rect class="cls-2" x="53.47" y="45.5" width="4.3" height="1" transform="translate(-16.23 52.8) rotate(-45)"/><rect class="cls-2" x="23.79" y="1.68" width="1" height="4.3" transform="translate(4.41 18.3) rotate(-45)"/><rect class="cls-2" x="22.15" y="3.33" width="4.3" height="1" transform="translate(4.41 18.3) rotate(-45)"/><path class="cls-2" d="M59.53,20.44a1.51,1.51,0,0,1-1.26-.82c-.12-.2-.27-.33-.4-.33h-.38c-.12,0-.28.13-.4.33a1.48,1.48,0,0,1-1.25.82h-.39a1.49,1.49,0,0,1-1.25-.82c-.12-.21-.28-.33-.4-.33h-.38c-.13,0-.28.12-.4.33a1.5,1.5,0,0,1-1.25.82h-.39a1.51,1.51,0,0,1-1.26-.82c-.12-.21-.27-.33-.39-.33h-.19v-1h.19a1.48,1.48,0,0,1,1.25.82c.12.2.28.33.4.33h.39c.12,0,.27-.13.39-.33a1.51,1.51,0,0,1,1.26-.82h.38a1.51,1.51,0,0,1,1.26.82c.12.2.27.33.39.33h.39c.12,0,.27-.13.39-.33a1.51,1.51,0,0,1,1.26-.82h.38a1.51,1.51,0,0,1,1.26.82c.12.2.27.33.4.33Z"/><path class="cls-1" d="M43.54,11.24a2.15,2.15,0,1,1,2.15-2.15A2.15,2.15,0,0,1,43.54,11.24Zm0-3.3a1.15,1.15,0,1,0,1.15,1.15A1.14,1.14,0,0,0,43.54,7.94Z"/><path class="cls-2" d="M4.92,31.47a2.15,2.15,0,1,1,2.15-2.15A2.16,2.16,0,0,1,4.92,31.47Zm0-3.3a1.15,1.15,0,1,0,1.15,1.15A1.15,1.15,0,0,0,4.92,28.17Z"/><path class="cls-1" d="M9.76,15H5.89V11.1H9.76ZM6.89,14H8.76V12.1H6.89Z"/><path class="cls-1" d="M59.42,35.06H55.55V31.2h3.87Zm-2.87-1h1.87V32.2H56.55Z"/><path class="cls-2" d="M43,32.9H35.84a2.29,2.29,0,0,1-2.28-2.29h0a2.28,2.28,0,0,1,2.28-2.28H43Z"/><path class="cls-3" d="M40.34,24.07H20a2.44,2.44,0,1,1,0-4.88H42.11v4.86h-1V20.19H20a1.44,1.44,0,0,0,0,2.88H40.34Z"/><path class="cls-3" d="M23.22,38.78H20a2.44,2.44,0,0,1-2.44-2.44V21.63h1V36.34A1.45,1.45,0,0,0,20,37.78h3.26Z"/><path class="cls-3" d="M40.34,38.78H38.29v-1h2.05a1.45,1.45,0,0,0,1.44-1.44V32.9h1v3.44A2.45,2.45,0,0,1,40.34,38.78Z"/><path class="cls-3" d="M42.78,28.33h-1V25.51a1.45,1.45,0,0,0-1.44-1.44v-1a2.45,2.45,0,0,1,2.44,2.44Z"/><path class="cls-3" d="M43.52,33.4H35.84a2.79,2.79,0,0,1,0-5.57h7.68Zm-7.68-4.57a1.79,1.79,0,0,0,0,3.57h6.68V28.83Z"/><rect class="cls-2" x="20.89" y="21.19" width="1" height="1"/><rect class="cls-3" x="22.89" y="21.19" width="1" height="1"/><rect class="cls-2" x="24.89" y="21.19" width="1" height="1"/><rect class="cls-3" x="26.89" y="21.19" width="11.98" height="1"/><polygon class="cls-3" points="24.39 33.07 24.39 32.07 26.39 32.07 26.39 31.35 24.39 30.45 24.39 28.07 27.39 28.07 27.39 29.07 25.39 29.07 25.39 29.8 27.39 30.7 27.39 33.07 24.39 33.07"/><rect class="cls-3" x="25.4" y="32.57" width="1" height="1.5"/><rect class="cls-3" x="25.4" y="27.07" width="1" height="1.5"/><polygon class="cls-2" points="37.26 18.32 36.26 18.32 36.26 14.42 37.61 13.12 39.76 13.12 39.76 14.12 38.02 14.12 37.26 14.85 37.26 18.32"/><polygon class="cls-3" points="35.26 18.32 34.26 18.32 34.26 13.12 36.26 11.07 36.26 7.94 37.26 7.94 37.26 11.47 35.26 13.53 35.26 18.32"/><polygon class="cls-2" points="33.26 18.32 32.26 18.32 32.26 13.53 30.2 11.48 30.2 7.94 31.2 7.94 31.2 11.06 33.26 13.12 33.26 18.32"/><polygon class="cls-3" points="31.2 18.32 30.2 18.32 30.2 15.29 26.47 11.56 26.47 7.94 27.47 7.94 27.47 11.14 31.2 14.88 31.2 18.32"/><rect class="cls-2" x="28.26" y="16.33" width="1" height="2"/><rect class="cls-2" x="26.33" y="14.24" width="1" height="1"/><rect class="cls-2" x="26.33" y="16.24" width="1" height="2.09"/><polygon class="cls-3" points="25.26 18.32 24.26 18.32 24.26 14.45 23.26 13.45 23.26 7.94 24.26 7.94 24.26 13.03 25.26 14.03 25.26 18.32"/><rect class="cls-1" x="13.28" y="12.96" width="1" height="1"/><rect class="cls-1" x="13.28" y="10.96" width="1" height="1"/><rect class="cls-1" x="15.28" y="10.96" width="1" height="1"/><polygon class="cls-3" points="23.32 48.2 22.32 48.2 22.32 44.66 24.32 42.6 24.32 37.81 25.32 37.81 25.32 43.01 23.32 45.07 23.32 48.2"/><polygon class="cls-3" points="33.32 48.19 32.32 48.19 32.32 45.06 30.32 43.01 30.32 37.8 31.32 37.8 31.32 42.6 33.32 44.66 33.32 48.19"/><polygon class="cls-2" points="37.32 48.19 36.32 48.19 36.32 44.99 32.32 41.26 32.32 37.8 33.32 37.8 33.32 40.82 37.32 44.56 37.32 48.19"/><rect class="cls-3" x="34.32" y="37.8" width="1" height="2.09"/><rect class="cls-3" x="34.32" y="46.19" width="1" height="2"/><rect class="cls-2" x="29.32" y="44.19" width="1" height="2"/><rect class="cls-3" x="36.32" y="40.89" width="1" height="1"/><rect class="cls-2" x="29.32" y="47.19" width="1" height="1"/><rect class="cls-2" x="36.32" y="37.8" width="1" height="2.09"/><rect class="cls-2" x="28.32" y="37.81" width="1" height="4.08"/><rect class="cls-3" x="26.32" y="37.81" width="1" height="10.38"/><rect class="cls-3" x="35.96" y="30.11" width="1" height="1"/><rect class="cls-3" x="28.44" y="30.11" width="1" height="1"/><rect class="cls-3" x="22.33" y="30.11" width="1" height="1"/><polygon class="cls-4" points="41.8 44.86 40.81 44.71 41.51 40.2 45.77 41.85 45.4 42.78 42.31 41.58 41.8 44.86"/><rect class="cls-4" x="43.61" y="42.68" width="1" height="4.04" transform="matrix(0.87, -0.5, 0.5, 0.87, -16.44, 28.05)"/><polygon class="cls-4" points="47.91 28.33 46.91 28.33 46.91 16.05 44.98 14.12 42.28 14.12 42.28 13.12 45.4 13.12 47.91 15.64 47.91 28.33"/><rect class="cls-4" x="46.91" y="33.83" width="1" height="4.45"/><polygon class="cls-4" points="14.28 23.57 13.28 23.57 13.28 19.27 17.81 14.74 22.84 14.74 22.84 18.32 21.84 18.32 21.84 15.74 18.23 15.74 14.28 19.69 14.28 23.57"/><polygon class="cls-4" points="20.62 42.03 16.82 42.03 13.28 38.49 13.28 32.9 14.28 32.9 14.28 38.07 17.23 41.03 20.62 41.03 20.62 42.03"/><rect class="cls-1" x="46.91" y="31.57" width="1" height="1"/><rect class="cls-1" x="46.91" y="29.57" width="1" height="1"/><rect class="cls-1" x="13.28" y="26.74" width="1" height="1"/><rect class="cls-1" x="13.28" y="24.74" width="1" height="1"/><rect class="cls-1" x="13.28" y="30.74" width="1" height="1"/><rect class="cls-1" x="13.28" y="28.74" width="1" height="1"/><path class="cls-2" d="M41.78,55.54c0,.78-6,1.42-13.31,1.42s-13.3-.64-13.3-1.42,6-1.42,13.3-1.42S41.78,54.75,41.78,55.54Z"/></svg>