<svg id="Layer_1" data-name="Layer 1" xmlns="http://www.w3.org/2000/svg" viewBox="0 0 60 60"><defs><style>.cls-1{fill:#fedeb6;}.cls-2{fill:#cdf1ef;}.cls-3{fill:#fff;}.cls-4{fill:#fec687;}.cls-5{fill:#1db9b2;}</style></defs><title>Download- On Dark</title><rect class="cls-1" x="5.81" y="36.13" width="1" height="4.3"/><rect class="cls-1" x="4.16" y="37.77" width="4.3" height="1"/><rect class="cls-2" x="49.36" y="17.11" width="1" height="4.3" transform="translate(0.98 40.9) rotate(-45)"/><rect class="cls-2" x="47.71" y="18.76" width="4.3" height="1" transform="translate(0.98 40.89) rotate(-45)"/><rect class="cls-2" x="23.05" y="1.66" width="1" height="4.3" transform="translate(4.21 17.77) rotate(-45)"/><rect class="cls-2" x="21.4" y="3.3" width="4.3" height="1" transform="translate(4.21 17.77) rotate(-45)"/><path class="cls-2" d="M56,43.49a1.51,1.51,0,0,1-1.26-.82c-.12-.2-.27-.33-.39-.33H54c-.12,0-.27.13-.39.33a1.51,1.51,0,0,1-1.26.82h-.39a1.5,1.5,0,0,1-1.25-.82c-.12-.2-.27-.33-.4-.33h-.38c-.12,0-.28.13-.4.33a1.49,1.49,0,0,1-1.25.82h-.39a1.48,1.48,0,0,1-1.25-.82c-.12-.2-.28-.33-.4-.33H46v-1h.19a1.51,1.51,0,0,1,1.26.82c.12.2.27.33.39.33h.39c.12,0,.27-.13.39-.33a1.51,1.51,0,0,1,1.26-.82h.38a1.51,1.51,0,0,1,1.26.82c.12.2.27.33.39.33h.39c.12,0,.28-.13.4-.33A1.49,1.49,0,0,1,54,41.34h.39a1.49,1.49,0,0,1,1.25.82c.12.2.27.33.4.33Z"/><path class="cls-1" d="M40.07,9.61a2.16,2.16,0,1,1,2.16-2.15A2.15,2.15,0,0,1,40.07,9.61Zm0-3.31a1.16,1.16,0,1,0,1.16,1.16A1.16,1.16,0,0,0,40.07,6.3Z"/><path class="cls-2" d="M5.06,29.19A2.16,2.16,0,1,1,7.21,27,2.16,2.16,0,0,1,5.06,29.19Zm0-3.31A1.16,1.16,0,1,0,6.21,27,1.16,1.16,0,0,0,5.06,25.88Z"/><path class="cls-1" d="M13.82,15.58H10V11.72h3.86Zm-2.86-1h1.86V12.72H11Z"/><path class="cls-1" d="M51.38,34.21H47.52V30.35h3.86Zm-2.86-1h1.86V31.35H48.52Z"/><path class="cls-2" d="M40.74,56.65c0,.79-6,1.42-13.3,1.42s-13.31-.63-13.31-1.42,6-1.42,13.31-1.42S40.74,55.87,40.74,56.65Z"/><polygon class="cls-2" points="9.17 35 15.61 30.53 27.5 36.88 20.74 41.96 9.17 35"/><polygon class="cls-2" points="45.7 35 39.26 30.53 27.38 36.88 34.13 41.96 45.7 35"/><path class="cls-3" d="M27.5,49.56a.48.48,0,0,1-.26-.07.5.5,0,0,1-.24-.43V36.88a.51.51,0,0,1,.26-.44l11.88-6.35.47.88L28,37.18v11l10.88-5.82V38.67h1v4a.5.5,0,0,1-.27.44L27.73,49.5A.46.46,0,0,1,27.5,49.56Z"/><path class="cls-3" d="M27.73,37.32l-.47-.88,11-5.9-4.4-2.18.45-.89,5.26,2.61a.5.5,0,0,1,0,.89Z"/><rect class="cls-3" x="15.32" y="28.79" width="5.55" height="1" transform="translate(-11.13 11.1) rotate(-26.39)"/><path class="cls-3" d="M27.5,49.56a.48.48,0,0,1-.24-.06L15.38,43.15a.5.5,0,0,1-.27-.44V38.87h1v3.54L27,48.23v-11L15.38,31l.47-.88,11.88,6.35a.52.52,0,0,1,.27.44V49.06a.5.5,0,0,1-.25.43A.47.47,0,0,1,27.5,49.56Z"/><path class="cls-3" d="M20.74,42.46a.59.59,0,0,1-.25-.07l-11.58-7A.51.51,0,0,1,8.67,35a.49.49,0,0,1,.21-.43l5.81-4L8.91,27.07a.49.49,0,0,1-.24-.44.5.5,0,0,1,.27-.43l12.38-6.48a.49.49,0,0,1,.53,0l1.34,1-.6.8-1.08-.81L10.19,26.68l5.68,3.42a.47.47,0,0,1,.24.41.49.49,0,0,1-.21.43l-5.81,4,10.62,6.38,6.48-4.87a.53.53,0,0,1,.6,0l6.66,4.75,10.13-6.46-5.49-3.82a.52.52,0,0,1-.21-.41.51.51,0,0,1,.21-.41l5.16-3.64L33.48,20.75l-1.4,1.05-.6-.79,1.66-1.25a.49.49,0,0,1,.53,0L45.44,26a.49.49,0,0,1,.26.41.47.47,0,0,1-.21.44l-5.24,3.69,5.52,3.85a.51.51,0,0,1,.21.42.5.5,0,0,1-.23.41l-11,7a.5.5,0,0,1-.56,0L27.5,37.5,21,42.36A.51.51,0,0,1,20.74,42.46Z"/><rect class="cls-4" x="29.65" y="12.93" width="1" height="12.14"/><rect class="cls-4" x="24" y="10.84" width="1" height="14.23"/><rect class="cls-5" x="32.47" y="8.23" width="1" height="8.8"/><rect class="cls-5" x="21.18" y="8.77" width="1" height="5.14"/><rect class="cls-1" x="21.18" y="14.71" width="1" height="0.92"/><rect class="cls-1" x="21.18" y="16.43" width="1" height="0.92"/><rect class="cls-5" x="26.82" y="9.79" width="1" height="7.32"/><rect class="cls-1" x="26.82" y="17.91" width="1" height="0.92"/><rect class="cls-1" x="26.82" y="19.63" width="1" height="0.92"/><rect class="cls-1" x="32.47" y="17.84" width="1" height="0.92"/><path class="cls-4" d="M27.32,32.21a.5.5,0,0,1-.33-.13l-7.41-6.63a.49.49,0,0,1,.33-.87H25v1H21.22L27.32,31l6.11-5.47H29.65v-1h5.09a.49.49,0,0,1,.33.87l-7.41,6.63A.5.5,0,0,1,27.32,32.21Z"/></svg>