<svg id="Layer_1" data-name="Layer 1" xmlns="http://www.w3.org/2000/svg" xmlns:xlink="http://www.w3.org/1999/xlink" viewBox="0 0 60 60"><defs><style>.cls-1,.cls-2,.cls-21{fill:none;}.cls-1{clip-rule:evenodd;}.cls-3{clip-path:url(#clip-path);}.cls-4{clip-path:url(#clip-path-2);}.cls-5{fill:#fedeb6;}.cls-6{clip-path:url(#clip-path-3);}.cls-7{fill:#022c48;}.cls-8{clip-path:url(#clip-path-5);}.cls-9{clip-path:url(#clip-path-7);}.cls-10{clip-path:url(#clip-path-9);}.cls-11{fill:#9ce3df;}.cls-12{clip-path:url(#clip-path-11);}.cls-13{clip-path:url(#clip-path-13);}.cls-14{fill:#cdf1ef;}.cls-15{clip-path:url(#clip-path-15);}.cls-16{isolation:isolate;}.cls-17{clip-path:url(#clip-path-17);}.cls-18{clip-path:url(#clip-path-18);}.cls-19{clip-path:url(#clip-path-19);}.cls-20,.cls-22{fill:#002b49;}.cls-21{stroke:#002b49;stroke-miterlimit:10;stroke-width:0.5px;}.cls-22{font-size:6.3px;font-family:MessinaSansWeb-Bold, MessinaSansWeb;font-weight:700;}.cls-23{clip-path:url(#clip-path-22);}.cls-24{clip-path:url(#clip-path-24);}.cls-25{clip-path:url(#clip-path-26);}.cls-26{fill:#1db9b2;}.cls-27{clip-path:url(#clip-path-28);}.cls-28{fill:#fec687;}.cls-29{clip-path:url(#clip-path-30);}.cls-30{clip-path:url(#clip-path-32);}.cls-31{fill:#ffc882;}.cls-32{clip-path:url(#clip-path-34);}.cls-33{clip-path:url(#clip-path-36);}.cls-34{clip-path:url(#clip-path-38);}.cls-35{clip-path:url(#clip-path-40);}.cls-36{clip-path:url(#clip-path-42);}.cls-37{clip-path:url(#clip-path-44);}.cls-38{clip-path:url(#clip-path-46);}.cls-39{clip-path:url(#clip-path-48);}.cls-40{clip-path:url(#clip-path-50);}.cls-41{clip-path:url(#clip-path-52);}.cls-42{clip-path:url(#clip-path-54);}</style><clipPath id="clip-path"><path class="cls-1" d="M35.88,12a1.55,1.55,0,0,1-1.3-.86c-.12-.21-.28-.35-.41-.35h-.4c-.13,0-.28.14-.41.35a1.54,1.54,0,0,1-1.3.86h-.4a1.55,1.55,0,0,1-1.31-.86c-.12-.21-.28-.35-.41-.35h-.4c-.12,0-.28.14-.41.35a1.54,1.54,0,0,1-1.3.86h-.4a1.54,1.54,0,0,1-1.3-.86c-.13-.22-.29-.35-.41-.35h-.2v-1h.2a1.55,1.55,0,0,1,1.3.86c.12.22.28.35.41.35h.4c.13,0,.29-.13.41-.35a1.55,1.55,0,0,1,1.3-.86h.4a1.55,1.55,0,0,1,1.31.86c.12.22.28.35.41.35h.4c.13,0,.28-.13.41-.35a1.54,1.54,0,0,1,1.3-.86h.4a1.54,1.54,0,0,1,1.3.86c.13.22.29.35.41.35Z"/></clipPath><clipPath id="clip-path-2"><rect class="cls-2" x="-1.48" y="1.47" width="62" height="61"/></clipPath><clipPath id="clip-path-3"><path class="cls-1" d="M25.55,40h-1a2.22,2.22,0,0,1,2.21-2.24H34.1a1.63,1.63,0,0,0,0-3.26H28.42a5.64,5.64,0,0,1-2.15-.42l-4.38-1.78a4.66,4.66,0,0,0-1.77-.35H14.83V30.89h5.29a5.69,5.69,0,0,1,2.16.42l4.37,1.78a4.69,4.69,0,0,0,1.77.35H34.1a2.68,2.68,0,0,1,0,5.36H26.72A1.18,1.18,0,0,0,25.55,40"/></clipPath><clipPath id="clip-path-5"><path class="cls-1" d="M29.88,46.65A5.25,5.25,0,0,1,28,46.32l-8.7-3.24a6.27,6.27,0,0,0-2.14-.38H14.83V41.64H17.2a7.09,7.09,0,0,1,2.5.45l8.7,3.25a4.27,4.27,0,0,0,3.43-.21l15-7.79a1.47,1.47,0,0,0,.74-.91,1.49,1.49,0,0,0-1.87-1.84L36,37.79l-.32-1,9.7-3.2a2.51,2.51,0,0,1,2.94,1.14,2.55,2.55,0,0,1-1,3.55l-15,7.78a5.15,5.15,0,0,1-2.42.59"/></clipPath><clipPath id="clip-path-7"><path class="cls-1" d="M14.28,44.05H9.55V43h4.73a.36.36,0,0,0,.36-.37V30.72a.36.36,0,0,0-.36-.36H9.55V29.3h4.73a1.41,1.41,0,0,1,1.4,1.42V42.63a1.41,1.41,0,0,1-1.4,1.42"/></clipPath><clipPath id="clip-path-9"><rect class="cls-2" x="9.55" y="40.48" width="1.29" height="1.05"/></clipPath><clipPath id="clip-path-11"><rect class="cls-2" x="11.85" y="40.48" width="1.29" height="1.05"/></clipPath><clipPath id="clip-path-13"><path class="cls-1" d="M29,17l0-.07,1-1.53a.6.6,0,0,1,.44-.27h.07a.58.58,0,0,1,.46.22l0,.06,1,1.53a1.32,1.32,0,0,0,1.28.58l.09,0,1.79-.36a.57.57,0,0,1,.5.12l0,0a.64.64,0,0,1,.18.49v.06l-.37,1.81a1.2,1.2,0,0,0,0,.38,1.3,1.3,0,0,0,.51,1.15l.08.06,1.52,1a.55.55,0,0,1,.26.39.57.57,0,0,1-.2.36l-.06,0-1.53,1a1.34,1.34,0,0,0-.58,1.22.88.88,0,0,0,0,.28v.09l.37,1.8a.63.63,0,0,1-.12.5L35.8,28a.58.58,0,0,1-.48.18h-.07l-1.79-.37a1.3,1.3,0,0,0-1.31.49l0,.08-1,1.53a.59.59,0,0,1-.43.27h-.07a.61.61,0,0,1-.46-.21l0-.06-1-1.53a1.29,1.29,0,0,0-1.27-.58H27.7l-1.8.37a.58.58,0,0,1-.49-.12L25.36,28a.58.58,0,0,1-.18-.48v-.07l.37-1.8a1.62,1.62,0,0,0,0-.38,1.31,1.31,0,0,0-.51-1.16L25,24l-1.53-1a.63.63,0,0,1-.26-.4.61.61,0,0,1,.21-.35l.05,0,1.53-1A1.34,1.34,0,0,0,25.58,20a1.43,1.43,0,0,0,0-.29v-.08l-.37-1.81a.6.6,0,0,1,.12-.5l.05,0a.58.58,0,0,1,.48-.17h.06l1.8.36a1.24,1.24,0,0,0,.27,0A1.3,1.3,0,0,0,29,17Z"/></clipPath><clipPath id="clip-path-15"><path class="cls-1" d="M29,17l0-.07,1-1.53a.6.6,0,0,1,.44-.27h.07a.58.58,0,0,1,.46.22l0,.06,1,1.53a1.32,1.32,0,0,0,1.28.58l.09,0,1.79-.36a.57.57,0,0,1,.5.12l0,0a.64.64,0,0,1,.18.49v.06l-.37,1.81a1.2,1.2,0,0,0,0,.38,1.3,1.3,0,0,0,.51,1.15l.08.06,1.52,1a.55.55,0,0,1,.26.39.57.57,0,0,1-.2.36l-.06,0-1.53,1a1.34,1.34,0,0,0-.58,1.22.88.88,0,0,0,0,.28v.09l.37,1.8a.63.63,0,0,1-.12.5L35.8,28a.58.58,0,0,1-.48.18h-.07l-1.79-.37a1.3,1.3,0,0,0-1.31.49l0,.08-1,1.53a.59.59,0,0,1-.43.27h-.07a.61.61,0,0,1-.46-.21l0-.06-1-1.53a1.29,1.29,0,0,0-1.27-.58H27.7l-1.8.37a.58.58,0,0,1-.49-.12L25.36,28a.58.58,0,0,1-.18-.48v-.07l.37-1.8a1.62,1.62,0,0,0,0-.38,1.31,1.31,0,0,0-.51-1.16L25,24l-1.53-1a.63.63,0,0,1-.26-.4.61.61,0,0,1,.21-.35l.05,0,1.53-1A1.34,1.34,0,0,0,25.58,20a1.43,1.43,0,0,0,0-.29v-.08l-.37-1.81a.6.6,0,0,1,.12-.5l.05,0a.58.58,0,0,1,.48-.17h.06l1.8.36a1.24,1.24,0,0,0,.27,0A1.3,1.3,0,0,0,29,17Zm1.57-2.59a1.3,1.3,0,0,0-1,.52l-.05.07-1,1.53a.62.62,0,0,1-.57.27h-.06l-1.79-.36a1.28,1.28,0,0,0-1.13.3l-.07.06a1.3,1.3,0,0,0-.37,1.11V18l.05.21h-.05l.37,1.8h0a.63.63,0,0,1-.21.36l0,0-1.53,1a1.31,1.31,0,0,0-.59,1v.32A1.32,1.32,0,0,0,23,23.8l.07.05,1.53,1a.64.64,0,0,1,.26.39h0a1,1,0,0,1,0,.17v.06l-.37,1.8a1.31,1.31,0,0,0,.3,1.13l.06.07a1.34,1.34,0,0,0,1.11.38l.09,0,1.79-.37a.62.62,0,0,1,.59.21l0,0,1,1.54a1.34,1.34,0,0,0,1,.59h.09a1.32,1.32,0,0,0,1.05-.52l.05-.07,1-1.54a.61.61,0,0,1,.56-.27h.06l1.8.37a1.32,1.32,0,0,0,1.13-.3l.07-.06a1.3,1.3,0,0,0,.37-1.11v-.09l-.05-.21h.05l-.37-1.81h0a.59.59,0,0,1,.21-.35l.05,0,1.53-1a1.36,1.36,0,0,0,.59-1v-.08a.49.49,0,0,0,0-.12v-.11a1.32,1.32,0,0,0-.52-1.05l-.07,0-1.53-1A.59.59,0,0,1,36.3,20h0a.86.86,0,0,1,0-.16v-.06l.37-1.8a1.34,1.34,0,0,0-.3-1.14l-.06-.06a1.33,1.33,0,0,0-1.11-.38l-.09,0-1.8.36a.57.57,0,0,1-.58-.21l0-.05-1-1.53a1.31,1.31,0,0,0-1-.59Z"/></clipPath><clipPath id="clip-path-17"><rect class="cls-2" x="17.52" y="9.47" width="26" height="27"/></clipPath><clipPath id="clip-path-18"><rect class="cls-2" x="20.23" y="12.11" width="20.7" height="21.04"/></clipPath><clipPath id="clip-path-19"><rect class="cls-2" x="21.52" y="13.47" width="18" height="18"/></clipPath><clipPath id="clip-path-22"><rect class="cls-2" x="42.78" y="43.11" width="1.97" height="5.79"/></clipPath><clipPath id="clip-path-24"><rect class="cls-2" x="40.82" y="45.04" width="5.9" height="1.93"/></clipPath><clipPath id="clip-path-26"><rect class="cls-2" x="12.47" y="21.6" width="8.1" height="1.37"/></clipPath><clipPath id="clip-path-28"><rect class="cls-2" x="7.52" y="24.35" width="13.05" height="1.37"/></clipPath><clipPath id="clip-path-30"><rect class="cls-2" x="40.82" y="21.6" width="8.1" height="1.37"/></clipPath><clipPath id="clip-path-32"><rect class="cls-2" x="40.82" y="17.73" width="5.17" height="1.06"/></clipPath><clipPath id="clip-path-34"><polygon class="cls-1" points="44.76 20.4 44.03 19.65 45.4 18.26 44.03 16.86 44.76 16.11 46.87 18.26 44.76 20.4"/></clipPath><clipPath id="clip-path-36"><rect class="cls-2" x="11.61" y="19.07" width="1.23" height="1.25"/></clipPath><clipPath id="clip-path-38"><rect class="cls-2" x="14.07" y="19.07" width="1.23" height="1.25"/></clipPath><clipPath id="clip-path-40"><rect class="cls-2" x="19.34" y="19.07" width="1.23" height="1.25"/></clipPath><clipPath id="clip-path-42"><rect class="cls-2" x="16.88" y="19.07" width="1.23" height="1.25"/></clipPath><clipPath id="clip-path-44"><rect class="cls-2" x="16.88" y="16.57" width="1.23" height="1.25"/></clipPath><clipPath id="clip-path-46"><rect class="cls-2" x="40.86" y="25.17" width="1.23" height="1.25"/></clipPath><clipPath id="clip-path-48"><rect class="cls-2" x="43.32" y="25.17" width="1.23" height="1.25"/></clipPath><clipPath id="clip-path-50"><rect class="cls-2" x="48.59" y="25.17" width="1.23" height="1.25"/></clipPath><clipPath id="clip-path-52"><rect class="cls-2" x="46.13" y="25.17" width="1.23" height="1.25"/></clipPath><clipPath id="clip-path-54"><rect class="cls-2" x="46.13" y="27.67" width="1.23" height="1.25"/></clipPath></defs><title>Hand Number- On Light</title><g class="cls-3"><g class="cls-4"><rect class="cls-5" x="20.52" y="4.71" width="20.37" height="12.26"/></g></g><g class="cls-6"><g class="cls-4"><rect class="cls-7" x="9.83" y="25.89" width="31.91" height="19.1"/></g></g><g class="cls-8"><g class="cls-4"><rect class="cls-7" x="9.83" y="28.47" width="43.88" height="23.18"/></g></g><g class="cls-9"><g class="cls-4"><rect class="cls-7" x="4.55" y="24.3" width="16.14" height="24.75"/></g></g><g class="cls-10"><g class="cls-4"><rect class="cls-11" x="4.55" y="35.48" width="11.29" height="11.05"/></g></g><g class="cls-12"><g class="cls-4"><rect class="cls-11" x="6.85" y="35.48" width="11.29" height="11.05"/></g></g><g class="cls-13"><g class="cls-4"><rect class="cls-14" x="18.2" y="10.11" width="24.75" height="25.04"/></g></g><g class="cls-15"><g class="cls-4"><g class="cls-16"><g class="cls-17"><g class="cls-18"><g class="cls-19"><rect class="cls-20" x="15.23" y="7.11" width="30.7" height="31.04"/></g></g><g class="cls-19"><rect class="cls-21" x="20.23" y="12.11" width="20.7" height="21.05"/></g></g></g></g></g><g class="cls-4"><path class="cls-21" d="M30.58,15.11h-.07a.6.6,0,0,0-.44.27l-1,1.53L29,17a1.29,1.29,0,0,1-1.31.49l-1.8-.36h-.06a.58.58,0,0,0-.48.17l-.05,0a.6.6,0,0,0-.12.5l.37,1.81v.08a1.43,1.43,0,0,1,0,.29A1.34,1.34,0,0,1,25,21.23l-1.53,1-.05,0a.61.61,0,0,0-.21.35.63.63,0,0,0,.26.4L25,24l.08.05a1.31,1.31,0,0,1,.51,1.16,1.62,1.62,0,0,1,0,.38l-.37,1.8v.07a.58.58,0,0,0,.18.48l.05.05a.58.58,0,0,0,.49.12l1.8-.37h.09a1.29,1.29,0,0,1,1.27.58l1,1.53.05.06a.61.61,0,0,0,.46.21h.07a.59.59,0,0,0,.43-.27l1-1.53,0-.08a1.3,1.3,0,0,1,1.31-.49l1.79.37h.07A.58.58,0,0,0,35.8,28l.05-.05a.63.63,0,0,0,.12-.5l-.37-1.8v-.09a.88.88,0,0,1,0-.28A1.33,1.33,0,0,1,36.17,24l1.52-1,.06,0a.57.57,0,0,0,.2-.36.55.55,0,0,0-.26-.39l-1.52-1-.08-.06A1.3,1.3,0,0,1,35.58,20a1.2,1.2,0,0,1,0-.38L36,17.83v-.07a.63.63,0,0,0-.18-.48l0,0a.57.57,0,0,0-.5-.12l-1.79.36-.09,0a1.32,1.32,0,0,1-1.28-.58l-1-1.53,0-.06A.58.58,0,0,0,30.58,15.11Zm0-.71h.09a1.34,1.34,0,0,1,1,.59l1,1.53,0,.05a.57.57,0,0,0,.58.21l1.8-.36.09,0a1.33,1.33,0,0,1,1.11.38l.06.06a1.33,1.33,0,0,1,.3,1.13l-.37,1.81v.06a.86.86,0,0,0,0,.16h0a.59.59,0,0,0,.26.39l1.53,1,.07,0a1.32,1.32,0,0,1,.52,1.05v.11a.49.49,0,0,1,0,.12v.08a1.36,1.36,0,0,1-.59,1l-1.53,1-.05,0a.59.59,0,0,0-.21.35h0l.37,1.81h-.05l.05.21v.09a1.3,1.3,0,0,1-.37,1.11l-.07.06a1.32,1.32,0,0,1-1.13.3l-1.8-.37h-.06a.61.61,0,0,0-.56.27l-1,1.54-.05.07a1.32,1.32,0,0,1-1.05.52h-.09a1.34,1.34,0,0,1-1-.59l-1-1.54,0,0a.62.62,0,0,0-.59-.21l-1.79.37-.09,0a1.34,1.34,0,0,1-1.11-.38l-.06-.07a1.31,1.31,0,0,1-.3-1.13l.37-1.8v-.06a1,1,0,0,0,0-.17h0a.64.64,0,0,0-.26-.39l-1.53-1L23,23.8a1.32,1.32,0,0,1-.52-1.05v-.32a1.31,1.31,0,0,1,.59-1l1.53-1,0,0a.63.63,0,0,0,.21-.36h0l-.37-1.8h.05L24.49,18v-.08a1.3,1.3,0,0,1,.37-1.11l.07-.06a1.28,1.28,0,0,1,1.13-.3l1.79.36h.06a.62.62,0,0,0,.57-.27l1-1.53.05-.07A1.3,1.3,0,0,1,30.58,14.4Z"/><text class="cls-22" transform="translate(27.62 24.47)">1x</text></g><g class="cls-23"><g class="cls-4"><rect class="cls-14" x="37.78" y="38.11" width="11.97" height="15.79"/></g></g><g class="cls-24"><g class="cls-4"><rect class="cls-14" x="35.82" y="40.04" width="15.9" height="11.93"/></g></g><g class="cls-25"><g class="cls-4"><rect class="cls-26" x="7.47" y="16.6" width="18.1" height="11.37"/></g></g><g class="cls-27"><g class="cls-4"><rect class="cls-28" x="2.52" y="19.35" width="23.05" height="11.37"/></g></g><g class="cls-29"><g class="cls-4"><rect class="cls-14" x="35.82" y="16.6" width="18.1" height="11.37"/></g></g><g class="cls-30"><g class="cls-4"><rect class="cls-31" x="35.82" y="12.73" width="15.17" height="11.06"/></g></g><g class="cls-32"><g class="cls-4"><rect class="cls-31" x="39.03" y="11.11" width="12.84" height="14.28"/></g></g><g class="cls-33"><g class="cls-4"><rect class="cls-5" x="6.61" y="14.07" width="11.23" height="11.25"/></g></g><g class="cls-34"><g class="cls-4"><rect class="cls-5" x="9.07" y="14.07" width="11.23" height="11.25"/></g></g><g class="cls-35"><g class="cls-4"><rect class="cls-5" x="14.34" y="14.07" width="11.23" height="11.25"/></g></g><g class="cls-36"><g class="cls-4"><rect class="cls-5" x="11.88" y="14.07" width="11.23" height="11.25"/></g></g><g class="cls-37"><g class="cls-4"><rect class="cls-5" x="11.88" y="11.57" width="11.23" height="11.25"/></g></g><g class="cls-38"><g class="cls-4"><rect class="cls-5" x="35.86" y="20.17" width="11.23" height="11.25"/></g></g><g class="cls-39"><g class="cls-4"><rect class="cls-5" x="38.32" y="20.17" width="11.23" height="11.25"/></g></g><g class="cls-40"><g class="cls-4"><rect class="cls-5" x="43.59" y="20.17" width="11.23" height="11.25"/></g></g><g class="cls-41"><g class="cls-4"><rect class="cls-5" x="41.13" y="20.17" width="11.23" height="11.25"/></g></g><g class="cls-42"><g class="cls-4"><rect class="cls-5" x="41.13" y="22.67" width="11.23" height="11.25"/></g></g></svg>