<svg id="Layer_1" data-name="Layer 1" xmlns="http://www.w3.org/2000/svg" viewBox="0 0 60 60"><defs><style>.cls-1{fill:#fedeb6;}.cls-2{fill:#cdf1ef;}.cls-3{fill:#9ce3df;}.cls-4{fill:#fff;}.cls-5{fill:#1db9b2;}.cls-6{fill:#fec687;}</style></defs><title>Hand- On Dark</title><rect class="cls-1" x="3.54" y="32.11" width="1" height="4.3"/><rect class="cls-1" x="1.9" y="33.76" width="4.3" height="1"/><rect class="cls-2" x="50.91" y="37.2" width="1" height="4.3" transform="translate(-12.77 47.87) rotate(-45)"/><rect class="cls-2" x="49.26" y="38.85" width="4.3" height="1" transform="translate(-12.77 47.88) rotate(-45)"/><rect class="cls-2" x="23.69" y="6.64" width="1" height="4.3" transform="translate(0.87 19.68) rotate(-45)"/><rect class="cls-2" x="22.05" y="8.29" width="4.3" height="1" transform="translate(0.87 19.68) rotate(-45)"/><path class="cls-1" d="M58.4,33.33a1.46,1.46,0,0,1-1.25-.82c-.12-.2-.28-.33-.4-.33h-.39c-.12,0-.27.13-.39.33a1.48,1.48,0,0,1-1.26.82h-.38a1.48,1.48,0,0,1-1.26-.82c-.12-.2-.27-.33-.39-.33h-.39c-.12,0-.27.13-.39.33a1.48,1.48,0,0,1-1.26.82h-.39A1.48,1.48,0,0,1,49,32.51c-.12-.2-.27-.33-.4-.33h-.19v-1h.19a1.51,1.51,0,0,1,1.26.82c.12.21.27.33.39.33h.39c.12,0,.27-.12.39-.33a1.52,1.52,0,0,1,1.26-.82h.39a1.49,1.49,0,0,1,1.25.82c.12.21.27.33.4.33h.38c.13,0,.28-.12.4-.33a1.5,1.5,0,0,1,1.25-.82h.39A1.51,1.51,0,0,1,58,32c.12.21.27.33.39.33Z"/><path class="cls-1" d="M42.48,12.63a2.16,2.16,0,1,1,2.15-2.16A2.16,2.16,0,0,1,42.48,12.63Zm0-3.31a1.16,1.16,0,1,0,1.15,1.15A1.16,1.16,0,0,0,42.48,9.32Z"/><path class="cls-2" d="M4,24A2.15,2.15,0,1,1,6.2,21.82,2.15,2.15,0,0,1,4,24Zm0-3.3A1.15,1.15,0,1,0,5.2,21.82,1.15,1.15,0,0,0,4,20.67Z"/><path class="cls-1" d="M14.68,15.59H10.81V11.73h3.87Zm-2.87-1h1.87V12.73H11.81Z"/><path class="cls-3" d="M53.64,23.68H49.77V19.82h3.87Zm-2.87-1h1.87V20.82H50.77Z"/><path class="cls-2" d="M42,51.46c0,.78-6,1.42-13.3,1.42s-13.31-.64-13.31-1.42S21.3,50,28.65,50,42,50.67,42,51.46Z"/><path class="cls-4" d="M25.2,36.46h-1a2.13,2.13,0,0,1,2.13-2.13h7.11a1.55,1.55,0,1,0,0-3.09H28a5.66,5.66,0,0,1-2.08-.4l-4.21-1.69A4.56,4.56,0,0,0,20,28.82H14.88v-1H20a5.46,5.46,0,0,1,2.08.4l4.21,1.69a4.56,4.56,0,0,0,1.71.33h5.47a2.55,2.55,0,1,1,0,5.09H26.33A1.13,1.13,0,0,0,25.2,36.46Z"/><path class="cls-4" d="M29.37,42.79a5.12,5.12,0,0,1-1.77-.31L19.22,39.4A6,6,0,0,0,17.16,39H14.88V38h2.28a7.12,7.12,0,0,1,2.41.43l8.37,3.08a4.11,4.11,0,0,0,3.31-.2L45.74,34a1.45,1.45,0,0,0,.72-.87A1.4,1.4,0,0,0,46.32,32a1.43,1.43,0,0,0-1.66-.63l-9.35,3-.31-1,9.35-3a2.42,2.42,0,0,1,2.83,1.08,2.36,2.36,0,0,1,.23,1.89,2.39,2.39,0,0,1-1.21,1.48L31.71,42.23A5.07,5.07,0,0,1,29.37,42.79Z"/><path class="cls-4" d="M14.34,40.32H9.78v-1h4.56a.34.34,0,0,0,.35-.35V27.66a.35.35,0,0,0-.35-.35H9.78v-1h4.56a1.35,1.35,0,0,1,1.35,1.35V39A1.34,1.34,0,0,1,14.34,40.32Z"/><rect class="cls-3" x="9.78" y="36.93" width="1.24" height="1"/><rect class="cls-3" x="12" y="36.93" width="1.24" height="1"/><path class="cls-5" d="M30.72,22.14a1.64,1.64,0,0,1-1.63-1.63,1.62,1.62,0,0,1,.48-1.15,1.64,1.64,0,0,1,1.15-.48h0a1.64,1.64,0,0,1,1.63,1.63,1.6,1.6,0,0,1-.48,1.15h0A1.62,1.62,0,0,1,30.72,22.14Zm0-2.26h0a.66.66,0,0,0-.44.19.61.61,0,0,0-.19.44.64.64,0,0,0,.19.45.65.65,0,0,0,.88,0,.64.64,0,0,0,.19-.45.61.61,0,0,0-.19-.44A.6.6,0,0,0,30.72,19.88Z"/><path class="cls-5" d="M32.16,29.16A1.63,1.63,0,0,1,31,26.38a1.66,1.66,0,0,1,2.3,0,1.62,1.62,0,0,1,0,2.3h0A1.59,1.59,0,0,1,32.16,29.16Zm0-2.26A.63.63,0,0,0,31.72,28a.64.64,0,0,0,.89,0h0a.63.63,0,0,0,0-.88A.64.64,0,0,0,32.16,26.9Z"/><rect class="cls-5" x="26.56" y="23.52" width="9.76" height="1" transform="translate(-7.94 20.24) rotate(-31.9)"/><path class="cls-6" d="M39,31.07l-.51-2.52a1.85,1.85,0,0,1,.79-1.91l2.15-1.42a.83.83,0,0,0,.38-.7.84.84,0,0,0-.38-.71l-2.15-1.42a1.85,1.85,0,0,1-.79-1.91L39,18a.82.82,0,0,0-.23-.77A.85.85,0,0,0,38,17l-2.52.51a1.81,1.81,0,0,1-1.91-.79l-1.42-2.14a.84.84,0,0,0-.71-.38h0a.83.83,0,0,0-.7.38l-1.42,2.14a1.81,1.81,0,0,1-1.91.79L24.89,17a.83.83,0,0,0-.77.23.85.85,0,0,0-.23.77l.51,2.52a1.85,1.85,0,0,1-.79,1.91l-2.14,1.42a.82.82,0,0,0-.38.71.8.8,0,0,0,.38.7l2.14,1.42a1.85,1.85,0,0,1,.79,1.91l-1-.2a.83.83,0,0,0-.36-.87l-2.15-1.42a1.87,1.87,0,0,1-.82-1.54A1.84,1.84,0,0,1,20.91,23l2.15-1.42a.85.85,0,0,0,.36-.88l-.51-2.52a1.81,1.81,0,0,1,.5-1.67A1.87,1.87,0,0,1,25.09,16l2.52.52a.86.86,0,0,0,.87-.37L29.9,14a1.84,1.84,0,0,1,1.54-.83h0A1.84,1.84,0,0,1,33,14l1.42,2.14a.87.87,0,0,0,.88.37L37.8,16A1.86,1.86,0,0,1,40,18.16l-.52,2.52a.86.86,0,0,0,.37.88L42,23a1.83,1.83,0,0,1,.83,1.54A1.85,1.85,0,0,1,42,26.06l-2.14,1.42a.84.84,0,0,0-.37.87L40,30.87Z"/></svg>