<svg id="Layer_1" data-name="Layer 1" xmlns="http://www.w3.org/2000/svg" xmlns:xlink="http://www.w3.org/1999/xlink" viewBox="0 0 60 60"><defs><style>.cls-1,.cls-18,.cls-2,.cls-30{fill:none;}.cls-1{clip-rule:evenodd;}.cls-3{clip-path:url(#clip-path);}.cls-4{clip-path:url(#clip-path-2);}.cls-5{fill:#fedeb6;}.cls-6{clip-path:url(#clip-path-3);}.cls-7{fill:#fff;}.cls-8{clip-path:url(#clip-path-5);}.cls-9{clip-path:url(#clip-path-7);}.cls-10{clip-path:url(#clip-path-9);}.cls-11{fill:#9ce3df;}.cls-12{clip-path:url(#clip-path-11);}.cls-13{clip-path:url(#clip-path-13);}.cls-14{isolation:isolate;}.cls-15{clip-path:url(#clip-path-15);}.cls-16{clip-path:url(#clip-path-17);}.cls-17{fill:#cdf1ef;}.cls-18,.cls-30{stroke:#fff;stroke-miterlimit:10;}.cls-18{stroke-width:2.18px;}.cls-19{clip-path:url(#clip-path-19);}.cls-20{fill:#00bab3;}.cls-21{clip-path:url(#clip-path-21);}.cls-22{clip-path:url(#clip-path-23);}.cls-23{clip-path:url(#clip-path-25);}.cls-24{clip-path:url(#clip-path-27);}.cls-25{clip-path:url(#clip-path-29);}.cls-26{clip-path:url(#clip-path-31);}.cls-27{clip-path:url(#clip-path-33);}.cls-28{clip-path:url(#clip-path-35);}.cls-29{clip-path:url(#clip-path-37);}.cls-30{stroke-linecap:square;stroke-width:0.54px;}.cls-31{clip-path:url(#clip-path-40);}.cls-32{clip-path:url(#clip-path-42);}.cls-33{clip-path:url(#clip-path-44);}.cls-34{clip-path:url(#clip-path-46);}.cls-35{clip-path:url(#clip-path-48);}.cls-36{clip-path:url(#clip-path-50);}.cls-37{clip-path:url(#clip-path-52);}.cls-38{clip-path:url(#clip-path-54);}.cls-39{fill:#1db9b2;}.cls-40{clip-path:url(#clip-path-56);}.cls-41{fill:#fec687;}.cls-42{clip-path:url(#clip-path-58);}.cls-43{clip-path:url(#clip-path-60);}.cls-44{fill:#ffc882;}.cls-45{clip-path:url(#clip-path-62);}.cls-46{clip-path:url(#clip-path-64);}.cls-47{clip-path:url(#clip-path-66);}.cls-48{clip-path:url(#clip-path-68);}.cls-49{clip-path:url(#clip-path-70);}.cls-50{clip-path:url(#clip-path-72);}.cls-51{clip-path:url(#clip-path-74);}.cls-52{clip-path:url(#clip-path-76);}.cls-53{clip-path:url(#clip-path-78);}.cls-54{clip-path:url(#clip-path-80);}.cls-55{clip-path:url(#clip-path-82);}</style><clipPath id="clip-path"><path class="cls-1" d="M36.41,12a1.51,1.51,0,0,1-1.28-.86c-.12-.21-.28-.35-.4-.35h-.4c-.12,0-.28.14-.4.35a1.52,1.52,0,0,1-1.28.86h-.4A1.51,1.51,0,0,1,31,11.11c-.12-.21-.28-.35-.4-.35h-.4c-.12,0-.28.14-.4.35a1.52,1.52,0,0,1-1.28.86h-.4a1.52,1.52,0,0,1-1.28-.86c-.12-.22-.28-.35-.4-.35h-.2v-1h.2a1.52,1.52,0,0,1,1.28.86c.12.22.28.35.4.35h.4c.12,0,.28-.13.4-.35a1.52,1.52,0,0,1,1.28-.86h.4a1.52,1.52,0,0,1,1.28.86c.12.22.28.35.4.35h.4c.12,0,.28-.13.4-.35a1.52,1.52,0,0,1,1.28-.86h.4a1.53,1.53,0,0,1,1.28.86c.12.22.27.35.4.35Z"/></clipPath><clipPath id="clip-path-2"><rect class="cls-2" x="-0.36" y="1.47" width="61" height="61"/></clipPath><clipPath id="clip-path-3"><path class="cls-1" d="M26.24,40h-1a2.2,2.2,0,0,1,2.17-2.24h7.27a1.63,1.63,0,0,0,0-3.26H29.07A5.49,5.49,0,0,1,27,34.07l-4.31-1.78a4.51,4.51,0,0,0-1.74-.35H15.7V30.89h5.2a5.58,5.58,0,0,1,2.13.42l4.3,1.78a4.51,4.51,0,0,0,1.74.35h5.59a2.68,2.68,0,0,1,0,5.36H27.39A1.17,1.17,0,0,0,26.24,40"/></clipPath><clipPath id="clip-path-5"><path class="cls-1" d="M30.5,46.65a5.17,5.17,0,0,1-1.81-.33l-8.55-3.24A6.1,6.1,0,0,0,18,42.7H15.7V41.64H18a6.91,6.91,0,0,1,2.46.45L29,45.34a4.15,4.15,0,0,0,3.38-.21l14.8-7.79a1.48,1.48,0,0,0,.73-.91,1.54,1.54,0,0,0-.14-1.17,1.45,1.45,0,0,0-1.7-.67l-9.55,3.2-.31-1,9.55-3.2a2.45,2.45,0,0,1,2.89,1.14,2.59,2.59,0,0,1,.24,2,2.53,2.53,0,0,1-1.25,1.55L32.89,46.06a5.06,5.06,0,0,1-2.39.59"/></clipPath><clipPath id="clip-path-7"><path class="cls-1" d="M15.16,44.05H10.5V43h4.66a.36.36,0,0,0,.35-.37V30.72a.36.36,0,0,0-.35-.36H10.5V29.3h4.66a1.4,1.4,0,0,1,1.37,1.42V42.63a1.39,1.39,0,0,1-1.37,1.42"/></clipPath><clipPath id="clip-path-9"><rect class="cls-2" x="10.5" y="40.48" width="1.27" height="1.05"/></clipPath><clipPath id="clip-path-11"><rect class="cls-2" x="12.76" y="40.48" width="1.27" height="1.05"/></clipPath><clipPath id="clip-path-13"><rect class="cls-2" x="23.55" y="16.31" width="15.54" height="13.29" rx="2.18"/></clipPath><clipPath id="clip-path-15"><rect class="cls-2" x="12.64" y="4.47" width="38" height="37"/></clipPath><clipPath id="clip-path-17"><rect class="cls-2" x="22.64" y="15.47" width="17" height="15"/></clipPath><clipPath id="clip-path-19"><rect class="cls-2" x="25.63" y="20.6" width="1.15" height="1.19"/></clipPath><clipPath id="clip-path-21"><rect class="cls-2" x="27.75" y="20.6" width="1.15" height="1.19"/></clipPath><clipPath id="clip-path-23"><rect class="cls-2" x="33.76" y="20.6" width="1.15" height="1.19"/></clipPath><clipPath id="clip-path-25"><rect class="cls-2" x="35.88" y="20.6" width="1.15" height="1.19"/></clipPath><clipPath id="clip-path-27"><rect class="cls-2" x="35.88" y="23.37" width="1.15" height="1.19"/></clipPath><clipPath id="clip-path-29"><rect class="cls-2" x="33.76" y="23.37" width="1.15" height="1.19"/></clipPath><clipPath id="clip-path-31"><rect class="cls-2" x="27.75" y="23.37" width="1.15" height="1.19"/></clipPath><clipPath id="clip-path-33"><rect class="cls-2" x="25.63" y="23.37" width="1.15" height="1.19"/></clipPath><clipPath id="clip-path-35"><rect class="cls-2" x="25.63" y="26.13" width="1.15" height="1.19"/></clipPath><clipPath id="clip-path-37"><rect class="cls-2" x="27.75" y="26.13" width="1.15" height="1.19"/></clipPath><clipPath id="clip-path-40"><rect class="cls-2" x="25.7" y="15.2" width="1.07" height="2.21"/></clipPath><clipPath id="clip-path-42"><rect class="cls-2" x="35.87" y="15.2" width="1.07" height="2.21"/></clipPath><clipPath id="clip-path-44"><polygon class="cls-1" points="32.62 26.09 29.83 26.09 29.83 25.14 31.69 25.14 31.69 24.44 29.83 23.57 29.83 21.29 32.62 21.29 32.62 22.25 30.76 22.25 30.76 22.95 32.62 23.82 32.62 26.09"/></clipPath><clipPath id="clip-path-46"><rect class="cls-2" x="30.77" y="25.62" width="0.93" height="1.44"/></clipPath><clipPath id="clip-path-48"><rect class="cls-2" x="30.77" y="20.33" width="0.93" height="1.44"/></clipPath><clipPath id="clip-path-50"><rect class="cls-2" x="43.2" y="43.11" width="1.93" height="5.79"/></clipPath><clipPath id="clip-path-52"><rect class="cls-2" x="41.26" y="45.04" width="5.8" height="1.93"/></clipPath><clipPath id="clip-path-54"><rect class="cls-2" x="13.37" y="21.6" width="7.97" height="1.37"/></clipPath><clipPath id="clip-path-56"><rect class="cls-2" x="8.5" y="24.35" width="12.84" height="1.37"/></clipPath><clipPath id="clip-path-58"><rect class="cls-2" x="41.26" y="21.6" width="7.97" height="1.37"/></clipPath><clipPath id="clip-path-60"><rect class="cls-2" x="41.26" y="17.73" width="5.08" height="1.06"/></clipPath><clipPath id="clip-path-62"><polygon class="cls-1" points="45.15 20.4 44.42 19.65 45.77 18.26 44.42 16.86 45.15 16.11 47.22 18.26 45.15 20.4"/></clipPath><clipPath id="clip-path-64"><rect class="cls-2" x="12.53" y="19.07" width="1.21" height="1.25"/></clipPath><clipPath id="clip-path-66"><rect class="cls-2" x="14.95" y="19.07" width="1.21" height="1.25"/></clipPath><clipPath id="clip-path-68"><rect class="cls-2" x="20.13" y="19.07" width="1.21" height="1.25"/></clipPath><clipPath id="clip-path-70"><rect class="cls-2" x="17.71" y="19.07" width="1.21" height="1.25"/></clipPath><clipPath id="clip-path-72"><rect class="cls-2" x="17.71" y="16.57" width="1.21" height="1.25"/></clipPath><clipPath id="clip-path-74"><rect class="cls-2" x="41.31" y="25.17" width="1.21" height="1.25"/></clipPath><clipPath id="clip-path-76"><rect class="cls-2" x="43.72" y="25.17" width="1.21" height="1.25"/></clipPath><clipPath id="clip-path-78"><rect class="cls-2" x="48.91" y="25.17" width="1.21" height="1.25"/></clipPath><clipPath id="clip-path-80"><rect class="cls-2" x="46.49" y="25.17" width="1.21" height="1.25"/></clipPath><clipPath id="clip-path-82"><rect class="cls-2" x="46.49" y="27.67" width="1.21" height="1.25"/></clipPath></defs><title>Hand Calendar- On Dark</title><g class="cls-3"><g class="cls-4"><rect class="cls-5" x="21.21" y="4.71" width="20.2" height="12.26"/></g></g><g class="cls-6"><g class="cls-4"><rect class="cls-7" x="10.7" y="25.89" width="31.56" height="19.1"/></g></g><g class="cls-8"><g class="cls-4"><rect class="cls-7" x="10.7" y="28.47" width="43.33" height="23.18"/></g></g><g class="cls-9"><g class="cls-4"><rect class="cls-7" x="5.5" y="24.3" width="16.04" height="24.75"/></g></g><g class="cls-10"><g class="cls-4"><rect class="cls-11" x="5.5" y="35.48" width="11.27" height="11.05"/></g></g><g class="cls-12"><g class="cls-4"><rect class="cls-11" x="7.76" y="35.48" width="11.27" height="11.05"/></g></g><g class="cls-13"><g class="cls-4"><g class="cls-14"><g class="cls-15"><g class="cls-13"><g class="cls-16"><rect class="cls-17" x="23.55" y="16.31" width="15.54" height="13.29" rx="2.18"/></g></g><g class="cls-16"><rect class="cls-18" x="23.55" y="16.31" width="15.54" height="13.29" rx="2.18"/></g></g></g></g></g><g class="cls-19"><g class="cls-4"><rect class="cls-20" x="20.63" y="15.6" width="11.15" height="11.19"/></g></g><g class="cls-21"><g class="cls-4"><rect class="cls-20" x="22.75" y="15.6" width="11.15" height="11.19"/></g></g><g class="cls-22"><g class="cls-4"><rect class="cls-20" x="28.76" y="15.6" width="11.15" height="11.19"/></g></g><g class="cls-23"><g class="cls-4"><rect class="cls-20" x="30.88" y="15.6" width="11.15" height="11.19"/></g></g><g class="cls-24"><g class="cls-4"><rect class="cls-20" x="30.88" y="18.37" width="11.15" height="11.19"/></g></g><g class="cls-25"><g class="cls-4"><rect class="cls-20" x="28.76" y="18.37" width="11.15" height="11.19"/></g></g><g class="cls-26"><g class="cls-4"><rect class="cls-20" x="22.75" y="18.37" width="11.15" height="11.19"/></g></g><g class="cls-27"><g class="cls-4"><rect class="cls-20" x="20.63" y="18.37" width="11.15" height="11.19"/></g></g><g class="cls-28"><g class="cls-4"><rect class="cls-20" x="20.63" y="21.13" width="11.15" height="11.19"/></g></g><g class="cls-29"><g class="cls-4"><rect class="cls-20" x="22.75" y="21.13" width="11.15" height="11.19"/></g></g><g class="cls-4"><line class="cls-30" x1="24.36" y1="18.8" x2="38.82" y2="18.8"/></g><g class="cls-31"><g class="cls-4"><rect class="cls-7" x="20.7" y="10.2" width="11.07" height="12.21"/></g></g><g class="cls-32"><g class="cls-4"><rect class="cls-7" x="30.87" y="10.2" width="11.07" height="12.21"/></g></g><g class="cls-33"><g class="cls-4"><rect class="cls-7" x="24.83" y="16.29" width="12.79" height="14.8"/></g></g><g class="cls-34"><g class="cls-4"><rect class="cls-7" x="25.77" y="20.62" width="10.93" height="11.44"/></g></g><g class="cls-35"><g class="cls-4"><rect class="cls-7" x="25.77" y="15.33" width="10.93" height="11.44"/></g></g><g class="cls-36"><g class="cls-4"><rect class="cls-17" x="38.2" y="38.11" width="11.93" height="15.79"/></g></g><g class="cls-37"><g class="cls-4"><rect class="cls-17" x="36.26" y="40.04" width="15.8" height="11.93"/></g></g><g class="cls-38"><g class="cls-4"><rect class="cls-39" x="8.37" y="16.6" width="17.97" height="11.37"/></g></g><g class="cls-40"><g class="cls-4"><rect class="cls-41" x="3.5" y="19.35" width="22.84" height="11.37"/></g></g><g class="cls-42"><g class="cls-4"><rect class="cls-17" x="36.26" y="16.6" width="17.97" height="11.37"/></g></g><g class="cls-43"><g class="cls-4"><rect class="cls-44" x="36.26" y="12.73" width="15.08" height="11.06"/></g></g><g class="cls-45"><g class="cls-4"><rect class="cls-44" x="39.42" y="11.11" width="12.8" height="14.28"/></g></g><g class="cls-46"><g class="cls-4"><rect class="cls-5" x="7.53" y="14.07" width="11.21" height="11.25"/></g></g><g class="cls-47"><g class="cls-4"><rect class="cls-5" x="9.95" y="14.07" width="11.21" height="11.25"/></g></g><g class="cls-48"><g class="cls-4"><rect class="cls-5" x="15.13" y="14.07" width="11.21" height="11.25"/></g></g><g class="cls-49"><g class="cls-4"><rect class="cls-5" x="12.71" y="14.07" width="11.21" height="11.25"/></g></g><g class="cls-50"><g class="cls-4"><rect class="cls-5" x="12.71" y="11.57" width="11.21" height="11.25"/></g></g><g class="cls-51"><g class="cls-4"><rect class="cls-5" x="36.31" y="20.17" width="11.21" height="11.25"/></g></g><g class="cls-52"><g class="cls-4"><rect class="cls-5" x="38.72" y="20.17" width="11.21" height="11.25"/></g></g><g class="cls-53"><g class="cls-4"><rect class="cls-5" x="43.91" y="20.17" width="11.21" height="11.25"/></g></g><g class="cls-54"><g class="cls-4"><rect class="cls-5" x="41.49" y="20.17" width="11.21" height="11.25"/></g></g><g class="cls-55"><g class="cls-4"><rect class="cls-5" x="41.49" y="22.67" width="11.21" height="11.25"/></g></g></svg>