<svg id="Layer_1" data-name="Layer 1" xmlns="http://www.w3.org/2000/svg" viewBox="0 0 60 60"><defs><style>.cls-1{fill:#fedeb6;}.cls-2{fill:#cdf1ef;}.cls-3{fill:#022c48;}.cls-4{fill:#ffc882;}</style></defs><title>House Phone- On Light</title><rect class="cls-1" x="3.25" y="38.13" width="1" height="4.96"/><rect class="cls-1" x="1.27" y="40.11" width="4.96" height="1"/><rect class="cls-2" x="54.37" y="40.61" width="1" height="4.96" transform="translate(-14.4 51.42) rotate(-45)"/><rect class="cls-2" x="52.39" y="42.59" width="4.96" height="1" transform="translate(-14.4 51.42) rotate(-45)"/><rect class="cls-2" x="25.66" y="0.54" width="1" height="4.96" transform="translate(5.52 19.38) rotate(-45)"/><rect class="cls-2" x="23.68" y="2.52" width="4.96" height="1" transform="translate(5.52 19.38) rotate(-45)"/><path class="cls-2" d="M58.22,14.66a1.64,1.64,0,0,1-1.38-.91c-.16-.26-.35-.42-.53-.42h-.44a.72.72,0,0,0-.52.42,1.66,1.66,0,0,1-1.39.91h-.44a1.66,1.66,0,0,1-1.39-.91.72.72,0,0,0-.52-.42h-.44c-.18,0-.37.16-.53.42a1.64,1.64,0,0,1-1.38.91h-.45a1.65,1.65,0,0,1-1.38-.91.72.72,0,0,0-.52-.42h-.22v-1h.22a1.64,1.64,0,0,1,1.38.91c.16.26.35.42.52.42h.45a.72.72,0,0,0,.52-.42,1.66,1.66,0,0,1,1.39-.91h.44a1.66,1.66,0,0,1,1.39.91.72.72,0,0,0,.52.42H54c.18,0,.37-.16.53-.42a1.64,1.64,0,0,1,1.38-.91h.44a1.65,1.65,0,0,1,1.39.91.72.72,0,0,0,.52.42Z"/><path class="cls-1" d="M43.76,6a2.41,2.41,0,1,1,2.41-2.41A2.41,2.41,0,0,1,43.76,6Zm0-3.82a1.41,1.41,0,1,0,1.41,1.41A1.41,1.41,0,0,0,43.76,2.22Z"/><path class="cls-2" d="M4.32,26.24a2.41,2.41,0,1,1,2.41-2.4A2.41,2.41,0,0,1,4.32,26.24Zm0-3.81a1.41,1.41,0,1,0,1.41,1.41A1.41,1.41,0,0,0,4.32,22.43Z"/><path class="cls-1" d="M12.14,10.64H7.84V6.34h4.3Zm-3.3-1h2.3V7.34H8.84Z"/><path class="cls-1" d="M59.17,30.39H54.86V26.08h4.31Zm-3.31-1h2.31V27.08H55.86Z"/><path class="cls-2" d="M42.07,57.73c0,.78-6,1.42-13.3,1.42s-13.3-.64-13.3-1.42,6-1.42,13.3-1.42S42.07,56.94,42.07,57.73Z"/><rect class="cls-2" x="14.04" y="44.08" width="26.55" height="1"/><rect class="cls-1" x="23.28" y="47.65" width="8.06" height="1"/><rect class="cls-2" x="14.04" y="14.56" width="26.55" height="1"/><path class="cls-3" d="M37.48,52H17.14a3.61,3.61,0,0,1-3.6-3.61V11.49a3.61,3.61,0,0,1,3.6-3.61H37.48a3.61,3.61,0,0,1,3.6,3.61V48.34A3.61,3.61,0,0,1,37.48,52ZM17.14,8.88a2.6,2.6,0,0,0-2.6,2.61V48.34A2.6,2.6,0,0,0,17.14,51H37.48a2.61,2.61,0,0,0,2.6-2.61V11.49a2.61,2.61,0,0,0-2.6-2.61Z"/><rect class="cls-1" x="23.41" y="11.49" width="1.17" height="1"/><rect class="cls-1" x="25.52" y="11.49" width="5.69" height="1"/><rect class="cls-3" x="19.54" y="38.09" width="15.4" height="1"/><path class="cls-3" d="M35.44,39.09h-3V32.51H29v6.58H19V30.61h1v7.48H28V31.51h5.5v6.58h1V30.61h1Zm-8.77-3H22.12V31.51h4.55Zm-3.55-1h2.55V32.51H23.12Z"/><path class="cls-4" d="M27.24,30.38a1.8,1.8,0,1,1,1.81-1.8A1.81,1.81,0,0,1,27.24,30.38Zm0-2.6a.8.8,0,1,0,.81.8A.8.8,0,0,0,27.24,27.78Z"/><path class="cls-3" d="M19.89,28.38V22.32h3.23v3.22Zm1-5.06v2.85l1.23-1.08V23.32Z"/><path class="cls-2" d="M19.49,31.31l-1.94-2.2,9.69-8.53,9.86,8.59L35,31.29l-7.73-6.82Zm7.75-8.17,7.69,6.78.7-.7-8.38-7.31L19,29.2l.62.7Z"/></svg>