<svg id="Layer_1" data-name="Layer 1" xmlns="http://www.w3.org/2000/svg" viewBox="0 0 60 60"><defs><style>.cls-1{fill:#fedeb6;}.cls-2{fill:#cdf1ef;}.cls-3{fill:#9ce3df;}.cls-4{fill:#fff;}.cls-5{fill:#fec687;}.cls-6{fill:#1db9b2;}</style></defs><title>House- On Dark</title><rect class="cls-1" x="2.68" y="40" width="1" height="4.3"/><rect class="cls-1" x="1.03" y="41.65" width="4.3" height="1"/><rect class="cls-2" x="57.04" y="45.09" width="1" height="4.3" transform="translate(-16.55 54.52) rotate(-45)"/><rect class="cls-2" x="55.4" y="46.74" width="4.3" height="1" transform="translate(-16.55 54.53) rotate(-45)"/><rect class="cls-2" x="22.47" y="9.53" width="1" height="4.3" transform="translate(-1.53 19.66) rotate(-45)"/><rect class="cls-2" x="20.83" y="11.18" width="4.3" height="1" transform="translate(-1.53 19.66) rotate(-45)"/><path class="cls-1" d="M56.54,41.22a1.51,1.51,0,0,1-1.26-.82c-.12-.21-.27-.33-.39-.33H54.5c-.12,0-.27.12-.39.33a1.51,1.51,0,0,1-1.26.82h-.38a1.51,1.51,0,0,1-1.26-.82c-.12-.21-.27-.33-.39-.33h-.39c-.12,0-.28.12-.4.33a1.48,1.48,0,0,1-1.25.82h-.39a1.49,1.49,0,0,1-1.25-.82c-.12-.21-.27-.33-.4-.33h-.19v-1h.19a1.51,1.51,0,0,1,1.26.82c.12.2.27.33.39.33h.39c.12,0,.27-.13.39-.33a1.51,1.51,0,0,1,1.26-.82h.39a1.5,1.5,0,0,1,1.25.82c.12.2.27.33.4.33h.38c.13,0,.28-.13.4-.33a1.49,1.49,0,0,1,1.25-.82h.39a1.49,1.49,0,0,1,1.25.82c.13.2.28.33.4.33Z"/><path class="cls-1" d="M42.61,17.75a2.16,2.16,0,1,1,2.16-2.15A2.15,2.15,0,0,1,42.61,17.75Zm0-3.31a1.16,1.16,0,1,0,1.16,1.16A1.16,1.16,0,0,0,42.61,14.44Z"/><path class="cls-2" d="M3.18,31.86A2.16,2.16,0,1,1,5.34,29.7,2.16,2.16,0,0,1,3.18,31.86Zm0-3.31A1.16,1.16,0,1,0,4.34,29.7,1.16,1.16,0,0,0,3.18,28.55Z"/><path class="cls-1" d="M11.4,21H7.54V17.18H11.4ZM8.54,20H10.4V18.18H8.54Z"/><path class="cls-3" d="M52.77,31.56H48.91V27.7h3.86Zm-2.86-1h1.86V28.7H49.91Z"/><path class="cls-2" d="M43.53,52.46c0,.78-6,1.42-13.31,1.42s-13.3-.64-13.3-1.42S22.87,51,30.22,51,43.53,51.67,43.53,52.46Z"/><rect class="cls-3" x="22.09" y="33.08" width="6.16" height="6.16"/><polygon class="cls-4" points="43.95 44.98 39.53 44.98 39.53 33.58 32.73 33.58 32.73 44.98 16.27 44.98 16.25 30.65 17.25 30.65 17.27 43.98 31.73 43.98 31.73 32.58 40.53 32.58 40.53 43.98 42.95 43.98 42.96 30.65 43.96 30.65 43.95 44.98"/><path class="cls-4" d="M16.75,31.15a.48.48,0,0,1-.37-.17l-2.22-2.52a.48.48,0,0,1,0-.7l15.58-13.7a.49.49,0,0,1,.66,0l15.8,13.76a.54.54,0,0,1,.18.36.5.5,0,0,1-.15.37L43.82,31a.52.52,0,0,1-.69,0l-13-11.5L17.09,31A.54.54,0,0,1,16.75,31.15ZM30.11,18.37a.5.5,0,0,1,.33.12L43.44,30l1.74-1.74L30.11,15.1,15.24,28.18,16.8,30l13-11.46A.5.5,0,0,1,30.11,18.37Z"/><path class="cls-5" d="M30.11,29.89a2.76,2.76,0,1,1,2.76-2.75A2.75,2.75,0,0,1,30.11,29.89Zm0-4.51a1.76,1.76,0,1,0,1.76,1.76A1.75,1.75,0,0,0,30.11,25.38Z"/><path class="cls-4" d="M17.74,26V16.65h4.85v5.06Zm1-8.34v6.13l2.85-2.52V17.65Z"/><rect class="cls-6" x="11.28" y="43.98" width="37.82" height="1"/><rect class="cls-6" x="50.53" y="43.98" width="1.35" height="1"/><rect class="cls-6" x="8.57" y="43.98" width="1.35" height="1"/><path class="cls-4" d="M28.75,39.74H21.59V32.58h7.16Zm-6.16-1h5.16V33.58H22.59Z"/></svg>