<svg id="Layer_1" data-name="Layer 1" xmlns="http://www.w3.org/2000/svg" viewBox="0 0 60 60"><defs><style>.cls-1{fill:#fedeb6;}.cls-2{fill:#cdf1ef;}.cls-3{fill:#9ce3df;}.cls-4{fill:#fff;}.cls-5{fill:#1db9b2;}.cls-6{fill:#fec687;}</style></defs><title>Key- On Dark</title><rect class="cls-1" x="3.91" y="34.67" width="1" height="4.29"/><rect class="cls-1" x="2.27" y="36.32" width="4.29" height="1"/><rect class="cls-2" x="51.28" y="39.76" width="1" height="4.3" transform="translate(-14.47 48.89) rotate(-45)"/><rect class="cls-2" x="49.63" y="41.41" width="4.3" height="1" transform="translate(-14.47 48.89) rotate(-45)"/><rect class="cls-2" x="22.71" y="3.2" width="1" height="4.3" transform="translate(3.02 17.97) rotate(-45)"/><rect class="cls-2" x="21.06" y="4.85" width="4.3" height="1" transform="translate(3.01 17.97) rotate(-45)"/><path class="cls-1" d="M59.77,35.89a1.49,1.49,0,0,1-1.25-.82c-.12-.2-.27-.33-.4-.33h-.38c-.13,0-.28.13-.4.33a1.51,1.51,0,0,1-1.26.82H55.7a1.51,1.51,0,0,1-1.26-.82c-.12-.2-.27-.33-.39-.33h-.39c-.12,0-.27.13-.39.33a1.51,1.51,0,0,1-1.26.82h-.38a1.51,1.51,0,0,1-1.26-.82c-.12-.2-.27-.33-.39-.33h-.2v-1H50a1.5,1.5,0,0,1,1.25.82c.12.2.27.33.4.33H52c.12,0,.28-.13.4-.33a1.49,1.49,0,0,1,1.25-.82h.39a1.49,1.49,0,0,1,1.25.82c.12.2.28.33.4.33h.38c.13,0,.28-.13.4-.33a1.51,1.51,0,0,1,1.26-.82h.38a1.51,1.51,0,0,1,1.26.82c.12.2.27.33.39.33Z"/><path class="cls-1" d="M41.85,13.42A2.15,2.15,0,1,1,44,11.27,2.16,2.16,0,0,1,41.85,13.42Zm0-3.3A1.15,1.15,0,1,0,43,11.27,1.15,1.15,0,0,0,41.85,10.12Z"/><path class="cls-2" d="M3.41,26.53a2.16,2.16,0,1,1,2.16-2.16A2.16,2.16,0,0,1,3.41,26.53Zm0-3.31a1.16,1.16,0,1,0,1.16,1.15A1.16,1.16,0,0,0,3.41,23.22Z"/><path class="cls-1" d="M11.64,15.71H7.77V11.85h3.87Zm-2.87-1h1.87V12.85H8.77Z"/><path class="cls-3" d="M56,26.23H52.14V22.37H56Zm-2.87-1H55V23.37H53.14Z"/><path class="cls-2" d="M41.05,54c0,.79-5.95,1.43-13.3,1.43S14.44,54.8,14.44,54s6-1.42,13.31-1.42S41.05,53.23,41.05,54Z"/><path class="cls-4" d="M32.57,45.45H27.28L25.45,43.8V28.34a8.37,8.37,0,1,1,7.37-.16l-1.08,1.36.83,2v1.73l-1.22,1.4,1.22,1.72v1.74l-1.25,1.92,1.25,1.75Zm-4.9-1h3.9V42.16l-1.46-2,1.46-2.24V36.75l-1.49-2.1,1.49-1.71V31.69l-1-2.3,1.69-2.06a7.36,7.36,0,1,0-6.13.22l.31.13V43.35Z"/><rect class="cls-2" x="27.52" y="31.21" width="1" height="11.29"/><rect class="cls-2" x="27.52" y="28.87" width="1" height="1.25"/><path class="cls-4" d="M28.87,21.36a2.81,2.81,0,0,1-2-.84,2.84,2.84,0,0,1,2-4.85h0a2.84,2.84,0,0,1,2,4.85A2.82,2.82,0,0,1,28.87,21.36Zm0-4.69a1.85,1.85,0,0,0-1.31.54,1.87,1.87,0,0,0,0,2.61,1.9,1.9,0,0,0,2.61,0,1.85,1.85,0,0,0-1.3-3.15Z"/><polygon class="cls-5" points="44.01 36.78 37.84 36.78 34.42 34.2 35.03 33.4 38.17 35.78 44.01 35.78 44.01 36.78"/><polygon class="cls-5" points="20.81 36.78 13.93 36.78 13.93 35.78 20.37 35.78 22.48 33.46 23.22 34.14 20.81 36.78"/><path class="cls-6" d="M11.83,38.88a2.61,2.61,0,1,1,2.6-2.6A2.61,2.61,0,0,1,11.83,38.88Zm0-4.21a1.61,1.61,0,1,0,1.6,1.61A1.61,1.61,0,0,0,11.83,34.67Z"/><path class="cls-6" d="M46.12,38.88a2.61,2.61,0,1,1,2.6-2.6A2.61,2.61,0,0,1,46.12,38.88Zm0-4.21a1.61,1.61,0,1,0,1.6,1.61A1.61,1.61,0,0,0,46.12,34.67Z"/><path class="cls-6" d="M44.12,46.49a2.6,2.6,0,1,1,2.6-2.6A2.61,2.61,0,0,1,44.12,46.49Zm0-4.2a1.6,1.6,0,1,0,1.6,1.6A1.6,1.6,0,0,0,44.12,42.29Z"/><path class="cls-6" d="M13.83,46.49a2.6,2.6,0,1,1,2.6-2.6A2.61,2.61,0,0,1,13.83,46.49Zm0-4.2a1.6,1.6,0,1,0,1.6,1.6A1.6,1.6,0,0,0,13.83,42.29Z"/><rect class="cls-5" x="35.31" y="28.42" width="10.7" height="1"/><rect class="cls-5" x="11.93" y="28.42" width="10.92" height="1"/><path class="cls-6" d="M9.83,31.52a2.61,2.61,0,1,1,2.6-2.6A2.61,2.61,0,0,1,9.83,31.52Zm0-4.21a1.61,1.61,0,1,0,1.6,1.61A1.61,1.61,0,0,0,9.83,27.31Z"/><path class="cls-6" d="M48.12,31.52a2.61,2.61,0,1,1,2.6-2.6A2.61,2.61,0,0,1,48.12,31.52Zm0-4.21a1.61,1.61,0,1,0,1.6,1.61A1.61,1.61,0,0,0,48.12,27.31Z"/><path class="cls-5" d="M41,22.06v-1h1v1Zm-2.3,0v-1h1v1Z"/><path class="cls-5" d="M18.2,22.06v-1h1v1Zm-2.3,0v-1h1v1Z"/><path class="cls-6" d="M11.83,24.16a2.6,2.6,0,1,1,2.6-2.6A2.6,2.6,0,0,1,11.83,24.16Zm0-4.2a1.6,1.6,0,1,0,1.6,1.6A1.61,1.61,0,0,0,11.83,20Z"/><path class="cls-6" d="M46.12,24.16a2.6,2.6,0,1,1,2.6-2.6A2.6,2.6,0,0,1,46.12,24.16Zm0-4.2a1.6,1.6,0,1,0,1.6,1.6A1.61,1.61,0,0,0,46.12,20Z"/><path class="cls-5" d="M19.92,44.39v-1h1v1Zm-2.3,0v-1h1v1Zm4.06-1.31.7-.71.71.71-.71.7Zm1.62-1.63.71-.71.71.71-.71.71Z"/><path class="cls-5" d="M39.15,44.39v-1h1v1Zm-2.3,0v-1h1v1Zm-1.92-1.92.71-.7.7.7-.7.71ZM33.3,40.85l.71-.71.71.71-.71.7Z"/></svg>