<svg id="Layer_1" data-name="Layer 1" xmlns="http://www.w3.org/2000/svg" viewBox="0 0 60 60"><defs><style>.cls-1{fill:#fedeb6;}.cls-2{fill:#cdf1ef;}.cls-3{fill:#022c48;}.cls-4{fill:#1db9b2;}.cls-5{fill:#09b9b3;}.cls-6{fill:#ffc882;}</style></defs><title>Lightbulb- On Light</title><rect class="cls-1" x="7.36" y="35.76" width="1" height="4.3"/><rect class="cls-1" x="5.71" y="37.41" width="4.29" height="1"/><rect class="cls-2" x="50.72" y="38.85" width="1" height="4.3" transform="translate(-13.98 48.22) rotate(-45)"/><rect class="cls-2" x="49.07" y="40.49" width="4.3" height="1" transform="translate(-13.98 48.22) rotate(-45)"/><rect class="cls-2" x="17.15" y="4.29" width="1" height="4.3" transform="translate(0.62 14.36) rotate(-45)"/><rect class="cls-2" x="15.5" y="5.93" width="4.3" height="1" transform="translate(0.62 14.36) rotate(-45)"/><path class="cls-1" d="M56.22,35A1.51,1.51,0,0,1,55,34.16c-.12-.21-.27-.33-.4-.33h-.38c-.12,0-.28.12-.4.33a1.49,1.49,0,0,1-1.25.82h-.39a1.49,1.49,0,0,1-1.25-.82c-.12-.21-.28-.33-.4-.33h-.38c-.13,0-.28.12-.4.33a1.5,1.5,0,0,1-1.25.82h-.39a1.51,1.51,0,0,1-1.26-.82c-.12-.21-.27-.33-.39-.33h-.19v-1h.19a1.48,1.48,0,0,1,1.25.82c.12.2.28.33.4.33h.39c.12,0,.27-.13.39-.33a1.51,1.51,0,0,1,1.26-.82h.38a1.51,1.51,0,0,1,1.26.82c.12.2.27.33.39.33h.39c.12,0,.27-.13.39-.33a1.51,1.51,0,0,1,1.26-.82h.38a1.51,1.51,0,0,1,1.26.82c.12.2.27.33.4.33Z"/><path class="cls-1" d="M43.14,10.59a2.16,2.16,0,1,1,2.15-2.16A2.16,2.16,0,0,1,43.14,10.59Zm0-3.31a1.16,1.16,0,1,0,1.15,1.15A1.16,1.16,0,0,0,43.14,7.28Z"/><path class="cls-2" d="M4.86,27.62A2.16,2.16,0,1,1,7,25.46,2.16,2.16,0,0,1,4.86,27.62Zm0-3.31A1.16,1.16,0,1,0,6,25.46,1.16,1.16,0,0,0,4.86,24.31Z"/><path class="cls-1" d="M13.08,19.8H9.22V15.93h3.86Zm-2.86-1h1.86V16.93H10.22Z"/><path class="cls-2" d="M53.45,25.32H49.59V21.46h3.86Zm-2.86-1h1.86V22.46H50.59Z"/><rect class="cls-3" x="22.36" y="40.3" width="6.75" height="1"/><rect class="cls-4" x="33.56" y="40.3" width="5.22" height="1"/><rect class="cls-4" x="18.14" y="42.76" width="5.22" height="1"/><rect class="cls-3" x="19.73" y="40.3" width="1.23" height="1"/><rect class="cls-3" x="30.72" y="40.3" width="1.23" height="1"/><path class="cls-4" d="M30.94,46.21H26l-1.41-3.45h7.78Zm-4.29-1h3.62l.59-1.45h-4.8Z"/><path class="cls-3" d="M34.56,38.35h-1V37.18c0-3.37,1.22-5.37,3.19-7.52a11.18,11.18,0,0,0-9-18.65A11.23,11.23,0,0,0,17.35,21.69a11.05,11.05,0,0,0,2.76,7.9c2.11,2.35,3.25,4.21,3.25,7.33v1.43h-1V36.92c0-2.81-1-4.45-3-6.67a12,12,0,0,1-3-8.6A12.24,12.24,0,0,1,27.7,10a12,12,0,0,1,9.07,3.27,12.27,12.27,0,0,1,3.84,8.9,12.05,12.05,0,0,1-3.12,8.16c-2.16,2.35-2.93,4.14-2.93,6.84Z"/><polygon class="cls-4" points="34.56 43.76 22.36 43.76 22.36 37.85 23.36 37.85 23.36 42.76 33.56 42.76 33.56 37.85 34.56 37.85 34.56 43.76"/><polygon class="cls-5" points="36.82 38.85 27.96 38.85 27.96 30.48 28.96 30.48 28.96 37.85 36.82 37.85 36.82 38.85"/><rect class="cls-5" x="20.95" y="37.85" width="5.65" height="1"/><path class="cls-6" d="M28.47,31.34c-.31,0-.62,0-.93,0l-.31,0-.84-2.36a7,7,0,0,1-1.2-.49l-2.26,1.07-.24-.2A8.87,8.87,0,0,1,21.35,28l-.2-.25,1.07-2.25a7.52,7.52,0,0,1-.5-1.21l-2.36-.84,0-.32c0-.3,0-.62,0-.94s0-.63,0-.94l0-.31,2.36-.84a7.16,7.16,0,0,1,.5-1.21L21.15,16.6l.2-.25A8.87,8.87,0,0,1,22.69,15l.24-.2,2.26,1.07a7,7,0,0,1,1.2-.49L27.23,13l.31,0a9.63,9.63,0,0,1,1.86,0l.32,0,.84,2.36a7.75,7.75,0,0,1,1.2.49L34,14.82l.25.2a9.91,9.91,0,0,1,1.34,1.33l.19.25-1.07,2.25a6.42,6.42,0,0,1,.5,1.21l2.36.84,0,.31a7.4,7.4,0,0,1,0,.94,7.21,7.21,0,0,1,0,.94l0,.32-2.36.84a6.71,6.71,0,0,1-.5,1.21l1.07,2.25L35.6,28a9.91,9.91,0,0,1-1.34,1.33l-.25.2-2.25-1.07a7.75,7.75,0,0,1-1.2.49l-.84,2.36-.32,0C29.1,31.33,28.79,31.34,28.47,31.34Zm-.51-1a8.85,8.85,0,0,0,1,0l.8-2.25L30,28a6.16,6.16,0,0,0,1.45-.6l.23-.13,2.15,1a8.73,8.73,0,0,0,.75-.74l-1-2.15.13-.23a6.06,6.06,0,0,0,.6-1.46l.07-.25,2.25-.8c0-.17,0-.35,0-.53s0-.35,0-.52l-2.25-.8-.07-.25a6.06,6.06,0,0,0-.6-1.46l-.13-.23,1-2.15a8.73,8.73,0,0,0-.75-.74l-2.15,1-.23-.13a6.16,6.16,0,0,0-1.45-.6l-.25-.07L29,14a8.85,8.85,0,0,0-1,0l-.8,2.25-.26.06a6.09,6.09,0,0,0-1.44.6l-.23.13-2.15-1a7.49,7.49,0,0,0-.75.74l1,2.15-.13.23a5.71,5.71,0,0,0-.61,1.46l-.06.25-2.25.8c0,.17,0,.35,0,.52s0,.36,0,.53l2.25.8.06.25a5.71,5.71,0,0,0,.61,1.46l.13.23-1,2.15a7.49,7.49,0,0,0,.75.74l2.15-1,.23.13a5.92,5.92,0,0,0,1.44.6l.26.06Z"/><rect class="cls-5" x="23.92" y="21.65" width="1.09" height="1"/><rect class="cls-5" x="31.94" y="21.65" width="1.09" height="1"/><polygon class="cls-3" points="26.89 24.83 26.89 23.83 29.06 23.83 29.06 22.97 26.89 21.99 26.89 19.48 30.06 19.48 30.06 20.48 27.89 20.48 27.89 21.34 30.06 22.32 30.06 24.83 26.89 24.83"/><rect class="cls-3" x="27.98" y="24.33" width="1" height="1.63"/><rect class="cls-3" x="27.98" y="18.35" width="1" height="1.63"/><rect class="cls-4" x="10.92" y="45.21" width="35.05" height="1"/><rect class="cls-3" x="8.61" y="45.21" width="1.11" height="1"/><rect class="cls-3" x="47.2" y="45.21" width="1.12" height="1"/><path class="cls-2" d="M42,53.58c0,.79-6,1.42-13.3,1.42s-13.31-.63-13.31-1.42,6-1.42,13.31-1.42S42,52.8,42,53.58Z"/></svg>