<svg id="Layer_1" data-name="Layer 1" xmlns="http://www.w3.org/2000/svg" viewBox="0 0 60 60"><defs><style>.cls-1{fill:#fedeb6;}.cls-2{fill:#cdf1ef;}.cls-3{fill:#ffc882;}.cls-4{fill:#09b9b3;}.cls-5{fill:#fff;}</style></defs><title>Lock Person- On Dark</title><rect class="cls-1" x="5.12" y="37.87" width="1" height="4.29"/><rect class="cls-1" x="3.47" y="39.52" width="4.29" height="1"/><rect class="cls-2" x="48.48" y="38.96" width="1" height="4.3" transform="translate(-14.72 46.68) rotate(-45)"/><rect class="cls-2" x="46.84" y="40.61" width="4.3" height="1" transform="translate(-14.72 46.68) rotate(-45)"/><rect class="cls-2" x="16.03" y="4.52" width="1" height="4.3" transform="translate(0.13 13.64) rotate(-45)"/><rect class="cls-2" x="14.38" y="6.17" width="4.3" height="1" transform="translate(0.13 13.64) rotate(-45)"/><path class="cls-1" d="M60,35.09a1.51,1.51,0,0,1-1.26-.82c-.12-.2-.27-.33-.39-.33h-.39c-.12,0-.27.13-.39.33a1.51,1.51,0,0,1-1.26.82h-.38a1.51,1.51,0,0,1-1.26-.82c-.12-.2-.27-.33-.39-.33h-.39c-.12,0-.28.13-.4.33a1.48,1.48,0,0,1-1.25.82h-.39a1.49,1.49,0,0,1-1.25-.82c-.12-.2-.28-.33-.4-.33H50v-1h.19a1.51,1.51,0,0,1,1.26.82c.12.2.27.33.39.33h.39c.12,0,.27-.13.39-.33a1.51,1.51,0,0,1,1.26-.82h.39a1.5,1.5,0,0,1,1.25.82c.12.2.27.33.4.33h.38c.12,0,.28-.13.4-.33a1.49,1.49,0,0,1,1.25-.82h.39a1.49,1.49,0,0,1,1.25.82c.12.2.28.33.4.33Z"/><path class="cls-1" d="M40.05,8.82a2.16,2.16,0,1,1,2.16-2.15A2.16,2.16,0,0,1,40.05,8.82Zm0-3.31a1.16,1.16,0,1,0,1.16,1.16A1.16,1.16,0,0,0,40.05,5.51Z"/><path class="cls-2" d="M2.62,27.73a2.16,2.16,0,1,1,2.15-2.15A2.15,2.15,0,0,1,2.62,27.73Zm0-3.31a1.16,1.16,0,1,0,1.15,1.16A1.15,1.15,0,0,0,2.62,24.42Z"/><path class="cls-1" d="M6.84,14.91H3V11.05H6.84ZM4,13.91H5.84V12.05H4Z"/><path class="cls-2" d="M51.21,25.44H47.35V21.57h3.86Zm-2.86-1h1.86V22.57H48.35Z"/><rect class="cls-2" x="21.57" y="20.01" width="10.3" height="8.18"/><rect class="cls-3" x="9.61" y="23.6" width="9.98" height="1"/><path class="cls-4" d="M8.22,26a1.89,1.89,0,1,1,1.89-1.89A1.89,1.89,0,0,1,8.22,26Zm0-2.78a.89.89,0,1,0,.89.89A.89.89,0,0,0,8.22,23.21Z"/><polygon class="cls-3" points="19.59 18.59 17.27 18.59 12.86 14.18 13.57 13.47 17.69 17.59 19.59 17.59 19.59 18.59"/><polygon class="cls-3" points="19.59 21.59 15.7 21.59 11.99 17.88 10.4 17.88 10.4 16.88 12.4 16.88 16.12 20.59 19.59 20.59 19.59 21.59"/><path class="cls-4" d="M9,19.26a1.89,1.89,0,1,1,1.89-1.88A1.89,1.89,0,0,1,9,19.26Zm0-2.78a.89.89,0,0,0-.89.9.89.89,0,1,0,.89-.9Z"/><path class="cls-4" d="M12.19,14.77a1.89,1.89,0,1,1,1.89-1.89A1.89,1.89,0,0,1,12.19,14.77Zm0-2.78a.89.89,0,1,0,.89.89A.89.89,0,0,0,12.19,12Z"/><polygon class="cls-3" points="13.57 34.72 12.86 34.02 17.27 29.61 19.59 29.61 19.59 30.61 17.69 30.61 13.57 34.72"/><polygon class="cls-3" points="12.4 31.32 10.4 31.32 10.4 30.32 11.99 30.32 15.7 26.6 19.59 26.6 19.59 27.6 16.12 27.6 12.4 31.32"/><path class="cls-4" d="M9,32.71a1.89,1.89,0,1,1,1.89-1.89A1.89,1.89,0,0,1,9,32.71Zm0-2.78a.89.89,0,1,0,.89.89A.89.89,0,0,0,9,29.93Z"/><path class="cls-4" d="M12.19,37.2a1.89,1.89,0,1,1,1.89-1.89A1.89,1.89,0,0,1,12.19,37.2Zm0-2.78a.89.89,0,1,0,.89.89A.89.89,0,0,0,12.19,34.42Z"/><path class="cls-5" d="M32.37,28.69H21.07V19.51h11.3Zm-10.3-1h9.3V20.51h-9.3Z"/><rect class="cls-5" x="26.22" y="22.83" width="1" height="2.53"/><path class="cls-5" d="M30.38,20.51H23.05V17.32a3.67,3.67,0,1,1,7.33,0Zm-6.33-1h5.33V17.32a2.67,2.67,0,1,0-5.33,0Z"/><polygon class="cls-1" points="32.38 12.34 31.38 12.34 31.36 11.34 32.38 11.34 32.38 12.34"/><path class="cls-1" d="M43.62,17.62,43,16.88l.7-.68.71.75Zm-1.54-1.49-.74-.66.62-.75.79.67Zm-1.64-1.31L40,14.61l-.42-.27.47-.88.42.27-.26.42.27-.42.4.26Zm-1.88-1-.92-.38L38,12.5l.94.39Zm-2-.75-.93-.31.24-.92,1,.28Zm-2-.53-.48,0,0-.5.08-.5-.08.5.08-.5.48.08Z"/><polygon class="cls-1" points="44.63 18.88 44.35 18.46 45.18 17.9 45.46 18.32 44.63 18.88"/><path class="cls-5" d="M36,44.91H35v-3.2h6.17V33.28H45.1l-.27-5.83a13,13,0,0,0-13-12.38h-.5v-1h.5a14,14,0,0,1,14,13.34l.31,6.87h-4v8.43H36Z"/><rect class="cls-5" x="21.07" y="33.02" width="1" height="12.8"/><rect class="cls-1" x="16.53" y="12.02" width="1" height="1"/><rect class="cls-1" x="18.53" y="12.02" width="1" height="1"/><rect class="cls-1" x="18.53" y="14.02" width="1" height="1"/><rect class="cls-1" x="22.82" y="12.02" width="1" height="1"/><rect class="cls-1" x="20.82" y="12.02" width="1" height="1"/><rect class="cls-1" x="20.82" y="10.02" width="1" height="1"/><rect class="cls-1" x="18.59" y="39.02" width="1" height="1"/><rect class="cls-1" x="18.59" y="37.02" width="1" height="1"/><rect class="cls-1" x="18.59" y="35.02" width="1" height="1"/><rect class="cls-1" x="18.59" y="33.02" width="1" height="1"/><path class="cls-2" d="M41.34,53.63c0,.79-6,1.42-13.3,1.42s-13.31-.63-13.31-1.42,6-1.42,13.31-1.42S41.34,52.85,41.34,53.63Z"/></svg>