<svg id="Layer_1" data-name="Layer 1" xmlns="http://www.w3.org/2000/svg" viewBox="0 0 60 60"><defs><style>.cls-1,.cls-5{fill:#fedeb6;}.cls-2,.cls-6{fill:#cdf1ef;}.cls-3{fill:none;}.cls-3,.cls-4,.cls-5,.cls-6{stroke:#022c48;stroke-miterlimit:10;}.cls-4{stroke-width:2px;}</style></defs><title>Magnifying Screen- On Light</title><rect class="cls-1" x="3.7" y="36.62" width="1" height="4.29"/><rect class="cls-1" x="2.06" y="38.26" width="4.29" height="1"/><rect class="cls-2" x="52.9" y="37.76" width="1" height="4.3" transform="translate(-12.58 49.45) rotate(-45)"/><rect class="cls-2" x="51.25" y="39.41" width="4.3" height="1" transform="translate(-12.58 49.44) rotate(-45)"/><rect class="cls-2" x="23.57" y="4.6" width="1" height="4.3" transform="translate(2.28 19) rotate(-45)"/><rect class="cls-2" x="21.92" y="6.25" width="4.3" height="1" transform="translate(2.28 19) rotate(-45)"/><path class="cls-2" d="M58.3,18.35a1.47,1.47,0,0,1-1.25-.82c-.12-.2-.27-.33-.4-.33h-.38c-.13,0-.28.13-.4.33a1.47,1.47,0,0,1-1.25.82h-.39A1.47,1.47,0,0,1,53,17.53c-.13-.2-.28-.33-.4-.33h-.39c-.12,0-.27.13-.39.33a1.48,1.48,0,0,1-1.26.82h-.38a1.48,1.48,0,0,1-1.26-.82c-.12-.2-.27-.33-.39-.33h-.2v-1h.2a1.49,1.49,0,0,1,1.25.82c.12.21.27.33.4.33h.38c.13,0,.28-.12.4-.33a1.5,1.5,0,0,1,1.25-.82h.39a1.51,1.51,0,0,1,1.26.82c.12.21.27.33.39.33h.39c.12,0,.27-.12.39-.33a1.51,1.51,0,0,1,1.26-.82h.38a1.51,1.51,0,0,1,1.26.82c.12.21.27.33.39.33Z"/><path class="cls-1" d="M42.32,8.16A2.16,2.16,0,1,1,44.47,6,2.16,2.16,0,0,1,42.32,8.16Zm0-3.31A1.16,1.16,0,1,0,43.47,6,1.16,1.16,0,0,0,42.32,4.85Z"/><path class="cls-2" d="M6.7,28.39a2.16,2.16,0,1,1,2.15-2.15A2.16,2.16,0,0,1,6.7,28.39Zm0-3.31a1.16,1.16,0,1,0,1.15,1.16A1.16,1.16,0,0,0,6.7,25.08Z"/><path class="cls-1" d="M7.54,13.88H3.67V10H7.54Zm-2.87-1H6.54V11H4.67Z"/><path class="cls-1" d="M58.19,32H54.33V28.11h3.86Zm-2.86-1h1.86V29.11H55.33Z"/><path class="cls-2" d="M42.49,53.65c0,.78-6,1.42-13.3,1.42s-13.3-.64-13.3-1.42,5.95-1.42,13.3-1.42S42.49,52.86,42.49,53.65Z"/><polyline class="cls-3" points="39.49 44.41 12.19 44.41 12.19 12.18 46.16 12.18 46.16 20.67 12.19 20.67"/><line class="cls-4" x1="16.05" y1="16.38" x2="17.9" y2="16.38"/><line class="cls-4" x1="19.42" y1="16.38" x2="21.27" y2="16.38"/><line class="cls-4" x1="22.79" y1="16.38" x2="24.64" y2="16.38"/><path class="cls-3" d="M38.86,28.3h0a4.6,4.6,0,0,1,4.6,4.46"/><path class="cls-1" d="M38.87,23.88a8.61,8.61,0,1,1-8.61,8.61A8.62,8.62,0,0,1,38.87,23.88Zm6.61,8.61a6.61,6.61,0,1,0-6.61,6.61A6.62,6.62,0,0,0,45.48,32.49Z"/><circle class="cls-3" cx="38.87" cy="32.49" r="8.61"/><circle class="cls-3" cx="38.87" cy="32.49" r="6.61"/><rect class="cls-5" x="42.32" y="40.59" width="4.35" height="2.39" transform="translate(58.31 -17.67) rotate(59.88)"/><rect class="cls-6" x="43.6" y="44.83" width="7.99" height="4.58" transform="translate(64.46 -17.69) rotate(59.88)"/></svg>