<svg id="Layer_1" data-name="Layer 1" xmlns="http://www.w3.org/2000/svg" viewBox="0 0 60 60"><defs><style>.cls-1{fill:#cdf1ef;}.cls-2{fill:#fedeb6;}.cls-3{fill:#ffc882;}.cls-4{fill:#022c48;}</style></defs><title>Magnifying Chart- On Light</title><rect class="cls-1" x="54.56" y="33.63" width="1" height="4.3" transform="translate(-9.17 49.41) rotate(-45)"/><rect class="cls-1" x="52.91" y="35.28" width="4.3" height="1" transform="translate(-9.17 49.41) rotate(-45)"/><rect class="cls-1" x="26.23" y="6.47" width="1" height="4.3" transform="translate(1.74 21.43) rotate(-45)"/><rect class="cls-1" x="24.58" y="8.11" width="4.3" height="1" transform="translate(1.74 21.43) rotate(-45)"/><path class="cls-1" d="M58.82,22.22a1.49,1.49,0,0,1-1.25-.82c-.12-.2-.27-.33-.4-.33h-.38c-.13,0-.28.13-.4.33a1.49,1.49,0,0,1-1.25.82h-.39a1.48,1.48,0,0,1-1.25-.82c-.13-.2-.28-.33-.4-.33h-.39c-.12,0-.27.13-.39.33a1.51,1.51,0,0,1-1.26.82h-.38a1.51,1.51,0,0,1-1.26-.82c-.12-.2-.27-.33-.39-.33h-.2v-1H49a1.49,1.49,0,0,1,1.25.82c.12.21.28.33.4.33h.38c.13,0,.28-.12.4-.33a1.5,1.5,0,0,1,1.25-.82h.39a1.51,1.51,0,0,1,1.26.82c.12.21.27.33.39.33h.39c.12,0,.27-.12.39-.33a1.51,1.51,0,0,1,1.26-.82h.38a1.51,1.51,0,0,1,1.26.82c.12.21.27.33.39.33Z"/><path class="cls-2" d="M43,9a2.16,2.16,0,1,1,2.15-2.16A2.16,2.16,0,0,1,43,9Zm0-3.31a1.16,1.16,0,1,0,1.15,1.15A1.16,1.16,0,0,0,43,5.72Z"/><path class="cls-2" d="M11.2,11.75H7.33V7.88H11.2Zm-2.87-1H10.2V8.88H8.33Z"/><path class="cls-2" d="M54.85,30.85H51V27h3.86Zm-2.86-1h1.86V28H52Z"/><rect class="cls-1" x="49.13" y="41.29" width="4.35" height="1" transform="translate(-14.52 48.53) rotate(-45)"/><rect class="cls-1" x="44.34" y="36.5" width="4.35" height="1" transform="translate(-12.54 43.72) rotate(-45)"/><path class="cls-3" d="M42.51,20.45a9.36,9.36,0,0,1,.62.79l-.78.62L38.43,25l-.36.29-.62-.78.36-.29,3.91-3.1Z"/><path class="cls-3" d="M46.81,18.32l-.26.21-1.74,1.38-.79.62a6.51,6.51,0,0,0-.62-.79l.79-.62,1.73-1.38.27-.21Z"/><path class="cls-3" d="M25.88,27.34a8.46,8.46,0,0,0,.15,1l-1,.14-4,.58h0l-.44.06-.15-1,.44-.06,4-.59Z"/><path class="cls-3" d="M33.44,27.24,33,27.3,28.15,28l-1,.15a8.15,8.15,0,0,1-.15-1L28,27l4.86-.71.42-.06Z"/><path class="cls-3" d="M47.75,18.93a2,2,0,1,1,2-2A2,2,0,0,1,47.75,18.93Zm0-3a1,1,0,1,0,1,1A1,1,0,0,0,47.75,16Z"/><path class="cls-2" d="M43.42,16.86l.79-.62.61.79-.78.61Z"/><path class="cls-2" d="M22,25.79l1-.15.15,1-1,.15Z"/><path class="cls-2" d="M6.06,38.14l.7-.71.71.7-.7.71ZM7.67,36.5l.7-.71.71.7-.7.71Zm1.61-1.64.71-.71.71.7-.7.71Zm1.62-1.64.7-.71.71.7-.7.71Zm1.61-1.64.7-.71.71.7-.7.71Zm1.61-1.64.71-.71.71.7-.7.71Z"/><path class="cls-3" d="M6.06,44a2,2,0,1,1,2-2A2,2,0,0,1,6.06,44Zm0-3a1,1,0,1,0,0,2,1,1,0,0,0,0-2Z"/><path class="cls-3" d="M19.07,30.84a2,2,0,1,1,2-2A2,2,0,0,1,19.07,30.84Zm0-3a1,1,0,1,0,0,2,1,1,0,0,0,0-2Z"/><path class="cls-3" d="M35.83,29.36a3,3,0,1,1,3-3A3,3,0,0,1,35.83,29.36Zm0-4.94a2,2,0,1,0,2,2A2,2,0,0,0,35.83,24.42Z"/><rect class="cls-2" x="10.46" y="40.75" width="1" height="3.49"/><rect class="cls-2" x="13.2" y="38.01" width="1" height="6.24"/><rect class="cls-2" x="15.93" y="35.26" width="1" height="8.99"/><rect class="cls-2" x="18.66" y="32.51" width="1" height="11.74"/><rect class="cls-2" x="21.4" y="31.28" width="1" height="12.97"/><rect class="cls-2" x="24.13" y="32.69" width="1" height="11.55"/><rect class="cls-2" x="26.87" y="35.98" width="1" height="8.27"/><rect class="cls-2" x="29.6" y="38.01" width="1" height="6.24"/><rect class="cls-1" x="29.6" y="28.85" width="1" height="1.02"/><rect class="cls-2" x="32.33" y="39.11" width="1" height="5.13"/><rect class="cls-1" x="32.33" y="29.87" width="1" height="2.15"/><rect class="cls-2" x="35.07" y="39.26" width="1" height="4.99"/><rect class="cls-1" x="35.07" y="30.94" width="1" height="1.9"/><rect class="cls-2" x="37.8" y="39.26" width="1" height="4.99"/><rect class="cls-1" x="37.8" y="30.13" width="1" height="1.88"/><rect class="cls-2" x="40.54" y="38.01" width="1" height="6.24"/><rect class="cls-1" x="40.54" y="24.75" width="1" height="5.12"/><rect class="cls-2" x="43.27" y="40.11" width="1" height="4.13"/><rect class="cls-2" x="46" y="42.5" width="1" height="1.75"/><rect class="cls-3" x="4.78" y="34.92" width="15.53" height="1" transform="translate(-21.55 19.62) rotate(-45.64)"/><path class="cls-4" d="M43.81,37,41.62,34.8l2.69-2.7,2.19,2.19ZM43,34.8l.78.77,1.28-1.28-.78-.77Z"/><path class="cls-4" d="M53.51,46.69,51.32,44.5,54,41.8,56.2,44Zm-.78-2.19.78.77L54.79,44,54,43.22Z"/><path class="cls-4" d="M44.07,22.93a8.76,8.76,0,0,0-.94-1.69,9.36,9.36,0,0,0-.62-.79c-.12-.14-.24-.27-.37-.4A8.88,8.88,0,0,0,27,27.17a8.15,8.15,0,0,0,.15,1,8.76,8.76,0,0,0,2.41,4.46,8.89,8.89,0,0,0,14.5-9.69Zm-2.64,9a7.89,7.89,0,0,1-11.16,0A7.76,7.76,0,0,1,28.15,28,6.74,6.74,0,0,1,28,27a7.88,7.88,0,0,1,13.42-6.26c.1.1.2.21.29.32a7.68,7.68,0,0,1,.63.78,7.89,7.89,0,0,1-.92,10.05Zm2.64-9a8.76,8.76,0,0,0-.94-1.69,9.36,9.36,0,0,0-.62-.79c-.12-.14-.24-.27-.37-.4A8.88,8.88,0,0,0,27,27.17a8.15,8.15,0,0,0,.15,1,8.76,8.76,0,0,0,2.41,4.46,8.89,8.89,0,0,0,14.5-9.69Zm-2.64,9a7.89,7.89,0,0,1-11.16,0A7.76,7.76,0,0,1,28.15,28,6.74,6.74,0,0,1,28,27a7.88,7.88,0,0,1,13.42-6.26c.1.1.2.21.29.32a7.68,7.68,0,0,1,.63.78,7.89,7.89,0,0,1-.92,10.05Zm2.64-9a8.76,8.76,0,0,0-.94-1.69,9.36,9.36,0,0,0-.62-.79c-.12-.14-.24-.27-.37-.4A8.88,8.88,0,0,0,27,27.17a8.15,8.15,0,0,0,.15,1,8.76,8.76,0,0,0,2.41,4.46,8.89,8.89,0,0,0,14.5-9.69Zm-2.64,9a7.89,7.89,0,0,1-11.16,0A7.76,7.76,0,0,1,28.15,28,6.74,6.74,0,0,1,28,27a7.88,7.88,0,0,1,13.42-6.26c.1.1.2.21.29.32a7.68,7.68,0,0,1,.63.78,7.89,7.89,0,0,1-.92,10.05Zm2.64-9a8.76,8.76,0,0,0-.94-1.69,9.36,9.36,0,0,0-.62-.79c-.12-.14-.24-.27-.37-.4A8.88,8.88,0,0,0,27,27.17a8.15,8.15,0,0,0,.15,1,8.76,8.76,0,0,0,2.41,4.46,8.89,8.89,0,0,0,14.5-9.69Zm-2.64,9a7.89,7.89,0,0,1-11.16,0A7.76,7.76,0,0,1,28.15,28,6.74,6.74,0,0,1,28,27a7.88,7.88,0,0,1,13.42-6.26c.1.1.2.21.29.32a7.68,7.68,0,0,1,.63.78,7.89,7.89,0,0,1-.92,10.05Zm3.38-12a9.36,9.36,0,0,0-.62-.79c-.17-.2-.35-.39-.54-.58a11,11,0,0,0-18.76,8.94,8.46,8.46,0,0,0,.15,1,10.9,10.9,0,0,0,3,5.66,11,11,0,0,0,14.13,1.23,10.65,10.65,0,0,0,1.47-1.23,11.32,11.32,0,0,0,1.23-1.46A11,11,0,0,0,44.81,19.91ZM42.94,33.43A10,10,0,0,1,26,28.33a8.46,8.46,0,0,1-.15-1,10,10,0,0,1,17.06-8.1c.16.16.32.33.46.5a6.51,6.51,0,0,1,.62.79A10,10,0,0,1,42.94,33.43Zm1.13-10.5a8.76,8.76,0,0,0-.94-1.69,9.36,9.36,0,0,0-.62-.79c-.12-.14-.24-.27-.37-.4A8.88,8.88,0,0,0,27,27.17a8.15,8.15,0,0,0,.15,1,8.76,8.76,0,0,0,2.41,4.46,8.89,8.89,0,0,0,14.5-9.69Zm-2.64,9a7.89,7.89,0,0,1-11.16,0A7.76,7.76,0,0,1,28.15,28,6.74,6.74,0,0,1,28,27a7.88,7.88,0,0,1,13.42-6.26c.1.1.2.21.29.32a7.68,7.68,0,0,1,.63.78,7.89,7.89,0,0,1-.92,10.05Zm2.64-9a8.76,8.76,0,0,0-.94-1.69,9.36,9.36,0,0,0-.62-.79c-.12-.14-.24-.27-.37-.4A8.88,8.88,0,0,0,27,27.17a8.15,8.15,0,0,0,.15,1,8.76,8.76,0,0,0,2.41,4.46,8.89,8.89,0,0,0,14.5-9.69Zm-2.64,9a7.89,7.89,0,0,1-11.16,0A7.76,7.76,0,0,1,28.15,28,6.74,6.74,0,0,1,28,27a7.88,7.88,0,0,1,13.42-6.26c.1.1.2.21.29.32a7.68,7.68,0,0,1,.63.78,7.89,7.89,0,0,1-.92,10.05Zm2.64-9a8.76,8.76,0,0,0-.94-1.69,9.36,9.36,0,0,0-.62-.79c-.12-.14-.24-.27-.37-.4A8.88,8.88,0,0,0,27,27.17a8.15,8.15,0,0,0,.15,1,8.76,8.76,0,0,0,2.41,4.46,8.89,8.89,0,0,0,14.5-9.69Zm-2.64,9a7.89,7.89,0,0,1-11.16,0A7.76,7.76,0,0,1,28.15,28,6.74,6.74,0,0,1,28,27a7.88,7.88,0,0,1,13.42-6.26c.1.1.2.21.29.32a7.68,7.68,0,0,1,.63.78,7.89,7.89,0,0,1-.92,10.05Zm2.64-9a8.76,8.76,0,0,0-.94-1.69,9.36,9.36,0,0,0-.62-.79c-.12-.14-.24-.27-.37-.4A8.88,8.88,0,0,0,27,27.17a8.15,8.15,0,0,0,.15,1,8.76,8.76,0,0,0,2.41,4.46,8.89,8.89,0,0,0,14.5-9.69Zm-2.64,9a7.89,7.89,0,0,1-11.16,0A7.76,7.76,0,0,1,28.15,28,6.74,6.74,0,0,1,28,27a7.88,7.88,0,0,1,13.42-6.26c.1.1.2.21.29.32a7.68,7.68,0,0,1,.63.78,7.89,7.89,0,0,1-.92,10.05Zm2.64-9a8.76,8.76,0,0,0-.94-1.69,9.36,9.36,0,0,0-.62-.79c-.12-.14-.24-.27-.37-.4A8.88,8.88,0,0,0,27,27.17a8.15,8.15,0,0,0,.15,1,8.76,8.76,0,0,0,2.41,4.46,8.89,8.89,0,0,0,14.5-9.69Zm-2.64,9a7.89,7.89,0,0,1-11.16,0A7.76,7.76,0,0,1,28.15,28,6.74,6.74,0,0,1,28,27a7.88,7.88,0,0,1,13.42-6.26c.1.1.2.21.29.32a7.68,7.68,0,0,1,.63.78,7.89,7.89,0,0,1-.92,10.05Z"/><path class="cls-1" d="M44,20.53l-.89.71a9.36,9.36,0,0,0-.62-.79l.89-.71A6.51,6.51,0,0,1,44,20.53Z"/><path class="cls-1" d="M43.4,19.74l-.89.71c-.12-.14-.24-.27-.37-.4A8.88,8.88,0,0,0,27,27.17l-1.13.17a10,10,0,0,1,17.06-8.1C43.1,19.4,43.26,19.57,43.4,19.74Z"/><path class="cls-1" d="M27.16,28.16,26,28.33a8.46,8.46,0,0,1-.15-1L27,27.17A8.15,8.15,0,0,0,27.16,28.16Z"/><path class="cls-1" d="M42.94,33.43A10,10,0,0,1,26,28.33l1.13-.17a8.76,8.76,0,0,0,2.41,4.46,8.89,8.89,0,0,0,14.5-9.69,8.76,8.76,0,0,0-.94-1.69l.89-.71A10,10,0,0,1,42.94,33.43Z"/><path class="cls-4" d="M51.48,45.75l-8.92-8.92L46.34,33,55.26,42ZM44,36.83l7.51,7.5L53.85,42l-7.51-7.5Z"/><rect class="cls-4" x="5.54" y="18.75" width="1.09" height="1"/><rect class="cls-4" x="13.55" y="18.75" width="1.09" height="1"/><polygon class="cls-4" points="11.68 21.93 8.5 21.93 8.5 20.93 10.68 20.93 10.68 20.07 8.5 19.09 8.5 16.58 11.67 16.58 11.67 17.58 9.5 17.58 9.5 18.44 11.68 19.42 11.68 21.93"/><rect class="cls-4" x="9.6" y="21.43" width="1" height="1.63"/><rect class="cls-4" x="9.6" y="15.45" width="1" height="1.63"/><rect class="cls-2" x="20.56" y="18.75" width="1" height="1"/><rect class="cls-2" x="22.56" y="18.75" width="1" height="1"/><rect class="cls-2" x="5.56" y="30.42" width="1" height="1"/><rect class="cls-2" x="5.56" y="28.42" width="1" height="1"/><rect class="cls-2" x="5.56" y="26.42" width="1" height="1"/><rect class="cls-2" x="5.56" y="24.42" width="1" height="1"/><path class="cls-1" d="M44.93,53.92c0,.79-6,1.43-13.3,1.43s-13.3-.64-13.3-1.43,6-1.42,13.3-1.42S44.93,53.14,44.93,53.92Z"/></svg>