<svg id="Layer_1" data-name="Layer 1" xmlns="http://www.w3.org/2000/svg" viewBox="0 0 60 60"><defs><style>.cls-1{fill:#fedeb6;}.cls-2{fill:#cdf1ef;}.cls-3{fill:#fff;}.cls-4{fill:#fec687;}</style></defs><title>Mobile Store- On Dark</title><rect class="cls-1" x="9.57" y="35.21" width="1" height="4.3"/><rect class="cls-1" x="7.93" y="36.86" width="4.3" height="1"/><rect class="cls-2" x="51.12" y="16.2" width="1" height="4.3" transform="translate(2.15 41.88) rotate(-45)"/><rect class="cls-2" x="49.47" y="17.85" width="4.3" height="1" transform="translate(2.14 41.87) rotate(-45)"/><rect class="cls-2" x="24.81" y="1.74" width="1" height="4.3" transform="translate(4.66 19.04) rotate(-45)"/><rect class="cls-2" x="23.16" y="3.39" width="4.3" height="1" transform="translate(4.66 19.04) rotate(-45)"/><path class="cls-2" d="M54.78,42.58a1.51,1.51,0,0,1-1.26-.82c-.12-.21-.27-.34-.39-.34h-.39c-.12,0-.27.13-.39.34a1.51,1.51,0,0,1-1.26.82h-.38a1.51,1.51,0,0,1-1.26-.82c-.12-.21-.27-.34-.39-.34h-.39c-.12,0-.27.13-.39.34a1.51,1.51,0,0,1-1.26.82h-.39a1.5,1.5,0,0,1-1.25-.82c-.12-.21-.27-.34-.4-.34h-.19v-1H45a1.5,1.5,0,0,1,1.26.83c.12.2.27.33.39.33H47c.12,0,.27-.13.4-.33a1.47,1.47,0,0,1,1.25-.83h.39a1.48,1.48,0,0,1,1.25.83c.12.2.27.33.4.33h.38c.13,0,.28-.13.4-.33a1.49,1.49,0,0,1,1.25-.83h.39a1.47,1.47,0,0,1,1.25.83c.13.2.28.33.4.33Z"/><path class="cls-1" d="M41.84,8.7A2.16,2.16,0,1,1,44,6.54,2.16,2.16,0,0,1,41.84,8.7Zm0-3.31A1.16,1.16,0,1,0,43,6.54,1.16,1.16,0,0,0,41.84,5.39Z"/><path class="cls-2" d="M6.82,28.27A2.15,2.15,0,1,1,9,26.12,2.16,2.16,0,0,1,6.82,28.27Zm0-3.3A1.15,1.15,0,1,0,8,26.12,1.15,1.15,0,0,0,6.82,25Z"/><path class="cls-1" d="M15.58,14.67H11.72V10.8h3.86Zm-2.86-1h1.86V11.8H12.72Z"/><path class="cls-1" d="M52.15,33.29H48.28V29.43h3.87Zm-2.87-1h1.87V30.43H49.28Z"/><path class="cls-2" d="M42.5,55.74c0,.78-6,1.42-13.3,1.42s-13.31-.64-13.31-1.42,6-1.43,13.31-1.43S42.5,55,42.5,55.74Z"/><rect class="cls-2" x="24" y="32.3" width="10.39" height="5.18"/><path class="cls-3" d="M39.53,15.41h-1v-2a3,3,0,0,0-3-3H22.86a3,3,0,0,0-3,3v2h-1v-2a4,4,0,0,1,4-4H35.54a4,4,0,0,1,4,4Z"/><path class="cls-3" d="M35.54,48.65H22.86a4,4,0,0,1-4-4V27.81h1V44.65a3,3,0,0,0,3,3H35.54a3,3,0,0,0,3-3V27.83h1V44.65A4,4,0,0,1,35.54,48.65Z"/><rect class="cls-2" x="26.2" y="44.13" width="5.99" height="1"/><path class="cls-4" d="M34.82,28.71a3.31,3.31,0,0,1-3.31-3.31h1a2.31,2.31,0,0,0,4.62,0h1A3.32,3.32,0,0,1,34.82,28.71Z"/><path class="cls-4" d="M29.2,28.71a3.31,3.31,0,0,1-3.31-3.31h1a2.31,2.31,0,0,0,4.62,0h1A3.32,3.32,0,0,1,29.2,28.71Z"/><path class="cls-4" d="M23.58,28.71a3.32,3.32,0,0,1-3.31-3.31h1a2.31,2.31,0,0,0,4.62,0h1A3.32,3.32,0,0,1,23.58,28.71Z"/><path class="cls-4" d="M40.44,28.71a3.31,3.31,0,0,1-3.31-3.31h1a2.31,2.31,0,0,0,4.62,0V21.79H15.65V25.4a2.31,2.31,0,0,0,4.62,0h1a3.31,3.31,0,0,1-6.62,0V21.29a.5.5,0,0,1,.5-.5h28.1a.5.5,0,0,1,.5.5V25.4A3.32,3.32,0,0,1,40.44,28.71Z"/><rect class="cls-4" x="20.27" y="24.62" width="1" height="0.98"/><rect class="cls-4" x="25.89" y="24.62" width="1" height="0.98"/><rect class="cls-4" x="31.51" y="24.62" width="1" height="0.98"/><rect class="cls-4" x="37.13" y="24.62" width="1" height="0.98"/><path class="cls-4" d="M43.25,21.79H15.15a.48.48,0,0,1-.44-.27.51.51,0,0,1,0-.52L19,15.12a.49.49,0,0,1,.4-.21H39a.52.52,0,0,1,.41.21L43.65,21a.5.5,0,0,1-.4.79Zm-27.13-1H42.27l-3.49-4.88H19.62Z"/><rect class="cls-2" x="26.17" y="12.3" width="1.08" height="1"/><rect class="cls-2" x="28.11" y="12.3" width="4.12" height="1"/><rect class="cls-3" x="19.36" y="41.08" width="19.67" height="1"/><path class="cls-3" d="M34.89,38H23.5V31.8H34.89ZM24.5,37h9.39V32.8H24.5Z"/><rect class="cls-3" x="26.04" y="34.4" width="6.32" height="1"/></svg>