<svg id="Layer_1" data-name="Layer 1" xmlns="http://www.w3.org/2000/svg" viewBox="0 0 60 60"><defs><style>.cls-1{fill:#fedeb6;}.cls-2{fill:#cdf1ef;}.cls-3{fill:#9ce3df;}.cls-4{fill:#fff;}.cls-5{fill:#fec687;}.cls-6{fill:#1db9b2;}</style></defs><title>Money- On Dark</title><rect class="cls-1" x="3.4" y="34.9" width="1" height="4.3"/><rect class="cls-1" x="1.75" y="36.54" width="4.3" height="1"/><rect class="cls-2" x="54.95" y="13.88" width="1" height="4.3" transform="translate(4.91 43.91) rotate(-45)"/><rect class="cls-2" x="53.3" y="15.53" width="4.3" height="1" transform="translate(4.9 43.9) rotate(-45)"/><rect class="cls-2" x="26.64" y="9.42" width="1" height="4.3" transform="translate(-0.23 22.58) rotate(-45)"/><rect class="cls-2" x="24.99" y="11.07" width="4.3" height="1" transform="translate(-0.23 22.58) rotate(-45)"/><path class="cls-2" d="M59.61,41.26a1.51,1.51,0,0,1-1.26-.82c-.12-.21-.27-.33-.39-.33h-.39c-.12,0-.27.12-.39.33a1.51,1.51,0,0,1-1.26.82h-.39a1.5,1.5,0,0,1-1.25-.82c-.12-.21-.27-.33-.4-.33H53.5c-.12,0-.28.12-.4.33a1.49,1.49,0,0,1-1.25.82h-.39a1.48,1.48,0,0,1-1.25-.82c-.12-.21-.28-.33-.4-.33h-.19v-1h.19a1.51,1.51,0,0,1,1.26.82c.12.2.27.33.39.33h.39c.12,0,.27-.13.39-.33a1.51,1.51,0,0,1,1.26-.82h.38a1.51,1.51,0,0,1,1.26.82c.12.2.27.33.39.33h.39c.12,0,.28-.13.4-.33a1.48,1.48,0,0,1,1.25-.82H58a1.49,1.49,0,0,1,1.25.82c.12.2.27.33.4.33Z"/><path class="cls-1" d="M43.66,7.38a2.16,2.16,0,1,1,2.16-2.15A2.16,2.16,0,0,1,43.66,7.38Zm0-3.31a1.16,1.16,0,1,0,1.16,1.16A1.16,1.16,0,0,0,43.66,4.07Z"/><path class="cls-2" d="M4.65,25A2.16,2.16,0,1,1,6.8,22.8,2.16,2.16,0,0,1,4.65,25Zm0-3.31A1.16,1.16,0,1,0,5.8,22.8,1.16,1.16,0,0,0,4.65,21.65Z"/><path class="cls-1" d="M17.41,13.35H13.55V9.49h3.86Zm-2.86-1h1.86V10.49H14.55Z"/><path class="cls-1" d="M54,32H50.11V28.11H54Zm-2.86-1H53V29.11H51.11Z"/><path class="cls-2" d="M44.33,54.42c0,.78-6,1.42-13.3,1.42s-13.31-.64-13.31-1.42S23.68,53,31,53,44.33,53.63,44.33,54.42Z"/><path class="cls-3" d="M44.93,39.59V34.46a2.84,2.84,0,0,1-2.84-2.84H20.64a2.84,2.84,0,0,1-2.84,2.84v5.13a2.84,2.84,0,0,1,2.84,2.83H42.09A2.84,2.84,0,0,1,44.93,39.59Z"/><circle class="cls-4" cx="31.36" cy="37.02" r="2.83"/><path class="cls-5" d="M12.63,40.72H10.32A2.28,2.28,0,0,1,8,38.44V21.37a2.28,2.28,0,0,1,2.28-2.28H38.09a2.28,2.28,0,0,1,2.28,2.28v5.3h-1v-5.3a1.28,1.28,0,0,0-1.28-1.28H10.32A1.28,1.28,0,0,0,9,21.37V38.44a1.28,1.28,0,0,0,1.28,1.28h2.31Z"/><rect class="cls-5" x="8.04" y="23.39" width="32.33" height="1"/><rect class="cls-5" x="8.04" y="28.12" width="4.52" height="1"/><rect class="cls-5" x="28.49" y="25.67" width="8.42" height="1"/><rect class="cls-6" x="43.96" y="24.15" width="1" height="0.97"/><rect class="cls-1" x="43.96" y="21.72" width="1" height="1.66"/><rect class="cls-6" x="43.96" y="12.58" width="1" height="8.12"/><polygon class="cls-6" points="46.73 15.61 44.46 13.34 42.19 15.61 41.49 14.9 44.46 11.93 47.44 14.9 46.73 15.61"/><rect class="cls-1" x="50.39" y="25.72" width="1" height="0.97"/><rect class="cls-6" x="50.39" y="19.57" width="1" height="5.38"/><polygon class="cls-6" points="53.16 22.1 50.89 19.83 48.62 22.1 47.92 21.39 50.89 18.42 53.87 21.39 53.16 22.1"/><path class="cls-4" d="M48.83,46.32H13.9V27.72H48.83Zm-33.93-1H47.83V28.72H14.9Z"/><path class="cls-4" d="M31.37,40.36A3.34,3.34,0,1,1,34.7,37,3.35,3.35,0,0,1,31.37,40.36Zm0-5.67A2.34,2.34,0,1,0,33.7,37,2.34,2.34,0,0,0,31.37,34.69Z"/><path class="cls-4" d="M42.59,42.92H20.14v-.5a2.34,2.34,0,0,0-2.34-2.33h-.5V34h.5a2.34,2.34,0,0,0,2.34-2.34v-.5H42.59v.5A2.34,2.34,0,0,0,44.93,34h.5v6.13h-.5a2.34,2.34,0,0,0-2.34,2.33Zm-21.49-1H41.63a3.33,3.33,0,0,1,2.8-2.79V34.92a3.35,3.35,0,0,1-2.8-2.8H21.1a3.35,3.35,0,0,1-2.8,2.8v4.21A3.33,3.33,0,0,1,21.1,41.92Z"/><rect class="cls-4" x="17.3" y="30.78" width="1" height="1"/><rect class="cls-4" x="17.3" y="42.26" width="1" height="1"/><rect class="cls-4" x="44.43" y="30.78" width="1" height="1"/><rect class="cls-4" x="44.43" y="42.26" width="1" height="1"/><rect class="cls-4" x="37.22" y="36.52" width="1.78" height="1"/><rect class="cls-4" x="23.73" y="36.52" width="1.78" height="1"/></svg>