<svg id="Layer_1" data-name="Layer 1" xmlns="http://www.w3.org/2000/svg" viewBox="0 0 60 60"><defs><style>.cls-1{fill:#fedeb6;}.cls-2{fill:#cdf1ef;}.cls-3{fill:#fff;}.cls-4{fill:#ffc882;}</style></defs><title>Money Technology- On Dark</title><rect class="cls-1" x="2.87" y="39.27" width="1" height="4.3"/><rect class="cls-1" x="1.22" y="40.92" width="4.29" height="1"/><rect class="cls-2" x="50.41" y="10.26" width="1" height="4.3" transform="translate(6.14 39.64) rotate(-45)"/><rect class="cls-2" x="48.76" y="11.91" width="4.3" height="1" transform="translate(6.14 39.64) rotate(-45)"/><rect class="cls-2" x="20.1" y="4.8" width="1" height="4.3" transform="translate(1.12 16.61) rotate(-45)"/><rect class="cls-2" x="18.46" y="6.45" width="4.3" height="1" transform="translate(1.12 16.6) rotate(-45)"/><path class="cls-2" d="M60.07,42.64a1.49,1.49,0,0,1-1.25-.82c-.12-.21-.27-.33-.4-.33H58c-.13,0-.28.12-.4.33a1.49,1.49,0,0,1-1.25.82H56a1.48,1.48,0,0,1-1.25-.82c-.13-.21-.28-.33-.4-.33H54c-.12,0-.27.12-.39.33a1.51,1.51,0,0,1-1.26.82h-.38a1.51,1.51,0,0,1-1.26-.82c-.12-.21-.27-.33-.39-.33h-.2v-1h.2a1.49,1.49,0,0,1,1.25.82c.12.2.28.33.4.33h.38c.13,0,.28-.13.4-.33A1.5,1.5,0,0,1,54,40.49h.39a1.51,1.51,0,0,1,1.26.82c.12.2.27.33.39.33h.39c.12,0,.27-.13.39-.33A1.51,1.51,0,0,1,58,40.49h.38a1.51,1.51,0,0,1,1.26.82c.12.2.27.33.39.33Z"/><path class="cls-1" d="M36.13,9.76a2.16,2.16,0,1,1,2.15-2.15A2.15,2.15,0,0,1,36.13,9.76Zm0-3.31a1.16,1.16,0,1,0,1.15,1.16A1.15,1.15,0,0,0,36.13,6.45Z"/><path class="cls-2" d="M4.11,20.34a2.16,2.16,0,1,1,2.16-2.16A2.16,2.16,0,0,1,4.11,20.34Zm0-3.31a1.16,1.16,0,1,0,1.16,1.15A1.16,1.16,0,0,0,4.11,17Z"/><path class="cls-1" d="M11.88,12.73H8V8.87h3.87ZM9,11.73h1.87V9.87H9Z"/><path class="cls-1" d="M59.44,29.36H55.58V25.49h3.86Zm-2.86-1h1.86V26.49H56.58Z"/><circle class="cls-2" cx="28.46" cy="28.03" r="1.7"/><path class="cls-2" d="M12.19,23.77a1.68,1.68,0,0,0,0,2.4,1.7,1.7,0,1,0,0-2.4Z"/><circle class="cls-2" cx="24.01" cy="32.95" r="1.7"/><circle class="cls-2" cx="8.75" cy="36" r="1.7"/><path class="cls-2" d="M11.71,29.45a1.7,1.7,0,1,0,2.4,0A1.7,1.7,0,0,0,11.71,29.45Z"/><path class="cls-2" d="M1.91,29.45a1.68,1.68,0,0,0,0,2.4,1.7,1.7,0,1,0,0-2.4Z"/><circle class="cls-2" cx="24.25" cy="23.28" r="1.7"/><path class="cls-2" d="M17.22,28a1.7,1.7,0,0,0,0,2.4,1.68,1.68,0,0,0,2.4,0,1.7,1.7,0,1,0-2.4-2.4Z"/><path class="cls-3" d="M28.47,30.22a2.2,2.2,0,0,1-1.56-3.75,2.25,2.25,0,0,1,3.11,0,2.2,2.2,0,0,1-1.55,3.75Zm0-3.39a1.2,1.2,0,0,0-.85,2,1.23,1.23,0,0,0,1.69,0,1.2,1.2,0,0,0-.84-2Z"/><path class="cls-3" d="M13.39,27.17a2.2,2.2,0,1,1,1.55-.65A2.2,2.2,0,0,1,13.39,27.17Zm0-3.39a1.16,1.16,0,0,0-.85.35,1.19,1.19,0,0,0,0,1.69,1.21,1.21,0,0,0,1.69,0,1.19,1.19,0,0,0,0-1.69A1.16,1.16,0,0,0,13.39,23.78Z"/><polygon class="cls-3" points="26.77 28.52 22.6 28.52 19.54 25.47 15.08 25.47 15.08 24.47 19.96 24.47 23.01 27.52 26.77 27.52 26.77 28.52"/><path class="cls-3" d="M24,35.14a2.18,2.18,0,0,1-1.55-.64h0a2.2,2.2,0,1,1,3.11,0A2.19,2.19,0,0,1,24,35.14Zm-.84-1.35a1.2,1.2,0,1,0,0-1.69A1.19,1.19,0,0,0,23.17,33.79Z"/><path class="cls-3" d="M8.75,38.19a2.16,2.16,0,0,1-1.55-.64h0a2.2,2.2,0,1,1,1.55.64ZM7.9,36.84a1.2,1.2,0,1,0,1.7-1.69,1.22,1.22,0,0,0-1.7,0A1.21,1.21,0,0,0,7.9,36.84Z"/><polygon class="cls-3" points="15.51 36.5 10.45 36.5 10.45 35.5 15.09 35.5 18.15 32.45 22.32 32.45 22.32 33.45 18.56 33.45 15.51 36.5"/><rect class="cls-3" x="4.8" y="30.15" width="6.41" height="1"/><path class="cls-3" d="M12.91,32.85a2.2,2.2,0,1,1,1.55-.65A2.17,2.17,0,0,1,12.91,32.85Zm0-3.4a1.2,1.2,0,0,0-.85,2.05,1.2,1.2,0,0,0,1.69-1.7A1.18,1.18,0,0,0,12.91,29.45Z"/><path class="cls-3" d="M3.11,32.85a2.2,2.2,0,1,1,1.55-.65A2.2,2.2,0,0,1,3.11,32.85Zm0-3.4A1.2,1.2,0,1,0,4,29.8,1.2,1.2,0,0,0,3.11,29.45Z"/><path class="cls-3" d="M24.25,25.47a2.2,2.2,0,0,1-1.55-3.75h0a2.2,2.2,0,0,1,3.11,3.11A2.19,2.19,0,0,1,24.25,25.47Zm-.84-3a1.2,1.2,0,1,0,1.69,0A1.19,1.19,0,0,0,23.41,22.43Z"/><path class="cls-3" d="M18.42,31.4a2.19,2.19,0,0,1-1.55-3.75,2.2,2.2,0,0,1,3.1,0,2.2,2.2,0,0,1-1.55,3.75Zm0-3.39a1.22,1.22,0,0,0-.85.35,1.19,1.19,0,0,0-.35.84,1.23,1.23,0,0,0,.35.85,1.2,1.2,0,0,0,1.7,0,1.23,1.23,0,0,0,.35-.85,1.19,1.19,0,0,0-.35-.84A1.22,1.22,0,0,0,18.42,28Z"/><rect class="cls-3" x="25.95" y="22.77" width="3.13" height="1"/><path class="cls-1" d="M31.81,23.76v-1h1v1Zm-2,0v-1h1v1Z"/><path class="cls-1" d="M17.51,21.3v-1h1v1Zm-2,0v-1h1v1Z"/><rect class="cls-4" x="6.22" y="24.47" width="3.26" height="1"/><path class="cls-1" d="M29.4,33.44v-1h1v1Zm-2,0v-1h1v1Z"/><path class="cls-1" d="M8.47,28.94v-1h1v1Zm-2,0v-1h1v1Z"/><path class="cls-1" d="M4.13,25.46v-1h1v1Zm-2,0v-1h1v1Z"/><rect class="cls-4" x="8.45" y="20.3" width="5.91" height="1"/><path class="cls-1" d="M18,41.9v-1h1v1Zm-2.3,0v-1h1v1Zm-2.3,0v-1h1v1Zm-2.3,0v-1h1v1Zm-2.3,0v-1h1v1Z"/><rect class="cls-4" x="24.16" y="40.91" width="10.72" height="1"/><path class="cls-1" d="M38.25,40.91l1,0,0,1-.5,0h0l-.5,0Zm2.2-.2,1-.22.22,1-.49.11h0l-.49.11Zm2.13-.58.93-.38.38.93-.93.38Zm2-.93.85-.53.53.84-.85.53Zm1.82-1.27.37-.33h0l.37-.33.67.74-.74.67Z"/><path class="cls-4" d="M49.93,35.41l-.84-.54a12.92,12.92,0,0,0,.61-12.7l.89-.45A13.71,13.71,0,0,1,52.08,28,13.92,13.92,0,0,1,49.93,35.41Z"/><path class="cls-4" d="M47.12,18.67a12.87,12.87,0,0,0-9-3.61H31.73v-1h6.42A13.87,13.87,0,0,1,47.81,18Z"/><path class="cls-1" d="M28.1,15.05v-1h1v1Zm-2.3,0v-1h1v1Zm-2.3,0v-1h1v1Zm-2.3,0v-1h1v1Z"/><polygon class="cls-3" points="34.09 33.38 34.09 32.38 43.96 32.38 43.95 29.55 34.08 27.39 34.08 22.76 44.95 22.75 44.95 23.75 35.08 23.76 35.08 26.59 44.95 28.75 44.96 33.38 34.09 33.38"/><rect class="cls-3" x="37.4" y="19.96" width="1" height="16.21"/><rect class="cls-3" x="40.64" y="19.97" width="1" height="16.21"/><path class="cls-2" d="M43.12,53.56c0,.79-6,1.43-13.31,1.43s-13.3-.64-13.3-1.43,5.95-1.42,13.3-1.42S43.12,52.78,43.12,53.56Z"/></svg>