<svg id="Layer_1" data-name="Layer 1" xmlns="http://www.w3.org/2000/svg" xmlns:xlink="http://www.w3.org/1999/xlink" viewBox="0 0 60 60"><defs><style>.cls-1,.cls-2,.cls-45{fill:none;}.cls-1{clip-rule:evenodd;}.cls-3{clip-path:url(#clip-path);}.cls-4{clip-path:url(#clip-path-2);}.cls-5{fill:#cdf1ef;}.cls-6{clip-path:url(#clip-path-3);}.cls-7{clip-path:url(#clip-path-5);}.cls-8{clip-path:url(#clip-path-7);}.cls-9{clip-path:url(#clip-path-9);}.cls-10{clip-path:url(#clip-path-11);}.cls-11{fill:#fedeb6;}.cls-12{clip-path:url(#clip-path-13);}.cls-13{clip-path:url(#clip-path-15);}.cls-14{clip-path:url(#clip-path-17);}.cls-15,.cls-46{fill:#fff;}.cls-16{clip-path:url(#clip-path-19);}.cls-17{clip-path:url(#clip-path-21);}.cls-18{clip-path:url(#clip-path-23);}.cls-19{clip-path:url(#clip-path-25);}.cls-20{clip-path:url(#clip-path-27);}.cls-21{clip-path:url(#clip-path-29);}.cls-22{clip-path:url(#clip-path-31);}.cls-23{clip-path:url(#clip-path-33);}.cls-24{clip-path:url(#clip-path-35);}.cls-25{clip-path:url(#clip-path-37);}.cls-26{clip-path:url(#clip-path-39);}.cls-27{fill:#fec687;}.cls-28{clip-path:url(#clip-path-41);}.cls-29{clip-path:url(#clip-path-43);}.cls-30{fill:#1db9b2;}.cls-31{clip-path:url(#clip-path-45);}.cls-32{clip-path:url(#clip-path-47);}.cls-33{clip-path:url(#clip-path-49);}.cls-34{clip-path:url(#clip-path-51);}.cls-35{clip-path:url(#clip-path-53);}.cls-36{clip-path:url(#clip-path-55);}.cls-37{clip-path:url(#clip-path-57);}.cls-38{clip-path:url(#clip-path-59);}.cls-39{clip-path:url(#clip-path-61);}.cls-40{clip-path:url(#clip-path-63);}.cls-41{isolation:isolate;}.cls-42{clip-path:url(#clip-path-65);}.cls-43{clip-path:url(#clip-path-66);}.cls-44{clip-path:url(#clip-path-67);}.cls-45{stroke:#fff;stroke-miterlimit:10;stroke-width:0.5px;}.cls-46{font-size:6.3px;font-family:MessinaSansWeb-Bold, MessinaSansWeb;font-weight:700;}.cls-47{clip-path:url(#clip-path-70);}.cls-48{clip-path:url(#clip-path-72);}.cls-49{clip-path:url(#clip-path-74);}.cls-50{clip-path:url(#clip-path-76);}.cls-51{clip-path:url(#clip-path-78);}</style><clipPath id="clip-path"><polygon class="cls-1" points="6.18 25.71 9.74 22.09 8.91 21.25 5.36 24.87 6.18 25.71"/></clipPath><clipPath id="clip-path-2"><rect class="cls-2" x="-1.54" y="1.47" width="62" height="61"/></clipPath><clipPath id="clip-path-3"><polygon class="cls-1" points="8.91 25.71 9.74 24.87 6.18 21.25 5.36 22.09 8.91 25.71"/></clipPath><clipPath id="clip-path-5"><polygon class="cls-1" points="33.62 8.83 30.07 12.45 29.24 11.61 32.8 7.99 33.62 8.83"/></clipPath><clipPath id="clip-path-7"><polygon class="cls-1" points="33.62 11.61 32.8 12.45 29.24 8.83 30.07 7.99 33.62 11.61"/></clipPath><clipPath id="clip-path-9"><path class="cls-1" d="M50.39,42.44a2.57,2.57,0,1,0-2.52-2.57,2.55,2.55,0,0,0,2.52,2.57m0-3.94A1.37,1.37,0,1,1,49,39.87a1.36,1.36,0,0,1,1.35-1.37"/></clipPath><clipPath id="clip-path-11"><polygon class="cls-1" points="26.45 10.84 27.62 10.84 27.63 9.65 26.45 9.65 26.45 10.84"/></clipPath><clipPath id="clip-path-13"><path class="cls-1" d="M13.29,17.11l.77-.87-.81-.81-.83.89Zm1.8-1.77.86-.78-.72-.9-.92.8ZM17,13.79l.5-.25.49-.32-.55-1.05-.5.32.32.5-.32-.5-.47.3Zm2.21-1.2,1.08-.46L19.86,11l-1.1.47Zm2.37-.9,1.08-.36-.28-1.1-1.17.33ZM24,11.05l.56,0,0-.6-.09-.58.09.58-.1-.58-.55.08Z"/></clipPath><clipPath id="clip-path-15"><polygon class="cls-1" points="12.1 18.62 12.42 18.12 11.46 17.45 11.13 17.95 12.1 18.62"/></clipPath><clipPath id="clip-path-17"><path class="cls-1" d="M22.21,49.6h1.17V45.79H16.16v-10H11.55l.32-6.93A15.28,15.28,0,0,1,27,14.08h.59V12.89H27A16.46,16.46,0,0,0,10.7,28.77l-.37,8.17H15V47h7.22Z"/></clipPath><clipPath id="clip-path-19"><rect class="cls-2" x="42.83" y="9.95" width="1.17" height="1.19"/></clipPath><clipPath id="clip-path-21"><rect class="cls-2" x="40.49" y="9.95" width="1.17" height="1.19"/></clipPath><clipPath id="clip-path-23"><rect class="cls-2" x="40.49" y="12.33" width="1.17" height="1.19"/></clipPath><clipPath id="clip-path-25"><rect class="cls-2" x="35.47" y="9.95" width="1.17" height="1.19"/></clipPath><clipPath id="clip-path-27"><rect class="cls-2" x="37.82" y="9.95" width="1.17" height="1.19"/></clipPath><clipPath id="clip-path-29"><rect class="cls-2" x="37.82" y="7.57" width="1.17" height="1.19"/></clipPath><clipPath id="clip-path-31"><rect class="cls-2" x="45.22" y="42.59" width="1.17" height="1.19"/></clipPath><clipPath id="clip-path-33"><rect class="cls-2" x="45.22" y="40.21" width="1.17" height="1.19"/></clipPath><clipPath id="clip-path-35"><rect class="cls-2" x="45.22" y="37.83" width="1.17" height="1.19"/></clipPath><clipPath id="clip-path-37"><rect class="cls-2" x="45.22" y="35.45" width="1.17" height="1.19"/></clipPath><clipPath id="clip-path-39"><rect class="cls-2" x="31.02" y="20.88" width="13.45" height="1.09"/></clipPath><clipPath id="clip-path-41"><rect class="cls-2" x="28.7" y="27.03" width="15.76" height="1.09"/></clipPath><clipPath id="clip-path-43"><rect class="cls-2" x="28.03" y="17.81" width="9.74" height="1.09"/></clipPath><clipPath id="clip-path-45"><rect class="cls-2" x="28.63" y="30.1" width="5.7" height="1.09"/></clipPath><clipPath id="clip-path-47"><rect class="cls-2" x="35.21" y="30.1" width="1.02" height="1.09"/></clipPath><clipPath id="clip-path-49"><rect class="cls-2" x="37.11" y="30.1" width="1.02" height="1.09"/></clipPath><clipPath id="clip-path-51"><rect class="cls-2" x="29.76" y="23.96" width="8.11" height="1.09"/></clipPath><clipPath id="clip-path-53"><rect class="cls-2" x="38.75" y="23.96" width="1.02" height="1.09"/></clipPath><clipPath id="clip-path-55"><rect class="cls-2" x="40.66" y="23.96" width="1.02" height="1.09"/></clipPath><clipPath id="clip-path-57"><rect class="cls-2" x="38.67" y="17.81" width="1.02" height="1.09"/></clipPath><clipPath id="clip-path-59"><path class="cls-1" d="M52.37,24.5a.51.51,0,0,1-.15.36l-7.34,8.08a.56.56,0,0,1-1-.36V27H45v4.12l6-6.65-6-6.65V22H43.91V16.43a.54.54,0,0,1,.36-.51.57.57,0,0,1,.61.14l7.34,8.08a.51.51,0,0,1,.15.36"/></clipPath><clipPath id="clip-path-61"><path class="cls-1" d="M33.45,36.66l.06-.07,1-1.53a.58.58,0,0,1,.43-.27H35a.59.59,0,0,1,.47.21l0,.06,1,1.53a1.29,1.29,0,0,0,1.27.58h.09l1.8-.37a.61.61,0,0,1,.5.12l0,.05a.58.58,0,0,1,.17.48v.06L40,39.31a1.62,1.62,0,0,0,0,.38,1.35,1.35,0,0,0,.52,1.16l.07,0,1.53,1a.63.63,0,0,1,.26.4.61.61,0,0,1-.21.35l0,0-1.53,1A1.33,1.33,0,0,0,40,44.93a1.43,1.43,0,0,0,0,.29v.08l.37,1.81a.58.58,0,0,1-.12.49l0,.06a.6.6,0,0,1-.49.17H39.7l-1.8-.36a1.28,1.28,0,0,0-1.31.49l-.05.07-1,1.53a.6.6,0,0,1-.44.27H35a.57.57,0,0,1-.46-.21l0-.06-1-1.53a1.32,1.32,0,0,0-1.28-.58l-.08,0-1.8.36a.6.6,0,0,1-.5-.12l-.05,0a.64.64,0,0,1-.18-.49v-.06L30,45.3a1.2,1.2,0,0,0,0-.38,1.3,1.3,0,0,0-.51-1.15l-.07-.06-1.53-1a.59.59,0,0,1-.26-.39.57.57,0,0,1,.2-.36l.06,0,1.53-1A1.34,1.34,0,0,0,30,39.68a.88.88,0,0,0,0-.28v-.09l-.37-1.81a.61.61,0,0,1,.12-.49l.05,0a.58.58,0,0,1,.48-.18h.07l1.8.37a1.14,1.14,0,0,0,.26,0A1.27,1.27,0,0,0,33.45,36.66Z"/></clipPath><clipPath id="clip-path-63"><path class="cls-1" d="M33.45,36.66l.06-.07,1-1.53a.58.58,0,0,1,.43-.27H35a.59.59,0,0,1,.47.21l0,.06,1,1.53a1.29,1.29,0,0,0,1.27.58h.09l1.8-.37a.61.61,0,0,1,.5.12l0,.05a.58.58,0,0,1,.17.48v.06L40,39.31a1.62,1.62,0,0,0,0,.38,1.35,1.35,0,0,0,.52,1.16l.07,0,1.53,1a.63.63,0,0,1,.26.4.61.61,0,0,1-.21.35l0,0-1.53,1A1.33,1.33,0,0,0,40,44.93a1.43,1.43,0,0,0,0,.29v.08l.37,1.81a.58.58,0,0,1-.12.49l0,.06a.6.6,0,0,1-.49.17H39.7l-1.8-.36a1.28,1.28,0,0,0-1.31.49l-.05.07-1,1.53a.6.6,0,0,1-.44.27H35a.57.57,0,0,1-.46-.21l0-.06-1-1.53a1.32,1.32,0,0,0-1.28-.58l-.08,0-1.8.36a.6.6,0,0,1-.5-.12l-.05,0a.64.64,0,0,1-.18-.49v-.06L30,45.3a1.2,1.2,0,0,0,0-.38,1.3,1.3,0,0,0-.51-1.15l-.07-.06-1.53-1a.59.59,0,0,1-.26-.39.57.57,0,0,1,.2-.36l.06,0,1.53-1A1.34,1.34,0,0,0,30,39.68a.88.88,0,0,0,0-.28v-.09l-.37-1.81a.61.61,0,0,1,.12-.49l.05,0a.58.58,0,0,1,.48-.18h.07l1.8.37a1.14,1.14,0,0,0,.26,0A1.27,1.27,0,0,0,33.45,36.66ZM35,34.07a1.32,1.32,0,0,0-1.05.52l0,.07-1,1.54a.6.6,0,0,1-.56.27h-.06l-1.8-.37a1.33,1.33,0,0,0-1.13.3l-.06.06a1.31,1.31,0,0,0-.38,1.11l0,.09,0,.21h0l.36,1.81h0a.59.59,0,0,1-.21.35l-.05,0-1.53,1a1.3,1.3,0,0,0-.58,1v.09a.49.49,0,0,0,0,.12v.11a1.35,1.35,0,0,0,.52,1l.07.05,1.53,1a.59.59,0,0,1,.26.39h0a.43.43,0,0,1,0,.16v.06L28.94,47a1.3,1.3,0,0,0,.29,1.14l.07.06a1.33,1.33,0,0,0,1.1.38l.09,0,1.8-.36a.59.59,0,0,1,.59.21l0,0,1,1.54a1.34,1.34,0,0,0,1,.59H35a1.3,1.3,0,0,0,1-.52l0-.07,1-1.54a.64.64,0,0,1,.57-.26h.06l1.79.36a1.31,1.31,0,0,0,1.14-.3l.06-.06a1.3,1.3,0,0,0,.37-1.11V47l0-.21h0l-.37-1.8h0a.63.63,0,0,1,.21-.36l0,0,1.53-1a1.31,1.31,0,0,0,.59-1v-.32a1.32,1.32,0,0,0-.52-1l-.07,0-1.53-1a.63.63,0,0,1-.26-.4h0a.81.81,0,0,1,0-.16v-.06l.37-1.8a1.34,1.34,0,0,0-.3-1.14l-.06-.06a1.34,1.34,0,0,0-1.11-.38l-.08,0-1.8.37a.62.62,0,0,1-.59-.21l0,0-1-1.54a1.34,1.34,0,0,0-1-.59Z"/></clipPath><clipPath id="clip-path-65"><rect class="cls-2" x="21.46" y="28.47" width="27" height="27"/></clipPath><clipPath id="clip-path-66"><rect class="cls-2" x="24.67" y="31.78" width="20.7" height="21.05"/></clipPath><clipPath id="clip-path-67"><rect class="cls-2" x="26.46" y="33.47" width="17" height="18"/></clipPath><clipPath id="clip-path-70"><polygon class="cls-1" points="21.89 28.44 21.89 27.19 25.56 27.19 25.56 25.76 21.89 24.32 21.88 20.79 26.78 20.79 26.78 22.03 23.11 22.03 23.11 23.46 26.78 24.9 26.78 28.43 21.89 28.44"/></clipPath><clipPath id="clip-path-72"><rect class="cls-2" x="23.74" y="27.81" width="1.23" height="2.4"/></clipPath><clipPath id="clip-path-74"><rect class="cls-2" x="23.74" y="19.01" width="1.23" height="2.4"/></clipPath><clipPath id="clip-path-76"><rect class="cls-2" x="23.72" y="16.46" width="1.23" height="1.25"/></clipPath><clipPath id="clip-path-78"><rect class="cls-2" x="23.72" y="31.51" width="1.23" height="1.25"/></clipPath></defs><title>Number Person- On Dark</title><g class="cls-3"><g class="cls-4"><rect class="cls-5" x="0.36" y="16.25" width="14.38" height="14.46"/></g></g><g class="cls-6"><g class="cls-4"><rect class="cls-5" x="0.36" y="16.25" width="14.38" height="14.46"/></g></g><g class="cls-7"><g class="cls-4"><rect class="cls-5" x="24.24" y="2.99" width="14.38" height="14.46"/></g></g><g class="cls-8"><g class="cls-4"><rect class="cls-5" x="24.24" y="2.99" width="14.38" height="14.46"/></g></g><g class="cls-9"><g class="cls-4"><rect class="cls-5" x="42.87" y="32.31" width="15.04" height="15.13"/></g></g><g class="cls-10"><g class="cls-4"><rect class="cls-11" x="21.45" y="4.65" width="11.18" height="11.19"/></g></g><g class="cls-12"><g class="cls-4"><rect class="cls-11" x="7.42" y="4.83" width="22.09" height="17.29"/></g></g><g class="cls-13"><g class="cls-4"><rect class="cls-11" x="6.13" y="12.45" width="11.29" height="11.17"/></g></g><g class="cls-14"><g class="cls-4"><rect class="cls-15" x="5.33" y="7.89" width="27.3" height="46.7"/></g></g><g class="cls-16"><g class="cls-4"><rect class="cls-11" x="37.83" y="4.95" width="11.17" height="11.19"/></g></g><g class="cls-17"><g class="cls-4"><rect class="cls-11" x="35.49" y="4.95" width="11.17" height="11.19"/></g></g><g class="cls-18"><g class="cls-4"><rect class="cls-11" x="35.49" y="7.33" width="11.17" height="11.19"/></g></g><g class="cls-19"><g class="cls-4"><rect class="cls-11" x="30.47" y="4.95" width="11.17" height="11.19"/></g></g><g class="cls-20"><g class="cls-4"><rect class="cls-11" x="32.82" y="4.95" width="11.17" height="11.19"/></g></g><g class="cls-21"><g class="cls-4"><rect class="cls-11" x="32.82" y="2.57" width="11.17" height="11.19"/></g></g><g class="cls-22"><g class="cls-4"><rect class="cls-11" x="40.22" y="37.59" width="11.17" height="11.19"/></g></g><g class="cls-23"><g class="cls-4"><rect class="cls-11" x="40.22" y="35.21" width="11.17" height="11.19"/></g></g><g class="cls-24"><g class="cls-4"><rect class="cls-11" x="40.22" y="32.83" width="11.17" height="11.19"/></g></g><g class="cls-25"><g class="cls-4"><rect class="cls-11" x="40.22" y="30.45" width="11.17" height="11.19"/></g></g><g class="cls-26"><g class="cls-4"><rect class="cls-27" x="26.02" y="15.88" width="23.45" height="11.09"/></g></g><g class="cls-28"><g class="cls-4"><rect class="cls-27" x="23.7" y="22.03" width="25.76" height="11.09"/></g></g><g class="cls-29"><g class="cls-4"><rect class="cls-30" x="23.03" y="12.81" width="19.74" height="11.09"/></g></g><g class="cls-31"><g class="cls-4"><rect class="cls-30" x="23.63" y="25.1" width="15.7" height="11.09"/></g></g><g class="cls-32"><g class="cls-4"><rect class="cls-11" x="30.21" y="25.1" width="11.02" height="11.09"/></g></g><g class="cls-33"><g class="cls-4"><rect class="cls-11" x="32.11" y="25.1" width="11.02" height="11.09"/></g></g><g class="cls-34"><g class="cls-4"><rect class="cls-30" x="24.76" y="18.96" width="18.11" height="11.09"/></g></g><g class="cls-35"><g class="cls-4"><rect class="cls-11" x="33.75" y="18.96" width="11.02" height="11.09"/></g></g><g class="cls-36"><g class="cls-4"><rect class="cls-11" x="35.66" y="18.96" width="11.02" height="11.09"/></g></g><g class="cls-37"><g class="cls-4"><rect class="cls-11" x="33.67" y="12.81" width="11.02" height="11.09"/></g></g><g class="cls-38"><g class="cls-4"><rect class="cls-27" x="38.91" y="10.88" width="18.45" height="27.24"/></g></g><g class="cls-39"><g class="cls-4"><rect class="cls-5" x="22.65" y="29.79" width="24.75" height="25.04"/></g></g><g class="cls-40"><g class="cls-4"><g class="cls-41"><g class="cls-42"><g class="cls-43"><g class="cls-44"><rect class="cls-15" x="19.67" y="26.78" width="30.7" height="31.05"/></g></g><g class="cls-44"><rect class="cls-45" x="24.67" y="31.78" width="20.7" height="21.05"/></g></g></g></g></g><g class="cls-4"><path class="cls-45" d="M35,34.79H35a.58.58,0,0,0-.43.27l-1,1.53-.06.07a1.29,1.29,0,0,1-1.31.5l-1.79-.37h-.07a.58.58,0,0,0-.48.18l-.05,0a.61.61,0,0,0-.12.49L30,39.31l0,.09a1.31,1.31,0,0,1,0,.28,1.34,1.34,0,0,1-.58,1.22l-1.53,1-.06,0a.57.57,0,0,0-.2.36.59.59,0,0,0,.26.39l1.53,1,.07.06A1.3,1.3,0,0,1,30,44.92a1.2,1.2,0,0,1,0,.38l-.37,1.81v.06a.64.64,0,0,0,.18.49l.05,0a.6.6,0,0,0,.5.12l1.79-.37h.09a1.32,1.32,0,0,1,1.28.58l1,1.53,0,.06a.58.58,0,0,0,.46.22h.07a.6.6,0,0,0,.44-.27l1-1.53.05-.07a1.31,1.31,0,0,1,1.31-.5l1.8.37h.06a.6.6,0,0,0,.49-.17l0,0a.61.61,0,0,0,.12-.5l-.36-1.81,0-.08a1.43,1.43,0,0,1,0-.29,1.33,1.33,0,0,1,.59-1.22l1.53-1,0,0a.61.61,0,0,0,.21-.35.63.63,0,0,0-.26-.4l-1.53-1-.07,0A1.35,1.35,0,0,1,40,39.69a1.62,1.62,0,0,1,0-.38l.37-1.81v-.06a.58.58,0,0,0-.17-.48l-.06-.05a.58.58,0,0,0-.49-.12l-1.8.37h-.09a1.29,1.29,0,0,1-1.27-.58l-1-1.53,0-.06A.59.59,0,0,0,35,34.79Zm0-.72h.09a1.34,1.34,0,0,1,1,.59l1,1.54,0,0a.62.62,0,0,0,.59.21l1.8-.37.08,0a1.34,1.34,0,0,1,1.11.38l.06.06a1.34,1.34,0,0,1,.3,1.14l-.37,1.8v.06a1,1,0,0,0,0,.17h0a.63.63,0,0,0,.26.4l1.53,1,.07,0a1.32,1.32,0,0,1,.52,1v.32a1.31,1.31,0,0,1-.59,1l-1.53,1,0,0a.63.63,0,0,0-.21.36h0l.37,1.8h0l0,.21v.09a1.3,1.3,0,0,1-.37,1.11l-.06.06a1.31,1.31,0,0,1-1.14.3l-1.79-.36H37.7a.64.64,0,0,0-.57.26l-1,1.54,0,.07a1.3,1.3,0,0,1-1,.52h-.09a1.34,1.34,0,0,1-1-.59l-1-1.54,0,0a.59.59,0,0,0-.59-.21l-1.8.36-.09,0a1.33,1.33,0,0,1-1.1-.38l-.07-.06A1.3,1.3,0,0,1,28.94,47l.36-1.8V45.1a.43.43,0,0,0,0-.16h0a.59.59,0,0,0-.26-.39l-1.53-1-.07-.05a1.35,1.35,0,0,1-.52-1v-.11a.49.49,0,0,1,0-.12V42.1a1.3,1.3,0,0,1,.58-1l1.53-1,.05,0a.59.59,0,0,0,.21-.35h0l-.36-1.81h0l0-.21,0-.09a1.31,1.31,0,0,1,.38-1.11l.06-.06a1.33,1.33,0,0,1,1.13-.3l1.8.37h.06a.6.6,0,0,0,.56-.27l1-1.54,0-.07A1.32,1.32,0,0,1,35,34.07Z"/><text class="cls-46" transform="translate(32.06 44.14)">1x</text></g><g class="cls-47"><g class="cls-4"><rect class="cls-15" x="16.88" y="15.78" width="14.9" height="17.65"/></g></g><g class="cls-48"><g class="cls-4"><rect class="cls-15" x="18.74" y="22.81" width="11.23" height="12.4"/></g></g><g class="cls-49"><g class="cls-4"><rect class="cls-15" x="18.74" y="14.01" width="11.23" height="12.4"/></g></g><g class="cls-50"><g class="cls-4"><rect class="cls-15" x="18.72" y="11.46" width="11.23" height="11.25"/></g></g><g class="cls-51"><g class="cls-4"><rect class="cls-15" x="18.72" y="26.51" width="11.23" height="11.25"/></g></g></svg>