<svg id="Layer_1" data-name="Layer 1" xmlns="http://www.w3.org/2000/svg" viewBox="0 0 60 60"><defs><style>.cls-1{fill:#fedeb6;}.cls-2{fill:#cdf1ef;}.cls-3{fill:#1db9b2;}.cls-4{fill:#fff;}.cls-5{fill:#fec687;}</style></defs><title>Open Sign- On Dark</title><rect class="cls-1" x="2.25" y="39.18" width="1" height="4.3"/><rect class="cls-1" x="0.6" y="40.83" width="4.29" height="1"/><rect class="cls-2" x="53.44" y="41.33" width="1" height="4.3" transform="translate(-14.94 50.88) rotate(-45)"/><rect class="cls-2" x="51.8" y="42.97" width="4.3" height="1" transform="translate(-14.94 50.88) rotate(-45)"/><rect class="cls-2" x="25.12" y="4.16" width="1" height="4.3" transform="translate(3.04 19.96) rotate(-45)"/><rect class="cls-2" x="23.47" y="5.81" width="4.3" height="1" transform="translate(3.04 19.96) rotate(-45)"/><path class="cls-2" d="M59.85,18.92a1.51,1.51,0,0,1-1.26-.82c-.12-.21-.27-.33-.39-.33h-.39c-.12,0-.27.12-.39.33a1.51,1.51,0,0,1-1.26.82h-.39a1.49,1.49,0,0,1-1.25-.82c-.12-.21-.27-.33-.4-.33h-.38c-.13,0-.28.12-.4.33a1.49,1.49,0,0,1-1.25.82H51.7a1.48,1.48,0,0,1-1.25-.82c-.13-.21-.28-.33-.4-.33h-.19v-1h.19a1.48,1.48,0,0,1,1.26.82c.12.2.27.33.39.33h.39c.12,0,.27-.13.39-.33a1.48,1.48,0,0,1,1.26-.82h.38a1.48,1.48,0,0,1,1.26.82c.12.2.27.33.39.33h.39c.12,0,.27-.13.4-.33a1.46,1.46,0,0,1,1.25-.82h.39a1.47,1.47,0,0,1,1.25.82c.12.2.27.33.4.33Z"/><path class="cls-1" d="M39.86,11.72A2.16,2.16,0,1,1,42,9.57,2.15,2.15,0,0,1,39.86,11.72Zm0-3.31A1.16,1.16,0,1,0,41,9.57,1.15,1.15,0,0,0,39.86,8.41Z"/><path class="cls-2" d="M3.24,29A2.16,2.16,0,1,1,5.39,26.8,2.15,2.15,0,0,1,3.24,29Zm0-3.31A1.16,1.16,0,1,0,4.39,26.8,1.15,1.15,0,0,0,3.24,25.64Z"/><path class="cls-1" d="M10.08,15.44H6.22V11.58h3.86Zm-2.86-1H9.08V12.58H7.22Z"/><path class="cls-1" d="M57.74,32.54H53.87V28.68h3.87Zm-2.87-1h1.87V29.68H54.87Z"/><path class="cls-2" d="M42,53.06c0,.79-6,1.42-13.31,1.42s-13.3-.63-13.3-1.42,6-1.42,13.3-1.42S42,52.28,42,53.06Z"/><rect class="cls-3" x="17.31" y="21.19" width="9.8" height="1" transform="translate(-8.56 17.58) rotate(-36.7)"/><rect class="cls-3" x="35.07" y="16.74" width="1" height="9.85" transform="translate(-3.12 37.07) rotate(-53.06)"/><path class="cls-4" d="M49.86,46H8V26.2H49.86ZM9,45H48.86V27.2H9Z"/><polygon class="cls-2" points="47.02 33.67 46.02 33.67 46.02 32.58 43.48 32.58 43.48 30.03 42.33 30.03 42.33 29.03 44.48 29.03 44.48 31.58 47.02 31.58 47.02 33.67"/><polygon class="cls-2" points="44.48 43.14 42.33 43.14 42.33 42.14 43.48 42.14 43.48 39.6 46.02 39.6 46.02 38.64 47.02 38.64 47.02 40.6 44.48 40.6 44.48 43.14"/><polygon class="cls-2" points="15.05 43.14 13.36 43.14 13.36 40.6 10.81 40.6 10.81 38.47 11.81 38.47 11.81 39.6 14.36 39.6 14.36 42.14 15.05 42.14 15.05 43.14"/><polygon class="cls-2" points="11.81 33.5 10.81 33.5 10.81 31.58 13.36 31.58 13.36 29.03 15.05 29.03 15.05 30.03 14.36 30.03 14.36 32.58 11.81 32.58 11.81 33.5"/><rect class="cls-4" x="10.81" y="29.03" width="1.21" height="1"/><rect class="cls-4" x="45.81" y="29.03" width="1.21" height="1"/><rect class="cls-4" x="10.81" y="42.14" width="1.21" height="1"/><rect class="cls-4" x="45.81" y="42.14" width="1.21" height="1"/><path class="cls-4" d="M22.13,39.67H17.42V32.51h4.71Zm-3.71-1h2.71V33.51H18.42Z"/><path class="cls-4" d="M28.16,36.59H23.45V32.51h4.71Zm-3.71-1h2.71V33.51H24.45Z"/><rect class="cls-4" x="23.45" y="35.59" width="1" height="4.02"/><polygon class="cls-4" points="33.69 39.67 29.48 39.67 29.48 32.51 33.69 32.51 33.69 33.51 30.48 33.51 30.48 38.67 33.69 38.67 33.69 39.67"/><rect class="cls-4" x="29.98" y="35.59" width="2.41" height="1"/><polygon class="cls-4" points="40.41 39.67 39.02 39.67 35.97 33.83 35.97 39.67 34.97 39.67 34.97 32.51 36.41 32.51 39.41 38.25 39.41 32.51 40.41 32.51 40.41 39.67"/><path class="cls-5" d="M28.92,20.7A3.71,3.71,0,1,1,32.63,17,3.72,3.72,0,0,1,28.92,20.7Zm0-6.42A2.71,2.71,0,1,0,31.63,17,2.71,2.71,0,0,0,28.92,14.28Z"/></svg>