<svg id="Layer_1" data-name="Layer 1" xmlns="http://www.w3.org/2000/svg" viewBox="0 0 60 60"><defs><style>.cls-1{fill:#fedeb6;}.cls-2{fill:#cdf1ef;}.cls-3{fill:#9ce3df;}.cls-4{fill:#1db9b2;}.cls-5{fill:#fff;}.cls-6{fill:#fec687;}</style></defs><title>Paper- On Dark</title><rect class="cls-1" x="3.36" y="32.95" width="1" height="4.3"/><rect class="cls-1" x="1.71" y="34.6" width="4.3" height="1"/><rect class="cls-2" x="51.72" y="38.04" width="1" height="4.3" transform="translate(-13.12 48.69) rotate(-45)"/><rect class="cls-2" x="50.07" y="39.69" width="4.3" height="1" transform="translate(-13.12 48.7) rotate(-45)"/><rect class="cls-2" x="22.86" y="4.92" width="1" height="4.3" transform="translate(1.85 18.59) rotate(-45)"/><rect class="cls-2" x="21.21" y="6.56" width="4.3" height="1" transform="translate(1.85 18.59) rotate(-45)"/><path class="cls-1" d="M57.22,34.17A1.51,1.51,0,0,1,56,33.35c-.12-.2-.27-.33-.39-.33h-.39c-.12,0-.28.13-.4.33a1.48,1.48,0,0,1-1.25.82h-.39a1.49,1.49,0,0,1-1.25-.82c-.12-.2-.27-.33-.4-.33h-.38c-.13,0-.28.13-.4.33a1.49,1.49,0,0,1-1.25.82h-.39a1.51,1.51,0,0,1-1.26-.82c-.12-.2-.27-.33-.39-.33h-.19V32h.19a1.51,1.51,0,0,1,1.26.82c.12.21.27.33.39.33h.39c.12,0,.27-.12.39-.33A1.51,1.51,0,0,1,51.11,32h.38a1.51,1.51,0,0,1,1.26.82c.12.21.27.33.39.33h.39c.12,0,.27-.12.39-.33A1.51,1.51,0,0,1,55.18,32h.39a1.5,1.5,0,0,1,1.25.82c.12.21.27.33.4.33Z"/><path class="cls-1" d="M38.88,11.21A2.15,2.15,0,1,1,41,9.06,2.16,2.16,0,0,1,38.88,11.21Zm0-3.3A1.15,1.15,0,1,0,40,9.06,1.15,1.15,0,0,0,38.88,7.91Z"/><path class="cls-2" d="M3.86,24.81A2.16,2.16,0,1,1,6,22.66,2.16,2.16,0,0,1,3.86,24.81Zm0-3.31A1.16,1.16,0,1,0,5,22.66,1.16,1.16,0,0,0,3.86,21.5Z"/><path class="cls-1" d="M12.08,11H8.22V7.13h3.86ZM9.22,10h1.86V8.13H9.22Z"/><path class="cls-3" d="M56.45,24.52H52.59V20.65h3.86Zm-2.86-1h1.86V21.65H53.59Z"/><path class="cls-2" d="M42.77,52.3c0,.78-6,1.42-13.31,1.42s-13.3-.64-13.3-1.42,6-1.42,13.3-1.42S42.77,51.51,42.77,52.3Z"/><path class="cls-3" d="M20.78,44.71s2.58-1.69,2.69-3.83h20a3.65,3.65,0,0,1-3.83,3.83Z"/><polygon class="cls-4" points="47.05 25.87 46.23 25.3 50.08 19.73 46.13 17 46.7 16.18 51.47 19.48 47.05 25.87"/><path class="cls-4" d="M34.31,37.27a.5.5,0,0,1-.5-.57l.47-3.44a.49.49,0,0,1,.29-.39.5.5,0,0,1,.49.05l2.59,1.79a.49.49,0,0,1,.21.43.52.52,0,0,1-.26.42l-3.06,1.65A.46.46,0,0,1,34.31,37.27Zm.85-3.07-.23,1.66,1.48-.8Z"/><path class="cls-5" d="M39.61,45.21h-20a4.34,4.34,0,0,1-4.33-4.33V18.58a3.33,3.33,0,0,0-6.66,0v1.55h5v1h-6V18.58a4.33,4.33,0,0,1,8.66,0v22.3a3.33,3.33,0,1,0,6.66,0v-.5h21v.5A4.34,4.34,0,0,1,39.61,45.21Zm-17.2-1h17.2a3.34,3.34,0,0,0,3.29-2.83h-19A4.34,4.34,0,0,1,22.41,44.21Z"/><path class="cls-5" d="M39.43,24h-1V18.58a3.34,3.34,0,0,0-3.33-3.33H12v-1H35.1a4.34,4.34,0,0,1,4.33,4.33Z"/><rect class="cls-5" x="38.43" y="35.67" width="1" height="5.21"/><polygon class="cls-3" points="22.92 25.26 21.18 23.52 21.89 22.82 22.92 23.85 24.83 21.93 25.54 22.64 22.92 25.26"/><rect class="cls-5" x="26.55" y="23.51" width="7.89" height="1"/><polygon class="cls-5" points="22.92 29.46 21.18 27.73 21.89 27.02 22.92 28.05 24.83 26.14 25.54 26.84 22.92 29.46"/><rect class="cls-3" x="26.55" y="27.72" width="7.89" height="1"/><polygon class="cls-3" points="22.92 33.67 21.18 31.93 21.89 31.22 22.92 32.26 24.83 30.34 25.54 31.05 22.92 33.67"/><rect class="cls-5" x="26.55" y="31.92" width="6.44" height="1"/><path class="cls-6" d="M41.46,29.69a.51.51,0,0,1-.28-.09l-2.59-1.79a.46.46,0,0,1-.2-.32.47.47,0,0,1,.08-.38l8.8-12.65a.51.51,0,0,1,.7-.12l2.58,1.79a.47.47,0,0,1,.21.32.44.44,0,0,1-.08.37L41.87,29.48A.48.48,0,0,1,41.46,29.69Zm-1.89-2.42,1.77,1.22,8.23-11.83-1.76-1.22Z"/><path class="cls-6" d="M37.36,35.62a.47.47,0,0,1-.28-.09l-2.59-1.79a.54.54,0,0,1-.21-.32.56.56,0,0,1,.08-.38l4.11-5.93a.49.49,0,0,1,.69-.12l2.59,1.79a.51.51,0,0,1,.21.32.54.54,0,0,1-.08.37L37.77,35.4A.49.49,0,0,1,37.36,35.62ZM35.47,33.2l1.76,1.22,3.54-5.11L39,28.09Z"/><path class="cls-6" d="M33.71,38.14a.52.52,0,0,1-.29-.09.51.51,0,0,1-.13-.7l.6-.87a.51.51,0,0,1,.7-.12.5.5,0,0,1,.13.69l-.6.87A.52.52,0,0,1,33.71,38.14Z"/></svg>