<svg id="Layer_1" data-name="Layer 1" xmlns="http://www.w3.org/2000/svg" viewBox="0 0 60 60"><defs><style>.cls-1{fill:#fedeb6;}.cls-2{fill:#cdf1ef;}.cls-3{fill:#9ce3df;}.cls-4,.cls-6{fill:none;stroke:#022c48;}.cls-4{stroke-miterlimit:10;}.cls-5{fill:#fec687;}.cls-6{stroke-linecap:round;stroke-linejoin:round;}.cls-7{fill:#022c48;}</style></defs><title>Phone- On Light</title><rect class="cls-1" x="11.12" y="37.9" width="1" height="4.3"/><rect class="cls-1" x="9.47" y="39.55" width="4.3" height="1"/><rect class="cls-2" x="49.48" y="39.99" width="1" height="4.3" transform="translate(-15.15 47.68) rotate(-45)"/><rect class="cls-2" x="47.84" y="41.63" width="4.3" height="1" transform="translate(-15.15 47.69) rotate(-45)"/><rect class="cls-2" x="26.62" y="3.86" width="1" height="4.3" transform="translate(3.7 20.94) rotate(-45)"/><rect class="cls-2" x="24.98" y="5.51" width="4.3" height="1" transform="translate(3.7 20.94) rotate(-45)"/><path class="cls-1" d="M54,35.12a1.51,1.51,0,0,1-1.26-.82c-.12-.21-.27-.33-.39-.33h-.39c-.12,0-.27.12-.39.33a1.51,1.51,0,0,1-1.26.82h-.38a1.51,1.51,0,0,1-1.26-.82c-.12-.21-.27-.33-.4-.33h-.38c-.12,0-.28.12-.4.33a1.48,1.48,0,0,1-1.25.82h-.39a1.49,1.49,0,0,1-1.25-.82c-.12-.21-.28-.33-.4-.33H44V33h.19a1.48,1.48,0,0,1,1.26.82c.12.2.27.33.39.33h.39c.12,0,.27-.13.39-.33A1.48,1.48,0,0,1,47.87,33h.38a1.48,1.48,0,0,1,1.26.82c.12.2.27.33.4.33h.38c.12,0,.28-.13.4-.33A1.47,1.47,0,0,1,51.94,33h.39a1.47,1.47,0,0,1,1.25.82c.12.2.27.33.4.33Z"/><path class="cls-1" d="M40.64,12.16A2.16,2.16,0,1,1,42.79,10,2.16,2.16,0,0,1,40.64,12.16Zm0-3.31A1.16,1.16,0,1,0,41.79,10,1.15,1.15,0,0,0,40.64,8.85Z"/><path class="cls-2" d="M8.62,29.76a2.16,2.16,0,1,1,2.15-2.16A2.16,2.16,0,0,1,8.62,29.76Zm0-3.31A1.16,1.16,0,1,0,9.77,27.6,1.15,1.15,0,0,0,8.62,26.45Z"/><path class="cls-1" d="M16.84,15.94H13V12.07h3.86Zm-2.86-1h1.86V13.07H14Z"/><path class="cls-3" d="M52.21,22.46H48.35V18.6h3.86Zm-2.86-1h1.86V19.6H49.35Z"/><path class="cls-2" d="M43.67,54.24c0,.79-6,1.42-13.3,1.42S17.06,55,17.06,54.24s6-1.42,13.31-1.42S43.67,53.46,43.67,54.24Z"/><rect class="cls-4" x="20.42" y="15.05" width="20.04" height="32.7" rx="4.09"/><path class="cls-5" d="M30.37,45.64A1.67,1.67,0,1,1,32,44,1.67,1.67,0,0,1,30.37,45.64Zm0-2.74A1.07,1.07,0,1,0,31.43,44,1.07,1.07,0,0,0,30.37,42.9Z"/><path class="cls-6" d="M33,18.51h0Z"/><polygon class="cls-3" points="25.55 28.57 23.81 26.83 24.52 26.12 25.55 27.15 27.46 25.24 28.17 25.95 25.55 28.57"/><rect class="cls-7" x="29.18" y="26.82" width="7.89" height="1"/><polygon class="cls-7" points="25.55 32.77 23.81 31.03 24.52 30.33 25.55 31.36 27.46 29.44 28.17 30.15 25.55 32.77"/><rect class="cls-3" x="29.18" y="31.02" width="7.89" height="1"/><polygon class="cls-3" points="25.55 36.98 23.81 35.24 24.52 34.53 25.55 35.56 27.46 33.65 28.17 34.35 25.55 36.98"/><rect class="cls-7" x="29.18" y="35.23" width="6.44" height="1"/></svg>