<svg id="Layer_1" data-name="Layer 1" xmlns="http://www.w3.org/2000/svg" viewBox="0 0 60 60"><defs><style>.cls-1{fill:#fedeb6;}.cls-2{fill:#cdf1ef;}.cls-3{fill:#1db9b2;}.cls-4{fill:#fec687;}.cls-5{fill:#fff;}</style></defs><title>Presents- On Dark</title><rect class="cls-1" x="3.59" y="41.12" width="1" height="4.3"/><rect class="cls-1" x="1.95" y="42.77" width="4.29" height="1"/><rect class="cls-2" x="52.79" y="43.27" width="1" height="4.3" transform="translate(-16.5 50.98) rotate(-45)"/><rect class="cls-2" x="51.14" y="44.91" width="4.3" height="1" transform="translate(-16.5 50.98) rotate(-45)"/><rect class="cls-2" x="26.46" y="3.1" width="1" height="4.3" transform="translate(4.19 20.6) rotate(-45)"/><rect class="cls-2" x="24.82" y="4.75" width="4.3" height="1" transform="translate(4.19 20.6) rotate(-45)"/><path class="cls-2" d="M56.2,20.86A1.51,1.51,0,0,1,54.94,20c-.12-.21-.27-.33-.39-.33h-.39c-.12,0-.28.12-.4.33a1.49,1.49,0,0,1-1.25.82h-.39A1.49,1.49,0,0,1,50.87,20c-.12-.21-.27-.33-.4-.33h-.38c-.13,0-.28.12-.4.33a1.5,1.5,0,0,1-1.25.82h-.39A1.51,1.51,0,0,1,46.79,20c-.12-.21-.27-.33-.39-.33h-.19v-1h.19a1.49,1.49,0,0,1,1.25.82c.13.2.28.33.4.33h.39c.12,0,.27-.13.39-.33a1.51,1.51,0,0,1,1.26-.82h.38a1.51,1.51,0,0,1,1.26.82c.12.2.27.33.39.33h.39c.12,0,.27-.13.39-.33a1.51,1.51,0,0,1,1.26-.82h.39a1.5,1.5,0,0,1,1.25.82c.12.2.27.33.4.33Z"/><path class="cls-1" d="M43.21,10.66a2.16,2.16,0,1,1,2.15-2.15A2.15,2.15,0,0,1,43.21,10.66Zm0-3.31a1.16,1.16,0,1,0,1.15,1.16A1.15,1.15,0,0,0,43.21,7.35Z"/><path class="cls-2" d="M8.59,30.89a2.16,2.16,0,1,1,2.15-2.15A2.16,2.16,0,0,1,8.59,30.89Zm0-3.31a1.16,1.16,0,1,0,1.15,1.16A1.16,1.16,0,0,0,8.59,27.58Z"/><path class="cls-1" d="M11.43,17.38H7.57V13.52h3.86Zm-2.86-1h1.86V14.52H8.57Z"/><path class="cls-1" d="M57.09,34.48H53.22V30.62h3.87Zm-2.87-1h1.87V31.62H54.22Z"/><path class="cls-2" d="M43.37,55c0,.79-6,1.42-13.31,1.42s-13.3-.63-13.3-1.42,6-1.42,13.3-1.42S43.37,54.22,43.37,55Z"/><rect class="cls-2" x="28.78" y="17.29" width="2.95" height="30.12"/><path class="cls-3" d="M29.28,29.88H21.37V20.65h7.91Zm-6.91-1h5.91V21.65H22.37Z"/><path class="cls-3" d="M39.17,29.88H31.25V20.65h7.92Zm-6.92-1h5.92V21.65H32.25Z"/><path class="cls-1" d="M30.31,17.79a.48.48,0,0,1-.42-.23L29.5,17c-.86-1.33-1.83-2.85-1.83-4A2.64,2.64,0,0,1,33,13a6.7,6.7,0,0,1-1.2,2.79c-.3.52-.64,1.12-1,1.79a.47.47,0,0,1-.42.26Zm0-6.48A1.64,1.64,0,0,0,28.67,13c0,.84.88,2.22,1.6,3.36l.61-1.07A6.91,6.91,0,0,0,32,13,1.64,1.64,0,0,0,30.31,11.31Z"/><path class="cls-4" d="M34.16,17.79H30.31a.47.47,0,0,1-.43-.25.5.5,0,0,1,0-.5s1.51-2.56,1.84-3.28a2.52,2.52,0,0,1,2.14-1.26,2.59,2.59,0,0,1,2.43,1.08,3.13,3.13,0,0,1,.09,3A2.38,2.38,0,0,1,34.16,17.79Zm-3-1h3a1.38,1.38,0,0,0,1.34-.7,2.1,2.1,0,0,0,0-2,1.85,1.85,0,0,0-2.82,0C32.4,14.69,31.66,16,31.18,16.79Z"/><path class="cls-4" d="M30.31,17.79H26.46a2.38,2.38,0,0,1-2.22-1.22,3.13,3.13,0,0,1,.09-3,2.59,2.59,0,0,1,2.43-1.08,2.52,2.52,0,0,1,2.14,1.26c.33.72,1.82,3.25,1.84,3.28a.5.5,0,0,1,0,.5A.47.47,0,0,1,30.31,17.79Zm-3.8-4.3a1.54,1.54,0,0,0-1.34.64,2.1,2.1,0,0,0-.05,2,1.38,1.38,0,0,0,1.34.7h3C29,16,28.22,14.69,28,14.17a1.61,1.61,0,0,0-1.31-.67Z"/><path class="cls-4" d="M29.28,36.81H16.94V28.88H29.28Zm-11.34-1H28.28V29.88H17.94Z"/><path class="cls-4" d="M43.59,36.81H31.25V28.88H43.59Zm-11.34-1H42.59V29.88H32.25Z"/><rect class="cls-5" x="28.78" y="46.92" width="2.95" height="1"/><rect class="cls-2" x="16.74" y="41.61" width="0.92" height="1" transform="translate(-24.74 24.49) rotate(-45)"/><rect class="cls-2" x="18.86" y="41.61" width="0.91" height="1" transform="translate(-24.12 25.99) rotate(-45)"/><rect class="cls-2" x="20.99" y="41.61" width="0.92" height="1" transform="translate(-23.5 27.5) rotate(-45)"/><rect class="cls-2" x="23.11" y="41.61" width="0.92" height="1" transform="translate(-22.87 29) rotate(-45)"/><rect class="cls-2" x="25.24" y="41.61" width="0.92" height="1" transform="translate(-22.25 30.5) rotate(-45)"/><rect class="cls-2" x="16.74" y="44.07" width="0.92" height="1" transform="translate(-26.48 25.22) rotate(-45)"/><rect class="cls-2" x="18.86" y="44.07" width="0.91" height="1" transform="translate(-25.86 26.72) rotate(-45)"/><rect class="cls-2" x="20.99" y="44.07" width="0.92" height="1" transform="translate(-25.24 28.22) rotate(-45)"/><rect class="cls-2" x="23.11" y="44.07" width="0.92" height="1" transform="translate(-24.61 29.72) rotate(-45)"/><rect class="cls-2" x="25.24" y="44.07" width="0.92" height="1" transform="translate(-23.99 31.22) rotate(-45)"/><rect class="cls-2" x="34.38" y="41.61" width="0.91" height="1" transform="translate(-19.57 36.97) rotate(-45)"/><rect class="cls-2" x="36.51" y="41.61" width="0.92" height="1" transform="translate(-18.95 38.47) rotate(-45)"/><rect class="cls-2" x="38.63" y="41.61" width="0.92" height="1" transform="translate(-18.33 39.97) rotate(-45)"/><rect class="cls-2" x="40.75" y="41.61" width="0.91" height="1" transform="translate(-17.71 41.48) rotate(-45)"/><rect class="cls-2" x="42.88" y="41.61" width="0.92" height="1" transform="translate(-17.09 42.97) rotate(-45)"/><rect class="cls-2" x="34.38" y="44.07" width="0.91" height="1" transform="translate(-21.31 37.69) rotate(-45)"/><rect class="cls-2" x="36.51" y="44.07" width="0.92" height="1" transform="translate(-20.69 39.19) rotate(-45)"/><rect class="cls-2" x="38.63" y="44.07" width="0.92" height="1" transform="translate(-20.07 40.69) rotate(-45)"/><rect class="cls-2" x="40.75" y="44.07" width="0.91" height="1" transform="translate(-19.45 42.2) rotate(-45)"/><rect class="cls-2" x="42.88" y="44.07" width="0.92" height="1" transform="translate(-18.82 43.7) rotate(-45)"/><polygon class="cls-5" points="32.23 47.42 31.23 47.42 31.23 17.8 29.28 17.8 29.28 47.42 28.28 47.42 28.28 16.8 32.23 16.8 32.23 47.42"/><path class="cls-5" d="M40.18,21.65H31.25V16.79h8.93Zm-7.93-1h6.93V17.79H32.25Z"/><path class="cls-5" d="M29.28,39.64H12.72V35.81H29.28Zm-15.56-1H28.28V36.81H13.72Z"/><path class="cls-5" d="M47.82,39.64H31.25V35.81H47.82Zm-15.57-1H46.82V36.81H32.25Z"/><path class="cls-5" d="M29.28,47.92H13.61V38.64H29.28Zm-14.67-1H28.28V39.64H14.61Z"/><path class="cls-5" d="M46.92,47.92H31.25V38.64H46.92Zm-14.67-1H45.92V39.64H32.25Z"/><path class="cls-5" d="M29.28,21.65H20.36V16.79h8.92Zm-7.92-1h6.92V17.79H21.36Z"/></svg>