<svg id="Layer_1" data-name="Layer 1" xmlns="http://www.w3.org/2000/svg" viewBox="0 0 60 60"><defs><style>.cls-1{fill:#fedeb6;}.cls-2{fill:#cdf1ef;}.cls-3{fill:#1db9b2;}.cls-4{fill:#fff;}.cls-5{fill:#fec687;}</style></defs><title>Shopping Bags- On Dark</title><rect class="cls-1" x="4.36" y="34.98" width="1" height="4.3"/><rect class="cls-1" x="2.71" y="36.63" width="4.3" height="1"/><rect class="cls-2" x="52.72" y="40.07" width="1" height="4.3" transform="translate(-14.27 49.99) rotate(-45)"/><rect class="cls-2" x="51.07" y="41.72" width="4.3" height="1" transform="translate(-14.26 50) rotate(-45)"/><rect class="cls-2" x="21.15" y="5.51" width="1" height="4.3" transform="translate(0.93 17.55) rotate(-45)"/><rect class="cls-2" x="19.5" y="7.16" width="4.3" height="1" transform="translate(0.93 17.55) rotate(-45)"/><path class="cls-1" d="M58.22,36.2A1.51,1.51,0,0,1,57,35.38c-.12-.2-.27-.33-.39-.33h-.39c-.12,0-.28.13-.4.33a1.48,1.48,0,0,1-1.25.82h-.39a1.49,1.49,0,0,1-1.25-.82c-.12-.2-.27-.33-.4-.33h-.38c-.13,0-.28.13-.4.33a1.49,1.49,0,0,1-1.25.82h-.39a1.51,1.51,0,0,1-1.26-.82c-.12-.2-.27-.33-.39-.33h-.19v-1h.19a1.51,1.51,0,0,1,1.26.82c.12.2.27.33.39.33h.39c.12,0,.27-.12.39-.33a1.51,1.51,0,0,1,1.26-.82h.38a1.51,1.51,0,0,1,1.26.82c.12.21.27.33.39.33h.39c.12,0,.27-.12.39-.33a1.51,1.51,0,0,1,1.26-.82h.39a1.5,1.5,0,0,1,1.25.82c.12.21.27.33.4.33Z"/><path class="cls-1" d="M44.29,7.73a2.15,2.15,0,1,1,2.16-2.15A2.15,2.15,0,0,1,44.29,7.73Zm0-3.3a1.15,1.15,0,1,0,1.16,1.15A1.15,1.15,0,0,0,44.29,4.43Z"/><path class="cls-2" d="M4.86,26.84A2.16,2.16,0,1,1,7,24.69,2.16,2.16,0,0,1,4.86,26.84Zm0-3.31A1.16,1.16,0,1,0,6,24.69,1.16,1.16,0,0,0,4.86,23.53Z"/><path class="cls-1" d="M13.08,15H9.22V11.16h3.86Zm-2.86-1h1.86V12.16H10.22Z"/><path class="cls-2" d="M55.45,26.55H51.59V22.68h3.86Zm-2.86-1h1.86V23.68H52.59Z"/><path class="cls-2" d="M43.77,54.33c0,.78-6,1.42-13.31,1.42s-13.3-.64-13.3-1.42,6-1.43,13.3-1.43S43.77,53.54,43.77,54.33Z"/><path class="cls-1" d="M36.77,21.26h-5V17.11h5Zm-4-1h3V18.11h-3Z"/><path class="cls-1" d="M44.67,21.26h-5V18h5Zm-4-1h3V19h-3Z"/><path class="cls-3" d="M40.72,21.26H35.77V15h4.95Zm-3.95-1h2.95V16H36.77Z"/><polygon class="cls-4" points="34.14 47.24 12.62 47.24 12.62 24.22 17.25 24.22 17.25 25.22 13.62 25.22 13.62 46.24 33.14 46.24 33.14 25.22 29.2 25.22 29.2 24.22 34.14 24.22 34.14 47.24"/><rect class="cls-4" x="20.26" y="24.22" width="6.23" height="1"/><path class="cls-4" d="M28.42,27.54h-1V23.13a4,4,0,0,0-8.08,0v4.41h-1V23.13a5,5,0,0,1,10.08,0Z"/><rect class="cls-4" x="17.78" y="27.04" width="2.06" height="1"/><rect class="cls-4" x="26.89" y="27.04" width="2.06" height="1"/><polygon class="cls-5" points="46.45 47.24 35.48 47.24 35.48 46.24 45.45 46.24 45.45 21.26 31.93 21.26 31.93 23.06 30.93 23.06 30.93 20.26 46.45 20.26 46.45 47.24"/><rect class="cls-2" x="14.44" y="15.79" width="1" height="3.63"/><rect class="cls-2" x="13.12" y="17.11" width="3.63" height="1"/><rect class="cls-1" x="28.77" y="12.65" width="1" height="3.63"/><rect class="cls-1" x="27.46" y="13.97" width="3.63" height="1"/><rect class="cls-2" x="45.49" y="13.33" width="1" height="3.63"/><rect class="cls-2" x="44.17" y="14.65" width="3.63" height="1"/></svg>