<svg id="Layer_1" data-name="Layer 1" xmlns="http://www.w3.org/2000/svg" viewBox="0 0 60 60"><defs><style>.cls-1{fill:#fedeb6;}.cls-2{fill:#cdf1ef;}.cls-3{fill:#fff;}.cls-4{fill:#1db9b2;}</style></defs><title>Store- On Dark</title><rect class="cls-1" x="3.17" y="40.81" width="1" height="4.3"/><rect class="cls-1" x="1.52" y="42.45" width="4.29" height="1"/><rect class="cls-2" x="51.37" y="42.95" width="1" height="4.3" transform="translate(-16.7 49.88) rotate(-45)"/><rect class="cls-2" x="49.72" y="44.6" width="4.3" height="1" transform="translate(-16.7 49.88) rotate(-45)"/><rect class="cls-2" x="26.04" y="2.79" width="1" height="4.3" transform="translate(4.28 20.21) rotate(-45)"/><rect class="cls-2" x="24.39" y="4.43" width="4.3" height="1" transform="translate(4.28 20.21) rotate(-45)"/><path class="cls-2" d="M57.77,20.54a1.48,1.48,0,0,1-1.26-.82c-.12-.2-.27-.33-.39-.33h-.39c-.12,0-.27.13-.39.33a1.48,1.48,0,0,1-1.26.82H53.7a1.48,1.48,0,0,1-1.26-.82c-.12-.2-.27-.33-.39-.33h-.39c-.12,0-.27.13-.39.33a1.51,1.51,0,0,1-1.26.82h-.39a1.49,1.49,0,0,1-1.25-.82c-.12-.2-.27-.33-.4-.33h-.19v-1H48a1.51,1.51,0,0,1,1.26.82c.12.21.27.33.39.33H50c.12,0,.27-.12.39-.33a1.51,1.51,0,0,1,1.26-.82h.39a1.49,1.49,0,0,1,1.25.82c.12.21.27.33.4.33h.38c.13,0,.28-.12.4-.33a1.49,1.49,0,0,1,1.25-.82h.39a1.48,1.48,0,0,1,1.25.82c.12.21.28.33.4.33Z"/><path class="cls-1" d="M42.78,10.35a2.16,2.16,0,1,1,2.16-2.16A2.16,2.16,0,0,1,42.78,10.35Zm0-3.31a1.16,1.16,0,1,0,1.16,1.15A1.16,1.16,0,0,0,42.78,7Z"/><path class="cls-2" d="M4.16,30.58a2.16,2.16,0,1,1,2.16-2.16A2.16,2.16,0,0,1,4.16,30.58Zm0-3.31a1.16,1.16,0,1,0,1.16,1.15A1.16,1.16,0,0,0,4.16,27.27Z"/><path class="cls-1" d="M11,17.07H7.14V13.2H11Zm-2.86-1H10V14.2H8.14Z"/><path class="cls-1" d="M55.66,34.17H51.8V30.3h3.86Zm-2.86-1h1.86V31.3H52.8Z"/><path class="cls-2" d="M43.14,54.69c0,.78-6,1.42-13.3,1.42s-13.3-.64-13.3-1.42,5.95-1.42,13.3-1.42S43.14,53.9,43.14,54.69Z"/><path class="cls-3" d="M39.55,14.2H19.36V9.6H39.55Zm-19.19-1H38.55V10.6H20.36Z"/><rect class="cls-4" x="19.57" y="24.53" width="1" height="1.1"/><rect class="cls-4" x="25.9" y="24.53" width="1" height="1.1"/><rect class="cls-4" x="32.22" y="24.53" width="1" height="1.1"/><rect class="cls-4" x="38.55" y="24.53" width="1" height="1.1"/><path class="cls-4" d="M45.37,21.28H13.74a.49.49,0,0,1-.45-.29.51.51,0,0,1,.07-.53l6.12-7.08a.49.49,0,0,1,.38-.18h19.4a.49.49,0,0,1,.38.18l6.11,7.08a.49.49,0,0,1,.08.53A.5.5,0,0,1,45.37,21.28Zm-30.53-1H44.28L39,14.2h-19Z"/><rect class="cls-3" x="12.39" y="42.43" width="32.46" height="1"/><rect class="cls-2" x="46.19" y="42.43" width="1.26" height="1"/><rect class="cls-2" x="48.57" y="42.43" width="1.26" height="1"/><rect class="cls-2" x="9.85" y="42.43" width="1.26" height="1"/><path class="cls-3" d="M42.57,43.43H38.36V31.71l-6.31-.07V43.43H16.55V28.57a.5.5,0,0,1,.5-.5h0a.5.5,0,0,1,.5.5V42.43h13.5V30.63l8.31.09V42.43h2.21V28.57a.5.5,0,0,1,.5-.5h0a.5.5,0,0,1,.5.5Z"/><rect class="cls-2" x="33.09" y="36.74" width="1.08" height="1"/><path class="cls-4" d="M35.89,29.07a3.67,3.67,0,0,1-3.67-3.66h1a2.67,2.67,0,0,0,5.33,0h1A3.67,3.67,0,0,1,35.89,29.07Z"/><path class="cls-4" d="M29.56,29.07a3.66,3.66,0,0,1-3.66-3.66h1a2.66,2.66,0,0,0,5.32,0h1A3.66,3.66,0,0,1,29.56,29.07Z"/><path class="cls-4" d="M23.23,29.07a3.66,3.66,0,0,1-3.66-3.66h1a2.67,2.67,0,0,0,5.33,0h1A3.67,3.67,0,0,1,23.23,29.07Z"/><path class="cls-4" d="M42.21,29.07a3.66,3.66,0,0,1-3.66-3.66h1a2.66,2.66,0,1,0,5.32,0V21.28H14.24v4.13a2.67,2.67,0,0,0,5.33,0h1a3.67,3.67,0,0,1-7.33,0V20.78a.51.51,0,0,1,.5-.5H45.37a.5.5,0,0,1,.5.5v4.63A3.66,3.66,0,0,1,42.21,29.07Z"/><path class="cls-2" d="M27.59,37.39H20.92V30.72h6.67Zm-5.67-1h4.67V31.72H21.92Z"/></svg>