<svg id="Layer_1" data-name="Layer 1" xmlns="http://www.w3.org/2000/svg" viewBox="0 0 60 60"><defs><style>.cls-1{fill:#fedeb6;}.cls-2{fill:#cdf1ef;}.cls-3{fill:#fff;}.cls-4{fill:#fec687;}.cls-5{fill:#1db9b2;}</style></defs><title>Store 2- On Dark</title><rect class="cls-1" x="4.04" y="35.22" width="1" height="4.3"/><rect class="cls-1" x="2.4" y="36.87" width="4.3" height="1"/><rect class="cls-2" x="52.41" y="40.31" width="1" height="4.3" transform="translate(-14.52 49.84) rotate(-45)"/><rect class="cls-2" x="50.76" y="41.95" width="4.3" height="1" transform="translate(-14.52 49.85) rotate(-45)"/><rect class="cls-2" x="23.83" y="3.75" width="1" height="4.3" transform="translate(2.96 18.93) rotate(-45)"/><rect class="cls-2" x="22.19" y="5.39" width="4.3" height="1" transform="translate(2.96 18.93) rotate(-45)"/><path class="cls-1" d="M57.9,36.44a1.48,1.48,0,0,1-1.25-.82c-.12-.21-.28-.33-.4-.33h-.39c-.12,0-.27.12-.39.33a1.51,1.51,0,0,1-1.26.82h-.38a1.51,1.51,0,0,1-1.26-.82c-.12-.21-.27-.33-.39-.33h-.39c-.12,0-.27.12-.39.33a1.51,1.51,0,0,1-1.26.82h-.39a1.5,1.5,0,0,1-1.25-.82c-.12-.21-.27-.33-.4-.33h-.19v-1h.19a1.51,1.51,0,0,1,1.26.82c.12.2.27.33.39.33h.39c.12,0,.27-.13.39-.33a1.52,1.52,0,0,1,1.26-.82h.39a1.49,1.49,0,0,1,1.25.82c.12.2.27.33.4.33h.38c.13,0,.28-.13.4-.33a1.5,1.5,0,0,1,1.25-.82h.39a1.51,1.51,0,0,1,1.26.82c.12.2.27.33.39.33Z"/><path class="cls-1" d="M44,10a2.16,2.16,0,1,1,2.15-2.15A2.16,2.16,0,0,1,44,10Zm0-3.31a1.16,1.16,0,1,0,1.15,1.16A1.16,1.16,0,0,0,44,6.66Z"/><path class="cls-2" d="M4.54,27.08A2.16,2.16,0,1,1,6.7,24.92,2.16,2.16,0,0,1,4.54,27.08Zm0-3.31A1.16,1.16,0,1,0,5.7,24.92,1.16,1.16,0,0,0,4.54,23.77Z"/><path class="cls-1" d="M12.77,15.26H8.9V11.39h3.87Zm-2.87-1h1.87V12.39H9.9Z"/><path class="cls-2" d="M55.14,26.78H51.27V22.92h3.87Zm-2.87-1h1.87V23.92H52.27Z"/><path class="cls-2" d="M43.45,54.56c0,.79-6,1.42-13.3,1.42s-13.31-.63-13.31-1.42,6-1.42,13.31-1.42S43.45,53.78,43.45,54.56Z"/><path class="cls-3" d="M39.86,18.24H19.66V13.65h20.2Zm-19.2-1h18.2V14.65H20.66Z"/><rect class="cls-4" x="19.88" y="28.57" width="1" height="1.1"/><rect class="cls-4" x="26.2" y="28.57" width="1" height="1.1"/><rect class="cls-4" x="32.53" y="28.57" width="1" height="1.1"/><rect class="cls-4" x="38.86" y="28.57" width="1" height="1.1"/><path class="cls-5" d="M45.68,25.32H14.05A.49.49,0,0,1,13.6,25a.51.51,0,0,1,.07-.53l6.12-7.08a.49.49,0,0,1,.37-.18H39.57a.51.51,0,0,1,.38.18l6.11,7.08a.49.49,0,0,1,.08.53A.5.5,0,0,1,45.68,25.32Zm-30.54-1H44.59l-5.25-6.08h-19Z"/><rect class="cls-3" x="12.7" y="46.47" width="32.46" height="1"/><rect class="cls-2" x="46.5" y="46.47" width="1.26" height="1"/><rect class="cls-2" x="48.88" y="46.47" width="1.26" height="1"/><rect class="cls-2" x="10.16" y="46.47" width="1.26" height="1"/><path class="cls-3" d="M42.88,47.47H38.67V35.75l-6.31-.07V47.47H16.86V32.61a.5.5,0,0,1,.5-.5h0a.51.51,0,0,1,.5.5V46.47h13.5V34.67l8.31.09V46.47h2.21V32.61a.5.5,0,0,1,.5-.5h0a.51.51,0,0,1,.5.5Z"/><rect class="cls-2" x="19.56" y="43.55" width="1" height="1.56" transform="translate(-25.47 27.17) rotate(-45)"/><rect class="cls-2" x="19.7" y="43.18" width="1" height="2.59" transform="translate(-25.53 27.31) rotate(-45)"/><rect class="cls-2" x="21.16" y="40.66" width="1" height="4.71" transform="translate(-24.07 27.91) rotate(-44.99)"/><rect class="cls-2" x="33.4" y="40.78" width="1.08" height="1"/><path class="cls-4" d="M36.19,33.11a3.66,3.66,0,0,1-3.66-3.66h1a2.67,2.67,0,0,0,5.33,0h1A3.67,3.67,0,0,1,36.19,33.11Z"/><path class="cls-4" d="M29.87,33.11a3.67,3.67,0,0,1-3.67-3.66h1a2.67,2.67,0,0,0,5.33,0h1A3.66,3.66,0,0,1,29.87,33.11Z"/><path class="cls-4" d="M23.54,33.11a3.66,3.66,0,0,1-3.66-3.66h1a2.66,2.66,0,1,0,5.32,0h1A3.66,3.66,0,0,1,23.54,33.11Z"/><path class="cls-4" d="M42.52,33.11a3.66,3.66,0,0,1-3.66-3.66h1a2.66,2.66,0,1,0,5.32,0V25.32H14.55v4.13a2.67,2.67,0,0,0,5.33,0h1a3.67,3.67,0,0,1-7.33,0V24.82a.51.51,0,0,1,.5-.5H45.68a.5.5,0,0,1,.5.5v4.63A3.66,3.66,0,0,1,42.52,33.11Z"/></svg>