<svg id="Layer_1" data-name="Layer 1" xmlns="http://www.w3.org/2000/svg" viewBox="0 0 60 60"><defs><style>.cls-1{fill:#fedeb6;}.cls-2{fill:#cdf1ef;}.cls-3{fill:#fff;}.cls-4{fill:#1db9b2;}.cls-5{fill:#fec687;}</style></defs><title>Tag- On Dark</title><rect class="cls-1" x="3.48" y="39.19" width="1" height="4.3"/><rect class="cls-1" x="1.84" y="40.84" width="4.29" height="1"/><rect class="cls-2" x="51.68" y="41.34" width="1" height="4.3" transform="translate(-15.46 49.63) rotate(-45)"/><rect class="cls-2" x="50.03" y="42.98" width="4.3" height="1" transform="translate(-15.46 49.63) rotate(-45)"/><rect class="cls-2" x="25.35" y="4.17" width="1" height="4.3" transform="translate(3.1 20.13) rotate(-45)"/><rect class="cls-2" x="23.7" y="5.82" width="4.3" height="1" transform="translate(3.1 20.13) rotate(-45)"/><path class="cls-2" d="M58.08,18.93a1.5,1.5,0,0,1-1.25-.82c-.12-.21-.27-.33-.4-.33h-.38c-.13,0-.28.12-.4.33a1.49,1.49,0,0,1-1.25.82H54a1.49,1.49,0,0,1-1.25-.82c-.13-.21-.28-.33-.4-.33H52c-.12,0-.27.12-.39.33a1.51,1.51,0,0,1-1.26.82h-.38a1.51,1.51,0,0,1-1.26-.82c-.12-.21-.27-.33-.39-.33h-.2v-1h.2a1.49,1.49,0,0,1,1.25.82c.12.2.27.33.4.33h.38c.13,0,.28-.13.4-.33A1.5,1.5,0,0,1,52,16.78h.39a1.51,1.51,0,0,1,1.26.82c.12.2.27.33.39.33h.39c.12,0,.27-.13.39-.33a1.51,1.51,0,0,1,1.26-.82h.38a1.51,1.51,0,0,1,1.26.82c.12.2.27.33.39.33Z"/><path class="cls-1" d="M42.1,8.73a2.16,2.16,0,1,1,2.15-2.15A2.16,2.16,0,0,1,42.1,8.73Zm0-3.31a1.16,1.16,0,1,0,1.15,1.16A1.16,1.16,0,0,0,42.1,5.42Z"/><path class="cls-2" d="M3.48,29a2.16,2.16,0,1,1,2.15-2.15A2.16,2.16,0,0,1,3.48,29Zm0-3.31a1.16,1.16,0,1,0,1.15,1.16A1.16,1.16,0,0,0,3.48,25.65Z"/><path class="cls-1" d="M9.32,12.45H5.45V8.59H9.32Zm-2.87-1H8.32V9.59H6.45Z"/><path class="cls-1" d="M56,32.55H52.11V28.69H56Zm-2.86-1H55V29.69H53.11Z"/><path class="cls-2" d="M42.26,53.07c0,.79-6,1.42-13.31,1.42s-13.3-.63-13.3-1.42,6-1.42,13.3-1.42S42.26,52.29,42.26,53.07Z"/><polygon class="cls-2" points="32.36 23.86 33.1 27.66 34.36 31.33 31.44 33.88 28.89 36.8 25.22 35.54 21.41 34.8 20.67 30.99 19.41 27.32 22.34 24.78 24.88 21.85 28.55 23.11 32.36 23.86"/><polygon class="cls-3" points="39.57 33.69 38.86 32.98 42.92 28.93 43.16 22 33.88 12.73 26.95 12.96 19.77 20.15 19.06 19.44 26.52 11.97 34.28 11.71 44.17 21.6 43.91 29.36 39.57 33.69"/><path class="cls-3" d="M26.34,45.6a3.16,3.16,0,0,1-2.26-.94L11.22,31.8a3.14,3.14,0,0,1-.94-2.26,3.17,3.17,0,0,1,.94-2.26l4.12-4.12.7.71L11.92,28a2.2,2.2,0,0,0-.64,1.55,2.22,2.22,0,0,0,.64,1.56L24.78,44a2.22,2.22,0,0,0,3.11,0L36.77,35l.71.71L28.6,44.66A3.16,3.16,0,0,1,26.34,45.6Z"/><path class="cls-3" d="M29.05,37.39l-4-1.37L21,35.23l-.81-4.14-1.35-3.92L22,24.4l2.72-3.13,4,1.37,4.07.79.81,4.14,1.35,3.92-3.18,2.77Zm-7.21-3,3.48.68,3.41,1.17,2.33-2.67,2.72-2.37-1.15-3.36-.7-3.54-3.47-.68L25,22.43l-2.33,2.68L20,27.48l1.15,3.35Z"/><path class="cls-3" d="M26.25,27.73a1.5,1.5,0,1,1,1.06-.44A1.53,1.53,0,0,1,26.25,27.73Zm0-2a.49.49,0,0,0-.35.15.49.49,0,1,0,.7,0A.49.49,0,0,0,26.25,25.74Z"/><path class="cls-3" d="M27.52,33.91a1.44,1.44,0,0,1-1.05-.44,1.48,1.48,0,0,1,0-2.11,1.49,1.49,0,0,1,2.11,2.11A1.47,1.47,0,0,1,27.52,33.91Zm0-2a.49.49,0,0,0-.35.14.49.49,0,1,0,.7,0A.47.47,0,0,0,27.52,31.93Z"/><rect class="cls-3" x="22.59" y="28.83" width="8.6" height="1" transform="translate(-12.27 22.29) rotate(-37.3)"/><rect class="cls-4" x="35.16" y="41.57" width="1" height="3.92"/><rect class="cls-4" x="38.72" y="29.33" width="1" height="9.37"/><rect class="cls-4" x="38.72" y="39.73" width="1" height="0.91"/><rect class="cls-4" x="42.52" y="36.81" width="1" height="3.86"/><rect class="cls-1" x="42.52" y="41.7" width="1" height="0.91"/><rect class="cls-4" x="42.52" y="43.62" width="1" height="0.91"/><rect class="cls-4" x="19.86" y="8.26" width="1" height="3.92"/><rect class="cls-1" x="19.86" y="13.2" width="1" height="0.91"/><rect class="cls-4" x="15.19" y="16.45" width="1" height="9.37"/><rect class="cls-4" x="15.19" y="14.51" width="1" height="0.91"/><rect class="cls-4" x="10.28" y="14.15" width="1" height="3.86"/><rect class="cls-4" x="10.28" y="19.03" width="1" height="0.91"/><rect class="cls-1" x="10.28" y="20.95" width="1" height="0.91"/><path class="cls-5" d="M35.72,22.84a2.68,2.68,0,1,1,1.89-.78A2.7,2.7,0,0,1,35.72,22.84Zm0-4.36a1.69,1.69,0,1,0,1.19.5A1.68,1.68,0,0,0,35.72,18.48Z"/><path class="cls-5" d="M46.44,24.05l-.7-.7a4.42,4.42,0,0,0-6.25-6.25L37.61,19l-.7-.71,1.87-1.88a5.42,5.42,0,1,1,7.66,7.66Z"/></svg>