<svg id="Layer_1" data-name="Layer 1" xmlns="http://www.w3.org/2000/svg" viewBox="0 0 60 60"><defs><style>.cls-1{fill:#fedeb6;}.cls-2{fill:#cdf1ef;}.cls-3{fill:#022c48;}.cls-4{fill:#ffc882;}.cls-5{fill:#09b9b3;}</style></defs><title>Worldwide- On Light</title><rect class="cls-1" x="8.03" y="35.85" width="1" height="4.3"/><rect class="cls-1" x="6.38" y="37.49" width="4.29" height="1"/><rect class="cls-2" x="51.58" y="14.83" width="1" height="4.3" transform="translate(3.25 41.8) rotate(-45.01)"/><rect class="cls-2" x="49.93" y="16.48" width="4.3" height="1" transform="translate(3.24 41.79) rotate(-45)"/><rect class="cls-2" x="25.27" y="2.37" width="1" height="4.3" transform="translate(4.35 19.55) rotate(-45)"/><rect class="cls-2" x="23.62" y="4.02" width="4.3" height="1" transform="translate(4.35 19.55) rotate(-45)"/><path class="cls-2" d="M58.24,41.21A1.51,1.51,0,0,1,57,40.39c-.12-.21-.27-.33-.39-.33H56.2c-.12,0-.27.12-.39.33a1.51,1.51,0,0,1-1.26.82h-.39a1.49,1.49,0,0,1-1.25-.82c-.12-.2-.27-.33-.4-.33h-.38c-.12,0-.28.13-.4.33a1.49,1.49,0,0,1-1.25.82h-.39a1.48,1.48,0,0,1-1.25-.82c-.12-.2-.28-.33-.4-.33h-.19v-1h.19a1.51,1.51,0,0,1,1.26.82c.12.2.27.33.39.33h.39c.12,0,.27-.13.39-.33a1.51,1.51,0,0,1,1.26-.82h.38a1.51,1.51,0,0,1,1.26.82c.12.2.27.33.39.33h.39c.12,0,.28-.13.4-.33a1.48,1.48,0,0,1,1.25-.82h.39a1.49,1.49,0,0,1,1.25.82c.12.2.27.33.4.33Z"/><path class="cls-1" d="M42.29,7.33a2.16,2.16,0,1,1,2.16-2.15A2.16,2.16,0,0,1,42.29,7.33Zm0-3.31a1.16,1.16,0,1,0,1.16,1.16A1.16,1.16,0,0,0,42.29,4Z"/><path class="cls-2" d="M5.28,26.91a2.16,2.16,0,1,1,2.15-2.16A2.16,2.16,0,0,1,5.28,26.91Zm0-3.31a1.16,1.16,0,1,0,1.15,1.15A1.16,1.16,0,0,0,5.28,23.6Z"/><path class="cls-1" d="M14,11.3H10.18V7.44H14Zm-2.86-1H13V8.44H11.18Z"/><path class="cls-1" d="M55.6,31.93H51.74V28.06H55.6Zm-2.86-1H54.6V29.06H52.74Z"/><path class="cls-3" d="M30,43.48A14.71,14.71,0,1,1,44.7,28.78,14.71,14.71,0,0,1,30,43.48Zm0-28.41A13.71,13.71,0,1,0,43.7,28.78,13.72,13.72,0,0,0,30,15.07Z"/><path class="cls-3" d="M30,43.48c-4.63,0-8.39-6.59-8.39-14.7S25.36,14.07,30,14.07s8.4,6.6,8.4,14.71S34.62,43.48,30,43.48Zm0-28.41c-4.07,0-7.39,6.15-7.39,13.71s3.32,13.7,7.39,13.7,7.4-6.15,7.4-13.7S34.07,15.07,30,15.07Z"/><rect class="cls-3" x="29.49" y="35.35" width="1" height="7.63"/><rect class="cls-3" x="29.49" y="14.57" width="1" height="7.63"/><path class="cls-3" d="M19.21,38.17l-.49-.87A24,24,0,0,1,30,34.85,24.26,24.26,0,0,1,41.2,37.26l-.49.88A23.07,23.07,0,0,0,30,35.85,23.11,23.11,0,0,0,19.21,38.17Z"/><path class="cls-3" d="M30,22.7a24.21,24.21,0,0,1-11.2-2.41l.48-.87A23.23,23.23,0,0,0,30,21.7a23,23,0,0,0,10.79-2.32l.48.88A24.11,24.11,0,0,1,30,22.7Z"/><rect class="cls-3" x="15.79" y="28.28" width="6.31" height="1"/><rect class="cls-3" x="37.89" y="28.28" width="6.31" height="1"/><path class="cls-4" d="M37,46.3l-.38-.92a17.85,17.85,0,0,0,7.84-6.47,17.43,17.43,0,0,0,1.65-3,18.33,18.33,0,0,0,1-3.35l1,.2A19.1,19.1,0,0,1,47,36.27a19,19,0,0,1-4,6,19.08,19.08,0,0,1-2.78,2.3A18.79,18.79,0,0,1,37,46.3Z"/><polygon class="cls-4" points="38.67 47.45 35.72 46.32 36.85 43.37 37.78 43.73 37.01 45.74 39.02 46.51 38.67 47.45"/><path class="cls-1" d="M47.36,27.08h0l-.05-.5,1-.11.11,1-1,.12Zm-.4-2.2h0l-.11-.49,1-.23.23,1-1,.23Zm-.66-2.13-.18-.47.94-.36.35.94-.93.35Zm-.93-2-.23-.44L46,19.8l.47.88-.88.47Zm-1.17-1.9-.29-.4.82-.58.29.41h0l.28.41-.81.58Zm-1.4-1.74h0l-.33-.36L43.2,16l.33.37h0l.34.37-.74.67Zm-1.62-1.55h0l-.38-.32.64-.76.38.32h0l.38.32-.64.77ZM39.4,14.18,39,13.91l.54-.84.84.55-.55.84Zm-1.95-1.1L37,12.86l.44-.9.45.22h0l.45.22-.44.9Zm-2.07-.85-.47-.16.32-1,.47.16h0l.47.16-.32,1Zm-2.16-.59h0l-.49-.1.2-1,1,.2-.2,1Z"/><path class="cls-4" d="M12.21,25.11l-1-.2a19.24,19.24,0,0,1,1.1-3.53,19,19,0,0,1,1.74-3.2,18.64,18.64,0,0,1,2.3-2.79,18.05,18.05,0,0,1,2.79-2.3,18.7,18.7,0,0,1,3.2-1.74l.39.92a17.43,17.43,0,0,0-3,1.65,17.68,17.68,0,0,0-2.64,2.18,17.29,17.29,0,0,0-2.18,2.64,18.12,18.12,0,0,0-1.65,3A17.68,17.68,0,0,0,12.21,25.11Z"/><polygon class="cls-4" points="22.46 14.28 21.53 13.92 22.3 11.91 20.29 11.14 20.65 10.2 23.59 11.33 22.46 14.28"/><path class="cls-1" d="M25.88,47h0l-.5-.1.2-1,1,.2-.21,1Zm-2.28-.62-.47-.16.32-.94.48.16h0l.48.16-.32,1Zm-2.18-.89L21,45.25l.44-.9.45.22h0l.45.21-.44.91ZM19.37,44.3h0L19,44l.54-.83.84.55-.55.83Zm-1.9-1.42h0l-.38-.33.65-.76.38.32h0l.38.33-.64.76Zm-1.69-1.63h0l-.33-.37.73-.68.34.37h0l.34.37-.74.68Zm-1.49-1.84L14,39l.82-.57.58.81-.82.58Zm-1.24-2L12.82,37l.88-.47.23.44h0l.24.44-.88.48Zm-1-2.14h0l-.18-.47.94-.36.18.47h0l.18.47-.94.35ZM11.37,33h0l-.12-.48,1-.24.24,1-1,.24ZM11,30.68h0l-.06-.5,1-.11.11,1-1,.11Z"/><rect class="cls-5" x="34.74" y="28.28" width="1" height="1"/><rect class="cls-5" x="24.18" y="28.28" width="1" height="1"/><polygon class="cls-3" points="26.46 32.2 26.46 31.2 32.46 31.2 32.46 29.84 26.46 28.52 26.46 25.35 33.46 25.35 33.46 26.35 27.46 26.35 27.46 27.72 33.46 29.03 33.46 32.2 26.46 32.2"/><rect class="cls-3" x="28.48" y="23.85" width="1" height="9.85"/><rect class="cls-3" x="30.44" y="23.85" width="1" height="9.85"/><path class="cls-2" d="M42.78,56c0,.79-6,1.43-13.3,1.43S16.17,56.78,16.17,56s6-1.42,13.31-1.42S42.78,55.21,42.78,56Z"/></svg>