<svg xmlns="http://www.w3.org/2000/svg" viewBox="0 0 3189 3110"><title>Illustration_Animation5</title><g id="_5" data-name="5"><path d="M2447.57,1174.94q-5.8-15.84-12.18-31.41" fill="none" stroke="#09b9b3" stroke-miterlimit="10" stroke-width="6"/><path d="M2142.23,759a936.06,936.06,0,0,1,191.69,199.84" fill="none" stroke="#09b9b3" stroke-miterlimit="10" stroke-width="6"/><path d="M1936.9,638.79A925.54,925.54,0,0,1,2023.61,681" fill="none" stroke="#09b9b3" stroke-miterlimit="10" stroke-width="6"/><path d="M1687.92,572.35A922.9,922.9,0,0,1,1907,626.73" fill="none" stroke="#09b9b3" stroke-miterlimit="10" stroke-width="6"/><path d="M2352.14,985.51a927.09,927.09,0,0,1,70.51,128.36" fill="none" stroke="#09b9b3" stroke-miterlimit="10" stroke-width="6"/><path d="M2455.78,1198.24a925,925,0,0,1,43.13,196.89" fill="none" stroke="#09b9b3" stroke-miterlimit="10" stroke-width="6"/><path d="M896.73,2132.13q9.9,10.55,20.13,20.77a928.8,928.8,0,0,0,408.31,238.59" fill="none" stroke="#09b9b3" stroke-miterlimit="10" stroke-width="6"/><path d="M761.54,1947.34q-6.72-12-13.07-24.3" fill="none" stroke="#09b9b3" stroke-miterlimit="10" stroke-width="6"/><path d="M652.88,1620.78q-2.37-17.62-4.08-35.45" fill="none" stroke="#09b9b3" stroke-miterlimit="10" stroke-width="6"/><path d="M656.65,1646.07A923.18,923.18,0,0,0,741,1908.35" fill="none" stroke="#09b9b3" stroke-miterlimit="10" stroke-width="6"/><path d="M769.7,1961.67a932.09,932.09,0,0,0,109.72,151.54" fill="none" stroke="#09b9b3" stroke-miterlimit="10" stroke-width="6"/><path d="M1349.9,2398a922.67,922.67,0,0,0,101.88,19.27" fill="none" stroke="#09b9b3" stroke-miterlimit="10" stroke-width="6"/><line x1="537.89" y1="1322.18" x2="446.82" y2="1307.01" fill="none" stroke="#01244a" stroke-miterlimit="10" stroke-width="6"/><line x1="544.54" y1="1286.11" x2="454.04" y2="1267.77" fill="none" stroke="#09b9b3" stroke-miterlimit="10" stroke-width="6"/><line x1="552.43" y1="1250.29" x2="462.63" y2="1228.8" fill="none" stroke="#01244a" stroke-miterlimit="10" stroke-width="6"/><line x1="561.58" y1="1214.77" x2="472.58" y2="1190.16" fill="none" stroke="#09b9b3" stroke-miterlimit="10" stroke-width="6"/><line x1="571.97" y1="1179.59" x2="483.89" y2="1151.89" fill="none" stroke="#01244a" stroke-miterlimit="10" stroke-width="6"/><line x1="583.59" y1="1144.8" x2="496.53" y2="1114.04" fill="none" stroke="#09b9b3" stroke-miterlimit="10" stroke-width="6"/><line x1="596.44" y1="1110.45" x2="510.5" y2="1076.67" fill="none" stroke="#01244a" stroke-miterlimit="10" stroke-width="6"/><line x1="610.48" y1="1076.56" x2="525.78" y2="1039.8" fill="none" stroke="#09b9b3" stroke-miterlimit="10" stroke-width="6"/><line x1="625.7" y1="1043.19" x2="542.32" y2="1003.5" fill="none" stroke="#01244a" stroke-miterlimit="10" stroke-width="6"/><line x1="642.07" y1="1010.38" x2="560.15" y2="967.81" fill="none" stroke="#09b9b3" stroke-miterlimit="10" stroke-width="6"/><line x1="659.59" y1="978.17" x2="579.21" y2="932.77" fill="none" stroke="#01244a" stroke-miterlimit="10" stroke-width="6"/><line x1="678.23" y1="946.58" x2="599.48" y2="898.4" fill="none" stroke="#09b9b3" stroke-miterlimit="10" stroke-width="6"/><line x1="697.95" y1="915.67" x2="620.93" y2="864.78" fill="none" stroke="#01244a" stroke-miterlimit="10" stroke-width="6"/><line x1="718.73" y1="885.47" x2="643.54" y2="831.93" fill="none" stroke="#09b9b3" stroke-miterlimit="10" stroke-width="6"/><path d="M724.18,877.9q-2.75,3.77-5.45,7.57-10.65,14.91-20.78,30.2t-19.72,30.91q-9.6,15.62-18.64,31.59t-17.52,32.21q-8.46,16.23-16.37,32.81t-15.22,33.37q-7.32,16.8-14,33.89t-12.85,34.35q-6.11,17.25-11.62,34.79t-10.39,35.18q-4.87,17.64-9.15,35.52t-7.89,35.82q-3.64,17.92-6.65,36.07-1.32,8-2.52,16A20,20,0,0,1,512.88,1355L461,1347.86A20,20,0,0,1,444,1325.07q1.35-9.06,2.85-18.06,3.27-19.74,7.22-39.24t8.59-39q4.63-19.45,9.95-38.64t11.31-38.27q6-19.08,12.64-37.85t14-37.37q7.3-18.58,15.28-36.87t16.54-36.3q8.61-18,17.83-35.69t19.06-35Q589,915.4,599.48,898.4t21.45-33.62q11-16.64,22.61-32.85,3.75-5.27,7.57-10.48a20,20,0,0,1,28.74-3.77l40.72,33A20,20,0,0,1,724.18,877.9Z" fill="none" stroke="#09b9b3" stroke-miterlimit="10" stroke-width="6"/><line x1="2702.1" y1="1682.72" x2="2611.02" y2="1667.55" fill="none" stroke="#09b9b3" stroke-miterlimit="10" stroke-width="6"/><line x1="2694.91" y1="1721.97" x2="2604.43" y2="1703.63" fill="none" stroke="#01244a" stroke-miterlimit="10" stroke-width="6"/><line x1="2686.36" y1="1760.95" x2="2596.57" y2="1739.46" fill="none" stroke="#09b9b3" stroke-miterlimit="10" stroke-width="6"/><line x1="2676.44" y1="1799.61" x2="2587.45" y2="1775" fill="none" stroke="#01244a" stroke-miterlimit="10" stroke-width="6"/><line x1="2665.17" y1="1837.89" x2="2577.1" y2="1810.19" fill="none" stroke="#09b9b3" stroke-miterlimit="10" stroke-width="6"/><line x1="2652.56" y1="1875.76" x2="2565.5" y2="1845" fill="none" stroke="#01244a" stroke-miterlimit="10" stroke-width="6"/><line x1="2638.63" y1="1913.16" x2="2552.69" y2="1879.38" fill="none" stroke="#09b9b3" stroke-miterlimit="10" stroke-width="6"/><line x1="2623.38" y1="1950.04" x2="2538.68" y2="1913.28" fill="none" stroke="#01244a" stroke-miterlimit="10" stroke-width="6"/><line x1="2606.84" y1="1986.37" x2="2523.48" y2="1946.69" fill="none" stroke="#09b9b3" stroke-miterlimit="10" stroke-width="6"/><line x1="2589.05" y1="2022.1" x2="2507.13" y2="1979.53" fill="none" stroke="#01244a" stroke-miterlimit="10" stroke-width="6"/><line x1="2570.02" y1="2057.18" x2="2489.63" y2="2011.78" fill="none" stroke="#09b9b3" stroke-miterlimit="10" stroke-width="6"/><polyline points="2549.76 2091.57 2471.01 2043.4 2471 2043.4" fill="none" stroke="#01244a" stroke-miterlimit="10" stroke-width="6"/><line x1="2528.32" y1="2125.24" x2="2451.29" y2="2074.34" fill="none" stroke="#09b9b3" stroke-miterlimit="10" stroke-width="6"/><line x1="2505.71" y1="2158.14" x2="2430.52" y2="2104.59" fill="none" stroke="#01244a" stroke-miterlimit="10" stroke-width="6"/><line x1="2481.98" y1="2190.24" x2="2408.7" y2="2134.1" fill="none" stroke="#09b9b3" stroke-miterlimit="10" stroke-width="6"/><line x1="2457.14" y1="2221.48" x2="2385.87" y2="2162.82" fill="none" stroke="#01244a" stroke-miterlimit="10" stroke-width="6"/><path d="M2703.1,1676.53q-.49,3.1-1,6.19-3.25,19.74-7.19,39.25t-8.55,39q-4.62,19.47-9.92,38.66t-11.27,38.28q-6,19.08-12.61,37.87t-13.93,37.4q-7.31,18.6-15.25,36.88t-16.54,36.33q-8.58,18-17.79,35.73t-19,35.08q-9.83,17.38-20.26,34.39t-21.44,33.67q-11,16.66-22.61,32.9t-23.73,32.1q-12.15,15.84-24.84,31.24-2.15,2.63-4.34,5.25a20,20,0,0,1-28,2.77l-40.65-32.89a20,20,0,0,1-2.78-28.37q2.25-2.7,4.49-5.42,11.66-14.15,22.83-28.72t21.82-29.51q10.65-14.92,20.77-30.25T2471,2043.4h0q9.59-15.63,18.62-31.62t17.5-32.25q8.46-16.25,16.35-32.84t15.2-33.41q7.31-16.8,14-33.9T2565.5,1845q6.11-17.26,11.6-34.81t10.35-35.19q4.88-17.64,9.12-35.54t7.86-35.83q3.62-17.92,6.59-36.08c.26-1.51.51-3,.75-4.54a20,20,0,0,1,22.47-16.62l51.82,7.11A20,20,0,0,1,2703.1,1676.53Z" fill="none" stroke="#09b9b3" stroke-miterlimit="10" stroke-width="6"/><line x1="2255.16" y1="2413.6" x2="2200.2" y2="2339.44" fill="none" stroke="#01244a" stroke-miterlimit="10" stroke-width="6"/><line x1="2222.7" y1="2436.85" x2="2170.36" y2="2360.81" fill="none" stroke="#09b9b3" stroke-miterlimit="10" stroke-width="6"/><line x1="2189.45" y1="2458.95" x2="2139.79" y2="2381.12" fill="none" stroke="#01244a" stroke-miterlimit="10" stroke-width="6"/><line x1="2155.44" y1="2479.88" x2="2108.52" y2="2400.36" fill="none" stroke="#09b9b3" stroke-miterlimit="10" stroke-width="6"/><line x1="2120.72" y1="2499.6" x2="2076.6" y2="2418.5" fill="none" stroke="#01244a" stroke-miterlimit="10" stroke-width="6"/><line x1="2085.33" y1="2518.1" x2="2044.07" y2="2435.5" fill="none" stroke="#09b9b3" stroke-miterlimit="10" stroke-width="6"/><line x1="2049.31" y1="2535.35" x2="2010.95" y2="2451.36" fill="none" stroke="#01244a" stroke-miterlimit="10" stroke-width="6"/><line x1="2012.7" y1="2551.32" x2="1977.3" y2="2466.04" fill="none" stroke="#09b9b3" stroke-miterlimit="10" stroke-width="6"/><line x1="1975.55" y1="2565.99" x2="1943.15" y2="2479.52" fill="none" stroke="#01244a" stroke-miterlimit="10" stroke-width="6"/><line x1="1937.92" y1="2579.36" x2="1908.55" y2="2491.81" fill="none" stroke="#09b9b3" stroke-miterlimit="10" stroke-width="6"/><line x1="1899.82" y1="2591.38" x2="1873.53" y2="2502.87" fill="none" stroke="#01244a" stroke-miterlimit="10" stroke-width="6"/><line x1="1861.34" y1="2602.06" x2="1838.15" y2="2512.68" fill="none" stroke="#09b9b3" stroke-miterlimit="10" stroke-width="6"/><line x1="1822.49" y1="2611.37" x2="1802.44" y2="2521.25" fill="none" stroke="#01244a" stroke-miterlimit="10" stroke-width="6"/><line x1="1783.35" y1="2619.33" x2="1766.46" y2="2528.55" fill="none" stroke="#09b9b3" stroke-miterlimit="10" stroke-width="6"/><line x1="1743.95" y1="2625.89" x2="1730.24" y2="2534.59" fill="none" stroke="#01244a" stroke-miterlimit="10" stroke-width="6"/><path d="M2270.81,2401.78q-7.77,6-15.65,11.82-16,11.92-32.46,23.25t-33.25,22.1q-16.8,10.75-34,20.93t-34.72,19.72q-17.5,9.57-35.39,18.5t-36,17.25q-18.13,8.31-36.61,16T1975.55,2566q-18.66,7-37.63,13.37t-38.1,12q-19.09,5.69-38.48,10.68t-38.85,9.31q-19.44,4.32-39.14,8t-39.4,6.56q-8.79,1.32-17.64,2.49a19.84,19.84,0,0,1-22.24-16.53l-6.83-42.81V2569l-1.46-9.16a19.7,19.7,0,0,1-.16-5h0a19.82,19.82,0,0,1,17.15-17.73q8.76-1.16,17.48-2.45,18.21-2.7,36.22-6t36-7.3q18-4,35.71-8.57t35.38-9.81q17.64-5.22,35-11.06t34.6-12.29q17.22-6.44,34.15-13.48t33.65-14.68q16.72-7.64,33.12-15.86t32.53-17q16.14-8.79,31.92-18.14t31.27-19.24q15.48-9.88,30.57-20.31t29.84-21.37q6.28-4.66,12.5-9.42a19.79,19.79,0,0,1,27.14,3l34,40.26A19.83,19.83,0,0,1,2270.81,2401.78Z" fill="none" stroke="#09b9b3" stroke-miterlimit="10" stroke-width="6"/></g><g id="Background"><rect width="3189" height="3110" fill="none"/></g></svg>