<svg xmlns="http://www.w3.org/2000/svg" viewBox="0 0 3189 3110"><title>Illustration_Animation4</title><g id="_4" data-name="4"><polyline points="2277.47 2187.73 2414.71 2324.95 2540.47 2450.72" fill="none" stroke="#09b9b3" stroke-miterlimit="10" stroke-width="6"/><path d="M1578,302.22c329.06.28,626.94,133.76,842.62,349.47,211.49,211.45,343.92,502.65,349.3,824.07a20,20,0,0,1-20,20.36H2429.33a20,20,0,0,0-20,19.58c-5.12,222-97.16,422.28-243.42,568.66-146.42,146.56-347.49,238.81-569.81,243.94a20,20,0,0,0-19.58,20V2834a20,20,0,0,0,20.36,20c366.77-5.39,697.15-156.11,938.51-397.23" fill="none" stroke="#09b9b3" stroke-miterlimit="10" stroke-width="6"/><polyline points="620.58 530.82 746.39 656.63 883.66 793.92" fill="none" stroke="#09b9b3" stroke-miterlimit="10" stroke-width="6"/><path d="M613.9,535.22l.62-.62C855.75,293.32,1187.29,142.4,1554,136.79a20,20,0,0,1,20.37,20l.48,232.89.54,253.6a20,20,0,0,1-19.58,20A832.78,832.78,0,0,0,985.7,906.69c-146.57,146.42-238.83,347.56-244,569.89a20,20,0,0,1-20,19.58H236" fill="none" stroke="#09b9b3" stroke-miterlimit="10" stroke-width="6"/><path d="M216.54,1495.7c.09,367.61,146,701,383.24,945.48a20,20,0,0,0,28.53.24l37.75-37.75,54.63-54.62" fill="none" stroke="#09b9b3" stroke-miterlimit="10" stroke-width="6"/><circle cx="620.58" cy="529.24" r="18.09" fill="#fff" stroke="#ef442e" stroke-miterlimit="10" stroke-width="6"/><circle cx="217.61" cy="1496.81" r="18.09" transform="translate(-994.67 592.28) rotate(-45)" fill="#fff" stroke="#ef442e" stroke-miterlimit="10" stroke-width="6"/><circle cx="2546.78" cy="2456.12" r="18.09" fill="#fff" stroke="#ef442e" stroke-miterlimit="10" stroke-width="6"/></g><g id="Background"><rect width="3189" height="3110" fill="none"/></g></svg>