<svg xmlns="http://www.w3.org/2000/svg" viewBox="0 0 3189 3110"><title>Illustration_Animation6</title><g id="_6" data-name="6"><path d="M476.4,1496.16c.21,302.91,123.09,577.11,321.61,775.64,198.7,198.73,473.21,321.62,776.4,321.62h2.13" fill="none" stroke="#01244a" stroke-miterlimit="10" stroke-width="6"/><line x1="1729.13" y1="2430.57" x2="1718.63" y2="2364.25" fill="none" stroke="#01244a" stroke-miterlimit="10" stroke-width="6"/><line x1="1873.78" y1="2395.52" x2="1853.03" y2="2331.66" fill="none" stroke="#01244a" stroke-miterlimit="10" stroke-width="6"/><line x1="2011.15" y1="2338.28" x2="1980.67" y2="2278.45" fill="none" stroke="#01244a" stroke-miterlimit="10" stroke-width="6"/><line x1="2137.88" y1="2260.25" x2="2098.42" y2="2205.92" fill="none" stroke="#01244a" stroke-miterlimit="10" stroke-width="6"/><line x1="2250.85" y1="2163.35" x2="2203.37" y2="2115.87" fill="none" stroke="#01244a" stroke-miterlimit="10" stroke-width="6"/><line x1="2347.26" y1="2049.98" x2="2292.94" y2="2010.51" fill="none" stroke="#01244a" stroke-miterlimit="10" stroke-width="6"/><line x1="2424.76" y1="1922.92" x2="2364.93" y2="1892.44" fill="none" stroke="#01244a" stroke-miterlimit="10" stroke-width="6"/><line x1="2481.42" y1="1785.3" x2="2417.56" y2="1764.56" fill="none" stroke="#01244a" stroke-miterlimit="10" stroke-width="6"/><line x1="2515.86" y1="1640.52" x2="2449.54" y2="1630.01" fill="none" stroke="#01244a" stroke-miterlimit="10" stroke-width="6"/><line x1="1428.45" y1="557.68" x2="1438.95" y2="624" fill="none" stroke="#01244a" stroke-miterlimit="10" stroke-width="6"/><line x1="1283.81" y1="592.73" x2="1304.56" y2="656.59" fill="none" stroke="#01244a" stroke-miterlimit="10" stroke-width="6"/><line x1="1146.43" y1="649.98" x2="1176.91" y2="709.8" fill="none" stroke="#01244a" stroke-miterlimit="10" stroke-width="6"/><line x1="1019.7" y1="728" x2="1059.17" y2="782.33" fill="none" stroke="#01244a" stroke-miterlimit="10" stroke-width="6"/><line x1="906.74" y1="824.9" x2="954.22" y2="872.38" fill="none" stroke="#01244a" stroke-miterlimit="10" stroke-width="6"/><line x1="810.32" y1="938.27" x2="864.64" y2="977.74" fill="none" stroke="#01244a" stroke-miterlimit="10" stroke-width="6"/><line x1="732.83" y1="1065.33" x2="792.65" y2="1095.81" fill="none" stroke="#01244a" stroke-miterlimit="10" stroke-width="6"/><line x1="676.16" y1="1202.95" x2="740.02" y2="1223.7" fill="none" stroke="#01244a" stroke-miterlimit="10" stroke-width="6"/><line x1="641.72" y1="1347.73" x2="708.04" y2="1358.24" fill="none" stroke="#01244a" stroke-miterlimit="10" stroke-width="6"/><path d="M2500.93,622.21q-13.55-14.44-27.56-28.44c-152.93-153-344.61-267.17-559-326.66" fill="none" stroke="#01244a" stroke-miterlimit="10" stroke-width="6"/><path d="M1880.48,258.22A1263.26,1263.26,0,0,0,1741,231.84" fill="none" stroke="#01244a" stroke-miterlimit="10" stroke-width="6"/></g><g id="Background"><rect width="3189" height="3110" fill="none"/></g></svg>