<svg xmlns="http://www.w3.org/2000/svg" viewBox="0 0 3189 3110"><title>Illustration_Animation8</title><g id="_8" data-name="8"><path d="M721.12,642.11q-4.42,4.42-8.8,8.88" fill="none" stroke="#09b9b3" stroke-linejoin="round" stroke-width="6"/><path d="M695,669c-203.19,216-327.69,506.85-327.69,826.8,0,333.2,135,634.86,353.34,853.26s520.21,353.66,853.58,353.66c324.43,0,619-128,835.84-336.28" fill="none" stroke="#09b9b3" stroke-linejoin="round" stroke-width="6" stroke-dasharray="24.95 24.95"/><path d="M2419.07,2357.75q4.46-4.38,8.88-8.8" fill="none" stroke="#09b9b3" stroke-linejoin="round" stroke-width="6"/><path d="M803.37,713.62c198.26-195.61,470.57-316.3,771-316.3h1.05c302.8.28,576.91,123.11,775.38,321.62,198.74,198.69,321.62,473.21,321.62,776.43v.76" fill="none" stroke="#09b9b3" stroke-miterlimit="10" stroke-width="6" stroke-dasharray="25.08 25.08"/><path d="M2801.25,1025c.05.11.1.24.15.36,121.35,304.13,126.63,654.53-12.86,979.14l-.13.3" fill="none" stroke="#09b9b3" stroke-miterlimit="10" stroke-width="6" stroke-dasharray="25.08 25.08"/><path d="M2763.84,1009.07a28.92,28.92,0,0,1,4.43-28.59l-20.14-51.66a1.32,1.32,0,0,1,0-.93l6.27-16.6a1.32,1.32,0,0,1,1.69-.79l.21.1,20.23,11.94a1.32,1.32,0,0,1,.53,1.7l-4,9,9,4a1.32,1.32,0,0,1,.71,1.73l0,0-4,9,9,4a1.32,1.32,0,0,1,.73.73l6.72,17.25a29,29,0,1,1-31.47,39.12Zm2.46-1a26.38,26.38,0,1,0,27.83-35.76,1.32,1.32,0,0,1-1-.83l-6.75-17.32-9.77-4.29a1.32,1.32,0,0,1-.71-1.73l0,0,4-9-9-4a1.32,1.32,0,0,1-.71-1.73l0,0,4-9.13-17.87-10.55-5.51,14.58L2771,980.14a1.32,1.32,0,0,1-.23,1.33,26.39,26.39,0,0,0-4.44,26.64Zm19.33,2.38a9.23,9.23,0,1,1,12,5.25A9.25,9.25,0,0,1,2785.64,1010.48Zm2.46-1a6.6,6.6,0,1,0,3.75-8.54A6.58,6.58,0,0,0,2788.09,1009.53Z" stroke="#01244a" stroke-miterlimit="10" stroke-width="3"/><path d="M2797.59,1985.49a9.24,9.24,0,1,0,5.25,12A9.25,9.25,0,0,0,2797.59,1985.49Zm2.79,11a6.6,6.6,0,1,1-3.75-8.54A6.57,6.57,0,0,1,2800.38,1996.49Zm-2.79-11a9.24,9.24,0,1,0,5.25,12A9.25,9.25,0,0,0,2797.59,1985.49Zm2.79,11a6.6,6.6,0,1,1-3.75-8.54A6.57,6.57,0,0,1,2800.38,1996.49Zm1-20.83a28.95,28.95,0,0,0-33.14,45.08l-20.14,51.67a1.27,1.27,0,0,0,0,.92l6.27,16.6a1.33,1.33,0,0,0,1.69.8l.21-.1,20.23-11.94a1.32,1.32,0,0,0,.53-1.69l-4-9,9-4a1.31,1.31,0,0,0,.7-1.72s0,0,0,0l-4-9,9-4a1.29,1.29,0,0,0,.72-.73l6.73-17.25a28.95,28.95,0,0,0,6.1-55.62Zm14,36.62a26.42,26.42,0,0,1-21.34,16.59,1.32,1.32,0,0,0-1,.84l-6.75,17.32-9.77,4.29a1.31,1.31,0,0,0-.7,1.73s0,0,0,0l4,9-9,4a1.31,1.31,0,0,0-.7,1.72.05.05,0,0,0,0,0l4,9.13-17.87,10.56-5.51-14.58,20.21-51.86a1.34,1.34,0,0,0-.23-1.33,26.39,26.39,0,1,1,44.73-7.47Zm-17.88-26.79a9.24,9.24,0,1,0,5.25,12A9.25,9.25,0,0,0,2797.59,1985.49Zm2.79,11a6.6,6.6,0,1,1-3.75-8.54A6.57,6.57,0,0,1,2800.38,1996.49Z" fill="#fff" stroke="#01244a" stroke-miterlimit="10" stroke-width="3"/><path d="M2800.46,1978.11a26.39,26.39,0,0,0-29.72,41.64,1.34,1.34,0,0,1,.23,1.33l-20.21,51.86,5.51,14.58,17.87-10.56-4-9.13a.05.05,0,0,1,0,0,1.31,1.31,0,0,1,.7-1.72l9-4-4-9s0,0,0,0a1.31,1.31,0,0,1,.7-1.73l9.77-4.29,6.75-17.32a1.32,1.32,0,0,1,1-.84,26.38,26.38,0,0,0,6.33-50.76Zm2.38,19.34a9.24,9.24,0,1,1-5.25-12A9.27,9.27,0,0,1,2802.84,1997.45Z" fill="#fff" stroke="#01244a" stroke-miterlimit="10" stroke-width="3"/></g><g id="Background"><rect width="3189" height="3110" fill="none"/></g></svg>