<svg xmlns="http://www.w3.org/2000/svg" viewBox="0 0 3189 3110"><title>Illustration_Animation1</title><g id="_1" data-name="1"><polyline points="1491.24 1500.38 1491.24 1601.26 1548.4 1601.26 1548.4 1534.79 1597.21 1534.79 1597.21 1601.26 1655.47 1601.26 1655.47 1500.38" fill="none" stroke="#01244a" stroke-miterlimit="10" stroke-width="6" fill-rule="evenodd"/><polyline points="1687.72 1503.88 1573.25 1389.4 1458.86 1503.79 1263.47 1503.79" fill="none" stroke="#01244a" stroke-miterlimit="10" stroke-width="6" fill-rule="evenodd"/><polyline points="1645.59 1437.61 1645.59 1398.98 1607.13 1398.98 1607.13 1186.94" fill="none" stroke="#01244a" stroke-miterlimit="10" stroke-width="6" fill-rule="evenodd"/><line x1="1655.47" y1="1601.26" x2="1781.41" y2="1727.2" fill="none" stroke="#01244a" stroke-miterlimit="10" stroke-width="6"/><path d="M1501.94,1673.51a192.94,192.94,0,0,0,194.41-29.58" fill="none" stroke="#01244a" stroke-miterlimit="10" stroke-width="6"/><path d="M1609.48,1305.36a192.8,192.8,0,0,1,150.7,138.71" fill="none" stroke="#01244a" stroke-miterlimit="10" stroke-width="6"/><path d="M1381.69,1502c-.15-3.34-.14-4.77-.12-8.15a191.8,191.8,0,0,1,35.69-110.71" fill="none" stroke="#01244a" stroke-miterlimit="10" stroke-width="6"/><circle cx="1417.25" cy="1382.83" r="7.51" fill="#09b9b3"/><circle cx="1499.09" cy="1671.45" r="7.51" fill="#09b9b3"/><circle cx="1760.21" cy="1443.91" r="7.51" fill="#09b9b3"/><path d="M1586.37,1717.39h-.24a225.76,225.76,0,0,1-24.94,0l.29-5a220.8,220.8,0,0,0,24.39,0h.24Zm24.78-2.74-.82-4.93a217.43,217.43,0,0,0,23.77-5.36l1.37,4.81A222.71,222.71,0,0,1,1611.15,1714.65Zm-74.75-.12a221.55,221.55,0,0,1-24.31-5.6l1.4-4.8a216.72,216.72,0,0,0,23.76,5.48ZM1659,1701l-1.91-4.62a216.78,216.78,0,0,0,22-10.55l2.41,4.38A221.93,221.93,0,0,1,1659,1701Zm-170.44-.36a222.5,222.5,0,0,1-22.43-10.9l2.43-4.37a217.68,217.68,0,0,0,21.93,10.65Zm214-23.68-2.89-4.08a173.68,173.68,0,0,0,17-13.43l3.33,3.73A178.46,178.46,0,0,1,1702.62,1676.94ZM1352,1506V1506a203.35,203.35,0,0,1,.18-23.62l5,.29a198.36,198.36,0,0,0-.18,23.06Zm436.58-46.74a217.64,217.64,0,0,0-5.35-23.77l4.81-1.37a222.7,222.7,0,0,1,5.48,24.32Zm-428.65-.87-4.93-.84a221.23,221.23,0,0,1,5.59-24.31l4.8,1.4A216.25,216.25,0,0,0,1360,1458.42Zm415.31-45.91a216.84,216.84,0,0,0-10.54-22l4.38-2.41a221.81,221.81,0,0,1,10.78,22.48Zm-401.72-.83-4.61-1.93a222.92,222.92,0,0,1,10.89-22.44l4.37,2.43A217.57,217.57,0,0,0,1373.54,1411.68Zm378.24-41.79a218.82,218.82,0,0,0-15.18-19.07l3.73-3.33a223.66,223.66,0,0,1,15.53,19.51Zm-354.56-.74-4.07-2.91a224.28,224.28,0,0,1,15.6-19.45l3.72,3.34A219.1,219.1,0,0,0,1397.22,1369.14Zm322.17-35.6a219.59,219.59,0,0,0-19-15.25l2.9-4.07a224.25,224.25,0,0,1,19.46,15.59Zm-39.63-28.27a217.64,217.64,0,0,0-21.93-10.64l1.93-4.61a222.45,222.45,0,0,1,22.44,10.89Zm-44.92-18.75a267.86,267.86,0,0,0-26.44-5.95l.84-4.93a273.06,273.06,0,0,1,27,6.07Z" fill="#09b9b3"/><circle cx="1790.86" cy="1468.14" r="11.36" fill="#fff" stroke="#ef442e" stroke-miterlimit="10" stroke-width="6"/><circle cx="1418.69" cy="1339.43" r="11.36" fill="#fff" stroke="#ef442e" stroke-miterlimit="10" stroke-width="6"/><circle cx="1458.14" cy="1680.36" r="11.36" fill="#fff" stroke="#ef442e" stroke-miterlimit="10" stroke-width="6"/><path d="M1574.37,1806.33a311,311,0,1,1,219.88-91.08A309.94,309.94,0,0,1,1574.37,1806.33Z" fill="none" stroke="#01244a" stroke-miterlimit="10" stroke-width="6"/></g><g id="Background"><rect width="3189" height="3110" fill="none"/></g></svg>