<svg xmlns="http://www.w3.org/2000/svg" viewBox="0 0 3189 3110"><title>Illustration_Animation2</title><g id="_2" data-name="2"><line x1="1384.77" y1="1740.82" x2="1381.24" y2="1744.36" fill="none" stroke="#01244a" stroke-miterlimit="10" stroke-width="6"/><polyline points="1374.04 1751.56 1317.27 1808.32 1262.51 1863.08" fill="none" stroke="#01244a" stroke-miterlimit="10" stroke-width="6" stroke-dasharray="10.18 10.18"/><line x1="1258.91" y1="1866.68" x2="1255.38" y2="1870.21" fill="none" stroke="#01244a" stroke-miterlimit="10" stroke-width="6"/><line x1="1897.15" y1="1122.87" x2="1893.62" y2="1126.42" fill="none" stroke="#01244a" stroke-miterlimit="10" stroke-width="6"/><polyline points="1886.53 1133.54 1830.59 1189.71 1776.63 1243.9" fill="none" stroke="#01244a" stroke-miterlimit="10" stroke-width="6" stroke-dasharray="10.05 10.05"/><line x1="1773.08" y1="1247.47" x2="1769.55" y2="1251.01" fill="none" stroke="#01244a" stroke-miterlimit="10" stroke-width="6"/><circle cx="1574.26" cy="2188.73" r="18.09" fill="#fff" stroke="#ef442e" stroke-miterlimit="10" stroke-width="6"/><circle cx="1574.26" cy="796.13" r="18.09" fill="#fff" stroke="#ef442e" stroke-miterlimit="10" stroke-width="6"/><circle cx="1574.26" cy="796.13" r="42.21" fill="none" stroke="#09b9b3" stroke-miterlimit="10" stroke-width="6" stroke-dasharray="10.2 10.2"/><circle cx="1574.26" cy="2189.67" r="42.21" fill="none" stroke="#09b9b3" stroke-miterlimit="10" stroke-width="6" stroke-dasharray="10.2 10.2"/><path d="M1412.32,1077.29l-11.6-29.81a12,12,0,0,0-15.85-6.71,493,493,0,0,0-1.48,909.44,12,12,0,0,0,15.88-6.7l11.57-29.73a12,12,0,0,1,15.19-7,438.68,438.68,0,0,0,296.59,0,12,12,0,0,1,15.19,7l11.56,29.71a12,12,0,0,0,15.88,6.69,493,493,0,0,0-1.47-909.31,12,12,0,0,0-15.85,6.71l-11.6,29.8a12,12,0,0,1-15.15,7,438.75,438.75,0,0,0-293.73,0A12,12,0,0,1,1412.32,1077.29Z" fill="none" stroke="#01244a" stroke-linecap="round" stroke-linejoin="round" stroke-width="6"/><line x1="1485.73" y1="868.69" x2="1513.09" y2="1061.49" fill="none" stroke="#09b9b3" stroke-miterlimit="10" stroke-width="6"/><line x1="1636.25" y1="1929.23" x2="1663.07" y2="2118.24" fill="none" stroke="#09b9b3" stroke-miterlimit="10" stroke-width="6"/><line x1="1663.07" y1="868.69" x2="1635.71" y2="1061.49" fill="none" stroke="#09b9b3" stroke-miterlimit="10" stroke-width="6"/><line x1="1512.56" y1="1929.23" x2="1485.73" y2="2118.24" fill="none" stroke="#09b9b3" stroke-miterlimit="10" stroke-width="6"/><circle cx="1665.5" cy="2136.02" r="18.09" fill="#fff" stroke="#01244a" stroke-miterlimit="10" stroke-width="6"/><circle cx="1483.03" cy="2136.02" r="18.09" fill="#fff" stroke="#01244a" stroke-miterlimit="10" stroke-width="6"/><circle cx="1665.5" cy="848.85" r="18.09" fill="#fff" stroke="#01244a" stroke-miterlimit="10" stroke-width="6"/><circle cx="1483.03" cy="848.85" r="18.09" fill="#fff" stroke="#01244a" stroke-miterlimit="10" stroke-width="6"/><path d="M1289.94,1254.93q10.08-11.92,21.12-23a371.27,371.27,0,0,1,263.36-109.09" fill="none" stroke="#01244a" stroke-miterlimit="10" stroke-width="6"/><polygon points="1602.18 1122.87 1587.4 1114.33 1572.61 1105.8 1572.61 1122.87 1572.61 1139.94 1587.4 1131.4 1602.18 1122.87" fill="none" stroke="#09b9b3" stroke-linecap="round" stroke-linejoin="round" stroke-width="6"/><path d="M1574.42,1867.81h0a371.27,371.27,0,0,0,263.38-109.09q12-12,22.8-24.95" fill="none" stroke="#01244a" stroke-miterlimit="10" stroke-width="6"/><polygon points="1544.53 1866.88 1559.31 1858.34 1574.1 1849.81 1574.1 1866.88 1574.1 1883.95 1559.31 1875.41 1544.53 1866.88" fill="none" stroke="#09b9b3" stroke-linecap="round" stroke-linejoin="round" stroke-width="6"/><polyline points="1794.25 1275.49 1992.23 1077.53 2173.78 895.98" fill="none" stroke="#09b9b3" stroke-miterlimit="10" stroke-width="6"/><polyline points="2135.15 993.13 2164.22 964.06 2190.88 937.4" fill="none" stroke="#09b9b3" stroke-miterlimit="10" stroke-width="6"/><polyline points="2054.34 958.37 2083.41 929.3 2110.07 902.64" fill="none" stroke="#09b9b3" stroke-miterlimit="10" stroke-width="6"/><polyline points="2054.27 1015.49 2054.69 984.77 2055.07 956.6" fill="none" stroke="#09b9b3" stroke-miterlimit="10" stroke-width="6"/><polyline points="2078.03 991.56 2108.75 991.99 2136.92 992.37" fill="none" stroke="#09b9b3" stroke-miterlimit="10" stroke-width="6"/><circle cx="2107.48" cy="904.6" r="11.36" fill="#fff" stroke="#ef442e" stroke-miterlimit="10" stroke-width="6"/><circle cx="2191.74" cy="935.37" r="11.36" fill="#fff" stroke="#ef442e" stroke-miterlimit="10" stroke-width="6"/><circle cx="2180.38" cy="888.32" r="11.36" fill="#fff" stroke="#ef442e" stroke-miterlimit="10" stroke-width="6"/><line x1="2109.55" y1="830.75" x2="2099.71" y2="820.9" fill="none" stroke="#01244a" stroke-miterlimit="10" stroke-width="6"/><line x1="2134.77" y1="855.97" x2="2124.92" y2="846.12" fill="none" stroke="#01244a" stroke-miterlimit="10" stroke-width="6"/><line x1="2124.92" y1="830.75" x2="2134.77" y2="820.9" fill="none" stroke="#01244a" stroke-miterlimit="10" stroke-width="6"/><line x1="2099.71" y1="855.97" x2="2109.55" y2="846.12" fill="none" stroke="#01244a" stroke-miterlimit="10" stroke-width="6"/><line x1="2214.15" y1="999.76" x2="2207.07" y2="992.68" fill="none" stroke="#01244a" stroke-miterlimit="10" stroke-width="6"/><line x1="2232.29" y1="1017.89" x2="2225.2" y2="1010.81" fill="none" stroke="#01244a" stroke-miterlimit="10" stroke-width="6"/><line x1="2225.2" y1="999.76" x2="2232.29" y2="992.68" fill="none" stroke="#01244a" stroke-miterlimit="10" stroke-width="6"/><line x1="2207.07" y1="1017.89" x2="2214.15" y2="1010.81" fill="none" stroke="#01244a" stroke-miterlimit="10" stroke-width="6"/><polyline points="1358.01 1722.06 1160.02 1920.03 978.47 2101.57" fill="none" stroke="#09b9b3" stroke-miterlimit="10" stroke-width="6"/><polyline points="1017.1 2004.42 988.03 2033.49 961.37 2060.15" fill="none" stroke="#09b9b3" stroke-miterlimit="10" stroke-width="6"/><polyline points="1097.92 2039.18 1068.85 2068.26 1042.19 2094.91" fill="none" stroke="#09b9b3" stroke-miterlimit="10" stroke-width="6"/><polyline points="1097.98 1982.07 1097.56 2012.79 1097.18 2040.96" fill="none" stroke="#09b9b3" stroke-miterlimit="10" stroke-width="6"/><polyline points="1074.22 2005.99 1043.5 2005.57 1015.33 2005.18" fill="none" stroke="#09b9b3" stroke-miterlimit="10" stroke-width="6"/><circle cx="1044.77" cy="2092.96" r="11.36" fill="#fff" stroke="#ef442e" stroke-miterlimit="10" stroke-width="6"/><circle cx="960.51" cy="2062.18" r="11.36" fill="#fff" stroke="#ef442e" stroke-miterlimit="10" stroke-width="6"/><circle cx="971.87" cy="2109.23" r="11.36" fill="#fff" stroke="#ef442e" stroke-miterlimit="10" stroke-width="6"/><line x1="938.02" y1="1979.28" x2="928.17" y2="1969.43" fill="none" stroke="#01244a" stroke-miterlimit="10" stroke-width="6"/><line x1="963.23" y1="2004.5" x2="953.39" y2="1994.65" fill="none" stroke="#01244a" stroke-miterlimit="10" stroke-width="6"/><line x1="953.39" y1="1979.28" x2="963.23" y2="1969.43" fill="none" stroke="#01244a" stroke-miterlimit="10" stroke-width="6"/><line x1="928.17" y1="2004.5" x2="938.02" y2="1994.65" fill="none" stroke="#01244a" stroke-miterlimit="10" stroke-width="6"/><line x1="1022.61" y1="2158.29" x2="1015.53" y2="2151.21" fill="none" stroke="#01244a" stroke-miterlimit="10" stroke-width="6"/><line x1="1040.75" y1="2176.42" x2="1033.67" y2="2169.34" fill="none" stroke="#01244a" stroke-miterlimit="10" stroke-width="6"/><line x1="1033.67" y1="2158.29" x2="1040.75" y2="2151.21" fill="none" stroke="#01244a" stroke-miterlimit="10" stroke-width="6"/><line x1="1015.53" y1="2176.42" x2="1022.61" y2="2169.34" fill="none" stroke="#01244a" stroke-miterlimit="10" stroke-width="6"/><line x1="1900.24" y1="1220.12" x2="1857.12" y2="1256.3" fill="none" stroke="#09b9b3" stroke-miterlimit="10" stroke-width="6"/><line x1="1922.83" y1="1249.56" x2="1876.72" y2="1281.85" fill="none" stroke="#09b9b3" stroke-miterlimit="10" stroke-width="6"/><line x1="1942.77" y1="1280.86" x2="1894.02" y2="1309.01" fill="none" stroke="#09b9b3" stroke-miterlimit="10" stroke-width="6"/><line x1="1959.91" y1="1313.78" x2="1908.89" y2="1337.57" fill="none" stroke="#09b9b3" stroke-miterlimit="10" stroke-width="6"/><line x1="1974.11" y1="1348.06" x2="1921.21" y2="1367.32" fill="none" stroke="#09b9b3" stroke-miterlimit="10" stroke-width="6"/><line x1="1985.27" y1="1383.46" x2="1930.89" y2="1398.03" fill="none" stroke="#09b9b3" stroke-miterlimit="10" stroke-width="6"/><line x1="1993.3" y1="1419.69" x2="1937.86" y2="1429.46" fill="none" stroke="#09b9b3" stroke-miterlimit="10" stroke-width="6"/><line x1="1998.15" y1="1456.48" x2="1942.07" y2="1461.39" fill="none" stroke="#09b9b3" stroke-miterlimit="10" stroke-width="6"/><line x1="1999.76" y1="1493.56" x2="1943.47" y2="1493.56" fill="none" stroke="#09b9b3" stroke-miterlimit="10" stroke-width="6"/><line x1="1998.15" y1="1530.63" x2="1942.07" y2="1525.73" fill="none" stroke="#09b9b3" stroke-miterlimit="10" stroke-width="6"/><line x1="1993.3" y1="1567.43" x2="1937.86" y2="1557.65" fill="none" stroke="#09b9b3" stroke-miterlimit="10" stroke-width="6"/><line x1="1985.27" y1="1603.66" x2="1930.89" y2="1589.09" fill="none" stroke="#09b9b3" stroke-miterlimit="10" stroke-width="6"/><line x1="1974.11" y1="1639.05" x2="1921.21" y2="1619.8" fill="none" stroke="#09b9b3" stroke-miterlimit="10" stroke-width="6"/><line x1="1959.91" y1="1673.34" x2="1908.89" y2="1649.54" fill="none" stroke="#09b9b3" stroke-miterlimit="10" stroke-width="6"/><line x1="1942.77" y1="1706.25" x2="1894.02" y2="1678.11" fill="none" stroke="#09b9b3" stroke-miterlimit="10" stroke-width="6"/><line x1="1922.83" y1="1737.55" x2="1876.72" y2="1705.26" fill="none" stroke="#09b9b3" stroke-miterlimit="10" stroke-width="6"/><line x1="1900.24" y1="1766.99" x2="1857.12" y2="1730.81" fill="none" stroke="#09b9b3" stroke-miterlimit="10" stroke-width="6"/><line x1="1148.97" y1="1493.56" x2="1205.27" y2="1493.56" fill="none" stroke="#09b9b3" stroke-miterlimit="10" stroke-width="6"/><line x1="1150.59" y1="1456.48" x2="1206.67" y2="1461.39" fill="none" stroke="#09b9b3" stroke-miterlimit="10" stroke-width="6"/><line x1="1155.44" y1="1419.69" x2="1210.88" y2="1429.46" fill="none" stroke="#09b9b3" stroke-miterlimit="10" stroke-width="6"/><line x1="1163.47" y1="1383.46" x2="1217.84" y2="1398.03" fill="none" stroke="#09b9b3" stroke-miterlimit="10" stroke-width="6"/><line x1="1174.63" y1="1348.06" x2="1227.53" y2="1367.32" fill="none" stroke="#09b9b3" stroke-miterlimit="10" stroke-width="6"/><line x1="1188.83" y1="1313.78" x2="1239.85" y2="1337.57" fill="none" stroke="#09b9b3" stroke-miterlimit="10" stroke-width="6"/><line x1="1205.97" y1="1280.86" x2="1254.72" y2="1309.01" fill="none" stroke="#09b9b3" stroke-miterlimit="10" stroke-width="6"/><line x1="1225.91" y1="1249.56" x2="1272.02" y2="1281.85" fill="none" stroke="#09b9b3" stroke-miterlimit="10" stroke-width="6"/><line x1="1248.5" y1="1220.12" x2="1291.62" y2="1256.3" fill="none" stroke="#09b9b3" stroke-miterlimit="10" stroke-width="6"/><line x1="1248.5" y1="1766.99" x2="1291.62" y2="1730.81" fill="none" stroke="#09b9b3" stroke-miterlimit="10" stroke-width="6"/><line x1="1225.91" y1="1737.55" x2="1272.02" y2="1705.26" fill="none" stroke="#09b9b3" stroke-miterlimit="10" stroke-width="6"/><line x1="1205.97" y1="1706.25" x2="1254.72" y2="1678.11" fill="none" stroke="#09b9b3" stroke-miterlimit="10" stroke-width="6"/><line x1="1188.83" y1="1673.34" x2="1239.85" y2="1649.54" fill="none" stroke="#09b9b3" stroke-miterlimit="10" stroke-width="6"/><line x1="1174.63" y1="1639.05" x2="1227.53" y2="1619.8" fill="none" stroke="#09b9b3" stroke-miterlimit="10" stroke-width="6"/><line x1="1163.47" y1="1603.66" x2="1217.84" y2="1589.09" fill="none" stroke="#09b9b3" stroke-miterlimit="10" stroke-width="6"/><line x1="1155.44" y1="1567.43" x2="1210.88" y2="1557.65" fill="none" stroke="#09b9b3" stroke-miterlimit="10" stroke-width="6"/><line x1="1150.59" y1="1530.63" x2="1206.67" y2="1525.73" fill="none" stroke="#09b9b3" stroke-miterlimit="10" stroke-width="6"/><line x1="2115.12" y1="1458.57" x2="2068.51" y2="1462.65" fill="none" stroke="#01244a" stroke-miterlimit="10" stroke-width="6"/><line x1="2151.42" y1="1455.09" x2="2123.49" y2="1457.54" fill="none" stroke="#01244a" stroke-miterlimit="10" stroke-width="6"/><line x1="2167.41" y1="1453.69" x2="2157.14" y2="1454.59" fill="none" stroke="#01244a" stroke-miterlimit="10" stroke-width="6"/><line x1="2143.16" y1="1505.97" x2="2069.4" y2="1505.97" fill="none" stroke="#01244a" stroke-miterlimit="10" stroke-width="6"/><line x1="2186.14" y1="1505.97" x2="2152.58" y2="1505.97" fill="none" stroke="#01244a" stroke-miterlimit="10" stroke-width="6"/><line x1="2126.22" y1="1554.51" x2="2066.51" y2="1549.29" fill="none" stroke="#01244a" stroke-miterlimit="10" stroke-width="6"/><line x1="2142.41" y1="1556.56" x2="2131.8" y2="1555.63" fill="none" stroke="#01244a" stroke-miterlimit="10" stroke-width="6"/><line x1="1035.4" y1="1551.68" x2="1082.01" y2="1547.6" fill="none" stroke="#01244a" stroke-miterlimit="10" stroke-width="6"/><line x1="999.1" y1="1555.16" x2="1027.04" y2="1552.72" fill="none" stroke="#01244a" stroke-miterlimit="10" stroke-width="6"/><line x1="983.11" y1="1556.56" x2="993.39" y2="1555.66" fill="none" stroke="#01244a" stroke-miterlimit="10" stroke-width="6"/><line x1="1005.36" y1="1504.28" x2="1079.12" y2="1504.28" fill="none" stroke="#01244a" stroke-miterlimit="10" stroke-width="6"/><line x1="962.38" y1="1504.28" x2="995.94" y2="1504.28" fill="none" stroke="#01244a" stroke-miterlimit="10" stroke-width="6"/><line x1="1022.3" y1="1455.74" x2="1082.01" y2="1460.96" fill="none" stroke="#01244a" stroke-miterlimit="10" stroke-width="6"/><line x1="1006.12" y1="1453.69" x2="1016.72" y2="1454.62" fill="none" stroke="#01244a" stroke-miterlimit="10" stroke-width="6"/></g><g id="Background"><rect width="3189" height="3110" fill="none"/></g></svg>