<svg xmlns="http://www.w3.org/2000/svg" viewBox="0 0 3189 3110"><title>Illustration_Animation7</title><g id="_7" data-name="7"><path d="M2270.33,799.46c-178.15-178.07-424.22-288.2-696-288.2S1056.56,621.35,878.41,799.35c-178.32,178.19-288.63,424.43-288.63,696.44,0,271.79,110.14,517.87,288.21,696s424.38,288.52,696.33,288.52S2092.56,2370,2270.75,2191.7c178-178.14,288.1-424.17,288.1-695.91C2558.85,1223.84,2448.59,977.64,2270.33,799.46Z" fill="none" stroke="#01244a" stroke-miterlimit="10" stroke-width="6"/><path d="M404.06,983.79l.13-.3c141.9-323.22,401.29-558.38,706-677.41" fill="none" stroke="#01244a" stroke-miterlimit="10" stroke-width="6"/><polygon points="1138.87 294.73 1127.11 308.67 1115.36 322.6 1109.17 305.45 1102.98 288.3 1120.93 291.51 1138.87 294.73" fill="none" stroke="#09b9b3" stroke-linecap="round" stroke-linejoin="round" stroke-width="6"/><polygon points="390.75 1013.78 388.85 995.64 386.95 977.51 403.61 984.93 420.26 992.36 405.5 1003.07 390.75 1013.78" fill="none" stroke="#09b9b3" stroke-linecap="round" stroke-linejoin="round" stroke-width="6"/><path d="M1076.8,2666.8A1267.19,1267.19,0,0,1,958.08,2609" fill="none" stroke="#01244a" stroke-miterlimit="10" stroke-width="6"/><path d="M1417.68,2757.76a1263.57,1263.57,0,0,1-299.94-74.45" fill="none" stroke="#01244a" stroke-miterlimit="10" stroke-width="6"/><path d="M377.62,1932.74q7.95,21.69,16.68,43" fill="none" stroke="#01244a" stroke-miterlimit="10" stroke-width="6"/><path d="M795.67,2502.28a1281.6,1281.6,0,0,1-262.45-273.61" fill="none" stroke="#01244a" stroke-miterlimit="10" stroke-width="6"/><path d="M508.27,2192.09a1269.31,1269.31,0,0,1-96.54-175.74" fill="none" stroke="#01244a" stroke-miterlimit="10" stroke-width="6"/><path d="M1961.23,1912.62" fill="#09b9b3"/><path d="M2075.8,2027.18" fill="#09b9b3"/></g><g id="Background"><rect width="3189" height="3110" fill="none"/></g></svg>