<svg xmlns="http://www.w3.org/2000/svg" viewBox="0 0 3189 3110"><title>Illustration_Animation3</title><g id="_3" data-name="3"><path d="M1109.86,1030.85c-3.1,3.09-6.17,6.22-9.18,9.35l3.6,3.47c3-3.11,6-6.22,9.12-9.28Zm937.65,9-3.6,3.47c5.76,6,11.47,12.14,17,18.31l3.73-3.33C2059.07,1052.07,2053.31,1045.86,2047.51,1039.84Zm-963.94,18.83c-5.57,6.25-11.08,12.68-16.4,19.12L1071,1081c5.27-6.39,10.75-12.77,16.27-19ZM2081,1077.38l-3.85,3.18c5.28,6.39,10.5,13,15.53,19.55l4-3C2091.61,1090.44,2086.34,1083.81,2081,1077.38Zm-1029.5,20.13c-5.08,6.66-10.09,13.5-14.9,20.32l4.09,2.88c4.77-6.77,9.74-13.56,14.78-20.16Zm1060.05,19.83-4.09,2.88c4.77,6.76,9.48,13.71,14,20.66l4.2-2.73C2121.12,1131.15,2116.37,1124.15,2111.57,1117.34ZM1022.51,1138.7c-4.55,7-9,14.22-13.31,21.41l4.3,2.56c4.25-7.14,8.69-14.28,13.2-21.25ZM2139,1159.49l-4.29,2.56c4.24,7.1,8.4,14.39,12.36,21.65l4.39-2.39C2147.43,1174,2143.23,1166.65,2139,1159.49ZM996.73,1182c-4,7.35-7.91,14.87-11.63,22.38l4.48,2.22c3.69-7.45,7.57-14.92,11.54-22.21ZM2163,1203.58l-4.48,2.23c3.68,7.41,7.27,15,10.67,22.52l4.55-2C2170.37,1218.68,2166.75,1211.05,2163,1203.58ZM974.34,1227.2c-3.43,7.63-6.75,15.45-9.88,23.21l4.64,1.87c3.1-7.71,6.4-15.46,9.8-23Zm1209.31,22.16-4.64,1.88c3.11,7.68,6.12,15.53,8.93,23.33l4.7-1.69C2189.81,1265,2186.78,1257.11,2183.65,1249.36ZM955.49,1274c-2.83,7.89-5.54,15.94-8.06,23.93l4.77,1.5c2.5-7.93,5.19-15.91,8-23.74Zm1245.23,22.72-4.76,1.51c2.5,7.9,4.89,16,7.09,24l4.83-1.33C2205.66,1312.8,2203.25,1304.68,2200.72,1296.72Zm-1260.4,25.36c-2.2,8.07-4.28,16.28-6.17,24.4l4.87,1.13c1.88-8,3.94-16.2,6.12-24.21Zm1273.77,23.16-4.87,1.14c1.89,8.06,3.65,16.28,5.23,24.43l4.91-1C2217.77,1361.65,2216,1353.36,2214.09,1345.24ZM928.93,1371.11c-1.57,8.2-3,16.55-4.27,24.8l4.94.76c1.25-8.19,2.68-16.48,4.24-24.62Zm1294.75,23.54-4.94.77c1.26,8.17,2.39,16.5,3.34,24.75l5-.57C2226.09,1411.29,2225,1402.89,2223.68,1394.65ZM921.34,1420.86c-.94,8.3-1.73,16.74-2.36,25.06l5,.38c.62-8.27,1.41-16.64,2.34-24.87Zm1308.12,23.79-5,.38c.64,8.27,1.12,16.66,1.44,24.94l5-.19C2230.59,1461.43,2230.1,1453,2229.46,1444.65Zm-1311.89,26.4c-.3,8.19-.45,16.51-.45,24.74v.42h5v-.42c0-8.17.15-16.43.45-24.55ZM2226.42,1495v.84c0,8.29-.16,16.69-.47,25l5,.18c.32-8.34.48-16.81.48-25.16V1495ZM922.6,1521.19l-5,.2c.32,8.36.8,16.81,1.44,25.13l5-.39C923.4,1537.89,922.92,1529.49,922.6,1521.19Zm1301.94,24.52c-.63,8.28-1.42,16.64-2.36,24.86l5,.57c1-8.28,1.75-16.71,2.38-25.06ZM926.41,1571l-5,.57c.95,8.3,2.08,16.7,3.35,24.94l4.94-.76C928.47,1587.57,927.35,1579.24,926.41,1571Zm1292.46,24.33c-1.26,8.2-2.69,16.48-4.26,24.62l4.91.94c1.58-8.2,3-16.54,4.29-24.8ZM934,1620.37l-4.91,1c1.59,8.2,3.36,16.48,5.26,24.61l4.87-1.14C937.33,1636.73,935.58,1628.51,934,1620.37Zm1275.42,24c-1.89,8.07-4,16.22-6.14,24.21l4.82,1.32c2.21-8.05,4.29-16.26,6.18-24.4ZM945.37,1669l-4.82,1.33c2.21,8,4.61,16.17,7.14,24.14l4.76-1.51C949.95,1685.06,947.57,1677,945.37,1669Zm1250.84,23.55c-2.51,7.94-5.2,15.92-8,23.74l4.7,1.69c2.83-7.87,5.55-15.92,8.08-23.92ZM960.45,1716.62l-4.7,1.69c2.83,7.87,5.85,15.78,9,23.52l4.63-1.87C966.26,1732.28,963.26,1724.43,960.45,1716.62Zm1218.83,23.07c-3.11,7.71-6.41,15.46-9.82,23l4.56,2c3.43-7.63,6.76-15.44,9.9-23.21ZM979.14,1762.87l-4.56,2c3.41,7.59,7,15.23,10.73,22.7l4.48-2.22C986.11,1778,982.52,1770.41,979.14,1762.87Zm1179.63,22.48c-3.69,7.44-7.58,14.91-11.56,22.2l4.4,2.39c4-7.34,7.92-14.87,11.64-22.37ZM1001.3,1807.51l-4.39,2.4c4,7.33,8.19,14.67,12.45,21.82l4.29-2.55C1009.43,1822.08,1005.27,1814.79,1001.3,1807.51Zm1133.52,21.77c-4.26,7.13-8.7,14.28-13.22,21.23l4.19,2.72c4.55-7,9-14.2,13.32-21.39Zm-1108,21.08-4.19,2.72c4.53,7,9.27,14,14.09,20.82l4.08-2.88C1036,1864.24,1031.33,1857.29,1026.83,1850.36Zm1080.75,20.86c-4.78,6.78-9.76,13.56-14.79,20.15l4,3c5.07-6.64,10.09-13.47,14.91-20.3Zm-1052,19.93-4,3c5.07,6.63,10.33,13.26,15.64,19.7l3.86-3.18C1065.82,1904.31,1060.6,1897.73,1055.58,1891.15Zm1021.66,19.79c-5.29,6.4-10.77,12.78-16.29,19l3.73,3.33c5.56-6.22,11.08-12.65,16.41-19.1Zm-989.88,18.71-3.73,3.32c5.55,6.23,11.31,12.45,17.1,18.46l3.6-3.46C1098.58,1942,1092.87,1935.83,1087.36,1929.65Zm956.6,18.56q-4.1,4.24-8.3,8.45l3.54,3.54q4.23-4.23,8.36-8.52Z" fill="#09b9b3"/><polyline points="985.7 906.69 1109.86 1030.85 1113.4 1034.39 1226.12 1147.11" fill="none" stroke="#01244a" stroke-miterlimit="10" stroke-width="6"/><polyline points="1922.94 1843.94 2035.66 1956.66 2039.2 1960.2 2163.37 2084.37" fill="none" stroke="#01244a" stroke-miterlimit="10" stroke-width="6"/><circle cx="2010.79" cy="1973.08" r="6.45" transform="translate(-806.23 1999.74) rotate(-45)" fill="#01244a"/><circle cx="1987.91" cy="1950.21" r="6.45" transform="translate(-796.76 1976.87) rotate(-45)" fill="#09b9b3"/><circle cx="1965.04" cy="1927.33" r="6.45" transform="translate(-787.28 1953.99) rotate(-45)" fill="#01244a"/><circle cx="1942.16" cy="1904.46" r="6.45" transform="translate(-777.81 1931.12) rotate(-45)" fill="#09b9b3"/><circle cx="1919.28" cy="1881.58" r="6.45" transform="translate(-768.33 1908.24) rotate(-45)" fill="#01244a"/><circle cx="2125.36" cy="2087.65" r="6.45" transform="translate(-853.69 2114.31) rotate(-45)" fill="#09b9b3"/><circle cx="2102.48" cy="2064.78" r="6.45" transform="translate(-844.21 2091.44) rotate(-45)" fill="#01244a"/><circle cx="2079.6" cy="2041.9" r="6.45" transform="translate(-834.74 2068.56) rotate(-45)" fill="#09b9b3"/><circle cx="2056.73" cy="2019.02" r="6.45" transform="translate(-825.26 2045.69) rotate(-45)" fill="#01244a"/><circle cx="2033.85" cy="1996.15" r="6.45" transform="translate(-815.79 2022.81) rotate(-45)" fill="#09b9b3"/><circle cx="1122.06" cy="997.97" r="6.45" transform="translate(-377.03 1085.71) rotate(-45)" fill="#09b9b3"/><circle cx="1099.18" cy="975.09" r="6.45" transform="translate(-367.55 1062.84) rotate(-45)" fill="#01244a"/><circle cx="1076.3" cy="952.22" r="6.45" transform="translate(-358.08 1039.96) rotate(-45)" fill="#09b9b3"/><circle cx="1053.43" cy="929.34" r="6.45" transform="translate(-348.6 1017.08) rotate(-45)" fill="#01244a"/><circle cx="1030.55" cy="906.47" r="6.45" transform="translate(-339.13 994.21) rotate(-45)" fill="#09b9b3"/><circle cx="1236.62" cy="1112.54" r="6.45" transform="translate(-424.49 1200.28) rotate(-45)" fill="#01244a"/><circle cx="1213.75" cy="1089.66" r="6.45" transform="translate(-415.01 1177.4) rotate(-45)" fill="#09b9b3"/><circle cx="1190.87" cy="1066.79" r="6.45" transform="translate(-405.53 1154.53) rotate(-45)" fill="#01244a"/><circle cx="1168" cy="1043.91" r="6.45" transform="translate(-396.06 1131.65) rotate(-45)" fill="#09b9b3"/><circle cx="1145.12" cy="1021.04" r="6.45" transform="translate(-386.58 1108.78) rotate(-45)" fill="#01244a"/><rect x="2290.76" y="1354.69" width="23.92" height="23.92" transform="translate(4807.77 2312.67) rotate(170)" fill="none" stroke="#01244a" stroke-miterlimit="10" stroke-width="6"/><rect x="2299.11" y="1418.69" width="23.92" height="23.92" transform="translate(4738.04 2654.43) rotate(175)" fill="none" stroke="#09b9b3" stroke-miterlimit="10" stroke-width="6"/><rect x="2301.86" y="1483.17" width="23.92" height="23.92" transform="translate(4627.64 2990.26) rotate(-180)" fill="none" stroke="#01244a" stroke-miterlimit="10" stroke-width="6"/><rect x="2298.98" y="1547.65" width="23.92" height="23.92" transform="matrix(-1, -0.09, 0.09, -1, 4477.15, 3314.69)" fill="none" stroke="#09b9b3" stroke-miterlimit="10" stroke-width="6"/><rect x="2290.49" y="1611.63" width="23.92" height="23.92" transform="translate(4287.98 3622.32) rotate(-170)" fill="none" stroke="#01244a" stroke-miterlimit="10" stroke-width="6"/><rect x="2276.45" y="1674.62" width="23.92" height="23.92" transform="translate(4062.32 3907.98) rotate(-165)" fill="none" stroke="#09b9b3" stroke-miterlimit="10" stroke-width="6"/><rect x="2256.98" y="1736.16" width="23.92" height="23.92" transform="translate(3803.15 4166.83) rotate(-160)" fill="none" stroke="#01244a" stroke-miterlimit="10" stroke-width="6"/><rect x="2232.21" y="1795.76" width="23.92" height="23.92" transform="translate(3514.11 4394.5) rotate(-155)" fill="none" stroke="#09b9b3" stroke-miterlimit="10" stroke-width="6"/><rect x="2202.35" y="1852.98" width="23.92" height="23.92" transform="translate(3199.49 4587.17) rotate(-150)" fill="none" stroke="#01244a" stroke-miterlimit="10" stroke-width="6"/><rect x="2167.61" y="1907.37" width="23.92" height="23.92" transform="translate(2864.09 4741.71) rotate(-145)" fill="none" stroke="#09b9b3" stroke-miterlimit="10" stroke-width="6"/><rect x="2128.27" y="1958.53" width="23.92" height="23.92" transform="translate(2513.13 4855.69) rotate(-140)" fill="none" stroke="#01244a" stroke-miterlimit="10" stroke-width="6"/><rect x="822.22" y="1481.6" width="23.92" height="23.92" fill="none" stroke="#01244a" stroke-miterlimit="10" stroke-width="6"/><rect x="825.1" y="1417.12" width="23.92" height="23.92" transform="translate(127.74 -67.52) rotate(5)" fill="none" stroke="#09b9b3" stroke-miterlimit="10" stroke-width="6"/><rect x="833.59" y="1353.14" width="23.92" height="23.92" transform="translate(249.89 -126.09) rotate(10)" fill="none" stroke="#01244a" stroke-miterlimit="10" stroke-width="6"/><rect x="847.63" y="1290.14" width="23.92" height="23.92" transform="translate(366.3 -178.11) rotate(15)" fill="none" stroke="#09b9b3" stroke-miterlimit="10" stroke-width="6"/><rect x="867.1" y="1228.61" width="23.92" height="23.92" transform="translate(477.31 -225.84) rotate(20)" fill="none" stroke="#01244a" stroke-miterlimit="10" stroke-width="6"/><rect x="891.87" y="1169.01" width="23.92" height="23.92" transform="translate(583.78 -271.33) rotate(25)" fill="none" stroke="#09b9b3" stroke-miterlimit="10" stroke-width="6"/><rect x="921.73" y="1111.79" width="23.92" height="23.92" transform="translate(686.97 -316.29) rotate(30)" fill="none" stroke="#01244a" stroke-miterlimit="10" stroke-width="6"/><rect x="956.46" y="1057.39" width="23.92" height="23.92" transform="translate(788.49 -362.07) rotate(35)" fill="none" stroke="#09b9b3" stroke-miterlimit="10" stroke-width="6"/><rect x="995.81" y="1006.23" width="23.92" height="23.92" transform="translate(890.25 -409.57) rotate(40)" fill="none" stroke="#01244a" stroke-miterlimit="10" stroke-width="6"/><rect x="833.32" y="1610.08" width="23.92" height="23.92" transform="translate(-268.82 171.42) rotate(-10)" fill="none" stroke="#01244a" stroke-miterlimit="10" stroke-width="6"/><rect x="824.96" y="1546.08" width="23.92" height="23.92" transform="translate(-132.61 78.87) rotate(-5)" fill="none" stroke="#09b9b3" stroke-miterlimit="10" stroke-width="6"/></g><g id="Background"><rect width="3189" height="3110" fill="none"/></g></svg>