<svg width="16px" height="16px" viewBox="0 0 16 16" version="1.1" xmlns="http://www.w3.org/2000/svg" xmlns:xlink="http://www.w3.org/1999/xlink">
    <!-- Generator: Sketch 55.2 (78181) - https://sketchapp.com -->
    <title>UI Icon/awake/$ui-05</title>
    <desc>Created with Sketch.</desc>

    <defs>
        <symbol id="asset" viewBox="0 0 16 16">
            <g id="3.-Brand-Style" stroke="none" stroke-width="1" fill="none" fill-rule="evenodd">
                <g id="UI-Icons" transform="translate(-697.000000, -237.000000)" fill="currentColor" fill-rule="nonzero">
                    <g id="UI-Icon/awake/$ui-05" transform="translate(697.000000, 237.000000)">
                        <polygon id="Path-54" points="7.5 6.31088724e-30 8.5 6.31088724e-30 8.5 3 7.5 3" />
                        <polygon id="Path-54" points="7.5 13 8.5 13 8.5 16 7.5 16" />
                        <polygon id="Path-54" transform="translate(14.500000, 8.000000) rotate(90.000000) translate(-14.500000, -8.000000) " points="14 6.5 15 6.5 15 9.5 14 9.5" />
                        <polygon id="Path-54" transform="translate(1.500000, 8.000000) rotate(90.000000) translate(-1.500000, -8.000000) " points="1 6.5 2 6.5 2 9.5 1 9.5" />
                        <polygon id="Path-54" transform="translate(3.403806, 3.403806) rotate(-45.000000) translate(-3.403806, -3.403806) " points="2.90380592 1.90380592 3.90380592 1.90380592 3.90380592 4.90380592 2.90380592 4.90380592" />
                        <polygon id="Path-54" transform="translate(12.596194, 12.596194) rotate(-45.000000) translate(-12.596194, -12.596194) " points="12.0961941 11.0961941 13.0961941 11.0961941 13.0961941 14.0961941 12.0961941 14.0961941" />
                        <polygon id="Path-54" transform="translate(12.596194, 3.403806) rotate(45.000000) translate(-12.596194, -3.403806) " points="12.0961941 1.90380592 13.0961941 1.90380592 13.0961941 4.90380592 12.0961941 4.90380592" />
                        <polygon id="Path-54" transform="translate(3.403806, 12.596194) rotate(45.000000) translate(-3.403806, -12.596194) " points="2.90380592 11.0961941 3.90380592 11.0961941 3.90380592 14.0961941 2.90380592 14.0961941" />
                        <path d="M8,10.5 C9.38071187,10.5 10.5,9.38071187 10.5,8 C10.5,6.61928813 9.38071187,5.5 8,5.5 C6.61928813,5.5 5.5,6.61928813 5.5,8 C5.5,9.38071187 6.61928813,10.5 8,10.5 Z M8,11.5 C6.06700338,11.5 4.5,9.93299662 4.5,8 C4.5,6.06700338 6.06700338,4.5 8,4.5 C9.93299662,4.5 11.5,6.06700338 11.5,8 C11.5,9.93299662 9.93299662,11.5 8,11.5 Z" id="Oval-6" />
                    </g>
                </g>
            </g>
        </symbol>
    </defs>
    <g>
        <use xlink:href="#asset" />
    </g>
</svg>
