<svg width="16px" height="16px" viewBox="0 0 16 16" version="1.1" xmlns="http://www.w3.org/2000/svg" xmlns:xlink="http://www.w3.org/1999/xlink">
    <!-- Generator: Sketch 55.2 (78181) - https://sketchapp.com -->
    <title>UI Icon/Icon/copy/$ui-05</title>
    <desc>Created with Sketch.</desc>

    <defs>
        <symbol id="asset" viewBox="0 0 16 16">
            <g id="3.-Brand-Style" stroke="none" stroke-width="1" fill="none" fill-rule="evenodd">
                <g id="UI-Icons" transform="translate(-940.000000, -297.000000)" fill="currentColor">
                    <g id="UI-Icon/copy/$ui-05" transform="translate(940.000000, 297.000000)">
                        <g id="copy">
                            <path d="M1,10.0000003 L0,10.0000003 L0,2.00842236 C0,0.904674734 0.894147747,0.00958482502 1.99789476,0.00842299807 L9.99956249,2.77002982e-07 L10.0006151,1.00000028 L1.99894738,1.00842244 C1.44707387,1.00900336 1,1.45654831 1,2.00842212 L1,10.0000003 Z" id="line" fill-rule="nonzero" />
                            <path d="M11.0000888,4.20710678 L11.0000888,8.00128586 L14.7942679,8.00128586 L11.0000888,4.20710678 Z M15.0000888,9.00128586 L11.0000888,9.00128586 C10.4478041,9.00128586 10.0000888,8.55357061 10.0000888,8.00128586 L10.0000888,4 L4.5000888,4 C4.22394643,4 4.0000888,4.22385763 4.0000888,4.5 L4.0000888,14.5 C4.0000888,14.7761424 4.22394643,15 4.5000888,15 L14.5000888,15 C14.7762312,15 15.0000888,14.7761424 15.0000888,14.5 L15.0000888,9.00128586 Z M11.0000888,3 C11.132697,3 11.259874,3.05267842 11.3536422,3.14644661 L15.8536422,7.64644661 C15.9474104,7.7402148 16.0000888,7.86739176 16.0000888,8 L16.0000888,14.5 C16.0000888,15.3284271 15.3285159,16 14.5000888,16 L4.5000888,16 C3.67166168,16 3.0000888,15.3284271 3.0000888,14.5 L3.0000888,4.5 C3.0000888,3.67157288 3.67166168,3 4.5000888,3 L11.0000888,3 Z" id="paper" fill-rule="nonzero" />
                        </g>
                    </g>
                </g>
            </g>
        </symbol>
    </defs>
    <g>
        <use xlink:href="#asset" />
    </g>
</svg>
