<svg width="12px" height="16px" viewBox="0 0 12 16" version="1.1" xmlns="http://www.w3.org/2000/svg" xmlns:xlink="http://www.w3.org/1999/xlink">
    <!-- Generator: Sketch 55.2 (78181) - https://sketchapp.com -->
    <title>UI Icon/delete/$ui-05</title>
    <desc>Created with Sketch.</desc>

    <defs>
        <symbol id="asset" viewBox="0 0 12 16">
            <g id="3.-Brand-Style" stroke="none" stroke-width="1" fill="none" fill-rule="evenodd">
                <g id="UI-Icons" transform="translate(-88.000000, -357.000000)" fill="currentColor" fill-rule="nonzero">
                    <g id="UI-Icon/delete/$ui-05" transform="translate(88.000000, 357.000000)">
                        <path d="M11,4 L11,15 C11,15.5522847 10.5522847,16 10,16 L2,16 C1.44771525,16 1,15.5522847 1,15 L1,4 L0,4 L0,3 L12,3 L12,4 L11,4 Z M2,4 L2,15 L10,15 L10,4 L2,4 Z" id="Trashcan" />
                        <polygon id="detail" points="4 6 5 6 5 13 4 13" />
                        <polygon id="detail" points="7 6 8 6 8 13 7 13" />
                        <polygon id="lid" points="3 1 3 0 9 0 9 1" />
                    </g>
                </g>
            </g>
        </symbol>
    </defs>
    <g>
        <use xlink:href="#asset" />
    </g>
</svg>
