<svg width="16px" height="11px" viewBox="0 0 16 11" version="1.1" xmlns="http://www.w3.org/2000/svg" xmlns:xlink="http://www.w3.org/1999/xlink">
    <!-- Generator: Sketch 55.2 (78181) - https://sketchapp.com -->
    <title>UI Icon/email/$ui-05</title>
    <desc>Created with Sketch.</desc>

    <defs>
        <symbol id="asset" viewBox="0 0 16 11">
            <g id="3.-Brand-Style" stroke="none" stroke-width="1" fill="none" fill-rule="evenodd">
                <g id="UI-Icons" transform="translate(-391.000000, -359.000000)" fill="currentColor" fill-rule="nonzero">
                    <g id="UI-Icon/email/$ui-05" transform="translate(391.000000, 359.000000)">
                        <path d="M2.02815,1 L8.00484537,5.37996413 L13.9735067,1 L2.02815,1 Z M15,1.48709525 L8.30085543,6.4031076 C8.12490135,6.53222743 7.88552855,6.53230421 7.70949168,6.40329727 L1,1.48631036 L1,10 L15,10 L15,1.48709525 Z M1,5.68434189e-14 L15,5.68434189e-14 C15.5522847,5.68434189e-14 16,0.44771525 16,1 L16,10 C16,10.5522847 15.5522847,11 15,11 L1,11 C0.44771525,11 9.09494702e-13,10.5522847 9.09494702e-13,10 L9.09494702e-13,1 C9.09494702e-13,0.44771525 0.44771525,5.68434189e-14 1,5.68434189e-14 Z" id="envelope" />
                    </g>
                </g>
            </g>
        </symbol>
    </defs>
    <g>
        <use xlink:href="#asset" />
    </g>
</svg>
