<svg width="14px" height="12px" viewBox="0 0 14 12" version="1.1" xmlns="http://www.w3.org/2000/svg" xmlns:xlink="http://www.w3.org/1999/xlink">
    <!-- Generator: Sketch 55.2 (78181) - https://sketchapp.com -->
    <title>UI Icon/folder/$brand-01</title>
    <desc>Created with Sketch.</desc>

    <defs>
        <symbol id="asset" viewBox="0 0 14 12">
            <g id="3.-Brand-Style" stroke="none" stroke-width="1" fill="none" fill-rule="evenodd">
                <g id="UI-Icons" transform="translate(-758.000000, -357.000000)" fill="currentColor" fill-rule="nonzero">
                    <g id="UI-Icon/folder/$ui-01" transform="translate(758.000000, 357.000000)">
                        <path d="M13,12 L1,12 C0.44771525,12 0,11.5522847 0,11 L0,1.00101217 C0.00111897013,0.446706218 0.449738751,-0.000102669643 1.00202237,0.001012166 L3.29494134,0.00565139976 C3.55893031,0.00618528472 3.81199865,0.111084241 3.99895077,0.297469235 L5.70666199,2 L13,2 C13.5522847,2 14,2.44771525 14,3 L14,11 C14,11.5522847 13.5522847,12 13,12 Z M13,3 L5.70666199,3 C5.44197186,3 5.18807847,2.89505977 5.00063018,2.70818012 L3.29291896,1.00564935 L1,1.00101221 L1,11 L13,11 L13,3 Z" id="folder" />
                    </g>
                </g>
            </g>
        </symbol>
    </defs>
    <g>
        <use xlink:href="#asset" />
    </g>
</svg>
