<svg width="16px" height="15px" viewBox="0 0 16 15" version="1.1" xmlns="http://www.w3.org/2000/svg" xmlns:xlink="http://www.w3.org/1999/xlink">
    <!-- Generator: Sketch 55.2 (78181) - https://sketchapp.com -->
    <title>UI Icon/forum/$ui-05</title>
    <desc>Created with Sketch.</desc>

    <defs>
        <symbol id="asset" viewBox="0 0 16 15">
            <g id="3.-Brand-Style" stroke="none" stroke-width="1" fill="none" fill-rule="evenodd">
                <g id="UI-Icons" transform="translate(-879.000000, -357.000000)" fill="currentColor" fill-rule="nonzero">
                    <g id="UI-Icon/forum/$ui-05" transform="translate(879.000000, 357.000000)">
                        <path d="M11.7047306,12.0000119 L8.7044584,14.9765232 L8.00016831,14.2666109 L11.2928439,11.0000119 L14.4987872,11.0000119 C14.7749296,11.0000119 14.9987872,10.7761543 14.9987872,10.5000119 L14.9987872,4.50001189 C14.9987872,4.22386951 14.7749296,4.00001189 14.4987872,4.00001189 L4.49878723,4.00001189 C4.22264486,4.00001189 3.99878723,4.22386951 3.99878723,4.50001189 L3.99878723,10.5097963 C3.99956074,10.7873346 4.22404297,11.0105659 4.50018426,11.0097943 L8.00063945,11.0000119 L8.0034335,12.0000119 L4.50297832,12.0097904 C3.67455443,12.0121051 3.00110776,11.3424113 2.99878723,10.5139874 L2.99878723,4.50001189 C2.99878723,3.67158476 3.67036011,3.00001189 4.49878723,3.00001189 L14.4987872,3.00001189 C15.3272144,3.00001189 15.9987872,3.67158476 15.9987872,4.50001189 L15.9987872,10.5000119 C15.9987872,11.328439 15.3272144,12.0000119 14.4987872,12.0000119 L11.7047306,12.0000119 Z" id="Path-43" />
                        <path d="M1.00008916,8.00001875 L8.91554442e-05,8.00001875 L0,1.50001783 C0,0.671590706 0.671555044,0 1.49998903,0 L8.00203739,0 L8.00203739,1.00001189 L1.5,1 C1.22385168,1 1,1.22386357 1,1.5 L1.00008916,8.00001875 Z" id="Path-10" />
                    </g>
                </g>
            </g>
        </symbol>
    </defs>
    <g>
        <use xlink:href="#asset" />
    </g>
</svg>
