<svg width="16px" height="16px" viewBox="0 0 16 16" version="1.1" xmlns="http://www.w3.org/2000/svg" xmlns:xlink="http://www.w3.org/1999/xlink">
    <!-- Generator: Sketch 55.2 (78181) - https://sketchapp.com -->
    <title>UI Icon/Glyph/grid/$ui-05</title>
    <desc>Created with Sketch.</desc>

    <defs>
        <symbol id="asset" viewBox="0 0 16 16">
            <g id="3.-Brand-Style" stroke="none" stroke-width="1" fill="none" fill-rule="evenodd">
                <g id="UI-Icons" transform="translate(-940.000000, -357.000000)" fill="currentColor" fill-rule="nonzero">
                    <g id="UI-Icon/grid/$ui-05" transform="translate(940.000000, 357.000000)">
                        <path d="M1.06666667,1.06666667 L1.06666667,5.33333333 L5.33333333,5.33333333 L5.33333333,1.06666667 L1.06666667,1.06666667 Z M1,0 L5.4,0 C5.95228475,3.89074334e-16 6.4,0.44771525 6.4,1 L6.4,5.4 C6.4,5.95228475 5.95228475,6.4 5.4,6.4 L1,6.4 C0.44771525,6.4 5.58162771e-16,5.95228475 0,5.4 L0,1 C-6.76353751e-17,0.44771525 0.44771525,1.01453063e-16 1,0 Z" id="square" />
                        <path d="M1.06666667,10.6666667 L1.06666667,14.9333333 L5.33333333,14.9333333 L5.33333333,10.6666667 L1.06666667,10.6666667 Z M1,9.6 L5.4,9.6 C5.95228475,9.6 6.4,10.0477153 6.4,10.6 L6.4,15 C6.4,15.5522847 5.95228475,16 5.4,16 L1,16 C0.44771525,16 6.76353751e-17,15.5522847 0,15 L0,10.6 C-6.76353751e-17,10.0477153 0.44771525,9.6 1,9.6 Z" id="square" />
                        <path d="M10.6666667,1.06666667 L10.6666667,5.33333333 L14.9333333,5.33333333 L14.9333333,1.06666667 L10.6666667,1.06666667 Z M10.6,0 L15,0 C15.5522847,3.89074334e-16 16,0.44771525 16,1 L16,5.4 C16,5.95228475 15.5522847,6.4 15,6.4 L10.6,6.4 C10.0477153,6.4 9.6,5.95228475 9.6,5.4 L9.6,1 C9.6,0.44771525 10.0477153,1.01453063e-16 10.6,0 Z" id="square" />
                        <path d="M10.6666667,14.9333333 L14.9333333,14.9333333 L14.9333333,10.6666667 L10.6666667,10.6666667 L10.6666667,14.9333333 Z M10.6,9.6 L15,9.6 C15.5522847,9.6 16,10.0477153 16,10.6 L16,15 C16,15.5522847 15.5522847,16 15,16 L10.6,16 C10.0477153,16 9.6,15.5522847 9.6,15 L9.6,10.6 C9.6,10.0477153 10.0477153,9.6 10.6,9.6 Z" id="square" />
                    </g>
                </g>
            </g>
        </symbol>
    </defs>
    <g>
        <use xlink:href="#asset" />
    </g>
</svg>
