<svg width="16px" height="16px" viewBox="0 0 16 16" version="1.1" xmlns="http://www.w3.org/2000/svg" xmlns:xlink="http://www.w3.org/1999/xlink">
    <!-- Generator: Sketch 55.2 (78181) - https://sketchapp.com -->
    <title>UI Icon/Glyph/launch/$ui-05</title>
    <desc>Created with Sketch.</desc>

    <defs>
        <symbol id="asset" viewBox="0 0 16 16">
            <g id="3.-Brand-Style" stroke="none" stroke-width="1" fill="none" fill-rule="evenodd">
                <g id="UI-Icons" transform="translate(-330.000000, -417.000000)" fill="currentColor" fill-rule="nonzero">
                    <g id="UI-Icon/launch/$ui-05" transform="translate(330.000000, 417.000000)">
                        <path d="M14.2928932,1 L10.5,1 L10.5,0 L16,0 L16,5.5 L15,5.5 L15,1.70710678 L9.69669914,7.01040764 L8.98959236,6.30330086 L14.2928932,1 Z" id="Combined-Shape" />
                        <path d="M13,9 L14,9 L14,15 C14,15.5522847 13.5522847,16 13,16 L1,16 C0.44771525,16 6.76353751e-17,15.5522847 0,15 L0,3 C-1.78657678e-16,2.44771525 0.44771525,2 1,2 L7.99504589,2 L7.99504589,3 L1,3 L1,15 L13,15 L13,9 Z" id="window" />
                    </g>
                </g>
            </g>
        </symbol>
    </defs>
    <g>
        <use xlink:href="#asset" />
    </g>
</svg>
