<svg width="16px" height="13px" viewBox="0 0 16 13" version="1.1" xmlns="http://www.w3.org/2000/svg" xmlns:xlink="http://www.w3.org/1999/xlink">
    <!-- Generator: Sketch 55.2 (78181) - https://sketchapp.com -->
    <title>UI Icon/link/$brand-01</title>
    <desc>Created with Sketch.</desc>

    <defs>
        <symbol id="asset" viewBox="0 0 16 13">
            <g id="3.-Brand-Style" stroke="none" stroke-width="1" fill="none" fill-rule="evenodd">
                <g id="UI-Icons" transform="translate(-390.000000, -417.000000)" fill="currentColor" fill-rule="nonzero">
                    <g id="UI-Icon/link/$brand-01" transform="translate(390.000000, 417.000000)">
                        <path d="M8.5564619,4.25656804 L7.55653011,4.24488841 C7.55747126,4.16431415 7.56490556,3.91572666 7.57905639,3.48897093 C7.6180277,2.31396123 6.69707896,1.3298393 5.52206442,1.29087691 C5.48279537,1.28981657 5.48279537,1.28981657 5.44351212,1.28972971 C4.20834042,1.29436733 3.2094922,2.29697864 3.2094922,3.53215906 L3.2094922,9.8 C3.2094922,11.0150264 4.19446576,12 5.4094922,12 L5.69068212,12 C6.7799244,12 7.67818681,11.1465872 7.73392783,10.0587721 L8.73261758,10.1099462 C8.64963167,11.7294594 7.31232003,13 5.69068212,13 L5.4094922,13 C3.64218101,13 2.2094922,11.5673112 2.2094922,9.8 L2.2094922,3.53215906 C2.2094922,1.74616182 3.65376717,0.296445651 5.43975178,0.289729706 C5.49748897,0.289867764 5.49748897,0.289867764 5.55520528,0.29142622 C7.28220313,0.348691867 8.63578572,1.79512449 8.57850695,3.52211565 C8.56470112,3.93846729 8.55727836,4.18666847 8.5564619,4.25656804 Z" id="Path-27" transform="translate(5.471055, 6.644865) rotate(45.000000) translate(-5.471055, -6.644865) " />
                        <path d="M13.7905078,3.29172768 L12.7905998,3.30528881 L12.7769393,2.29805692 C12.7603465,1.07461219 11.7638355,0.0915246434 10.5402783,0.0915246434 C9.32525184,0.0915246434 8.34027829,1.07649819 8.34027829,2.29152464 L8.34027829,8.59152464 C8.34027829,9.80655109 9.32525184,10.7915246 10.5402783,10.7915246 L10.7241571,10.7915246 C11.7694367,10.7915246 12.6168033,9.94415809 12.6168033,8.89887848 C12.6168033,8.86714512 12.6160052,8.83541677 12.6144097,8.80372353 L13.6131451,8.75344739 C13.6155835,8.80188609 13.6168033,8.85037845 13.6168033,8.89887848 C13.6168033,10.4964428 12.3217215,11.7915246 10.7241571,11.7915246 L10.5402783,11.7915246 C8.77296709,11.7915246 7.34027829,10.3588358 7.34027829,8.59152464 L7.34027829,2.29152464 C7.34027829,0.524213444 8.77296709,-0.908475357 10.5402783,-0.908475357 C12.3108316,-0.908475357 13.7528366,0.514105323 13.7768473,2.2844958 L13.7905078,3.29172768 Z" id="Path-27" transform="translate(10.565393, 5.441525) scale(-1, -1) rotate(45.000000) translate(-10.565393, -5.441525) " />
                    </g>
                </g>
            </g>
        </symbol>
    </defs>
    <g>
        <use xlink:href="#asset" />
    </g>
</svg>
