<svg width="12px" height="16px" viewBox="0 0 12 16" version="1.1" xmlns="http://www.w3.org/2000/svg" xmlns:xlink="http://www.w3.org/1999/xlink">
    <!-- Generator: Sketch 55.2 (78181) - https://sketchapp.com -->
    <title>UI Icon/Icon/locked/$ui-05</title>
    <desc>Created with Sketch.</desc>

    <defs>
        <symbol id="asset" viewBox="0 0 12 16">
            <g id="3.-Brand-Style" stroke="none" stroke-width="1" fill="none" fill-rule="evenodd">
                <g id="UI-Icons" transform="translate(-515.000000, -417.000000)" fill="currentColor" fill-rule="nonzero">
                    <g id="UI-Icon/locked/$ui-05" transform="translate(515.000000, 417.000000)">
                        <path d="M2,7 L2,4 C2,1.790861 3.790861,0 6,0 C8.209139,0 10,1.790861 10,4 L10,7 L10.5,7 C11.3284271,7 12,7.67157288 12,8.5 L12,14.5 C12,15.3284271 11.3284271,16 10.5,16 L1.5,16 C0.671572875,16 0,15.3284271 0,14.5 L0,8.5 C0,7.67157288 0.671572875,7 1.5,7 L2,7 Z M3,7 L9,7 L9,4 C9,2.34314575 7.65685425,1 6,1 C4.34314575,1 3,2.34314575 3,4 L3,7 Z M1.5,8 C1.22385763,8 1,8.22385763 1,8.5 L1,14.5 C1,14.7761424 1.22385763,15 1.5,15 L10.5,15 C10.7761424,15 11,14.7761424 11,14.5 L11,8.5 C11,8.22385763 10.7761424,8 10.5,8 L1.5,8 Z" id="Combined-Shape" />
                    </g>
                </g>
            </g>
        </symbol>
    </defs>
    <g>
        <use xlink:href="#asset" />
    </g>
</svg>
