<svg width="16px" height="16px" viewBox="0 0 16 16" version="1.1" xmlns="http://www.w3.org/2000/svg" xmlns:xlink="http://www.w3.org/1999/xlink">
    <!-- Generator: Sketch 55.2 (78181) - https://sketchapp.com -->
    <title>UI Icon/Icon/pause/$ui-05</title>
    <desc>Created with Sketch.</desc>

    <defs>
        <symbol id="asset" viewBox="0 0 16 16">
            <g id="3.-Brand-Style" stroke="none" stroke-width="1" fill="none" fill-rule="evenodd">
                <g id="UI-Icons" transform="translate(-940.000000, -417.000000)" fill="currentColor">
                    <g id="UI-Icon/pause--outline/$ui-05" transform="translate(940.000000, 417.000000)">
                        <rect id="Rectangle-11" fill-rule="evenodd" x="5" y="5" width="2" height="6" />
                        <rect id="Rectangle-11" fill-rule="evenodd" x="9" y="5" width="2" height="6" />
                        <path d="M8,14.5 C11.5898509,14.5 14.5,11.5898509 14.5,8 C14.5,4.41014913 11.5898509,1.5 8,1.5 C4.41014913,1.5 1.5,4.41014913 1.5,8 C1.5,11.5898509 4.41014913,14.5 8,14.5 Z M8,16 C3.581722,16 0,12.418278 0,8 C0,3.581722 3.581722,0 8,0 C12.418278,0 16,3.581722 16,8 C16,12.418278 12.418278,16 8,16 Z" id="Oval-13" fill-rule="nonzero" />
                    </g>
                </g>
            </g>
        </symbol>
    </defs>
    <g>
        <use xlink:href="#asset" />
    </g>
</svg>
