<svg width="16px" height="11px" viewBox="0 0 16 11" version="1.1" xmlns="http://www.w3.org/2000/svg" xmlns:xlink="http://www.w3.org/1999/xlink">
    <!-- Generator: Sketch 55.2 (78181) - https://sketchapp.com -->
    <title>UI Icon/Icon/purchase/$ui-05</title>
    <desc>Created with Sketch.</desc>

    <defs>
        <symbol id="asset" viewBox="0 0 16 11">
            <g id="3.-Brand-Style" stroke="none" stroke-width="1" fill="none" fill-rule="evenodd">
                <g id="UI-Icons" transform="translate(-330.000000, -480.000000)" fill="currentColor" fill-rule="nonzero">
                    <g id="UI-Icon/purchase/$ui-05" transform="translate(330.000000, 480.000000)">
                        <path d="M15,3 L15,1 L1,1 L1,3 L15,3 Z M15,4 L1,4 L1,10 L15,10 L15,4 Z M0.75,0 L15.25,0 C15.6642136,0 16,0.335786438 16,0.75 L16,10.25 C16,10.6642136 15.6642136,11 15.25,11 L0.75,11 C0.335786438,11 0,10.6642136 0,10.25 L0,0.75 C0,0.335786438 0.335786438,0 0.75,0 Z" id="CC-outline" />
                        <polygon id="line" points="2 9 2 8 7 8 7 9" />
                    </g>
                </g>
            </g>
        </symbol>
    </defs>
    <g>
        <use xlink:href="#asset" />
    </g>
</svg>
