<svg width="13px" height="16px" viewBox="0 0 13 16" version="1.1" xmlns="http://www.w3.org/2000/svg" xmlns:xlink="http://www.w3.org/1999/xlink">
    <!-- Generator: Sketch 55.2 (78181) - https://sketchapp.com -->
    <title>UI Icon/Glyph/restart/$ui-05</title>
    <desc>Created with Sketch.</desc>

    <defs>
        <symbol id="asset" viewBox="0 0 13 16">
            <g id="3.-Brand-Style" stroke="none" stroke-width="1" fill="none" fill-rule="evenodd">
                <g id="UI-Icons" transform="translate(-391.000000, -477.000000)" fill="currentColor" fill-rule="nonzero">
                    <g id="UI-Icon/restart/$ui-05" transform="translate(391.000000, 477.000000)">
                        <path d="M10.9476177,3 L8.54213345,0.726810516 L9.22897148,4.05065442e-14 L13,3.56363279 L9.22800918,7.10779198 L8.5432543,6.37901853 L11.0752049,4 L6.5,4 C3.46243388,4 1,6.46243388 1,9.5 C1,12.5375661 3.46243388,15 6.5,15 C9.53756612,15 12,12.5375661 12,9.5 L13,9.5 C13,13.0898509 10.0898509,16 6.5,16 C2.91014913,16 0,13.0898509 0,9.5 C-1.77635684e-15,5.91014913 2.91014913,3 6.5,3 L10.9476177,3 Z" id="restart" />
                    </g>
                </g>
            </g>
        </symbol>
    </defs>
    <g>
        <use xlink:href="#asset" />
    </g>
</svg>
