<svg width="21px" height="21px" viewBox="0 0 21 21" version="1.1" xmlns="http://www.w3.org/2000/svg" xmlns:xlink="http://www.w3.org/1999/xlink">
    <!-- Generator: Sketch 55.2 (78181) - https://sketchapp.com -->
    <title>Group 20</title>
    <desc>Created with Sketch.</desc>

    <defs>
        <symbol id="asset" viewBox="0 0 21 21">
            <g id="3.-Brand-Style" stroke="none" stroke-width="1" fill="none" fill-rule="evenodd">
                <g id="UI-Icons" transform="translate(-571.000000, -534.000000)">
                    <g id="Group-20" transform="translate(572.000000, 535.000000)">
                        <path d="M9.93689652,11.8469789 L12.006974,9.6401343 C12.1203268,9.51929234 12.3101793,9.51322125 12.4310213,9.62657414 C12.4319704,9.62746447 12.4329138,9.62836096 12.4338512,9.62926356 L12.8508375,10.0307354 C12.9684413,10.1439636 12.973918,10.3304457 12.8631618,10.4503805 L9.57455051,14.0115251 C9.46214353,14.1332475 9.27234421,14.1407991 9.15062185,14.0283921 C9.1448358,14.0230489 9.13926239,14.0174798 9.1339146,14.011698 L5.84013209,10.4505625 C5.72928198,10.3307148 5.73461214,10.1442288 5.85212669,10.0309083 L6.26880885,9.62909714 C6.38807506,9.51408744 6.57799321,9.51753802 6.69300291,9.63680424 C6.69390635,9.63774111 6.69480369,9.63868386 6.69569486,9.63963242 L8.77015366,11.8476711 L8.77015366,5.05 C8.77015366,4.88431458 8.90446824,4.75 9.07015366,4.75 L9.63689652,4.75 C9.80258194,4.75 9.93689652,4.88431458 9.93689652,5.05 L9.93689652,11.8469789 Z" id="arrow" fill="currentColor" fill-rule="nonzero" />
                        <circle id="Oval" stroke="currentColor" stroke-width="0.6" cx="9.5" cy="9.5" r="9.5" />
                    </g>
                </g>
            </g>
        </symbol>
    </defs>
    <g>
        <use xlink:href="#asset" />
    </g>
</svg>
