<svg width="16px" height="16px" viewBox="0 0 16 16" version="1.1" xmlns="http://www.w3.org/2000/svg" xmlns:xlink="http://www.w3.org/1999/xlink">
    <!-- Generator: Sketch 55.2 (78181) - https://sketchapp.com -->
    <title>UI Icon/Icon/search/$ui-05</title>
    <desc>Created with Sketch.</desc>

    <defs>
        <symbol id="asset" viewBox="0 0 16 16">
            <g id="3.-Brand-Style" stroke="none" stroke-width="1" fill="none" fill-rule="evenodd">
                <g id="UI-Icons" transform="translate(-513.000000, -477.000000)" fill="currentColor" fill-rule="nonzero">
                    <g id="UI-Icon/Icon/search/$ui-05" transform="translate(513.000000, 477.000000)">
                        <path d="M6.5,12 C9.53756612,12 12,9.53756612 12,6.5 C12,3.46243388 9.53756612,1 6.5,1 C3.46243388,1 1,3.46243388 1,6.5 C1,9.53756612 3.46243388,12 6.5,12 Z M11.435871,10.7295043 L15.9988346,15.2874096 L15.29212,15.9949085 L10.7287073,11.4365544 C9.59199315,12.4111864 8.11475897,13 6.5,13 C2.91014913,13 -4.54747351e-13,10.0898509 -4.54747351e-13,6.5 C-4.54747351e-13,2.91014913 2.91014913,0 6.5,0 C10.0898509,0 13,2.91014913 13,6.5 C13,8.11513637 12.4109111,9.59268367 11.435871,10.7295043 Z" id="Search" />
                    </g>
                </g>
            </g>
        </symbol>
    </defs>
    <g>
        <use xlink:href="#asset" />
    </g>
</svg>
