<svg width="17px" height="16px" viewBox="0 0 17 16" version="1.1" xmlns="http://www.w3.org/2000/svg" xmlns:xlink="http://www.w3.org/1999/xlink">
    <!-- Generator: Sketch 55.2 (78181) - https://sketchapp.com -->
    <title>UI Icon/hide/$ui-05</title>
    <desc>Created with Sketch.</desc>

    <defs>
        <symbol id="asset" viewBox="0 0 17 16">
            <g id="3.-Brand-Style" stroke="none" stroke-width="1" fill="none" fill-rule="evenodd">
                <g id="UI-Icons" transform="translate(-330.000000, -537.000000)" fill="currentColor" fill-rule="nonzero">
                    <g id="UI-Icon/visibility-off/$ui-05" transform="translate(330.000000, 537.000000)">
                        <path d="M11.8499203,3.44426998 L15.296856,0 L16.0036892,0.707380261 L12.7195009,3.98902868 C13.9807017,4.89097763 15.0961974,6.2009343 16.0659879,7.91889868 C14.0242795,11.6353867 11.3367586,13.4936307 8.00342526,13.4936307 C6.61096792,13.4936307 5.33686306,13.169359 4.18111068,12.5208156 L0.706833196,15.9924062 L0,15.2850259 L3.32356304,11.9640332 C2.07461541,11.0370187 0.979456844,9.68864057 0.0380873289,7.91889868 C2.01497928,4.30205334 4.67009192,2.49363067 8.00342526,2.49363067 C9.39875236,2.49363067 10.6809174,2.81051044 11.8499203,3.44426998 Z M4.92098421,11.7815143 C5.86518595,12.2588572 6.89122383,12.4936307 8.00342526,12.4936307 C10.798111,12.4936307 13.0790831,11.0109691 14.9106242,7.92591663 C14.0444856,6.50863115 13.0770526,5.43954603 12.001186,4.70678807 L10.4498851,6.25688928 C10.7984555,6.74701707 11.0034253,7.34638724 11.0034253,7.99363067 C11.0034253,9.65048492 9.66027951,10.9936307 8.00342526,10.9936307 C7.35534928,10.9936307 6.75526981,10.7881332 6.26479306,10.4387447 L4.92098421,11.7815143 Z M4.03961258,11.2485374 L5.55779136,9.73153277 C5.20871882,9.24119068 5.00342526,8.64138512 5.00342526,7.99363067 C5.00342526,6.33677642 6.34657101,4.99363067 8.00342526,4.99363067 C8.65201227,4.99363067 9.25252706,5.1994523 9.74321753,5.54934347 L11.1066603,4.1869552 C10.1517911,3.72238154 9.11879685,3.49363067 8.00342526,3.49363067 C5.20559918,3.49363067 2.95647449,4.93257545 1.18443033,7.92575408 C2.02673209,9.39035813 2.97601639,10.4935512 4.03961258,11.2485374 Z M6.9874,9.71669655 C7.28516588,9.89265657 7.63250368,9.99363067 8.00342526,9.99363067 C9.10799476,9.99363067 10.0034253,9.09820017 10.0034253,7.99363067 C10.0034253,7.62326217 9.90275206,7.27640716 9.72727776,6.97893773 L6.9874,9.71669655 Z M6.2803102,9.0095727 L9.02069904,6.27130319 C8.72265574,6.09488728 8.37486537,5.99363067 8.00342526,5.99363067 C6.89885576,5.99363067 6.00342526,6.88906117 6.00342526,7.99363067 C6.00342526,8.36451769 6.10438054,8.71182534 6.2803102,9.0095727 Z" id="hide" />
                    </g>
                </g>
            </g>
        </symbol>
    </defs>
    <g>
        <use xlink:href="#asset" />
    </g>
</svg>
