<svg width="15px" height="16px" viewBox="0 0 15 16" version="1.1" xmlns="http://www.w3.org/2000/svg" xmlns:xlink="http://www.w3.org/1999/xlink">
    <!-- Generator: Sketch 55.2 (78181) - https://sketchapp.com -->
    <title>UI Icon/close/Blue</title>
    <desc>Created with Sketch.</desc>

    <defs>
        <symbol id="asset" viewBox="0 0 15 16">
            <g id="3.-Brand-Style" stroke="none" stroke-width="1" fill="none" fill-rule="evenodd">
                <g id="UI-Icons" transform="translate(-636.000000, -537.000000)" fill="currentColor">
                    <g id="UI-Icon/close/Blue" transform="translate(635.000000, 537.000000)">
                        <g id="Group-36">
                            <path d="M-1.501,7.6 L17.651,7.6 C17.8713616,7.6 18.05,7.77863838 18.05,7.999 C18.05,8.21936162 17.8713616,8.398 17.651,8.398 L-1.501,8.398 C-1.72136162,8.398 -1.9,8.21936162 -1.9,7.999 C-1.9,7.77863838 -1.72136162,7.6 -1.501,7.6 Z" id="Rectangle" transform="translate(8.075000, 7.999000) rotate(-45.000000) translate(-8.075000, -7.999000) " />
                            <path d="M-1.501,7.6 L17.651,7.6 C17.8713616,7.6 18.05,7.77863838 18.05,7.999 C18.05,8.21936162 17.8713616,8.398 17.651,8.398 L-1.501,8.398 C-1.72136162,8.398 -1.9,8.21936162 -1.9,7.999 C-1.9,7.77863838 -1.72136162,7.6 -1.501,7.6 Z" id="Rectangle-Copy-4" transform="translate(8.075000, 7.999000) scale(-1, 1) rotate(-45.000000) translate(-8.075000, -7.999000) " />
                        </g>
                    </g>
                </g>
            </g>
        </symbol>
    </defs>
    <g>
        <use xlink:href="#asset" />
    </g>
</svg>
