<?xml version="1.0" encoding="UTF-8"?>
<svg width="1440px" height="600px" viewBox="0 0 1440 600" version="1.1" xmlns="http://www.w3.org/2000/svg" xmlns:xlink="http://www.w3.org/1999/xlink">
    <!-- Generator: Sketch 57.1 (83088) - https://sketch.com -->
    <title>Radian / Organisms / One Up / Illustration 2 / Desktop Copy</title>
    <desc>Created with Sketch.</desc>
    <g id="Radian-/-Organisms-/-One-Up-/-Illustration-2-/-Desktop-Copy" stroke="none" stroke-width="1" fill="none" fill-rule="evenodd">
        <g id="Group-229" transform="translate(-59.000000, -0.404596)">
            <g id="Group-990" transform="translate(122.000000, -182.000000)">
                <path d="M432,710.404596 L411.465395,689.871495 L381,659.404596" id="Stroke-1" stroke="#09B9B3" stroke-width="3" stroke-dasharray="5"></path>
                <path d="M382.400525,716.999727 L380,719.404596 L411.029298,690.140275 L426.257242,675.85183 L436.653859,686.109535 L463,659.95027 L453.384138,650.404596" id="Stroke-2" stroke="#09B9B3" stroke-width="3" stroke-dasharray="5"></path>
                <path d="M469,635.300039 L453.388247,650.053364 L441.279742,661.404596 L411,631.236995 L436.228611,607.404596" id="Stroke-3" stroke="#09B9B3" stroke-width="3" stroke-dasharray="5"></path>
                <path d="M355,591.545658 L381.151358,617.404596 L389.517487,609.580612 L413,587.404596" id="Stroke-4" stroke="#09B9B3" stroke-width="3" stroke-dasharray="5"></path>
                <path d="M353.663685,686.404596 L380.992853,660.273901 L396,645.978647 L373.941044,623.796309 L359.000741,638.031948 L333.228082,611.964537 L304.577495,582.990658 L304,582.404596" id="Stroke-5" stroke="#09B9B3" stroke-width="3" stroke-dasharray="5"></path>
                <path d="M333,611.404596 L311,632.404596" id="Stroke-6" stroke="#09B9B3" stroke-width="3" stroke-dasharray="5"></path>
                <path d="M319,568.964853 L348.085257,598.404596 L354.918789,591.871637 L363.232685,583.924094 L350.655032,571.107214 L350.659114,571.103071 L370,552.404596" id="Stroke-7" stroke="#09B9B3" stroke-width="3" stroke-dasharray="5"></path>
                <path d="M895,248.404596 L918.611608,272.00879 L949,302.404596" id="Stroke-8" stroke="#09B9B3" stroke-width="3" stroke-dasharray="5"></path>
                <path d="M949,243.404596 L917.970415,272.668916 L902.743014,286.957361 L892.346454,276.699656 L866,302.859377 L875.616268,312.404596" id="Stroke-9" stroke="#09B9B3" stroke-width="3" stroke-dasharray="5"></path>
                <path d="M860,327.508917 L875.612211,312.755922 L887.720716,301.404596 L918,331.571995 L892.771389,355.404596" id="Stroke-10" stroke="#09B9B3" stroke-width="3" stroke-dasharray="5"></path>
                <path d="M975,371.263533 L948.848642,345.404596 L940.482513,353.228123 L917,375.404596" id="Stroke-11" stroke="#09B9B3" stroke-width="3" stroke-dasharray="5"></path>
                <path d="M976.336315,276.404596 L949.006692,302.535634 L934,316.830366 L956.058956,339.013064 L970.999259,324.77703 L996.771918,350.844784 L1025.4225,379.818077 L1026,380.404596" id="Stroke-12" stroke="#09B9B3" stroke-width="3" stroke-dasharray="5"></path>
                <path d="M997,351.404596 L1019,330.404596" id="Stroke-13" stroke="#09B9B3" stroke-width="3" stroke-dasharray="5"></path>
                <path d="M1011,394.844338 L981.914289,365.404596 L975.081211,371.937554 L966.767315,379.885097 L979.344515,392.701977 L979.340433,392.70612 L960,411.404596" id="Stroke-14" stroke="#09B9B3" stroke-width="3" stroke-dasharray="5"></path>
                <path d="M706,149.404596 L811,240.404596" id="Stroke-15" stroke="#01244A" stroke-width="3"></path>
                <path d="M624,149.404596 L508,249.404596" id="Stroke-17" stroke="#01244A" stroke-width="3"></path>
                <g id="Group-989" transform="translate(0.000000, 0.404596)">
                    <path d="M494.449193,246.150595 C483.682143,243.538705 472.837392,250.151409 470.22573,260.921284 C467.614525,271.690701 474.225952,282.538755 484.992544,285.150645 C495.759594,287.762992 506.604345,281.149831 509.216007,270.380413 C511.827212,259.610538 505.215785,248.762485 494.449193,246.150595 Z" id="Stroke-19" stroke="#01244A" stroke-width="3"></path>
                    <path d="M493.209453,231.164664 L497.51545,227.248886" id="Stroke-21" stroke="#01244A" stroke-width="2.5"></path>
                    <path d="M496.330787,234.599119 L500.636784,230.683341" id="Stroke-23" stroke="#01244A" stroke-width="2.5"></path>
                    <path d="M499.45212,238.033345 L503.758118,234.117567" id="Stroke-25" stroke="#01244A" stroke-width="2.5"></path>
                    <path d="M502.573454,241.4678 L506.879452,237.552022" id="Stroke-27" stroke="#01244A" stroke-width="2.5"></path>
                    <path d="M505.694788,244.902026 L510.000785,240.986249" id="Stroke-29" stroke="#01244A" stroke-width="2.5"></path>
                    <path d="M508.816122,248.336253 L513.122119,244.420475" id="Stroke-31" stroke="#01244A" stroke-width="2.5"></path>
                    <path d="M511.937456,251.770708 L516.243453,247.85493" id="Stroke-33" stroke="#01244A" stroke-width="2.5"></path>
                    <path d="M515.058789,255.20498 L519.364787,251.289202" id="Stroke-35" stroke="#01244A" stroke-width="2.5"></path>
                    <path d="M518.180123,258.639206 L522.48612,254.723428" id="Stroke-37" stroke="#01244A" stroke-width="2.5"></path>
                    <path d="M521.301457,262.073661 L525.607454,258.157883" id="Stroke-39" stroke="#01244A" stroke-width="2.5"></path>
                    <path d="M524.422791,265.507887 L528.728788,261.592109" id="Stroke-41" stroke="#01244A" stroke-width="2.5"></path>
                    <path d="M443.984468,275.927102 L454.732778,266.15343" id="Stroke-43" stroke="#01244A" stroke-width="2.5"></path>
                    <path d="M447.105802,279.361374 L457.854112,269.587702" id="Stroke-45" stroke="#01244A" stroke-width="2.5"></path>
                    <path d="M450.227136,282.7956 L460.975446,273.021929" id="Stroke-47" stroke="#01244A" stroke-width="2.5"></path>
                    <path d="M453.34847,286.230055 L464.09678,276.456384" id="Stroke-49" stroke="#01244A" stroke-width="2.5"></path>
                    <path d="M456.469803,289.664282 L467.218114,279.89061" id="Stroke-51" stroke="#01244A" stroke-width="2.5"></path>
                    <path d="M459.591137,293.098508 L470.339447,283.324836" id="Stroke-53" stroke="#01244A" stroke-width="2.5"></path>
                    <path d="M462.712471,296.532963 L473.460781,286.759291" id="Stroke-55" stroke="#01244A" stroke-width="2.5"></path>
                    <path d="M465.833805,299.967235 L476.582115,290.193563" id="Stroke-57" stroke="#01244A" stroke-width="2.5"></path>
                    <path d="M468.955184,303.40169 L479.703494,293.628018" id="Stroke-59" stroke="#01244A" stroke-width="2.5"></path>
                    <path d="M472.076518,306.835916 L482.824828,297.062244" id="Stroke-61" stroke="#01244A" stroke-width="2.5"></path>
                    <path d="M475.197852,310.270142 L485.946162,300.496471" id="Stroke-63" stroke="#01244A" stroke-width="2.5"></path>
                    <path d="M524.234435,269.463166 L528.149186,273.77075" id="Stroke-65" stroke="#01244A" stroke-width="2.5"></path>
                    <path d="M520.801109,272.585318 L524.71586,276.892903" id="Stroke-67" stroke="#01244A" stroke-width="2.5"></path>
                    <path d="M517.367555,275.707471 L521.282306,280.015055" id="Stroke-69" stroke="#01244A" stroke-width="2.5"></path>
                    <path d="M513.93423,278.829624 L517.848981,283.137208" id="Stroke-71" stroke="#01244A" stroke-width="2.5"></path>
                    <path d="M510.500904,281.951777 L514.415655,286.259361" id="Stroke-73" stroke="#01244A" stroke-width="2.5"></path>
                    <path d="M507.06735,285.073929 L510.982101,289.381514" id="Stroke-75" stroke="#01244A" stroke-width="2.5"></path>
                    <path d="M503.633979,288.196082 L507.54873,292.503666" id="Stroke-77" stroke="#01244A" stroke-width="2.5"></path>
                    <path d="M500.200654,291.318235 L504.115404,295.625819" id="Stroke-79" stroke="#01244A" stroke-width="2.5"></path>
                    <path d="M496.7671,294.440388 L500.68185,298.747972" id="Stroke-81" stroke="#01244A" stroke-width="2.5"></path>
                    <path d="M493.333774,297.56254 L497.248525,301.870125" id="Stroke-83" stroke="#01244A" stroke-width="2.5"></path>
                    <path d="M489.90022,300.684693 L493.814971,304.992277" id="Stroke-85" stroke="#01244A" stroke-width="2.5"></path>
                    <path d="M485.325561,226.652627 L489.240312,230.960211" id="Stroke-87" stroke="#01244A" stroke-width="2.5"></path>
                    <path d="M481.892007,229.77478 L485.806758,234.082364" id="Stroke-89" stroke="#01244A" stroke-width="2.5"></path>
                    <path d="M478.458681,232.896933 L482.373432,237.204517" id="Stroke-91" stroke="#01244A" stroke-width="2.5"></path>
                    <path d="M475.025356,236.019085 L478.940107,240.32667" id="Stroke-93" stroke="#01244A" stroke-width="2.5"></path>
                    <path d="M471.591756,239.141238 L475.506507,243.448822" id="Stroke-95" stroke="#01244A" stroke-width="2.5"></path>
                    <path d="M468.158431,242.263391 L472.073181,246.570975" id="Stroke-97" stroke="#01244A" stroke-width="2.5"></path>
                    <path d="M464.724877,245.385544 L468.639627,249.693128" id="Stroke-99" stroke="#01244A" stroke-width="2.5"></path>
                    <path d="M461.291506,248.507697 L465.206256,252.815281" id="Stroke-101" stroke="#01244A" stroke-width="2.5"></path>
                    <path d="M457.85818,251.629849 L461.772931,255.937433" id="Stroke-103" stroke="#01244A" stroke-width="2.5"></path>
                    <path d="M454.424626,254.752002 L458.339377,259.059586" id="Stroke-105" stroke="#01244A" stroke-width="2.5"></path>
                    <path d="M450.991301,257.874155 L454.906051,262.181739" id="Stroke-107" stroke="#01244A" stroke-width="2.5"></path>
                    <polygon id="Stroke-109" stroke="#09B9B3" stroke-width="3" points="488.038463 300.99567 454.385319 263.96791 491.403366 230.305479 525.05651 267.333696"></polygon>
                    <path d="M824.399418,236.619825 C835.166468,234.007935 846.011219,240.620639 848.622424,251.390514 C851.234086,262.159931 844.622659,273.007985 833.855609,275.620332 C823.089017,278.232222 812.243809,271.619061 809.632604,260.849643 C807.021399,250.079768 813.632368,239.231715 824.399418,236.619825 Z" id="Stroke-111" stroke="#01244A" stroke-width="3"></path>
                    <path d="M825.638929,221.634122 L821.332475,217.718345" id="Stroke-113" stroke="#01244A" stroke-width="2.5"></path>
                    <path d="M822.517596,225.068349 L818.211141,221.152571" id="Stroke-115" stroke="#01244A" stroke-width="2.5"></path>
                    <path d="M819.396262,228.502804 L815.089807,224.587026" id="Stroke-117" stroke="#01244A" stroke-width="2.5"></path>
                    <path d="M816.274928,231.93703 L811.968474,228.021252" id="Stroke-119" stroke="#01244A" stroke-width="2.5"></path>
                    <path d="M813.153594,235.371256 L808.84714,231.455478" id="Stroke-121" stroke="#01244A" stroke-width="2.5"></path>
                    <path d="M810.03226,238.805711 L805.725806,234.889933" id="Stroke-123" stroke="#01244A" stroke-width="2.5"></path>
                    <path d="M806.910927,242.239983 L802.604472,238.324205" id="Stroke-125" stroke="#01244A" stroke-width="2.5"></path>
                    <path d="M803.789593,245.674438 L799.483139,241.75866" id="Stroke-127" stroke="#01244A" stroke-width="2.5"></path>
                    <path d="M800.668259,249.108664 L796.361805,245.192887" id="Stroke-129" stroke="#01244A" stroke-width="2.5"></path>
                    <path d="M797.546925,252.542891 L793.240471,248.627113" id="Stroke-131" stroke="#01244A" stroke-width="2.5"></path>
                    <path d="M794.425591,255.977346 L790.119137,252.061568" id="Stroke-133" stroke="#01244A" stroke-width="2.5"></path>
                    <path d="M874.863914,266.396378 L864.115604,256.622706" id="Stroke-135" stroke="#01244A" stroke-width="2.5"></path>
                    <path d="M871.74258,269.830833 L860.99427,260.057161" id="Stroke-137" stroke="#01244A" stroke-width="2.5"></path>
                    <path d="M868.621247,273.265059 L857.872936,263.491387" id="Stroke-139" stroke="#01244A" stroke-width="2.5"></path>
                    <path d="M865.499913,276.699285 L854.751602,266.925614" id="Stroke-141" stroke="#01244A" stroke-width="2.5"></path>
                    <path d="M862.378579,280.13374 L851.630269,270.360068" id="Stroke-143" stroke="#01244A" stroke-width="2.5"></path>
                    <path d="M859.257245,283.567967 L848.508935,273.794295" id="Stroke-145" stroke="#01244A" stroke-width="2.5"></path>
                    <path d="M856.135911,287.002239 L845.387601,277.228567" id="Stroke-147" stroke="#01244A" stroke-width="2.5"></path>
                    <path d="M853.014578,290.436693 L842.266267,280.663022" id="Stroke-149" stroke="#01244A" stroke-width="2.5"></path>
                    <path d="M849.893244,293.87092 L839.144934,284.097248" id="Stroke-151" stroke="#01244A" stroke-width="2.5"></path>
                    <path d="M846.77191,297.305146 L836.0236,287.531474" id="Stroke-153" stroke="#01244A" stroke-width="2.5"></path>
                    <path d="M843.650576,300.739601 L832.902266,290.965929" id="Stroke-155" stroke="#01244A" stroke-width="2.5"></path>
                    <path d="M794.613947,259.932624 L790.699197,264.239751" id="Stroke-157" stroke="#01244A" stroke-width="2.5"></path>
                    <path d="M798.047319,263.054777 L794.132568,267.361904" id="Stroke-159" stroke="#01244A" stroke-width="2.5"></path>
                    <path d="M801.481101,266.17693 L797.56635,270.484057" id="Stroke-161" stroke="#01244A" stroke-width="2.5"></path>
                    <path d="M804.914427,269.299082 L800.999676,273.606209" id="Stroke-163" stroke="#01244A" stroke-width="2.5"></path>
                    <path d="M808.347752,272.421235 L804.433001,276.728362" id="Stroke-165" stroke="#01244A" stroke-width="2.5"></path>
                    <path d="M811.781078,275.543388 L807.866327,279.850515" id="Stroke-167" stroke="#01244A" stroke-width="2.5"></path>
                    <path d="M815.214403,278.665541 L811.299652,282.972668" id="Stroke-169" stroke="#01244A" stroke-width="2.5"></path>
                    <path d="M818.647774,281.787693 L814.733024,286.09482" id="Stroke-171" stroke="#01244A" stroke-width="2.5"></path>
                    <path d="M822.081511,284.909846 L818.16676,289.216973" id="Stroke-173" stroke="#01244A" stroke-width="2.5"></path>
                    <path d="M825.514882,288.031999 L821.600132,292.339126" id="Stroke-175" stroke="#01244A" stroke-width="2.5"></path>
                    <path d="M828.948208,291.154152 L825.033457,295.461279" id="Stroke-177" stroke="#01244A" stroke-width="2.5"></path>
                    <path d="M833.522867,217.122086 L829.608116,221.42967" id="Stroke-179" stroke="#01244A" stroke-width="2.5"></path>
                    <path d="M836.95665,220.244238 L833.041899,224.551823" id="Stroke-181" stroke="#01244A" stroke-width="2.5"></path>
                    <path d="M840.389975,223.366391 L836.475224,227.673975" id="Stroke-183" stroke="#01244A" stroke-width="2.5"></path>
                    <path d="M843.823301,226.488544 L839.90855,230.796128" id="Stroke-185" stroke="#01244A" stroke-width="2.5"></path>
                    <path d="M847.256626,229.610697 L843.341875,233.918281" id="Stroke-187" stroke="#01244A" stroke-width="2.5"></path>
                    <path d="M850.689952,232.73285 L846.775201,237.040434" id="Stroke-189" stroke="#01244A" stroke-width="2.5"></path>
                    <path d="M854.123323,235.855002 L850.208572,240.162586" id="Stroke-191" stroke="#01244A" stroke-width="2.5"></path>
                    <path d="M857.557105,238.977155 L853.642355,243.284739" id="Stroke-193" stroke="#01244A" stroke-width="2.5"></path>
                    <path d="M860.990431,242.099308 L857.07568,246.406892" id="Stroke-195" stroke="#01244A" stroke-width="2.5"></path>
                    <path d="M864.423756,245.221461 L860.509006,249.529045" id="Stroke-197" stroke="#01244A" stroke-width="2.5"></path>
                    <path d="M867.857082,248.343613 L863.942331,252.651198" id="Stroke-199" stroke="#01244A" stroke-width="2.5"></path>
                    <polygon id="Stroke-201" stroke="#09B9B3" stroke-width="3" points="830.80992 291.464899 864.463521 254.43714 827.445474 220.775166 793.791873 257.802926"></polygon>
                    <path d="M704.040374,813.502959 L802.719058,728.450801" id="Stroke-203" stroke="#01244A" stroke-width="3"></path>
                    <path d="M625.784713,813.598053 L515.451819,718.537231" id="Stroke-207" stroke="#01244A" stroke-width="3"></path>
                    <path d="M501.762212,721.105872 C490.995162,723.718219 480.150411,717.105058 477.538749,706.335183 C474.927544,695.565765 481.538971,684.717712 492.305564,682.105822 C503.072614,679.493475 513.917364,686.106636 516.529026,696.876511 C519.140231,707.646386 512.528805,718.493982 501.762212,721.105872 Z" id="Stroke-211" stroke="#01244A" stroke-width="3"></path>
                    <path d="M500.522472,736.09162 L504.82847,740.007398" id="Stroke-213" stroke="#01244A" stroke-width="2.5"></path>
                    <path d="M503.643806,732.657348 L507.949803,736.573126" id="Stroke-215" stroke="#01244A" stroke-width="2.5"></path>
                    <path d="M506.76514,729.223121 L511.071137,733.138899" id="Stroke-217" stroke="#01244A" stroke-width="2.5"></path>
                    <path d="M509.886474,725.788895 L514.192471,729.704673" id="Stroke-219" stroke="#01244A" stroke-width="2.5"></path>
                    <path d="M513.007807,722.354669 L517.313805,726.270447" id="Stroke-221" stroke="#01244A" stroke-width="2.5"></path>
                    <path d="M516.129141,718.920443 L520.435139,722.83622" id="Stroke-223" stroke="#01244A" stroke-width="2.5"></path>
                    <path d="M519.250475,715.485759 L523.556472,719.401537" id="Stroke-225" stroke="#01244A" stroke-width="2.5"></path>
                    <path d="M522.371809,712.051533 L526.677806,715.967311" id="Stroke-227" stroke="#01244A" stroke-width="2.5"></path>
                    <path d="M525.493143,708.617261 L529.79914,712.533039" id="Stroke-229" stroke="#01244A" stroke-width="2.5"></path>
                    <path d="M528.614476,705.183034 L532.920474,709.098812" id="Stroke-231" stroke="#01244A" stroke-width="2.5"></path>
                    <path d="M531.73581,701.748808 L536.041807,705.664586" id="Stroke-233" stroke="#01244A" stroke-width="2.5"></path>
                    <path d="M452.380363,692.314047 L462.045432,701.103402" id="Stroke-235" stroke="#01244A" stroke-width="2.5"></path>
                    <path d="M455.501697,688.87982 L465.166766,697.669176" id="Stroke-237" stroke="#01244A" stroke-width="2.5"></path>
                    <path d="M458.62303,685.445548 L468.288557,694.234904" id="Stroke-239" stroke="#01244A" stroke-width="2.5"></path>
                    <path d="M461.744364,682.011322 L471.409891,690.800677" id="Stroke-241" stroke="#01244A" stroke-width="2.5"></path>
                    <path d="M464.865698,678.576638 L474.531224,687.366451" id="Stroke-243" stroke="#01244A" stroke-width="2.5"></path>
                    <path d="M467.987032,675.142412 L477.652101,683.931768" id="Stroke-245" stroke="#01244A" stroke-width="2.5"></path>
                    <path d="M471.108366,671.708186 L480.773435,680.497541" id="Stroke-247" stroke="#01244A" stroke-width="2.5"></path>
                    <path d="M474.229699,668.27396 L483.894769,677.063315" id="Stroke-249" stroke="#01244A" stroke-width="2.5"></path>
                    <path d="M477.351033,664.839733 L487.016102,673.629089" id="Stroke-251" stroke="#01244A" stroke-width="2.5"></path>
                    <path d="M480.472367,661.405461 L490.137436,670.194817" id="Stroke-253" stroke="#01244A" stroke-width="2.5"></path>
                    <path d="M483.593701,657.970778 L493.25877,666.760133" id="Stroke-255" stroke="#01244A" stroke-width="2.5"></path>
                    <path d="M531.547454,697.79353 L535.462205,693.485945" id="Stroke-257" stroke="#01244A" stroke-width="2.5"></path>
                    <path d="M528.114129,694.671377 L532.02888,690.363793" id="Stroke-259" stroke="#01244A" stroke-width="2.5"></path>
                    <path d="M524.680575,691.549224 L528.595325,687.24164" id="Stroke-261" stroke="#01244A" stroke-width="2.5"></path>
                    <path d="M521.247249,688.427071 L525.162,684.119487" id="Stroke-263" stroke="#01244A" stroke-width="2.5"></path>
                    <path d="M517.813924,685.304919 L521.728675,680.997334" id="Stroke-265" stroke="#01244A" stroke-width="2.5"></path>
                    <path d="M514.38037,682.182766 L518.29512,677.875182" id="Stroke-267" stroke="#01244A" stroke-width="2.5"></path>
                    <path d="M510.946999,679.060613 L514.861749,674.753029" id="Stroke-269" stroke="#01244A" stroke-width="2.5"></path>
                    <path d="M507.513673,675.93846 L511.428424,671.630876" id="Stroke-271" stroke="#01244A" stroke-width="2.5"></path>
                    <path d="M504.080119,672.816308 L507.99487,668.508723" id="Stroke-273" stroke="#01244A" stroke-width="2.5"></path>
                    <path d="M500.646794,669.694155 L504.561544,665.386571" id="Stroke-275" stroke="#01244A" stroke-width="2.5"></path>
                    <path d="M497.21324,666.572002 L501.12799,662.264418" id="Stroke-277" stroke="#01244A" stroke-width="2.5"></path>
                    <path d="M492.63858,740.603611 L496.553331,736.296484" id="Stroke-279" stroke="#01244A" stroke-width="2.5"></path>
                    <path d="M489.205026,737.481458 L493.119777,733.174331" id="Stroke-281" stroke="#01244A" stroke-width="2.5"></path>
                    <path d="M485.771701,734.359305 L489.686452,730.052178" id="Stroke-283" stroke="#01244A" stroke-width="2.5"></path>
                    <path d="M482.338375,731.237153 L486.253126,726.930025" id="Stroke-285" stroke="#01244A" stroke-width="2.5"></path>
                    <path d="M478.904776,728.115 L482.819526,723.807873" id="Stroke-287" stroke="#01244A" stroke-width="2.5"></path>
                    <path d="M475.47145,724.992847 L479.386201,720.68572" id="Stroke-289" stroke="#01244A" stroke-width="2.5"></path>
                    <path d="M472.037896,721.870694 L475.952647,717.563567" id="Stroke-291" stroke="#01244A" stroke-width="2.5"></path>
                    <path d="M468.604571,718.748541 L472.519321,714.441414" id="Stroke-293" stroke="#01244A" stroke-width="2.5"></path>
                    <path d="M465.171199,715.626389 L469.08595,711.319262" id="Stroke-295" stroke="#01244A" stroke-width="2.5"></path>
                    <path d="M461.737645,712.504693 L465.652396,708.197109" id="Stroke-297" stroke="#01244A" stroke-width="2.5"></path>
                    <path d="M458.30432,709.38254 L462.219071,705.074956" id="Stroke-299" stroke="#01244A" stroke-width="2.5"></path>
                    <polygon id="Stroke-301" stroke="#09B9B3" stroke-width="3" points="495.351482 666.260843 461.698338 703.288603 498.716385 736.951034 532.369529 699.923274"></polygon>
                    <path d="M817.086399,730.636642 C827.853449,733.248532 838.698199,726.635828 841.309404,715.865953 C843.921066,705.096535 837.30964,694.248482 826.54259,691.636135 C815.775997,689.024245 804.930789,695.637406 802.319584,706.407281 C799.70838,717.176698 806.319349,728.024752 817.086399,730.636642 Z" id="Stroke-303" stroke="#01244A" stroke-width="3"></path>
                    <path d="M818.32591,745.622344 L814.019456,749.538122" id="Stroke-305" stroke="#01244A" stroke-width="2.5"></path>
                    <path d="M815.204576,742.188118 L810.898122,746.103896" id="Stroke-307" stroke="#01244A" stroke-width="2.5"></path>
                    <path d="M812.083242,738.753892 L807.776788,742.669669" id="Stroke-309" stroke="#01244A" stroke-width="2.5"></path>
                    <path d="M808.961909,735.319665 L804.655454,739.235443" id="Stroke-311" stroke="#01244A" stroke-width="2.5"></path>
                    <path d="M805.840575,731.884982 L801.53412,735.80076" id="Stroke-313" stroke="#01244A" stroke-width="2.5"></path>
                    <path d="M802.719241,728.450755 L798.412787,732.366533" id="Stroke-315" stroke="#01244A" stroke-width="2.5"></path>
                    <path d="M799.597907,725.016529 L795.291453,728.932307" id="Stroke-317" stroke="#01244A" stroke-width="2.5"></path>
                    <path d="M796.476573,721.582257 L792.170119,725.498035" id="Stroke-319" stroke="#01244A" stroke-width="2.5"></path>
                    <path d="M793.35524,718.148031 L789.048785,722.063809" id="Stroke-321" stroke="#01244A" stroke-width="2.5"></path>
                    <path d="M790.233906,714.713804 L785.927452,718.629582" id="Stroke-323" stroke="#01244A" stroke-width="2.5"></path>
                    <path d="M787.112572,711.279121 L782.806118,715.194899" id="Stroke-325" stroke="#01244A" stroke-width="2.5"></path>
                    <path d="M867.194248,701.184461 L856.802904,710.633989" id="Stroke-327" stroke="#01244A" stroke-width="2.5"></path>
                    <path d="M864.072914,697.750234 L853.681571,707.199763" id="Stroke-329" stroke="#01244A" stroke-width="2.5"></path>
                    <path d="M860.95158,694.316008 L850.560237,703.765537" id="Stroke-331" stroke="#01244A" stroke-width="2.5"></path>
                    <path d="M857.830247,690.881325 L847.438903,700.330853" id="Stroke-333" stroke="#01244A" stroke-width="2.5"></path>
                    <path d="M854.708913,687.447098 L844.317569,696.896627" id="Stroke-335" stroke="#01244A" stroke-width="2.5"></path>
                    <path d="M851.587579,684.012872 L841.196235,693.4624" id="Stroke-337" stroke="#01244A" stroke-width="2.5"></path>
                    <path d="M848.466245,680.5786 L838.074902,690.028128" id="Stroke-339" stroke="#01244A" stroke-width="2.5"></path>
                    <path d="M844.627184,677.79714 L834.953431,686.593811" id="Stroke-341" stroke="#01244A" stroke-width="2.5"></path>
                    <path d="M841.50585,674.362868 L831.832097,683.159539" id="Stroke-343" stroke="#01244A" stroke-width="2.5"></path>
                    <path d="M838.384517,670.928185 L828.710763,679.724855" id="Stroke-345" stroke="#01244A" stroke-width="2.5"></path>
                    <path d="M835.263183,667.493959 L825.589429,676.290629" id="Stroke-347" stroke="#01244A" stroke-width="2.5"></path>
                    <path d="M787.300928,707.323842 L783.386177,703.016258" id="Stroke-349" stroke="#01244A" stroke-width="2.5"></path>
                    <path d="M790.734299,704.20169 L786.819548,699.894106" id="Stroke-351" stroke="#01244A" stroke-width="2.5"></path>
                    <path d="M794.168082,701.079537 L790.253331,696.771953" id="Stroke-353" stroke="#01244A" stroke-width="2.5"></path>
                    <path d="M797.601407,697.957384 L793.686657,693.6498" id="Stroke-355" stroke="#01244A" stroke-width="2.5"></path>
                    <path d="M801.034733,694.835231 L797.119982,690.527647" id="Stroke-357" stroke="#01244A" stroke-width="2.5"></path>
                    <path d="M804.468058,691.713079 L800.553307,687.405494" id="Stroke-359" stroke="#01244A" stroke-width="2.5"></path>
                    <path d="M807.901384,688.590926 L803.986633,684.283342" id="Stroke-361" stroke="#01244A" stroke-width="2.5"></path>
                    <path d="M811.334755,685.468773 L807.420004,681.161189" id="Stroke-363" stroke="#01244A" stroke-width="2.5"></path>
                    <path d="M814.768492,682.34662 L810.853741,678.039036" id="Stroke-365" stroke="#01244A" stroke-width="2.5"></path>
                    <path d="M818.201863,679.224468 L814.287112,674.916883" id="Stroke-367" stroke="#01244A" stroke-width="2.5"></path>
                    <path d="M821.635188,676.102315 L817.720438,671.794731" id="Stroke-369" stroke="#01244A" stroke-width="2.5"></path>
                    <path d="M826.209848,750.134381 L822.295097,745.826797" id="Stroke-371" stroke="#01244A" stroke-width="2.5"></path>
                    <path d="M829.64363,747.012228 L825.72888,742.704644" id="Stroke-373" stroke="#01244A" stroke-width="2.5"></path>
                    <path d="M833.076956,743.890075 L829.162205,739.582491" id="Stroke-375" stroke="#01244A" stroke-width="2.5"></path>
                    <path d="M836.510281,740.767923 L832.59553,736.460338" id="Stroke-377" stroke="#01244A" stroke-width="2.5"></path>
                    <path d="M839.943607,737.64577 L836.028856,733.338186" id="Stroke-379" stroke="#01244A" stroke-width="2.5"></path>
                    <path d="M843.376932,734.523617 L839.462181,730.216033" id="Stroke-381" stroke="#01244A" stroke-width="2.5"></path>
                    <path d="M846.810303,731.401464 L842.895553,727.09388" id="Stroke-383" stroke="#01244A" stroke-width="2.5"></path>
                    <path d="M850.244086,728.279312 L846.329335,723.971727" id="Stroke-385" stroke="#01244A" stroke-width="2.5"></path>
                    <path d="M853.677411,725.157159 L849.762661,720.849575" id="Stroke-387" stroke="#01244A" stroke-width="2.5"></path>
                    <path d="M857.110737,722.035006 L853.195986,717.727422" id="Stroke-389" stroke="#01244A" stroke-width="2.5"></path>
                    <path d="M860.544062,718.912853 L856.629312,714.605269" id="Stroke-391" stroke="#01244A" stroke-width="2.5"></path>
                    <polygon id="Stroke-393" stroke="#09B9B3" stroke-width="3" points="823.4969 675.791567 857.150501 712.819327 820.132454 746.481301 786.478853 709.453998"></polygon>
                    <polyline id="Stroke-395" stroke="#01244A" stroke-width="3" points="860.646719 693.432866 882.846303 671.291463 915.787342 638.442819"></polyline>
                    <polyline id="Stroke-397" stroke="#01244A" stroke-width="3" points="853.548839 640.271462 853.904892 640.650924 882.846623 671.291829 898.432039 687.791129 887.243576 699.056134 915.777607 727.603137 926.189975 717.183465"></polyline>
                    <polyline id="Stroke-399" stroke="#01244A" stroke-width="3" points="940.061539 731.868477 926.189655 717.183739 913.789974 704.053425 946.74381 671.218496 969.318644 695.115028"></polyline>
                    <polyline id="Stroke-401" stroke="#01244A" stroke-width="3" points="990.507706 609.987938 962.348468 638.182453 970.867679 647.202229 990.722526 668.223989"></polyline>
                    <polyline id="Stroke-403" stroke="#01244A" stroke-width="3" points="889.240899 610.339741 915.787159 638.442819 931.277048 654.847025 955.314029 630.734703 939.888129 614.404103 968.134209 586.232905 999.530373 554.915826 1000.16523 554.284455"></polyline>
                    <path d="M968.134346,586.232722 L945.437019,562.134573" id="Stroke-405" stroke="#01244A" stroke-width="3"></path>
                    <polyline id="Stroke-407" stroke="#01244A" stroke-width="3" points="1015.23513 570.624153 983.455488 602.499453 990.507524 609.988121 999.087066 619.099333 1012.92193 605.315247 1012.9265 605.320276 1027.5114 620.914353"></polyline>
                    <polyline id="Stroke-409" stroke="#01244A" stroke-width="3" points="382.720288 299.921882 403.428017 278.153541 424.038391 256.679168"></polyline>
                    <polyline id="Stroke-411" stroke="#01244A" stroke-width="3" points="446.14638 320.081303 455.845271 310.009548 429.272958 282.407086 418.787003 293.230451 403.428291 278.153906 374.906601 250.157809 374.553291 249.812636"></polyline>
                    <polyline id="Stroke-413" stroke="#01244A" stroke-width="3" points="425.604382 361.801093 403.360006 339.964174 433.924313 308.08613 446.146197 320.081258 459.815601 333.500054"></polyline>
                    <polyline id="Stroke-415" stroke="#01244A" stroke-width="3" points="401.992425 383.899933 381.004974 363.300152 372.608713 355.058503 346.364115 382.298875"></polyline>
                    <polyline id="Stroke-417" stroke="#01244A" stroke-width="3" points="304.9695 380.930022 334.120566 350.55977 360.34414 323.235733 375.545165 338.15775 397.989735 314.905847 382.720151 299.922111 355.130414 272.812036"></polyline>
                    <path d="M301.820011,338.699695 L324.251784,360.655939" id="Stroke-419" stroke="#01244A" stroke-width="3"></path>
                    <polyline id="Stroke-421" stroke="#01244A" stroke-width="3" points="358.612874 420.113403 342.019176 403.985335 342.015062 403.980764 354.845755 390.59717 346.364024 382.29883 339.393345 375.476278 319.908262 395.664593"></polyline>
                    <path d="M1171.99418,480.00583 L1170.37846,481.622432" id="Stroke-423" stroke="#09B9B3" stroke-width="2.5"></path>
                    <path d="M1167.12311,484.878585 L1051.56095,600.471066" id="Stroke-425" stroke="#09B9B3" stroke-width="2.5" stroke-dasharray="5.035999774932861,5.035999774932861"></path>
                    <path d="M1049.93316,602.098869 L1048.31744,603.71547" id="Stroke-427" stroke="#09B9B3" stroke-width="2.5"></path>
                    <path d="M1171.99418,477.770339 L1170.37846,476.153738" id="Stroke-429" stroke="#09B9B3" stroke-width="2.5"></path>
                    <path d="M1167.16731,472.942023 L1053.17928,358.924539" id="Stroke-431" stroke="#09B9B3" stroke-width="2.5" stroke-dasharray="4.96750020980835,4.96750020980835"></path>
                    <path d="M1051.57393,357.318545 L1049.95821,355.7024" id="Stroke-433" stroke="#09B9B3" stroke-width="2.5"></path>
                    <path d="M1173.08149,478.985396 L1140.82879,511.24656" id="Stroke-435" stroke="#01244A" stroke-width="2.5"></path>
                    <polygon id="Fill-437" fill="#FFFFFF" points="1173.08149 486.71756 1165.35071 478.985213 1173.08149 471.252867 1180.8118 478.985213"></polygon>
                    <polygon id="Stroke-439" stroke="#09B9B3" stroke-width="2.5" points="1173.08149 486.71756 1165.35071 478.985213 1173.08149 471.252867 1180.8118 478.985213"></polygon>
                    <polygon id="Fill-441" fill="#FFFFFF" points="1157.37838 502.42479 1149.64806 494.692443 1157.37838 486.960096 1165.1087 494.692443"></polygon>
                    <polygon id="Stroke-443" stroke="#01244A" stroke-width="2.5" points="1157.37838 502.42479 1149.64806 494.692443 1157.37838 486.960096 1165.1087 494.692443"></polygon>
                    <polygon id="Fill-445" fill="#FFFFFF" points="1141.67531 518.131974 1133.94499 510.399627 1141.67531 502.66728 1149.40563 510.399627"></polygon>
                    <polygon id="Stroke-447" stroke="#09B9B3" stroke-width="2.5" points="1141.67531 518.131974 1133.94499 510.399627 1141.67531 502.66728 1149.40563 510.399627"></polygon>
                    <path d="M1173.08149,478.791871 L1140.82879,446.530707" id="Stroke-449" stroke="#01244A" stroke-width="2.5"></path>
                    <polygon id="Fill-451" fill="#FFFFFF" points="1173.08149 471.059249 1165.35071 478.792053 1173.08149 486.5244 1180.8118 478.792053"></polygon>
                    <polygon id="Stroke-453" stroke="#09B9B3" stroke-width="2.5" points="1173.08149 471.059249 1165.35071 478.792053 1173.08149 486.5244 1180.8118 478.792053"></polygon>
                    <polygon id="Fill-455" fill="#FFFFFF" points="1157.37838 455.352294 1149.64806 463.084641 1157.37838 470.817445 1165.1087 463.084641"></polygon>
                    <polygon id="Stroke-457" stroke="#01244A" stroke-width="2.5" points="1157.37838 455.352294 1149.64806 463.084641 1157.37838 470.817445 1165.1087 463.084641"></polygon>
                    <polygon id="Fill-459" fill="#FFFFFF" points="1141.67531 439.645065 1133.94499 447.377869 1141.67531 455.110215 1149.40563 447.377869"></polygon>
                    <polygon id="Stroke-461" stroke="#09B9B3" stroke-width="2.5" points="1141.67531 439.645065 1133.94499 447.377869 1141.67531 455.110215 1149.40563 447.377869"></polygon>
                    <path d="M279.195357,603.715516 L277.57918,602.098914" id="Stroke-463" stroke="#09B9B3" stroke-width="2.5"></path>
                    <path d="M274.324109,598.842761 L158.761949,483.25028" id="Stroke-465" stroke="#09B9B3" stroke-width="2.5" stroke-dasharray="5.035999774932861,5.035999774932861"></path>
                    <path d="M157.134391,481.622477 L155.51867,480.005876" id="Stroke-467" stroke="#09B9B3" stroke-width="2.5"></path>
                    <path d="M277.55459,355.702309 L275.938413,357.318453" id="Stroke-469" stroke="#09B9B3" stroke-width="2.5"></path>
                    <path d="M272.72754,360.530442 L158.739964,474.547926" id="Stroke-471" stroke="#09B9B3" stroke-width="2.5" stroke-dasharray="4.96750020980835,4.96750020980835"></path>
                    <path d="M157.134391,476.153921 L155.51867,477.770522" id="Stroke-473" stroke="#09B9B3" stroke-width="2.5"></path>
                    <path d="M154.43127,478.985396 L186.683971,511.24656" id="Stroke-475" stroke="#01244A" stroke-width="2.5"></path>
                    <polygon id="Fill-477" fill="#FFFFFF" points="154.43127 486.71756 162.162046 478.985213 154.43127 471.252867 146.700952 478.985213"></polygon>
                    <polygon id="Stroke-479" stroke="#09B9B3" stroke-width="2.5" points="154.43127 486.71756 162.162046 478.985213 154.43127 471.252867 146.700952 478.985213"></polygon>
                    <polygon id="Fill-481" fill="#FFFFFF" points="170.13438 502.42479 177.864698 494.692443 170.13438 486.960096 162.403604 494.692443"></polygon>
                    <polygon id="Stroke-483" stroke="#01244A" stroke-width="2.5" points="170.13438 502.42479 177.864698 494.692443 170.13438 486.960096 162.403604 494.692443"></polygon>
                    <polygon id="Fill-485" fill="#FFFFFF" points="185.837215 518.131974 193.56799 510.399627 185.837215 502.66728 178.106896 510.399627"></polygon>
                    <polygon id="Stroke-487" stroke="#09B9B3" stroke-width="2.5" points="185.837215 518.131974 193.56799 510.399627 185.837215 502.66728 178.106896 510.399627"></polygon>
                    <path d="M154.43127,478.791871 L186.683971,446.530707" id="Stroke-489" stroke="#01244A" stroke-width="2.5"></path>
                    <polygon id="Fill-491" fill="#FFFFFF" points="154.43127 471.059249 162.162046 478.792053 154.43127 486.5244 146.700952 478.792053"></polygon>
                    <polygon id="Stroke-493" stroke="#09B9B3" stroke-width="2.5" points="154.43127 471.059249 162.162046 478.792053 154.43127 486.5244 146.700952 478.792053"></polygon>
                    <polygon id="Fill-495" fill="#FFFFFF" points="170.13438 455.352294 177.864698 463.084641 170.13438 470.817445 162.403604 463.084641"></polygon>
                    <polygon id="Stroke-497" stroke="#01244A" stroke-width="2.5" points="170.13438 455.352294 177.864698 463.084641 170.13438 470.817445 162.403604 463.084641"></polygon>
                    <polygon id="Fill-499" fill="#FFFFFF" points="185.837215 439.645065 193.56799 447.377869 185.837215 455.110215 178.106896 447.377869"></polygon>
                    <polygon id="Stroke-501" stroke="#09B9B3" stroke-width="2.5" points="185.837215 439.645065 193.56799 447.377869 185.837215 455.110215 178.106896 447.377869"></polygon>
                    <path d="M285.070271,600.242886 L399.331629,743.771116 L569.509704,957.551555 C572.736116,961.604031 578.680687,962.169567 582.611892,958.796924 L664.954205,888.158852 L874.691601,708.238804" id="Stroke-503" stroke="#000000" stroke-width="3" stroke-linecap="round" stroke-linejoin="round"></path>
                    <path d="M285.070271,360.815954 L392.475673,225.896491 L569.509704,3.50682707 C572.736116,-0.545648668 578.680687,-1.11072764 582.611892,2.26191603 L664.954205,72.8999879 L883.014731,259.961244" id="Stroke-505" stroke="#000000" stroke-width="3" stroke-linecap="round" stroke-linejoin="round"></path>
                    <path d="M1024.41214,381.256588 L1131.87194,473.440353 C1136.21633,477.167314 1136.21633,483.891571 1131.87194,487.618532 L1024.41214,579.802297" id="Stroke-507" stroke="#000000" stroke-width="3" stroke-linecap="round" stroke-linejoin="round"></path>
                    <path d="M1044.83805,360.820388 L928.405637,214.5582 L760.398615,3.5071471 C757.172202,-0.545785823 751.227632,-1.11040761 747.296427,2.26223606 L664.954114,72.8998507 L435.933199,269.365374" id="Stroke-509" stroke="#000000" stroke-width="3" stroke-linecap="round" stroke-linejoin="round"></path>
                    <path d="M1044.83805,600.238406 L921.554709,755.113934 L760.398615,957.552104 C757.172202,961.60458 751.227632,962.169201 747.296884,958.796558 L664.954114,888.158943 L444.25633,698.834628" id="Stroke-511" stroke="#000000" stroke-width="3" stroke-linecap="round" stroke-linejoin="round"></path>
                    <path d="M305.501111,381.251925 L197.863064,473.588846 C193.609629,477.237629 193.609629,483.821073 197.863064,487.470313 L305.501111,579.806777" id="Stroke-513" stroke="#000000" stroke-width="3" stroke-linecap="round" stroke-linejoin="round"></path>
                    <polyline id="Stroke-515" stroke="#000000" stroke-width="3" stroke-linecap="round" stroke-linejoin="round" points="923.141269 756.697892 921.555258 755.116037 921.555258 755.111465 892.092474 725.641408 883.536698 717.083387 876.378623 709.923434 828.721047 662.252897"></polyline>
                    <path d="M391.945068,225.365472 L480.829334,314.272602" id="Stroke-517" stroke="#000000" stroke-width="3" stroke-linecap="round" stroke-linejoin="round"></path>
                    <path d="M489.292051,653.788736 L399.020597,744.084333" id="Stroke-519" stroke="#000000" stroke-width="3" stroke-linecap="round" stroke-linejoin="round"></path>
                    <path d="M928.406414,214.558931 L837.181982,305.807756" id="Stroke-521" stroke="#000000" stroke-width="3" stroke-linecap="round" stroke-linejoin="round"></path>
                    <path d="M252.345332,619.492831 L120.148795,487.261609 C116.427839,483.539677 116.427839,477.50531 120.148795,473.783378 L252.340762,341.557184 C256.06126,337.835252 262.094501,337.835252 265.815,341.557184 L345.232562,420.995584 C348.753781,424.517727 354.392576,424.733517 358.172493,421.490714 L658.752216,163.638687 C662.321427,160.577385 667.589086,160.577385 671.157839,163.638687 L971.741676,421.490714 C975.52205,424.733517 981.160845,424.517727 984.682064,420.995584 L1064.09963,341.557184 C1067.82012,337.835252 1073.85291,337.835252 1077.57386,341.557184 L1204.9301,468.950947 C1208.6506,472.672879 1208.6506,478.707246 1204.9301,482.428721 L1072.73356,614.6604 C1069.01306,618.381875 1062.97982,618.381875 1059.25932,614.6604 L984.682064,540.063118 C981.160845,536.541433 975.52205,536.325185 971.742133,539.567988 L671.157839,797.415901 C667.589086,800.476745 662.321427,800.476745 658.752216,797.415444 L358.172493,539.567988 C354.392576,536.325185 348.753781,536.540976 345.232562,540.063118 L265.819571,619.492831 C262.098615,623.214763 256.066288,623.214763 252.345332,619.492831 Z" id="Stroke-523" stroke="#000000" stroke-width="3" stroke-linecap="round" stroke-linejoin="round"></path>
                    <path d="M495.838483,209.28925 C497.074841,208.229498 497.217902,206.368304 496.158428,205.131622 C495.098954,203.895397 493.238248,203.751842 492.001891,204.811593 C490.76599,205.871345 490.622472,207.73254 491.681946,208.969221 C492.74142,210.205446 494.602126,210.349002 495.838483,209.28925" id="Fill-525" fill="#09B9B3"></path>
                    <path d="M507.065979,199.664757 C508.302337,198.605006 508.445398,196.743811 507.385924,195.507129 C506.326907,194.270905 504.466201,194.127349 503.229843,195.187101 C501.993486,196.246852 501.850425,198.108047 502.909899,199.344272 C503.968916,200.580953 505.830079,200.724052 507.065979,199.664757" id="Fill-527" fill="#01244A"></path>
                    <path d="M518.293749,190.03999 C519.530107,188.980696 519.673168,187.119044 518.613694,185.882819 C517.55422,184.646138 515.693514,184.503039 514.457157,185.562791 C513.221256,186.622085 513.078195,188.48328 514.137212,189.719962 C515.196686,190.956186 517.057392,191.099742 518.293749,190.03999" id="Fill-529" fill="#09B9B3"></path>
                    <path d="M439.607535,257.491766 C440.843892,256.432015 440.986953,254.57082 439.927479,253.334138 C438.868006,252.097914 437.007299,251.954358 435.771399,253.01411 C434.535042,254.073862 434.391981,255.935056 435.450997,257.171281 C436.510471,258.407962 438.371177,258.551061 439.607535,257.491766" id="Fill-535" fill="#01244A"></path>
                    <path d="M429.964587,245.823114 C430.725598,244.3839 430.175751,242.599512 428.736914,241.838302 C427.298078,241.077091 425.514158,241.626626 424.753147,243.066297 C423.992136,244.505968 424.541526,246.289899 425.98082,247.051109 C427.420114,247.81232 429.203576,247.262328 429.964587,245.823114" id="Fill-537" fill="#09B9B3"></path>
                    <path d="M450.835305,247.867045 C452.071205,246.807293 452.214723,244.946099 451.155249,243.709874 C450.095776,242.473193 448.235069,242.330094 446.998712,243.389389 C445.762812,244.44914 445.619294,246.310335 446.678767,247.547017 C447.738241,248.783241 449.598947,248.926797 450.835305,247.867045" id="Fill-539" fill="#09B9B3"></path>
                    <path d="M462.062801,238.242507 C463.299158,237.182755 463.442219,235.32156 462.382745,234.084879 C461.323729,232.848654 459.462565,232.705098 458.226665,233.76485 C456.990307,234.824602 456.847247,236.685796 457.90672,237.922478 C458.965737,239.158703 460.826443,239.302258 462.062801,238.242507" id="Fill-541" fill="#01244A"></path>
                    <path d="M473.290571,228.617785 C474.526471,227.558491 474.669989,225.696839 473.610515,224.460615 C472.551042,223.223933 470.690335,223.080834 469.453978,224.140586 C468.218078,225.19988 468.07456,227.061532 469.134033,228.297757 C470.193507,229.533981 472.054213,229.677537 473.290571,228.617785" id="Fill-543" fill="#09B9B3"></path>
                    <path d="M484.518112,218.993247 C485.75447,217.933495 485.89753,216.072301 484.838057,214.836076 C483.77904,213.599394 481.917877,213.456296 480.681976,214.51559 C479.445619,215.575342 479.302558,217.436537 480.362032,218.673218 C481.421048,219.909443 483.281755,220.052999 484.518112,218.993247" id="Fill-545" fill="#01244A"></path>
                    <path d="M484.835909,198.284017 C486.072266,197.224265 486.215327,195.363071 485.15631,194.126389 C484.096837,192.890164 482.23613,192.746609 480.999773,193.80636 C479.763416,194.866112 479.620355,196.727307 480.679828,197.963531 C481.739302,199.200213 483.600008,199.343311 484.835909,198.284017" id="Fill-567" fill="#09B9B3"></path>
                    <path d="M496.063633,188.659296 C497.29999,187.600001 497.443051,185.738349 496.383578,184.502125 C495.324104,183.265443 493.463398,183.122345 492.227497,184.182096 C490.99114,185.241391 490.848079,187.102585 491.907096,188.339267 C492.966569,189.575492 494.827276,189.719047 496.063633,188.659296" id="Fill-569" fill="#01244A"></path>
                    <path d="M439.83273,236.861812 C441.069087,235.80206 441.212148,233.940866 440.152675,232.704184 C439.093658,231.46796 437.232952,231.324404 435.996594,232.384156 C434.760237,233.443907 434.617176,235.305102 435.67665,236.541784 C436.735666,237.778008 438.596373,237.921564 439.83273,236.861812" id="Fill-577" fill="#09B9B3"></path>
                    <path d="M451.0605,227.237045 C452.296857,226.177751 452.439918,224.316099 451.380445,223.079874 C450.320971,221.843193 448.460265,221.700094 447.223907,222.759846 C445.988007,223.81914 445.844489,225.680792 446.903963,226.917017 C447.963436,228.153241 449.824143,228.296797 451.0605,227.237045" id="Fill-579" fill="#01244A"></path>
                    <path d="M462.287996,217.612552 C463.524353,216.552801 463.667414,214.691606 462.60794,213.455382 C461.548924,212.2187 459.688217,212.075601 458.45186,213.134896 C457.215503,214.194647 457.072442,216.055842 458.131916,217.292524 C459.190932,218.528748 461.051639,218.672304 462.287996,217.612552" id="Fill-581" fill="#09B9B3"></path>
                    <path d="M473.515766,207.988014 C474.752123,206.928262 474.895184,205.067068 473.835711,203.830386 C472.776237,202.594161 470.91553,202.450606 469.679173,203.510357 C468.443273,204.570109 468.299755,206.431304 469.359229,207.667985 C470.418702,208.90421 472.279409,209.047766 473.515766,207.988014" id="Fill-583" fill="#01244A"></path>
                    <path d="M474.538355,187.983578 C475.774712,186.923827 475.917773,185.062632 474.858299,183.82595 C473.798825,182.589726 471.938119,182.446627 470.701762,183.505922 C469.465861,184.565673 469.322801,186.426868 470.381817,187.66355 C471.441291,188.899774 473.301997,189.04333 474.538355,187.983578" id="Fill-595" fill="#09B9B3"></path>
                    <path d="M429.535176,226.561328 C430.771076,225.502033 430.914594,223.640381 429.85512,222.404157 C428.795647,221.167475 426.93494,221.024377 425.698583,222.084128 C424.462683,223.143423 424.319165,225.004617 425.378639,226.241299 C426.438112,227.477524 428.298819,227.621079 429.535176,226.561328" id="Fill-605" fill="#09B9B3"></path>
                    <path d="M440.762717,216.936835 C441.999075,215.877083 442.142136,214.015889 441.082662,212.779207 C440.023645,211.542982 438.162939,211.399427 436.926582,212.459178 C435.690224,213.51893 435.547163,215.380125 436.606637,216.616806 C437.665654,217.853031 439.52636,217.996587 440.762717,216.936835" id="Fill-607" fill="#01244A"></path>
                    <path d="M451.990442,207.312296 C453.226342,206.252545 453.36986,204.39135 452.310386,203.154669 C451.250913,201.918444 449.390206,201.774888 448.153849,202.83464 C446.917949,203.894392 446.774431,205.755586 447.833904,206.991811 C448.893378,208.228492 450.754084,208.371591 451.990442,207.312296" id="Fill-609" fill="#09B9B3"></path>
                    <path d="M463.217983,197.687575 C464.454341,196.627824 464.597402,194.766629 463.537928,193.530404 C462.478911,192.293723 460.618205,192.150624 459.381848,193.209919 C458.14549,194.26967 458.002429,196.130865 459.061903,197.367547 C460.12092,198.603771 461.981626,198.747327 463.217983,197.687575" id="Fill-611" fill="#01244A"></path>
                    <path d="M419.53869,216.105264 C420.775047,215.045512 420.918108,213.184317 419.859091,211.947636 C418.799618,210.711411 416.938911,210.567855 415.702554,211.627607 C414.466197,212.687359 414.323136,214.548553 415.382609,215.785235 C416.442083,217.02146 418.302789,217.165015 419.53869,216.105264" id="Fill-613" fill="#09B9B3"></path>
                    <path d="M430.76646,206.480771 C432.002817,205.421019 432.145878,203.559825 431.086404,202.323143 C430.026931,201.086918 428.166224,200.943363 426.929867,202.003114 C425.693967,203.062866 425.550906,204.924061 426.609922,206.160285 C427.669396,207.396967 429.530102,207.540065 430.76646,206.480771" id="Fill-615" fill="#01244A"></path>
                    <path d="M441.993956,196.856004 C443.230313,195.796709 443.373374,193.935058 442.314357,192.698833 C441.254884,191.462151 439.394177,191.319053 438.15782,192.378805 C436.921463,193.438099 436.778402,195.299294 437.837875,196.535975 C438.897349,197.7722 440.758055,197.915756 441.993956,196.856004" id="Fill-617" fill="#09B9B3"></path>
                    <path d="M453.221726,187.231465 C454.458083,186.171714 454.601144,184.310519 453.54167,183.073837 C452.482197,181.837613 450.62149,181.694057 449.385133,182.753809 C448.149233,183.813561 448.006172,185.674755 449.065188,186.911437 C450.124662,188.147661 451.985368,188.291217 453.221726,187.231465" id="Fill-619" fill="#01244A"></path>
                    <path d="M419.893554,235.749439 C420.655022,234.310225 420.105175,232.525837 418.665881,231.764626 C417.227044,231.003415 415.443125,231.553407 414.682114,232.992621 C413.921102,234.432293 414.47095,236.216223 415.909787,236.977434 C417.34908,237.739102 419.132543,237.18911 419.893554,235.749439" id="Fill-621" fill="#01244A"></path>
                    <path d="M409.431548,225.284642 C410.19256,223.844971 409.642712,222.061041 408.203875,221.29983 C406.764582,220.538619 404.981119,221.088154 404.220108,222.527825 C403.459097,223.967039 404.008488,225.751427 405.447781,226.512638 C406.886618,227.273848 408.67008,226.723856 409.431548,225.284642" id="Fill-623" fill="#09B9B3"></path>
                    <path d="M816.523571,769.712447 C815.28767,770.772199 815.144152,772.633851 816.203626,773.870075 C817.2631,775.106757 819.123806,775.249855 820.360163,774.190104 C821.596064,773.130809 821.739582,771.269157 820.680108,770.032933 C819.620634,768.796251 817.759928,768.653153 816.523571,769.712447" id="Fill-625" fill="#09B9B3"></path>
                    <path d="M805.296029,779.337443 C804.060129,780.396737 803.916611,782.258389 804.976084,783.494614 C806.035101,784.731295 807.895807,784.874394 809.132622,783.815099 C810.368522,782.755348 810.511583,780.893696 809.452566,779.657471 C808.393093,778.42079 806.531929,778.277691 805.296029,779.337443" id="Fill-627" fill="#01244A"></path>
                    <path d="M872.754474,721.510388 C871.518573,722.569682 871.375055,724.431334 872.434529,725.668016 C873.494003,726.90424 875.354709,727.047339 876.591066,725.988044 C877.826967,724.928293 877.970028,723.066641 876.911011,721.830416 C875.851537,720.593735 873.990831,720.450636 872.754474,721.510388" id="Fill-635" fill="#01244A"></path>
                    <path d="M882.397421,733.178857 C881.63641,734.618071 882.186258,736.402459 883.625551,737.16367 C885.064388,737.92488 886.84785,737.375346 887.608861,735.935674 C888.369873,734.49646 887.820482,732.712073 886.381188,731.950862 C884.941895,731.189194 883.158432,731.739643 882.397421,733.178857" id="Fill-637" fill="#09B9B3"></path>
                    <path d="M861.526932,731.134926 C860.291032,732.194221 860.147514,734.055873 861.206988,735.292554 C862.266004,736.528779 864.126711,736.671877 865.363525,735.612583 C866.599425,734.552831 866.742486,732.691179 865.68347,731.454955 C864.623539,730.21873 862.762832,730.075632 861.526932,731.134926" id="Fill-639" fill="#09B9B3"></path>
                    <path d="M850.299436,740.759419 C849.063079,741.818713 848.919561,743.680365 849.979492,744.917047 C851.038508,746.153272 852.899215,746.29637 854.135572,745.237075 C855.371929,744.177781 855.51499,742.316129 854.455974,741.079448 C853.396043,739.843223 851.535337,739.700125 850.299436,740.759419" id="Fill-641" fill="#01244A"></path>
                    <path d="M839.071438,750.383957 C837.835537,751.443709 837.692019,753.305361 838.751493,754.541585 C839.810967,755.77781 841.671673,755.920908 842.90803,754.861614 C844.144388,753.802319 844.287449,751.940668 843.227975,750.703986 C842.168501,749.467761 840.307795,749.324663 839.071438,750.383957" id="Fill-643" fill="#09B9B3"></path>
                    <path d="M827.843942,760.00845 C826.608042,761.068202 826.464524,762.929854 827.523997,764.166078 C828.583471,765.40276 830.444177,765.545858 831.680535,764.486107 C832.916435,763.426812 833.059496,761.56516 832.000479,760.328479 C830.941006,759.092254 829.080299,758.949156 827.843942,760.00845" id="Fill-645" fill="#01244A"></path>
                    <path d="M827.526145,780.717909 C826.290245,781.77766 826.146727,783.639312 827.206201,784.875537 C828.265217,786.111761 830.125924,786.25486 831.362738,785.195565 C832.598639,784.136271 832.741699,782.274619 831.682683,781.037937 C830.622752,779.801713 828.762046,779.658614 827.526145,780.717909" id="Fill-663" fill="#09B9B3"></path>
                    <path d="M872.529507,742.140342 C871.29315,743.199637 871.149632,745.061288 872.209562,746.297513 C873.268579,747.534195 875.129285,747.677293 876.365643,746.617541 C877.602,745.558247 877.745061,743.696595 876.685587,742.460371 C875.626114,741.223689 873.765407,741.08059 872.529507,742.140342" id="Fill-673" fill="#09B9B3"></path>
                    <path d="M861.301508,751.764881 C860.065608,752.824175 859.92209,754.685827 860.981564,755.922509 C862.041037,757.158733 863.901744,757.301832 865.138101,756.242537 C866.374458,755.182785 866.517519,753.321134 865.458046,752.084909 C864.398572,750.848227 862.537866,750.705129 861.301508,751.764881" id="Fill-675" fill="#01244A"></path>
                    <path d="M850.074012,761.389373 C848.838112,762.448668 848.694594,764.31032 849.754068,765.547001 C850.813084,766.783226 852.673791,766.926324 853.910605,765.86703 C855.146506,764.807278 855.289566,762.945626 854.23055,761.709402 C853.171076,760.473177 851.31037,760.330079 850.074012,761.389373" id="Fill-677" fill="#09B9B3"></path>
                    <path d="M838.846471,771.013912 C837.610114,772.073206 837.466596,773.934858 838.526526,775.17154 C839.585543,776.407764 841.446249,776.550863 842.683064,775.491568 C843.918964,774.432274 844.062025,772.570622 843.003008,771.33394 C841.943078,770.097716 840.082371,769.954617 838.846471,771.013912" id="Fill-679" fill="#01244A"></path>
                    <path d="M882.826832,752.440369 C881.590932,753.500121 881.447414,755.361773 882.506888,756.597997 C883.566361,757.834679 885.427068,757.977778 886.663425,756.918026 C887.899783,755.858731 888.042843,753.99708 886.98337,752.760398 C885.923896,751.524173 884.06319,751.381075 882.826832,752.440369" id="Fill-693" fill="#09B9B3"></path>
                    <path d="M871.599291,762.065365 C870.363391,763.12466 870.219873,764.986311 871.279346,766.222536 C872.338363,767.459218 874.199526,767.602316 875.435884,766.542564 C876.671784,765.48327 876.814845,763.621618 875.755828,762.385394 C874.696355,761.148712 872.835648,761.005613 871.599291,762.065365" id="Fill-695" fill="#01244A"></path>
                    <path d="M860.371795,771.689858 C859.135895,772.749152 858.99192,774.610804 860.05185,775.847029 C861.110867,777.08371 862.971573,777.226809 864.208388,776.167514 C865.444288,775.107763 865.587349,773.246111 864.528332,772.009886 C863.468402,770.773205 861.607695,770.630106 860.371795,771.689858" id="Fill-697" fill="#09B9B3"></path>
                    <path d="M849.144253,781.314396 C847.907896,782.373691 847.764378,784.235342 848.824309,785.472024 C849.883325,786.708249 851.744032,786.851347 852.980389,785.792053 C854.216747,784.732301 854.359807,782.870649 853.300334,781.634425 C852.24086,780.3982 850.380154,780.254645 849.144253,781.314396" id="Fill-699" fill="#01244A"></path>
                    <path d="M892.823319,762.896662 C891.587418,763.955957 891.4439,765.817608 892.503374,767.05429 C893.562391,768.290515 895.423097,768.433613 896.659911,767.374319 C897.895812,766.314567 898.038873,764.452915 896.979856,763.216691 C895.919925,761.980466 894.059219,761.837368 892.823319,762.896662" id="Fill-701" fill="#09B9B3"></path>
                    <path d="M881.595777,772.5212 C880.35942,773.580952 880.215902,775.442604 881.275832,776.678828 C882.334849,777.915053 884.195555,778.058151 885.43237,776.998857 C886.66827,775.939563 886.811331,774.077911 885.752314,772.841229 C884.692384,771.605004 882.831677,771.461906 881.595777,772.5212" id="Fill-703" fill="#01244A"></path>
                    <path d="M892.468454,743.252487 C891.707443,744.691701 892.256834,746.476089 893.696127,747.2373 C895.135421,747.99851 896.918884,747.448976 897.679895,746.008847 C898.440906,744.569633 897.891058,742.785703 896.452222,742.024035 C895.012928,741.262824 893.229465,741.813273 892.468454,743.252487" id="Fill-705" fill="#01244A"></path>
                    <path d="M902.930917,753.717283 C902.169449,755.156497 902.719296,756.940885 904.15859,757.702096 C905.597427,758.463307 907.380889,757.913772 908.1419,756.474101 C908.902911,755.034887 908.353521,753.250499 906.914684,752.489288 C905.475391,751.728077 903.691928,752.278069 902.930917,753.717283" id="Fill-707" fill="#09B9B3"></path>
                    <path d="M257.296932,481.379164 C257.296932,484.352229 254.887749,486.762044 251.915464,486.762044 C248.943179,486.762044 246.533539,484.352229 246.533539,481.379164 C246.533539,478.406099 248.943179,475.996284 251.915464,475.996284 C254.887749,475.996284 257.296932,478.406099 257.296932,481.379164" id="Fill-709" fill="#FFFFFF"></path>
                    <path d="M257.296932,481.379164 C257.296932,484.352229 254.887749,486.762044 251.915464,486.762044 C248.943179,486.762044 246.533539,484.352229 246.533539,481.379164 C246.533539,478.406099 248.943179,475.996284 251.915464,475.996284 C254.887749,475.996284 257.296932,478.406099 257.296932,481.379164 Z" id="Stroke-711" stroke="#EF442E" stroke-width="3"></path>
                    <path d="M251.915281,468.815986 C252.692289,468.815986 253.452386,468.886393 254.190544,469.021719" id="Stroke-713" stroke="#09B9B3" stroke-width="3"></path>
                    <path d="M258.268421,470.539569 C261.982064,472.721706 264.474889,476.759095 264.474889,481.378936 C264.474889,488.317612 258.851634,493.942342 251.915235,493.942342 C244.978837,493.942342 239.355582,488.317612 239.355582,481.378936 C239.355582,475.981426 242.758878,471.378501 247.536565,469.600514" id="Stroke-715" stroke="#09B9B3" stroke-width="3" stroke-dasharray="4.78249979019165,4.78249979019165"></path>
                    <path d="M249.640247,469.021582 C250.377947,468.886713 251.138501,468.815849 251.91551,468.815849" id="Stroke-717" stroke="#09B9B3" stroke-width="3"></path>
                    <g id="Group-722" transform="translate(272.409972, 433.410086)">
                        <path d="M0.25925,0.299409562 L0.25925,95.638656" id="Fill-719" fill="#FFFFFF"></path>
                        <path d="M0.25925,0.299409562 L0.25925,95.638656" id="Stroke-721" stroke="#01244A" stroke-width="3"></path>
                    </g>
                    <g id="Group-726" transform="translate(222.132964, 437.067555)">
                        <path d="M46.5579723,0.299409562 L0.225423823,40.9951536" id="Fill-723" fill="#FFFFFF"></path>
                        <path d="M46.5579723,0.299409562 L0.225423823,40.9951536" id="Stroke-725" stroke="#01244A" stroke-width="3"></path>
                    </g>
                    <g id="Group-730" transform="translate(222.132964, 484.614653)">
                        <path d="M46.5579723,40.7764827 L0.225423823,0.0807386299" id="Fill-727" fill="#FFFFFF"></path>
                        <path d="M46.5579723,40.7764827 L0.225423823,0.0807386299" id="Stroke-729" stroke="#01244A" stroke-width="3"></path>
                    </g>
                    <path d="M215.659982,481.336737 C215.683292,479.151857 217.473154,477.399015 219.657918,477.422331 C221.842226,477.446105 223.594608,479.236436 223.571298,481.421774 C223.547988,483.606654 221.758126,485.359039 219.573361,485.335723 C217.388597,485.312406 215.636672,483.522075 215.659982,481.336737" id="Fill-731" fill="#FFFFFF"></path>
                    <path d="M215.659982,481.336737 C215.683292,479.151857 217.473154,477.399015 219.657918,477.422331 C221.842226,477.446105 223.594608,479.236436 223.571298,481.421774 C223.547988,483.606654 221.758126,485.359039 219.573361,485.335723 C217.388597,485.312406 215.636672,483.522075 215.659982,481.336737 Z" id="Stroke-733" stroke="#EF442E" stroke-width="3"></path>
                    <path d="M268.691165,526.562668 C268.714475,524.377788 270.504337,522.625403 272.689101,522.648262 C274.873866,522.671579 276.625791,524.46191 276.602481,526.647705 C276.57917,528.832585 274.789309,530.58497 272.604544,530.561654 C270.41978,530.538337 268.667855,528.748006 268.691165,526.562668" id="Fill-735" fill="#FFFFFF"></path>
                    <path d="M268.691165,526.562668 C268.714475,524.377788 270.504337,522.625403 272.689101,522.648262 C274.873866,522.671579 276.625791,524.46191 276.602481,526.647705 C276.57917,528.832585 274.789309,530.58497 272.604544,530.561654 C270.41978,530.538337 268.667855,528.748006 268.691165,526.562668 Z" id="Stroke-737" stroke="#EF442E" stroke-width="3"></path>
                    <path d="M268.691165,435.653851 C268.714475,433.468514 270.504337,431.716129 272.689101,431.739445 C274.873866,431.762762 276.625791,433.553093 276.602481,435.73843 C276.57917,437.923311 274.789309,439.676153 272.604544,439.652837 C270.41978,439.62952 268.667855,437.838732 268.691165,435.653851" id="Fill-739" fill="#FFFFFF"></path>
                    <path d="M268.691165,435.653851 C268.714475,433.468514 270.504337,431.716129 272.689101,431.739445 C274.873866,431.762762 276.625791,433.553093 276.602481,435.73843 C276.57917,437.923311 274.789309,439.676153 272.604544,439.652837 C270.41978,439.62952 268.667855,437.838732 268.691165,435.653851 Z" id="Stroke-741" stroke="#EF442E" stroke-width="3"></path>
                    <path d="M1072.51271,481.379164 C1072.51271,484.352229 1074.92189,486.762044 1077.89417,486.762044 C1080.86646,486.762044 1083.2761,484.352229 1083.2761,481.379164 C1083.2761,478.406099 1080.86646,475.996284 1077.89417,475.996284 C1074.92189,475.996284 1072.51271,478.406099 1072.51271,481.379164" id="Fill-743" fill="#FFFFFF"></path>
                    <path d="M1072.51271,481.379164 C1072.51271,484.352229 1074.92189,486.762044 1077.89417,486.762044 C1080.86646,486.762044 1083.2761,484.352229 1083.2761,481.379164 C1083.2761,478.406099 1080.86646,475.996284 1077.89417,475.996284 C1074.92189,475.996284 1072.51271,478.406099 1072.51271,481.379164 Z" id="Stroke-745" stroke="#EF442E" stroke-width="3"></path>
                    <path d="M1077.89436,468.815986 C1077.11781,468.815986 1076.35725,468.886393 1075.61909,469.021719" id="Stroke-747" stroke="#09B9B3" stroke-width="3"></path>
                    <path d="M1071.54145,470.539569 C1067.8278,472.721706 1065.33452,476.759095 1065.33452,481.378936 C1065.33452,488.317612 1070.95823,493.942342 1077.89417,493.942342 C1084.83103,493.942342 1090.45429,488.317612 1090.45429,481.378936 C1090.45429,475.981426 1087.05099,471.378501 1082.2733,469.600514" id="Stroke-749" stroke="#09B9B3" stroke-width="3" stroke-dasharray="4.78249979019165,4.78249979019165"></path>
                    <path d="M1080.16944,469.021582 C1079.43174,468.886713 1078.67164,468.815849 1077.89417,468.815849" id="Stroke-751" stroke="#09B9B3" stroke-width="3"></path>
                    <g id="Group-756" transform="translate(1056.731302, 433.410086)">
                        <path d="M0.4719,0.299409562 L0.4719,95.638656" id="Fill-753" fill="#FFFFFF"></path>
                        <path d="M0.4719,0.299409562 L0.4719,95.638656" id="Stroke-755" stroke="#01244A" stroke-width="3"></path>
                    </g>
                    <g id="Group-760" transform="translate(1060.844875, 437.067555)">
                        <path d="M0.27382687,0.299409562 L46.6059183,40.9951536" id="Fill-757" fill="#FFFFFF"></path>
                        <path d="M0.27382687,0.299409562 L46.6059183,40.9951536" id="Stroke-759" stroke="#01244A" stroke-width="3"></path>
                    </g>
                    <g id="Group-764" transform="translate(1060.844875, 484.614653)">
                        <path d="M0.27382687,40.7764827 L46.6059183,0.0807386299" id="Fill-761" fill="#FFFFFF"></path>
                        <path d="M0.27382687,40.7764827 L46.6059183,0.0807386299" id="Stroke-763" stroke="#01244A" stroke-width="3"></path>
                    </g>
                    <path d="M1114.1497,481.336737 C1114.12593,479.151857 1112.33607,477.399015 1110.15177,477.422331 C1107.96746,477.446105 1106.21508,479.236436 1106.23839,481.421774 C1106.2617,483.606654 1108.05156,485.359039 1110.23632,485.335723 C1112.42109,485.312406 1114.17301,483.522075 1114.1497,481.336737" id="Fill-765" fill="#FFFFFF"></path>
                    <path d="M1114.1497,481.336737 C1114.12593,479.151857 1112.33607,477.399015 1110.15177,477.422331 C1107.96746,477.446105 1106.21508,479.236436 1106.23839,481.421774 C1106.2617,483.606654 1108.05156,485.359039 1110.23632,485.335723 C1112.42109,485.312406 1114.17301,483.522075 1114.1497,481.336737 Z" id="Stroke-767" stroke="#EF442E" stroke-width="3"></path>
                    <path d="M1061.11825,526.562668 C1061.09493,524.377788 1059.30507,522.625403 1057.12031,522.648262 C1054.936,522.671579 1053.18408,524.46191 1053.20693,526.647705 C1053.23024,528.832585 1055.02056,530.58497 1057.20487,530.561654 C1059.38963,530.538337 1061.14201,528.748006 1061.11825,526.562668" id="Fill-769" fill="#FFFFFF"></path>
                    <path d="M1061.11825,526.562668 C1061.09493,524.377788 1059.30507,522.625403 1057.12031,522.648262 C1054.936,522.671579 1053.18408,524.46191 1053.20693,526.647705 C1053.23024,528.832585 1055.02056,530.58497 1057.20487,530.561654 C1059.38963,530.538337 1061.14201,528.748006 1061.11825,526.562668 Z" id="Stroke-771" stroke="#EF442E" stroke-width="3"></path>
                    <path d="M1061.11825,435.653851 C1061.09493,433.468514 1059.30507,431.716129 1057.12031,431.739445 C1054.936,431.762762 1053.18408,433.553093 1053.20693,435.73843 C1053.23024,437.923311 1055.02056,439.676153 1057.20487,439.652837 C1059.38963,439.62952 1061.14201,437.838732 1061.11825,435.653851" id="Fill-773" fill="#FFFFFF"></path>
                    <path d="M1061.11825,435.653851 C1061.09493,433.468514 1059.30507,431.716129 1057.12031,431.739445 C1054.936,431.762762 1053.18408,433.553093 1053.20693,435.73843 C1053.23024,437.923311 1055.02056,439.676153 1057.20487,439.652837 C1059.38963,439.62952 1061.14201,437.838732 1061.11825,435.653851 Z" id="Stroke-775" stroke="#EF442E" stroke-width="3"></path>
                    <polyline id="Stroke-799" stroke="#01244A" stroke-width="3" points="1056.77614 86.5702814 998.786181 144.165819 928.405683 214.062796"></polyline>
                    <polyline id="Stroke-817" stroke="#01244A" stroke-width="3" points="263.57909 97.8679291 321.569048 155.463466 391.949547 225.360443"></polyline>
                    <polyline id="Stroke-835" stroke="#01244A" stroke-width="3" points="1050.37725 882.986413 992.387289 825.390876 922.006791 755.493899"></polyline>
                    <polyline id="Stroke-853" stroke="#01244A" stroke-width="3" points="270.892109 871.231765 328.882068 813.636228 399.262566 743.73925"></polyline>
                    <path d="M1291.66228,480.532872 C1291.66228,485.100136 1295.36404,488.801952 1299.92965,488.801952 C1304.49571,488.801952 1308.19702,485.100136 1308.19702,480.532872 C1308.19702,475.965607 1304.49571,472.263334 1299.92965,472.263334 C1295.36404,472.263334 1291.66228,475.965607 1291.66228,480.532872" id="Fill-893" fill="#FFFFFF"></path>
                    <path d="M1291.66228,480.532872 C1291.66228,485.100136 1295.36404,488.801952 1299.92965,488.801952 C1304.49571,488.801952 1308.19702,485.100136 1308.19702,480.532872 C1308.19702,475.965607 1304.49571,472.263334 1299.92965,472.263334 C1295.36404,472.263334 1291.66228,475.965607 1291.66228,480.532872 Z" id="Stroke-895" stroke="#EF442E" stroke-width="3"></path>
                    <path d="M1280.63516,480.532872 C1280.63516,491.191651 1289.27366,499.832421 1299.92965,499.832421 C1310.58563,499.832421 1319.22459,491.191651 1319.22459,480.532872 C1319.22459,469.874092 1310.58563,461.233322 1299.92965,461.233322 C1289.27366,461.233322 1280.63516,469.874092 1280.63516,480.532872 Z" id="Stroke-897" stroke="#09B9B3" stroke-width="3" stroke-dasharray="5.099500179290771,5.099500179290771"></path>
                    <path d="M1266.76794,440.056713 L1187.31975,451.335433" id="Stroke-899" stroke="#09B9B3" stroke-width="3"></path>
                    <path d="M1266.76794,521.134939 L1178.6456,508.625023" id="Stroke-901" stroke="#09B9B3" stroke-width="3"></path>
                    <path d="M1267.56821,522.244843 C1267.56821,526.811651 1271.26997,530.514381 1275.83558,530.514381 C1280.40119,530.514381 1284.10295,526.811651 1284.10295,522.244843 C1284.10295,517.677579 1280.40119,513.975306 1275.83558,513.975306 C1271.26997,513.975306 1267.56821,517.677579 1267.56821,522.244843" id="Fill-903" fill="#FFFFFF"></path>
                    <path d="M1267.56821,522.244843 C1267.56821,526.811651 1271.26997,530.514381 1275.83558,530.514381 C1280.40119,530.514381 1284.10295,526.811651 1284.10295,522.244843 C1284.10295,517.677579 1280.40119,513.975306 1275.83558,513.975306 C1271.26997,513.975306 1267.56821,517.677579 1267.56821,522.244843 Z" id="Stroke-905" stroke="#01244A" stroke-width="3"></path>
                    <path d="M1267.56821,438.8209 C1267.56821,443.388164 1271.26997,447.090437 1275.83558,447.090437 C1280.40119,447.090437 1284.10295,443.388164 1284.10295,438.8209 C1284.10295,434.253635 1280.40119,430.551362 1275.83558,430.551362 C1271.26997,430.551362 1267.56821,434.253635 1267.56821,438.8209" id="Fill-907" fill="#FFFFFF"></path>
                    <path d="M1267.56821,438.8209 C1267.56821,443.388164 1271.26997,447.090437 1275.83558,447.090437 C1280.40119,447.090437 1284.10295,443.388164 1284.10295,438.8209 C1284.10295,434.253635 1280.40119,430.551362 1275.83558,430.551362 C1271.26997,430.551362 1267.56821,434.253635 1267.56821,438.8209 Z" id="Stroke-909" stroke="#01244A" stroke-width="3"></path>
                    <path d="M27.5619474,480.532872 C27.5619474,485.100136 23.8601884,488.801952 19.2945789,488.801952 C14.7285125,488.801952 11.0272105,485.100136 11.0272105,480.532872 C11.0272105,475.965607 14.7285125,472.263334 19.2945789,472.263334 C23.8601884,472.263334 27.5619474,475.965607 27.5619474,480.532872" id="Fill-911" fill="#FFFFFF"></path>
                    <path d="M27.5619474,480.532872 C27.5619474,485.100136 23.8601884,488.801952 19.2945789,488.801952 C14.7285125,488.801952 11.0272105,485.100136 11.0272105,480.532872 C11.0272105,475.965607 14.7285125,472.263334 19.2945789,472.263334 C23.8601884,472.263334 27.5619474,475.965607 27.5619474,480.532872 Z" id="Stroke-913" stroke="#EF442E" stroke-width="3"></path>
                    <path d="M38.5890665,480.532872 C38.5890665,491.191651 29.9505623,499.832421 19.2945789,499.832421 C8.63859557,499.832421 9.14127424e-05,491.191651 9.14127424e-05,480.532872 C9.14127424e-05,469.874092 8.63859557,461.233322 19.2945789,461.233322 C29.9505623,461.233322 38.5890665,469.874092 38.5890665,480.532872 Z" id="Stroke-915" stroke="#09B9B3" stroke-width="3" stroke-dasharray="5.099500179290771,5.099500179290771"></path>
                    <path d="M52.4562881,440.056713 L140.578629,452.566629" id="Stroke-917" stroke="#09B9B3" stroke-width="3"></path>
                    <path d="M52.4562881,521.134939 L140.578629,508.625023" id="Stroke-919" stroke="#09B9B3" stroke-width="3"></path>
                    <path d="M51.6560152,522.244843 C51.6560152,526.811651 47.9547133,530.514381 43.3886468,530.514381 C38.8225803,530.514381 35.1212784,526.811651 35.1212784,522.244843 C35.1212784,517.677579 38.8225803,513.975306 43.3886468,513.975306 C47.9547133,513.975306 51.6560152,517.677579 51.6560152,522.244843" id="Fill-921" fill="#FFFFFF"></path>
                    <path d="M51.6560152,522.244843 C51.6560152,526.811651 47.9547133,530.514381 43.3886468,530.514381 C38.8225803,530.514381 35.1212784,526.811651 35.1212784,522.244843 C35.1212784,517.677579 38.8225803,513.975306 43.3886468,513.975306 C47.9547133,513.975306 51.6560152,517.677579 51.6560152,522.244843 Z" id="Stroke-923" stroke="#01244A" stroke-width="3"></path>
                    <path d="M51.6560152,438.8209 C51.6560152,443.388164 47.9547133,447.090437 43.3886468,447.090437 C38.8225803,447.090437 35.1212784,443.388164 35.1212784,438.8209 C35.1212784,434.253635 38.8225803,430.551362 43.3886468,430.551362 C47.9547133,430.551362 51.6560152,434.253635 51.6560152,438.8209" id="Fill-925" fill="#FFFFFF"></path>
                    <path d="M51.6560152,438.8209 C51.6560152,443.388164 47.9547133,447.090437 43.3886468,447.090437 C38.8225803,447.090437 35.1212784,443.388164 35.1212784,438.8209 C35.1212784,434.253635 38.8225803,430.551362 43.3886468,430.551362 C47.9547133,430.551362 51.6560152,434.253635 51.6560152,438.8209 Z" id="Stroke-927" stroke="#01244A" stroke-width="3"></path>
                    <path d="M387.047904,447.174102 C388.284262,448.233854 388.427323,450.095048 387.367849,451.33173 C386.308832,452.567954 384.448126,452.71151 383.211769,451.651758 C381.975411,450.592007 381.83235,448.730812 382.891824,447.494588 C383.950841,446.257906 385.811547,446.114807 387.047904,447.174102" id="Fill-961" fill="#01244A"></path>
                    <path d="M377.404911,458.842754 C378.165922,460.281968 377.616075,462.066356 376.177238,462.827567 C374.738402,463.588777 372.954482,463.039243 372.193471,461.599571 C371.43246,460.1599 371.98185,458.37597 373.421144,457.614759 C374.860438,456.853548 376.6439,457.40354 377.404911,458.842754" id="Fill-963" fill="#EF442E"></path>
                    <path d="M367.334152,468.91643 C368.095163,470.355644 367.545316,472.140031 366.106479,472.901242 C364.667186,473.662453 362.883723,473.112461 362.122712,471.673247 C361.361701,470.233576 361.911091,468.449645 363.350385,467.688434 C364.789222,466.926767 366.572684,467.476758 367.334152,468.91643" id="Fill-965" fill="#01244A"></path>
                    <path d="M387.605385,513.814651 C386.545911,515.051333 384.685205,515.194889 383.448848,514.13468 C382.212947,513.075385 382.069886,511.214191 383.128903,509.977509 C384.188377,508.740827 386.049083,508.597729 387.28544,509.657481 C388.521341,510.717232 388.664859,512.578427 387.605385,513.814651" id="Fill-967" fill="#01244A"></path>
                    <path d="M375.940022,504.169128 C374.500729,504.930339 372.717266,504.380804 371.956255,502.941133 C371.195244,501.501919 371.744634,499.717988 373.183928,498.956778 C374.622765,498.195567 376.406684,498.745102 377.167695,500.184316 C377.928706,501.623987 377.378859,503.407918 375.940022,504.169128" id="Fill-969" fill="#EF442E"></path>
                    <path d="M365.868989,494.09591 C364.430152,494.857121 362.646233,494.307129 361.885222,492.867457 C361.124211,491.428243 361.673601,489.644313 363.112895,488.883102 C364.552188,488.121891 366.335651,488.671426 367.096662,490.11064 C367.857673,491.550311 367.307825,493.334242 365.868989,494.09591" id="Fill-971" fill="#01244A"></path>
                    <path d="M355.406755,483.630702 C353.967918,484.391913 352.183999,483.842378 351.422988,482.402707 C350.661976,480.963036 351.211367,479.179105 352.650661,478.417894 C354.089954,477.656684 355.873417,478.206218 356.634428,479.64589 C357.395439,481.085561 356.845591,482.869491 355.406755,483.630702" id="Fill-973" fill="#EF442E"></path>
                    <path d="M941.948298,447.174102 C940.712398,448.233854 940.56888,450.095048 941.628353,451.33173 C942.68737,452.567954 944.548076,452.71151 945.784891,451.651758 C947.020791,450.592007 947.163852,448.730812 946.104835,447.494588 C945.044904,446.257906 943.184198,446.114807 941.948298,447.174102" id="Fill-975" fill="#01244A"></path>
                    <path d="M951.591245,458.842754 C950.830234,460.281968 951.379625,462.066356 952.818918,462.827567 C954.258212,463.588777 956.041675,463.039243 956.802686,461.599571 C957.563697,460.1599 957.013849,458.37597 955.575012,457.614759 C954.135719,456.853548 952.352256,457.40354 951.591245,458.842754" id="Fill-977" fill="#EF442E"></path>
                    <path d="M961.662278,468.91643 C960.901267,470.355644 961.450658,472.140031 962.889952,472.901242 C964.328788,473.662453 966.112251,473.112461 966.873262,471.673247 C967.634273,470.233576 967.084882,468.449645 965.646046,467.688434 C964.206752,466.926767 962.423289,467.476758 961.662278,468.91643" id="Fill-979" fill="#01244A"></path>
                    <path d="M941.390771,513.814651 C942.449788,515.051333 944.310952,515.194889 945.547309,514.13468 C946.783209,513.075385 946.92627,511.214191 945.867253,509.977509 C944.808237,508.740827 942.946616,508.597729 941.710716,509.657481 C940.474816,510.717232 940.331755,512.578427 941.390771,513.814651" id="Fill-981" fill="#01244A"></path>
                    <path d="M953.05618,504.169128 C954.495017,504.930339 956.278936,504.380804 957.039947,502.941133 C957.801416,501.501919 957.251568,499.717988 955.812274,498.956778 C954.373438,498.195567 952.589518,498.745102 951.828507,500.184316 C951.067496,501.623987 951.617343,503.407918 953.05618,504.169128" id="Fill-983" fill="#EF442E"></path>
                    <path d="M963.127213,494.09591 C964.56605,494.857121 966.34997,494.307129 967.110981,492.867457 C967.871992,491.428243 967.322601,489.644313 965.883307,488.883102 C964.444471,488.121891 962.660551,488.671426 961.89954,490.11064 C961.138529,491.550311 961.688377,493.334242 963.127213,494.09591" id="Fill-985" fill="#01244A"></path>
                    <path d="M973.589676,483.630702 C975.028512,484.391913 976.812432,483.842378 977.573443,482.402707 C978.334454,480.963036 977.784607,479.179105 976.345313,478.417894 C974.906476,477.656684 973.123014,478.206218 972.361546,479.64589 C971.600535,481.085561 972.150382,482.869491 973.589676,483.630702" id="Fill-987" fill="#EF442E"></path>
                </g>
            </g>
        </g>
    </g>
</svg>