<?xml version="1.0" encoding="UTF-8"?>
<svg width="1440px" height="600px" viewBox="0 0 1440 600" version="1.1" xmlns="http://www.w3.org/2000/svg" xmlns:xlink="http://www.w3.org/1999/xlink" style="background: #002B49;">
    <!-- Generator: Sketch 57.1 (83088) - https://sketch.com -->
    <title>Radian / Organisms / One Up / Illustration 2 / Navy / Desktop Copy 2</title>
    <desc>Created with Sketch.</desc>
    <g id="Radian-/-Organisms-/-One-Up-/-Illustration-2-/-Navy-/-Desktop-Copy-2" stroke="none" stroke-width="1" fill="none" fill-rule="evenodd">
        <rect fill="#002B49" x="0" y="0" width="1440" height="600"></rect>
        <g id="Group-229" transform="translate(0.000000, -0.404596)">
            <g id="Group-990" transform="translate(63.000000, -181.595404)">
                <path d="M430.145292,707.936195 L409.859044,687.590745 L379.762113,657.402279" id="Stroke-1" stroke="#09B9B3" stroke-width="2.7324" stroke-dasharray="4.553999905586243"></path>
                <path d="M381.437712,714.44122 L379.054604,716.845277 L409.85877,687.590836 L424.976229,673.307215 L435.297414,683.561457 L461.452403,657.411023 L451.906308,647.868571" id="Stroke-2" stroke="#09B9B3" stroke-width="2.7324" stroke-dasharray="4.553999905586243"></path>
                <path d="M467.417186,633.098947 L451.906262,647.868935 L439.87596,659.232987 L409.791781,629.031314 L434.857452,605.171998" id="Stroke-3" stroke="#09B9B3" stroke-width="2.7324" stroke-dasharray="4.553999905586243"></path>
                <path d="M353.691237,588.923826 L379.523802,614.730889 L387.787946,606.922601 L410.9842,584.791071" id="Stroke-4" stroke="#09B9B3" stroke-width="2.7324" stroke-dasharray="4.553999905586243"></path>
                <path d="M352.392391,683.352155 L379.762386,657.402552 L394.791952,643.206368 L372.700043,621.177759 L357.737421,635.314741 L331.926259,609.427984 L303.232872,580.654901 L302.654514,580.0729" id="Stroke-5" stroke="#09B9B3" stroke-width="2.7324" stroke-dasharray="4.553999905586243"></path>
                <path d="M331.926077,609.427938 L309.846919,630.229699" id="Stroke-6" stroke="#09B9B3" stroke-width="2.7324" stroke-dasharray="4.553999905586243"></path>
                <path d="M317.62547,566.262348 L346.829817,595.387 L353.691328,588.923963 L362.039266,581.061482 L349.410113,568.38178 L349.414212,568.377681 L368.834289,549.879333" id="Stroke-7" stroke="#09B9B3" stroke-width="2.7324" stroke-dasharray="4.553999905586243"></path>
                <path d="M891.493772,247.9704 L914.878562,271.413937 L944.975038,301.602858" id="Stroke-8" stroke="#09B9B3" stroke-width="2.7324" stroke-dasharray="4.553999905586243"></path>
                <path d="M945.682775,242.159633 L914.878153,271.414074 L899.76115,285.697695 L889.439964,275.443453 L863.28452,301.594342 L872.831071,311.136339" id="Stroke-9" stroke="#09B9B3" stroke-width="2.7324" stroke-dasharray="4.553999905586243"></path>
                <path d="M857.320055,325.905871 L872.831435,311.136339 L884.861737,299.772287 L914.945461,329.973504 L889.879789,353.832821" id="Stroke-10" stroke="#09B9B3" stroke-width="2.7324" stroke-dasharray="4.553999905586243"></path>
                <path d="M971.046005,370.08122 L945.21344,344.274157 L936.949296,352.08199 L913.753041,374.213975" id="Stroke-11" stroke="#09B9B3" stroke-width="2.7324" stroke-dasharray="4.553999905586243"></path>
                <path d="M972.345033,275.652664 L944.974582,301.602722 L929.945471,315.798451 L952.037381,337.827515 L967.000003,323.690077 L992.811164,349.57729 L1021.50455,378.349918 L1022.08291,378.932374" id="Stroke-12" stroke="#09B9B3" stroke-width="2.7324" stroke-dasharray="4.553999905586243"></path>
                <path d="M992.811347,349.577108 L1014.89005,328.775347" id="Stroke-13" stroke="#09B9B3" stroke-width="2.7324" stroke-dasharray="4.553999905586243"></path>
                <path d="M1007.112,392.742698 L977.907198,363.618046 L971.046141,370.081083 L962.698204,377.943564 L975.326901,390.623266 L975.322803,390.627365 L955.90318,409.125713" id="Stroke-14" stroke="#09B9B3" stroke-width="2.7324" stroke-dasharray="4.553999905586243"></path>
                <path d="M703.299267,148.995859 L808.22707,239.376365" id="Stroke-15" stroke="#FFFFFF" stroke-width="2.7324"></path>
                <path d="M621.685257,148.901364 L506.213578,248.363456" id="Stroke-17" stroke="#FFFFFF" stroke-width="2.7324"></path>
                <g id="Group-989" transform="translate(0.000000, 0.396198)">
                    <path d="M492.649397,245.190275 C481.92154,242.588574 471.116264,249.17548 468.514108,259.903338 C465.912408,270.63074 472.499769,281.436471 483.227171,284.038172 C493.955029,286.640327 504.760305,280.052966 507.362461,269.325564 C509.964161,258.597706 503.3768,247.791975 492.649397,245.190275 Z" id="Stroke-19" stroke="#FFFFFF" stroke-width="2.7324"></path>
                    <path d="M491.414171,230.262809 L495.704494,226.362308" id="Stroke-21" stroke="#FFFFFF" stroke-width="2.277"></path>
                    <path d="M494.524143,233.683865 L498.814466,229.783364" id="Stroke-23" stroke="#FFFFFF" stroke-width="2.277"></path>
                    <path d="M497.634115,237.104693 L501.924438,233.204192" id="Stroke-25" stroke="#FFFFFF" stroke-width="2.277"></path>
                    <path d="M500.744087,240.525749 L505.03441,236.625248" id="Stroke-27" stroke="#FFFFFF" stroke-width="2.277"></path>
                    <path d="M503.854059,243.946577 L508.144382,240.046076" id="Stroke-29" stroke="#FFFFFF" stroke-width="2.277"></path>
                    <path d="M506.964031,247.367405 L511.254355,243.466904" id="Stroke-31" stroke="#FFFFFF" stroke-width="2.277"></path>
                    <path d="M510.074003,250.788461 L514.364327,246.88796" id="Stroke-33" stroke="#FFFFFF" stroke-width="2.277"></path>
                    <path d="M513.183975,254.209335 L517.474299,250.308834" id="Stroke-35" stroke="#FFFFFF" stroke-width="2.277"></path>
                    <path d="M516.293948,257.630163 L520.584271,253.729662" id="Stroke-37" stroke="#FFFFFF" stroke-width="2.277"></path>
                    <path d="M519.40392,261.051219 L523.694243,257.150718" id="Stroke-39" stroke="#FFFFFF" stroke-width="2.277"></path>
                    <path d="M522.513892,264.472047 L526.804215,260.571546" id="Stroke-41" stroke="#FFFFFF" stroke-width="2.277"></path>
                    <path d="M442.368365,274.850613 L453.077551,265.115072" id="Stroke-43" stroke="#FFFFFF" stroke-width="2.277"></path>
                    <path d="M445.478337,278.271487 L456.187523,268.535946" id="Stroke-45" stroke="#FFFFFF" stroke-width="2.277"></path>
                    <path d="M448.588309,281.692315 L459.297495,271.956774" id="Stroke-47" stroke="#FFFFFF" stroke-width="2.277"></path>
                    <path d="M451.698281,285.113371 L462.407468,275.37783" id="Stroke-49" stroke="#FFFFFF" stroke-width="2.277"></path>
                    <path d="M454.808253,288.534199 L465.51744,278.798658" id="Stroke-51" stroke="#FFFFFF" stroke-width="2.277"></path>
                    <path d="M457.918225,291.955027 L468.627412,282.219486" id="Stroke-53" stroke="#FFFFFF" stroke-width="2.277"></path>
                    <path d="M461.028198,295.376083 L471.737384,285.640542" id="Stroke-55" stroke="#FFFFFF" stroke-width="2.277"></path>
                    <path d="M464.13817,298.796957 L474.847356,289.061416" id="Stroke-57" stroke="#FFFFFF" stroke-width="2.277"></path>
                    <path d="M467.248187,302.218013 L477.957374,292.482472" id="Stroke-59" stroke="#FFFFFF" stroke-width="2.277"></path>
                    <path d="M470.358159,305.638841 L481.067346,295.9033" id="Stroke-61" stroke="#FFFFFF" stroke-width="2.277"></path>
                    <path d="M473.468132,309.059669 L484.177318,299.324128" id="Stroke-63" stroke="#FFFFFF" stroke-width="2.277"></path>
                    <path d="M522.326222,268.411895 L526.226723,272.702674" id="Stroke-65" stroke="#FFFFFF" stroke-width="2.277"></path>
                    <path d="M518.905393,271.521867 L522.805894,275.812646" id="Stroke-67" stroke="#FFFFFF" stroke-width="2.277"></path>
                    <path d="M515.484337,274.631839 L519.384839,278.922618" id="Stroke-69" stroke="#FFFFFF" stroke-width="2.277"></path>
                    <path d="M512.063509,277.741811 L515.96401,282.03259" id="Stroke-71" stroke="#FFFFFF" stroke-width="2.277"></path>
                    <path d="M508.642681,280.851783 L512.543182,285.142562" id="Stroke-73" stroke="#FFFFFF" stroke-width="2.277"></path>
                    <path d="M505.221625,283.961755 L509.122126,288.252534" id="Stroke-75" stroke="#FFFFFF" stroke-width="2.277"></path>
                    <path d="M501.800752,287.071728 L505.701253,291.362506" id="Stroke-77" stroke="#FFFFFF" stroke-width="2.277"></path>
                    <path d="M498.379923,290.1817 L502.280424,294.472479" id="Stroke-79" stroke="#FFFFFF" stroke-width="2.277"></path>
                    <path d="M494.958867,293.291672 L498.859368,297.582451" id="Stroke-81" stroke="#FFFFFF" stroke-width="2.277"></path>
                    <path d="M491.538039,296.401644 L495.43854,300.692423" id="Stroke-83" stroke="#FFFFFF" stroke-width="2.277"></path>
                    <path d="M488.116983,299.511616 L492.017484,303.802395" id="Stroke-85" stroke="#FFFFFF" stroke-width="2.277"></path>
                    <path d="M483.558976,225.768375 L487.459477,230.059154" id="Stroke-87" stroke="#FFFFFF" stroke-width="2.277"></path>
                    <path d="M480.13792,228.878347 L484.038421,233.169126" id="Stroke-89" stroke="#FFFFFF" stroke-width="2.277"></path>
                    <path d="M476.717092,231.98832 L480.617593,236.279098" id="Stroke-91" stroke="#FFFFFF" stroke-width="2.277"></path>
                    <path d="M473.296264,235.098292 L477.196765,239.389071" id="Stroke-93" stroke="#FFFFFF" stroke-width="2.277"></path>
                    <path d="M469.875162,238.208264 L473.775663,242.499043" id="Stroke-95" stroke="#FFFFFF" stroke-width="2.277"></path>
                    <path d="M466.454334,241.318236 L470.354835,245.609015" id="Stroke-97" stroke="#FFFFFF" stroke-width="2.277"></path>
                    <path d="M463.033278,244.428208 L466.933779,248.718987" id="Stroke-99" stroke="#FFFFFF" stroke-width="2.277"></path>
                    <path d="M459.612404,247.53818 L463.512905,251.828959" id="Stroke-101" stroke="#FFFFFF" stroke-width="2.277"></path>
                    <path d="M456.191576,250.648152 L460.092077,254.938931" id="Stroke-103" stroke="#FFFFFF" stroke-width="2.277"></path>
                    <path d="M452.77052,253.758125 L456.671021,258.048903" id="Stroke-105" stroke="#FFFFFF" stroke-width="2.277"></path>
                    <path d="M449.349692,256.868097 L453.250193,261.158876" id="Stroke-107" stroke="#FFFFFF" stroke-width="2.277"></path>
                    <polygon id="Stroke-109" stroke="#09B9B3" stroke-width="2.7324" points="486.262003 299.821379 452.731356 262.938078 489.614657 229.406976 523.145304 266.290733"></polygon>
                    <path d="M821.398604,235.696687 C832.126462,233.094987 842.931738,239.681893 845.533438,250.409751 C848.135594,261.137153 841.548233,271.942884 830.820375,274.54504 C820.092973,277.14674 809.287241,270.559379 806.685541,259.831977 C804.083841,249.104119 810.670747,238.298388 821.398604,235.696687 Z" id="Stroke-111" stroke="#FFFFFF" stroke-width="2.7324"></path>
                    <path d="M822.633604,220.76945 L818.342825,216.868949" id="Stroke-113" stroke="#FFFFFF" stroke-width="2.277"></path>
                    <path d="M819.523632,224.190278 L815.232853,220.289777" id="Stroke-115" stroke="#FFFFFF" stroke-width="2.277"></path>
                    <path d="M816.413659,227.611334 L812.122881,223.710833" id="Stroke-117" stroke="#FFFFFF" stroke-width="2.277"></path>
                    <path d="M813.303687,231.032162 L809.012908,227.131661" id="Stroke-119" stroke="#FFFFFF" stroke-width="2.277"></path>
                    <path d="M810.193715,234.45299 L805.902936,230.552489" id="Stroke-121" stroke="#FFFFFF" stroke-width="2.277"></path>
                    <path d="M807.083743,237.874046 L802.792964,233.973545" id="Stroke-123" stroke="#FFFFFF" stroke-width="2.277"></path>
                    <path d="M803.973771,241.29492 L799.682992,237.394419" id="Stroke-125" stroke="#FFFFFF" stroke-width="2.277"></path>
                    <path d="M800.863799,244.715975 L796.57302,240.815474" id="Stroke-127" stroke="#FFFFFF" stroke-width="2.277"></path>
                    <path d="M797.753827,248.136804 L793.463048,244.236303" id="Stroke-129" stroke="#FFFFFF" stroke-width="2.277"></path>
                    <path d="M794.643854,251.557632 L790.353076,247.657131" id="Stroke-131" stroke="#FFFFFF" stroke-width="2.277"></path>
                    <path d="M791.533882,254.978688 L787.243103,251.078187" id="Stroke-133" stroke="#FFFFFF" stroke-width="2.277"></path>
                    <path d="M871.679409,265.357072 L860.970223,255.62153" id="Stroke-135" stroke="#FFFFFF" stroke-width="2.277"></path>
                    <path d="M868.569437,268.778127 L857.860251,259.042586" id="Stroke-137" stroke="#FFFFFF" stroke-width="2.277"></path>
                    <path d="M865.459465,272.198956 L854.750279,262.463414" id="Stroke-139" stroke="#FFFFFF" stroke-width="2.277"></path>
                    <path d="M862.349493,275.619784 L851.640307,265.884243" id="Stroke-141" stroke="#FFFFFF" stroke-width="2.277"></path>
                    <path d="M859.239521,279.04084 L848.530335,269.305298" id="Stroke-143" stroke="#FFFFFF" stroke-width="2.277"></path>
                    <path d="M856.129549,282.461668 L845.420362,272.726127" id="Stroke-145" stroke="#FFFFFF" stroke-width="2.277"></path>
                    <path d="M853.019577,285.882542 L842.31039,276.147" id="Stroke-147" stroke="#FFFFFF" stroke-width="2.277"></path>
                    <path d="M849.909605,289.303597 L839.200418,279.568056" id="Stroke-149" stroke="#FFFFFF" stroke-width="2.277"></path>
                    <path d="M846.799632,292.724426 L836.090446,282.988884" id="Stroke-151" stroke="#FFFFFF" stroke-width="2.277"></path>
                    <path d="M843.68966,296.145254 L832.980474,286.409713" id="Stroke-153" stroke="#FFFFFF" stroke-width="2.277"></path>
                    <path d="M840.579688,299.56631 L829.870502,289.830768" id="Stroke-155" stroke="#FFFFFF" stroke-width="2.277"></path>
                    <path d="M791.721553,258.918535 L787.821052,263.208859" id="Stroke-157" stroke="#FFFFFF" stroke-width="2.277"></path>
                    <path d="M795.142426,262.028507 L791.241925,266.318831" id="Stroke-159" stroke="#FFFFFF" stroke-width="2.277"></path>
                    <path d="M798.56371,265.13848 L794.663209,269.428803" id="Stroke-161" stroke="#FFFFFF" stroke-width="2.277"></path>
                    <path d="M801.984538,268.248452 L798.084037,272.538775" id="Stroke-163" stroke="#FFFFFF" stroke-width="2.277"></path>
                    <path d="M805.405366,271.358424 L801.504865,275.648747" id="Stroke-165" stroke="#FFFFFF" stroke-width="2.277"></path>
                    <path d="M808.826194,274.468396 L804.925693,278.758719" id="Stroke-167" stroke="#FFFFFF" stroke-width="2.277"></path>
                    <path d="M812.247023,277.578368 L808.346522,281.868692" id="Stroke-169" stroke="#FFFFFF" stroke-width="2.277"></path>
                    <path d="M815.667896,280.68834 L811.767395,284.978664" id="Stroke-171" stroke="#FFFFFF" stroke-width="2.277"></path>
                    <path d="M819.089134,283.798312 L815.188633,288.088636" id="Stroke-173" stroke="#FFFFFF" stroke-width="2.277"></path>
                    <path d="M822.510008,286.908285 L818.609507,291.198608" id="Stroke-175" stroke="#FFFFFF" stroke-width="2.277"></path>
                    <path d="M825.930836,290.018257 L822.030335,294.30858" id="Stroke-177" stroke="#FFFFFF" stroke-width="2.277"></path>
                    <path d="M830.488844,216.275016 L826.588343,220.565795" id="Stroke-179" stroke="#FFFFFF" stroke-width="2.277"></path>
                    <path d="M833.910127,219.384988 L830.009626,223.675767" id="Stroke-181" stroke="#FFFFFF" stroke-width="2.277"></path>
                    <path d="M837.330956,222.49496 L833.430455,226.785739" id="Stroke-183" stroke="#FFFFFF" stroke-width="2.277"></path>
                    <path d="M840.751784,225.604932 L836.851283,229.895711" id="Stroke-185" stroke="#FFFFFF" stroke-width="2.277"></path>
                    <path d="M844.172612,228.714904 L840.272111,233.005683" id="Stroke-187" stroke="#FFFFFF" stroke-width="2.277"></path>
                    <path d="M847.59344,231.824877 L843.692939,236.115655" id="Stroke-189" stroke="#FFFFFF" stroke-width="2.277"></path>
                    <path d="M851.014314,234.934849 L847.113813,239.225628" id="Stroke-191" stroke="#FFFFFF" stroke-width="2.277"></path>
                    <path d="M854.435597,238.044821 L850.535096,242.3356" id="Stroke-193" stroke="#FFFFFF" stroke-width="2.277"></path>
                    <path d="M857.856426,241.154793 L853.955925,245.445572" id="Stroke-195" stroke="#FFFFFF" stroke-width="2.277"></path>
                    <path d="M861.277254,244.264765 L857.376753,248.555544" id="Stroke-197" stroke="#FFFFFF" stroke-width="2.277"></path>
                    <path d="M864.698082,247.374737 L860.797581,251.665516" id="Stroke-199" stroke="#FFFFFF" stroke-width="2.277"></path>
                    <polygon id="Stroke-201" stroke="#09B9B3" stroke-width="2.7324" points="827.785772 290.327792 861.316874 253.444491 824.433572 219.913844 790.90247 256.797145"></polygon>
                    <path d="M701.477667,810.329197 L799.797161,725.608858" id="Stroke-203" stroke="#FFFFFF" stroke-width="2.7324"></path>
                    <path d="M623.506857,810.42392 L513.575574,715.733964" id="Stroke-207" stroke="#FFFFFF" stroke-width="2.7324"></path>
                    <path d="M499.935797,718.292583 C489.20794,720.894739 478.402664,714.307378 475.800508,703.57952 C473.198808,692.852118 479.786169,682.046387 490.513571,679.444686 C501.241429,676.842531 512.046705,683.429892 514.648861,694.15775 C517.250561,704.885607 510.6632,715.690883 499.935797,718.292583 Z" id="Stroke-211" stroke="#FFFFFF" stroke-width="2.7324"></path>
                    <path d="M498.700571,733.219867 L502.990894,737.120368" id="Stroke-213" stroke="#FFFFFF" stroke-width="2.277"></path>
                    <path d="M501.810543,729.798993 L506.100866,733.699494" id="Stroke-215" stroke="#FFFFFF" stroke-width="2.277"></path>
                    <path d="M504.920515,726.378165 L509.210838,730.278666" id="Stroke-217" stroke="#FFFFFF" stroke-width="2.277"></path>
                    <path d="M508.030487,722.957337 L512.32081,726.857838" id="Stroke-219" stroke="#FFFFFF" stroke-width="2.277"></path>
                    <path d="M511.140459,719.536508 L515.430782,723.437009" id="Stroke-221" stroke="#FFFFFF" stroke-width="2.277"></path>
                    <path d="M514.250431,716.11568 L518.540755,720.016181" id="Stroke-223" stroke="#FFFFFF" stroke-width="2.277"></path>
                    <path d="M517.360403,712.694397 L521.650727,716.594898" id="Stroke-225" stroke="#FFFFFF" stroke-width="2.277"></path>
                    <path d="M520.470375,709.273569 L524.760699,713.17407" id="Stroke-227" stroke="#FFFFFF" stroke-width="2.277"></path>
                    <path d="M523.580348,705.852695 L527.870671,709.753196" id="Stroke-229" stroke="#FFFFFF" stroke-width="2.277"></path>
                    <path d="M526.69032,702.431867 L530.980643,706.332368" id="Stroke-231" stroke="#FFFFFF" stroke-width="2.277"></path>
                    <path d="M529.800292,699.011038 L534.090615,702.911539" id="Stroke-233" stroke="#FFFFFF" stroke-width="2.277"></path>
                    <path d="M450.733698,689.613085 L460.363587,698.36815" id="Stroke-235" stroke="#FFFFFF" stroke-width="2.277"></path>
                    <path d="M453.843671,686.192257 L463.473559,694.947322" id="Stroke-237" stroke="#FFFFFF" stroke-width="2.277"></path>
                    <path d="M456.953643,682.771383 L466.583986,691.526448" id="Stroke-239" stroke="#FFFFFF" stroke-width="2.277"></path>
                    <path d="M460.063615,679.350555 L469.693959,688.10562" id="Stroke-241" stroke="#FFFFFF" stroke-width="2.277"></path>
                    <path d="M463.173587,675.929272 L472.803931,684.684792" id="Stroke-243" stroke="#FFFFFF" stroke-width="2.277"></path>
                    <path d="M466.283559,672.508443 L475.913447,681.263508" id="Stroke-245" stroke="#FFFFFF" stroke-width="2.277"></path>
                    <path d="M469.393531,669.087615 L479.02342,677.84268" id="Stroke-247" stroke="#FFFFFF" stroke-width="2.277"></path>
                    <path d="M472.503503,665.666787 L482.133392,674.421852" id="Stroke-249" stroke="#FFFFFF" stroke-width="2.277"></path>
                    <path d="M475.613475,662.245959 L485.243364,671.001024" id="Stroke-251" stroke="#FFFFFF" stroke-width="2.277"></path>
                    <path d="M478.723448,658.825085 L488.353336,667.58015" id="Stroke-253" stroke="#FFFFFF" stroke-width="2.277"></path>
                    <path d="M481.83342,655.403802 L491.463308,664.158867" id="Stroke-255" stroke="#FFFFFF" stroke-width="2.277"></path>
                    <path d="M529.612622,695.071191 L533.513123,690.780412" id="Stroke-257" stroke="#FFFFFF" stroke-width="2.277"></path>
                    <path d="M526.191793,691.961219 L530.092294,687.67044" id="Stroke-259" stroke="#FFFFFF" stroke-width="2.277"></path>
                    <path d="M522.770737,688.851247 L526.671239,684.560468" id="Stroke-261" stroke="#FFFFFF" stroke-width="2.277"></path>
                    <path d="M519.349909,685.741274 L523.25041,681.450496" id="Stroke-263" stroke="#FFFFFF" stroke-width="2.277"></path>
                    <path d="M515.929081,682.631302 L519.829582,678.340524" id="Stroke-265" stroke="#FFFFFF" stroke-width="2.277"></path>
                    <path d="M512.508025,679.52133 L516.408526,675.230551" id="Stroke-267" stroke="#FFFFFF" stroke-width="2.277"></path>
                    <path d="M509.087152,676.411358 L512.987653,672.120579" id="Stroke-269" stroke="#FFFFFF" stroke-width="2.277"></path>
                    <path d="M505.666323,673.301386 L509.566824,669.010607" id="Stroke-271" stroke="#FFFFFF" stroke-width="2.277"></path>
                    <path d="M502.245267,670.191414 L506.145768,665.900635" id="Stroke-273" stroke="#FFFFFF" stroke-width="2.277"></path>
                    <path d="M498.824439,667.081442 L502.72494,662.790663" id="Stroke-275" stroke="#FFFFFF" stroke-width="2.277"></path>
                    <path d="M495.403383,663.971469 L499.303884,659.680691" id="Stroke-277" stroke="#FFFFFF" stroke-width="2.277"></path>
                    <path d="M490.845376,737.714255 L494.745877,733.423931" id="Stroke-279" stroke="#FFFFFF" stroke-width="2.277"></path>
                    <path d="M487.42432,734.604283 L491.324821,730.313959" id="Stroke-281" stroke="#FFFFFF" stroke-width="2.277"></path>
                    <path d="M484.003492,731.494311 L487.903993,727.203987" id="Stroke-283" stroke="#FFFFFF" stroke-width="2.277"></path>
                    <path d="M480.582664,728.384338 L484.483165,724.094015" id="Stroke-285" stroke="#FFFFFF" stroke-width="2.277"></path>
                    <path d="M477.161562,725.274366 L481.062063,720.984043" id="Stroke-287" stroke="#FFFFFF" stroke-width="2.277"></path>
                    <path d="M473.740734,722.164394 L477.641235,717.874071" id="Stroke-289" stroke="#FFFFFF" stroke-width="2.277"></path>
                    <path d="M470.319678,719.054422 L474.220179,714.764099" id="Stroke-291" stroke="#FFFFFF" stroke-width="2.277"></path>
                    <path d="M466.89885,715.94445 L470.799351,711.654126" id="Stroke-293" stroke="#FFFFFF" stroke-width="2.277"></path>
                    <path d="M463.477976,712.834478 L467.378477,708.544154" id="Stroke-295" stroke="#FFFFFF" stroke-width="2.277"></path>
                    <path d="M460.05692,709.724961 L463.957421,705.434182" id="Stroke-297" stroke="#FFFFFF" stroke-width="2.277"></path>
                    <path d="M456.636092,706.614989 L460.536593,702.32421" id="Stroke-299" stroke="#FFFFFF" stroke-width="2.277"></path>
                    <polygon id="Stroke-301" stroke="#09B9B3" stroke-width="2.7324" points="493.548403 663.661524 460.017756 700.544826 496.901057 734.075928 530.431704 697.192626"></polygon>
                    <path d="M814.112204,727.786171 C824.840062,730.387871 835.645338,723.800965 838.247038,713.073107 C840.849194,702.345705 834.261833,691.539974 823.533975,688.937818 C812.806573,686.336118 802.000841,692.923479 799.399141,703.651337 C796.797441,714.378739 803.384347,725.18447 814.112204,727.786171 Z" id="Stroke-303" stroke="#FFFFFF" stroke-width="2.7324"></path>
                    <path d="M815.347204,742.713408 L811.056425,746.613909" id="Stroke-305" stroke="#FFFFFF" stroke-width="2.277"></path>
                    <path d="M812.237232,739.29258 L807.946453,743.193081" id="Stroke-307" stroke="#FFFFFF" stroke-width="2.277"></path>
                    <path d="M809.127259,735.871752 L804.836481,739.772253" id="Stroke-309" stroke="#FFFFFF" stroke-width="2.277"></path>
                    <path d="M806.017287,732.450924 L801.726508,736.351425" id="Stroke-311" stroke="#FFFFFF" stroke-width="2.277"></path>
                    <path d="M802.907315,729.02964 L798.616536,732.930141" id="Stroke-313" stroke="#FFFFFF" stroke-width="2.277"></path>
                    <path d="M799.797343,725.608812 L795.506564,729.509313" id="Stroke-315" stroke="#FFFFFF" stroke-width="2.277"></path>
                    <path d="M796.687371,722.187984 L792.396592,726.088485" id="Stroke-317" stroke="#FFFFFF" stroke-width="2.277"></path>
                    <path d="M793.577399,718.76711 L789.28662,722.667611" id="Stroke-319" stroke="#FFFFFF" stroke-width="2.277"></path>
                    <path d="M790.467427,715.346282 L786.176648,719.246783" id="Stroke-321" stroke="#FFFFFF" stroke-width="2.277"></path>
                    <path d="M787.357454,711.925454 L783.066676,715.825955" id="Stroke-323" stroke="#FFFFFF" stroke-width="2.277"></path>
                    <path d="M784.247482,708.50417 L779.956703,712.404671" id="Stroke-325" stroke="#FFFFFF" stroke-width="2.277"></path>
                    <path d="M864.037661,698.448893 L853.684142,707.861555" id="Stroke-327" stroke="#FFFFFF" stroke-width="2.277"></path>
                    <path d="M860.927689,695.028065 L850.57417,704.440727" id="Stroke-329" stroke="#FFFFFF" stroke-width="2.277"></path>
                    <path d="M857.817717,691.607236 L847.464198,701.019899" id="Stroke-331" stroke="#FFFFFF" stroke-width="2.277"></path>
                    <path d="M854.707744,688.185953 L844.354225,697.598615" id="Stroke-333" stroke="#FFFFFF" stroke-width="2.277"></path>
                    <path d="M851.597772,684.765125 L841.244253,694.177787" id="Stroke-335" stroke="#FFFFFF" stroke-width="2.277"></path>
                    <path d="M848.4878,681.344296 L838.134281,690.756959" id="Stroke-337" stroke="#FFFFFF" stroke-width="2.277"></path>
                    <path d="M845.377828,677.923423 L835.024309,687.336085" id="Stroke-339" stroke="#FFFFFF" stroke-width="2.277"></path>
                    <path d="M841.552741,675.152815 L831.9142,683.915166" id="Stroke-341" stroke="#FFFFFF" stroke-width="2.277"></path>
                    <path d="M838.442769,671.731941 L828.804228,680.494292" id="Stroke-343" stroke="#FFFFFF" stroke-width="2.277"></path>
                    <path d="M835.332797,668.310657 L825.694256,677.073009" id="Stroke-345" stroke="#FFFFFF" stroke-width="2.277"></path>
                    <path d="M832.222825,664.889829 L822.584284,673.652181" id="Stroke-347" stroke="#FFFFFF" stroke-width="2.277"></path>
                    <path d="M784.435153,704.564323 L780.534652,700.273544" id="Stroke-349" stroke="#FFFFFF" stroke-width="2.277"></path>
                    <path d="M787.856026,701.454351 L783.955525,697.163572" id="Stroke-351" stroke="#FFFFFF" stroke-width="2.277"></path>
                    <path d="M791.27731,698.344378 L787.376809,694.0536" id="Stroke-353" stroke="#FFFFFF" stroke-width="2.277"></path>
                    <path d="M794.698138,695.234406 L790.797637,690.943627" id="Stroke-355" stroke="#FFFFFF" stroke-width="2.277"></path>
                    <path d="M798.118966,692.124434 L794.218465,687.833655" id="Stroke-357" stroke="#FFFFFF" stroke-width="2.277"></path>
                    <path d="M801.539794,689.014462 L797.639293,684.723683" id="Stroke-359" stroke="#FFFFFF" stroke-width="2.277"></path>
                    <path d="M804.960623,685.90449 L801.060122,681.613711" id="Stroke-361" stroke="#FFFFFF" stroke-width="2.277"></path>
                    <path d="M808.381496,682.794518 L804.480995,678.503739" id="Stroke-363" stroke="#FFFFFF" stroke-width="2.277"></path>
                    <path d="M811.802734,679.684546 L807.902233,675.393767" id="Stroke-365" stroke="#FFFFFF" stroke-width="2.277"></path>
                    <path d="M815.223608,676.574573 L811.323107,672.283795" id="Stroke-367" stroke="#FFFFFF" stroke-width="2.277"></path>
                    <path d="M818.644436,673.464601 L814.743935,669.173822" id="Stroke-369" stroke="#FFFFFF" stroke-width="2.277"></path>
                    <path d="M823.202444,747.207842 L819.301943,742.917063" id="Stroke-371" stroke="#FFFFFF" stroke-width="2.277"></path>
                    <path d="M826.623727,744.09787 L822.723226,739.807091" id="Stroke-373" stroke="#FFFFFF" stroke-width="2.277"></path>
                    <path d="M830.044556,740.987898 L826.144055,736.697119" id="Stroke-375" stroke="#FFFFFF" stroke-width="2.277"></path>
                    <path d="M833.465384,737.877926 L829.564883,733.587147" id="Stroke-377" stroke="#FFFFFF" stroke-width="2.277"></path>
                    <path d="M836.886212,734.767953 L832.985711,730.477175" id="Stroke-379" stroke="#FFFFFF" stroke-width="2.277"></path>
                    <path d="M840.30704,731.657981 L836.406539,727.367203" id="Stroke-381" stroke="#FFFFFF" stroke-width="2.277"></path>
                    <path d="M843.727914,728.548009 L839.827413,724.25723" id="Stroke-383" stroke="#FFFFFF" stroke-width="2.277"></path>
                    <path d="M847.149197,725.438037 L843.248696,721.147258" id="Stroke-385" stroke="#FFFFFF" stroke-width="2.277"></path>
                    <path d="M850.570026,722.328065 L846.669525,718.037286" id="Stroke-387" stroke="#FFFFFF" stroke-width="2.277"></path>
                    <path d="M853.990854,719.218093 L850.090353,714.927314" id="Stroke-389" stroke="#FFFFFF" stroke-width="2.277"></path>
                    <path d="M857.411682,716.108121 L853.511181,711.817342" id="Stroke-391" stroke="#FFFFFF" stroke-width="2.277"></path>
                    <polygon id="Stroke-393" stroke="#09B9B3" stroke-width="2.7324" points="820.499372 673.155066 854.030474 710.038367 817.147172 743.569014 783.61607 706.686168"></polygon>
                    <polyline id="Stroke-395" stroke="#FFFFFF" stroke-width="2.7324" points="857.513965 690.72754 879.632743 668.672518 912.453876 635.952028"></polyline>
                    <polyline id="Stroke-397" stroke="#FFFFFF" stroke-width="2.7324" points="850.441922 637.773537 850.796678 638.151519 879.633062 668.672882 895.161746 685.107813 884.01401 696.328869 912.444176 724.7645 922.818644 714.385479"></polyline>
                    <polyline id="Stroke-399" stroke="#FFFFFF" stroke-width="2.7324" points="936.639715 729.0132 922.818325 714.385752 910.463778 701.306664 943.297663 668.599836 965.790324 692.403139"></polyline>
                    <polyline id="Stroke-401" stroke="#FFFFFF" stroke-width="2.7324" points="986.902258 607.60816 958.84552 635.692678 967.33372 644.677264 987.116296 665.617012"></polyline>
                    <polyline id="Stroke-403" stroke="#FFFFFF" stroke-width="2.7324" points="886.004062 607.95859 912.453694 635.952028 927.8872 652.292236 951.836686 628.273984 936.466936 612.007096 964.610201 583.945804 995.892082 552.750904 996.524633 552.121996"></polyline>
                    <path d="M964.610337,583.945621 L941.995629,559.941487" id="Stroke-405" stroke="#FFFFFF" stroke-width="2.7324"></path>
                    <polyline id="Stroke-407" stroke="#FFFFFF" stroke-width="2.7324" points="1011.53967 568.397947 979.87571 600.14889 986.902076 607.608342 995.45039 616.684009 1009.23489 602.953699 1009.23945 602.958708 1023.77126 618.491947"></polyline>
                    <polyline id="Stroke-409" stroke="#FFFFFF" stroke-width="2.7324" points="381.327186 298.751781 401.959539 277.068366 422.494891 255.677772"></polyline>
                    <polyline id="Stroke-411" stroke="#FFFFFF" stroke-width="2.7324" points="444.522407 318.832553 454.185995 308.800091 427.710405 281.305316 417.262618 292.086456 401.959812 277.06873 373.541941 249.181856 373.189917 248.838029"></polyline>
                    <polyline id="Stroke-413" stroke="#FFFFFF" stroke-width="2.7324" points="424.055182 360.389579 401.891775 338.637854 432.344829 306.884178 444.522225 318.832508 458.141872 332.198953"></polyline>
                    <polyline id="Stroke-415" stroke="#FFFFFF" stroke-width="2.7324" points="400.529173 382.402203 379.618116 361.88279 371.252418 353.673294 345.10335 380.807393"></polyline>
                    <polyline id="Stroke-417" stroke="#FFFFFF" stroke-width="2.7324" points="303.859411 379.44388 332.904368 349.192113 359.032487 321.974677 374.17818 336.838477 396.541053 313.677289 381.32705 298.752009 353.837739 271.7477"></polyline>
                    <path d="M300.721386,337.378308 L323.071507,359.248893" id="Stroke-419" stroke="#FFFFFF" stroke-width="2.7324"></path>
                    <polyline id="Stroke-421" stroke="#FFFFFF" stroke-width="2.7324" points="357.307523 418.474392 340.774226 402.409246 340.770128 402.404692 353.554116 389.073313 345.103259 380.807347 338.157953 374.011413 318.743796 394.120966"></polyline>
                    <path d="M1167.72812,478.133158 L1166.11828,479.743453" id="Stroke-423" stroke="#09B9B3" stroke-width="2.277"></path>
                    <path d="M1162.87478,482.986902 L1047.73327,598.128417" id="Stroke-425" stroke="#09B9B3" stroke-width="2.277" stroke-dasharray="4.586788387298584,4.586788387298584"></path>
                    <path d="M1046.11141,599.749869 L1044.50157,601.360163" id="Stroke-427" stroke="#09B9B3" stroke-width="2.277"></path>
                    <path d="M1167.72812,475.906389 L1166.11828,474.296094" id="Stroke-429" stroke="#09B9B3" stroke-width="2.277"></path>
                    <path d="M1162.91882,471.096909 L1049.3457,357.524248" id="Stroke-431" stroke="#09B9B3" stroke-width="2.277" stroke-dasharray="4.524399304389954,4.524399304389954"></path>
                    <path d="M1047.7462,355.924519 L1046.13636,354.31468" id="Stroke-433" stroke="#09B9B3" stroke-width="2.277"></path>
                    <path d="M1168.81147,477.116705 L1136.67617,509.252006" id="Stroke-435" stroke="#FFFFFF" stroke-width="2.277"></path>
                    <polygon id="Fill-437" fill="#FFFFFF" points="1168.81147 484.818703 1161.10883 477.116523 1168.81147 469.414343 1176.51365 477.116523"></polygon>
                    <polygon id="Stroke-439" stroke="#09B9B3" stroke-width="2.277" points="1168.81147 484.818703 1161.10883 477.116523 1168.81147 469.414343 1176.51365 477.116523"></polygon>
                    <polygon id="Fill-441" fill="#002B49" points="1153.16552 500.464653 1145.46334 492.762473 1153.16552 485.060293 1160.8677 492.762473"></polygon>
                    <polygon id="Stroke-443" stroke="#FFFFFF" stroke-width="2.277" points="1153.16552 500.464653 1145.46334 492.762473 1153.16552 485.060293 1160.8677 492.762473"></polygon>
                    <polygon id="Fill-445" fill="#002B49" points="1137.51961 516.110558 1129.81743 508.408378 1137.51961 500.706198 1145.2218 508.408378"></polygon>
                    <polygon id="Stroke-447" stroke="#09B9B3" stroke-width="2.277" points="1137.51961 516.110558 1129.81743 508.408378 1137.51961 500.706198 1145.2218 508.408378"></polygon>
                    <path d="M1168.81147,476.923935 L1136.67617,444.788634" id="Stroke-449" stroke="#FFFFFF" stroke-width="2.277"></path>
                    <polygon id="Fill-451" fill="#002B49" points="1168.81147 469.221481 1161.10883 476.924117 1168.81147 484.626297 1176.51365 476.924117"></polygon>
                    <polygon id="Stroke-453" stroke="#09B9B3" stroke-width="2.277" points="1168.81147 469.221481 1161.10883 476.924117 1168.81147 484.626297 1176.51365 476.924117"></polygon>
                    <polygon id="Fill-455" fill="#002B49" points="1153.16552 453.575804 1145.46334 461.277984 1153.16552 468.98062 1160.8677 461.277984"></polygon>
                    <polygon id="Stroke-457" stroke="#FFFFFF" stroke-width="2.277" points="1153.16552 453.575804 1145.46334 461.277984 1153.16552 468.98062 1160.8677 461.277984"></polygon>
                    <polygon id="Fill-459" fill="#002B49" points="1137.51961 437.929854 1129.81743 445.63249 1137.51961 453.33467 1145.2218 445.63249"></polygon>
                    <polygon id="Stroke-461" stroke="#09B9B3" stroke-width="2.277" points="1137.51961 437.929854 1129.81743 445.63249 1137.51961 453.33467 1145.2218 445.63249"></polygon>
                    <path d="M278.179086,601.360208 L276.568792,599.749914" id="Stroke-463" stroke="#09B9B3" stroke-width="2.277"></path>
                    <path d="M273.32557,596.506464 L158.184055,481.36495" id="Stroke-465" stroke="#09B9B3" stroke-width="2.277" stroke-dasharray="4.586788387298584,4.586788387298584"></path>
                    <path d="M156.562421,479.743498 L154.952582,478.133204" id="Stroke-467" stroke="#09B9B3" stroke-width="2.277"></path>
                    <path d="M276.544291,354.314589 L274.933997,355.924428" id="Stroke-469" stroke="#09B9B3" stroke-width="2.277"></path>
                    <path d="M271.734812,359.123886 L158.162151,472.696547" id="Stroke-471" stroke="#09B9B3" stroke-width="2.277" stroke-dasharray="4.524399304389954,4.524399304389954"></path>
                    <path d="M156.562421,474.296277 L154.952582,475.906571" id="Stroke-473" stroke="#09B9B3" stroke-width="2.277"></path>
                    <path d="M153.86914,477.116705 L186.004441,509.252006" id="Stroke-475" stroke="#FFFFFF" stroke-width="2.277"></path>
                    <polygon id="Fill-477" fill="#FFFFFF" points="153.86914 484.818703 161.571776 477.116523 153.86914 469.414343 146.16696 477.116523"></polygon>
                    <polygon id="Stroke-479" stroke="#09B9B3" stroke-width="2.277" points="153.86914 484.818703 161.571776 477.116523 153.86914 469.414343 146.16696 477.116523"></polygon>
                    <polygon id="Fill-481" fill="#002B49" points="169.51509 500.464653 177.217271 492.762473 169.51509 485.060293 161.812455 492.762473"></polygon>
                    <polygon id="Stroke-483" stroke="#FFFFFF" stroke-width="2.277" points="169.51509 500.464653 177.217271 492.762473 169.51509 485.060293 161.812455 492.762473"></polygon>
                    <polygon id="Fill-485" fill="#002B49" points="185.160767 516.110558 192.863403 508.408378 185.160767 500.706198 177.458587 508.408378"></polygon>
                    <polygon id="Stroke-487" stroke="#09B9B3" stroke-width="2.277" points="185.160767 516.110558 192.863403 508.408378 185.160767 500.706198 177.458587 508.408378"></polygon>
                    <path d="M153.86914,476.923935 L186.004441,444.788634" id="Stroke-489" stroke="#FFFFFF" stroke-width="2.277"></path>
                    <polygon id="Fill-491" fill="#002B49" points="153.86914 469.221481 161.571776 476.924117 153.86914 484.626297 146.16696 476.924117"></polygon>
                    <polygon id="Stroke-493" stroke="#09B9B3" stroke-width="2.277" points="153.86914 469.221481 161.571776 476.924117 153.86914 484.626297 146.16696 476.924117"></polygon>
                    <polygon id="Fill-495" fill="#002B49" points="169.51509 453.575804 177.217271 461.277984 169.51509 468.98062 161.812455 461.277984"></polygon>
                    <polygon id="Stroke-497" stroke="#FFFFFF" stroke-width="2.277" points="169.51509 453.575804 177.217271 461.277984 169.51509 468.98062 161.812455 461.277984"></polygon>
                    <polygon id="Fill-499" fill="#002B49" points="185.160767 437.929854 192.863403 445.63249 185.160767 453.33467 177.458587 445.63249"></polygon>
                    <polygon id="Stroke-501" stroke="#09B9B3" stroke-width="2.277" points="185.160767 437.929854 192.863403 445.63249 185.160767 453.33467 177.458587 445.63249"></polygon>
                    <path d="M284.032616,597.901127 L397.878062,740.869403 L567.436688,953.815809 C570.651357,957.852474 576.574289,958.415804 580.491185,955.056318 L662.533772,884.693831 L871.507724,705.475715" id="Stroke-503" stroke="#FFFFFF" stroke-width="2.7324" stroke-linecap="round" stroke-linejoin="round"></path>
                    <path d="M284.032616,359.408283 L391.047062,225.015189 L567.436688,3.4931457 C570.651357,-0.5435199 576.574289,-1.1063943 580.491185,2.2530915 L662.533772,72.6155793 L879.800558,258.947043" id="Stroke-505" stroke="#FFFFFF" stroke-width="2.7324" stroke-linecap="round" stroke-linejoin="round"></path>
                    <path d="M1020.68328,379.769172 L1127.75192,471.593295 C1132.0805,475.305716 1132.0805,482.003739 1127.75192,485.71616 L1020.68328,577.540284" id="Stroke-507" stroke="#FFFFFF" stroke-width="2.7324" stroke-linecap="round" stroke-linejoin="round"></path>
                    <path d="M1041.03484,359.412701 L925.026241,213.721133 L757.630764,3.49346448 C754.416095,-0.54365652 748.493163,-1.10607552 744.576268,2.25341028 L662.533681,72.6154427 L434.346403,268.314485" id="Stroke-509" stroke="#FFFFFF" stroke-width="2.7324" stroke-linecap="round" stroke-linejoin="round"></path>
                    <path d="M1041.03484,597.896664 L918.20025,752.167968 L757.630764,953.816355 C754.416095,957.853021 748.493163,958.41544 744.576723,955.055954 L662.533681,884.693922 L442.639237,696.108228" id="Stroke-511" stroke="#FFFFFF" stroke-width="2.7324" stroke-linecap="round" stroke-linejoin="round"></path>
                    <path d="M304.389087,379.764527 L197.142842,471.741209 C192.90489,475.375757 192.90489,481.933517 197.142842,485.568519 L304.389087,577.544747" id="Stroke-513" stroke="#FFFFFF" stroke-width="2.7324" stroke-linecap="round" stroke-linejoin="round"></path>
                    <polyline id="Stroke-515" stroke="#FFFFFF" stroke-width="2.7324" stroke-linecap="round" stroke-linejoin="round" points="919.781034 753.745747 918.200796 752.170063 918.200796 752.165509 888.845257 722.810425 880.320624 714.285792 873.188605 707.153773 825.704502 659.669215"></polyline>
                    <path d="M390.518388,224.486242 L479.079115,313.046514" id="Stroke-517" stroke="#FFFFFF" stroke-width="2.7324" stroke-linecap="round" stroke-linejoin="round"></path>
                    <path d="M487.511028,651.238076 L397.568162,741.181397" id="Stroke-519" stroke="#FFFFFF" stroke-width="2.7324" stroke-linecap="round" stroke-linejoin="round"></path>
                    <path d="M925.027015,213.721861 L834.13464,304.614692" id="Stroke-521" stroke="#FFFFFF" stroke-width="2.7324" stroke-linecap="round" stroke-linejoin="round"></path>
                    <path d="M251.426795,617.075971 L119.711453,485.360629 C116.004042,481.653218 116.004042,475.642393 119.711453,471.934982 L251.422241,340.224649 C255.129197,336.517238 261.140477,336.517238 264.847433,340.224649 L343.975916,419.353132 C347.484317,422.861533 353.102587,423.076482 356.868745,419.84633 L656.354358,163.000275 C659.910577,159.950916 665.159062,159.950916 668.714825,163.000275 L968.204536,419.84633 C971.97115,423.076482 977.589419,422.861533 981.097821,419.353132 L1060.2263,340.224649 C1063.93326,336.517238 1069.94408,336.517238 1073.6515,340.224649 L1200.54415,467.121404 C1204.25111,470.828815 1204.25111,476.83964 1200.54415,480.546596 L1068.82881,612.262393 C1065.12185,615.969349 1059.11057,615.969349 1055.40362,612.262393 L981.097821,537.956142 C977.589419,534.448195 971.97115,534.232791 968.204992,537.462943 L668.714825,794.3049 C665.159062,797.353803 659.910577,797.353803 656.354358,794.304445 L356.868745,537.462943 C353.102587,534.232791 347.484317,534.44774 343.975916,537.956142 L264.851987,617.075971 C261.144576,620.783383 255.134207,620.783383 251.426795,617.075971 Z" id="Stroke-523" stroke="#FFFFFF" stroke-width="2.7324" stroke-linecap="round" stroke-linejoin="round"></path>
                    <path d="M494.033631,208.472739 C495.265488,207.417122 495.408029,205.563188 494.352411,204.331331 C493.296794,203.09993 491.442861,202.956934 490.211004,204.012551 C488.979602,205.068168 488.836607,206.922102 489.892224,208.153959 C490.947841,209.38536 492.801774,209.528356 494.033631,208.472739" id="Fill-525" fill="#09B9B3"></path>
                    <path d="M505.220259,198.885795 C506.452116,197.830177 506.594656,195.976244 505.539039,194.744387 C504.483877,193.512985 502.629944,193.36999 501.398087,194.425607 C500.16623,195.481224 500.02369,197.335158 501.079307,198.566559 C502.134469,199.798416 503.988857,199.940956 505.220259,198.885795" id="Fill-527" fill="#FFFFFF"></path>
                    <path d="M516.40716,189.298577 C517.639017,188.243415 517.781557,186.389027 516.72594,185.157625 C515.670323,183.925768 513.816389,183.783228 512.584532,184.838845 C511.353131,185.894007 511.210591,187.74794 512.265752,188.979797 C513.32137,190.211199 515.175303,190.354194 516.40716,189.298577" id="Fill-529" fill="#09B9B3"></path>
                    <path d="M438.007363,256.4872 C439.23922,255.431583 439.38176,253.57765 438.326143,252.345793 C437.270526,251.114391 435.416593,250.971395 434.185191,252.027013 C432.953334,253.08263 432.810794,254.936563 433.865956,256.167965 C434.921573,257.399822 436.775506,257.542362 438.007363,256.4872" id="Fill-535" fill="#FFFFFF"></path>
                    <path d="M428.399516,244.864072 C429.157757,243.430472 428.609911,241.653046 427.176312,240.894805 C425.742713,240.136564 423.965286,240.683955 423.207045,242.11801 C422.448804,243.552064 422.996195,245.329035 424.43025,246.087276 C425.864304,246.845517 427.641275,246.297671 428.399516,244.864072" id="Fill-537" fill="#09B9B3"></path>
                    <path d="M449.194264,246.900028 C450.425666,245.844411 450.568661,243.990478 449.513044,242.759076 C448.457427,241.527219 446.603494,241.384679 445.371637,242.439841 C444.140235,243.495458 443.997239,245.349391 445.052857,246.581248 C446.108474,247.81265 447.962407,247.955646 449.194264,246.900028" id="Fill-539" fill="#09B9B3"></path>
                    <path d="M460.380892,237.313039 C461.612749,236.257421 461.755289,234.403488 460.699672,233.171631 C459.64451,231.940229 457.790121,231.797234 456.55872,232.852851 C455.326863,233.908468 455.184323,235.762402 456.23994,236.994259 C457.295102,238.22566 459.149035,238.368656 460.380892,237.313039" id="Fill-541" fill="#FFFFFF"></path>
                    <path d="M471.567793,227.725867 C472.799195,226.670705 472.94219,224.816316 471.886573,223.584915 C470.830956,222.353058 468.977022,222.210517 467.745165,223.266135 C466.513764,224.321296 466.370768,226.175685 467.426385,227.407087 C468.482003,228.638488 470.335936,228.781484 471.567793,227.725867" id="Fill-543" fill="#09B9B3"></path>
                    <path d="M482.754466,218.138877 C483.986323,217.08326 484.128863,215.229326 483.073246,213.997925 C482.018084,212.766068 480.163696,212.623528 478.932294,213.678689 C477.700437,214.734307 477.557897,216.58824 478.613514,217.820097 C479.668676,219.051499 481.522609,219.194494 482.754466,218.138877" id="Fill-545" fill="#FFFFFF"></path>
                    <path d="M483.071106,197.510441 C484.302963,196.454824 484.445503,194.60089 483.390341,193.369033 C482.334724,192.137632 480.480791,191.994636 479.248934,193.050253 C478.017077,194.105871 477.874536,195.959804 478.930154,197.191206 C479.985771,198.423063 481.839704,198.565603 483.071106,197.510441" id="Fill-567" fill="#09B9B3"></path>
                    <path d="M494.257961,187.923269 C495.489818,186.868107 495.632359,185.013719 494.576741,183.782317 C493.521124,182.55046 491.667191,182.40792 490.435789,183.463537 C489.203932,184.518699 489.061392,186.372632 490.116554,187.604489 C491.172171,188.835891 493.026104,188.978886 494.257961,187.923269" id="Fill-569" fill="#FFFFFF"></path>
                    <path d="M438.231739,235.937731 C439.463596,234.882113 439.606136,233.02818 438.550519,231.796323 C437.495357,230.564921 435.641424,230.421926 434.409567,231.477543 C433.17771,232.53316 433.035169,234.387094 434.090787,235.618951 C435.145948,236.850352 436.999882,236.993348 438.231739,235.937731" id="Fill-577" fill="#09B9B3"></path>
                    <path d="M449.41864,226.350513 C450.650497,225.295351 450.793037,223.440963 449.73742,222.209561 C448.681803,220.977704 446.827869,220.835164 445.596012,221.890781 C444.364611,222.945943 444.221615,224.800332 445.277232,226.031733 C446.332849,227.263135 448.186783,227.40613 449.41864,226.350513" id="Fill-579" fill="#FFFFFF"></path>
                    <path d="M460.605268,216.763569 C461.837125,215.707952 461.979665,213.854018 460.924048,212.622617 C459.868886,211.39076 458.014952,211.24822 456.783095,212.303381 C455.551238,213.358999 455.408698,215.212932 456.464315,216.444789 C457.519477,217.676191 459.373411,217.819186 460.605268,216.763569" id="Fill-581" fill="#09B9B3"></path>
                    <path d="M471.792169,207.176579 C473.024026,206.120962 473.166566,204.267029 472.110949,203.035172 C471.055331,201.80377 469.201398,201.660774 467.969541,202.716392 C466.738139,203.772009 466.595144,205.625942 467.650761,206.857799 C468.706378,208.089201 470.560312,208.232196 471.792169,207.176579" id="Fill-583" fill="#FFFFFF"></path>
                    <path d="M472.811035,187.250188 C474.042892,186.194571 474.185432,184.340637 473.129815,183.10878 C472.074198,181.877379 470.220264,181.734839 468.988407,182.79 C467.757006,183.845618 467.614466,185.699551 468.669627,186.931408 C469.725245,188.16281 471.579178,188.305805 472.811035,187.250188" id="Fill-595" fill="#09B9B3"></path>
                    <path d="M427.971668,225.677432 C429.203069,224.62227 429.346065,222.767881 428.290448,221.53648 C427.234831,220.304623 425.380897,220.162083 424.14904,221.2177 C422.917639,222.272862 422.774643,224.126795 423.83026,225.358652 C424.885877,226.590054 426.739811,226.733049 427.971668,225.677432" id="Fill-605" fill="#09B9B3"></path>
                    <path d="M439.158341,216.090488 C440.390198,215.034871 440.532738,213.180937 439.477121,211.94908 C438.421959,210.717679 436.568026,210.574683 435.336169,211.6303 C434.104312,212.685917 433.961772,214.539851 435.017389,215.771708 C436.072551,217.003109 437.926484,217.146105 439.158341,216.090488" id="Fill-607" fill="#FFFFFF"></path>
                    <path d="M450.345197,206.503498 C451.576598,205.447881 451.719594,203.593947 450.663977,202.36209 C449.608359,201.130689 447.754426,200.987693 446.522569,202.04331 C445.291167,203.098928 445.148172,204.952861 446.203789,206.184263 C447.259406,207.41612 449.11334,207.55866 450.345197,206.503498" id="Fill-609" fill="#09B9B3"></path>
                    <path d="M461.53187,196.916326 C462.763727,195.860709 462.906267,194.006776 461.85065,192.775374 C460.795488,191.543517 458.941555,191.400977 457.709698,192.456139 C456.477841,193.511756 456.335301,195.365689 457.390918,196.597546 C458.44608,197.828948 460.300013,197.971943 461.53187,196.916326" id="Fill-611" fill="#FFFFFF"></path>
                    <path d="M418.011569,215.262161 C419.243426,214.206544 419.385966,212.35261 418.330804,211.120753 C417.275187,209.889352 415.421254,209.746356 414.189397,210.801973 C412.95754,211.85759 412.815,213.711524 413.870617,214.943381 C414.926234,216.174782 416.780167,216.317778 418.011569,215.262161" id="Fill-613" fill="#09B9B3"></path>
                    <path d="M429.19847,205.675217 C430.430327,204.619599 430.572867,202.765666 429.51725,201.533809 C428.461633,200.302407 426.607699,200.159412 425.375842,201.215029 C424.144441,202.270646 424.001901,204.12458 425.057062,205.355981 C426.11268,206.587838 427.966613,206.730378 429.19847,205.675217" id="Fill-615" fill="#FFFFFF"></path>
                    <path d="M440.385098,196.087999 C441.616955,195.032837 441.759495,193.178449 440.704333,191.947047 C439.648716,190.71519 437.794782,190.57265 436.562925,191.628267 C435.331068,192.683429 435.188528,194.537362 436.244145,195.769219 C437.299763,197.000621 439.153696,197.143616 440.385098,196.087999" id="Fill-617" fill="#09B9B3"></path>
                    <path d="M451.571999,186.501009 C452.803856,185.445392 452.946396,183.591459 451.890779,182.359602 C450.835161,181.1282 448.981228,180.985205 447.749371,182.040822 C446.517969,183.096439 446.375429,184.950372 447.430591,186.182229 C448.486208,187.413631 450.340142,187.556627 451.571999,186.501009" id="Fill-619" fill="#FFFFFF"></path>
                    <path d="M418.365141,234.829697 C419.123838,233.396098 418.575992,231.618671 417.141937,230.86043 C415.708338,230.102189 413.930912,230.650036 413.172671,232.083635 C412.41443,233.517689 412.962276,235.29466 414.395875,236.052901 C415.82993,236.811598 417.6069,236.263751 418.365141,234.829697" id="Fill-621" fill="#FFFFFF"></path>
                    <path d="M407.941218,224.405727 C408.699459,222.971673 408.151612,221.194702 406.718013,220.436461 C405.283959,219.67822 403.506988,220.225611 402.748747,221.659665 C401.990506,223.093265 402.537897,224.870691 403.971951,225.628932 C405.40555,226.387173 407.182521,225.839327 407.941218,224.405727" id="Fill-623" fill="#09B9B3"></path>
                    <path d="M813.551425,766.709527 C812.320023,767.765145 812.177028,769.619533 813.232645,770.850935 C814.288262,772.082792 816.142195,772.225332 817.374052,771.169715 C818.605454,770.114553 818.74845,768.260164 817.692832,767.028763 C816.637215,765.796906 814.783282,765.654366 813.551425,766.709527" id="Fill-625" fill="#09B9B3"></path>
                    <path d="M802.364752,776.296972 C801.13335,777.352134 800.990354,779.206523 802.045972,780.437925 C803.101133,781.669782 804.955067,781.812322 806.187379,780.75716 C807.418781,779.701543 807.561321,777.847154 806.506159,776.615752 C805.450542,775.383895 803.596153,775.241355 802.364752,776.296972" id="Fill-627" fill="#FFFFFF"></path>
                    <path d="M869.577647,718.695521 C868.346246,719.750683 868.20325,721.605072 869.258867,722.836929 C870.314485,724.06833 872.168418,724.210871 873.400275,723.155709 C874.631677,722.100092 874.774217,720.245703 873.719055,719.014301 C872.663438,717.782444 870.809504,717.639904 869.577647,718.695521" id="Fill-635" fill="#FFFFFF"></path>
                    <path d="M879.185494,730.318468 C878.427253,731.752067 878.9751,733.529493 880.409154,734.287734 C881.842753,735.045975 883.619724,734.498584 884.377965,733.06453 C885.136206,731.630931 884.588815,729.853504 883.154761,729.095263 C881.720706,728.336567 879.943735,728.884869 879.185494,730.318468" id="Fill-637" fill="#09B9B3"></path>
                    <path d="M858.390974,728.282511 C857.159573,729.337673 857.016577,731.192062 858.072194,732.423919 C859.127356,733.65532 860.981289,733.79786 862.213602,732.742699 C863.445003,731.687081 863.587544,729.832693 862.532382,728.601291 C861.476309,727.369889 859.622376,727.227349 858.390974,728.282511" id="Fill-639" fill="#09B9B3"></path>
                    <path d="M847.204346,737.869455 C845.972489,738.924617 845.829494,740.779006 846.885566,742.010863 C847.940728,743.242264 849.794662,743.384805 851.026519,742.329643 C852.258376,741.274481 852.400916,739.420092 851.345754,738.188235 C850.289681,736.956834 848.435748,736.814293 847.204346,737.869455" id="Fill-641" fill="#FFFFFF"></path>
                    <path d="M836.017218,747.456445 C834.785816,748.512062 834.64282,750.366451 835.698438,751.597853 C836.754055,752.829254 838.607988,752.971794 839.839845,751.916632 C841.071702,750.861471 841.214242,749.007082 840.158625,747.775225 C839.103008,746.543823 837.249075,746.401283 836.017218,747.456445" id="Fill-643" fill="#09B9B3"></path>
                    <path d="M824.83059,757.043389 C823.599188,758.099006 823.456193,759.953395 824.51181,761.184797 C825.567427,762.416654 827.42136,762.559194 828.653217,761.503577 C829.884619,760.448415 830.027159,758.594026 828.971997,757.362169 C827.91638,756.130767 826.062447,755.988227 824.83059,757.043389" id="Fill-645" fill="#FFFFFF"></path>
                    <path d="M824.51395,777.672053 C823.282549,778.72767 823.139553,780.582059 824.19517,781.81346 C825.250332,783.044862 827.104265,783.187402 828.336578,782.13224 C829.567979,781.077079 829.71052,779.22269 828.655358,777.990833 C827.599285,776.759431 825.745352,776.616891 824.51395,777.672053" id="Fill-663" fill="#09B9B3"></path>
                    <path d="M869.3535,739.244991 C868.121643,740.300153 867.978647,742.154541 869.03472,743.385943 C870.089881,744.6178 871.943815,744.76034 873.175672,743.704723 C874.407529,742.649561 874.550069,740.795172 873.494452,739.563771 C872.438835,738.331914 870.584901,738.189374 869.3535,739.244991" id="Fill-673" fill="#09B9B3"></path>
                    <path d="M858.166371,748.831981 C856.934969,749.887142 856.791974,751.741531 857.847591,752.973388 C858.903208,754.20479 860.757141,754.34733 861.988998,753.292168 C863.220855,752.236551 863.363396,750.382162 862.307778,749.150761 C861.252161,747.918904 859.398228,747.776363 858.166371,748.831981" id="Fill-675" fill="#FFFFFF"></path>
                    <path d="M846.979743,758.418925 C845.748341,759.474087 845.605346,761.328475 846.660963,762.560332 C847.716125,763.791734 849.570058,763.934274 850.802371,762.879112 C852.033772,761.823495 852.176312,759.969106 851.121151,758.737705 C850.065533,757.506303 848.2116,757.363763 846.979743,758.418925" id="Fill-677" fill="#09B9B3"></path>
                    <path d="M835.79307,768.005915 C834.561213,769.061076 834.418217,770.915465 835.47429,772.147322 C836.529452,773.378724 838.383385,773.521264 839.615697,772.466102 C840.847099,771.41094 840.989639,769.556552 839.934477,768.324695 C838.878405,767.093293 837.024471,766.950753 835.79307,768.005915" id="Fill-679" fill="#FFFFFF"></path>
                    <path d="M879.613343,749.504834 C878.381941,750.560451 878.238946,752.41484 879.294563,753.646242 C880.35018,754.878099 882.204113,755.020639 883.43597,753.965022 C884.667827,752.90986 884.810368,751.055471 883.75475,749.823614 C882.699133,748.592213 880.8452,748.449672 879.613343,749.504834" id="Fill-693" fill="#09B9B3"></path>
                    <path d="M868.426669,759.092279 C867.195268,760.147441 867.052272,762.00183 868.107889,763.233231 C869.163051,764.465088 871.01744,764.607629 872.249297,763.552011 C873.480699,762.49685 873.623239,760.642461 872.568077,759.411059 C871.51246,758.179202 869.658526,758.036662 868.426669,759.092279" id="Fill-695" fill="#FFFFFF"></path>
                    <path d="M857.240042,768.679223 C856.00864,769.734385 855.865189,771.588774 856.921262,772.820176 C857.976423,774.052033 859.830357,774.194573 861.062669,773.139411 C862.294071,772.083794 862.436611,770.229405 861.381449,768.998003 C860.325377,767.766146 858.471443,767.623606 857.240042,768.679223" id="Fill-697" fill="#09B9B3"></path>
                    <path d="M846.053368,778.266213 C844.821511,779.321375 844.678516,781.175764 845.734588,782.407621 C846.78975,783.639022 848.643684,783.781563 849.875541,782.726401 C851.107398,781.670784 851.249938,779.816395 850.194321,778.584993 C849.138703,777.353592 847.28477,777.210596 846.053368,778.266213" id="Fill-699" fill="#FFFFFF"></path>
                    <path d="M889.573442,759.920333 C888.34204,760.975495 888.199044,762.829884 889.254662,764.061741 C890.309823,765.293142 892.163757,765.435682 893.396069,764.380521 C894.627471,763.324903 894.770011,761.470515 893.714849,760.239113 C892.658777,759.007711 890.804843,758.865171 889.573442,759.920333" id="Fill-701" fill="#09B9B3"></path>
                    <path d="M878.386768,769.507323 C877.154911,770.56294 877.011916,772.417329 878.067988,773.64873 C879.12315,774.880132 880.977084,775.022672 882.209396,773.96751 C883.440798,772.912349 883.583338,771.05796 882.528176,769.826103 C881.472103,768.594701 879.61817,768.452161 878.386768,769.507323" id="Fill-703" fill="#FFFFFF"></path>
                    <path d="M889.219869,740.352797 C888.461628,741.786396 889.009019,743.563822 890.443074,744.322063 C891.877128,745.080304 893.654099,744.532914 894.41234,743.098404 C895.170581,741.664804 894.622735,739.887834 893.189136,739.129137 C891.755081,738.370896 889.97811,738.919198 889.219869,740.352797" id="Fill-705" fill="#FFFFFF"></path>
                    <path d="M899.644248,750.776766 C898.885552,752.210365 899.433398,753.987792 900.867453,754.746033 C902.301052,755.504274 904.078023,754.956883 904.836264,753.522828 C905.594505,752.089229 905.047114,750.311803 903.613515,749.553562 C902.17946,748.795321 900.402489,749.343167 899.644248,750.776766" id="Fill-707" fill="#09B9B3"></path>
                    <path d="M256.360371,479.501134 C256.360371,482.4626 253.959958,484.863014 250.998492,484.863014 C248.037026,484.863014 245.636157,482.4626 245.636157,479.501134 C245.636157,476.539668 248.037026,474.139255 250.998492,474.139255 C253.959958,474.139255 256.360371,476.539668 256.360371,479.501134" id="Fill-709" fill="#FFFFFF"></path>
                    <path d="M256.360371,479.501134 C256.360371,482.4626 253.959958,484.863014 250.998492,484.863014 C248.037026,484.863014 245.636157,482.4626 245.636157,479.501134 C245.636157,476.539668 248.037026,474.139255 250.998492,474.139255 C253.959958,474.139255 256.360371,476.539668 256.360371,479.501134 Z" id="Stroke-711" stroke="#EF442E" stroke-width="2.7324"></path>
                    <path d="M250.99831,466.98697 C251.77249,466.98697 252.52982,467.057101 253.265291,467.1919" id="Stroke-713" stroke="#09B9B3" stroke-width="2.7324"></path>
                    <path d="M257.328324,468.703828 C261.028449,470.877452 263.512201,474.899089 263.512201,479.500906 C263.512201,486.412512 257.909414,492.015298 250.998264,492.015298 C244.087114,492.015298 238.484327,486.412512 238.484327,479.500906 C238.484327,474.124454 241.875236,469.539487 246.635532,467.768436" id="Stroke-715" stroke="#09B9B3" stroke-width="2.7324" stroke-dasharray="4.355900959968567,4.355900959968567"></path>
                    <path d="M248.731556,467.191763 C249.466572,467.05742 250.224357,466.986833 250.998537,466.986833" id="Stroke-717" stroke="#09B9B3" stroke-width="2.7324"></path>
                    <g id="Group-722" transform="translate(271.418400, 431.719200)">
                        <path d="M0.2361249,0.29824146 L0.2361249,95.2655359" id="Fill-719" fill="#FFFFFF"></path>
                        <path d="M0.2361249,0.29824146 L0.2361249,95.2655359" id="Stroke-721" stroke="#FFFFFF" stroke-width="2.7324"></path>
                    </g>
                    <g id="Group-726" transform="translate(221.324400, 435.362400)">
                        <path d="M46.3885013,0.29824146 L0.22460328,40.8352171" id="Fill-723" fill="#FFFFFF"></path>
                        <path d="M46.3885013,0.29824146 L0.22460328,40.8352171" id="Stroke-725" stroke="#FFFFFF" stroke-width="2.7324"></path>
                    </g>
                    <g id="Group-730" transform="translate(221.324400, 482.724000)">
                        <path d="M46.3885013,40.6173992 L0.22460328,0.08042364" id="Fill-727" fill="#FFFFFF"></path>
                        <path d="M46.3885013,40.6173992 L0.22460328,0.08042364" id="Stroke-729" stroke="#FFFFFF" stroke-width="2.7324"></path>
                    </g>
                    <path d="M214.87498,479.458873 C214.898205,477.282516 216.681551,475.536513 218.858363,475.559738 C221.03472,475.583419 222.780724,477.366765 222.757498,479.543577 C222.734273,481.719934 220.950926,483.465482 218.774114,483.442257 C216.597302,483.419031 214.851754,481.635685 214.87498,479.458873" id="Fill-731" fill="#FFFFFF"></path>
                    <path d="M214.87498,479.458873 C214.898205,477.282516 216.681551,475.536513 218.858363,475.559738 C221.03472,475.583419 222.780724,477.366765 222.757498,479.543577 C222.734273,481.719934 220.950926,483.465482 218.774114,483.442257 C216.597302,483.419031 214.851754,481.635685 214.87498,479.458873 Z" id="Stroke-733" stroke="#EF442E" stroke-width="2.7324"></path>
                    <path d="M267.713129,524.508362 C267.736354,522.332005 269.519701,520.586457 271.696513,520.609227 C273.873325,520.632452 275.618873,522.415799 275.595648,524.593066 C275.572422,526.769423 273.789076,528.514971 271.612264,528.491746 C269.435452,528.46852 267.689904,526.685174 267.713129,524.508362" id="Fill-735" fill="#FFFFFF"></path>
                    <path d="M267.713129,524.508362 C267.736354,522.332005 269.519701,520.586457 271.696513,520.609227 C273.873325,520.632452 275.618873,522.415799 275.595648,524.593066 C275.572422,526.769423 273.789076,528.514971 271.612264,528.491746 C269.435452,528.46852 267.689904,526.685174 267.713129,524.508362 Z" id="Stroke-737" stroke="#EF442E" stroke-width="2.7324"></path>
                    <path d="M267.713129,433.954212 C267.736354,431.7774 269.519701,430.031852 271.696513,430.055077 C273.873325,430.078303 275.618873,431.861649 275.595648,434.038461 C275.572422,436.214818 273.789076,437.960821 271.612264,437.937596 C269.435452,437.914371 267.689904,436.130569 267.713129,433.954212" id="Fill-739" fill="#FFFFFF"></path>
                    <path d="M267.713129,433.954212 C267.736354,431.7774 269.519701,430.031852 271.696513,430.055077 C273.873325,430.078303 275.618873,431.861649 275.595648,434.038461 C275.572422,436.214818 273.789076,437.960821 271.612264,437.937596 C269.435452,437.914371 267.689904,436.130569 267.713129,433.954212 Z" id="Stroke-741" stroke="#EF442E" stroke-width="2.7324"></path>
                    <path d="M1068.60876,479.501134 C1068.60876,482.4626 1071.00917,484.863014 1073.97064,484.863014 C1076.93211,484.863014 1079.33297,482.4626 1079.33297,479.501134 C1079.33297,476.539668 1076.93211,474.139255 1073.97064,474.139255 C1071.00917,474.139255 1068.60876,476.539668 1068.60876,479.501134" id="Fill-743" fill="#FFFFFF"></path>
                    <path d="M1068.60876,479.501134 C1068.60876,482.4626 1071.00917,484.863014 1073.97064,484.863014 C1076.93211,484.863014 1079.33297,482.4626 1079.33297,479.501134 C1079.33297,476.539668 1076.93211,474.139255 1073.97064,474.139255 C1071.00917,474.139255 1068.60876,476.539668 1068.60876,479.501134 Z" id="Stroke-745" stroke="#EF442E" stroke-width="2.7324"></path>
                    <path d="M1073.97082,466.98697 C1073.1971,466.98697 1072.43931,467.057101 1071.70384,467.1919" id="Stroke-747" stroke="#09B9B3" stroke-width="2.7324"></path>
                    <path d="M1067.64104,468.703828 C1063.94091,470.877452 1061.4567,474.899089 1061.4567,479.500906 C1061.4567,486.412512 1067.05994,492.015298 1073.97064,492.015298 C1080.88225,492.015298 1086.48503,486.412512 1086.48503,479.500906 C1086.48503,474.124454 1083.09412,469.539487 1078.33383,467.768436" id="Stroke-749" stroke="#09B9B3" stroke-width="2.7324" stroke-dasharray="4.355900959968567,4.355900959968567"></path>
                    <path d="M1076.23762,467.191763 C1075.50261,467.05742 1074.74528,466.986833 1073.97064,466.986833" id="Stroke-751" stroke="#09B9B3" stroke-width="2.7324"></path>
                    <g id="Group-756" transform="translate(1052.884800, 431.719200)">
                        <path d="M0.42980652,0.29824146 L0.42980652,95.2655359" id="Fill-753" fill="#FFFFFF"></path>
                        <path d="M0.42980652,0.29824146 L0.42980652,95.2655359" id="Stroke-755" stroke="#FFFFFF" stroke-width="2.7324"></path>
                    </g>
                    <g id="Group-760" transform="translate(1056.983400, 435.362400)">
                        <path d="M0.27283014,0.29824146 L46.4362727,40.8352171" id="Fill-757" fill="#FFFFFF"></path>
                        <path d="M0.27283014,0.29824146 L46.4362727,40.8352171" id="Stroke-759" stroke="#FFFFFF" stroke-width="2.7324"></path>
                    </g>
                    <g id="Group-764" transform="translate(1056.983400, 482.724000)">
                        <path d="M0.27283014,40.6173992 L46.4362727,0.08042364" id="Fill-761" fill="#FFFFFF"></path>
                        <path d="M0.27283014,40.6173992 L46.4362727,0.08042364" id="Stroke-763" stroke="#FFFFFF" stroke-width="2.7324"></path>
                    </g>
                    <path d="M1110.0942,479.458873 C1110.07052,477.282516 1108.28717,475.536513 1106.11081,475.559738 C1103.93446,475.583419 1102.18845,477.366765 1102.21168,479.543577 C1102.2349,481.719934 1104.01825,483.465482 1106.19506,483.442257 C1108.37187,483.419031 1110.11742,481.635685 1110.0942,479.458873" id="Fill-765" fill="#FFFFFF"></path>
                    <path d="M1110.0942,479.458873 C1110.07052,477.282516 1108.28717,475.536513 1106.11081,475.559738 C1103.93446,475.583419 1102.18845,477.366765 1102.21168,479.543577 C1102.2349,481.719934 1104.01825,483.465482 1106.19506,483.442257 C1108.37187,483.419031 1110.11742,481.635685 1110.0942,479.458873 Z" id="Stroke-767" stroke="#EF442E" stroke-width="2.7324"></path>
                    <path d="M1057.25577,524.508362 C1057.23255,522.332005 1055.4492,520.586457 1053.27239,520.609227 C1051.09603,520.632452 1049.35049,522.415799 1049.37326,524.593066 C1049.39648,526.769423 1051.18028,528.514971 1053.35664,528.491746 C1055.53345,528.46852 1057.27946,526.685174 1057.25577,524.508362" id="Fill-769" fill="#FFFFFF"></path>
                    <path d="M1057.25577,524.508362 C1057.23255,522.332005 1055.4492,520.586457 1053.27239,520.609227 C1051.09603,520.632452 1049.35049,522.415799 1049.37326,524.593066 C1049.39648,526.769423 1051.18028,528.514971 1053.35664,528.491746 C1055.53345,528.46852 1057.27946,526.685174 1057.25577,524.508362 Z" id="Stroke-771" stroke="#EF442E" stroke-width="2.7324"></path>
                    <path d="M1057.25577,433.954212 C1057.23255,431.7774 1055.4492,430.031852 1053.27239,430.055077 C1051.09603,430.078303 1049.35049,431.861649 1049.37326,434.038461 C1049.39648,436.214818 1051.18028,437.960821 1053.35664,437.937596 C1055.53345,437.914371 1057.27946,436.130569 1057.25577,433.954212" id="Fill-773" fill="#FFFFFF"></path>
                    <path d="M1057.25577,433.954212 C1057.23255,431.7774 1055.4492,430.031852 1053.27239,430.055077 C1051.09603,430.078303 1049.35049,431.861649 1049.37326,434.038461 C1049.39648,436.214818 1051.18028,437.960821 1053.35664,437.937596 C1055.53345,437.914371 1057.27946,436.130569 1057.25577,433.954212 Z" id="Stroke-775" stroke="#EF442E" stroke-width="2.7324"></path>
                    <polyline id="Stroke-799" stroke="#FFFFFF" stroke-width="2.7324" points="1052.92947 86.2325402 995.1506 143.603377 925.026286 213.227661"></polyline>
                    <polyline id="Stroke-817" stroke="#FFFFFF" stroke-width="2.7324" points="262.619662 97.4861118 320.398537 154.856948 390.522851 224.481233"></polyline>
                    <polyline id="Stroke-835" stroke="#FFFFFF" stroke-width="2.7324" points="1046.55387 879.541572 988.775 822.170735 918.650686 752.546451"></polyline>
                    <polyline id="Stroke-853" stroke="#FFFFFF" stroke-width="2.7324" points="269.906062 867.832782 327.684937 810.461946 397.809251 740.837661"></polyline>
                    <path d="M1286.96063,478.658143 C1286.96063,483.207589 1290.64891,486.894963 1295.1979,486.894963 C1299.74735,486.894963 1303.43518,483.207589 1303.43518,478.658143 C1303.43518,474.108697 1299.74735,470.420868 1295.1979,470.420868 C1290.64891,470.420868 1286.96063,474.108697 1286.96063,478.658143" id="Fill-893" fill="#FFFFFF"></path>
                    <path d="M1286.96063,478.658143 C1286.96063,483.207589 1290.64891,486.894963 1295.1979,486.894963 C1299.74735,486.894963 1303.43518,483.207589 1303.43518,478.658143 C1303.43518,474.108697 1299.74735,470.420868 1295.1979,470.420868 C1290.64891,470.420868 1286.96063,474.108697 1286.96063,478.658143 Z" id="Stroke-895" stroke="#EF442E" stroke-width="2.7324"></path>
                    <path d="M1275.97365,478.658143 C1275.97365,489.275339 1284.58071,497.882399 1295.1979,497.882399 C1305.8151,497.882399 1314.42261,489.275339 1314.42261,478.658143 C1314.42261,468.040948 1305.8151,459.433888 1295.1979,459.433888 C1284.58071,459.433888 1275.97365,468.040948 1275.97365,478.658143 Z" id="Stroke-897" stroke="#09B9B3" stroke-width="2.7324" stroke-dasharray="4.64462483882904,4.64462483882904"></path>
                    <path d="M1262.1569,438.339896 L1182.99791,449.574614" id="Stroke-899" stroke="#09B9B3" stroke-width="2.7324"></path>
                    <path d="M1262.1569,519.101807 L1174.35533,506.640697" id="Stroke-901" stroke="#09B9B3" stroke-width="2.7324"></path>
                    <path d="M1262.95426,520.207382 C1262.95426,524.756373 1266.64255,528.444657 1271.19154,528.444657 C1275.74053,528.444657 1279.42881,524.756373 1279.42881,520.207382 C1279.42881,515.657936 1275.74053,511.970107 1271.19154,511.970107 C1266.64255,511.970107 1262.95426,515.657936 1262.95426,520.207382" id="Fill-903"></path>
                    <path d="M1262.95426,520.207382 C1262.95426,524.756373 1266.64255,528.444657 1271.19154,528.444657 C1275.74053,528.444657 1279.42881,524.756373 1279.42881,520.207382 C1279.42881,515.657936 1275.74053,511.970107 1271.19154,511.970107 C1266.64255,511.970107 1262.95426,515.657936 1262.95426,520.207382 Z" id="Stroke-905" stroke="#FFFFFF" stroke-width="2.7324"></path>
                    <path d="M1262.95426,437.108905 C1262.95426,441.658351 1266.64255,445.34618 1271.19154,445.34618 C1275.74053,445.34618 1279.42881,441.658351 1279.42881,437.108905 C1279.42881,432.559459 1275.74053,428.871629 1271.19154,428.871629 C1266.64255,428.871629 1262.95426,432.559459 1262.95426,437.108905" id="Fill-907"></path>
                    <path d="M1262.95426,437.108905 C1262.95426,441.658351 1266.64255,445.34618 1271.19154,445.34618 C1275.74053,445.34618 1279.42881,441.658351 1279.42881,437.108905 C1279.42881,432.559459 1275.74053,428.871629 1271.19154,428.871629 C1266.64255,428.871629 1262.95426,432.559459 1262.95426,437.108905 Z" id="Stroke-909" stroke="#FFFFFF" stroke-width="2.7324"></path>
                    <path d="M27.4616219,478.658143 C27.4616219,483.207589 23.7733373,486.894963 19.2243467,486.894963 C14.6749007,486.894963 10.9870715,483.207589 10.9870715,478.658143 C10.9870715,474.108697 14.6749007,470.420868 19.2243467,470.420868 C23.7733373,470.420868 27.4616219,474.108697 27.4616219,478.658143" id="Fill-911" fill="#FFFFFF"></path>
                    <path d="M27.4616219,478.658143 C27.4616219,483.207589 23.7733373,486.894963 19.2243467,486.894963 C14.6749007,486.894963 10.9870715,483.207589 10.9870715,478.658143 C10.9870715,474.108697 14.6749007,470.420868 19.2243467,470.420868 C23.7733373,470.420868 27.4616219,474.108697 27.4616219,478.658143 Z" id="Stroke-913" stroke="#EF442E" stroke-width="2.7324"></path>
                    <path d="M38.4486023,478.658143 C38.4486023,489.275339 29.8415423,497.882399 19.2243467,497.882399 C8.60715108,497.882399 9.108e-05,489.275339 9.108e-05,478.658143 C9.108e-05,468.040948 8.60715108,459.433888 19.2243467,459.433888 C29.8415423,459.433888 38.4486023,468.040948 38.4486023,478.658143 Z" id="Stroke-915" stroke="#09B9B3" stroke-width="2.7324" stroke-dasharray="4.64462483882904,4.64462483882904"></path>
                    <path d="M52.2653472,438.339896 L140.066923,450.801006" id="Stroke-917" stroke="#09B9B3" stroke-width="2.7324"></path>
                    <path d="M52.2653472,519.101807 L140.066923,506.640697" id="Stroke-919" stroke="#09B9B3" stroke-width="2.7324"></path>
                    <path d="M51.4679873,520.207382 C51.4679873,524.756373 47.7801581,528.444657 43.2307121,528.444657 C38.6812661,528.444657 34.9934369,524.756373 34.9934369,520.207382 C34.9934369,515.657936 38.6812661,511.970107 43.2307121,511.970107 C47.7801581,511.970107 51.4679873,515.657936 51.4679873,520.207382 Z" id="Stroke-923" stroke="#FFFFFF" stroke-width="2.7324"></path>
                    <path d="M51.4679873,437.108905 C51.4679873,441.658351 47.7801581,445.34618 43.2307121,445.34618 C38.6812661,445.34618 34.9934369,441.658351 34.9934369,437.108905 C34.9934369,432.559459 38.6812661,428.871629 43.2307121,428.871629 C47.7801581,428.871629 51.4679873,432.559459 51.4679873,437.108905" id="Fill-925"></path>
                    <path d="M51.4679873,437.108905 C51.4679873,441.658351 47.7801581,445.34618 43.2307121,445.34618 C38.6812661,445.34618 34.9934369,441.658351 34.9934369,437.108905 C34.9934369,432.559459 38.6812661,428.871629 43.2307121,428.871629 C47.7801581,428.871629 51.4679873,432.559459 51.4679873,437.108905 Z" id="Stroke-927" stroke="#FFFFFF" stroke-width="2.7324"></path>
                    <path d="M385.63905,445.429518 C386.870907,446.485135 387.013447,448.339069 385.95783,449.570926 C384.902668,450.802327 383.048735,450.945323 381.816878,449.889706 C380.585021,448.834088 380.442481,446.980155 381.498098,445.748753 C382.55326,444.516896 384.407193,444.374356 385.63905,445.429518" id="Fill-961" fill="#FFFFFF"></path>
                    <path d="M376.031157,457.052647 C376.789398,458.486246 376.241552,460.263672 374.807953,461.021913 C373.374354,461.780154 371.596928,461.232763 370.838687,459.798709 C370.080446,458.364654 370.627836,456.587683 372.061891,455.829442 C373.495946,455.071201 375.272916,455.619047 376.031157,457.052647" id="Fill-963" fill="#EF442E"></path>
                    <path d="M365.997056,467.087021 C366.755297,468.52062 366.207451,470.298047 364.773852,471.056288 C363.339797,471.814529 361.562826,471.266682 360.804585,469.833083 C360.046344,468.399029 360.593735,466.622058 362.02779,465.863817 C363.461389,465.10512 365.23836,465.652967 365.997056,467.087021" id="Fill-965" fill="#FFFFFF"></path>
                    <path d="M386.194501,511.810079 C385.138884,513.041936 383.284951,513.184932 382.053094,512.128859 C380.821692,511.073697 380.679152,509.219764 381.734314,507.987907 C382.789931,506.75605 384.643864,506.61351 385.875721,507.669127 C387.107123,508.724744 387.250119,510.578678 386.194501,511.810079" id="Fill-967" fill="#FFFFFF"></path>
                    <path d="M374.5716,502.202187 C373.137546,502.960428 371.360575,502.413037 370.602334,500.978982 C369.844093,499.545383 370.391484,497.768412 371.825538,497.010171 C373.259138,496.25193 375.036564,496.799321 375.794805,498.23292 C376.553046,499.666975 376.0052,501.443946 374.5716,502.202187" id="Fill-969" fill="#EF442E"></path>
                    <path d="M364.537226,492.168267 C363.103627,492.926508 361.3262,492.378662 360.567959,490.944608 C359.809718,489.511008 360.357109,487.734038 361.791164,486.975797 C363.225218,486.217556 365.002189,486.764946 365.76043,488.198546 C366.518671,489.6326 365.970825,491.409571 364.537226,492.168267" id="Fill-971" fill="#FFFFFF"></path>
                    <path d="M354.113074,481.743888 C352.679475,482.502129 350.902049,481.954738 350.143808,480.520684 C349.385567,479.086629 349.932958,477.309658 351.367012,476.551417 C352.801067,475.793176 354.578038,476.340567 355.336279,477.774622 C356.09452,479.208676 355.546673,480.985647 354.113074,481.743888" id="Fill-973" fill="#EF442E"></path>
                    <path d="M938.519606,445.429518 C937.288204,446.485135 937.145209,448.339069 938.200826,449.570926 C939.255988,450.802327 941.109921,450.945323 942.342234,449.889706 C943.573635,448.834088 943.716175,446.980155 942.661014,445.748753 C941.604941,444.516896 939.751008,444.374356 938.519606,445.429518" id="Fill-975" fill="#FFFFFF"></path>
                    <path d="M948.127453,457.052647 C947.369212,458.486246 947.916603,460.263672 949.350657,461.021913 C950.784712,461.780154 952.561683,461.232763 953.319924,459.798709 C954.078165,458.364654 953.530319,456.587683 952.096719,455.829442 C950.662665,455.071201 948.885694,455.619047 948.127453,457.052647" id="Fill-977" fill="#EF442E"></path>
                    <path d="M958.161828,467.087021 C957.403587,468.52062 957.950978,470.298047 959.385032,471.056288 C960.818631,471.814529 962.595602,471.266682 963.353843,469.833083 C964.112084,468.399029 963.564693,466.622058 962.131094,465.863817 C960.69704,465.10512 958.920069,465.652967 958.161828,467.087021" id="Fill-979" fill="#FFFFFF"></path>
                    <path d="M937.964109,511.810079 C939.019271,513.041936 940.87366,513.184932 942.105517,512.128859 C943.336918,511.073697 943.479458,509.219764 942.424297,507.987907 C941.369135,506.75605 939.514291,506.61351 938.282889,507.669127 C937.051487,508.724744 936.908947,510.578678 937.964109,511.810079" id="Fill-981" fill="#FFFFFF"></path>
                    <path d="M949.587056,502.202187 C951.020655,502.960428 952.798081,502.413037 953.556322,500.978982 C954.315018,499.545383 953.767172,497.768412 952.333118,497.010171 C950.899518,496.25193 949.122092,496.799321 948.363851,498.23292 C947.60561,499.666975 948.153456,501.443946 949.587056,502.202187" id="Fill-983" fill="#EF442E"></path>
                    <path d="M959.62143,492.168267 C961.055029,492.926508 962.832456,492.378662 963.590697,490.944608 C964.348938,489.511008 963.801547,487.734038 962.367492,486.975797 C960.933893,486.217556 959.156467,486.764946 958.398226,488.198546 C957.639985,489.6326 958.187831,491.409571 959.62143,492.168267" id="Fill-985" fill="#FFFFFF"></path>
                    <path d="M970.045809,481.743888 C971.479409,482.502129 973.256835,481.954738 974.015076,480.520684 C974.773317,479.086629 974.225471,477.309658 972.791416,476.551417 C971.357817,475.793176 969.580846,476.340567 968.82215,477.774622 C968.063909,479.208676 968.611755,480.985647 970.045809,481.743888" id="Fill-987" fill="#EF442E"></path>
                </g>
            </g>
        </g>
    </g>
</svg>