<?xml version="1.0" encoding="UTF-8"?>
<svg width="1440px" height="600px" viewBox="0 0 1440 600" version="1.1" xmlns="http://www.w3.org/2000/svg" xmlns:xlink="http://www.w3.org/1999/xlink" style="background: #002B49;">
    <!-- Generator: Sketch 57.1 (83088) - https://sketch.com -->
    <title>Radian / Organisms / One Up / Illustration / Navy / Desktop  Copy</title>
    <desc>Created with Sketch.</desc>
    <g id="Radian-/-Organisms-/-One-Up-/-Illustration-/-Navy-/-Desktop--Copy" stroke="none" stroke-width="1" fill="none" fill-rule="evenodd">
        <rect fill="#002B49" x="0" y="0" width="1440" height="600"></rect>
        <g id="Group-229" transform="translate(0.000000, -0.404596)">
            <g transform="translate(720.000000, 300.000000) rotate(-75.000000) translate(-720.000000, -300.000000) translate(258.000000, -166.000000)">
                <g id="Group-23" transform="translate(57.192650, 89.449989)" stroke="#09B9B3" stroke-width="2.05482574">
                    <path d="M121.438352,83.9525427 C120.42909,84.9611196 119.424965,85.9751761 118.425977,86.9940272" id="Stroke-1" stroke-linejoin="round"></path>
                    <path d="M112.506846,93.157614 C42.9188028,167.125176 0.282538539,266.739703 0.282538539,376.313286 C0.282538539,490.424609 46.5229671,593.734398 121.290884,668.530055 C196.09339,743.359959 299.4477,789.648333 413.617243,789.648333 C524.723726,789.648333 625.593409,745.807599 699.868853,674.48357" id="Stroke-3" stroke-linejoin="round" stroke-dasharray="8.54533555984497,8.54533555984497"></path>
                    <path d="M702.936434,671.508148 C703.955627,670.50916 704.969341,669.504693 705.977918,668.495773" id="Stroke-5" stroke-linejoin="round"></path>
                    <path d="M149.606588,108.442709 C217.50488,41.4519654 310.763146,0.119145646 413.665395,0.119145646 L414.024989,0.119145646 C517.725195,0.215037514 611.599909,42.2807451 679.57012,110.264655 C747.632455,178.310209 789.715629,272.325336 789.715629,376.16938 L789.715629,376.429658" id="Stroke-7" stroke-dasharray="8.590541095733643,8.590541095733643"></path>
                </g>
                <g id="Group-42" transform="translate(60.959830, 52.120655)" stroke-width="2.05482574">
                    <path d="M648.232041,175.168894 C587.22084,114.185091 502.948669,76.4687646 409.868488,76.4687646 C316.80543,76.4687646 232.550725,114.171392 171.539524,175.131223 C110.470103,236.156122 72.6921319,320.486171 72.6921319,413.641696 C72.6921319,506.721877 110.411883,590.99713 171.395686,652.008331 C232.417161,713.057204 316.733511,750.818051 409.868488,750.818051 C503.020588,750.818051 587.350979,713.04008 648.375879,651.970659 C709.339134,590.962883 747.041761,506.704753 747.041761,413.641696 C747.041761,320.506719 709.280914,236.190369 648.232041,175.168894 Z" id="Stroke-24" stroke="#FFFFFF"></path>
                    <path d="M9.08931618,238.294751 C9.1043849,238.260161 9.11945363,238.225914 9.13486482,238.191324 C57.7318361,127.496834 146.565378,46.9630766 250.912853,6.19910104" id="Stroke-26" stroke="#FFFFFF"></path>
                    <polygon id="Stroke-28" stroke="#09B9B3" stroke-linecap="round" stroke-linejoin="round" points="260.740092 2.3130146 256.712976 7.08534738 252.685517 11.8580226 250.565965 5.98396078 248.446754 0.10989893 254.593423 1.211628"></polygon>
                    <path d="M239.480145,814.67772 C225.539865,808.769754 211.975275,802.158352 198.822678,794.885981" id="Stroke-32" stroke="#FFFFFF"></path>
                    <path d="M356.224419,845.830865 C320.466684,841.484224 286.050408,832.804982 253.504708,820.332532" id="Stroke-34" stroke="#FFFFFF"></path>
                </g>
                <g id="Group-85" transform="translate(94.521984, 32.599810)" stroke="#FFFFFF" stroke-width="2.05482574">
                    <path d="M0.299456605,433.290145 C0.371375506,537.028022 42.4542067,630.933216 110.441541,698.924318 C178.49052,766.983571 272.502222,809.069827 376.335992,809.069827 C376.579146,809.069827 376.822301,809.069827 377.065455,809.069827" id="Stroke-43"></path>
                    <path d="M429.325256,753.296137 L425.727598,730.583463" id="Stroke-45"></path>
                    <path d="M478.860461,741.293283 L471.754188,719.422746" id="Stroke-47"></path>
                    <path d="M525.908093,721.68915 L515.468209,701.199455" id="Stroke-49"></path>
                    <path d="M569.309917,694.966381 L555.792931,676.362331" id="Stroke-51"></path>
                    <path d="M607.996738,661.783137 L591.736559,645.522616" id="Stroke-53"></path>
                    <path d="M641.016417,622.95652 L622.41271,609.439876" id="Stroke-55"></path>
                    <path d="M667.555896,579.442297 L647.066544,569.002755" id="Stroke-57"></path>
                    <path d="M686.961362,532.312403 L665.091167,525.206473" id="Stroke-59"></path>
                    <path d="M698.755206,482.727026 L676.042532,479.129711" id="Stroke-61"></path>
                    <path d="M326.349034,111.888001 L329.946349,134.600675" id="Stroke-63"></path>
                    <path d="M276.813829,123.891026 L283.920101,145.761221" id="Stroke-65"></path>
                    <path d="M229.766196,143.49516 L240.206081,163.984512" id="Stroke-67"></path>
                    <path d="M186.364373,170.217757 L199.881016,188.821807" id="Stroke-69"></path>
                    <path d="M147.677346,203.401001 L163.937868,219.661522" id="Stroke-71"></path>
                    <path d="M114.657667,242.227619 L133.261717,255.744262" id="Stroke-73"></path>
                    <path d="M88.1181539,285.74167 L108.607849,296.181555" id="Stroke-75"></path>
                    <path d="M68.7127221,332.871564 L90.5829174,339.977837" id="Stroke-77"></path>
                    <path d="M56.9188785,382.456941 L79.6315524,386.054598" id="Stroke-79"></path>
                    <path d="M693.643244,133.986248 C690.548677,130.689965 687.402396,127.445395 684.204402,124.247401 C631.829634,71.8630439 566.184801,32.7484085 492.752178,12.3748113" id="Stroke-81"></path>
                    <path d="M481.15642,9.33181987 C465.547279,5.45881582 449.604913,2.4296602 433.386174,0.296408613" id="Stroke-83"></path>
                </g>
                <g id="Group-206" transform="translate(83.562913, 149.382407)" stroke-width="2.05482574">
                    <path d="M581.757264,64.0342263 C592.565647,72.3802436 602.822652,81.407778 612.46321,91.0517601 C625.240801,103.829352 636.939609,117.685726 647.405179,132.473622" id="Stroke-88" stroke="#09B9B3"></path>
                    <path d="M511.437702,22.8828477 C521.619021,27.1979817 531.527048,32.0268222 541.133359,37.3385468" id="Stroke-90" stroke="#09B9B3"></path>
                    <path d="M426.169112,0.129111551 C452.28629,3.30381732 477.423315,9.64295473 501.194225,18.7526822" id="Stroke-92" stroke="#09B9B3"></path>
                    <path d="M155.209687,534.308358 C157.469995,536.715929 159.767975,539.085828 162.103627,541.421822 C200.357633,579.682335 248.303567,608.251262 301.937944,623.131625" id="Stroke-98" stroke="#09B9B3"></path>
                    <path d="M108.910901,471.02315 C107.376631,468.273108 105.886883,465.499093 104.434806,462.701105" id="Stroke-100" stroke="#09B9B3"></path>
                    <path d="M72.9892597,367.847096 C78.1639958,399.614702 88.0408582,429.799749 101.876685,457.670036" id="Stroke-104" stroke="#09B9B3"></path>
                    <path d="M111.705533,475.930793 C122.486519,494.502993 135.096299,511.883394 149.281446,527.828842" id="Stroke-106" stroke="#09B9B3"></path>
                    <path d="M310.40725,625.354501 C321.808109,628.183312 333.452121,630.395674 345.298192,631.953917" id="Stroke-108" stroke="#09B9B3"></path>
                    <path d="M40.4304431,220.139269 L9.9505279,211.711059" id="Stroke-116" stroke="#09B9B3"></path>
                    <path d="M43.9887505,208.091073 L13.8239087,198.604627" id="Stroke-118" stroke="#FFFFFF"></path>
                    <path d="M47.9682973,196.176645 L18.1527758,185.642238" id="Stroke-120" stroke="#09B9B3"></path>
                    <path d="M52.3690833,184.412768 L22.9371293,172.844099" id="Stroke-122" stroke="#FFFFFF"></path>
                    <path d="M57.1773756,172.806358 L28.1700855,160.217126" id="Stroke-124" stroke="#09B9B3"></path>
                    <path d="M62.389715,161.378068 L33.8344867,147.785396" id="Stroke-126" stroke="#FFFFFF"></path>
                    <path d="M67.9959989,150.141562 L39.9407781,135.562573" id="Stroke-128" stroke="#09B9B3"></path>
                    <path d="M73.99609,139.110607 L46.4682745,123.562425" id="Stroke-130" stroke="#FFFFFF"></path>
                    <path d="M80.3797829,128.291983 L53.4101951,111.791733" id="Stroke-132" stroke="#09B9B3"></path>
                    <path d="M87.1332417,117.706172 L60.7561286,100.277825" id="Stroke-134" stroke="#FFFFFF"></path>
                    <path d="M94.2498567,107.363652 L68.4994654,89.0277568" id="Stroke-136" stroke="#09B9B3"></path>
                    <path d="M96.1162549,104.771044 C95.489533,105.630646 94.8662359,106.497098 94.2497882,107.363549 C91.8182444,110.76771 89.4449206,114.212968 87.1332417,117.706172 C84.818138,121.192526 82.5681038,124.719977 80.3797144,128.291949 C78.1879003,131.857072 76.0611556,135.463291 73.9960558,139.110607 C71.9309559,142.747648 69.9309255,146.425786 67.9959646,150.141596 C66.0644284,153.847132 64.194537,157.593764 62.389715,161.378068 C60.5848931,165.148674 58.8485654,168.960375 57.1773071,172.806324 C55.5060488,176.641999 53.9032847,180.508496 52.3690149,184.412665 C50.834745,188.29971 49.3689693,192.221003 47.9682631,196.176542 C46.5744063,200.114958 45.2490437,204.087621 43.9887505,208.091107 C42.7353068,212.077469 41.5469326,216.094653 40.4304773,220.139235 C39.3174467,224.166694 38.2694856,228.22155 37.296868,232.303804 C36.3242505,236.365509 35.4235519,240.454612 34.5947722,244.571113 C33.7625678,248.663641 33.005707,252.783567 32.3173403,256.924041 C32.0159659,258.745986 31.7282903,260.571356 31.4543135,262.400151 C30.8995106,266.102262 27.4645269,268.66737 23.7521417,268.157088 L5.9984473,265.718695 C2.21756794,265.198139 -0.409184299,261.691236 0.15246807,257.913782 C0.460691931,255.845257 0.78603934,253.783582 1.1285103,251.728756 C1.87509698,247.221838 2.69702728,242.742318 3.6011506,238.290196 C4.50184922,233.8141 5.48474087,229.361978 6.54297612,224.944103 C7.60121138,220.502254 8.73821496,216.091228 9.95056214,211.711025 C11.1629093,207.310273 12.4540248,202.940344 13.8239087,198.604661 C15.1903678,194.248431 16.6355952,189.926447 18.1527416,185.642136 C19.6733126,181.3407 21.2658026,177.073512 22.9370608,172.843996 C24.6048944,168.600781 26.3514963,164.388388 28.170017,160.217092 C29.9851131,156.035521 31.8755528,151.891623 33.8344867,147.785396 C35.80027,143.67232 37.8345474,139.596916 39.9407438,135.562608 C42.0435155,131.52145 44.2216308,127.52139 46.4682403,123.562425 C48.711425,119.596612 51.0265287,115.671894 53.4101266,111.791699 C55.7902997,107.908078 58.2389671,104.068978 60.7561286,100.277825 C63.2732901,96.479822 65.8520964,92.7297651 68.4993969,89.027654 C69.3555743,87.825581 70.2220258,86.6303573 71.0919021,85.4385584 C73.403581,82.2741268 77.8899506,81.6850767 80.9345174,84.1474429 L94.8799347,95.4352856 C97.7087448,97.7229916 98.2566984,101.825794 96.1162549,104.771044 Z" id="Stroke-138" stroke="#09B9B3"></path>
                    <path d="M751.759607,459.317595 L722.327995,447.748926" id="Stroke-152" stroke="#09B9B3"></path>
                    <path d="M746.536925,471.94789 L717.529977,459.358657" id="Stroke-154" stroke="#FFFFFF"></path>
                    <path d="M740.872455,484.389894 L712.324419,470.800646" id="Stroke-156" stroke="#09B9B3"></path>
                    <path d="M734.779897,496.62621 L706.724676,482.047564" id="Stroke-158" stroke="#FFFFFF"></path>
                    <path d="M728.262914,508.640091 L700.731332,493.092252" id="Stroke-160" stroke="#09B9B3"></path>
                    <polyline id="Stroke-162" stroke="#FFFFFF" points="721.324521 520.417907 694.354933 503.921081 694.351166 503.921081"></polyline>
                    <path d="M713.981807,531.94887 L687.601269,514.517098" id="Stroke-164" stroke="#09B9B3"></path>
                    <path d="M706.238402,543.215959 L680.488353,524.876639" id="Stroke-166" stroke="#FFFFFF"></path>
                    <path d="M698.111737,554.209482 L673.015465,534.98282" id="Stroke-168" stroke="#09B9B3"></path>
                    <path d="M689.604827,564.908343 L665.196579,544.818997" id="Stroke-170" stroke="#FFFFFF"></path>
                    <path d="M773.838949,378.278727 C773.725934,378.987299 773.612918,379.693132 773.496478,380.39828 C772.753316,384.90554 771.931386,389.388142 771.034112,393.840265 C770.136496,398.320127 769.160796,402.768825 768.105985,407.190125 C767.051175,411.635056 765.917596,416.046082 764.708673,420.430052 C763.499751,424.830804 762.21206,429.200391 760.849026,433.539498 C759.485991,437.896071 758.044189,442.221479 756.530467,446.508873 C755.013321,450.814076 753.420831,455.084688 751.759847,459.317629 C750.092013,463.563927 748.348836,467.776662 746.537165,471.947958 C744.721726,476.132611 742.835053,480.280277 740.872695,484.389928 C738.913761,488.509511 736.882908,492.58834 734.780137,496.626073 C732.677365,500.674422 730.502674,504.677908 728.262914,508.639954 C726.01973,512.609193 723.704283,516.537677 721.324453,520.417873 C718.94428,524.308 716.495612,528.150525 713.981875,531.94887 C711.468139,535.75338 708.885908,539.506861 706.238265,543.215822 C703.594731,546.928207 700.885444,550.596071 698.111771,554.209482 C695.337756,557.825975 692.502097,561.39418 689.604793,564.907932 C689.114717,565.507256 688.618476,566.106581 688.118469,566.705905 C685.714323,569.586086 681.447134,570.014174 678.532707,567.654892 L664.611262,556.391022 C661.63519,553.983451 661.207101,549.609755 663.659193,546.675121 C664.172899,546.058331 664.686606,545.438801 665.196888,544.818928 C667.857887,541.589085 670.463748,538.308213 673.0155,534.98282 C675.563483,531.660852 678.056672,528.290938 680.488216,524.876845 C682.91976,521.468916 685.293083,518.013727 687.600995,514.517098 C689.916441,511.026977 692.166475,507.493019 694.351098,503.920704 L694.354865,503.920704 C696.543254,500.352157 698.669999,496.742513 700.731674,493.092115 C702.793349,489.451306 704.789955,485.769744 706.724916,482.047427 C708.656452,478.338466 710.522919,474.588409 712.324316,470.800338 C714.125713,467.023226 715.862041,463.207757 717.529874,459.358726 C719.197708,455.523051 720.797047,451.653129 722.327893,447.74896 C723.858738,443.858148 725.321089,439.930349 726.714603,435.974809 C728.108802,432.032968 729.43074,428.05688 730.687609,424.053052 C731.937285,420.067033 733.122235,416.049849 734.232183,412.001842 C735.345214,407.974384 736.386325,403.91576 737.355518,399.830424 C738.324711,395.765294 739.221985,391.675848 740.04734,387.55969 C740.872695,383.466819 741.625789,379.346894 742.304223,375.203338 C742.393266,374.686207 742.478884,374.169075 742.561077,373.648177 C743.150127,369.973806 746.571412,367.449795 750.256399,367.95631 L768.003244,370.391621 C771.818371,370.915601 774.445123,374.476957 773.838949,378.278727 Z" id="Stroke-172" stroke="#09B9B3"></path>
                    <path d="M620.432372,630.70359 L601.610168,605.306286" id="Stroke-174" stroke="#FFFFFF"></path>
                    <path d="M609.315833,638.666039 L591.390903,612.624548" id="Stroke-176" stroke="#09B9B3"></path>
                    <path d="M597.928674,646.234853 L580.921566,619.580338" id="Stroke-178" stroke="#FFFFFF"></path>
                    <path d="M586.281305,653.402667 L570.212568,626.169377" id="Stroke-180" stroke="#09B9B3"></path>
                    <path d="M574.390816,660.156092 L559.280998,632.381697" id="Stroke-182" stroke="#FFFFFF"></path>
                    <path d="M562.270563,666.491805 L548.140212,638.203703" id="Stroke-184" stroke="#09B9B3"></path>
                    <path d="M549.934897,672.399429 L536.797711,643.635635" id="Stroke-186" stroke="#FFFFFF"></path>
                    <path d="M537.396932,677.868929 L525.27346,648.663006" id="Stroke-188" stroke="#09B9B3"></path>
                    <path d="M524.673999,682.892944 L513.578283,653.27948" id="Stroke-190" stroke="#FFFFFF"></path>
                    <path d="M511.786851,687.471815 L501.728479,657.48814" id="Stroke-192" stroke="#09B9B3"></path>
                    <path d="M498.738845,691.588179 L489.735283,661.276075" id="Stroke-194" stroke="#FFFFFF"></path>
                    <path d="M485.560391,695.245632 L477.618832,664.635578" id="Stroke-196" stroke="#09B9B3"></path>
                    <path d="M472.255531,698.434242 L465.388989,667.570759" id="Stroke-198" stroke="#FFFFFF"></path>
                    <path d="M458.851355,701.160276 L453.066678,670.070763" id="Stroke-200" stroke="#09B9B3"></path>
                    <path d="M445.357862,703.406749 L440.662586,672.139151" id="Stroke-202" stroke="#FFFFFF"></path>
                    <path d="M625.792179,626.655823 C624.01818,628.021939 622.230481,629.371617 620.432509,630.703487 C616.774919,633.426473 613.069383,636.080623 609.315902,638.665937 C605.565845,641.255359 601.771266,643.77937 597.928742,646.234887 C594.093068,648.690404 590.209447,651.080509 586.281305,653.402804 C582.363437,655.724757 578.397624,657.974449 574.390713,660.155989 C570.394077,662.340954 566.35292,664.454 562.270666,666.491702 C558.198687,668.532829 554.08561,670.502037 549.934862,672.399326 C545.794388,674.296615 541.612818,676.118903 537.397001,677.868929 C533.194882,679.618614 528.951667,681.297064 524.674205,682.892978 C520.413866,684.495742 516.11928,686.019738 511.787022,687.471815 C507.471888,688.920467 503.122507,690.293433 498.738879,691.588316 C494.379224,692.886281 489.985321,694.105135 485.560597,695.245563 C481.15642,696.385992 476.721421,697.451419 472.2556,698.43431 C467.817176,699.420627 463.34793,700.327832 458.851287,701.160379 C454.378616,701.985734 449.881972,702.735403 445.357931,703.406646 C443.351051,703.708021 441.337322,703.992272 439.316743,704.259741 C435.662578,704.74605 432.278965,702.242587 431.700189,698.598354 L429.361113,683.937515 L429.357688,683.910117 L428.85768,680.773083 C428.765213,680.19054 428.74809,679.615531 428.802885,679.053879 L428.802885,679.050112 C429.100835,675.981572 431.474158,673.395916 434.676262,672.978444 C436.676292,672.714399 438.672898,672.43734 440.662654,672.13939 C444.820252,671.522943 448.957301,670.830809 453.066952,670.070866 C457.200577,669.31058 461.306803,668.474609 465.389057,667.570828 C469.491859,666.662937 473.570688,665.687237 477.618695,664.635509 C481.68725,663.587891 485.724983,662.467668 489.735318,661.276212 C493.762776,660.08407 497.762837,658.820695 501.72865,657.48814 C505.711588,656.156271 509.660278,654.755565 513.578146,653.279172 C517.509712,651.809972 521.410456,650.268853 525.273529,648.663006 C529.1503,647.056475 532.989399,645.37871 536.797676,643.635533 C540.616228,641.892013 544.397107,640.080342 548.140315,638.203943 C551.893796,636.32686 555.606181,634.38505 559.280895,632.381937 C562.965882,630.374715 566.609773,628.303108 570.212568,626.169514 C573.822212,624.03592 577.394184,621.840338 580.921635,619.580373 C584.455935,617.323489 587.945714,615.004618 591.390972,612.624445 C594.843079,610.244614 598.24724,607.806221 601.610305,605.305841 C603.045258,604.241098 604.473362,603.165397 605.891192,602.079764 C608.761099,599.881101 612.853627,600.340012 615.185854,603.10067 L626.84014,616.888208 C629.340178,619.847157 628.864144,624.292773 625.792179,626.655823 Z" id="Stroke-204" stroke="#09B9B3"></path>
                </g>
                <polyline id="Stroke-207" stroke="#09B9B3" stroke-width="2.05482574" points="711.637011 702.730369 758.636698 749.726631 801.706873 792.796463"></polyline>
                <g id="Group-228" transform="translate(0.000000, 0.065069)">
                    <path d="M472.089467,56.9349746 C584.78296,57.0308665 686.798209,102.74389 760.662345,176.6183 C833.092555,249.034811 878.445984,348.760299 880.28843,458.839711 C880.351492,462.670249 877.268226,465.813447 873.436661,465.813447 L763.643212,465.815845 C759.916786,465.815845 756.883178,468.795684 756.797218,472.521083 C755.042739,548.561965 723.522397,617.139034 673.43191,667.26959 C623.285943,717.462134 554.425307,749.053367 478.289904,750.813325 C474.564505,750.899286 471.585008,753.932893 471.585008,757.65932 L471.585008,845.2675 L471.585008,923.986504 C471.585008,927.817727 474.729233,930.891404 478.559771,930.835996 C604.169214,928.990005 717.313056,877.370728 799.972531,794.7955" id="Stroke-208" stroke="#09B9B3" stroke-width="2.05482574"></path>
                    <polyline id="Stroke-210" stroke="#09B9B3" stroke-width="2.05482574" points="144.1988 135.223527 187.284729 178.309456 234.298115 225.326608"></polyline>
                    <path d="M141.911197,136.730536 C141.983116,136.658617 142.05161,136.590123 142.123529,136.518204 C224.737798,53.8871544 338.279592,2.20041014 463.880815,0.276268031 C467.707928,0.218530718 470.850784,3.28433072 470.858661,7.11178614 L471.023047,86.8705322 L471.206969,173.722537 C471.214831,177.454785 468.232936,180.496612 464.501715,180.582915 C388.44097,182.340818 319.369715,213.860475 269.241899,263.948565 C219.046273,314.094533 187.451273,382.977771 185.694739,459.120709 C185.608779,462.84645 182.575171,465.825947 178.848745,465.825947 L12.5064914,465.825947" id="Stroke-212" stroke="#09B9B3" stroke-width="2.05482574"></path>
                    <path d="M5.82697209,465.667041 C5.85710954,591.563474 55.8352661,705.722743 137.077254,789.467166 C139.74339,792.215838 144.140375,792.258304 146.84795,789.550729 L159.775886,776.622793 L178.483705,757.916002" id="Stroke-214" stroke="#09B9B3" stroke-width="2.05482574"></path>
                    <path d="M144.1988,140.875805 C140.777516,140.875805 138.004186,138.102475 138.004186,134.68119 C138.004186,131.259905 140.777516,128.486575 144.1988,128.486575 C147.620085,128.486575 150.393415,131.259905 150.393415,134.68119 C150.393415,138.102475 147.620085,140.875805 144.1988,140.875805" id="Fill-216" fill="#01244A"></path>
                    <path d="M144.1988,140.875805 C140.777516,140.875805 138.004186,138.102475 138.004186,134.68119 C138.004186,131.259905 140.777516,128.486575 144.1988,128.486575 C147.620085,128.486575 150.393415,131.259905 150.393415,134.68119 C150.393415,138.102475 147.620085,140.875805 144.1988,140.875805 Z" id="Stroke-218" stroke="#EF442E" stroke-width="2.05482574"></path>
                    <path d="M797.673147,794.580634 C797.673147,798.001577 800.446819,800.775249 803.867762,800.775249 C807.289046,800.775249 810.062376,798.001577 810.062376,794.580634 C810.062376,791.159692 807.289046,788.38602 803.867762,788.38602 C800.446819,788.38602 797.673147,791.159692 797.673147,794.580634" id="Fill-224" fill="#01244A"></path>
                    <path d="M797.673147,794.580634 C797.673147,798.001577 800.446819,800.775249 803.867762,800.775249 C807.289046,800.775249 810.062376,798.001577 810.062376,794.580634 C810.062376,791.159692 807.289046,788.38602 803.867762,788.38602 C800.446819,788.38602 797.673147,791.159692 797.673147,794.580634 Z" id="Stroke-226" stroke="#EF442E" stroke-width="2.05482574"></path>
                </g>
            </g>
        </g>
    </g>
</svg>