<?xml version="1.0" encoding="UTF-8"?>
<svg width="1440px" height="600px" viewBox="0 0 1440 600" version="1.1" xmlns="http://www.w3.org/2000/svg" xmlns:xlink="http://www.w3.org/1999/xlink" style="background: #002B49;">
    <!-- Generator: Sketch 57.1 (83088) - https://sketch.com -->
    <title>Radian / Organisms / One Up / Illustration 3 / Navy / Desktop Copy</title>
    <desc>Created with Sketch.</desc>
    <defs>
        <polygon id="path-1" points="0 1015.168 1215.76338 1015.168 1215.76338 0.2588905 0 0.2588905"></polygon>
    </defs>
    <g id="Radian-/-Organisms-/-One-Up-/-Illustration-3-/-Navy-/-Desktop-Copy" stroke="none" stroke-width="1" fill="none" fill-rule="evenodd">
        <rect fill="#002B49" x="0" y="0" width="1440" height="600"></rect>
        <g id="Group-489" transform="translate(0.000000, -2.000000)">
            <g transform="translate(141.000000, -62.000000)">
                <path d="M565.404219,156.837168 L499.4149,156.837168" id="Stroke-1" stroke="#09B9B3" stroke-width="3.399"></path>
                <path d="M497.157568,156.837168 L492.498105,156.837168" id="Stroke-2" stroke="#09B9B3" stroke-width="3.399"></path>
                <path d="M470.940344,120.448663 L459.858471,120.448663" id="Stroke-3" stroke="#09B9B3" stroke-width="3.399"></path>
                <path d="M456.89239,120.448663 L452.232361,120.448663" id="Stroke-4" stroke="#09B9B3" stroke-width="3.399"></path>
                <path d="M548.761072,139.542829 L499.058628,139.542829" id="Stroke-5" stroke="#09B9B3" stroke-width="3.399"></path>
                <path d="M494.061192,139.542829 L467.438524,139.542829" id="Stroke-6" stroke="#09B9B3" stroke-width="3.399"></path>
                <path d="M529.491235,120.268007 L474.520907,120.268007" id="Stroke-7" stroke="#09B9B3" stroke-width="3.399"></path>
                <path d="M656.535998,156.837168 L590.546112,156.837168" id="Stroke-8" stroke="#09B9B3" stroke-width="3.399"></path>
                <path d="M663.452396,156.837168 L658.792934,156.837168" id="Stroke-9" stroke="#09B9B3" stroke-width="3.399"></path>
                <path d="M696.091464,120.448663 L685.009591,120.448663" id="Stroke-10" stroke="#09B9B3" stroke-width="3.399"></path>
                <path d="M703.71763,120.448663 L699.058168,120.448663" id="Stroke-11" stroke="#09B9B3" stroke-width="3.399"></path>
                <path d="M656.89227,139.542829 L607.189259,139.542829" id="Stroke-12" stroke="#09B9B3" stroke-width="3.399"></path>
                <path d="M688.512317,139.542829 L661.889083,139.542829" id="Stroke-13" stroke="#09B9B3" stroke-width="3.399"></path>
                <path d="M681.429367,120.268007 L626.45904,120.268007" id="Stroke-14" stroke="#09B9B3" stroke-width="3.399"></path>
                <g id="Group-488" transform="translate(0.000000, 0.305910)">
                    <path d="M974.277803,240.93143 C969.910088,240.93143 966.37003,237.390805 966.37003,233.023657 C966.37003,228.655942 969.910088,225.115883 974.277803,225.115883 C978.644952,225.115883 982.185577,228.655942 982.185577,233.023657 C982.185577,237.390805 978.644952,240.93143 974.277803,240.93143" id="Fill-15" fill="#FFFFFF"></path>
                    <path d="M974.277803,240.93143 C969.910088,240.93143 966.37003,237.390805 966.37003,233.023657 C966.37003,228.655942 969.910088,225.115883 974.277803,225.115883 C978.644952,225.115883 982.185577,228.655942 982.185577,233.023657 C982.185577,237.390805 978.644952,240.93143 974.277803,240.93143 Z" id="Stroke-17" stroke="#EF442E" stroke-width="3.399"></path>
                    <path d="M974.277803,214.155185 C964.084769,214.155185 955.8218,222.418154 955.8218,232.611188 C955.8218,242.803656 964.084769,251.066625 974.277803,251.066625 C984.470271,251.066625 992.73324,242.803656 992.73324,232.611188 C992.73324,222.418154 984.470271,214.155185 974.277803,214.155185 Z" id="Stroke-19" stroke="#09B9B3" stroke-width="3.399" stroke-dasharray="5.796428198814392,5.796428198814392"></path>
                    <path d="M614.81197,700.059513 L630.590128,610.92357" id="Stroke-21" stroke="#09B9B3" stroke-width="3.399"></path>
                    <path d="M540.505354,700.059513 L524.72663,610.92357" id="Stroke-23" stroke="#09B9B3" stroke-width="3.399"></path>
                    <path d="M521.91815,610.923684 C515.850934,610.923684 510.932015,606.004764 510.932015,599.937549 C510.932015,593.869768 515.850934,588.951981 521.91815,588.951981 C527.985365,588.951981 532.904284,593.869768 532.904284,599.937549 C532.904284,606.004764 527.985365,610.923684 521.91815,610.923684" id="Fill-25"></path>
                    <path d="M521.91815,610.923684 C515.850934,610.923684 510.932015,606.004764 510.932015,599.937549 C510.932015,593.869768 515.850934,588.951981 521.91815,588.951981 C527.985365,588.951981 532.904284,593.869768 532.904284,599.937549 C532.904284,606.004764 527.985365,610.923684 521.91815,610.923684 Z" id="Stroke-27" stroke="#FFFFFF" stroke-width="3.399"></path>
                    <path d="M632.74634,610.923684 C626.679125,610.923684 621.760206,606.004764 621.760206,599.937549 C621.760206,593.869768 626.679125,588.951981 632.74634,588.951981 C638.814122,588.951981 643.732475,593.869768 643.732475,599.937549 C643.732475,606.004764 638.814122,610.923684 632.74634,610.923684" id="Fill-29"></path>
                    <path d="M632.74634,610.923684 C626.679125,610.923684 621.760206,606.004764 621.760206,599.937549 C621.760206,593.869768 626.679125,588.951981 632.74634,588.951981 C638.814122,588.951981 643.732475,593.869768 643.732475,599.937549 C643.732475,606.004764 638.814122,610.923684 632.74634,610.923684 Z" id="Stroke-31" stroke="#FFFFFF" stroke-width="3.399"></path>
                    <path d="M1099.65632,150.76695 L1033.43927,216.984002" id="Stroke-33" stroke="#09B9B3" stroke-width="3.399"></path>
                    <path d="M1034.00095,214.767345 C1037.46283,217.110955 1038.3698,221.816871 1036.02619,225.279319 C1033.68258,228.7412 1028.97666,229.648167 1025.51478,227.304556 C1022.05233,224.961512 1021.14593,220.255597 1023.48898,216.793149 C1025.83259,213.330701 1030.53907,212.424301 1034.00095,214.767345" id="Fill-35"></path>
                    <path d="M1034.00095,214.767345 C1037.46283,217.110955 1038.3698,221.816871 1036.02619,225.279319 C1033.68258,228.7412 1028.97666,229.648167 1025.51478,227.304556 C1022.05233,224.961512 1021.14593,220.255597 1023.48898,216.793149 C1025.83259,213.330701 1030.53907,212.424301 1034.00095,214.767345 Z" id="Stroke-37" stroke="#FFFFFF" stroke-width="3.399"></path>
                    <path d="M1058.13804,150.76695 L1013.98447,194.921093" id="Stroke-39" stroke="#FFFFFF" stroke-width="3.399"></path>
                    <path d="M1012.58402,193.532715 C1016.04591,195.876326 1016.95287,200.582241 1014.60926,204.044689 C1012.26565,207.506571 1007.55974,208.413537 1004.09785,206.069927 C1000.63541,203.726883 999.729006,199.020967 1002.07205,195.558519 C1004.41566,192.096071 1009.12214,191.189671 1012.58402,193.532715" id="Fill-41"></path>
                    <path d="M1012.58402,193.532715 C1016.04591,195.876326 1016.95287,200.582241 1014.60926,204.044689 C1012.26565,207.506571 1007.55974,208.413537 1004.09785,206.069927 C1000.63541,203.726883 999.729006,199.020967 1002.07205,195.558519 C1004.41566,192.096071 1009.12214,191.189671 1012.58402,193.532715 Z" id="Stroke-43" stroke="#09B9B3" stroke-width="3.399"></path>
                    <path d="M1016.61926,150.76695 L993.558178,173.828032" id="Stroke-45" stroke="#09B9B3" stroke-width="3.399"></path>
                    <path d="M991.545516,172.486164 C995.007398,174.829208 995.914931,179.53569 993.571321,182.998138 C991.22771,186.460019 986.521795,187.366986 983.059913,185.023375 C979.597465,182.680331 978.691065,177.973849 981.033542,174.511968 C983.377153,171.04952 988.083635,170.142553 991.545516,172.486164" id="Fill-47"></path>
                    <path d="M991.545516,172.486164 C995.007398,174.829208 995.914931,179.53569 993.571321,182.998138 C991.22771,186.460019 986.521795,187.366986 983.059913,185.023375 C979.597465,182.680331 978.691065,177.973849 981.033542,174.511968 C983.377153,171.04952 988.083635,170.142553 991.545516,172.486164 Z" id="Stroke-49" stroke="#FFFFFF" stroke-width="3.399"></path>
                    <path d="M180.631244,240.93143 C184.998393,240.93143 188.539018,237.390805 188.539018,233.023657 C188.539018,228.655942 184.998393,225.115883 180.631244,225.115883 C176.263529,225.115883 172.722904,228.655942 172.722904,233.023657 C172.722904,237.390805 176.263529,240.93143 180.631244,240.93143" id="Fill-51" fill="#FFFFFF"></path>
                    <path d="M180.631244,240.93143 C184.998393,240.93143 188.539018,237.390805 188.539018,233.023657 C188.539018,228.655942 184.998393,225.115883 180.631244,225.115883 C176.263529,225.115883 172.722904,228.655942 172.722904,233.023657 C172.722904,237.390805 176.263529,240.93143 180.631244,240.93143 Z" id="Stroke-53" stroke="#EF442E" stroke-width="3.399"></path>
                    <path d="M180.631244,214.155185 C190.823712,214.155185 199.086681,222.418154 199.086681,232.611188 C199.086681,242.803656 190.823712,251.066625 180.631244,251.066625 C170.43821,251.066625 162.175241,242.803656 162.175241,232.611188 C162.175241,222.418154 170.43821,214.155185 180.631244,214.155185 Z" id="Stroke-55" stroke="#09B9B3" stroke-width="3.399" stroke-dasharray="5.796428198814392,5.796428198814392"></path>
                    <path d="M55.2521613,150.76695 L121.46978,216.984002" id="Stroke-57" stroke="#09B9B3" stroke-width="3.399"></path>
                    <path d="M120.908095,214.767345 C117.446214,217.110955 116.538681,221.816871 118.882291,225.279319 C121.225902,228.7412 125.931817,229.648167 129.393699,227.304556 C132.856147,224.961512 133.763113,220.255597 131.420069,216.793149 C129.076459,213.330701 124.369977,212.424301 120.908095,214.767345" id="Fill-59"></path>
                    <path d="M120.908095,214.767345 C117.446214,217.110955 116.538681,221.816871 118.882291,225.279319 C121.225902,228.7412 125.931817,229.648167 129.393699,227.304556 C132.856147,224.961512 133.763113,220.255597 131.420069,216.793149 C129.076459,213.330701 124.369977,212.424301 120.908095,214.767345 Z" id="Stroke-61" stroke="#FFFFFF" stroke-width="3.399"></path>
                    <path d="M96.7709463,150.76695 L140.924523,194.921093" id="Stroke-63" stroke="#FFFFFF" stroke-width="3.399"></path>
                    <path d="M142.324967,193.532715 C138.862519,195.876326 137.955553,200.582241 140.299163,204.044689 C142.642774,207.506571 147.348689,208.413537 150.810571,206.069927 C154.273019,203.726883 155.179419,199.020967 152.836375,195.558519 C150.493331,192.096071 145.786849,191.189671 142.324967,193.532715" id="Fill-65"></path>
                    <path d="M142.324967,193.532715 C138.862519,195.876326 137.955553,200.582241 140.299163,204.044689 C142.642774,207.506571 147.348689,208.413537 150.810571,206.069927 C154.273019,203.726883 155.179419,199.020967 152.836375,195.558519 C150.493331,192.096071 145.786849,191.189671 142.324967,193.532715 Z" id="Stroke-67" stroke="#09B9B3" stroke-width="3.399"></path>
                    <path d="M138.289221,150.76695 L161.350303,173.828032" id="Stroke-69" stroke="#09B9B3" stroke-width="3.399"></path>
                    <path d="M163.362908,172.486164 C159.901026,174.829208 158.99406,179.53569 161.337104,182.998138 C163.680714,186.460019 168.38663,187.366986 171.848511,185.023375 C175.310959,182.680331 176.217926,177.973849 173.874882,174.511968 C171.531271,171.04952 166.824789,170.142553 163.362908,172.486164" id="Fill-71"></path>
                    <path d="M163.362908,172.486164 C159.901026,174.829208 158.99406,179.53569 161.337104,182.998138 C163.680714,186.460019 168.38663,187.366986 171.848511,185.023375 C175.310959,182.680331 176.217926,177.973849 173.874882,174.511968 C171.531271,171.04952 166.824789,170.142553 163.362908,172.486164 Z" id="Stroke-73" stroke="#FFFFFF" stroke-width="3.399"></path>
                    <path d="M304.47126,68.8398903 C293.771774,76.0820263 290.968732,90.6263473 298.210868,101.326399 C305.453004,112.025885 319.997892,114.82836 330.697377,107.586224 C341.397429,100.344088 344.199905,85.7992008 336.957769,75.0997153 C329.715633,64.4007963 315.170745,61.5977543 304.47126,68.8398903 Z" id="Stroke-75" stroke="#FFFFFF" stroke-width="3.399"></path>
                    <path d="M290.570993,125.585912 L290.570993,118.798676" id="Stroke-99" stroke="#FFFFFF" stroke-width="2.8325"></path>
                    <path d="M295.982031,125.585912 L295.982031,118.798676" id="Stroke-101" stroke="#FFFFFF" stroke-width="2.8325"></path>
                    <path d="M301.393126,125.585912 L301.393126,118.798676" id="Stroke-103" stroke="#FFFFFF" stroke-width="2.8325"></path>
                    <path d="M306.80473,125.585912 L306.80473,118.798676" id="Stroke-105" stroke="#FFFFFF" stroke-width="2.8325"></path>
                    <path d="M312.215825,125.585912 L312.215825,118.798676" id="Stroke-107" stroke="#FFFFFF" stroke-width="2.8325"></path>
                    <path d="M317.627429,125.585912 L317.627429,118.798676" id="Stroke-109" stroke="#FFFFFF" stroke-width="2.8325"></path>
                    <path d="M323.038524,125.585912 L323.038524,118.798676" id="Stroke-111" stroke="#FFFFFF" stroke-width="2.8325"></path>
                    <path d="M328.449562,125.585912 L328.449562,118.798676" id="Stroke-113" stroke="#FFFFFF" stroke-width="2.8325"></path>
                    <path d="M333.861167,125.585912 L333.861167,118.798676" id="Stroke-115" stroke="#FFFFFF" stroke-width="2.8325"></path>
                    <path d="M339.272261,125.585912 L339.272261,118.798676" id="Stroke-117" stroke="#FFFFFF" stroke-width="2.8325"></path>
                    <path d="M344.683866,125.585912 L344.683866,118.798676" id="Stroke-119" stroke="#FFFFFF" stroke-width="2.8325"></path>
                    <path d="M347.947926,66.8325542 L354.735162,66.8325542" id="Stroke-123" stroke="#FFFFFF" stroke-width="2.8325"></path>
                    <path d="M347.947926,72.2438755 L354.735162,72.2438755" id="Stroke-125" stroke="#FFFFFF" stroke-width="2.8325"></path>
                    <path d="M347.947926,77.6552535 L354.735162,77.6552535" id="Stroke-127" stroke="#FFFFFF" stroke-width="2.8325"></path>
                    <path d="M347.947926,83.0665748 L354.735162,83.0665748" id="Stroke-129" stroke="#FFFFFF" stroke-width="2.8325"></path>
                    <path d="M347.947926,88.4776695 L354.735162,88.4776695" id="Stroke-131" stroke="#FFFFFF" stroke-width="3.399"></path>
                    <path d="M347.947926,93.8889908 L354.735162,93.8889908" id="Stroke-133" stroke="#FFFFFF" stroke-width="2.8325"></path>
                    <path d="M347.947926,99.3003687 L354.735162,99.3003687" id="Stroke-135" stroke="#FFFFFF" stroke-width="2.8325"></path>
                    <path d="M347.947926,104.71169 L354.735162,104.71169" id="Stroke-137" stroke="#FFFFFF" stroke-width="2.8325"></path>
                    <path d="M347.947926,110.123068 L354.735162,110.123068" id="Stroke-139" stroke="#FFFFFF" stroke-width="2.8325"></path>
                    <path d="M347.947926,115.534106 L354.735162,115.534106" id="Stroke-141" stroke="#FFFFFF" stroke-width="2.8325"></path>
                    <path d="M260.869511,66.8325542 L287.306367,66.8325542" id="Stroke-145" stroke="#FFFFFF" stroke-width="2.8325"></path>
                    <path d="M260.869511,72.2438755 L287.306367,72.2438755" id="Stroke-147" stroke="#FFFFFF" stroke-width="2.8325"></path>
                    <path d="M260.869511,77.6552535 L287.306367,77.6552535" id="Stroke-149" stroke="#FFFFFF" stroke-width="2.8325"></path>
                    <path d="M260.869511,83.0665748 L287.306367,83.0665748" id="Stroke-151" stroke="#FFFFFF" stroke-width="2.8325"></path>
                    <path d="M260.869511,88.4776695 L287.306367,88.4776695" id="Stroke-153" stroke="#FFFFFF" stroke-width="2.8325"></path>
                    <path d="M254.526297,93.8889908 L287.306253,93.8889908" id="Stroke-155" stroke="#FFFFFF" stroke-width="2.8325"></path>
                    <path d="M250.105501,99.3003687 L287.306423,99.3003687" id="Stroke-157" stroke="#FFFFFF" stroke-width="2.8325"></path>
                    <path d="M246.789437,104.71169 L287.306083,104.71169" id="Stroke-159" stroke="#FFFFFF" stroke-width="2.8325"></path>
                    <path d="M246.789437,110.123068 L287.306083,110.123068" id="Stroke-161" stroke="#FFFFFF" stroke-width="2.8325"></path>
                    <path d="M246.789437,115.534106 L287.306083,115.534106" id="Stroke-163" stroke="#FFFFFF" stroke-width="2.8325"></path>
                    <path d="M856.928178,68.8398903 C867.62823,76.0820263 870.430706,90.6263473 863.18857,101.326399 C855.946434,112.025885 841.401546,114.82836 830.702061,107.586224 C820.002575,100.344088 817.199533,85.7992008 824.441669,75.0997153 C831.683805,64.4007963 846.228693,61.5977543 856.928178,68.8398903" id="Fill-165"></path>
                    <path d="M856.928178,68.8398903 C867.62823,76.0820263 870.430706,90.6263473 863.18857,101.326399 C855.946434,112.025885 841.401546,114.82836 830.702061,107.586224 C820.002575,100.344088 817.199533,85.7992008 824.441669,75.0997153 C831.683805,64.4007963 846.228693,61.5977543 856.928178,68.8398903 Z" id="Stroke-167" stroke="#FFFFFF" stroke-width="3.399"></path>
                    <path d="M870.829012,125.585912 L870.829012,118.798676" id="Stroke-191" stroke="#FFFFFF" stroke-width="2.8325"></path>
                    <path d="M865.417407,125.585912 L865.417407,118.798676" id="Stroke-193" stroke="#FFFFFF" stroke-width="2.8325"></path>
                    <path d="M860.006313,125.585912 L860.006313,118.798676" id="Stroke-195" stroke="#FFFFFF" stroke-width="2.8325"></path>
                    <path d="M854.594708,125.585912 L854.594708,118.798676" id="Stroke-197" stroke="#FFFFFF" stroke-width="2.8325"></path>
                    <path d="M849.183613,125.585912 L849.183613,118.798676" id="Stroke-199" stroke="#FFFFFF" stroke-width="2.8325"></path>
                    <path d="M843.772575,125.585912 L843.772575,118.798676" id="Stroke-201" stroke="#FFFFFF" stroke-width="2.8325"></path>
                    <path d="M838.360971,125.585912 L838.360971,118.798676" id="Stroke-203" stroke="#FFFFFF" stroke-width="2.8325"></path>
                    <path d="M832.949876,125.585912 L832.949876,118.798676" id="Stroke-205" stroke="#FFFFFF" stroke-width="2.8325"></path>
                    <path d="M827.538271,125.585912 L827.538271,118.798676" id="Stroke-207" stroke="#FFFFFF" stroke-width="2.8325"></path>
                    <path d="M822.127177,125.585912 L822.127177,118.798676" id="Stroke-209" stroke="#FFFFFF" stroke-width="2.8325"></path>
                    <path d="M816.716082,125.585912 L816.716082,118.798676" id="Stroke-211" stroke="#FFFFFF" stroke-width="2.8325"></path>
                    <path d="M813.451513,66.8325542 L806.664276,66.8325542" id="Stroke-215" stroke="#FFFFFF" stroke-width="2.8325"></path>
                    <path d="M813.451513,72.2438755 L806.664276,72.2438755" id="Stroke-217" stroke="#FFFFFF" stroke-width="2.8325"></path>
                    <path d="M813.451513,77.6552535 L806.664276,77.6552535" id="Stroke-219" stroke="#FFFFFF" stroke-width="2.8325"></path>
                    <path d="M813.451513,83.0665748 L806.664276,83.0665748" id="Stroke-221" stroke="#FFFFFF" stroke-width="2.8325"></path>
                    <path d="M813.451513,88.4776695 L806.664276,88.4776695" id="Stroke-223" stroke="#FFFFFF" stroke-width="3.399"></path>
                    <path d="M813.451513,93.8889908 L806.664276,93.8889908" id="Stroke-225" stroke="#FFFFFF" stroke-width="2.8325"></path>
                    <path d="M813.451513,99.3003687 L806.664276,99.3003687" id="Stroke-227" stroke="#FFFFFF" stroke-width="2.8325"></path>
                    <path d="M813.451513,104.71169 L806.664276,104.71169" id="Stroke-229" stroke="#FFFFFF" stroke-width="2.8325"></path>
                    <path d="M813.451513,110.123068 L806.664276,110.123068" id="Stroke-231" stroke="#FFFFFF" stroke-width="2.8325"></path>
                    <path d="M813.451513,115.534106 L806.664276,115.534106" id="Stroke-233" stroke="#FFFFFF" stroke-width="2.8325"></path>
                    <path d="M900.52987,66.8325542 L874.093015,66.8325542" id="Stroke-237" stroke="#FFFFFF" stroke-width="2.8325"></path>
                    <path d="M900.52987,72.2438755 L874.093015,72.2438755" id="Stroke-239" stroke="#FFFFFF" stroke-width="2.8325"></path>
                    <path d="M900.52987,77.6552535 L874.093015,77.6552535" id="Stroke-241" stroke="#FFFFFF" stroke-width="2.8325"></path>
                    <path d="M900.52987,83.0665748 L874.093015,83.0665748" id="Stroke-243" stroke="#FFFFFF" stroke-width="2.8325"></path>
                    <path d="M900.52987,88.4776695 L874.093015,88.4776695" id="Stroke-245" stroke="#FFFFFF" stroke-width="2.8325"></path>
                    <path d="M906.873141,93.8889908 L874.093185,93.8889908" id="Stroke-247" stroke="#FFFFFF" stroke-width="2.8325"></path>
                    <path d="M911.294503,99.3003687 L874.093015,99.3003687" id="Stroke-249" stroke="#FFFFFF" stroke-width="2.8325"></path>
                    <path d="M914.609945,104.71169 L874.093298,104.71169" id="Stroke-251" stroke="#FFFFFF" stroke-width="2.8325"></path>
                    <path d="M914.609945,110.123068 L874.093298,110.123068" id="Stroke-253" stroke="#FFFFFF" stroke-width="2.8325"></path>
                    <path d="M914.609945,115.534106 L874.093298,115.534106" id="Stroke-255" stroke="#FFFFFF" stroke-width="2.8325"></path>
                    <path d="M1025.42986,355.208416 L1128.22979,355.208416 C1148.0182,355.208416 1157.92288,379.130578 1143.93487,393.125961 L591.798474,945.262353 C583.123093,953.929803 569.062563,953.929803 560.387748,945.262353 L8.25078925,393.125961 C-5.74459325,379.130578 4.16802375,355.208416 23.9564353,355.208416 L127.57665,355.208416" id="Stroke-257" stroke="#FFFFFF" stroke-width="3.399"></path>
                    <path d="M105.915163,68.0197683 C105.901,59.5483273 107.538185,50.9896453 110.922456,42.8167498 C111.817526,40.6481878 112.821364,38.5515713 113.928305,36.5285998" id="Stroke-263" stroke="#09B9B3" stroke-width="3.399"></path>
                    <path d="M106.759418,78.3323909 C108.047639,86.2509279 110.805927,93.9213379 114.947042,100.936874" id="Stroke-267" stroke="#09B9B3" stroke-width="3.399"></path>
                    <path d="M1206.05097,342.204635 C1207.15734,344.228173 1208.16175,346.323657 1209.05682,348.492785 C1212.44052,356.665681 1214.07827,365.224363 1214.06411,373.695804" id="Stroke-269" stroke="#09B9B3" stroke-width="3.399"></path>
                    <path d="M1083.44247,308.166539 L1148.70213,308.166539 C1168.92675,308.166539 1187.51475,317.380095 1199.68997,332.627443" id="Stroke-271" stroke="#09B9B3" stroke-width="3.399"></path>
                    <path d="M1205.03195,406.613023 C1209.17363,399.597487 1211.93192,391.92651 1213.21957,384.00854" id="Stroke-273" stroke="#09B9B3" stroke-width="3.399"></path>
                    <path d="M762.726026,125.191458 L951.994809,125.191458" id="Stroke-279" stroke="#FFFFFF" stroke-width="3.399"></path>
                    <path d="M844.074633,125.346906 L844.074633,244.555501" id="Stroke-281" stroke="#FFFFFF" stroke-width="3.399"></path>
                    <path d="M317.762426,125.346906 L317.762426,244.555501" id="Stroke-283" stroke="#FFFFFF" stroke-width="3.399"></path>
                    <polygon id="Stroke-285" stroke="#09B9B3" stroke-width="3.399" stroke-linecap="round" stroke-linejoin="round" points="739.741252 125.054535 751.233271 118.419121 762.725856 111.784273 762.725856 125.054535 762.725856 138.324798 751.233271 131.689383"></polygon>
                    <path d="M391.981121,125.27581 L202.399063,125.27581" id="Stroke-287" stroke="#FFFFFF" stroke-width="3.399"></path>
                    <polygon id="Stroke-289" stroke="#09B9B3" stroke-width="3.399" stroke-linecap="round" stroke-linejoin="round" points="415.806185 125.054535 404.314166 118.419121 392.822147 111.784273 392.82158 125.054535 392.82158 138.324798 404.314166 131.689383"></polygon>
                    <mask id="mask-2" fill="white">
                        <use xlink:href="#path-1"></use>
                    </mask>
                    <g id="Clip-292"></g>
                    <polygon id="Stroke-291" stroke="#09B9B3" stroke-width="3.399" mask="url(#mask-2)" points="288.413081 117.384465 346.755783 117.384465 346.755783 59.0411965 288.413081 59.0411965"></polygon>
                    <polyline id="Stroke-293" stroke="#FFFFFF" stroke-width="3.399" mask="url(#mask-2)" points="245.848424 125.054252 245.848424 103.416218 260.869738 88.3949038 260.869738 66.9755388 243.690625 49.7964263"></polyline>
                    <polygon id="Stroke-294" stroke="#09B9B3" stroke-width="3.399" mask="url(#mask-2)" points="814.643995 117.384465 872.986697 117.384465 872.986697 59.0411965 814.643995 59.0411965"></polygon>
                    <polyline id="Stroke-295" stroke="#FFFFFF" stroke-width="3.399" mask="url(#mask-2)" points="915.551014 125.054252 915.551014 103.416218 900.5297 88.3949038 900.5297 66.9755388 917.709379 49.7964263"></polyline>
                    <path d="M1074.29106,544.137582 L901.068952,717.359686" id="Stroke-298" stroke="#09B9B3" stroke-width="3.399" mask="url(#mask-2)"></path>
                    <path d="M142.207135,599.36799 L17.8382919,474.99858" id="Stroke-303" stroke="#09B9B3" stroke-width="3.399" mask="url(#mask-2)"></path>
                    <path d="M155.242754,612.403042 L146.461437,603.621725" id="Stroke-304" stroke="#09B9B3" stroke-width="3.399" mask="url(#mask-2)"></path>
                    <polyline id="Stroke-305" stroke="#09B9B3" stroke-width="3.399" mask="url(#mask-2)" points="879.397324 476.158942 867.917202 487.637932 857.390499 498.164635"></polyline>
                    <polyline id="Stroke-306" stroke="#09B9B3" stroke-width="3.399" mask="url(#mask-2)" points="911.309459 489.88688 899.829336 501.365869 889.302633 511.892572"></polyline>
                    <polyline id="Stroke-307" stroke="#09B9B3" stroke-width="3.399" mask="url(#mask-2)" points="911.336538 467.331456 911.169987 479.462487 911.018165 490.586281"></polyline>
                    <polyline id="Stroke-308" stroke="#09B9B3" stroke-width="3.399" mask="url(#mask-2)" points="901.952239 476.77773 889.821774 476.611179 878.697414 476.459357"></polyline>
                    <path d="M291.390265,514.521869 L219.703089,442.834693 C219.703089,442.834693 177.023546,400.157982 164.661949,387.797518 C162.537008,385.673143 159.656922,384.480661 156.651639,384.480661 L75.7526066,384.480661 C62.7871211,384.480661 56.2938981,400.156849 65.4621341,409.324518 L565.799466,909.662417 C571.485993,915.348944 580.705214,915.348944 586.391175,909.662417 L1086.71944,409.334149 C1095.89108,400.162514 1089.39502,384.480661 1076.425,384.480661 L998.883618,384.480661 C995.878902,384.480661 992.997116,385.674276 990.872175,387.798651 L935.832734,442.834693 L864.145558,514.521869" id="Stroke-320" stroke="#09B9B3" stroke-width="3.399" mask="url(#mask-2)"></path>
                    <polyline id="Stroke-321" stroke="#09B9B3" stroke-width="3.399" mask="url(#mask-2)" points="298.145721 498.164748 287.618451 487.638045 276.138329 476.159055"></polyline>
                    <polyline id="Stroke-322" stroke="#09B9B3" stroke-width="3.399" mask="url(#mask-2)" points="266.23302 511.892402 255.706317 501.365699 244.226194 489.88671"></polyline>
                    <polyline id="Stroke-323" stroke="#09B9B3" stroke-width="3.399" mask="url(#mask-2)" points="244.518508 490.586168 244.36612 479.462374 244.200135 467.331343"></polyline>
                    <polyline id="Stroke-324" stroke="#09B9B3" stroke-width="3.399" mask="url(#mask-2)" points="276.838296 476.459074 265.714502 476.611462 253.583471 476.777447"></polyline>
                    <path d="M265.211224,515.60513 C267.687962,515.60513 269.696204,513.596888 269.696204,511.12015 C269.696204,508.643412 267.687962,506.635169 265.211224,506.635169 C262.734486,506.635169 260.726243,508.643412 260.726243,511.12015 C260.726243,513.596888 262.734486,515.60513 265.211224,515.60513" id="Fill-325" fill="#FFFFFF" mask="url(#mask-2)"></path>
                    <path d="M265.211224,515.60513 C267.687962,515.60513 269.696204,513.596888 269.696204,511.12015 C269.696204,508.643412 267.687962,506.635169 265.211224,506.635169 C262.734486,506.635169 260.726243,508.643412 260.726243,511.12015 C260.726243,513.596888 262.734486,515.60513 265.211224,515.60513 Z" id="Stroke-326" stroke="#EF442E" stroke-width="3.399" mask="url(#mask-2)"></path>
                    <path d="M298.484261,503.452459 C300.960999,503.452459 302.969242,501.444216 302.969242,498.967478 C302.969242,496.49074 300.960999,494.482498 298.484261,494.482498 C296.007523,494.482498 293.999281,496.49074 293.999281,498.967478 C293.999281,501.444216 296.007523,503.452459 298.484261,503.452459" id="Fill-327" fill="#FFFFFF" mask="url(#mask-2)"></path>
                    <path d="M298.484261,503.452459 C300.960999,503.452459 302.969242,501.444216 302.969242,498.967478 C302.969242,496.49074 300.960999,494.482498 298.484261,494.482498 C296.007523,494.482498 293.999281,496.49074 293.999281,498.967478 C293.999281,501.444216 296.007523,503.452459 298.484261,503.452459 Z" id="Stroke-328" stroke="#EF442E" stroke-width="3.399" mask="url(#mask-2)"></path>
                    <path d="M293.999281,522.03077 C296.476585,522.03077 298.484261,520.022527 298.484261,517.545789 C298.484261,515.069051 296.476585,513.060809 293.999281,513.060809 C291.522543,513.060809 289.514867,515.069051 289.514867,517.545789 C289.514867,520.022527 291.522543,522.03077 293.999281,522.03077" id="Fill-329" fill="#FFFFFF" mask="url(#mask-2)"></path>
                    <path d="M293.999281,522.03077 C296.476585,522.03077 298.484261,520.022527 298.484261,517.545789 C298.484261,515.069051 296.476585,513.060809 293.999281,513.060809 C291.522543,513.060809 289.514867,515.069051 289.514867,517.545789 C289.514867,520.022527 291.522543,522.03077 293.999281,522.03077 Z" id="Stroke-330" stroke="#EF442E" stroke-width="3.399" mask="url(#mask-2)"></path>
                    <polyline id="Stroke-331" stroke="#09B9B3" stroke-width="3.399" mask="url(#mask-2)" points="259.433943 79.6559615 228.278709 79.656528 190.4688 79.6559615"></polyline>
                    <polyline id="Stroke-332" stroke="#09B9B3" stroke-width="3.399" mask="url(#mask-2)" points="195.775715 92.431273 207.413325 92.431273 220.103491 92.4307065"></polyline>
                    <polyline id="Stroke-333" stroke="#09B9B3" stroke-width="3.399" mask="url(#mask-2)" points="205.827181 67.2034984 217.464791 67.2034984 230.154957 67.2034984"></polyline>
                    <polyline id="Stroke-334" stroke="#09B9B3" stroke-width="3.399" mask="url(#mask-2)" points="229.607492 66.9777482 235.840125 73.0426972 242.637558 79.6554517"></polyline>
                    <polyline id="Stroke-335" stroke="#09B9B3" stroke-width="3.399" mask="url(#mask-2)" points="219.550984 92.6516981 225.615933 86.4184987 232.229254 79.6216316"></polyline>
                    <path d="M204.340119,64.5867216 C202.970888,65.9559521 202.970888,68.1754991 204.340119,69.5447296 C205.709349,70.9139602 207.929463,70.9139602 209.298127,69.5447296 C210.667357,68.1754991 210.667357,65.9559521 209.298127,64.5867216 C207.929463,63.2174912 205.709349,63.2174912 204.340119,64.5867216" id="Fill-336" fill="#FFFFFF" mask="url(#mask-2)"></path>
                    <path d="M204.340119,64.5867216 C202.970888,65.9559521 202.970888,68.1754991 204.340119,69.5447296 C205.709349,70.9139602 207.929463,70.9139602 209.298127,69.5447296 C210.667357,68.1754991 210.667357,65.9559521 209.298127,64.5867216 C207.929463,63.2174912 205.709349,63.2174912 204.340119,64.5867216 Z" id="Stroke-337" stroke="#EF442E" stroke-width="3.399" mask="url(#mask-2)"></path>
                    <path d="M192.666027,89.6958711 C191.296796,91.0651016 191.296796,93.2846486 192.666027,94.6538791 C194.034691,96.0231096 196.254804,96.0231096 197.624035,94.6538791 C198.992699,93.2846486 198.992699,91.0651016 197.624035,89.6958711 C196.254804,88.3266406 194.034691,88.3266406 192.666027,89.6958711" id="Fill-338" fill="#FFFFFF" mask="url(#mask-2)"></path>
                    <path d="M192.666027,89.6958711 C191.296796,91.0651016 191.296796,93.2846486 192.666027,94.6538791 C194.034691,96.0231096 196.254804,96.0231096 197.624035,94.6538791 C198.992699,93.2846486 198.992699,91.0651016 197.624035,89.6958711 C196.254804,88.3266406 194.034691,88.3266406 192.666027,89.6958711 Z" id="Stroke-339" stroke="#EF442E" stroke-width="3.399" mask="url(#mask-2)"></path>
                    <path d="M184.875575,76.947695 C183.506345,78.3169255 183.506345,80.5364725 184.875575,81.905703 C186.244806,83.2749335 188.464353,83.2749335 189.833584,81.905703 C191.202814,80.5364725 191.202814,78.3169255 189.833584,76.947695 C188.464353,75.5784645 186.244806,75.5784645 184.875575,76.947695" id="Fill-340" fill="#FFFFFF" mask="url(#mask-2)"></path>
                    <path d="M184.875575,76.947695 C183.506345,78.3169255 183.506345,80.5364725 184.875575,81.905703 C186.244806,83.2749335 188.464353,83.2749335 189.833584,81.905703 C191.202814,80.5364725 191.202814,78.3169255 189.833584,76.947695 C188.464353,75.5784645 186.244806,75.5784645 184.875575,76.947695 Z" id="Stroke-341" stroke="#EF442E" stroke-width="3.399" mask="url(#mask-2)"></path>
                    <polyline id="Stroke-342" stroke="#09B9B3" stroke-width="3.399" mask="url(#mask-2)" points="970.931375 79.6559615 933.120899 79.656528 901.965665 79.6559615"></polyline>
                    <polyline id="Stroke-343" stroke="#09B9B3" stroke-width="3.399" mask="url(#mask-2)" points="941.295777 92.4307065 953.985943 92.431273 965.623553 92.431273"></polyline>
                    <polyline id="Stroke-344" stroke="#09B9B3" stroke-width="3.399" mask="url(#mask-2)" points="931.244254 67.2032152 943.934421 67.2032152 955.57203 67.2032152"></polyline>
                    <polyline id="Stroke-345" stroke="#09B9B3" stroke-width="3.399" mask="url(#mask-2)" points="918.76188 79.6556783 925.559313 73.0423573 931.792513 66.9779748"></polyline>
                    <polyline id="Stroke-346" stroke="#09B9B3" stroke-width="3.399" mask="url(#mask-2)" points="929.170241 79.6214051 935.784128 86.4188386 941.848511 92.6514716"></polyline>
                    <path d="M957.059263,64.5867216 C958.428493,65.9559521 958.428493,68.1754991 957.059263,69.5447296 C955.690032,70.9139602 953.470485,70.9139602 952.101255,69.5447296 C950.732024,68.1754991 950.732024,65.9559521 952.101255,64.5867216 C953.470485,63.2174912 955.690032,63.2174912 957.059263,64.5867216" id="Fill-347" fill="#FFFFFF" mask="url(#mask-2)"></path>
                    <path d="M957.059263,64.5867216 C958.428493,65.9559521 958.428493,68.1754991 957.059263,69.5447296 C955.690032,70.9139602 953.470485,70.9139602 952.101255,69.5447296 C950.732024,68.1754991 950.732024,65.9559521 952.101255,64.5867216 C953.470485,63.2174912 955.690032,63.2174912 957.059263,64.5867216 Z" id="Stroke-348" stroke="#EF442E" stroke-width="3.399" mask="url(#mask-2)"></path>
                    <path d="M968.733921,89.6958711 C970.102585,91.0651016 970.102585,93.2846486 968.733921,94.6538791 C967.364691,96.0231096 965.144577,96.0231096 963.775913,94.6538791 C962.406683,93.2846486 962.406683,91.0651016 963.775913,89.6958711 C965.144577,88.3266406 967.364691,88.3266406 968.733921,89.6958711" id="Fill-349" fill="#FFFFFF" mask="url(#mask-2)"></path>
                    <path d="M968.733921,89.6958711 C970.102585,91.0651016 970.102585,93.2846486 968.733921,94.6538791 C967.364691,96.0231096 965.144577,96.0231096 963.775913,94.6538791 C962.406683,93.2846486 962.406683,91.0651016 963.775913,89.6958711 C965.144577,88.3266406 967.364691,88.3266406 968.733921,89.6958711 Z" id="Stroke-350" stroke="#EF442E" stroke-width="3.399" mask="url(#mask-2)"></path>
                    <path d="M976.523863,76.947695 C977.893093,78.3169255 977.893093,80.5364725 976.523863,81.905703 C975.154632,83.2749335 972.935085,83.2749335 971.565855,81.905703 C970.196624,80.5364725 970.196624,78.3169255 971.565855,76.947695 C972.935085,75.5784645 975.154632,75.5784645 976.523863,76.947695" id="Fill-351" fill="#FFFFFF" mask="url(#mask-2)"></path>
                    <path d="M976.523863,76.947695 C977.893093,78.3169255 977.893093,80.5364725 976.523863,81.905703 C975.154632,83.2749335 972.935085,83.2749335 971.565855,81.905703 C970.196624,80.5364725 970.196624,78.3169255 971.565855,76.947695 C972.935085,75.5784645 975.154632,75.5784645 976.523863,76.947695 Z" id="Stroke-352" stroke="#EF442E" stroke-width="3.399" mask="url(#mask-2)"></path>
                    <path d="M891.365203,159.886241 C891.365203,157.868368 889.729151,156.232882 887.711845,156.232882 C885.693405,156.232882 884.058486,157.868368 884.058486,159.886241 C884.058486,161.904114 885.693405,163.539599 887.711845,163.539599 C889.729151,163.539599 891.365203,161.904114 891.365203,159.886241" id="Fill-353" fill="#09B9B3" mask="url(#mask-2)"></path>
                    <path d="M891.365203,141.559399 C891.365203,139.541526 889.729151,137.906041 887.711845,137.906041 C885.693405,137.906041 884.058486,139.541526 884.058486,141.559399 C884.058486,143.577272 885.693405,145.212758 887.711845,145.212758 C889.729151,145.212758 891.365203,143.577272 891.365203,141.559399" id="Fill-354" fill="#09B9B3" mask="url(#mask-2)"></path>
                    <path d="M869.573195,214.867445 C869.573195,212.849572 867.937709,211.214087 865.919836,211.214087 C863.901963,211.214087 862.267044,212.849572 862.267044,214.867445 C862.267044,216.885318 863.901963,218.520804 865.919836,218.520804 C867.937709,218.520804 869.573195,216.885318 869.573195,214.867445" id="Fill-355" fill="#09B9B3" mask="url(#mask-2)"></path>
                    <path d="M869.573195,196.54032 C869.573195,194.522447 867.937709,192.886962 865.919836,192.886962 C863.901963,192.886962 862.267044,194.522447 862.267044,196.54032 C862.267044,198.558193 863.901963,200.193679 865.919836,200.193679 C867.937709,200.193679 869.573195,198.558193 869.573195,196.54032" id="Fill-356" fill="#09B9B3" mask="url(#mask-2)"></path>
                    <path d="M869.573195,178.213422 C869.573195,176.195549 867.937709,174.560064 865.919836,174.560064 C863.901963,174.560064 862.267044,176.195549 862.267044,178.213422 C862.267044,180.231295 863.901963,181.866781 865.919836,181.866781 C867.937709,181.866781 869.573195,180.231295 869.573195,178.213422" id="Fill-357" fill="#09B9B3" mask="url(#mask-2)"></path>
                    <path d="M869.573195,159.886241 C869.573195,157.868368 867.937709,156.232882 865.919836,156.232882 C863.901963,156.232882 862.267044,157.868368 862.267044,159.886241 C862.267044,161.904114 863.901963,163.539599 865.919836,163.539599 C867.937709,163.539599 869.573195,161.904114 869.573195,159.886241" id="Fill-358" fill="#09B9B3" mask="url(#mask-2)"></path>
                    <path d="M869.573195,141.559399 C869.573195,139.541526 867.937709,137.906041 865.919836,137.906041 C863.901963,137.906041 862.267044,139.541526 862.267044,141.559399 C862.267044,143.577272 863.901963,145.212758 865.919836,145.212758 C867.937709,145.212758 869.573195,143.577272 869.573195,141.559399" id="Fill-359" fill="#09B9B3" mask="url(#mask-2)"></path>
                    <path d="M823.847127,214.867445 C823.847127,212.849572 822.211642,211.214087 820.193769,211.214087 C818.175896,211.214087 816.54041,212.849572 816.54041,214.867445 C816.54041,216.885318 818.175896,218.520804 820.193769,218.520804 C822.211642,218.520804 823.847127,216.885318 823.847127,214.867445" id="Fill-360" fill="#09B9B3" mask="url(#mask-2)"></path>
                    <path d="M823.847127,196.54032 C823.847127,194.522447 822.211642,192.886962 820.193769,192.886962 C818.175896,192.886962 816.54041,194.522447 816.54041,196.54032 C816.54041,198.558193 818.175896,200.193679 820.193769,200.193679 C822.211642,200.193679 823.847127,198.558193 823.847127,196.54032" id="Fill-361" fill="#09B9B3" mask="url(#mask-2)"></path>
                    <path d="M823.847127,178.213422 C823.847127,176.195549 822.211642,174.560064 820.193769,174.560064 C818.175896,174.560064 816.54041,176.195549 816.54041,178.213422 C816.54041,180.231295 818.175896,181.866781 820.193769,181.866781 C822.211642,181.866781 823.847127,180.231295 823.847127,178.213422" id="Fill-362" fill="#09B9B3" mask="url(#mask-2)"></path>
                    <path d="M823.847127,159.886241 C823.847127,157.868368 822.211642,156.232882 820.193769,156.232882 C818.175896,156.232882 816.54041,157.868368 816.54041,159.886241 C816.54041,161.904114 818.175896,163.539599 820.193769,163.539599 C822.211642,163.539599 823.847127,161.904114 823.847127,159.886241" id="Fill-363" fill="#09B9B3" mask="url(#mask-2)"></path>
                    <path d="M823.847127,141.559399 C823.847127,139.541526 822.211642,137.906041 820.193769,137.906041 C818.175896,137.906041 816.54041,139.541526 816.54041,141.559399 C816.54041,143.577272 818.175896,145.212758 820.193769,145.212758 C822.211642,145.212758 823.847127,143.577272 823.847127,141.559399" id="Fill-364" fill="#09B9B3" mask="url(#mask-2)"></path>
                    <path d="M802.055685,159.886241 C802.055685,157.868368 800.4202,156.232882 798.402327,156.232882 C796.384454,156.232882 794.748968,157.868368 794.748968,159.886241 C794.748968,161.904114 796.384454,163.539599 798.402327,163.539599 C800.4202,163.539599 802.055685,161.904114 802.055685,159.886241" id="Fill-365" fill="#09B9B3" mask="url(#mask-2)"></path>
                    <path d="M802.055685,141.559399 C802.055685,139.541526 800.4202,137.906041 798.402327,137.906041 C796.384454,137.906041 794.748968,139.541526 794.748968,141.559399 C794.748968,143.577272 796.384454,145.212758 798.402327,145.212758 C800.4202,145.212758 802.055685,143.577272 802.055685,141.559399" id="Fill-366" fill="#09B9B3" mask="url(#mask-2)"></path>
                    <path d="M318.134164,245.694959 C319.539084,245.730082 320.637527,246.886308 320.601838,248.291228 C320.566715,249.696715 319.411055,250.794592 318.005002,250.759469 C316.600082,250.723779 315.502205,249.568119 315.537328,248.162633 C315.573017,246.757146 316.729244,245.659836 318.134164,245.694959 M314.523859,248.137707 C314.47684,250.0876 316.027917,251.720819 317.980642,251.772937 C319.930535,251.820523 321.563755,250.26888 321.615873,248.316721 C321.664592,246.363429 320.112948,244.729643 318.159656,244.680924 C316.206364,244.632771 314.572578,246.183848 314.523859,248.137707 M318.238966,241.641085 C323.837686,241.785542 328.246755,246.428576 328.110229,252.026729 C328.01619,255.87723 325.78248,259.168028 322.581755,260.802947 C322.416904,260.888489 322.309269,261.055606 322.302471,261.240285 L321.758631,282.610365 L317.641875,286.955986 L312.881009,280.561334 L315.65346,277.922011 C315.658559,277.919745 315.663657,277.918045 315.667056,277.910681 C315.865331,277.714672 315.869863,277.396299 315.673854,277.197457 L313.063989,274.453898 L315.810947,271.845165 C315.81208,271.841766 315.817745,271.8395 315.818878,271.836101 C316.022252,271.638393 316.023385,271.317754 315.827942,271.119479 L313.004506,268.148753 L313.186353,261.011986 C313.192584,260.82674 313.098545,260.654524 312.942758,260.559919 C309.825875,258.765813 307.753618,255.364547 307.848223,251.514613 C307.992681,245.915327 312.635148,241.498327 318.238966,241.641085 M306.837587,251.49082 C306.731085,255.597945 308.897381,259.221846 312.163254,261.236886 L311.985373,268.345895 C311.981974,268.482421 312.033525,268.616115 312.13153,268.711287 L314.741962,271.455413 L311.994437,274.064146 C311.993304,274.067545 311.987639,274.069244 311.985373,274.076609 C311.786531,274.272051 311.781999,274.590991 311.978008,274.789832 L314.583908,277.532259 L311.840915,280.142124 C311.651138,280.316606 311.618847,280.611753 311.777467,280.819092 L317.169414,288.05273 C317.188109,288.077656 317.205104,288.096917 317.228897,288.119577 C317.434536,288.305389 317.755175,288.294626 317.946086,288.087287 L322.632174,283.138909 C322.716016,283.048836 322.765301,282.932137 322.765868,282.811472 L323.305742,261.51957 C326.676984,259.676179 329.018895,256.168411 329.122564,252.056187 C329.277219,245.907396 324.41155,240.785103 318.262759,240.630449 C312.115101,240.472395 306.991675,245.341463 306.837587,251.49082 M318.134164,245.694959 C319.539084,245.730082 320.637527,246.886308 320.601838,248.291228 C320.566715,249.696715 319.411055,250.794592 318.005002,250.759469 C316.600082,250.723779 315.502205,249.568119 315.537328,248.162633 C315.573017,246.757146 316.729244,245.659836 318.134164,245.694959 M314.523859,248.137707 C314.47684,250.0876 316.027917,251.720819 317.980642,251.772937 C319.930535,251.820523 321.563755,250.26888 321.615873,248.316721 C321.664592,246.363429 320.112948,244.729643 318.159656,244.680924 C316.206364,244.632771 314.572578,246.183848 314.523859,248.137707 M318.134164,245.694959 C319.539084,245.730082 320.637527,246.886308 320.601838,248.291228 C320.566715,249.696715 319.411055,250.794592 318.005002,250.759469 C316.600082,250.723779 315.502205,249.568119 315.537328,248.162633 C315.573017,246.757146 316.729244,245.659836 318.134164,245.694959 M314.523859,248.137707 C314.47684,250.0876 316.027917,251.720819 317.980642,251.772937 C319.930535,251.820523 321.563755,250.26888 321.615873,248.316721 C321.664592,246.363429 320.112948,244.729643 318.159656,244.680924 C316.206364,244.632771 314.572578,246.183848 314.523859,248.137707" id="Fill-367" fill="#FFFFFF" mask="url(#mask-2)"></path>
                    <path d="M318.134164,245.694959 C319.539084,245.730082 320.637527,246.886308 320.601838,248.291228 C320.566715,249.696715 319.411055,250.794592 318.005002,250.759469 C316.600082,250.723779 315.502205,249.568119 315.537328,248.162633 C315.573017,246.757146 316.729244,245.659836 318.134164,245.694959 Z M314.523859,248.137707 C314.47684,250.0876 316.027917,251.720819 317.980642,251.772937 C319.930535,251.820523 321.563755,250.26888 321.615873,248.316721 C321.664592,246.363429 320.112948,244.729643 318.159656,244.680924 C316.206364,244.632771 314.572578,246.183848 314.523859,248.137707 Z M318.238966,241.641085 C323.837686,241.785542 328.246755,246.428576 328.110229,252.026729 C328.01619,255.87723 325.78248,259.168028 322.581755,260.802947 C322.416904,260.888489 322.309269,261.055606 322.302471,261.240285 L321.758631,282.610365 L317.641875,286.955986 L312.881009,280.561334 L315.65346,277.922011 C315.658559,277.919745 315.663657,277.918045 315.667056,277.910681 C315.865331,277.714672 315.869863,277.396299 315.673854,277.197457 L313.063989,274.453898 L315.810947,271.845165 C315.81208,271.841766 315.817745,271.8395 315.818878,271.836101 C316.022252,271.638393 316.023385,271.317754 315.827942,271.119479 L313.004506,268.148753 L313.186353,261.011986 C313.192584,260.82674 313.098545,260.654524 312.942758,260.559919 C309.825875,258.765813 307.753618,255.364547 307.848223,251.514613 C307.992681,245.915327 312.635148,241.498327 318.238966,241.641085 Z M306.837587,251.49082 C306.731085,255.597945 308.897381,259.221846 312.163254,261.236886 L311.985373,268.345895 C311.981974,268.482421 312.033525,268.616115 312.13153,268.711287 L314.741962,271.455413 L311.994437,274.064146 C311.993304,274.067545 311.987639,274.069244 311.985373,274.076609 C311.786531,274.272051 311.781999,274.590991 311.978008,274.789832 L314.583908,277.532259 L311.840915,280.142124 C311.651138,280.316606 311.618847,280.611753 311.777467,280.819092 L317.169414,288.05273 C317.188109,288.077656 317.205104,288.096917 317.228897,288.119577 C317.434536,288.305389 317.755175,288.294626 317.946086,288.087287 L322.632174,283.138909 C322.716016,283.048836 322.765301,282.932137 322.765868,282.811472 L323.305742,261.51957 C326.676984,259.676179 329.018895,256.168411 329.122564,252.056187 C329.277219,245.907396 324.41155,240.785103 318.262759,240.630449 C312.115101,240.472395 306.991675,245.341463 306.837587,251.49082 Z M318.134164,245.694959 C319.539084,245.730082 320.637527,246.886308 320.601838,248.291228 C320.566715,249.696715 319.411055,250.794592 318.005002,250.759469 C316.600082,250.723779 315.502205,249.568119 315.537328,248.162633 C315.573017,246.757146 316.729244,245.659836 318.134164,245.694959 Z M314.523859,248.137707 C314.47684,250.0876 316.027917,251.720819 317.980642,251.772937 C319.930535,251.820523 321.563755,250.26888 321.615873,248.316721 C321.664592,246.363429 320.112948,244.729643 318.159656,244.680924 C316.206364,244.632771 314.572578,246.183848 314.523859,248.137707 Z M318.134164,245.694959 C319.539084,245.730082 320.637527,246.886308 320.601838,248.291228 C320.566715,249.696715 319.411055,250.794592 318.005002,250.759469 C316.600082,250.723779 315.502205,249.568119 315.537328,248.162633 C315.573017,246.757146 316.729244,245.659836 318.134164,245.694959 Z M314.523859,248.137707 C314.47684,250.0876 316.027917,251.720819 317.980642,251.772937 C319.930535,251.820523 321.563755,250.26888 321.615873,248.316721 C321.664592,246.363429 320.112948,244.729643 318.159656,244.680924 C316.206364,244.632771 314.572578,246.183848 314.523859,248.137707 Z" id="Stroke-368" stroke="#FFFFFF" stroke-width="1.6995" mask="url(#mask-2)"></path>
                    <path d="M318.159656,244.681207 C320.112948,244.729926 321.664592,246.363146 321.616439,248.317004 C321.563755,250.268597 319.930535,251.820807 317.980642,251.773221 C316.027917,251.721103 314.47684,250.087317 314.523859,248.137424 C314.572578,246.183565 316.206364,244.632488 318.159656,244.681207 Z M307.848223,251.514897 C307.753618,255.364831 309.825875,258.76553 312.942758,260.559636 C313.098545,260.654241 313.192584,260.827024 313.186353,261.011703 L313.004506,268.149036 L315.827942,271.119196 C316.023385,271.318037 316.022818,271.63811 315.818878,271.836385 C315.817745,271.839784 315.81208,271.841483 315.810947,271.845449 L313.063989,274.454181 L315.673854,277.197741 C315.869863,277.396582 315.865331,277.714955 315.667056,277.910964 C315.663657,277.917762 315.658559,277.920028 315.65346,277.922294 L312.881009,280.561618 L317.641875,286.95627 L321.759197,282.610082 L322.302471,261.240002 C322.309269,261.055323 322.416904,260.888206 322.581755,260.803231 C325.78248,259.167745 328.01619,255.877513 328.110229,252.027013 C328.246755,246.428293 323.837686,241.785826 318.238966,241.640802 C312.635148,241.49861 307.992681,245.915611 307.848223,251.514897 Z" id="Stroke-370" stroke="#FFFFFF" stroke-width="1.6995" mask="url(#mask-2)"></path>
                    <path d="M845.940118,248.162916 C845.975241,249.567836 844.877364,250.724063 843.472444,250.759186 C842.066391,250.794875 840.910731,249.696998 840.875608,248.291512 C840.839918,246.886025 841.938362,245.730365 843.343282,245.695242 C844.748202,245.659553 845.904995,246.75743 845.940118,248.162916 M843.317789,244.681207 C841.364497,244.729926 839.812854,246.363146 839.861573,248.317004 C839.913691,250.268597 841.54691,251.820807 843.49737,251.773221 C845.449529,251.721103 847.000606,250.087317 846.953586,248.137424 C846.904867,246.183565 845.271081,244.632488 843.317789,244.681207 M853.629222,251.514897 C853.723828,255.364831 851.651571,258.76553 848.534688,260.559636 C848.3789,260.654241 848.284861,260.827024 848.291093,261.011703 L848.472939,268.149036 L845.649503,271.119196 C845.454061,271.318037 845.454627,271.63811 845.658567,271.836385 C845.6597,271.839784 845.665365,271.841483 845.666498,271.845449 L848.413457,274.454181 L845.803591,277.197741 C845.607582,277.396582 845.612114,277.714955 845.810389,277.910964 C845.813788,277.917762 845.818887,277.920028 845.823985,277.922294 L848.596436,280.561618 L843.835004,286.95627 L839.718815,282.610082 L839.174975,261.240002 C839.168177,261.055323 839.060542,260.888206 838.89569,260.803231 C835.694965,259.167745 833.461256,255.877513 833.367217,252.027013 C833.23069,246.428293 837.639193,241.785826 843.238479,241.640802 C848.842297,241.49861 853.484765,245.915611 853.629222,251.514897 M843.214686,240.630732 C837.065895,240.78482 832.200227,245.907113 832.354881,252.055904 C832.458551,256.168128 834.800462,259.676462 838.171703,261.519287 L838.711578,282.811756 C838.712144,282.931854 838.76143,283.049119 838.845272,283.138626 L843.53136,288.08757 C843.72227,288.294343 844.042909,288.305673 844.248549,288.119861 C844.272342,288.097201 844.289337,288.077373 844.308031,288.053014 L849.699978,280.819375 C849.858598,280.61147 849.826308,280.31689 849.63653,280.142408 L846.893537,277.531976 L849.499437,274.789549 C849.695446,274.590708 849.690914,274.272335 849.492639,274.076892 C849.489807,274.069528 849.484142,274.067828 849.483009,274.063863 L846.735484,271.45513 L849.345916,268.711571 C849.44392,268.616399 849.495472,268.482138 849.492639,268.345612 L849.314192,261.236603 C852.580064,259.221563 854.74636,255.598229 854.639858,251.491104 C854.48577,245.341746 849.362344,240.472679 843.214686,240.630732 M845.940118,248.162916 C845.975241,249.567836 844.877364,250.724063 843.472444,250.759186 C842.066391,250.794875 840.910731,249.696998 840.875608,248.291512 C840.839918,246.886025 841.938362,245.730365 843.343282,245.695242 C844.748202,245.659553 845.904995,246.75743 845.940118,248.162916 M843.317789,244.681207 C841.364497,244.729926 839.812854,246.363146 839.861573,248.317004 C839.913691,250.268597 841.54691,251.820807 843.49737,251.773221 C845.449529,251.721103 847.000606,250.087317 846.953586,248.137424 C846.904867,246.183565 845.271081,244.632488 843.317789,244.681207 M845.940118,248.162916 C845.975241,249.567836 844.877364,250.724063 843.472444,250.759186 C842.066391,250.794875 840.910731,249.696998 840.875608,248.291512 C840.839918,246.886025 841.938362,245.730365 843.343282,245.695242 C844.748202,245.659553 845.904995,246.75743 845.940118,248.162916 M843.317789,244.681207 C841.364497,244.729926 839.812854,246.363146 839.861573,248.317004 C839.913691,250.268597 841.54691,251.820807 843.49737,251.773221 C845.449529,251.721103 847.000606,250.087317 846.953586,248.137424 C846.904867,246.183565 845.271081,244.632488 843.317789,244.681207" id="Fill-371" fill="#FFFFFF" mask="url(#mask-2)"></path>
                    <path d="M845.940118,248.162916 C845.975241,249.567836 844.877364,250.724063 843.472444,250.759186 C842.066391,250.794875 840.910731,249.696998 840.875608,248.291512 C840.839918,246.886025 841.938362,245.730365 843.343282,245.695242 C844.748202,245.659553 845.904995,246.75743 845.940118,248.162916 Z M843.317789,244.681207 C841.364497,244.729926 839.812854,246.363146 839.861573,248.317004 C839.913691,250.268597 841.54691,251.820807 843.49737,251.773221 C845.449529,251.721103 847.000606,250.087317 846.953586,248.137424 C846.904867,246.183565 845.271081,244.632488 843.317789,244.681207 Z M853.629222,251.514897 C853.723828,255.364831 851.651571,258.76553 848.534688,260.559636 C848.3789,260.654241 848.284861,260.827024 848.291093,261.011703 L848.472939,268.149036 L845.649503,271.119196 C845.454061,271.318037 845.454627,271.63811 845.658567,271.836385 C845.6597,271.839784 845.665365,271.841483 845.666498,271.845449 L848.413457,274.454181 L845.803591,277.197741 C845.607582,277.396582 845.612114,277.714955 845.810389,277.910964 C845.813788,277.917762 845.818887,277.920028 845.823985,277.922294 L848.596436,280.561618 L843.835004,286.95627 L839.718815,282.610082 L839.174975,261.240002 C839.168177,261.055323 839.060542,260.888206 838.89569,260.803231 C835.694965,259.167745 833.461256,255.877513 833.367217,252.027013 C833.23069,246.428293 837.639193,241.785826 843.238479,241.640802 C848.842297,241.49861 853.484765,245.915611 853.629222,251.514897 Z M843.214686,240.630732 C837.065895,240.78482 832.200227,245.907113 832.354881,252.055904 C832.458551,256.168128 834.800462,259.676462 838.171703,261.519287 L838.711578,282.811756 C838.712144,282.931854 838.76143,283.049119 838.845272,283.138626 L843.53136,288.08757 C843.72227,288.294343 844.042909,288.305673 844.248549,288.119861 C844.272342,288.097201 844.289337,288.077373 844.308031,288.053014 L849.699978,280.819375 C849.858598,280.61147 849.826308,280.31689 849.63653,280.142408 L846.893537,277.531976 L849.499437,274.789549 C849.695446,274.590708 849.690914,274.272335 849.492639,274.076892 C849.489807,274.069528 849.484142,274.067828 849.483009,274.063863 L846.735484,271.45513 L849.345916,268.711571 C849.44392,268.616399 849.495472,268.482138 849.492639,268.345612 L849.314192,261.236603 C852.580064,259.221563 854.74636,255.598229 854.639858,251.491104 C854.48577,245.341746 849.362344,240.472679 843.214686,240.630732 Z M845.940118,248.162916 C845.975241,249.567836 844.877364,250.724063 843.472444,250.759186 C842.066391,250.794875 840.910731,249.696998 840.875608,248.291512 C840.839918,246.886025 841.938362,245.730365 843.343282,245.695242 C844.748202,245.659553 845.904995,246.75743 845.940118,248.162916 Z M843.317789,244.681207 C841.364497,244.729926 839.812854,246.363146 839.861573,248.317004 C839.913691,250.268597 841.54691,251.820807 843.49737,251.773221 C845.449529,251.721103 847.000606,250.087317 846.953586,248.137424 C846.904867,246.183565 845.271081,244.632488 843.317789,244.681207 Z M845.940118,248.162916 C845.975241,249.567836 844.877364,250.724063 843.472444,250.759186 C842.066391,250.794875 840.910731,249.696998 840.875608,248.291512 C840.839918,246.886025 841.938362,245.730365 843.343282,245.695242 C844.748202,245.659553 845.904995,246.75743 845.940118,248.162916 Z M843.317789,244.681207 C841.364497,244.729926 839.812854,246.363146 839.861573,248.317004 C839.913691,250.268597 841.54691,251.820807 843.49737,251.773221 C845.449529,251.721103 847.000606,250.087317 846.953586,248.137424 C846.904867,246.183565 845.271081,244.632488 843.317789,244.681207 Z" id="Stroke-372" stroke="#FFFFFF" stroke-width="1.6995" mask="url(#mask-2)"></path>
                    <path d="M846.953586,248.137424 C847.000606,250.087317 845.449529,251.721103 843.496803,251.773221 C841.54691,251.82024 839.913691,250.268597 839.861006,248.317004 C839.812854,246.363146 841.364497,244.729926 843.317789,244.681207 C845.271081,244.632488 846.904867,246.183565 846.953586,248.137424 Z M843.238479,241.640802 C837.639193,241.785826 833.23069,246.428293 833.367217,252.027013 C833.461256,255.877513 835.694965,259.167745 838.89569,260.803231 C839.060542,260.888206 839.168177,261.055323 839.174975,261.240002 L839.718815,282.610082 L843.835004,286.955703 L848.596436,280.561618 L845.823985,277.922294 C845.818887,277.920028 845.813788,277.917762 845.810389,277.910964 C845.612114,277.714955 845.607582,277.396016 845.803591,277.197741 L848.413457,274.454181 L845.666498,271.845449 C845.665365,271.841483 845.6597,271.839784 845.658567,271.835818 C845.454627,271.63811 845.454061,271.318037 845.649503,271.119196 L848.472939,268.149036 L848.291093,261.011703 C848.284861,260.827024 848.3789,260.654241 848.534688,260.559636 C851.651571,258.76553 853.723828,255.364831 853.629222,251.51433 C853.484765,245.915611 848.842297,241.49861 843.238479,241.640802 Z" id="Stroke-374" stroke="#FFFFFF" stroke-width="1.6995" mask="url(#mask-2)"></path>
                    <path d="M365.052997,159.886241 C365.052997,157.868368 363.416945,156.232882 361.399638,156.232882 C359.381765,156.232882 357.74628,157.868368 357.74628,159.886241 C357.74628,161.904114 359.381765,163.539599 361.399638,163.539599 C363.416945,163.539599 365.052997,161.904114 365.052997,159.886241" id="Fill-375" fill="#09B9B3" mask="url(#mask-2)"></path>
                    <path d="M365.052997,141.559399 C365.052997,139.541526 363.416945,137.906041 361.399638,137.906041 C359.381765,137.906041 357.74628,139.541526 357.74628,141.559399 C357.74628,143.577272 359.381765,145.212758 361.399638,145.212758 C363.416945,145.212758 365.052997,143.577272 365.052997,141.559399" id="Fill-376" fill="#09B9B3" mask="url(#mask-2)"></path>
                    <path d="M343.261554,214.867445 C343.261554,212.849572 341.625502,211.214087 339.608196,211.214087 C337.590323,211.214087 335.954837,212.849572 335.954837,214.867445 C335.954837,216.885318 337.590323,218.520804 339.608196,218.520804 C341.625502,218.520804 343.261554,216.885318 343.261554,214.867445" id="Fill-377" fill="#09B9B3" mask="url(#mask-2)"></path>
                    <path d="M343.261554,196.54032 C343.261554,194.522447 341.625502,192.886962 339.608196,192.886962 C337.590323,192.886962 335.954837,194.522447 335.954837,196.54032 C335.954837,198.558193 337.590323,200.193679 339.608196,200.193679 C341.625502,200.193679 343.261554,198.558193 343.261554,196.54032" id="Fill-378" fill="#09B9B3" mask="url(#mask-2)"></path>
                    <path d="M343.261554,178.213422 C343.261554,176.195549 341.625502,174.560064 339.608196,174.560064 C337.590323,174.560064 335.954837,176.195549 335.954837,178.213422 C335.954837,180.231295 337.590323,181.866781 339.608196,181.866781 C341.625502,181.866781 343.261554,180.231295 343.261554,178.213422" id="Fill-379" fill="#09B9B3" mask="url(#mask-2)"></path>
                    <path d="M343.261554,159.886241 C343.261554,157.868368 341.625502,156.232882 339.608196,156.232882 C337.590323,156.232882 335.954837,157.868368 335.954837,159.886241 C335.954837,161.904114 337.590323,163.539599 339.608196,163.539599 C341.625502,163.539599 343.261554,161.904114 343.261554,159.886241" id="Fill-380" fill="#09B9B3" mask="url(#mask-2)"></path>
                    <path d="M343.261554,141.559399 C343.261554,139.541526 341.625502,137.906041 339.608196,137.906041 C337.590323,137.906041 335.954837,139.541526 335.954837,141.559399 C335.954837,143.577272 337.590323,145.212758 339.608196,145.212758 C341.625502,145.212758 343.261554,143.577272 343.261554,141.559399" id="Fill-381" fill="#09B9B3" mask="url(#mask-2)"></path>
                    <path d="M360.353936,644.561321 C358.926922,643.134307 356.613903,643.134307 355.187456,644.561321 C353.760442,645.988334 353.760442,648.301354 355.187456,649.727801 C356.613903,651.154814 358.926922,651.154814 360.353936,649.727801 C361.780949,648.301354 361.780949,645.988334 360.353936,644.561321" id="Fill-382" fill="#09B9B3" mask="url(#mask-2)"></path>
                    <path d="M347.394682,631.602067 C345.967668,630.175053 343.654649,630.175053 342.228202,631.602067 C340.801188,633.02908 340.801188,635.3421 342.228202,636.768547 C343.654649,638.19556 345.967668,638.19556 347.394682,636.768547 C348.821695,635.3421 348.821695,633.02908 347.394682,631.602067" id="Fill-383" fill="#FFFFFF" mask="url(#mask-2)"></path>
                    <path d="M334.435994,618.642813 C333.008981,617.215799 330.695395,617.215799 329.268948,618.642813 C327.841934,620.069826 327.841934,622.382846 329.268948,623.809293 C330.695395,625.236306 333.008981,625.236306 334.435994,623.809293 C335.863008,622.382846 335.863008,620.069826 334.435994,618.642813" id="Fill-384" fill="#09B9B3" mask="url(#mask-2)"></path>
                    <path d="M321.47674,605.683559 C320.049727,604.256545 317.736141,604.256545 316.309694,605.683559 C314.88268,607.110572 314.88268,609.423592 316.309694,610.850039 C317.736141,612.277052 320.049727,612.277052 321.47674,610.850039 C322.903754,609.423592 322.903754,607.110572 321.47674,605.683559" id="Fill-385" fill="#FFFFFF" mask="url(#mask-2)"></path>
                    <path d="M308.517486,592.724361 C307.090473,591.297348 304.776887,591.297348 303.35044,592.724361 C301.923426,594.151375 301.923426,596.464961 303.35044,597.891408 C304.776887,599.318421 307.090473,599.318421 308.517486,597.891408 C309.9445,596.464961 309.9445,594.151375 308.517486,592.724361" id="Fill-386" fill="#09B9B3" mask="url(#mask-2)"></path>
                    <path d="M788.607995,644.561321 C790.035008,643.134307 792.348594,643.134307 793.775041,644.561321 C795.202055,645.988334 795.202055,648.301354 793.775041,649.727801 C792.348594,651.154814 790.035008,651.154814 788.607995,649.727801 C787.180981,648.301354 787.180981,645.988334 788.607995,644.561321" id="Fill-387" fill="#09B9B3" mask="url(#mask-2)"></path>
                    <path d="M801.567192,631.602067 C802.994206,630.175053 805.307792,630.175053 806.734239,631.602067 C808.161252,633.02908 808.161252,635.3421 806.734239,636.768547 C805.307792,638.19556 802.994206,638.19556 801.567192,636.768547 C800.140179,635.3421 800.140179,633.02908 801.567192,631.602067" id="Fill-388" fill="#FFFFFF" mask="url(#mask-2)"></path>
                    <path d="M814.526446,618.642813 C815.95346,617.215799 818.266479,617.215799 819.692926,618.642813 C821.11994,620.069826 821.11994,622.382846 819.692926,623.809293 C818.266479,625.236306 815.95346,625.236306 814.526446,623.809293 C813.099433,622.382846 813.099433,620.069826 814.526446,618.642813" id="Fill-389" fill="#09B9B3" mask="url(#mask-2)"></path>
                    <path d="M827.4857,605.683559 C828.912714,604.256545 831.225733,604.256545 832.65218,605.683559 C834.079194,607.110572 834.079194,609.423592 832.65218,610.850039 C831.225733,612.277052 828.912714,612.277052 827.4857,610.850039 C826.058687,609.423592 826.058687,607.110572 827.4857,605.683559" id="Fill-390" fill="#FFFFFF" mask="url(#mask-2)"></path>
                    <path d="M840.444954,592.724361 C841.871968,591.297348 844.184987,591.297348 845.611434,592.724361 C847.038448,594.151375 847.038448,596.464961 845.611434,597.891408 C844.184987,599.318421 841.871968,599.318421 840.444954,597.891408 C839.017941,596.464961 839.017941,594.151375 840.444954,592.724361" id="Fill-391" fill="#09B9B3" mask="url(#mask-2)"></path>
                    <path d="M297.535487,214.867445 C297.535487,212.849572 295.899435,211.214087 293.882129,211.214087 C291.863689,211.214087 290.22877,212.849572 290.22877,214.867445 C290.22877,216.885318 291.863689,218.520804 293.882129,218.520804 C295.899435,218.520804 297.535487,216.885318 297.535487,214.867445" id="Fill-392" fill="#09B9B3" mask="url(#mask-2)"></path>
                    <path d="M297.535487,196.54032 C297.535487,194.522447 295.899435,192.886962 293.882129,192.886962 C291.863689,192.886962 290.22877,194.522447 290.22877,196.54032 C290.22877,198.558193 291.863689,200.193679 293.882129,200.193679 C295.899435,200.193679 297.535487,198.558193 297.535487,196.54032" id="Fill-393" fill="#09B9B3" mask="url(#mask-2)"></path>
                    <path d="M297.535487,178.213422 C297.535487,176.195549 295.899435,174.560064 293.882129,174.560064 C291.863689,174.560064 290.22877,176.195549 290.22877,178.213422 C290.22877,180.231295 291.863689,181.866781 293.882129,181.866781 C295.899435,181.866781 297.535487,180.231295 297.535487,178.213422" id="Fill-394" fill="#09B9B3" mask="url(#mask-2)"></path>
                    <path d="M297.535487,159.886241 C297.535487,157.868368 295.899435,156.232882 293.882129,156.232882 C291.863689,156.232882 290.22877,157.868368 290.22877,159.886241 C290.22877,161.904114 291.863689,163.539599 293.882129,163.539599 C295.899435,163.539599 297.535487,161.904114 297.535487,159.886241" id="Fill-395" fill="#09B9B3" mask="url(#mask-2)"></path>
                    <path d="M297.535487,141.559399 C297.535487,139.541526 295.899435,137.906041 293.882129,137.906041 C291.863689,137.906041 290.22877,139.541526 290.22877,141.559399 C290.22877,143.577272 291.863689,145.212758 293.882129,145.212758 C295.899435,145.212758 297.535487,143.577272 297.535487,141.559399" id="Fill-396" fill="#09B9B3" mask="url(#mask-2)"></path>
                    <path d="M275.744045,159.886241 C275.744045,157.868368 274.107993,156.232882 272.090686,156.232882 C270.072247,156.232882 268.437328,157.868368 268.437328,159.886241 C268.437328,161.904114 270.072247,163.539599 272.090686,163.539599 C274.107993,163.539599 275.744045,161.904114 275.744045,159.886241" id="Fill-397" fill="#09B9B3" mask="url(#mask-2)"></path>
                    <path d="M275.744045,141.559399 C275.744045,139.541526 274.107993,137.906041 272.090686,137.906041 C270.072247,137.906041 268.437328,139.541526 268.437328,141.559399 C268.437328,143.577272 270.072247,145.212758 272.090686,145.212758 C274.107993,145.212758 275.744045,143.577272 275.744045,141.559399" id="Fill-398" fill="#09B9B3" mask="url(#mask-2)"></path>
                    <path d="M957.345855,480.631176 L955.343277,482.63432" id="Stroke-407" stroke="#09B9B3" stroke-width="3.399" mask="url(#mask-2)"></path>
                    <path d="M951.346733,486.630071 L873.420693,564.556678" id="Stroke-408" stroke="#09B9B3" stroke-width="3.399" stroke-dasharray="5.651403708457947,5.651403708457947" mask="url(#mask-2)"></path>
                    <polyline id="Stroke-409" stroke="#09B9B3" stroke-width="3.399" mask="url(#mask-2)" points="871.422647 566.554157 869.42007 568.557301 866.58757 568.536907"></polyline>
                    <path d="M860.965057,568.495949 L841.28768,568.354324" id="Stroke-410" stroke="#09B9B3" stroke-width="3.399" stroke-dasharray="5.622512755393982,5.622512755393982" mask="url(#mask-2)"></path>
                    <polyline id="Stroke-411" stroke="#09B9B3" stroke-width="3.399" mask="url(#mask-2)" points="838.476027 568.333874 835.644093 568.31348 833.640949 570.316624"></polyline>
                    <path d="M829.690292,574.266602 L665.744059,738.212835" id="Stroke-412" stroke="#09B9B3" stroke-width="3.399" stroke-dasharray="5.586823410987854,5.586823410987854" mask="url(#mask-2)"></path>
                    <path d="M404.825262,533.305479 L332.665059,461.140177 C330.342409,458.816394 327.190969,457.511745 323.905836,457.511745 L302.734598,457.511745 C299.449464,457.511745 296.298591,456.205962 293.975375,453.883312 L11.6651981,171.572569 C3.86166055,163.769032 9.38843455,150.426257 20.4244211,150.426257 L198.495199,150.426257 C209.531185,150.426257 215.058526,137.082916 207.254422,129.279379 L148.918518,70.9434748 C141.114414,63.1393708 146.641754,49.7965963 157.677174,49.7965963 L492.666752,49.7965963 C495.951886,49.7965963 499.102759,51.1012458 501.425409,53.4244623 L516.312462,68.3109493 C518.635112,70.6341658 521.785985,71.9388153 525.071685,71.9388153 L629.498596,71.9388153 C632.783729,71.9388153 635.934602,70.6341658 638.257819,68.3109493 L653.144306,53.4244623 C655.466956,51.1012458 658.617829,49.7965963 661.903529,49.7965963 L984.074345,49.7965963 C1000.12839,49.7965963 1008.16759,69.2077188 996.814363,80.5609453 L943.028021,134.353519 C937.0945,140.28704 941.293964,150.426257 949.686662,150.426257 L1134.92593,150.426257 C1145.96192,150.426257 1151.48869,163.769032 1143.68515,171.572569 L1020.75182,294.505902 C1018.4286,296.829118 1015.2783,298.134334 1011.9926,298.134334 L991.057024,298.134334 C987.771324,298.134334 984.621017,299.43955 982.297801,301.7622 L908.626742,375.433259 C906.304092,377.756476 904.998876,380.907349 904.998876,384.192482 L904.998876,405.128056 C904.998876,408.413756 903.693093,411.564629 901.370443,413.887846 L586.434399,728.82389 C581.597055,733.661234 573.753296,733.661234 568.915953,728.82389 L412.081561,571.988932 C409.758344,569.666282 408.453128,566.514842 408.453128,563.229709 L408.453128,542.064702 C408.453128,538.779002 407.148479,535.628696 404.825262,533.305479 Z" id="Stroke-414" stroke="#FFFFFF" stroke-width="3.399" mask="url(#mask-2)"></path>
                    <polygon id="Stroke-415" stroke="#09B9B3" stroke-width="3.399" mask="url(#mask-2)" points="377.777096 465.510215 368.195882 475.091429 358.614667 465.510215 368.195882 455.928434"></polygon>
                    <polygon id="Stroke-416" stroke="#FFFFFF" stroke-width="3.399" mask="url(#mask-2)" points="397.240054 484.973172 387.658839 494.554387 378.077625 484.973172 387.658839 475.391391"></polygon>
                    <polygon id="Stroke-417" stroke="#09B9B3" stroke-width="3.399" mask="url(#mask-2)" points="416.702954 504.435563 407.12174 514.017344 397.540525 504.435563 407.12174 494.854348"></polygon>
                    <polygon id="Stroke-418" stroke="#09B9B3" stroke-width="3.399" mask="url(#mask-2)" points="906.680644 335.852527 916.261859 345.434308 906.680644 355.015523 897.09943 345.434308"></polygon>
                    <polygon id="Stroke-419" stroke="#FFFFFF" stroke-width="3.399" mask="url(#mask-2)" points="926.143545 316.38991 935.724759 325.971125 926.143545 335.552906 916.56233 325.971125"></polygon>
                    <polygon id="Stroke-420" stroke="#09B9B3" stroke-width="3.399" mask="url(#mask-2)" points="945.606502 296.926953 955.187716 306.508734 945.606502 316.089948 936.024721 306.508734"></polygon>
                    <path d="M223.164631,348.448598 L225.167775,350.451176" id="Stroke-421" stroke="#09B9B3" stroke-width="3.399" mask="url(#mask-2)"></path>
                    <path d="M229.060876,354.34456 L310.017125,435.300809 L340.072216,435.300809 L360.498507,455.7271" id="Stroke-422" stroke="#09B9B3" stroke-width="3.399" stroke-dasharray="5.505813422203064,5.505813422203064" mask="url(#mask-2)"></path>
                    <path d="M362.445114,457.674104 L364.447691,459.676681" id="Stroke-423" stroke="#09B9B3" stroke-width="3.399" mask="url(#mask-2)"></path>
                    <path d="M752.58375,530.733513 L754.583495,528.728103" id="Stroke-424" stroke="#09B9B3" stroke-width="3.399" mask="url(#mask-2)"></path>
                    <path d="M758.657593,524.642561 L884.312392,398.632567 L884.312392,371.778201" id="Stroke-425" stroke="#09B9B3" stroke-width="3.399" stroke-dasharray="5.769236106872559,5.769236106872559" mask="url(#mask-2)"></path>
                    <polyline id="Stroke-426" stroke="#09B9B3" stroke-width="3.399" mask="url(#mask-2)" points="884.312165 368.893527 884.312165 366.061027 886.339102 364.082242"></polyline>
                    <path d="M890.217814,360.295586 L896.036336,354.615291" id="Stroke-427" stroke="#09B9B3" stroke-width="3.399" stroke-dasharray="5.420838441848755,5.420838441848755" mask="url(#mask-2)"></path>
                    <path d="M897.975692,352.721991 L900.002629,350.743207" id="Stroke-428" stroke="#09B9B3" stroke-width="3.399" mask="url(#mask-2)"></path>
                    <path d="M354.735389,88.4776695 L492.764813,88.4776695 C495.772928,88.4776695 498.650748,89.6673195 500.781355,91.7973595 L568.90298,159.918984 C573.74089,164.756895 581.586348,164.756895 586.424258,159.918984 L654.545883,91.7973595 C656.670258,89.6673195 659.553743,88.4776695 662.556193,88.4776695 L806.664163,88.4776695" id="Stroke-429" stroke="#FFFFFF" stroke-width="3.399" mask="url(#mask-2)"></path>
                    <g id="Group-432" mask="url(#mask-2)">
                        <g transform="translate(518.347500, 83.275500)">
                            <path d="M0.0505318,0.6120466 L118.186176,0.6120466" id="Fill-430" stroke="none" fill="#FFFFFF" fill-rule="evenodd"></path>
                            <path d="M0.0505318,0.6120466 L118.186176,0.6120466" id="Stroke-431" stroke="#FFFFFF" stroke-width="3.399" fill="none"></path>
                        </g>
                    </g>
                    <g id="Group-435" mask="url(#mask-2)">
                        <g transform="translate(516.081500, 88.374000)">
                            <path d="M0.15233185,0.4164908 L56.7706078,57.8425958" id="Fill-433" stroke="none" fill="#FFFFFF" fill-rule="evenodd"></path>
                            <path d="M0.15233185,0.4164908 L56.7706078,57.8425958" id="Stroke-434" stroke="#FFFFFF" stroke-width="3.399" fill="none"></path>
                        </g>
                    </g>
                    <g id="Group-438" mask="url(#mask-2)">
                        <g transform="translate(581.795500, 88.374000)">
                            <path d="M56.9029423,0.4164908 L0.28466625,57.8425958" id="Fill-436" stroke="none" fill="#FFFFFF" fill-rule="evenodd"></path>
                            <path d="M56.9029423,0.4164908 L0.28466625,57.8425958" id="Stroke-437" stroke="#FFFFFF" stroke-width="3.399" fill="none"></path>
                        </g>
                    </g>
                    <path d="M577.413623,154.51888 C574.706319,154.489988 572.534925,152.271574 572.56325,149.563704 C572.592141,146.856401 574.810555,144.685006 577.518992,144.713331 C580.226295,144.742789 582.397689,146.961203 582.368798,149.668507 C582.339907,152.376377 580.120926,154.547771 577.413623,154.51888" id="Fill-439" fill="#FFFFFF" mask="url(#mask-2)"></path>
                    <path d="M577.413623,154.51888 C574.706319,154.489988 572.534925,152.271574 572.56325,149.563704 C572.592141,146.856401 574.810555,144.685006 577.518992,144.713331 C580.226295,144.742789 582.397689,146.961203 582.368798,149.668507 C582.339907,152.376377 580.120926,154.547771 577.413623,154.51888 Z" id="Stroke-440" stroke="#EF442E" stroke-width="3.399" mask="url(#mask-2)"></path>
                    <path d="M641.384332,88.7902076 C638.677029,88.7613161 636.505068,86.542902 636.533959,83.835032 C636.562851,81.1277285 638.781265,78.9557676 641.489701,78.9846591 C644.197005,79.014117 646.368399,81.2325311 646.339508,83.9398346 C646.310616,86.6477046 644.091636,88.819099 641.384332,88.7902076" id="Fill-441" fill="#FFFFFF" mask="url(#mask-2)"></path>
                    <path d="M641.384332,88.7902076 C638.677029,88.7613161 636.505068,86.542902 636.533959,83.835032 C636.562851,81.1277285 638.781265,78.9557676 641.489701,78.9846591 C644.197005,79.014117 646.368399,81.2325311 646.339508,83.9398346 C646.310616,86.6477046 644.091636,88.819099 641.384332,88.7902076 Z" id="Stroke-442" stroke="#EF442E" stroke-width="3.399" mask="url(#mask-2)"></path>
                    <path d="M513.4428,88.7902076 C510.735496,88.7613161 508.564102,86.542902 508.592427,83.835032 C508.621318,81.1277285 510.839732,78.9557676 513.548169,78.9846591 C516.255472,79.014117 518.426867,81.2325311 518.397975,83.9398346 C518.369084,86.6477046 516.15067,88.819099 513.4428,88.7902076" id="Fill-443" fill="#FFFFFF" mask="url(#mask-2)"></path>
                    <path d="M513.4428,88.7902076 C510.735496,88.7613161 508.564102,86.542902 508.592427,83.835032 C508.621318,81.1277285 510.839732,78.9557676 513.548169,78.9846591 C516.255472,79.014117 518.426867,81.2325311 518.397975,83.9398346 C518.369084,86.6477046 516.15067,88.819099 513.4428,88.7902076 Z" id="Stroke-444" stroke="#EF442E" stroke-width="3.399" mask="url(#mask-2)"></path>
                    <path d="M952.776806,461.365248 L975.21927,483.807712" id="Stroke-452" stroke="#FFFFFF" stroke-width="3.399" mask="url(#mask-2)"></path>
                    <path d="M960.300096,453.841675 L982.74256,476.284139" id="Stroke-453" stroke="#09B9B3" stroke-width="3.399" mask="url(#mask-2)"></path>
                    <path d="M967.823896,446.318101 L990.26636,468.760565" id="Stroke-454" stroke="#FFFFFF" stroke-width="3.399" mask="url(#mask-2)"></path>
                    <path d="M975.347185,438.794585 L997.789649,461.237049" id="Stroke-455" stroke="#09B9B3" stroke-width="3.399" mask="url(#mask-2)"></path>
                    <path d="M982.870985,431.271012 L1005.31345,453.713476" id="Stroke-456" stroke="#FFFFFF" stroke-width="3.399" mask="url(#mask-2)"></path>
                    <path d="M990.394275,423.747438 L1012.83674,446.189902" id="Stroke-457" stroke="#09B9B3" stroke-width="3.399" mask="url(#mask-2)"></path>
                    <path d="M997.918075,416.223922 L1020.36054,438.666386" id="Stroke-458" stroke="#FFFFFF" stroke-width="3.399" mask="url(#mask-2)"></path>
                    <polygon id="Stroke-459" stroke="#09B9B3" stroke-width="3.399" mask="url(#mask-2)" points="1027.22397 433.072595 969.625082 490.670916 946.264888 467.310722 1003.86378 409.712401"></polygon>
                    <path d="M200.104115,461.365248 L177.661651,483.807712" id="Stroke-460" stroke="#FFFFFF" stroke-width="3.399" mask="url(#mask-2)"></path>
                    <path d="M192.580259,453.841675 L170.137795,476.284139" id="Stroke-461" stroke="#09B9B3" stroke-width="3.399" mask="url(#mask-2)"></path>
                    <path d="M185.057025,446.318101 L162.614561,468.760565" id="Stroke-462" stroke="#FFFFFF" stroke-width="3.399" mask="url(#mask-2)"></path>
                    <path d="M177.533169,438.794585 L155.090705,461.237049" id="Stroke-463" stroke="#09B9B3" stroke-width="3.399" mask="url(#mask-2)"></path>
                    <path d="M170.009879,431.271012 L147.567415,453.713476" id="Stroke-464" stroke="#FFFFFF" stroke-width="3.399" mask="url(#mask-2)"></path>
                    <path d="M162.486079,423.747438 L140.043615,446.189902" id="Stroke-465" stroke="#09B9B3" stroke-width="3.399" mask="url(#mask-2)"></path>
                    <path d="M154.962789,416.223922 L132.520325,438.666386" id="Stroke-466" stroke="#FFFFFF" stroke-width="3.399" mask="url(#mask-2)"></path>
                    <polygon id="Stroke-467" stroke="#09B9B3" stroke-width="3.399" mask="url(#mask-2)" points="125.656951 433.072595 183.255272 490.670916 206.616033 467.310722 149.017145 409.712401"></polygon>
                    <path d="M480.362315,736.238016 L316.416082,572.291783" id="Stroke-469" stroke="#09B9B3" stroke-width="3.399" stroke-dasharray="5.586823410987854,5.586823410987854" mask="url(#mask-2)"></path>
                    <polyline id="Stroke-470" stroke="#09B9B3" stroke-width="3.399" mask="url(#mask-2)" points="314.440867 570.316624 312.437723 568.31348 309.605789 568.333874"></polyline>
                    <path d="M303.983277,568.374265 L284.305899,568.516457" id="Stroke-471" stroke="#09B9B3" stroke-width="3.399" stroke-dasharray="5.622512755393982,5.622512755393982" mask="url(#mask-2)"></path>
                    <polyline id="Stroke-472" stroke="#09B9B3" stroke-width="3.399" mask="url(#mask-2)" points="281.494247 568.536907 278.661747 568.557301 276.659169 566.554157"></polyline>
                    <path d="M272.663135,562.558236 L194.736528,484.632196" id="Stroke-473" stroke="#09B9B3" stroke-width="3.399" stroke-dasharray="5.651403708457947,5.651403708457947" mask="url(#mask-2)"></path>
                    <path d="M192.739049,482.63415 L190.735905,480.631006" id="Stroke-474" stroke="#09B9B3" stroke-width="3.399" mask="url(#mask-2)"></path>
                    <path d="M890.324599,515.60513 C887.847861,515.60513 885.840185,513.596888 885.840185,511.12015 C885.840185,508.643412 887.847861,506.635169 890.324599,506.635169 C892.801904,506.635169 894.80958,508.643412 894.80958,511.12015 C894.80958,513.596888 892.801904,515.60513 890.324599,515.60513" id="Fill-482" fill="#FFFFFF" mask="url(#mask-2)"></path>
                    <path d="M890.324599,515.60513 C887.847861,515.60513 885.840185,513.596888 885.840185,511.12015 C885.840185,508.643412 887.847861,506.635169 890.324599,506.635169 C892.801904,506.635169 894.80958,508.643412 894.80958,511.12015 C894.80958,513.596888 892.801904,515.60513 890.324599,515.60513 Z" id="Stroke-483" stroke="#EF442E" stroke-width="3.399" mask="url(#mask-2)"></path>
                    <path d="M857.051562,503.452459 C854.574824,503.452459 852.566581,501.444216 852.566581,498.967478 C852.566581,496.49074 854.574824,494.482498 857.051562,494.482498 C859.5283,494.482498 861.536542,496.49074 861.536542,498.967478 C861.536542,501.444216 859.5283,503.452459 857.051562,503.452459" id="Fill-484" fill="#FFFFFF" mask="url(#mask-2)"></path>
                    <path d="M857.051562,503.452459 C854.574824,503.452459 852.566581,501.444216 852.566581,498.967478 C852.566581,496.49074 854.574824,494.482498 857.051562,494.482498 C859.5283,494.482498 861.536542,496.49074 861.536542,498.967478 C861.536542,501.444216 859.5283,503.452459 857.051562,503.452459 Z" id="Stroke-485" stroke="#EF442E" stroke-width="3.399" mask="url(#mask-2)"></path>
                    <path d="M861.536542,522.03077 C859.059804,522.03077 857.051562,520.022527 857.051562,517.545789 C857.051562,515.069051 859.059804,513.060809 861.536542,513.060809 C864.01328,513.060809 866.021523,515.069051 866.021523,517.545789 C866.021523,520.022527 864.01328,522.03077 861.536542,522.03077" id="Fill-486" fill="#FFFFFF" mask="url(#mask-2)"></path>
                    <path d="M861.536542,522.03077 C859.059804,522.03077 857.051562,520.022527 857.051562,517.545789 C857.051562,515.069051 859.059804,513.060809 861.536542,513.060809 C864.01328,513.060809 866.021523,515.069051 866.021523,517.545789 C866.021523,520.022527 864.01328,522.03077 861.536542,522.03077 Z" id="Stroke-487" stroke="#EF442E" stroke-width="3.399" mask="url(#mask-2)"></path>
                </g>
            </g>
        </g>
    </g>
</svg>