<?xml version="1.0" encoding="UTF-8"?>
<svg width="1440px" height="600px" viewBox="0 0 1440 600" version="1.1" xmlns="http://www.w3.org/2000/svg" xmlns:xlink="http://www.w3.org/1999/xlink">
    <!-- Generator: Sketch 57.1 (83088) - https://sketch.com -->
    <title>One Up 1 - On Light</title>
    <desc>Created with Sketch.</desc>
    <g id="One-Up-1---On-Light" stroke="none" stroke-width="1" fill="none" fill-rule="evenodd">
        <g id="Group-229" transform="translate(224.000000, -0.404596)">
            <g transform="translate(496.490814, 300.500000) rotate(-75.000000) translate(-496.490814, -300.500000) translate(33.490814, -167.000000)">
                <g id="Group-23" transform="translate(58.524691, 89.298014)" stroke="#09B9B3" stroke-width="2.64">
                    <path d="M121.544304,84.1847917 C120.532804,85.1962574 119.526453,86.2132184 118.52525,87.2349877" id="Stroke-1" stroke-linejoin="round"></path>
                    <path d="M112.592993,93.4162283 C42.8506341,167.595649 0.119821734,267.495493 0.119821734,377.382917 C0.119821734,491.821078 46.4627909,595.426768 121.396509,670.436655 C196.364894,745.480887 299.948398,791.901841 414.371117,791.901841 C525.723984,791.901841 626.817351,747.935538 701.257505,676.407222" id="Stroke-3" stroke-linejoin="round" stroke-dasharray="10.97887964248657,10.97887964248657"></path>
                    <path d="M704.331922,673.423244 C705.353376,672.421395 706.369338,671.41405 707.380152,670.402241" id="Stroke-5" stroke-linejoin="round"></path>
                    <path d="M149.775005,108.745103 C217.823865,41.562484 311.288936,0.111278404 414.419376,0.111278404 L414.779768,0.111278404 C518.709934,0.207444926 612.79282,42.3936375 680.913758,110.572267 C749.127025,178.812718 791.303521,273.097124 791.303521,377.238598 L791.303521,377.499622" id="Stroke-7" stroke-dasharray="11.03695983886719,11.03695983886719"></path>
                </g>
                <g id="Group-42" transform="translate(61.786861, 51.864565)" stroke-width="2.64">
                    <path d="M649.043577,175.801914 C587.972907,114.594858 503.618596,76.7404569 410.447688,76.7404569 C317.293921,76.7404569 232.957093,114.581109 171.886423,175.764105 C110.757478,237.012408 72.9426838,321.651178 72.9426838,415.147732 C72.9426838,508.568667 110.699201,593.152441 171.742445,654.386995 C232.823399,715.65936 317.221932,753.558445 410.447688,753.558445 C503.690585,753.558445 588.10283,715.642174 649.187555,654.349186 C710.210231,593.118068 747.949608,508.551481 747.949608,415.147732 C747.949608,321.671801 710.151954,237.046781 649.043577,175.801914 Z" id="Stroke-24" stroke="#01244A"></path>
                    <path d="M9.2778396,239.158866 C9.29292301,239.12415 9.30800642,239.089777 9.32343263,239.055061 C57.9677718,127.955334 146.8879,47.1267526 251.337084,6.21354571" id="Stroke-26" stroke="#01244A"></path>
                    <polygon id="Stroke-28" stroke="#09B9B3" stroke-linecap="round" stroke-linejoin="round" points="261.173867 2.31326721 257.142826 7.10307085 253.111442 11.8932182 250.989823 5.99765223 248.868547 0.102086235 255.021207 1.20784858"></polygon>
                    <path d="M239.893199,817.651895 C225.939331,811.7223 212.361519,805.086695 199.196102,797.787701" id="Stroke-32" stroke="#01244A"></path>
                    <path d="M356.751298,848.919087 C320.95871,844.556533 286.508888,835.845518 253.931465,823.327409" id="Stroke-34" stroke="#01244A"></path>
                </g>
                <g id="Group-85" transform="translate(96.882427, 33.159270)" stroke="#01244A" stroke-width="2.64">
                    <path d="M0.136510588,434.749576 C0.208466471,538.838836 42.3129371,633.062106 110.335231,701.283508 C178.419202,769.573292 272.479246,811.802103 376.366408,811.802103 C376.609687,811.802103 376.852966,811.802103 377.096246,811.802103" id="Stroke-43"></path>
                    <path d="M429.382954,755.839496 L425.783446,733.049889" id="Stroke-45"></path>
                    <path d="M478.94363,743.795952 L471.833703,721.851334" id="Stroke-47"></path>
                    <path d="M526.01542,724.125449 L515.570167,703.566352" id="Stroke-49"></path>
                    <path d="M569.439596,697.312165 L555.915659,678.645099" id="Stroke-51"></path>
                    <path d="M608.146344,664.016522 L591.877805,647.700923" id="Stroke-53"></path>
                    <path d="M641.183003,625.058357 L622.56973,611.495929" id="Stroke-55"></path>
                    <path d="M667.736129,581.396776 L647.23624,570.921873" id="Stroke-57"></path>
                    <path d="M687.151573,534.107244 L665.270132,526.977244" id="Stroke-59"></path>
                    <path d="M698.951481,484.353911 L676.227128,480.744411" id="Stroke-61"></path>
                    <path d="M326.353746,112.258777 L329.95291,135.048383" id="Stroke-63"></path>
                    <path d="M276.79307,124.302458 L283.902996,146.246732" id="Stroke-65"></path>
                    <path d="M229.721279,143.972995 L240.166532,164.531749" id="Stroke-67"></path>
                    <path d="M186.297103,170.786108 L199.820697,189.453173" id="Stroke-69"></path>
                    <path d="M147.590218,204.081716 L163.8591,220.397315" id="Stroke-71"></path>
                    <path d="M114.553525,243.039882 L133.167141,256.602309" id="Stroke-73"></path>
                    <path d="M88.0003994,286.701324 L108.50063,297.176571" id="Stroke-75"></path>
                    <path d="M68.5849549,333.990857 L90.466396,341.1212" id="Stroke-77"></path>
                    <path d="M56.7850468,383.74419 L79.5093997,387.354033" id="Stroke-79"></path>
                    <path d="M693.836857,134.431875 C690.740698,131.124427 687.5928,127.868867 684.393161,124.660041 C631.991461,72.0982463 566.312873,32.8511215 492.842491,12.4085146" id="Stroke-81"></path>
                    <path d="M481.24077,9.35521591 C465.623602,5.46909319 449.673039,2.42967719 433.44596,0.289199831" id="Stroke-83"></path>
                </g>
                <g id="Group-206" transform="translate(85.600219, 150.238592)" stroke-width="2.64">
                    <path d="M582.442664,64.1657212 C593.260443,72.5299507 603.526366,81.5771845 613.175304,91.2422113 C625.964004,104.047685 637.672982,117.934297 648.14765,132.754462" id="Stroke-88" stroke="#09B9B3"></path>
                    <path d="M512.061935,22.9245785 C522.252105,27.2491288 532.168746,32.0885066 541.783408,37.4118221" id="Stroke-90" stroke="#09B9B3"></path>
                    <path d="M426.719216,0.121156053 C452.859099,3.3027895 478.017978,9.65575984 501.809552,18.7853661" id="Stroke-92" stroke="#09B9B3"></path>
                    <path d="M155.524265,535.466095 C157.786538,537.878919 160.086516,540.25399 162.424198,542.595082 C200.711461,580.939084 248.699077,609.570353 302.380081,624.483188" id="Stroke-98" stroke="#09B9B3"></path>
                    <path d="M109.185229,472.042789 C107.649625,469.286746 106.158581,466.506678 104.705242,463.702585" id="Stroke-100" stroke="#09B9B3"></path>
                    <path d="M73.2323242,368.641555 C78.411559,400.478483 88.297008,430.729399 102.144863,458.660502" id="Stroke-104" stroke="#09B9B3"></path>
                    <path d="M111.982256,476.961141 C122.772614,495.573868 135.393357,512.992196 149.590836,528.972439" id="Stroke-106" stroke="#09B9B3"></path>
                    <path d="M310.856716,626.71088 C322.267486,629.545863 333.921621,631.763053 345.77799,633.324696" id="Stroke-108" stroke="#09B9B3"></path>
                    <path d="M40.6452023,220.611409 L10.1387893,212.164807" id="Stroke-116" stroke="#09B9B3"></path>
                    <path d="M44.2066033,208.536955 L14.0155374,199.029809" id="Stroke-118" stroke="#01244A"></path>
                    <path d="M48.189644,196.596529 L18.3482021,186.039134" id="Stroke-120" stroke="#09B9B3"></path>
                    <path d="M52.5942559,184.806946 L23.1367149,173.213033" id="Stroke-122" stroke="#01244A"></path>
                    <path d="M57.4067282,173.175245 L28.3742205,160.558541" id="Stroke-124" stroke="#09B9B3"></path>
                    <path d="M62.6235648,161.722016 L34.0435117,148.099683" id="Stroke-126" stroke="#01244A"></path>
                    <path d="M68.2347225,150.46099 L40.1551117,135.850188" id="Stroke-128" stroke="#09B9B3"></path>
                    <path d="M74.2400641,139.405964 L46.6883171,123.823854" id="Stroke-130" stroke="#01244A"></path>
                    <path d="M80.6293067,128.563733 L53.6362727,112.027476" id="Stroke-132" stroke="#09B9B3"></path>
                    <path d="M87.3886024,117.954821 L60.9885582,100.488443" id="Stroke-134" stroke="#01244A"></path>
                    <path d="M94.5114385,107.589698 L68.738661,89.2137912" id="Stroke-136" stroke="#09B9B3"></path>
                    <path d="M96.379425,104.991433 C95.7521583,105.85291 95.1283193,106.721253 94.5113357,107.589595 C92.077678,111.001185 89.702291,114.453961 87.3886024,117.954787 C85.0714861,121.448749 82.8194958,124.983897 80.6292039,128.563664 C78.4354843,132.136566 76.3068908,135.750655 74.2399956,139.405929 C72.1731004,143.050908 70.1713313,146.737072 68.2346882,150.46099 C66.3014728,154.174612 64.4299558,157.92942 62.6235648,161.721982 C60.8171738,165.500815 59.0793366,169.320835 57.4066254,173.175176 C55.7339142,177.019221 54.1297567,180.894155 52.594153,184.806843 C51.0585493,188.702371 49.5914993,192.63222 48.1895754,196.596391 C46.7945069,200.543401 45.467992,204.524733 44.2066033,208.536955 C42.9520699,212.532016 41.7626625,216.557966 40.6452366,220.611374 C39.5312384,224.647621 38.4823662,228.711326 37.5089031,232.802488 C36.5354401,236.873056 35.6339584,240.971083 34.8044582,245.096566 C33.9715303,249.198025 33.2140115,253.326941 32.5250464,257.47645 C32.22341,259.302371 31.9354843,261.131724 31.6612693,262.96451 C31.1059841,266.674699 27.6680142,269.245404 23.9524016,268.734009 L6.18327289,266.290295 C2.39910659,265.768603 -0.229929235,262.254048 0.332211411,258.46835 C0.640703229,256.395312 0.966333481,254.329138 1.30910217,252.269828 C2.0563379,247.753076 2.87898275,243.263781 3.78389208,238.801943 C4.68537373,234.31608 5.66911986,229.854242 6.7282751,225.426727 C7.78743034,220.975186 8.92542238,216.554534 10.1388235,212.164772 C11.3522247,207.754418 12.6444626,203.374952 14.0155374,199.029809 C15.3831844,194.664072 16.8296683,190.332658 18.3481336,186.038997 C19.8700265,181.728175 21.4639009,177.451676 23.1366121,173.21293 C24.8058956,168.960455 26.5540159,164.738871 28.3741176,160.558472 C30.1907917,156.367777 32.0828748,152.214836 34.0435117,148.099648 C36.011004,143.977597 38.04705,139.893299 40.1550774,135.850188 C42.2596771,131.800212 44.439686,127.791423 46.6882486,123.82382 C48.9333835,119.849352 51.2504998,115.91607 53.6361698,112.027407 C56.0184122,108.135312 58.4692083,104.287835 60.9885582,100.488409 C63.507908,96.682118 66.0889562,92.9238779 68.7385582,89.2136883 C69.5954799,88.0089921 70.4626847,86.8111603 71.3333171,85.6167607 C73.6470057,82.4454238 78.1372755,81.8550884 81.1844892,84.3228278 L95.1420301,95.6353023 C97.9732994,97.9280004 98.5217293,102.039755 96.379425,104.991433 Z" id="Stroke-138" stroke="#09B9B3"></path>
                    <path d="M752.592834,460.311691 L723.135636,448.717778" id="Stroke-152" stroke="#09B9B3"></path>
                    <path d="M747.365611,472.969547 L718.333446,460.352843" id="Stroke-154" stroke="#01244A"></path>
                    <path d="M741.696217,485.438667 L713.123362,471.819766" id="Stroke-156" stroke="#09B9B3"></path>
                    <path d="M735.598328,497.701684 L707.518717,483.091226" id="Stroke-158" stroke="#01244A"></path>
                    <path d="M729.07568,509.741816 L701.520163,494.160049" id="Stroke-160" stroke="#09B9B3"></path>
                    <polyline id="Stroke-162" stroke="#01244A" points="722.131289 521.545299 695.138255 505.012474 695.134485 505.012474"></polyline>
                    <path d="M714.782157,533.101458 L688.378685,515.631648" id="Stroke-164" stroke="#09B9B3"></path>
                    <path d="M707.032054,544.393133 L681.25962,526.013795" id="Stroke-166" stroke="#01244A"></path>
                    <path d="M698.898325,555.410646 L673.780236,536.142029" id="Stroke-168" stroke="#09B9B3"></path>
                    <path d="M690.383985,566.132854 L665.954518,545.99967" id="Stroke-170" stroke="#01244A"></path>
                    <path d="M774.691371,379.095984 C774.578257,379.806103 774.465144,380.513476 774.348602,381.220162 C773.604794,385.737258 772.782149,390.229642 771.884096,394.691479 C770.985699,399.181118 770.009151,403.639523 768.953423,408.070471 C767.897696,412.525101 766.763131,416.945753 765.553158,421.33929 C764.343184,425.749645 763.054374,430.128767 761.690155,434.477342 C760.325935,438.843422 758.882879,443.178269 757.367842,447.475019 C755.849376,451.789616 754.255502,456.069547 752.593074,460.311725 C750.92379,464.567289 749.179098,468.789217 747.365851,472.969616 C745.548835,477.1634 743.660522,481.320116 741.696457,485.438736 C739.73582,489.567308 737.703202,493.655038 735.598602,497.701582 C733.494003,501.758765 731.317421,505.770986 729.075714,509.741679 C726.830579,513.719579 724.51312,517.656635 722.131221,521.545299 C719.748978,525.443915 717.298182,529.294824 714.78226,533.101458 C712.266338,536.91427 709.681862,540.675942 707.031917,544.392996 C704.386086,548.113482 701.674443,551.78935 698.898359,555.410646 C696.121933,559.035031 693.283808,562.611022 690.383985,566.132442 C689.893483,566.733074 689.396811,567.333706 688.896369,567.934338 C686.490133,570.820804 682.219235,571.249827 679.302273,568.885396 L665.368726,557.596947 C662.390066,555.184122 661.961605,550.800881 664.415829,547.859844 C664.929982,547.241708 665.444135,546.620826 665.954861,545.999601 C668.618173,542.762709 671.2263,539.474678 673.78027,536.142029 C676.330469,532.812811 678.825825,529.435544 681.259483,526.014001 C683.69314,522.598635 686.068527,519.135906 688.378445,515.631648 C690.695904,512.13391 692.947895,508.592241 695.134416,505.012131 L695.138187,505.012131 C697.328479,501.435796 699.457072,497.818276 701.52054,494.159912 C703.584007,490.511159 705.582349,486.821562 707.518992,483.091123 C709.452207,479.374069 711.320296,475.615828 713.12326,471.819491 C714.926223,468.034137 716.66406,464.210342 718.333344,460.352912 C720.002627,456.508867 721.603357,452.6305 723.135533,448.717812 C724.667709,444.818509 726.131331,440.882139 727.526057,436.917968 C728.921468,432.967525 730.244556,428.982761 731.502517,424.970196 C732.75328,420.975478 733.939259,416.949528 735.050172,412.892688 C736.164171,408.856441 737.206188,404.788961 738.176223,400.69471 C739.146258,396.620709 740.044312,392.52234 740.870385,388.397199 C741.696457,384.295398 742.450206,380.166482 743.12923,376.013884 C743.21835,375.495624 743.304042,374.977365 743.386307,374.45533 C743.975869,370.772941 747.400128,368.243422 751.088319,368.751042 L768.850593,371.191667 C772.669036,371.716791 775.298072,375.285918 774.691371,379.095984 Z" id="Stroke-172" stroke="#09B9B3"></path>
                    <path d="M621.151429,632.071641 L602.312862,606.618916" id="Stroke-174" stroke="#01244A"></path>
                    <path d="M610.025157,640.051466 L592.084644,613.953148" id="Stroke-176" stroke="#09B9B3"></path>
                    <path d="M598.628098,647.636796 L581.606205,620.924117" id="Stroke-178" stroke="#01244A"></path>
                    <path d="M586.970638,654.820251 L570.887931,627.527534" id="Stroke-180" stroke="#09B9B3"></path>
                    <path d="M575.069778,661.588413 L559.946823,633.75341" id="Stroke-182" stroke="#01244A"></path>
                    <path d="M562.938988,667.937951 L548.796352,639.588121" id="Stroke-184" stroke="#09B9B3"></path>
                    <path d="M550.592632,673.858466 L537.444025,645.031906" id="Stroke-186" stroke="#01244A"></path>
                    <path d="M538.043733,679.339902 L525.909721,650.070248" id="Stroke-188" stroke="#09B9B3"></path>
                    <path d="M525.309739,684.374915 L514.204376,654.69683" id="Stroke-190" stroke="#01244A"></path>
                    <path d="M512.411388,688.963777 L502.344271,658.914674" id="Stroke-192" stroke="#09B9B3"></path>
                    <path d="M499.352038,693.089089 L490.340649,662.710839" id="Stroke-194" stroke="#01244A"></path>
                    <path d="M486.162162,696.754558 L478.213699,666.077708" id="Stroke-196" stroke="#09B9B3"></path>
                    <path d="M472.845735,699.950091 L465.973223,669.01926" id="Stroke-198" stroke="#01244A"></path>
                    <path d="M459.429872,702.682109 L453.640166,671.524754" id="Stroke-200" stroke="#09B9B3"></path>
                    <path d="M445.924648,704.933484 L441.22529,673.597655" id="Stroke-202" stroke="#01244A"></path>
                    <path d="M626.515896,628.015041 C624.740354,629.384139 622.951101,630.736762 621.151566,632.071538 C617.490796,634.800466 613.782039,637.460408 610.025294,640.051363 C606.271634,642.646436 602.4741,645.175955 598.628235,647.63683 C594.788883,650.097705 590.902229,652.493025 586.970672,654.820389 C583.049056,657.147408 579.080137,659.402009 575.069743,661.58831 C571.069633,663.778042 567.02462,665.895699 562.93916,667.937848 C558.86364,669.983429 554.746988,671.956934 550.592632,673.858363 C546.448558,675.759793 542.263352,677.586057 538.04387,679.339902 C533.838098,681.093405 529.590851,682.775517 525.310013,684.374915 C521.045971,685.981176 516.747651,687.508497 512.411628,688.963743 C508.092742,690.415556 503.73958,691.791518 499.352141,693.089227 C494.988695,694.390024 490.590973,695.611538 486.162402,696.754455 C481.754396,697.897372 477.315542,698.965124 472.845838,699.95016 C468.403556,700.938629 463.930425,701.847814 459.429872,702.682178 C454.95297,703.509334 450.45276,704.260638 445.924785,704.933346 C443.916161,705.235378 441.900338,705.520249 439.878346,705.788303 C436.221004,706.275673 432.834449,703.766747 432.25517,700.114562 L429.91406,685.42173 L429.910632,685.394273 L429.41019,682.250393 C429.3173,681.666579 429.300504,681.090316 429.355347,680.527438 L429.355347,680.523662 C429.653556,677.448426 432.028943,674.857128 435.23383,674.438745 C437.235599,674.174124 439.233941,673.89646 441.225427,673.597861 C445.386639,672.980068 449.526942,672.286424 453.640166,671.524822 C457.777727,670.762878 461.887523,669.925082 465.973326,669.019329 C470.079695,668.109457 474.16207,667.131628 478.213596,666.077605 C482.285688,665.0277 486.326931,663.905033 490.340752,662.710977 C494.371369,661.516234 498.37525,660.250102 502.344511,658.914639 C506.330911,657.579863 510.282691,656.176101 514.204308,654.696487 C518.139292,653.22408 522.043428,651.679598 525.909858,650.070248 C529.79,648.460211 533.632437,646.778784 537.444025,645.031803 C541.265896,643.284479 545.050062,641.468854 548.796524,639.588361 C552.553268,637.707182 556.268881,635.761134 559.946789,633.753651 C563.63498,631.742048 567.281696,629.665921 570.887966,627.527671 C574.500747,625.389421 578.075825,623.189049 581.606,620.924151 C585.143715,618.662343 588.636528,616.338412 592.084781,613.953045 C595.539889,611.568021 598.94701,609.124307 602.312999,606.61847 C603.749199,605.551405 605.178545,604.473356 606.597607,603.385354 C609.470009,601.181893 613.566095,601.641805 615.900349,604.408488 L627.564768,618.226112 C630.066979,621.191518 629.590531,625.646835 626.515896,628.015041 Z" id="Stroke-204" stroke="#09B9B3"></path>
                </g>
                <polyline id="Stroke-207" stroke="#09B9B3" stroke-width="2.64" points="713.39422 704.832556 760.357452 751.79433 803.39422 794.832556"></polyline>
                <g id="Group-228" transform="translate(0.622593, 0.080480)">
                    <path d="M473.077355,57.1202511 C585.96375,57.2164689 688.153621,103.084872 762.144536,177.210384 C834.698385,249.873041 880.129446,349.937498 881.975046,460.391074 C882.038217,464.234631 878.949673,467.388514 875.111892,467.388514 L765.130163,467.390919 C761.397358,467.390919 758.358557,470.380888 758.27245,474.118949 C756.514968,550.418296 724.940672,619.228461 674.764443,669.529412 C624.532639,719.892562 555.554133,751.591175 479.288406,753.357115 C475.55663,753.443367 472.572032,756.487286 472.572032,760.226379 L472.572032,848.132342 L472.572032,927.118915 C472.572032,930.96316 475.72164,934.047284 479.558735,933.991688 C605.383187,932.139423 718.720702,880.34469 801.521668,797.488787" id="Stroke-208" stroke="#09B9B3" stroke-width="2.64"></path>
                    <polyline id="Stroke-210" stroke="#09B9B3" stroke-width="2.64" points="144.625393 135.674943 187.785073 178.907322 234.878933 226.084287"></polyline>
                    <path d="M142.333874,137.18704 C142.405916,137.114877 142.474527,137.04615 142.546569,136.973987 C225.302252,54.0620712 339.038399,2.19964216 464.854618,0.268959834 C468.688282,0.211026269 471.836518,3.28724702 471.844408,7.12771207 L472.009075,87.1575605 L472.193313,174.304778 C472.201187,178.049712 469.214189,181.101878 465.476581,181.188474 C389.28564,182.952353 320.096154,214.579146 269.882532,264.837487 C219.600984,315.153902 187.951902,384.271276 186.192361,460.673026 C186.106254,464.411432 183.067453,467.401056 179.334648,467.401056 L12.7076611,467.401056" id="Stroke-212" stroke="#09B9B3" stroke-width="2.64"></path>
                    <path d="M6.01674259,467.24161 C6.04693162,593.565969 56.1106376,708.113268 137.49169,792.142341 C140.16239,794.900356 144.566901,794.942967 147.279111,792.226188 L160.229177,779.25431 L178.969018,760.483934" id="Stroke-214" stroke="#09B9B3" stroke-width="2.64"></path>
                    <path d="M144.625393,141.346399 C141.198251,141.346399 138.420174,138.563642 138.420174,135.130728 C138.420174,131.697814 141.198251,128.915058 144.625393,128.915058 C148.052534,128.915058 150.830611,131.697814 150.830611,135.130728 C150.830611,138.563642 148.052534,141.346399 144.625393,141.346399" id="Fill-216" fill="#FFFFFF"></path>
                    <path d="M144.625393,141.346399 C141.198251,141.346399 138.420174,138.563642 138.420174,135.130728 C138.420174,131.697814 141.198251,128.915058 144.625393,128.915058 C148.052534,128.915058 150.830611,131.697814 150.830611,135.130728 C150.830611,138.563642 148.052534,141.346399 144.625393,141.346399 Z" id="Stroke-218" stroke="#EF442E" stroke-width="2.64"></path>
                    <path d="M799.218348,797.27319 C799.218348,800.70576 801.996768,803.48886 805.423566,803.48886 C808.850707,803.48886 811.628784,800.70576 811.628784,797.27319 C811.628784,793.84062 808.850707,791.05752 805.423566,791.05752 C801.996768,791.05752 799.218348,793.84062 799.218348,797.27319" id="Fill-224" fill="#FFFFFF"></path>
                    <path d="M799.218348,797.27319 C799.218348,800.70576 801.996768,803.48886 805.423566,803.48886 C808.850707,803.48886 811.628784,800.70576 811.628784,797.27319 C811.628784,793.84062 808.850707,791.05752 805.423566,791.05752 C801.996768,791.05752 799.218348,793.84062 799.218348,797.27319 Z" id="Stroke-226" stroke="#EF442E" stroke-width="2.64"></path>
                </g>
            </g>
        </g>
    </g>
</svg>