<?xml version="1.0" encoding="UTF-8"?>
<svg width="1440px" height="600px" viewBox="0 0 1440 600" version="1.1" xmlns="http://www.w3.org/2000/svg" xmlns:xlink="http://www.w3.org/1999/xlink">
    <!-- Generator: Sketch 57.1 (83088) - https://sketch.com -->
    <title>Radian / Organisms / One Up / Illustration 3 / Desktop Copy</title>
    <desc>Created with Sketch.</desc>
    <defs>
        <polygon id="path-1" points="0 1016.064 1216.83643 1016.064 1216.83643 0.259119 0 0.259119"></polygon>
    </defs>
    <g id="Radian-/-Organisms-/-One-Up-/-Illustration-3-/-Desktop-Copy" stroke="none" stroke-width="1" fill="none" fill-rule="evenodd">
        <g id="Group-488" transform="translate(140.000000, -64.000000)">
            <path d="M975.137713,241.144079 C970.766143,241.144079 967.22296,237.600329 967.22296,233.229326 C967.22296,228.857756 970.766143,225.314573 975.137713,225.314573 C979.508716,225.314573 983.052466,228.857756 983.052466,233.229326 C983.052466,237.600329 979.508716,241.144079 975.137713,241.144079" id="Fill-15" fill="#FFFFFF"></path>
            <path d="M975.137713,241.144079 C970.766143,241.144079 967.22296,237.600329 967.22296,233.229326 C967.22296,228.857756 970.766143,225.314573 975.137713,225.314573 C979.508716,225.314573 983.052466,228.857756 983.052466,233.229326 C983.052466,237.600329 979.508716,241.144079 975.137713,241.144079 Z" id="Stroke-17" stroke="#EF442E" stroke-width="3.402"></path>
            <path d="M975.137713,214.344201 C964.935682,214.344201 956.66542,222.614463 956.66542,232.816494 C956.66542,243.017958 964.935682,251.28822 975.137713,251.28822 C985.339177,251.28822 993.609439,243.017958 993.609439,232.816494 C993.609439,222.614463 985.339177,214.344201 975.137713,214.344201 Z" id="Stroke-19" stroke="#09B9B3" stroke-width="3.402" stroke-dasharray="5.801543998718262,5.801543998718262"></path>
            <path d="M615.354611,700.677394 L631.146695,611.462779" id="Stroke-21" stroke="#09B9B3" stroke-width="3.402"></path>
            <path d="M540.982411,700.677394 L525.18976,611.462779" id="Stroke-23" stroke="#09B9B3" stroke-width="3.402"></path>
            <path d="M522.378801,611.462893 C516.306231,611.462893 511.38297,606.539632 511.38297,600.467062 C511.38297,594.393925 516.306231,589.471798 522.378801,589.471798 C528.451371,589.471798 533.374632,594.393925 533.374632,600.467062 C533.374632,606.539632 528.451371,611.462893 522.378801,611.462893" id="Fill-25" fill="#FFFFFF"></path>
            <path d="M522.378801,611.462893 C516.306231,611.462893 511.38297,606.539632 511.38297,600.467062 C511.38297,594.393925 516.306231,589.471798 522.378801,589.471798 C528.451371,589.471798 533.374632,594.393925 533.374632,600.467062 C533.374632,606.539632 528.451371,611.462893 522.378801,611.462893 Z" id="Stroke-27" stroke="#01244A" stroke-width="3.402"></path>
            <path d="M633.30481,611.462893 C627.23224,611.462893 622.308979,606.539632 622.308979,600.467062 C622.308979,594.393925 627.23224,589.471798 633.30481,589.471798 C639.377947,589.471798 644.300641,594.393925 644.300641,600.467062 C644.300641,606.539632 639.377947,611.462893 633.30481,611.462893" id="Fill-29" fill="#FFFFFF"></path>
            <path d="M633.30481,611.462893 C627.23224,611.462893 622.308979,606.539632 622.308979,600.467062 C622.308979,594.393925 627.23224,589.471798 633.30481,589.471798 C639.377947,589.471798 644.300641,594.393925 644.300641,600.467062 C644.300641,606.539632 639.377947,611.462893 633.30481,611.462893 Z" id="Stroke-31" stroke="#01244A" stroke-width="3.402"></path>
            <path d="M1100.62689,150.900019 L1034.35139,217.175515" id="Stroke-33" stroke="#09B9B3" stroke-width="3.402"></path>
            <path d="M1034.91357,214.956901 C1038.37851,217.30258 1039.28628,222.012649 1036.9406,225.478153 C1034.59492,228.94309 1029.88485,229.850857 1026.41991,227.505178 C1022.95441,225.160066 1022.04721,220.449997 1024.39232,216.984493 C1026.738,213.518989 1031.44864,212.611789 1034.91357,214.956901" id="Fill-35" fill="#FFFFFF"></path>
            <path d="M1034.91357,214.956901 C1038.37851,217.30258 1039.28628,222.012649 1036.9406,225.478153 C1034.59492,228.94309 1029.88485,229.850857 1026.41991,227.505178 C1022.95441,225.160066 1022.04721,220.449997 1024.39232,216.984493 C1026.738,213.518989 1031.44864,212.611789 1034.91357,214.956901 Z" id="Stroke-37" stroke="#01244A" stroke-width="3.402"></path>
            <path d="M1059.07197,150.900019 L1014.87942,195.093133" id="Stroke-39" stroke="#01244A" stroke-width="3.402"></path>
            <path d="M1013.47774,193.70353 C1016.94268,196.049209 1017.85045,200.759278 1015.50477,204.224782 C1013.15909,207.689719 1008.44902,208.597486 1004.98408,206.251807 C1001.51858,203.906695 1000.61138,199.196626 1002.95649,195.731122 C1005.30217,192.265618 1010.01281,191.358418 1013.47774,193.70353" id="Fill-41" fill="#FFFFFF"></path>
            <path d="M1013.47774,193.70353 C1016.94268,196.049209 1017.85045,200.759278 1015.50477,204.224782 C1013.15909,207.689719 1008.44902,208.597486 1004.98408,206.251807 C1001.51858,203.906695 1000.61138,199.196626 1002.95649,195.731122 C1005.30217,192.265618 1010.01281,191.358418 1013.47774,193.70353 Z" id="Stroke-43" stroke="#09B9B3" stroke-width="3.402"></path>
            <path d="M1017.51654,150.900019 L994.435105,173.981455" id="Stroke-45" stroke="#09B9B3" stroke-width="3.402"></path>
            <path d="M992.420667,172.638402 C995.885604,174.983514 996.793938,179.69415 994.448259,183.159654 C992.10258,186.624591 987.392511,187.532358 983.927574,185.186679 C980.46207,182.841567 979.55487,178.130931 981.899415,174.665994 C984.245094,171.20049 988.95573,170.292723 992.420667,172.638402" id="Fill-47" fill="#FFFFFF"></path>
            <path d="M992.420667,172.638402 C995.885604,174.983514 996.793938,179.69415 994.448259,183.159654 C992.10258,186.624591 987.392511,187.532358 983.927574,185.186679 C980.46207,182.841567 979.55487,178.130931 981.899415,174.665994 C984.245094,171.20049 988.95573,170.292723 992.420667,172.638402 Z" id="Stroke-49" stroke="#01244A" stroke-width="3.402"></path>
            <path d="M180.790672,241.144079 C185.161675,241.144079 188.705425,237.600329 188.705425,233.229326 C188.705425,228.857756 185.161675,225.314573 180.790672,225.314573 C176.419102,225.314573 172.875352,228.857756 172.875352,233.229326 C172.875352,237.600329 176.419102,241.144079 180.790672,241.144079" id="Fill-51" fill="#FFFFFF"></path>
            <path d="M180.790672,241.144079 C185.161675,241.144079 188.705425,237.600329 188.705425,233.229326 C188.705425,228.857756 185.161675,225.314573 180.790672,225.314573 C176.419102,225.314573 172.875352,228.857756 172.875352,233.229326 C172.875352,237.600329 176.419102,241.144079 180.790672,241.144079 Z" id="Stroke-53" stroke="#EF442E" stroke-width="3.402"></path>
            <path d="M180.790672,214.344201 C190.992136,214.344201 199.262398,222.614463 199.262398,232.816494 C199.262398,243.017958 190.992136,251.28822 180.790672,251.28822 C170.588641,251.28822 162.318379,243.017958 162.318379,232.816494 C162.318379,222.614463 170.588641,214.344201 180.790672,214.344201 Z" id="Stroke-55" stroke="#09B9B3" stroke-width="3.402" stroke-dasharray="5.801543998718262,5.801543998718262"></path>
            <path d="M55.3009275,150.900019 L121.57699,217.175515" id="Stroke-57" stroke="#09B9B3" stroke-width="3.402"></path>
            <path d="M121.01481,214.956901 C117.549873,217.30258 116.641539,222.012649 118.987218,225.478153 C121.332897,228.94309 126.042966,229.850857 129.507903,227.505178 C132.973407,225.160066 133.881174,220.449997 131.536062,216.984493 C129.190383,213.518989 124.479747,212.611789 121.01481,214.956901" id="Fill-59" fill="#FFFFFF"></path>
            <path d="M121.01481,214.956901 C117.549873,217.30258 116.641539,222.012649 118.987218,225.478153 C121.332897,228.94309 126.042966,229.850857 129.507903,227.505178 C132.973407,225.160066 133.881174,220.449997 131.536062,216.984493 C129.190383,213.518989 124.479747,212.611789 121.01481,214.956901 Z" id="Stroke-61" stroke="#01244A" stroke-width="3.402"></path>
            <path d="M96.8563575,150.900019 L141.048905,195.093133" id="Stroke-63" stroke="#01244A" stroke-width="3.402"></path>
            <path d="M142.450585,193.70353 C138.985081,196.049209 138.077314,200.759278 140.422993,204.224782 C142.768672,207.689719 147.478741,208.597486 150.943678,206.251807 C154.409182,203.906695 155.316382,199.196626 152.97127,195.731122 C150.626158,192.265618 145.915522,191.358418 142.450585,193.70353" id="Fill-65" fill="#FFFFFF"></path>
            <path d="M142.450585,193.70353 C138.985081,196.049209 138.077314,200.759278 140.422993,204.224782 C142.768672,207.689719 147.478741,208.597486 150.943678,206.251807 C154.409182,203.906695 155.316382,199.196626 152.97127,195.731122 C150.626158,192.265618 145.915522,191.358418 142.450585,193.70353 Z" id="Stroke-67" stroke="#09B9B3" stroke-width="3.402"></path>
            <path d="M138.411277,150.900019 L161.492713,173.981455" id="Stroke-69" stroke="#09B9B3" stroke-width="3.402"></path>
            <path d="M163.507094,172.638402 C160.042157,174.983514 159.13439,179.69415 161.479502,183.159654 C163.825181,186.624591 168.53525,187.532358 172.000187,185.186679 C175.465691,182.841567 176.373458,178.130931 174.028346,174.665994 C171.682667,171.20049 166.972031,170.292723 163.507094,172.638402" id="Fill-71" fill="#FFFFFF"></path>
            <path d="M163.507094,172.638402 C160.042157,174.983514 159.13439,179.69415 161.479502,183.159654 C163.825181,186.624591 168.53525,187.532358 172.000187,185.186679 C175.465691,182.841567 176.373458,178.130931 174.028346,174.665994 C171.682667,171.20049 166.972031,170.292723 163.507094,172.638402 Z" id="Stroke-73" stroke="#01244A" stroke-width="3.402"></path>
            <path d="M304.73999,68.9006493 C294.031061,76.1491773 291.225545,90.7063353 298.474073,101.415831 C305.722601,112.12476 320.280326,114.929709 330.989255,107.681181 C341.698751,100.432653 344.5037,85.8749283 337.255172,75.1659993 C330.006644,64.4576373 315.448919,61.6521213 304.73999,68.9006493 Z" id="Stroke-75" stroke="#01244A" stroke-width="3.402"></path>
            <path d="M290.827454,125.696756 L290.827454,118.903529" id="Stroke-99" stroke="#01244A" stroke-width="2.835"></path>
            <path d="M296.243268,125.696756 L296.243268,118.903529" id="Stroke-101" stroke="#01244A" stroke-width="2.835"></path>
            <path d="M301.659139,125.696756 L301.659139,118.903529" id="Stroke-103" stroke="#01244A" stroke-width="2.835"></path>
            <path d="M307.07552,125.696756 L307.07552,118.903529" id="Stroke-105" stroke="#01244A" stroke-width="2.835"></path>
            <path d="M312.49139,125.696756 L312.49139,118.903529" id="Stroke-107" stroke="#01244A" stroke-width="2.835"></path>
            <path d="M317.907771,125.696756 L317.907771,118.903529" id="Stroke-109" stroke="#01244A" stroke-width="2.835"></path>
            <path d="M323.323642,125.696756 L323.323642,118.903529" id="Stroke-111" stroke="#01244A" stroke-width="2.835"></path>
            <path d="M328.739456,125.696756 L328.739456,118.903529" id="Stroke-113" stroke="#01244A" stroke-width="2.835"></path>
            <path d="M334.155837,125.696756 L334.155837,118.903529" id="Stroke-115" stroke="#01244A" stroke-width="2.835"></path>
            <path d="M339.571707,125.696756 L339.571707,118.903529" id="Stroke-117" stroke="#01244A" stroke-width="2.835"></path>
            <path d="M344.988088,125.696756 L344.988088,118.903529" id="Stroke-119" stroke="#01244A" stroke-width="2.835"></path>
            <path d="M348.255029,66.8915415 L355.048256,66.8915415" id="Stroke-123" stroke="#01244A" stroke-width="2.835"></path>
            <path d="M348.255029,72.3076389 L355.048256,72.3076389" id="Stroke-125" stroke="#01244A" stroke-width="2.835"></path>
            <path d="M348.255029,77.723793 L355.048256,77.723793" id="Stroke-127" stroke="#01244A" stroke-width="2.835"></path>
            <path d="M348.255029,83.1398904 L355.048256,83.1398904" id="Stroke-129" stroke="#01244A" stroke-width="2.835"></path>
            <path d="M348.255029,88.555761 L355.048256,88.555761" id="Stroke-131" stroke="#01244A" stroke-width="3.402"></path>
            <path d="M348.255029,93.9718584 L355.048256,93.9718584" id="Stroke-133" stroke="#01244A" stroke-width="2.835"></path>
            <path d="M348.255029,99.3880125 L355.048256,99.3880125" id="Stroke-135" stroke="#01244A" stroke-width="2.835"></path>
            <path d="M348.255029,104.80411 L355.048256,104.80411" id="Stroke-137" stroke="#01244A" stroke-width="2.835"></path>
            <path d="M348.255029,110.220264 L355.048256,110.220264" id="Stroke-139" stroke="#01244A" stroke-width="2.835"></path>
            <path d="M348.255029,115.636078 L355.048256,115.636078" id="Stroke-141" stroke="#01244A" stroke-width="2.835"></path>
            <path d="M261.099758,66.8915415 L287.559947,66.8915415" id="Stroke-145" stroke="#01244A" stroke-width="2.835"></path>
            <path d="M261.099758,72.3076389 L287.559947,72.3076389" id="Stroke-147" stroke="#01244A" stroke-width="2.835"></path>
            <path d="M261.099758,77.723793 L287.559947,77.723793" id="Stroke-149" stroke="#01244A" stroke-width="2.835"></path>
            <path d="M261.099758,83.1398904 L287.559947,83.1398904" id="Stroke-151" stroke="#01244A" stroke-width="2.835"></path>
            <path d="M261.099758,88.555761 L287.559947,88.555761" id="Stroke-153" stroke="#01244A" stroke-width="2.835"></path>
            <path d="M254.750945,93.9718584 L287.559833,93.9718584" id="Stroke-155" stroke="#01244A" stroke-width="2.835"></path>
            <path d="M250.326247,99.3880125 L287.560003,99.3880125" id="Stroke-157" stroke="#01244A" stroke-width="2.835"></path>
            <path d="M247.007256,104.80411 L287.559663,104.80411" id="Stroke-159" stroke="#01244A" stroke-width="2.835"></path>
            <path d="M247.007256,110.220264 L287.559663,110.220264" id="Stroke-161" stroke="#01244A" stroke-width="2.835"></path>
            <path d="M247.007256,115.636078 L287.559663,115.636078" id="Stroke-163" stroke="#01244A" stroke-width="2.835"></path>
            <path d="M857.684514,68.9006493 C868.39401,76.1491773 871.198959,90.7063353 863.950431,101.415831 C856.701903,112.12476 842.144178,114.929709 831.435249,107.681181 C820.72632,100.432653 817.920804,85.8749283 825.169332,75.1659993 C832.41786,64.4576373 846.975585,61.6521213 857.684514,68.9006493" id="Fill-165" fill="#FFFFFF"></path>
            <path d="M857.684514,68.9006493 C868.39401,76.1491773 871.198959,90.7063353 863.950431,101.415831 C856.701903,112.12476 842.144178,114.929709 831.435249,107.681181 C820.72632,100.432653 817.920804,85.8749283 825.169332,75.1659993 C832.41786,64.4576373 846.975585,61.6521213 857.684514,68.9006493 Z" id="Stroke-167" stroke="#01244A" stroke-width="3.402"></path>
            <path d="M871.597616,125.696756 L871.597616,118.903529" id="Stroke-191" stroke="#01244A" stroke-width="2.835"></path>
            <path d="M866.181236,125.696756 L866.181236,118.903529" id="Stroke-193" stroke="#01244A" stroke-width="2.835"></path>
            <path d="M860.765365,125.696756 L860.765365,118.903529" id="Stroke-195" stroke="#01244A" stroke-width="2.835"></path>
            <path d="M855.348984,125.696756 L855.348984,118.903529" id="Stroke-197" stroke="#01244A" stroke-width="2.835"></path>
            <path d="M849.933113,125.696756 L849.933113,118.903529" id="Stroke-199" stroke="#01244A" stroke-width="2.835"></path>
            <path d="M844.5173,125.696756 L844.5173,118.903529" id="Stroke-201" stroke="#01244A" stroke-width="2.835"></path>
            <path d="M839.100919,125.696756 L839.100919,118.903529" id="Stroke-203" stroke="#01244A" stroke-width="2.835"></path>
            <path d="M833.685048,125.696756 L833.685048,118.903529" id="Stroke-205" stroke="#01244A" stroke-width="2.835"></path>
            <path d="M828.268667,125.696756 L828.268667,118.903529" id="Stroke-207" stroke="#01244A" stroke-width="2.835"></path>
            <path d="M822.852797,125.696756 L822.852797,118.903529" id="Stroke-209" stroke="#01244A" stroke-width="2.835"></path>
            <path d="M817.436926,125.696756 L817.436926,118.903529" id="Stroke-211" stroke="#01244A" stroke-width="2.835"></path>
            <path d="M814.169475,66.8915415 L807.376248,66.8915415" id="Stroke-215" stroke="#01244A" stroke-width="2.835"></path>
            <path d="M814.169475,72.3076389 L807.376248,72.3076389" id="Stroke-217" stroke="#01244A" stroke-width="2.835"></path>
            <path d="M814.169475,77.723793 L807.376248,77.723793" id="Stroke-219" stroke="#01244A" stroke-width="2.835"></path>
            <path d="M814.169475,83.1398904 L807.376248,83.1398904" id="Stroke-221" stroke="#01244A" stroke-width="2.835"></path>
            <path d="M814.169475,88.555761 L807.376248,88.555761" id="Stroke-223" stroke="#01244A" stroke-width="3.402"></path>
            <path d="M814.169475,93.9718584 L807.376248,93.9718584" id="Stroke-225" stroke="#01244A" stroke-width="2.835"></path>
            <path d="M814.169475,99.3880125 L807.376248,99.3880125" id="Stroke-227" stroke="#01244A" stroke-width="2.835"></path>
            <path d="M814.169475,104.80411 L807.376248,104.80411" id="Stroke-229" stroke="#01244A" stroke-width="2.835"></path>
            <path d="M814.169475,110.220264 L807.376248,110.220264" id="Stroke-231" stroke="#01244A" stroke-width="2.835"></path>
            <path d="M814.169475,115.636078 L807.376248,115.636078" id="Stroke-233" stroke="#01244A" stroke-width="2.835"></path>
            <path d="M901.324689,66.8915415 L874.8645,66.8915415" id="Stroke-237" stroke="#01244A" stroke-width="2.835"></path>
            <path d="M901.324689,72.3076389 L874.8645,72.3076389" id="Stroke-239" stroke="#01244A" stroke-width="2.835"></path>
            <path d="M901.324689,77.723793 L874.8645,77.723793" id="Stroke-241" stroke="#01244A" stroke-width="2.835"></path>
            <path d="M901.324689,83.1398904 L874.8645,83.1398904" id="Stroke-243" stroke="#01244A" stroke-width="2.835"></path>
            <path d="M901.324689,88.555761 L874.8645,88.555761" id="Stroke-245" stroke="#01244A" stroke-width="2.835"></path>
            <path d="M907.673558,93.9718584 L874.86467,93.9718584" id="Stroke-247" stroke="#01244A" stroke-width="2.835"></path>
            <path d="M912.098823,99.3880125 L874.8645,99.3880125" id="Stroke-249" stroke="#01244A" stroke-width="2.835"></path>
            <path d="M915.417191,104.80411 L874.864784,104.80411" id="Stroke-251" stroke="#01244A" stroke-width="2.835"></path>
            <path d="M915.417191,110.220264 L874.864784,110.220264" id="Stroke-253" stroke="#01244A" stroke-width="2.835"></path>
            <path d="M915.417191,115.636078 L874.864784,115.636078" id="Stroke-255" stroke="#01244A" stroke-width="2.835"></path>
            <path d="M1026.33492,355.521928 L1129.22558,355.521928 C1149.03145,355.521928 1158.94488,379.465204 1144.94452,393.472939 L592.320803,946.096654 C583.637765,954.771754 569.564825,954.771754 560.882354,946.096654 L8.2580715,393.472939 C-5.7496635,379.465204 4.1717025,355.521928 23.9775795,355.521928 L127.689251,355.521928" id="Stroke-257" stroke="#01244A" stroke-width="3.402"></path>
            <path d="M106.008645,68.0798034 C105.99447,59.6008854 107.6331,51.0346494 111.020358,42.8545404 C111.916218,40.6840644 112.920942,38.5855974 114.02886,36.5608404" id="Stroke-263" stroke="#09B9B3" stroke-width="3.402"></path>
            <path d="M106.853645,78.4015281 C108.143003,86.3270541 110.903726,94.0042341 115.048496,101.025962" id="Stroke-267" stroke="#09B9B3" stroke-width="3.402"></path>
            <path d="M1207.11544,342.506669 C1208.22279,344.531993 1209.22809,346.629326 1210.12395,348.800369 C1213.51064,356.980478 1215.14983,365.546714 1215.13566,374.025632" id="Stroke-269" stroke="#09B9B3" stroke-width="3.402"></path>
            <path d="M1084.39873,308.438531 L1149.71599,308.438531 C1169.95846,308.438531 1188.56286,317.660219 1200.74883,332.921024" id="Stroke-271" stroke="#09B9B3" stroke-width="3.402"></path>
            <path d="M1206.09552,406.971904 C1210.24086,399.950176 1213.00158,392.272429 1214.29038,384.34747" id="Stroke-273" stroke="#09B9B3" stroke-width="3.402"></path>
            <path d="M763.399218,125.301954 L952.835052,125.301954" id="Stroke-279" stroke="#01244A" stroke-width="3.402"></path>
            <path d="M844.819624,125.457538 L844.819624,244.771348" id="Stroke-281" stroke="#01244A" stroke-width="3.402"></path>
            <path d="M318.042887,125.457538 L318.042887,244.771348" id="Stroke-283" stroke="#01244A" stroke-width="3.402"></path>
            <polygon id="Stroke-285" stroke="#09B9B3" stroke-width="3.402" stroke-linecap="round" stroke-linejoin="round" points="740.394157 125.16491 751.896319 118.523639 763.399048 111.882935 763.399048 125.16491 763.399048 138.446885 751.896319 131.805614"></polygon>
            <path d="M392.327088,125.38638 L202.577703,125.38638" id="Stroke-287" stroke="#01244A" stroke-width="3.402"></path>
            <polygon id="Stroke-289" stroke="#09B9B3" stroke-width="3.402" stroke-linecap="round" stroke-linejoin="round" points="416.173181 125.16491 404.671019 118.523639 393.168857 111.882935 393.16829 125.16491 393.16829 138.446885 404.671019 131.805614"></polygon>
            <mask id="mask-2" fill="white">
                <use xlink:href="#path-1"></use>
            </mask>
            <g id="Clip-292"></g>
            <polygon id="Stroke-291" stroke="#09B9B3" stroke-width="3.402" mask="url(#mask-2)" points="288.667638 117.48807 347.061834 117.48807 347.061834 59.093307 288.667638 59.093307"></polygon>
            <polyline id="Stroke-293" stroke="#01244A" stroke-width="3.402" mask="url(#mask-2)" points="246.065413 125.164626 246.065413 103.507494 261.099985 88.4729223 261.099985 67.0346523 243.90571 49.8403773"></polyline>
            <polygon id="Stroke-294" stroke="#09B9B3" stroke-width="3.402" mask="url(#mask-2)" points="815.36301 117.48807 873.757206 117.48807 873.757206 59.093307 815.36301 59.093307"></polygon>
            <polyline id="Stroke-295" stroke="#01244A" stroke-width="3.402" mask="url(#mask-2)" points="916.359091 125.164626 916.359091 103.507494 901.324519 88.4729223 901.324519 67.0346523 918.519361 49.8403773"></polyline>
            <path d="M1075.23924,544.617845 L901.864247,717.992837" id="Stroke-298" stroke="#09B9B3" stroke-width="3.402" mask="url(#mask-2)"></path>
            <path d="M142.332649,599.897 L17.8540362,475.41782" id="Stroke-303" stroke="#09B9B3" stroke-width="3.402" mask="url(#mask-2)"></path>
            <path d="M155.379773,612.943556 L146.590706,604.154489" id="Stroke-304" stroke="#09B9B3" stroke-width="3.402" mask="url(#mask-2)"></path>
            <polyline id="Stroke-305" stroke="#09B9B3" stroke-width="3.402" mask="url(#mask-2)" points="880.173491 476.579206 868.683236 488.068327 858.147242 498.604321"></polyline>
            <polyline id="Stroke-306" stroke="#09B9B3" stroke-width="3.402" mask="url(#mask-2)" points="912.113792 490.31926 900.623537 501.808381 890.087543 512.344375"></polyline>
            <polyline id="Stroke-307" stroke="#09B9B3" stroke-width="3.402" mask="url(#mask-2)" points="912.140895 467.743928 911.974197 479.885666 911.822241 491.019278"></polyline>
            <polyline id="Stroke-308" stroke="#09B9B3" stroke-width="3.402" mask="url(#mask-2)" points="902.748313 477.19854 890.607142 477.031842 879.472963 476.879886"></polyline>
            <path d="M291.64745,514.975992 L219.897002,443.225544 C219.897002,443.225544 177.179789,400.511166 164.807282,388.139793 C162.680465,386.013543 159.797837,384.820008 156.789902,384.820008 L75.8194668,384.820008 C62.8425378,384.820008 56.3435838,400.510032 65.5199118,409.685793 L566.298848,910.465296 C571.990394,916.156842 581.217752,916.156842 586.908731,910.465296 L1087.67859,409.695432 C1096.85832,400.515702 1090.35654,384.820008 1077.37507,384.820008 L999.765245,384.820008 C996.757877,384.820008 993.873548,386.014677 991.746731,388.140927 L936.658712,443.225544 L864.908264,514.975992" id="Stroke-320" stroke="#09B9B3" stroke-width="3.402" mask="url(#mask-2)"></path>
            <polyline id="Stroke-321" stroke="#09B9B3" stroke-width="3.402" mask="url(#mask-2)" points="298.408868 498.604434 287.872307 488.06844 276.382052 476.579319"></polyline>
            <polyline id="Stroke-322" stroke="#09B9B3" stroke-width="3.402" mask="url(#mask-2)" points="266.468 512.344205 255.932006 501.808211 244.441751 490.31909"></polyline>
            <polyline id="Stroke-323" stroke="#09B9B3" stroke-width="3.402" mask="url(#mask-2)" points="244.734323 491.019165 244.5818 479.885553 244.415669 467.743815"></polyline>
            <polyline id="Stroke-324" stroke="#09B9B3" stroke-width="3.402" mask="url(#mask-2)" points="277.082637 476.879602 265.949025 477.032125 253.807287 477.198256"></polyline>
            <path d="M265.445303,516.06021 C267.924227,516.06021 269.934242,514.050195 269.934242,511.571271 C269.934242,509.092347 267.924227,507.082332 265.445303,507.082332 C262.966379,507.082332 260.956364,509.092347 260.956364,511.571271 C260.956364,514.050195 262.966379,516.06021 265.445303,516.06021" id="Fill-325" fill="#FFFFFF" mask="url(#mask-2)"></path>
            <path d="M265.445303,516.06021 C267.924227,516.06021 269.934242,514.050195 269.934242,511.571271 C269.934242,509.092347 267.924227,507.082332 265.445303,507.082332 C262.966379,507.082332 260.956364,509.092347 260.956364,511.571271 C260.956364,514.050195 262.966379,516.06021 265.445303,516.06021 Z" id="Stroke-326" stroke="#EF442E" stroke-width="3.402" mask="url(#mask-2)"></path>
            <path d="M298.747707,503.896812 C301.226631,503.896812 303.236646,501.886797 303.236646,499.407873 C303.236646,496.928949 301.226631,494.918934 298.747707,494.918934 C296.268783,494.918934 294.258768,496.928949 294.258768,499.407873 C294.258768,501.886797 296.268783,503.896812 298.747707,503.896812" id="Fill-327" fill="#FFFFFF" mask="url(#mask-2)"></path>
            <path d="M298.747707,503.896812 C301.226631,503.896812 303.236646,501.886797 303.236646,499.407873 C303.236646,496.928949 301.226631,494.918934 298.747707,494.918934 C296.268783,494.918934 294.258768,496.928949 294.258768,499.407873 C294.258768,501.886797 296.268783,503.896812 298.747707,503.896812 Z" id="Stroke-328" stroke="#EF442E" stroke-width="3.402" mask="url(#mask-2)"></path>
            <path d="M294.258768,522.491521 C296.738259,522.491521 298.747707,520.481506 298.747707,518.002582 C298.747707,515.523658 296.738259,513.513643 294.258768,513.513643 C291.779844,513.513643 289.770396,515.523658 289.770396,518.002582 C289.770396,520.481506 291.779844,522.491521 294.258768,522.491521" id="Fill-329" fill="#FFFFFF" mask="url(#mask-2)"></path>
            <path d="M294.258768,522.491521 C296.738259,522.491521 298.747707,520.481506 298.747707,518.002582 C298.747707,515.523658 296.738259,513.513643 294.258768,513.513643 C291.779844,513.513643 289.770396,515.523658 289.770396,518.002582 C289.770396,520.481506 291.779844,522.491521 294.258768,522.491521 Z" id="Stroke-330" stroke="#EF442E" stroke-width="3.402" mask="url(#mask-2)"></path>
            <polyline id="Stroke-331" stroke="#09B9B3" stroke-width="3.402" mask="url(#mask-2)" points="259.662923 79.7262669 228.480191 79.7268339 190.63691 79.7262669"></polyline>
            <polyline id="Stroke-332" stroke="#09B9B3" stroke-width="3.402" mask="url(#mask-2)" points="195.948509 92.512854 207.59639 92.512854 220.297757 92.512287"></polyline>
            <polyline id="Stroke-333" stroke="#09B9B3" stroke-width="3.402" mask="url(#mask-2)" points="206.008847 67.2628131 217.656728 67.2628131 230.358095 67.2628131"></polyline>
            <polyline id="Stroke-334" stroke="#09B9B3" stroke-width="3.402" mask="url(#mask-2)" points="229.810146 67.0368636 236.04828 73.1071656 242.851713 79.7257566"></polyline>
            <polyline id="Stroke-335" stroke="#09B9B3" stroke-width="3.402" mask="url(#mask-2)" points="219.744762 92.7334737 225.815064 86.4947727 232.434222 79.6919067"></polyline>
            <path d="M204.520472,64.6437267 C203.150033,66.0141657 203.150033,68.2356717 204.520472,69.6061107 C205.890911,70.9765497 208.112984,70.9765497 209.482856,69.6061107 C210.853295,68.2356717 210.853295,66.0141657 209.482856,64.6437267 C208.112984,63.2732877 205.890911,63.2732877 204.520472,64.6437267" id="Fill-336" fill="#FFFFFF" mask="url(#mask-2)"></path>
            <path d="M204.520472,64.6437267 C203.150033,66.0141657 203.150033,68.2356717 204.520472,69.6061107 C205.890911,70.9765497 208.112984,70.9765497 209.482856,69.6061107 C210.853295,68.2356717 210.853295,66.0141657 209.482856,64.6437267 C208.112984,63.2732877 205.890911,63.2732877 204.520472,64.6437267 Z" id="Stroke-337" stroke="#EF442E" stroke-width="3.402" mask="url(#mask-2)"></path>
            <path d="M192.836076,89.7750378 C191.465637,91.1454768 191.465637,93.3669828 192.836076,94.7374218 C194.205948,96.1078608 196.428021,96.1078608 197.79846,94.7374218 C199.168332,93.3669828 199.168332,91.1454768 197.79846,89.7750378 C196.428021,88.4045988 194.205948,88.4045988 192.836076,89.7750378" id="Fill-338" fill="#FFFFFF" mask="url(#mask-2)"></path>
            <path d="M192.836076,89.7750378 C191.465637,91.1454768 191.465637,93.3669828 192.836076,94.7374218 C194.205948,96.1078608 196.428021,96.1078608 197.79846,94.7374218 C199.168332,93.3669828 199.168332,91.1454768 197.79846,89.7750378 C196.428021,88.4045988 194.205948,88.4045988 192.836076,89.7750378 Z" id="Stroke-339" stroke="#EF442E" stroke-width="3.402" mask="url(#mask-2)"></path>
            <path d="M185.038749,77.01561 C183.66831,78.386049 183.66831,80.607555 185.038749,81.977994 C186.409188,83.348433 188.630694,83.348433 190.001133,81.977994 C191.371572,80.607555 191.371572,78.386049 190.001133,77.01561 C188.630694,75.645171 186.409188,75.645171 185.038749,77.01561" id="Fill-340" fill="#FFFFFF" mask="url(#mask-2)"></path>
            <path d="M185.038749,77.01561 C183.66831,78.386049 183.66831,80.607555 185.038749,81.977994 C186.409188,83.348433 188.630694,83.348433 190.001133,81.977994 C191.371572,80.607555 191.371572,78.386049 190.001133,77.01561 C188.630694,75.645171 186.409188,75.645171 185.038749,77.01561 Z" id="Stroke-341" stroke="#EF442E" stroke-width="3.402" mask="url(#mask-2)"></path>
            <polyline id="Stroke-342" stroke="#09B9B3" stroke-width="3.402" mask="url(#mask-2)" points="971.788331 79.7262669 933.944483 79.7268339 902.761751 79.7262669"></polyline>
            <polyline id="Stroke-343" stroke="#09B9B3" stroke-width="3.402" mask="url(#mask-2)" points="942.126576 92.512287 954.827943 92.512854 966.475824 92.512854"></polyline>
            <polyline id="Stroke-344" stroke="#09B9B3" stroke-width="3.402" mask="url(#mask-2)" points="932.066182 67.2625296 944.767549 67.2625296 956.41543 67.2625296"></polyline>
            <polyline id="Stroke-345" stroke="#09B9B3" stroke-width="3.402" mask="url(#mask-2)" points="919.57279 79.7259834 926.376224 73.1068254 932.614924 67.0370904"></polyline>
            <polyline id="Stroke-346" stroke="#09B9B3" stroke-width="3.402" mask="url(#mask-2)" points="929.990338 79.6916799 936.610063 86.4951129 942.679798 92.7332469"></polyline>
            <path d="M957.903975,64.6437267 C959.274414,66.0141657 959.274414,68.2356717 957.903975,69.6061107 C956.533536,70.9765497 954.31203,70.9765497 952.941591,69.6061107 C951.571152,68.2356717 951.571152,66.0141657 952.941591,64.6437267 C954.31203,63.2732877 956.533536,63.2732877 957.903975,64.6437267" id="Fill-347" fill="#FFFFFF" mask="url(#mask-2)"></path>
            <path d="M957.903975,64.6437267 C959.274414,66.0141657 959.274414,68.2356717 957.903975,69.6061107 C956.533536,70.9765497 954.31203,70.9765497 952.941591,69.6061107 C951.571152,68.2356717 951.571152,66.0141657 952.941591,64.6437267 C954.31203,63.2732877 956.533536,63.2732877 957.903975,64.6437267 Z" id="Stroke-348" stroke="#EF442E" stroke-width="3.402" mask="url(#mask-2)"></path>
            <path d="M969.588938,89.7750378 C970.95881,91.1454768 970.95881,93.3669828 969.588938,94.7374218 C968.218499,96.1078608 965.996426,96.1078608 964.626554,94.7374218 C963.256115,93.3669828 963.256115,91.1454768 964.626554,89.7750378 C965.996426,88.4045988 968.218499,88.4045988 969.588938,89.7750378" id="Fill-349" fill="#FFFFFF" mask="url(#mask-2)"></path>
            <path d="M969.588938,89.7750378 C970.95881,91.1454768 970.95881,93.3669828 969.588938,94.7374218 C968.218499,96.1078608 965.996426,96.1078608 964.626554,94.7374218 C963.256115,93.3669828 963.256115,91.1454768 964.626554,89.7750378 C965.996426,88.4045988 968.218499,88.4045988 969.588938,89.7750378 Z" id="Stroke-350" stroke="#EF442E" stroke-width="3.402" mask="url(#mask-2)"></path>
            <path d="M977.385755,77.01561 C978.756194,78.386049 978.756194,80.607555 977.385755,81.977994 C976.015316,83.348433 973.79381,83.348433 972.423371,81.977994 C971.052932,80.607555 971.052932,78.386049 972.423371,77.01561 C973.79381,75.645171 976.015316,75.645171 977.385755,77.01561" id="Fill-351" fill="#FFFFFF" mask="url(#mask-2)"></path>
            <path d="M977.385755,77.01561 C978.756194,78.386049 978.756194,80.607555 977.385755,81.977994 C976.015316,83.348433 973.79381,83.348433 972.423371,81.977994 C971.052932,80.607555 971.052932,78.386049 972.423371,77.01561 C973.79381,75.645171 976.015316,75.645171 977.385755,77.01561 Z" id="Stroke-352" stroke="#EF442E" stroke-width="3.402" mask="url(#mask-2)"></path>
            <path d="M892.151933,160.027358 C892.151933,158.007704 890.514437,156.370775 888.49535,156.370775 C886.475129,156.370775 884.838767,158.007704 884.838767,160.027358 C884.838767,162.047012 886.475129,163.683941 888.49535,163.683941 C890.514437,163.683941 892.151933,162.047012 892.151933,160.027358" id="Fill-353" fill="#09B9B3" mask="url(#mask-2)"></path>
            <path d="M892.151933,141.684341 C892.151933,139.664687 890.514437,138.027758 888.49535,138.027758 C886.475129,138.027758 884.838767,139.664687 884.838767,141.684341 C884.838767,143.703995 886.475129,145.340924 888.49535,145.340924 C890.514437,145.340924 892.151933,143.703995 892.151933,141.684341" id="Fill-354" fill="#09B9B3" mask="url(#mask-2)"></path>
            <path d="M870.340691,215.05709 C870.340691,213.037436 868.703762,211.400507 866.684108,211.400507 C864.664454,211.400507 863.028092,213.037436 863.028092,215.05709 C863.028092,217.076744 864.664454,218.713673 866.684108,218.713673 C868.703762,218.713673 870.340691,217.076744 870.340691,215.05709" id="Fill-355" fill="#09B9B3" mask="url(#mask-2)"></path>
            <path d="M870.340691,196.713789 C870.340691,194.694135 868.703762,193.057206 866.684108,193.057206 C864.664454,193.057206 863.028092,194.694135 863.028092,196.713789 C863.028092,198.733443 864.664454,200.370372 866.684108,200.370372 C868.703762,200.370372 870.340691,198.733443 870.340691,196.713789" id="Fill-356" fill="#09B9B3" mask="url(#mask-2)"></path>
            <path d="M870.340691,178.370716 C870.340691,176.351062 868.703762,174.714133 866.684108,174.714133 C864.664454,174.714133 863.028092,176.351062 863.028092,178.370716 C863.028092,180.39037 864.664454,182.027299 866.684108,182.027299 C868.703762,182.027299 870.340691,180.39037 870.340691,178.370716" id="Fill-357" fill="#09B9B3" mask="url(#mask-2)"></path>
            <path d="M870.340691,160.027358 C870.340691,158.007704 868.703762,156.370775 866.684108,156.370775 C864.664454,156.370775 863.028092,158.007704 863.028092,160.027358 C863.028092,162.047012 864.664454,163.683941 866.684108,163.683941 C868.703762,163.683941 870.340691,162.047012 870.340691,160.027358" id="Fill-358" fill="#09B9B3" mask="url(#mask-2)"></path>
            <path d="M870.340691,141.684341 C870.340691,139.664687 868.703762,138.027758 866.684108,138.027758 C864.664454,138.027758 863.028092,139.664687 863.028092,141.684341 C863.028092,143.703995 864.664454,145.340924 866.684108,145.340924 C868.703762,145.340924 870.340691,143.703995 870.340691,141.684341" id="Fill-359" fill="#09B9B3" mask="url(#mask-2)"></path>
            <path d="M824.574265,215.05709 C824.574265,213.037436 822.937336,211.400507 820.917682,211.400507 C818.898028,211.400507 817.261099,213.037436 817.261099,215.05709 C817.261099,217.076744 818.898028,218.713673 820.917682,218.713673 C822.937336,218.713673 824.574265,217.076744 824.574265,215.05709" id="Fill-360" fill="#09B9B3" mask="url(#mask-2)"></path>
            <path d="M824.574265,196.713789 C824.574265,194.694135 822.937336,193.057206 820.917682,193.057206 C818.898028,193.057206 817.261099,194.694135 817.261099,196.713789 C817.261099,198.733443 818.898028,200.370372 820.917682,200.370372 C822.937336,200.370372 824.574265,198.733443 824.574265,196.713789" id="Fill-361" fill="#09B9B3" mask="url(#mask-2)"></path>
            <path d="M824.574265,178.370716 C824.574265,176.351062 822.937336,174.714133 820.917682,174.714133 C818.898028,174.714133 817.261099,176.351062 817.261099,178.370716 C817.261099,180.39037 818.898028,182.027299 820.917682,182.027299 C822.937336,182.027299 824.574265,180.39037 824.574265,178.370716" id="Fill-362" fill="#09B9B3" mask="url(#mask-2)"></path>
            <path d="M824.574265,160.027358 C824.574265,158.007704 822.937336,156.370775 820.917682,156.370775 C818.898028,156.370775 817.261099,158.007704 817.261099,160.027358 C817.261099,162.047012 818.898028,163.683941 820.917682,163.683941 C822.937336,163.683941 824.574265,162.047012 824.574265,160.027358" id="Fill-363" fill="#09B9B3" mask="url(#mask-2)"></path>
            <path d="M824.574265,141.684341 C824.574265,139.664687 822.937336,138.027758 820.917682,138.027758 C818.898028,138.027758 817.261099,139.664687 817.261099,141.684341 C817.261099,143.703995 818.898028,145.340924 820.917682,145.340924 C822.937336,145.340924 824.574265,143.703995 824.574265,141.684341" id="Fill-364" fill="#09B9B3" mask="url(#mask-2)"></path>
            <path d="M802.76359,160.027358 C802.76359,158.007704 801.126661,156.370775 799.107007,156.370775 C797.087353,156.370775 795.450424,158.007704 795.450424,160.027358 C795.450424,162.047012 797.087353,163.683941 799.107007,163.683941 C801.126661,163.683941 802.76359,162.047012 802.76359,160.027358" id="Fill-365" fill="#09B9B3" mask="url(#mask-2)"></path>
            <path d="M802.76359,141.684341 C802.76359,139.664687 801.126661,138.027758 799.107007,138.027758 C797.087353,138.027758 795.450424,139.664687 795.450424,141.684341 C795.450424,143.703995 797.087353,145.340924 799.107007,145.340924 C801.126661,145.340924 802.76359,143.703995 802.76359,141.684341" id="Fill-366" fill="#09B9B3" mask="url(#mask-2)"></path>
            <path d="M318.414953,245.911812 C319.821113,245.946966 320.920526,247.104213 320.884805,248.510373 C320.849651,249.9171 319.692971,251.015946 318.285677,250.980792 C316.879517,250.945071 315.780671,249.788391 315.815825,248.381664 C315.851546,246.974937 317.008793,245.876658 318.414953,245.911812 M314.801462,248.356716 C314.754401,250.30833 316.306847,251.942991 318.261296,251.995155 C320.21291,252.042783 321.847571,250.48977 321.899735,248.535888 C321.948497,246.580872 320.395484,244.945644 318.440468,244.896882 C316.485452,244.848687 314.850224,246.401133 314.801462,248.356716 M318.519848,241.85436 C324.123509,241.998945 328.53647,246.646077 328.399823,252.249171 C328.305701,256.10307 326.07002,259.396773 322.86647,261.033135 C322.701473,261.118752 322.593743,261.286017 322.586939,261.470859 L322.042619,282.8598 L317.92223,287.209257 L313.157162,280.808961 L315.93206,278.167308 C315.937163,278.16504 315.942266,278.163339 315.945668,278.155968 C316.144118,277.959786 316.148654,277.641132 315.952472,277.442115 L313.340303,274.696134 L316.089686,272.085099 C316.09082,272.081697 316.09649,272.079429 316.097624,272.076027 C316.301177,271.878144 316.302311,271.557222 316.106696,271.358772 L313.280768,268.385424 L313.462775,261.242358 C313.469012,261.056949 313.37489,260.884581 313.218965,260.789892 C310.099331,258.994203 308.025245,255.589935 308.119934,251.736603 C308.264519,246.132375 312.911084,241.711476 318.519848,241.85436 M307.108406,251.712789 C307.00181,255.823539 309.170018,259.450638 312.438773,261.467457 L312.260735,268.58274 C312.257333,268.719387 312.30893,268.853199 312.407021,268.948455 L315.019757,271.695003 L312.269807,274.306038 C312.268673,274.30944 312.263003,274.311141 312.260735,274.318512 C312.061718,274.514127 312.057182,274.833348 312.253364,275.032365 L314.861564,277.777212 L312.11615,280.389381 C311.926205,280.564017 311.893886,280.859424 312.052646,281.066946 L317.449352,288.306969 C317.468063,288.331917 317.485073,288.351195 317.508887,288.373875 C317.714708,288.559851 318.03563,288.549078 318.226709,288.341556 L322.916933,283.388811 C323.000849,283.298658 323.050178,283.181856 323.050745,283.061085 L323.591096,261.75039 C326.965313,259.905372 329.309291,256.394508 329.413052,252.278655 C329.567843,246.124437 324.69788,240.997623 318.543662,240.842832 C312.390578,240.684639 307.26263,245.558004 307.108406,251.712789 M318.414953,245.911812 C319.821113,245.946966 320.920526,247.104213 320.884805,248.510373 C320.849651,249.9171 319.692971,251.015946 318.285677,250.980792 C316.879517,250.945071 315.780671,249.788391 315.815825,248.381664 C315.851546,246.974937 317.008793,245.876658 318.414953,245.911812 M314.801462,248.356716 C314.754401,250.30833 316.306847,251.942991 318.261296,251.995155 C320.21291,252.042783 321.847571,250.48977 321.899735,248.535888 C321.948497,246.580872 320.395484,244.945644 318.440468,244.896882 C316.485452,244.848687 314.850224,246.401133 314.801462,248.356716 M318.414953,245.911812 C319.821113,245.946966 320.920526,247.104213 320.884805,248.510373 C320.849651,249.9171 319.692971,251.015946 318.285677,250.980792 C316.879517,250.945071 315.780671,249.788391 315.815825,248.381664 C315.851546,246.974937 317.008793,245.876658 318.414953,245.911812 M314.801462,248.356716 C314.754401,250.30833 316.306847,251.942991 318.261296,251.995155 C320.21291,252.042783 321.847571,250.48977 321.899735,248.535888 C321.948497,246.580872 320.395484,244.945644 318.440468,244.896882 C316.485452,244.848687 314.850224,246.401133 314.801462,248.356716" id="Fill-367" fill="#FFFFFF" mask="url(#mask-2)"></path>
            <path d="M318.414953,245.911812 C319.821113,245.946966 320.920526,247.104213 320.884805,248.510373 C320.849651,249.9171 319.692971,251.015946 318.285677,250.980792 C316.879517,250.945071 315.780671,249.788391 315.815825,248.381664 C315.851546,246.974937 317.008793,245.876658 318.414953,245.911812 Z M314.801462,248.356716 C314.754401,250.30833 316.306847,251.942991 318.261296,251.995155 C320.21291,252.042783 321.847571,250.48977 321.899735,248.535888 C321.948497,246.580872 320.395484,244.945644 318.440468,244.896882 C316.485452,244.848687 314.850224,246.401133 314.801462,248.356716 Z M318.519848,241.85436 C324.123509,241.998945 328.53647,246.646077 328.399823,252.249171 C328.305701,256.10307 326.07002,259.396773 322.86647,261.033135 C322.701473,261.118752 322.593743,261.286017 322.586939,261.470859 L322.042619,282.8598 L317.92223,287.209257 L313.157162,280.808961 L315.93206,278.167308 C315.937163,278.16504 315.942266,278.163339 315.945668,278.155968 C316.144118,277.959786 316.148654,277.641132 315.952472,277.442115 L313.340303,274.696134 L316.089686,272.085099 C316.09082,272.081697 316.09649,272.079429 316.097624,272.076027 C316.301177,271.878144 316.302311,271.557222 316.106696,271.358772 L313.280768,268.385424 L313.462775,261.242358 C313.469012,261.056949 313.37489,260.884581 313.218965,260.789892 C310.099331,258.994203 308.025245,255.589935 308.119934,251.736603 C308.264519,246.132375 312.911084,241.711476 318.519848,241.85436 Z M307.108406,251.712789 C307.00181,255.823539 309.170018,259.450638 312.438773,261.467457 L312.260735,268.58274 C312.257333,268.719387 312.30893,268.853199 312.407021,268.948455 L315.019757,271.695003 L312.269807,274.306038 C312.268673,274.30944 312.263003,274.311141 312.260735,274.318512 C312.061718,274.514127 312.057182,274.833348 312.253364,275.032365 L314.861564,277.777212 L312.11615,280.389381 C311.926205,280.564017 311.893886,280.859424 312.052646,281.066946 L317.449352,288.306969 C317.468063,288.331917 317.485073,288.351195 317.508887,288.373875 C317.714708,288.559851 318.03563,288.549078 318.226709,288.341556 L322.916933,283.388811 C323.000849,283.298658 323.050178,283.181856 323.050745,283.061085 L323.591096,261.75039 C326.965313,259.905372 329.309291,256.394508 329.413052,252.278655 C329.567843,246.124437 324.69788,240.997623 318.543662,240.842832 C312.390578,240.684639 307.26263,245.558004 307.108406,251.712789 Z M318.414953,245.911812 C319.821113,245.946966 320.920526,247.104213 320.884805,248.510373 C320.849651,249.9171 319.692971,251.015946 318.285677,250.980792 C316.879517,250.945071 315.780671,249.788391 315.815825,248.381664 C315.851546,246.974937 317.008793,245.876658 318.414953,245.911812 Z M314.801462,248.356716 C314.754401,250.30833 316.306847,251.942991 318.261296,251.995155 C320.21291,252.042783 321.847571,250.48977 321.899735,248.535888 C321.948497,246.580872 320.395484,244.945644 318.440468,244.896882 C316.485452,244.848687 314.850224,246.401133 314.801462,248.356716 Z M318.414953,245.911812 C319.821113,245.946966 320.920526,247.104213 320.884805,248.510373 C320.849651,249.9171 319.692971,251.015946 318.285677,250.980792 C316.879517,250.945071 315.780671,249.788391 315.815825,248.381664 C315.851546,246.974937 317.008793,245.876658 318.414953,245.911812 Z M314.801462,248.356716 C314.754401,250.30833 316.306847,251.942991 318.261296,251.995155 C320.21291,252.042783 321.847571,250.48977 321.899735,248.535888 C321.948497,246.580872 320.395484,244.945644 318.440468,244.896882 C316.485452,244.848687 314.850224,246.401133 314.801462,248.356716 Z" id="Stroke-368" stroke="#01244A" stroke-width="1.701" mask="url(#mask-2)"></path>
            <path d="M318.440468,244.897166 C320.395484,244.945928 321.948497,246.580589 321.900302,248.536172 C321.847571,250.489487 320.21291,252.043067 318.261296,251.995439 C316.306847,251.943275 314.754401,250.308047 314.801462,248.356433 C314.850224,246.40085 316.485452,244.848404 318.440468,244.897166 M308.119934,251.736887 C308.025245,255.590219 310.099331,258.99392 313.218965,260.789609 C313.37489,260.884298 313.469012,261.057233 313.462775,261.242075 L313.280768,268.385708 L316.106696,271.358489 C316.302311,271.557506 316.301744,271.877861 316.097624,272.076311 C316.09649,272.079713 316.09082,272.081414 316.089686,272.085383 L313.340303,274.696418 L315.952472,277.442399 C316.148654,277.641416 316.144118,277.96007 315.945668,278.156252 C315.942266,278.163056 315.937163,278.165324 315.93206,278.167592 L313.157162,280.809245 L317.92223,287.209541 L322.043186,282.859517 L322.586939,261.470576 C322.593743,261.285734 322.701473,261.118469 322.86647,261.033419 C326.07002,259.39649 328.305701,256.103354 328.399823,252.249455 C328.53647,246.645794 324.123509,241.999229 318.519848,241.854077 C312.911084,241.71176 308.264519,246.132659 308.119934,251.736887" id="Fill-369" fill="#FFFFFF" mask="url(#mask-2)"></path>
            <path d="M318.440468,244.897166 C320.395484,244.945928 321.948497,246.580589 321.900302,248.536172 C321.847571,250.489487 320.21291,252.043067 318.261296,251.995439 C316.306847,251.943275 314.754401,250.308047 314.801462,248.356433 C314.850224,246.40085 316.485452,244.848404 318.440468,244.897166 Z M308.119934,251.736887 C308.025245,255.590219 310.099331,258.99392 313.218965,260.789609 C313.37489,260.884298 313.469012,261.057233 313.462775,261.242075 L313.280768,268.385708 L316.106696,271.358489 C316.302311,271.557506 316.301744,271.877861 316.097624,272.076311 C316.09649,272.079713 316.09082,272.081414 316.089686,272.085383 L313.340303,274.696418 L315.952472,277.442399 C316.148654,277.641416 316.144118,277.96007 315.945668,278.156252 C315.942266,278.163056 315.937163,278.165324 315.93206,278.167592 L313.157162,280.809245 L317.92223,287.209541 L322.043186,282.859517 L322.586939,261.470576 C322.593743,261.285734 322.701473,261.118469 322.86647,261.033419 C326.07002,259.39649 328.305701,256.103354 328.399823,252.249455 C328.53647,246.645794 324.123509,241.999229 318.519848,241.854077 C312.911084,241.71176 308.264519,246.132659 308.119934,251.736887 Z" id="Stroke-370" stroke="#01244A" stroke-width="1.701" mask="url(#mask-2)"></path>
            <path d="M846.686755,248.381948 C846.721909,249.788108 845.623063,250.945355 844.216903,250.980509 C842.809609,251.01623 841.652929,249.917384 841.617775,248.510657 C841.582054,247.10393 842.681467,245.94725 844.087627,245.912096 C845.493787,245.876375 846.651601,246.975221 846.686755,248.381948 M844.062112,244.897166 C842.107096,244.945928 840.554083,246.580589 840.602845,248.536172 C840.655009,250.489487 842.28967,252.043067 844.241851,251.995439 C846.195733,251.943275 847.748179,250.308047 847.701118,248.356433 C847.652356,246.40085 846.017128,244.848404 844.062112,244.897166 M854.382646,251.736887 C854.477335,255.590219 852.403249,258.99392 849.283615,260.789609 C849.12769,260.884298 849.033568,261.057233 849.039805,261.242075 L849.221812,268.385708 L846.395884,271.358489 C846.200269,271.557506 846.200836,271.877861 846.404956,272.076311 C846.40609,272.079713 846.41176,272.081414 846.412894,272.085383 L849.162277,274.696418 L846.550108,277.442399 C846.353926,277.641416 846.358462,277.96007 846.556912,278.156252 C846.560314,278.163056 846.565417,278.165324 846.57052,278.167592 L849.345418,280.809245 L844.579783,287.209541 L840.459961,282.859517 L839.915641,261.470576 C839.908837,261.285734 839.801107,261.118469 839.63611,261.033419 C836.43256,259.39649 834.196879,256.103354 834.102757,252.249455 C833.96611,246.645794 838.378504,241.999229 843.982732,241.854077 C849.591496,241.71176 854.238061,246.132659 854.382646,251.736887 M843.958918,240.843116 C837.8047,240.99734 832.934737,246.124154 833.089528,252.278372 C833.193289,256.394225 835.537267,259.905656 838.911484,261.750107 L839.451835,283.061369 C839.452402,283.181573 839.501731,283.298942 839.585647,283.388528 L844.275871,288.34184 C844.46695,288.548795 844.787872,288.560135 844.993693,288.374159 C845.017507,288.351479 845.034517,288.331634 845.053228,288.307253 L850.449934,281.06723 C850.608694,280.859141 850.576375,280.564301 850.38643,280.389665 L847.641016,277.776929 L850.249216,275.032082 C850.445398,274.833065 850.440862,274.514411 850.242412,274.318796 C850.239577,274.311425 850.233907,274.309724 850.232773,274.305755 L847.482823,271.69472 L850.095559,268.948739 C850.19365,268.853483 850.245247,268.719104 850.242412,268.582457 L850.063807,261.467174 C853.332562,259.450355 855.50077,255.823823 855.394174,251.713073 C855.23995,245.558288 850.112002,240.684923 843.958918,240.843116 M846.686755,248.381948 C846.721909,249.788108 845.623063,250.945355 844.216903,250.980509 C842.809609,251.01623 841.652929,249.917384 841.617775,248.510657 C841.582054,247.10393 842.681467,245.94725 844.087627,245.912096 C845.493787,245.876375 846.651601,246.975221 846.686755,248.381948 M844.062112,244.897166 C842.107096,244.945928 840.554083,246.580589 840.602845,248.536172 C840.655009,250.489487 842.28967,252.043067 844.241851,251.995439 C846.195733,251.943275 847.748179,250.308047 847.701118,248.356433 C847.652356,246.40085 846.017128,244.848404 844.062112,244.897166 M846.686755,248.381948 C846.721909,249.788108 845.623063,250.945355 844.216903,250.980509 C842.809609,251.01623 841.652929,249.917384 841.617775,248.510657 C841.582054,247.10393 842.681467,245.94725 844.087627,245.912096 C845.493787,245.876375 846.651601,246.975221 846.686755,248.381948 M844.062112,244.897166 C842.107096,244.945928 840.554083,246.580589 840.602845,248.536172 C840.655009,250.489487 842.28967,252.043067 844.241851,251.995439 C846.195733,251.943275 847.748179,250.308047 847.701118,248.356433 C847.652356,246.40085 846.017128,244.848404 844.062112,244.897166" id="Fill-371" fill="#FFFFFF" mask="url(#mask-2)"></path>
            <path d="M846.686755,248.381948 C846.721909,249.788108 845.623063,250.945355 844.216903,250.980509 C842.809609,251.01623 841.652929,249.917384 841.617775,248.510657 C841.582054,247.10393 842.681467,245.94725 844.087627,245.912096 C845.493787,245.876375 846.651601,246.975221 846.686755,248.381948 Z M844.062112,244.897166 C842.107096,244.945928 840.554083,246.580589 840.602845,248.536172 C840.655009,250.489487 842.28967,252.043067 844.241851,251.995439 C846.195733,251.943275 847.748179,250.308047 847.701118,248.356433 C847.652356,246.40085 846.017128,244.848404 844.062112,244.897166 Z M854.382646,251.736887 C854.477335,255.590219 852.403249,258.99392 849.283615,260.789609 C849.12769,260.884298 849.033568,261.057233 849.039805,261.242075 L849.221812,268.385708 L846.395884,271.358489 C846.200269,271.557506 846.200836,271.877861 846.404956,272.076311 C846.40609,272.079713 846.41176,272.081414 846.412894,272.085383 L849.162277,274.696418 L846.550108,277.442399 C846.353926,277.641416 846.358462,277.96007 846.556912,278.156252 C846.560314,278.163056 846.565417,278.165324 846.57052,278.167592 L849.345418,280.809245 L844.579783,287.209541 L840.459961,282.859517 L839.915641,261.470576 C839.908837,261.285734 839.801107,261.118469 839.63611,261.033419 C836.43256,259.39649 834.196879,256.103354 834.102757,252.249455 C833.96611,246.645794 838.378504,241.999229 843.982732,241.854077 C849.591496,241.71176 854.238061,246.132659 854.382646,251.736887 Z M843.958918,240.843116 C837.8047,240.99734 832.934737,246.124154 833.089528,252.278372 C833.193289,256.394225 835.537267,259.905656 838.911484,261.750107 L839.451835,283.061369 C839.452402,283.181573 839.501731,283.298942 839.585647,283.388528 L844.275871,288.34184 C844.46695,288.548795 844.787872,288.560135 844.993693,288.374159 C845.017507,288.351479 845.034517,288.331634 845.053228,288.307253 L850.449934,281.06723 C850.608694,280.859141 850.576375,280.564301 850.38643,280.389665 L847.641016,277.776929 L850.249216,275.032082 C850.445398,274.833065 850.440862,274.514411 850.242412,274.318796 C850.239577,274.311425 850.233907,274.309724 850.232773,274.305755 L847.482823,271.69472 L850.095559,268.948739 C850.19365,268.853483 850.245247,268.719104 850.242412,268.582457 L850.063807,261.467174 C853.332562,259.450355 855.50077,255.823823 855.394174,251.713073 C855.23995,245.558288 850.112002,240.684923 843.958918,240.843116 Z M846.686755,248.381948 C846.721909,249.788108 845.623063,250.945355 844.216903,250.980509 C842.809609,251.01623 841.652929,249.917384 841.617775,248.510657 C841.582054,247.10393 842.681467,245.94725 844.087627,245.912096 C845.493787,245.876375 846.651601,246.975221 846.686755,248.381948 Z M844.062112,244.897166 C842.107096,244.945928 840.554083,246.580589 840.602845,248.536172 C840.655009,250.489487 842.28967,252.043067 844.241851,251.995439 C846.195733,251.943275 847.748179,250.308047 847.701118,248.356433 C847.652356,246.40085 846.017128,244.848404 844.062112,244.897166 Z M846.686755,248.381948 C846.721909,249.788108 845.623063,250.945355 844.216903,250.980509 C842.809609,251.01623 841.652929,249.917384 841.617775,248.510657 C841.582054,247.10393 842.681467,245.94725 844.087627,245.912096 C845.493787,245.876375 846.651601,246.975221 846.686755,248.381948 Z M844.062112,244.897166 C842.107096,244.945928 840.554083,246.580589 840.602845,248.536172 C840.655009,250.489487 842.28967,252.043067 844.241851,251.995439 C846.195733,251.943275 847.748179,250.308047 847.701118,248.356433 C847.652356,246.40085 846.017128,244.848404 844.062112,244.897166 Z" id="Stroke-372" stroke="#01244A" stroke-width="1.701" mask="url(#mask-2)"></path>
            <path d="M847.701118,248.356433 C847.748179,250.308047 846.195733,251.943275 844.241284,251.995439 C842.28967,252.0425 840.655009,250.489487 840.602278,248.536172 C840.554083,246.580589 842.107096,244.945928 844.062112,244.897166 C846.017128,244.848404 847.652356,246.40085 847.701118,248.356433 M843.982732,241.854077 C838.378504,241.999229 833.96611,246.645794 834.102757,252.249455 C834.196879,256.103354 836.43256,259.39649 839.63611,261.033419 C839.801107,261.118469 839.908837,261.285734 839.915641,261.470576 L840.459961,282.859517 L844.579783,287.208974 L849.345418,280.809245 L846.57052,278.167592 C846.565417,278.165324 846.560314,278.163056 846.556912,278.156252 C846.358462,277.96007 846.353926,277.640849 846.550108,277.442399 L849.162277,274.696418 L846.412894,272.085383 C846.41176,272.081414 846.40609,272.079713 846.404956,272.075744 C846.200836,271.877861 846.200269,271.557506 846.395884,271.358489 L849.221812,268.385708 L849.039805,261.242075 C849.033568,261.057233 849.12769,260.884298 849.283615,260.789609 C852.403249,258.99392 854.477335,255.590219 854.382646,251.73632 C854.238061,246.132659 849.591496,241.71176 843.982732,241.854077" id="Fill-373" fill="#FFFFFF" mask="url(#mask-2)"></path>
            <path d="M847.701118,248.356433 C847.748179,250.308047 846.195733,251.943275 844.241284,251.995439 C842.28967,252.0425 840.655009,250.489487 840.602278,248.536172 C840.554083,246.580589 842.107096,244.945928 844.062112,244.897166 C846.017128,244.848404 847.652356,246.40085 847.701118,248.356433 Z M843.982732,241.854077 C838.378504,241.999229 833.96611,246.645794 834.102757,252.249455 C834.196879,256.103354 836.43256,259.39649 839.63611,261.033419 C839.801107,261.118469 839.908837,261.285734 839.915641,261.470576 L840.459961,282.859517 L844.579783,287.208974 L849.345418,280.809245 L846.57052,278.167592 C846.565417,278.165324 846.560314,278.163056 846.556912,278.156252 C846.358462,277.96007 846.353926,277.640849 846.550108,277.442399 L849.162277,274.696418 L846.412894,272.085383 C846.41176,272.081414 846.40609,272.079713 846.404956,272.075744 C846.200836,271.877861 846.200269,271.557506 846.395884,271.358489 L849.221812,268.385708 L849.039805,261.242075 C849.033568,261.057233 849.12769,260.884298 849.283615,260.789609 C852.403249,258.99392 854.477335,255.590219 854.382646,251.73632 C854.238061,246.132659 849.591496,241.71176 843.982732,241.854077 Z" id="Stroke-374" stroke="#01244A" stroke-width="1.701" mask="url(#mask-2)"></path>
            <path d="M365.375197,160.027358 C365.375197,158.007704 363.737701,156.370775 361.718614,156.370775 C359.69896,156.370775 358.062031,158.007704 358.062031,160.027358 C358.062031,162.047012 359.69896,163.683941 361.718614,163.683941 C363.737701,163.683941 365.375197,162.047012 365.375197,160.027358" id="Fill-375" fill="#09B9B3" mask="url(#mask-2)"></path>
            <path d="M365.375197,141.684341 C365.375197,139.664687 363.737701,138.027758 361.718614,138.027758 C359.69896,138.027758 358.062031,139.664687 358.062031,141.684341 C358.062031,143.703995 359.69896,145.340924 361.718614,145.340924 C363.737701,145.340924 365.375197,143.703995 365.375197,141.684341" id="Fill-376" fill="#09B9B3" mask="url(#mask-2)"></path>
            <path d="M343.564521,215.05709 C343.564521,213.037436 341.927025,211.400507 339.907938,211.400507 C337.888284,211.400507 336.251355,213.037436 336.251355,215.05709 C336.251355,217.076744 337.888284,218.713673 339.907938,218.713673 C341.927025,218.713673 343.564521,217.076744 343.564521,215.05709" id="Fill-377" fill="#09B9B3" mask="url(#mask-2)"></path>
            <path d="M343.564521,196.713789 C343.564521,194.694135 341.927025,193.057206 339.907938,193.057206 C337.888284,193.057206 336.251355,194.694135 336.251355,196.713789 C336.251355,198.733443 337.888284,200.370372 339.907938,200.370372 C341.927025,200.370372 343.564521,198.733443 343.564521,196.713789" id="Fill-378" fill="#09B9B3" mask="url(#mask-2)"></path>
            <path d="M343.564521,178.370716 C343.564521,176.351062 341.927025,174.714133 339.907938,174.714133 C337.888284,174.714133 336.251355,176.351062 336.251355,178.370716 C336.251355,180.39037 337.888284,182.027299 339.907938,182.027299 C341.927025,182.027299 343.564521,180.39037 343.564521,178.370716" id="Fill-379" fill="#09B9B3" mask="url(#mask-2)"></path>
            <path d="M343.564521,160.027358 C343.564521,158.007704 341.927025,156.370775 339.907938,156.370775 C337.888284,156.370775 336.251355,158.007704 336.251355,160.027358 C336.251355,162.047012 337.888284,163.683941 339.907938,163.683941 C341.927025,163.683941 343.564521,162.047012 343.564521,160.027358" id="Fill-380" fill="#09B9B3" mask="url(#mask-2)"></path>
            <path d="M343.564521,141.684341 C343.564521,139.664687 341.927025,138.027758 339.907938,138.027758 C337.888284,138.027758 336.251355,139.664687 336.251355,141.684341 C336.251355,143.703995 337.888284,145.340924 339.907938,145.340924 C341.927025,145.340924 343.564521,143.703995 343.564521,141.684341" id="Fill-381" fill="#09B9B3" mask="url(#mask-2)"></path>
            <path d="M360.671989,645.130219 C359.243716,643.701946 356.928655,643.701946 355.500949,645.130219 C354.072676,646.558492 354.072676,648.873553 355.500949,650.301259 C356.928655,651.729532 359.243716,651.729532 360.671989,650.301259 C362.100262,648.873553 362.100262,646.558492 360.671989,645.130219" id="Fill-382" fill="#09B9B3" mask="url(#mask-2)"></path>
            <path d="M347.701297,632.159527 C346.273024,630.731254 343.957963,630.731254 342.530257,632.159527 C341.101984,633.5878 341.101984,635.902861 342.530257,637.330567 C343.957963,638.75884 346.273024,638.75884 347.701297,637.330567 C349.12957,635.902861 349.12957,633.5878 347.701297,632.159527" id="Fill-383" fill="#01244A" mask="url(#mask-2)"></path>
            <path d="M334.731172,619.188835 C333.302899,617.760562 330.987271,617.760562 329.559565,619.188835 C328.131292,620.617108 328.131292,622.932169 329.559565,624.359875 C330.987271,625.788148 333.302899,625.788148 334.731172,624.359875 C336.159445,622.932169 336.159445,620.617108 334.731172,619.188835" id="Fill-384" fill="#09B9B3" mask="url(#mask-2)"></path>
            <path d="M321.76048,606.218143 C320.332207,604.78987 318.016579,604.78987 316.588873,606.218143 C315.1606,607.646416 315.1606,609.961477 316.588873,611.389183 C318.016579,612.817456 320.332207,612.817456 321.76048,611.389183 C323.188753,609.961477 323.188753,607.646416 321.76048,606.218143" id="Fill-385" fill="#01244A" mask="url(#mask-2)"></path>
            <path d="M308.789788,593.247507 C307.361515,591.819234 305.045887,591.819234 303.618181,593.247507 C302.189908,594.67578 302.189908,596.991408 303.618181,598.419114 C305.045887,599.847387 307.361515,599.847387 308.789788,598.419114 C310.218061,596.991408 310.218061,594.67578 308.789788,593.247507" id="Fill-386" fill="#09B9B3" mask="url(#mask-2)"></path>
            <path d="M789.30403,645.130219 C790.732303,643.701946 793.047931,643.701946 794.475637,645.130219 C795.90391,646.558492 795.90391,648.873553 794.475637,650.301259 C793.047931,651.729532 790.732303,651.729532 789.30403,650.301259 C787.875757,648.873553 787.875757,646.558492 789.30403,645.130219" id="Fill-387" fill="#09B9B3" mask="url(#mask-2)"></path>
            <path d="M802.274666,632.159527 C803.702939,630.731254 806.018567,630.731254 807.446273,632.159527 C808.874546,633.5878 808.874546,635.902861 807.446273,637.330567 C806.018567,638.75884 803.702939,638.75884 802.274666,637.330567 C800.846393,635.902861 800.846393,633.5878 802.274666,632.159527" id="Fill-388" fill="#01244A" mask="url(#mask-2)"></path>
            <path d="M815.245358,619.188835 C816.673631,617.760562 818.988692,617.760562 820.416398,619.188835 C821.844671,620.617108 821.844671,622.932169 820.416398,624.359875 C818.988692,625.788148 816.673631,625.788148 815.245358,624.359875 C813.817085,622.932169 813.817085,620.617108 815.245358,619.188835" id="Fill-389" fill="#09B9B3" mask="url(#mask-2)"></path>
            <path d="M828.216049,606.218143 C829.644322,604.78987 831.959383,604.78987 833.387089,606.218143 C834.815362,607.646416 834.815362,609.961477 833.387089,611.389183 C831.959383,612.817456 829.644322,612.817456 828.216049,611.389183 C826.787776,609.961477 826.787776,607.646416 828.216049,606.218143" id="Fill-390" fill="#01244A" mask="url(#mask-2)"></path>
            <path d="M841.186742,593.247507 C842.615015,591.819234 844.930076,591.819234 846.357782,593.247507 C847.786055,594.67578 847.786055,596.991408 846.357782,598.419114 C844.930076,599.847387 842.615015,599.847387 841.186742,598.419114 C839.758469,596.991408 839.758469,594.67578 841.186742,593.247507" id="Fill-391" fill="#09B9B3" mask="url(#mask-2)"></path>
            <path d="M297.798096,215.05709 C297.798096,213.037436 296.1606,211.400507 294.141513,211.400507 C292.121292,211.400507 290.48493,213.037436 290.48493,215.05709 C290.48493,217.076744 292.121292,218.713673 294.141513,218.713673 C296.1606,218.713673 297.798096,217.076744 297.798096,215.05709" id="Fill-392" fill="#09B9B3" mask="url(#mask-2)"></path>
            <path d="M297.798096,196.713789 C297.798096,194.694135 296.1606,193.057206 294.141513,193.057206 C292.121292,193.057206 290.48493,194.694135 290.48493,196.713789 C290.48493,198.733443 292.121292,200.370372 294.141513,200.370372 C296.1606,200.370372 297.798096,198.733443 297.798096,196.713789" id="Fill-393" fill="#09B9B3" mask="url(#mask-2)"></path>
            <path d="M297.798096,178.370716 C297.798096,176.351062 296.1606,174.714133 294.141513,174.714133 C292.121292,174.714133 290.48493,176.351062 290.48493,178.370716 C290.48493,180.39037 292.121292,182.027299 294.141513,182.027299 C296.1606,182.027299 297.798096,180.39037 297.798096,178.370716" id="Fill-394" fill="#09B9B3" mask="url(#mask-2)"></path>
            <path d="M297.798096,160.027358 C297.798096,158.007704 296.1606,156.370775 294.141513,156.370775 C292.121292,156.370775 290.48493,158.007704 290.48493,160.027358 C290.48493,162.047012 292.121292,163.683941 294.141513,163.683941 C296.1606,163.683941 297.798096,162.047012 297.798096,160.027358" id="Fill-395" fill="#09B9B3" mask="url(#mask-2)"></path>
            <path d="M297.798096,141.684341 C297.798096,139.664687 296.1606,138.027758 294.141513,138.027758 C292.121292,138.027758 290.48493,139.664687 290.48493,141.684341 C290.48493,143.703995 292.121292,145.340924 294.141513,145.340924 C296.1606,145.340924 297.798096,143.703995 297.798096,141.684341" id="Fill-396" fill="#09B9B3" mask="url(#mask-2)"></path>
            <path d="M275.98742,160.027358 C275.98742,158.007704 274.349924,156.370775 272.330837,156.370775 C270.310616,156.370775 268.674254,158.007704 268.674254,160.027358 C268.674254,162.047012 270.310616,163.683941 272.330837,163.683941 C274.349924,163.683941 275.98742,162.047012 275.98742,160.027358" id="Fill-397" fill="#09B9B3" mask="url(#mask-2)"></path>
            <path d="M275.98742,141.684341 C275.98742,139.664687 274.349924,138.027758 272.330837,138.027758 C270.310616,138.027758 268.674254,139.664687 268.674254,141.684341 C268.674254,143.703995 270.310616,145.340924 272.330837,145.340924 C274.349924,145.340924 275.98742,143.703995 275.98742,141.684341" id="Fill-398" fill="#09B9B3" mask="url(#mask-2)"></path>
            <path d="M958.19082,481.055387 L956.186475,483.060299" id="Stroke-407" stroke="#09B9B3" stroke-width="3.402" mask="url(#mask-2)"></path>
            <path d="M952.186404,487.059577 L874.191585,565.054963" id="Stroke-408" stroke="#09B9B3" stroke-width="3.402" stroke-dasharray="5.65639214515686,5.65639214515686" mask="url(#mask-2)"></path>
            <polyline id="Stroke-409" stroke="#09B9B3" stroke-width="3.402" mask="url(#mask-2)" points="872.191776 567.054205 870.187431 569.059117 867.352431 569.038705"></polyline>
            <path d="M861.724956,568.997711 L842.030211,568.855961" id="Stroke-410" stroke="#09B9B3" stroke-width="3.402" stroke-dasharray="5.627474927902222,5.627474927902222" mask="url(#mask-2)"></path>
            <polyline id="Stroke-411" stroke="#09B9B3" stroke-width="3.402" mask="url(#mask-2)" points="839.216076 568.835492 836.381643 568.81508 834.376731 570.819992"></polyline>
            <path d="M830.422587,574.773457 L666.331653,738.864391" id="Stroke-412" stroke="#09B9B3" stroke-width="3.402" stroke-dasharray="5.59175398349762,5.59175398349762" mask="url(#mask-2)"></path>
            <path d="M405.182566,533.776181 L332.958673,461.547185 C330.633973,459.221351 327.479752,457.91555 324.191719,457.91555 L303.001795,457.91555 C299.713762,457.91555 296.560108,456.608615 294.234841,454.283915 L11.6754939,171.724001 C3.8650689,163.913576 9.3967209,150.559025 20.4424479,150.559025 L198.670393,150.559025 C209.71612,150.559025 215.248339,137.203907 207.437347,129.393482 L149.049955,71.0060904 C141.238963,63.1950984 146.771182,49.8405474 157.816342,49.8405474 L493.101586,49.8405474 C496.389619,49.8405474 499.543273,51.1463484 501.867973,53.4716154 L516.768166,68.3712414 C519.092866,70.6965084 522.24652,72.0023094 525.53512,72.0023094 L630.054199,72.0023094 C633.342232,72.0023094 636.495886,70.6965084 638.821153,68.3712414 L653.720779,53.4716154 C656.045479,51.1463484 659.199133,49.8405474 662.487733,49.8405474 L984.942901,49.8405474 C1001.01111,49.8405474 1009.05741,69.2688024 997.694164,80.6320494 L943.860349,134.472101 C937.921591,140.410859 942.124762,150.559025 950.524867,150.559025 L1135.92763,150.559025 C1146.97336,150.559025 1152.50501,163.913576 1144.69458,171.724001 L1021.65275,294.765836 C1019.32748,297.091103 1016.17439,298.397471 1012.88579,298.397471 L991.931743,298.397471 C988.643143,298.397471 985.490056,299.703839 983.164789,302.028539 L909.428707,375.764621 C907.104007,378.089888 905.797639,381.243542 905.797639,384.531575 L905.797639,405.485627 C905.797639,408.774227 904.490704,411.927881 902.166004,414.253148 L586.951993,729.467159 C582.11038,734.308772 574.259698,734.308772 569.418085,729.467159 L412.445269,572.493776 C410.120002,570.169076 408.813634,567.014855 408.813634,563.726822 L408.813634,542.543135 C408.813634,539.254535 407.507833,536.101448 405.182566,533.776181 Z" id="Stroke-414" stroke="#01244A" stroke-width="3.402" mask="url(#mask-2)"></path>
            <polygon id="Stroke-415" stroke="#09B9B3" stroke-width="3.402" mask="url(#mask-2)" points="378.110527 465.92108 368.520856 475.510751 358.931185 465.92108 368.520856 456.330842"></polygon>
            <polygon id="Stroke-416" stroke="#01244A" stroke-width="3.402" mask="url(#mask-2)" points="397.590663 485.401216 388.000992 494.990887 378.411321 485.401216 388.000992 475.810978"></polygon>
            <polygon id="Stroke-417" stroke="#09B9B3" stroke-width="3.402" mask="url(#mask-2)" points="417.070741 504.880784 407.48107 514.471022 397.891399 504.880784 407.48107 495.291113"></polygon>
            <polygon id="Stroke-418" stroke="#09B9B3" stroke-width="3.402" mask="url(#mask-2)" points="907.480892 336.148955 917.070563 345.739193 907.480892 355.328864 897.891221 345.739193"></polygon>
            <polygon id="Stroke-419" stroke="#01244A" stroke-width="3.402" mask="url(#mask-2)" points="926.960971 316.66916 936.550642 326.258831 926.960971 335.849069 917.3713 326.258831"></polygon>
            <polygon id="Stroke-420" stroke="#09B9B3" stroke-width="3.402" mask="url(#mask-2)" points="946.441106 297.189024 956.030777 306.779262 946.441106 316.368933 936.850868 306.779262"></polygon>
            <path d="M223.361599,348.756143 L225.366511,350.760488" id="Stroke-421" stroke="#09B9B3" stroke-width="3.402" mask="url(#mask-2)"></path>
            <path d="M229.263048,354.657309 L310.29075,435.685011 L340.372368,435.685011 L360.816687,456.12933" id="Stroke-422" stroke="#09B9B3" stroke-width="3.402" stroke-dasharray="5.510673022270203,5.510673022270203" mask="url(#mask-2)"></path>
            <path d="M362.765012,458.078053 L364.769357,460.082398" id="Stroke-423" stroke="#09B9B3" stroke-width="3.402" mask="url(#mask-2)"></path>
            <path d="M753.24799,531.201945 L755.2495,529.194765" id="Stroke-424" stroke="#09B9B3" stroke-width="3.402" mask="url(#mask-2)"></path>
            <path d="M759.327194,525.105617 L885.092897,398.984405 L885.092897,372.106337" id="Stroke-425" stroke="#09B9B3" stroke-width="3.402" stroke-dasharray="5.774328088760377,5.774328088760377" mask="url(#mask-2)"></path>
            <polyline id="Stroke-426" stroke="#09B9B3" stroke-width="3.402" mask="url(#mask-2)" points="885.09267 369.219117 885.09267 366.384117 887.121396 364.403586"></polyline>
            <path d="M891.003532,360.613588 L896.827189,354.928279" id="Stroke-427" stroke="#09B9B3" stroke-width="3.402" stroke-dasharray="5.425623178482056,5.425623178482056" mask="url(#mask-2)"></path>
            <path d="M898.768256,353.033308 L900.796982,351.052777" id="Stroke-428" stroke="#09B9B3" stroke-width="3.402" mask="url(#mask-2)"></path>
            <path d="M355.048483,88.555761 L493.199734,88.555761 C496.210504,88.555761 499.090864,89.746461 501.223351,91.878381 L569.405101,160.060131 C574.247281,164.902311 582.099664,164.902311 586.941844,160.060131 L655.123594,91.878381 C657.249844,89.746461 660.135874,88.555761 663.140974,88.555761 L807.376135,88.555761" id="Stroke-429" stroke="#01244A" stroke-width="3.402" mask="url(#mask-2)"></path>
            <g id="Group-432" mask="url(#mask-2)">
                <g transform="translate(518.805000, 83.349000)">
                    <path d="M0.0505764,0.6125868 L118.290488,0.6125868" id="Fill-430" stroke="none" fill="#FFFFFF" fill-rule="evenodd"></path>
                    <path d="M0.0505764,0.6125868 L118.290488,0.6125868" id="Stroke-431" stroke="#01244A" stroke-width="3.402" fill="none"></path>
                </g>
            </g>
            <g id="Group-435" mask="url(#mask-2)">
                <g transform="translate(516.537000, 88.452000)">
                    <path d="M0.1524663,0.4168584 L56.8207143,57.8936484" id="Fill-433" stroke="none" fill="#FFFFFF" fill-rule="evenodd"></path>
                    <path d="M0.1524663,0.4168584 L56.8207143,57.8936484" id="Stroke-434" stroke="#01244A" stroke-width="3.402" fill="none"></path>
                </g>
            </g>
            <g id="Group-438" mask="url(#mask-2)">
                <g transform="translate(582.309000, 88.452000)">
                    <path d="M56.9531655,0.4168584 L0.2849175,57.8936484" id="Fill-436" stroke="none" fill="#FFFFFF" fill-rule="evenodd"></path>
                    <path d="M56.9531655,0.4168584 L0.2849175,57.8936484" id="Stroke-437" stroke="#01244A" stroke-width="3.402" fill="none"></path>
                </g>
            </g>
            <path d="M577.923255,154.65526 C575.213562,154.626343 573.040251,152.405971 573.068601,149.695711 C573.097518,146.986018 575.31789,144.812707 578.028717,144.841057 C580.73841,144.870541 582.911721,147.090913 582.882804,149.800606 C582.853887,152.510866 580.632948,154.684177 577.923255,154.65526" id="Fill-439" fill="#FFFFFF" mask="url(#mask-2)"></path>
            <path d="M577.923255,154.65526 C575.213562,154.626343 573.040251,152.405971 573.068601,149.695711 C573.097518,146.986018 575.31789,144.812707 578.028717,144.841057 C580.73841,144.870541 582.911721,147.090913 582.882804,149.800606 C582.853887,152.510866 580.632948,154.684177 577.923255,154.65526 Z" id="Stroke-440" stroke="#EF442E" stroke-width="3.402" mask="url(#mask-2)"></path>
            <path d="M641.950426,88.8685749 C639.240733,88.8396579 637.066855,86.6192859 637.095772,83.9090259 C637.124689,81.1993329 639.345061,79.0254549 642.055888,79.0543719 C644.765581,79.0838559 646.938892,81.3042279 646.909975,84.0139209 C646.881058,86.7241809 644.660119,88.8974919 641.950426,88.8685749" id="Fill-441" fill="#FFFFFF" mask="url(#mask-2)"></path>
            <path d="M641.950426,88.8685749 C639.240733,88.8396579 637.066855,86.6192859 637.095772,83.9090259 C637.124689,81.1993329 639.345061,79.0254549 642.055888,79.0543719 C644.765581,79.0838559 646.938892,81.3042279 646.909975,84.0139209 C646.881058,86.7241809 644.660119,88.8974919 641.950426,88.8685749 Z" id="Stroke-442" stroke="#EF442E" stroke-width="3.402" mask="url(#mask-2)"></path>
            <path d="M513.895971,88.8685749 C511.186278,88.8396579 509.012967,86.6192859 509.041317,83.9090259 C509.070234,81.1993329 511.290606,79.0254549 514.001433,79.0543719 C516.711126,79.0838559 518.884437,81.3042279 518.85552,84.0139209 C518.826603,86.7241809 516.606231,88.8974919 513.895971,88.8685749" id="Fill-443" fill="#FFFFFF" mask="url(#mask-2)"></path>
            <path d="M513.895971,88.8685749 C511.186278,88.8396579 509.012967,86.6192859 509.041317,83.9090259 C509.070234,81.1993329 511.290606,79.0254549 514.001433,79.0543719 C516.711126,79.0838559 518.884437,81.3042279 518.85552,84.0139209 C518.826603,86.7241809 516.606231,88.8974919 513.895971,88.8685749 Z" id="Stroke-444" stroke="#EF442E" stroke-width="3.402" mask="url(#mask-2)"></path>
            <path d="M953.617739,461.772454 L976.080011,484.234726" id="Stroke-452" stroke="#01244A" stroke-width="3.402" mask="url(#mask-2)"></path>
            <path d="M961.147669,454.242241 L983.609941,476.704513" id="Stroke-453" stroke="#09B9B3" stroke-width="3.402" mask="url(#mask-2)"></path>
            <path d="M968.678109,446.712027 L991.140381,469.174299" id="Stroke-454" stroke="#01244A" stroke-width="3.402" mask="url(#mask-2)"></path>
            <path d="M976.208039,439.18187 L998.670311,461.644142" id="Stroke-455" stroke="#09B9B3" stroke-width="3.402" mask="url(#mask-2)"></path>
            <path d="M983.73848,431.651657 L1006.20075,454.113929" id="Stroke-456" stroke="#01244A" stroke-width="3.402" mask="url(#mask-2)"></path>
            <path d="M991.26841,424.121443 L1013.73068,446.583715" id="Stroke-457" stroke="#09B9B3" stroke-width="3.402" mask="url(#mask-2)"></path>
            <path d="M998.79885,416.591286 L1021.26112,439.053558" id="Stroke-458" stroke="#01244A" stroke-width="3.402" mask="url(#mask-2)"></path>
            <polygon id="Stroke-459" stroke="#09B9B3" stroke-width="3.402" mask="url(#mask-2)" points="1028.13061 433.45483 970.480886 491.103988 947.100074 467.723176 1004.7498 410.074018"></polygon>
            <path d="M200.28073,461.772454 L177.818458,484.234726" id="Stroke-460" stroke="#01244A" stroke-width="3.402" mask="url(#mask-2)"></path>
            <path d="M192.750232,454.242241 L170.28796,476.704513" id="Stroke-461" stroke="#09B9B3" stroke-width="3.402" mask="url(#mask-2)"></path>
            <path d="M185.220359,446.712027 L162.758087,469.174299" id="Stroke-462" stroke="#01244A" stroke-width="3.402" mask="url(#mask-2)"></path>
            <path d="M177.689862,439.18187 L155.22759,461.644142" id="Stroke-463" stroke="#09B9B3" stroke-width="3.402" mask="url(#mask-2)"></path>
            <path d="M170.159932,431.651657 L147.69766,454.113929" id="Stroke-464" stroke="#01244A" stroke-width="3.402" mask="url(#mask-2)"></path>
            <path d="M162.629491,424.121443 L140.167219,446.583715" id="Stroke-465" stroke="#09B9B3" stroke-width="3.402" mask="url(#mask-2)"></path>
            <path d="M155.099561,416.591286 L132.637289,439.053558" id="Stroke-466" stroke="#01244A" stroke-width="3.402" mask="url(#mask-2)"></path>
            <polygon id="Stroke-467" stroke="#09B9B3" stroke-width="3.402" mask="url(#mask-2)" points="125.767858 433.45483 183.417016 491.103988 206.798395 467.723176 149.14867 410.074018"></polygon>
            <path d="M480.786289,736.887829 L316.695355,572.796895" id="Stroke-469" stroke="#09B9B3" stroke-width="3.402" stroke-dasharray="5.59175398349762,5.59175398349762" mask="url(#mask-2)"></path>
            <polyline id="Stroke-470" stroke="#09B9B3" stroke-width="3.402" mask="url(#mask-2)" points="314.718396 570.819992 312.713484 568.81508 309.879051 568.835492"></polyline>
            <path d="M304.251576,568.87592 L284.556831,569.018237" id="Stroke-471" stroke="#09B9B3" stroke-width="3.402" stroke-dasharray="5.627474927902222,5.627474927902222" mask="url(#mask-2)"></path>
            <polyline id="Stroke-472" stroke="#09B9B3" stroke-width="3.402" mask="url(#mask-2)" points="281.742697 569.038705 278.907697 569.059117 276.903352 567.054205"></polyline>
            <path d="M272.903791,563.054757 L194.908405,485.059938" id="Stroke-473" stroke="#09B9B3" stroke-width="3.402" stroke-dasharray="5.65639214515686,5.65639214515686" mask="url(#mask-2)"></path>
            <path d="M192.909163,483.060129 L190.904251,481.055217" id="Stroke-474" stroke="#09B9B3" stroke-width="3.402" mask="url(#mask-2)"></path>
            <path d="M891.110411,516.06021 C888.631487,516.06021 886.622039,514.050195 886.622039,511.571271 C886.622039,509.092347 888.631487,507.082332 891.110411,507.082332 C893.589902,507.082332 895.59935,509.092347 895.59935,511.571271 C895.59935,514.050195 893.589902,516.06021 891.110411,516.06021" id="Fill-482" fill="#FFFFFF" mask="url(#mask-2)"></path>
            <path d="M891.110411,516.06021 C888.631487,516.06021 886.622039,514.050195 886.622039,511.571271 C886.622039,509.092347 888.631487,507.082332 891.110411,507.082332 C893.589902,507.082332 895.59935,509.092347 895.59935,511.571271 C895.59935,514.050195 893.589902,516.06021 891.110411,516.06021 Z" id="Stroke-483" stroke="#EF442E" stroke-width="3.402" mask="url(#mask-2)"></path>
            <path d="M857.808006,503.896812 C855.329082,503.896812 853.319067,501.886797 853.319067,499.407873 C853.319067,496.928949 855.329082,494.918934 857.808006,494.918934 C860.28693,494.918934 862.296945,496.928949 862.296945,499.407873 C862.296945,501.886797 860.28693,503.896812 857.808006,503.896812" id="Fill-484" fill="#FFFFFF" mask="url(#mask-2)"></path>
            <path d="M857.808006,503.896812 C855.329082,503.896812 853.319067,501.886797 853.319067,499.407873 C853.319067,496.928949 855.329082,494.918934 857.808006,494.918934 C860.28693,494.918934 862.296945,496.928949 862.296945,499.407873 C862.296945,501.886797 860.28693,503.896812 857.808006,503.896812 Z" id="Stroke-485" stroke="#EF442E" stroke-width="3.402" mask="url(#mask-2)"></path>
            <path d="M862.296945,522.491521 C859.818021,522.491521 857.808006,520.481506 857.808006,518.002582 C857.808006,515.523658 859.818021,513.513643 862.296945,513.513643 C864.775869,513.513643 866.785884,515.523658 866.785884,518.002582 C866.785884,520.481506 864.775869,522.491521 862.296945,522.491521" id="Fill-486" fill="#FFFFFF" mask="url(#mask-2)"></path>
            <path d="M862.296945,522.491521 C859.818021,522.491521 857.808006,520.481506 857.808006,518.002582 C857.808006,515.523658 859.818021,513.513643 862.296945,513.513643 C864.775869,513.513643 866.785884,515.523658 866.785884,518.002582 C866.785884,520.481506 864.775869,522.491521 862.296945,522.491521 Z" id="Stroke-487" stroke="#EF442E" stroke-width="3.402" mask="url(#mask-2)"></path>
        </g>
    </g>
</svg>